<?xml version="1.0" encoding="UTF-8"?>

<!DOCTYPE svg PUBLIC '-//W3C//DTD SVG 1.0//EN' 'http://www.w3.org/TR/2001/REC-SVG-20010904/DTD/svg10.dtd'>
<svg style="fill-opacity:1; color-rendering:auto; color-interpolation:auto; stroke:black; text-rendering:auto; stroke-linecap:square; stroke-miterlimit:10; stroke-opacity:1; shape-rendering:auto; fill:black; stroke-dasharray:none; font-weight:normal; stroke-width:1; font-family:&apos;Dialog&apos;; font-style:normal; stroke-linejoin:miter; font-size:12; stroke-dashoffset:0; image-rendering:auto;" xmlns="http://www.w3.org/2000/svg" width="600" xmlns:xlink="http://www.w3.org/1999/xlink" height="458">
  <!--Generated by the Batik Graphics2D SVG Generator-->
  <defs id="genericDefs" />
  <g>
    <defs id="defs1">
      <clipPath clipPathUnits="userSpaceOnUse" id="clipPath1">
        <path d="M-3 -3 L67 -3 L67 417 L-3 417 L-3 -3 Z" />
      </clipPath>
      <clipPath clipPathUnits="userSpaceOnUse" id="clipPath2">
        <path d="M-3 -3 L97 -3 L97 187 L-3 187 L-3 -3 Z" />
      </clipPath>
      <clipPath clipPathUnits="userSpaceOnUse" id="clipPath3">
        <path d="M-3 -3 L15 -3 L15 35 L-3 35 L-3 -3 Z" />
      </clipPath>
      <clipPath clipPathUnits="userSpaceOnUse" id="clipPath4">
        <path d="M-3 -3 L67 -3 L67 187 L-3 187 L-3 -3 Z" />
      </clipPath>
      <clipPath clipPathUnits="userSpaceOnUse" id="clipPath5">
        <path d="M-3 -3 L107 -3 L107 417 L-3 417 L-3 -3 Z" />
      </clipPath>
      <clipPath clipPathUnits="userSpaceOnUse" id="clipPath6">
        <path d="M-3 -3 L15 -3 L15 189 L-3 189 L-3 -3 Z" />
      </clipPath>
      <clipPath clipPathUnits="userSpaceOnUse" id="clipPath7">
        <path d="M-3 -3 L187 -3 L187 127 L-3 127 L-3 -3 Z" />
      </clipPath>
      <clipPath clipPathUnits="userSpaceOnUse" id="clipPath8">
        <path d="M0 0 L27 0 L27 18 L0 18 L0 0 Z" />
      </clipPath>
      <clipPath clipPathUnits="userSpaceOnUse" id="clipPath9">
        <path d="M-3 -3 L187 -3 L187 109 L-3 109 L-3 -3 Z" />
      </clipPath>
      <clipPath clipPathUnits="userSpaceOnUse" id="clipPath10">
        <path d="M0 0 L118 0 L118 15 L0 15 L0 0 Z" />
      </clipPath>
      <clipPath clipPathUnits="userSpaceOnUse" id="clipPath11">
        <path d="M0 0 L0 4 L180 4 L180 0 Z" />
      </clipPath>
      <clipPath clipPathUnits="userSpaceOnUse" id="clipPath12">
        <path d="M-3 -3 L27 -3 L27 27 L-3 27 L-3 -3 Z" />
      </clipPath>
      <clipPath clipPathUnits="userSpaceOnUse" id="clipPath13">
        <path d="M-3 -3 L207 -3 L207 87 L-3 87 L-3 -3 Z" />
      </clipPath>
      <clipPath clipPathUnits="userSpaceOnUse" id="clipPath14">
        <path d="M0 0 L0 80 L200 80 L200 0 Z" />
      </clipPath>
      <clipPath clipPathUnits="userSpaceOnUse" id="clipPath15">
        <path d="M-3 -3 L15 -3 L15 107 L-3 107 L-3 -3 Z" />
      </clipPath>
      <clipPath clipPathUnits="userSpaceOnUse" id="clipPath16">
        <path d="M-171 -15 L342 -15 L342 30 L-171 30 L-171 -15 Z" />
      </clipPath>
      <clipPath clipPathUnits="userSpaceOnUse" id="clipPath17">
        <path d="M-100 -30 L200 -30 L200 60 L-100 60 L-100 -30 Z" />
      </clipPath>
      <clipPath clipPathUnits="userSpaceOnUse" id="clipPath18">
        <path d="M-60 -15 L120 -15 L120 30 L-60 30 L-60 -15 Z" />
      </clipPath>
      <clipPath clipPathUnits="userSpaceOnUse" id="clipPath19">
        <path d="M-90 -30 L180 -30 L180 60 L-90 60 L-90 -30 Z" />
      </clipPath>
      <clipPath clipPathUnits="userSpaceOnUse" id="clipPath20">
        <path d="M-78 -15 L156 -15 L156 30 L-78 30 L-78 -15 Z" />
      </clipPath>
      <clipPath clipPathUnits="userSpaceOnUse" id="clipPath21">
        <path d="M0 0 L221 0 L221 104 L0 104 L0 0 Z" />
      </clipPath>
      <clipPath clipPathUnits="userSpaceOnUse" id="clipPath22">
        <path d="M0 0 L200 0 L200 104 L0 104 L0 0 Z" />
      </clipPath>
      <clipPath clipPathUnits="userSpaceOnUse" id="clipPath23">
        <path d="M0 0 L226 0 L226 104 L0 104 L0 0 Z" />
      </clipPath>
      <clipPath clipPathUnits="userSpaceOnUse" id="clipPath24">
        <path d="M0 0 L190 0 L190 104 L0 104 L0 0 Z" />
      </clipPath>
      <clipPath clipPathUnits="userSpaceOnUse" id="clipPath25">
        <path d="M0 0 L326 0 L326 104 L0 104 L0 0 Z" />
      </clipPath>
      <clipPath clipPathUnits="userSpaceOnUse" id="clipPath26">
        <path d="M-61 -15 L122 -15 L122 30 L-61 30 L-61 -15 Z" />
      </clipPath>
      <clipPath clipPathUnits="userSpaceOnUse" id="clipPath27">
        <path d="M-135 -15 L270 -15 L270 30 L-135 30 L-135 -15 Z" />
      </clipPath>
      <clipPath clipPathUnits="userSpaceOnUse" id="clipPath28">
        <path d="M-51 -15 L102 -15 L102 30 L-51 30 L-51 -15 Z" />
      </clipPath>
      <clipPath clipPathUnits="userSpaceOnUse" id="clipPath29">
        <path d="M-79 -15 L158 -15 L158 30 L-79 30 L-79 -15 Z" />
      </clipPath>
      <clipPath clipPathUnits="userSpaceOnUse" id="clipPath30">
        <path d="M-120 -15 L240 -15 L240 30 L-120 30 L-120 -15 Z" />
      </clipPath>
      <clipPath clipPathUnits="userSpaceOnUse" id="clipPath31">
        <path d="M-81 -30 L162 -30 L162 60 L-81 60 L-81 -30 Z" />
      </clipPath>
      <clipPath clipPathUnits="userSpaceOnUse" id="clipPath32">
        <path d="M-132 -15 L264 -15 L264 30 L-132 30 L-132 -15 Z" />
      </clipPath>
    </defs>
    <g style="fill:white; text-rendering:geometricPrecision; stroke:white;">
      <rect x="0" y="0" width="600" style="stroke:none;" height="458" />
      <rect x="0" y="38" transform="translate(0,-38)" width="599" style="fill:none; stroke:black;" height="457" />
      <text x="7" y="55" transform="translate(0,-38)" style="fill:black; stroke:none; font-weight:bold;" xml:space="preserve">sd</text>
      <text x="28" y="55" transform="translate(0,-38)" style="fill:black; stroke:none;" xml:space="preserve">Áramkör választás</text>
      <line transform="translate(0,-38)" x1="0" x2="128" y1="62" style="fill:none; stroke:black;" y2="62" />
      <line transform="translate(0,-38)" x1="134" x2="134" y1="38" style="fill:none; stroke:black;" y2="52" />
      <line transform="translate(0,-38)" x1="134" x2="128" y1="52" style="fill:none; stroke:black;" y2="62" />
    </g>
    <g transform="translate(20,34)" style="font-size:11; stroke-linecap:butt; text-rendering:geometricPrecision; font-family:sans-serif; stroke-linejoin:round; stroke-miterlimit:0;">
      <circle style="fill:none; clip-path:url(#clipPath1);" r="5" cx="30" cy="5" />
      <rect x="26" y="50" width="8" style="clip-path:url(#clipPath1); fill:none;" height="359" />
      <line x1="30" x2="30" y1="10" style="clip-path:url(#clipPath1); fill:none;" y2="25" />
      <line x1="30" x2="21" y1="25" style="clip-path:url(#clipPath1); fill:none;" y2="36" />
      <line x1="30" x2="39" y1="25" style="clip-path:url(#clipPath1); fill:none;" y2="36" />
      <line x1="21" x2="39" y1="16" style="clip-path:url(#clipPath1); fill:none;" y2="16" />
    </g>
    <g transform="translate(130,34)" style="font-size:11; stroke-linecap:butt; text-rendering:geometricPrecision; font-family:sans-serif; stroke-linejoin:round; stroke-miterlimit:0;">
      <line x1="35" x2="53" y1="162" style="clip-path:url(#clipPath2); fill:none;" y2="180" />
      <line x1="35" x2="53" y1="180" style="clip-path:url(#clipPath2); fill:none;" y2="162" />
      <rect x="0" y="0" width="89" style="clip-path:url(#clipPath2); fill:none;" height="35" />
      <line x1="44" x2="44" y1="35" style="clip-path:url(#clipPath2); fill:none; stroke-linejoin:bevel; stroke-dasharray:8,3;" y2="171" />
    </g>
    <g transform="translate(171,164)" style="font-size:11; fill:white; text-rendering:geometricPrecision; font-family:sans-serif; stroke:white;">
      <rect x="0" y="0" width="8" style="clip-path:url(#clipPath3); stroke:none;" height="28" />
    </g>
    <g transform="translate(171,164)" style="font-size:11; stroke-linecap:butt; text-rendering:geometricPrecision; font-family:sans-serif; stroke-linejoin:round; stroke-miterlimit:0;">
      <rect x="0" y="0" width="8" style="clip-path:url(#clipPath3); fill:none;" height="28" />
    </g>
    <g transform="translate(380,264)" style="font-size:11; stroke-linecap:butt; text-rendering:geometricPrecision; font-family:sans-serif; stroke-linejoin:round; stroke-miterlimit:0;">
      <rect x="0" y="0" width="59" style="clip-path:url(#clipPath4); fill:none;" height="35" />
      <line x1="29" x2="29" y1="35" style="clip-path:url(#clipPath4); fill:none; stroke-linejoin:bevel; stroke-dasharray:8,3;" y2="180" />
    </g>
    <g transform="translate(230,34)" style="font-size:11; stroke-linecap:butt; text-rendering:geometricPrecision; font-family:sans-serif; stroke-linejoin:round; stroke-miterlimit:0;">
      <rect x="0" y="0" width="99" style="clip-path:url(#clipPath5); fill:none;" height="35" />
      <line x1="49" x2="49" y1="35" style="clip-path:url(#clipPath5); fill:none; stroke-linejoin:bevel; stroke-dasharray:8,3;" y2="410" />
    </g>
    <g transform="translate(276,234)" style="font-size:11; fill:white; text-rendering:geometricPrecision; font-family:sans-serif; stroke:white;">
      <rect x="0" y="0" width="8" style="clip-path:url(#clipPath6); stroke:none;" height="182" />
    </g>
    <g transform="translate(276,234)" style="font-size:11; stroke-linecap:butt; text-rendering:geometricPrecision; font-family:sans-serif; stroke-linejoin:round; stroke-miterlimit:0;">
      <rect x="0" y="0" width="8" style="clip-path:url(#clipPath6); fill:none;" height="182" />
    </g>
    <g transform="translate(30,94)" style="font-size:11; stroke-linecap:butt; text-rendering:geometricPrecision; font-family:sans-serif; stroke-linejoin:round; font-weight:bold; stroke-miterlimit:0;">
      <rect x="0" y="0" width="180" style="clip-path:url(#clipPath7); fill:none;" height="120" />
    </g>
    <g transform="translate(30,94)" style="font-size:11; fill:white; text-rendering:geometricPrecision; font-family:sans-serif; stroke:white; font-weight:bold;">
      <path d="M26 0 L26 9 L20 17 L0 17 L0 0 Z" style="clip-path:url(#clipPath7); stroke:none;" />
    </g>
    <g transform="translate(30,94)" style="font-size:11; stroke-linecap:butt; text-rendering:geometricPrecision; font-family:sans-serif; stroke-linejoin:round; font-weight:bold; stroke-miterlimit:0;">
      <path d="M26 0 L26 9 L20 17 L0 17 L0 0 Z" style="fill:none; clip-path:url(#clipPath7);" />
    </g>
    <g transform="translate(30,94)" style="text-rendering:geometricPrecision; font-size:11; font-weight:bold; font-family:sans-serif;">
      <text x="4" y="12" style="clip-path:url(#clipPath8); stroke:none;" xml:space="preserve">opt</text>
    </g>
    <g transform="translate(30,112)" style="font-size:11; fill:white; text-rendering:geometricPrecision; font-family:sans-serif; stroke:white;">
      <rect x="28" y="5" width="118" style="clip-path:url(#clipPath9); stroke:none;" height="15" />
    </g>
    <g style="text-rendering:geometricPrecision; font-size:11; font-family:sans-serif;" transform="translate(58,117)">
      <text x="9" y="12" style="clip-path:url(#clipPath10); stroke:none;" xml:space="preserve">[oldSimulation != null]</text>
    </g>
    <g transform="translate(490,334)" style="font-size:11; fill:silver; text-rendering:geometricPrecision; font-family:sans-serif; stroke:silver;">
      <rect x="0" y="0" width="19" style="clip-path:url(#clipPath12); fill:none;" height="19" />
    </g>
    <g transform="translate(320,104)" style="font-size:11; fill:white; text-rendering:geometricPrecision; font-family:sans-serif; stroke:white;">
      <polygon style="clip-path:url(#clipPath13); stroke:none;" points=" 0 0 184 0 199 15 184 15 184 0 199 15 199 79 0 79" />
    </g>
    <g transform="translate(320,104)" style="font-size:11; stroke-linecap:butt; text-rendering:geometricPrecision; font-family:sans-serif; stroke-linejoin:round; stroke-miterlimit:0;">
      <polygon style="fill:none; clip-path:url(#clipPath13);" points=" 0 0 184 0 199 15 184 15 184 0 199 15 199 79 0 79" />
    </g>
    <g style="text-rendering:geometricPrecision; font-size:11; font-family:&apos;Tahoma&apos;;" transform="translate(320,104)">
      <path d="M2.9844 14.9704 L6.2812 6.3767 L7.5 6.3767 L11.0156 14.9704 L9.7344 14.9704 L8.7188 12.3611 L5.1406 12.3611 L4.1875 14.9704 L2.9844 14.9704 ZM5.4688 11.4392 L8.375 11.4392 L7.4844 9.0642 Q7.0625 7.9861 6.875 7.2829 Q6.7031 8.1111 6.4062 8.9236 L5.4688 11.4392 ZM10.7969 14.9704 L10.7969 8.7517 L11.7344 8.7517 L11.7344 9.6267 Q12.0312 9.1579 12.5156 8.8845 Q13 8.6111 13.625 8.6111 Q14.3125 8.6111 14.7578 8.8923 Q15.2031 9.1736 15.375 9.6892 Q16.125 8.6111 17.2969 8.6111 Q18.2344 8.6111 18.7266 9.1189 Q19.2188 9.6267 19.2188 10.7048 L19.2188 14.9704 L18.1719 14.9704 L18.1719 11.0486 Q18.1719 10.4236 18.0703 10.1423 Q17.9688 9.8611 17.7031 9.6892 Q17.4375 9.5173 17.0625 9.5173 Q16.4062 9.5173 15.9766 9.9548 Q15.5469 10.3923 15.5469 11.3611 L15.5469 14.9704 L14.4844 14.9704 L14.4844 10.9236 Q14.4844 10.2204 14.2266 9.8689 Q13.9688 9.5173 13.3906 9.5173 Q12.9375 9.5173 12.5625 9.7517 Q12.1875 9.9861 12.0156 10.4392 Q11.8438 10.8923 11.8438 11.7361 L11.8438 14.9704 L10.7969 14.9704 ZM21.7969 7.5954 L21.7969 6.3767 L22.8594 6.3767 L22.8594 7.5954 L21.7969 7.5954 ZM21.7969 14.9704 L21.7969 8.7517 L22.8594 8.7517 L22.8594 14.9704 L21.7969 14.9704 ZM24.7969 14.9704 L24.7969 6.3767 L25.8594 6.3767 L25.8594 11.2829 L28.3438 8.7517 L29.7188 8.7517 L27.3281 11.0486 L29.9531 14.9704 L28.6562 14.9704 L26.5938 11.7829 L25.8594 12.5017 L25.8594 14.9704 L24.7969 14.9704 ZM30.4062 11.8611 Q30.4062 10.1267 31.3594 9.2986 Q32.1562 8.6111 33.3125 8.6111 Q34.5938 8.6111 35.4141 9.447 Q36.2344 10.2829 36.2344 11.7673 Q36.2344 12.9704 35.875 13.6579 Q35.5156 14.3454 34.8203 14.7282 Q34.125 15.1111 33.3125 15.1111 Q32.0156 15.1111 31.2109 14.2751 Q30.4062 13.4392 30.4062 11.8611 ZM31.4844 11.8611 Q31.4844 13.0486 32.0078 13.6423 Q32.5312 14.2361 33.3125 14.2361 Q34.1094 14.2361 34.625 13.6423 Q35.1406 13.0486 35.1406 11.8298 Q35.1406 10.6736 34.6172 10.0798 Q34.0938 9.4861 33.3125 9.4861 Q32.5312 9.4861 32.0078 10.072 Q31.4844 10.6579 31.4844 11.8611 ZM37.7812 14.9704 L37.7812 8.7517 L38.7344 8.7517 L38.7344 9.6892 Q39.0938 9.0329 39.3984 8.822 Q39.7031 8.6111 40.0781 8.6111 Q40.6094 8.6111 41.1562 8.9392 L40.7969 9.9236 Q40.4062 9.6892 40.0312 9.6892 Q39.6719 9.6892 39.3984 9.9001 Q39.125 10.1111 39.0156 10.4861 Q38.8281 11.0486 38.8281 11.7048 L38.8281 14.9704 L37.7812 14.9704 ZM48.8594 14.2048 Q48.2656 14.7048 47.7266 14.9079 Q47.1875 15.1111 46.5625 15.1111 Q45.5312 15.1111 44.9844 14.6111 Q44.4375 14.1111 44.4375 13.3298 Q44.4375 12.8767 44.6406 12.4939 Q44.8438 12.1111 45.1875 11.8845 Q45.5312 11.6579 45.9531 11.5486 Q46.25 11.4548 46.8906 11.3767 Q48.1562 11.2361 48.7656 11.0173 Q48.7656 10.7986 48.7656 10.7517 Q48.7656 10.0954 48.4688 9.8298 Q48.0625 9.4861 47.2656 9.4861 Q46.5312 9.4861 46.1719 9.7439 Q45.8125 10.0017 45.6406 10.6579 L44.6094 10.5173 Q44.75 9.8611 45.0781 9.4548 Q45.4062 9.0486 46.0156 8.8298 Q46.625 8.6111 47.4219 8.6111 Q48.2188 8.6111 48.7188 8.7986 Q49.2188 8.9861 49.4531 9.2673 Q49.6875 9.5486 49.7812 9.9861 Q49.8281 10.2517 49.8281 10.9548 L49.8281 12.3611 Q49.8281 13.8298 49.8984 14.2204 Q49.9688 14.6111 50.1719 14.9704 L49.0625 14.9704 Q48.9062 14.6423 48.8594 14.2048 ZM48.7656 11.8454 Q48.1875 12.0798 47.0469 12.2517 Q46.3906 12.3454 46.125 12.4626 Q45.8594 12.5798 45.7109 12.7986 Q45.5625 13.0173 45.5625 13.2986 Q45.5625 13.7204 45.8828 14.0017 Q46.2031 14.2829 46.8125 14.2829 Q47.4219 14.2829 47.8984 14.0173 Q48.375 13.7517 48.5938 13.2829 Q48.7656 12.9236 48.7656 12.2361 L48.7656 11.8454 ZM46.125 6.9704 L46.9062 5.3298 L48.2969 5.3298 L47 6.9704 L46.125 6.9704 ZM51.7812 14.9704 L51.7812 8.7517 L52.7344 8.7517 L52.7344 9.6892 Q53.0938 9.0329 53.3984 8.822 Q53.7031 8.6111 54.0781 8.6111 Q54.6094 8.6111 55.1562 8.9392 L54.7969 9.9236 Q54.4062 9.6892 54.0312 9.6892 Q53.6719 9.6892 53.3984 9.9001 Q53.125 10.1111 53.0156 10.4861 Q52.8281 11.0486 52.8281 11.7048 L52.8281 14.9704 L51.7812 14.9704 ZM59.8594 14.2048 Q59.2656 14.7048 58.7266 14.9079 Q58.1875 15.1111 57.5625 15.1111 Q56.5312 15.1111 55.9844 14.6111 Q55.4375 14.1111 55.4375 13.3298 Q55.4375 12.8767 55.6406 12.4939 Q55.8438 12.1111 56.1875 11.8845 Q56.5312 11.6579 56.9531 11.5486 Q57.25 11.4548 57.8906 11.3767 Q59.1562 11.2361 59.7656 11.0173 Q59.7656 10.7986 59.7656 10.7517 Q59.7656 10.0954 59.4688 9.8298 Q59.0625 9.4861 58.2656 9.4861 Q57.5312 9.4861 57.1719 9.7439 Q56.8125 10.0017 56.6406 10.6579 L55.6094 10.5173 Q55.75 9.8611 56.0781 9.4548 Q56.4062 9.0486 57.0156 8.8298 Q57.625 8.6111 58.4219 8.6111 Q59.2188 8.6111 59.7188 8.7986 Q60.2188 8.9861 60.4531 9.2673 Q60.6875 9.5486 60.7812 9.9861 Q60.8281 10.2517 60.8281 10.9548 L60.8281 12.3611 Q60.8281 13.8298 60.8984 14.2204 Q60.9688 14.6111 61.1719 14.9704 L60.0625 14.9704 Q59.9062 14.6423 59.8594 14.2048 ZM59.7656 11.8454 Q59.1875 12.0798 58.0469 12.2517 Q57.3906 12.3454 57.125 12.4626 Q56.8594 12.5798 56.7109 12.7986 Q56.5625 13.0173 56.5625 13.2986 Q56.5625 13.7204 56.8828 14.0017 Q57.2031 14.2829 57.8125 14.2829 Q58.4219 14.2829 58.8984 14.0173 Q59.375 13.7517 59.5938 13.2829 Q59.7656 12.9236 59.7656 12.2361 L59.7656 11.8454 ZM62.7969 14.9704 L62.7969 8.7517 L63.7344 8.7517 L63.7344 9.6267 Q64.0312 9.1579 64.5156 8.8845 Q65 8.6111 65.625 8.6111 Q66.3125 8.6111 66.7578 8.8923 Q67.2031 9.1736 67.375 9.6892 Q68.125 8.6111 69.2969 8.6111 Q70.2344 8.6111 70.7266 9.1189 Q71.2188 9.6267 71.2188 10.7048 L71.2188 14.9704 L70.1719 14.9704 L70.1719 11.0486 Q70.1719 10.4236 70.0703 10.1423 Q69.9688 9.8611 69.7031 9.6892 Q69.4375 9.5173 69.0625 9.5173 Q68.4062 9.5173 67.9766 9.9548 Q67.5469 10.3923 67.5469 11.3611 L67.5469 14.9704 L66.4844 14.9704 L66.4844 10.9236 Q66.4844 10.2204 66.2266 9.8689 Q65.9688 9.5173 65.3906 9.5173 Q64.9375 9.5173 64.5625 9.7517 Q64.1875 9.9861 64.0156 10.4392 Q63.8438 10.8923 63.8438 11.7361 L63.8438 14.9704 L62.7969 14.9704 ZM73.7969 14.9704 L73.7969 6.3767 L74.8594 6.3767 L74.8594 11.2829 L77.3438 8.7517 L78.7188 8.7517 L76.3281 11.0486 L78.9531 14.9704 L77.6562 14.9704 L75.5938 11.7829 L74.8594 12.5017 L74.8594 14.9704 L73.7969 14.9704 ZM79.4062 11.8611 Q79.4062 10.1267 80.3594 9.2986 Q81.1562 8.6111 82.3125 8.6111 Q83.5938 8.6111 84.4141 9.447 Q85.2344 10.2829 85.2344 11.7673 Q85.2344 12.9704 84.875 13.6579 Q84.5156 14.3454 83.8203 14.7282 Q83.125 15.1111 82.3125 15.1111 Q81.0156 15.1111 80.2109 14.2751 Q79.4062 13.4392 79.4062 11.8611 ZM80.4844 11.8611 Q80.4844 13.0486 81.0078 13.6423 Q81.5312 14.2361 82.3125 14.2361 Q83.1094 14.2361 83.625 13.6423 Q84.1406 13.0486 84.1406 11.8298 Q84.1406 10.6736 83.6172 10.0798 Q83.0938 9.4861 82.3125 9.4861 Q81.5312 9.4861 81.0078 10.072 Q80.4844 10.6579 80.4844 11.8611 ZM80.8125 6.9704 L80.8125 5.7673 L81.9062 5.7673 L81.9062 6.9704 L80.8125 6.9704 ZM83 6.9704 L83 5.7673 L84.0938 5.7673 L84.0938 6.9704 L83 6.9704 ZM86.7812 14.9704 L86.7812 8.7517 L87.7344 8.7517 L87.7344 9.6892 Q88.0938 9.0329 88.3984 8.822 Q88.7031 8.6111 89.0781 8.6111 Q89.6094 8.6111 90.1562 8.9392 L89.7969 9.9236 Q89.4062 9.6892 89.0312 9.6892 Q88.6719 9.6892 88.3984 9.9001 Q88.125 10.1111 88.0156 10.4861 Q87.8281 11.0486 87.8281 11.7048 L87.8281 14.9704 L86.7812 14.9704 ZM93.0938 14.0329 L93.25 14.9548 Q92.7969 15.0486 92.4531 15.0486 Q91.875 15.0486 91.5625 14.8689 Q91.25 14.6892 91.1172 14.3923 Q90.9844 14.0954 90.9844 13.1423 L90.9844 9.5642 L90.2188 9.5642 L90.2188 8.7517 L90.9844 8.7517 L90.9844 7.2048 L92.0312 6.5798 L92.0312 8.7517 L93.0938 8.7517 L93.0938 9.5642 L92.0312 9.5642 L92.0312 13.2048 Q92.0312 13.6579 92.0859 13.7829 Q92.1406 13.9079 92.2656 13.9861 Q92.3906 14.0642 92.625 14.0642 Q92.8125 14.0642 93.0938 14.0329 ZM98.5156 14.9704 L96.1562 8.7517 L97.2656 8.7517 L98.6094 12.4704 Q98.8125 13.0798 99 13.7204 Q99.1406 13.2361 99.3906 12.5486 L100.7812 8.7517 L101.8594 8.7517 L99.5 14.9704 L98.5156 14.9704 ZM105.8594 14.2048 Q105.2656 14.7048 104.7266 14.9079 Q104.1875 15.1111 103.5625 15.1111 Q102.5312 15.1111 101.9844 14.6111 Q101.4375 14.1111 101.4375 13.3298 Q101.4375 12.8767 101.6406 12.4939 Q101.8438 12.1111 102.1875 11.8845 Q102.5312 11.6579 102.9531 11.5486 Q103.25 11.4548 103.8906 11.3767 Q105.1562 11.2361 105.7656 11.0173 Q105.7656 10.7986 105.7656 10.7517 Q105.7656 10.0954 105.4688 9.8298 Q105.0625 9.4861 104.2656 9.4861 Q103.5312 9.4861 103.1719 9.7439 Q102.8125 10.0017 102.6406 10.6579 L101.6094 10.5173 Q101.75 9.8611 102.0781 9.4548 Q102.4062 9.0486 103.0156 8.8298 Q103.625 8.6111 104.4219 8.6111 Q105.2188 8.6111 105.7188 8.7986 Q106.2188 8.9861 106.4531 9.2673 Q106.6875 9.5486 106.7812 9.9861 Q106.8281 10.2517 106.8281 10.9548 L106.8281 12.3611 Q106.8281 13.8298 106.8984 14.2204 Q106.9688 14.6111 107.1719 14.9704 L106.0625 14.9704 Q105.9062 14.6423 105.8594 14.2048 ZM105.7656 11.8454 Q105.1875 12.0798 104.0469 12.2517 Q103.3906 12.3454 103.125 12.4626 Q102.8594 12.5798 102.7109 12.7986 Q102.5625 13.0173 102.5625 13.2986 Q102.5625 13.7204 102.8828 14.0017 Q103.2031 14.2829 103.8125 14.2829 Q104.4219 14.2829 104.8984 14.0173 Q105.375 13.7517 105.5938 13.2829 Q105.7656 12.9236 105.7656 12.2361 L105.7656 11.8454 ZM103.125 6.9704 L103.9062 5.3298 L105.2969 5.3298 L104 6.9704 L103.125 6.9704 ZM108.7656 14.9704 L108.7656 6.3767 L109.8281 6.3767 L109.8281 14.9704 L108.7656 14.9704 ZM115.8594 14.2048 Q115.2656 14.7048 114.7266 14.9079 Q114.1875 15.1111 113.5625 15.1111 Q112.5312 15.1111 111.9844 14.6111 Q111.4375 14.1111 111.4375 13.3298 Q111.4375 12.8767 111.6406 12.4939 Q111.8438 12.1111 112.1875 11.8845 Q112.5312 11.6579 112.9531 11.5486 Q113.25 11.4548 113.8906 11.3767 Q115.1562 11.2361 115.7656 11.0173 Q115.7656 10.7986 115.7656 10.7517 Q115.7656 10.0954 115.4688 9.8298 Q115.0625 9.4861 114.2656 9.4861 Q113.5312 9.4861 113.1719 9.7439 Q112.8125 10.0017 112.6406 10.6579 L111.6094 10.5173 Q111.75 9.8611 112.0781 9.4548 Q112.4062 9.0486 113.0156 8.8298 Q113.625 8.6111 114.4219 8.6111 Q115.2188 8.6111 115.7188 8.7986 Q116.2188 8.9861 116.4531 9.2673 Q116.6875 9.5486 116.7812 9.9861 Q116.8281 10.2517 116.8281 10.9548 L116.8281 12.3611 Q116.8281 13.8298 116.8984 14.2204 Q116.9688 14.6111 117.1719 14.9704 L116.0625 14.9704 Q115.9062 14.6423 115.8594 14.2048 ZM115.7656 11.8454 Q115.1875 12.0798 114.0469 12.2517 Q113.3906 12.3454 113.125 12.4626 Q112.8594 12.5798 112.7109 12.7986 Q112.5625 13.0173 112.5625 13.2986 Q112.5625 13.7204 112.8828 14.0017 Q113.2031 14.2829 113.8125 14.2829 Q114.4219 14.2829 114.8984 14.0173 Q115.375 13.7517 115.5938 13.2829 Q115.7656 12.9236 115.7656 12.2361 L115.7656 11.8454 ZM118.375 13.1111 L119.4062 12.9548 Q119.5 13.5798 119.8984 13.9079 Q120.2969 14.2361 121.0312 14.2361 Q121.75 14.2361 122.1016 13.947 Q122.4531 13.6579 122.4531 13.2517 Q122.4531 12.8923 122.1406 12.6892 Q121.9219 12.5486 121.0625 12.3298 Q119.9062 12.0329 119.4609 11.822 Q119.0156 11.6111 118.7812 11.2361 Q118.5469 10.8611 118.5469 10.3923 Q118.5469 9.9861 118.7344 9.6267 Q118.9219 9.2673 119.25 9.0329 Q119.5 8.8611 119.9219 8.7361 Q120.3438 8.6111 120.8438 8.6111 Q121.5625 8.6111 122.1172 8.822 Q122.6719 9.0329 122.9375 9.3923 Q123.2031 9.7517 123.2969 10.3454 L122.2656 10.4861 Q122.2031 10.0173 121.8672 9.7439 Q121.5312 9.4704 120.9062 9.4704 Q120.1875 9.4704 119.875 9.7126 Q119.5625 9.9548 119.5625 10.2829 Q119.5625 10.4861 119.6875 10.6423 Q119.8281 10.8142 120.0938 10.9236 Q120.25 10.9861 121.0312 11.1892 Q122.1562 11.5017 122.5938 11.6892 Q123.0312 11.8767 123.2812 12.2361 Q123.5312 12.5954 123.5312 13.1423 Q123.5312 13.6736 123.2266 14.1345 Q122.9219 14.5954 122.3438 14.8532 Q121.7656 15.1111 121.0312 15.1111 Q119.8125 15.1111 119.1797 14.6032 Q118.5469 14.0954 118.375 13.1111 ZM125.2344 14.9704 L125.2344 14.1111 L129.2031 9.5642 Q128.5156 9.5954 128 9.5954 L125.4688 9.5954 L125.4688 8.7517 L130.5625 8.7517 L130.5625 9.4392 L127.1875 13.3923 L126.5312 14.1111 Q127.25 14.0642 127.8594 14.0642 L130.75 14.0642 L130.75 14.9704 L125.2344 14.9704 ZM133.0938 14.0329 L133.25 14.9548 Q132.7969 15.0486 132.4531 15.0486 Q131.875 15.0486 131.5625 14.8689 Q131.25 14.6892 131.1172 14.3923 Q130.9844 14.0954 130.9844 13.1423 L130.9844 9.5642 L130.2188 9.5642 L130.2188 8.7517 L130.9844 8.7517 L130.9844 7.2048 L132.0312 6.5798 L132.0312 8.7517 L133.0938 8.7517 L133.0938 9.5642 L132.0312 9.5642 L132.0312 13.2048 Q132.0312 13.6579 132.0859 13.7829 Q132.1406 13.9079 132.2656 13.9861 Q132.3906 14.0642 132.625 14.0642 Q132.8125 14.0642 133.0938 14.0329 ZM137.875 14.9704 L137.875 14.0486 Q137.1406 15.1111 135.8906 15.1111 Q135.3438 15.1111 134.8672 14.9001 Q134.3906 14.6892 134.1562 14.3689 Q133.9219 14.0486 133.8281 13.5798 Q133.7656 13.2829 133.7656 12.5954 L133.7656 8.7517 L134.8281 8.7517 L134.8281 12.2048 Q134.8281 13.0173 134.8906 13.3142 Q134.9844 13.7204 135.3047 13.9626 Q135.625 14.2048 136.1094 14.2048 Q136.5781 14.2048 136.9922 13.9626 Q137.4062 13.7204 137.5859 13.2986 Q137.7656 12.8767 137.7656 12.0798 L137.7656 8.7517 L138.8125 8.7517 L138.8125 14.9704 L137.875 14.9704 ZM140.7969 14.9704 L140.7969 8.7517 L141.7344 8.7517 L141.7344 9.6267 Q142.4219 8.6111 143.7188 8.6111 Q144.2812 8.6111 144.7578 8.8142 Q145.2344 9.0173 145.4688 9.3454 Q145.7031 9.6736 145.7969 10.1111 Q145.8438 10.4079 145.8438 11.1423 L145.8438 14.9704 L144.7969 14.9704 L144.7969 11.1892 Q144.7969 10.5329 144.6719 10.2204 Q144.5469 9.9079 144.2344 9.7126 Q143.9219 9.5173 143.5 9.5173 Q142.8281 9.5173 142.3359 9.947 Q141.8438 10.3767 141.8438 11.5642 L141.8438 14.9704 L140.7969 14.9704 ZM147.7969 14.9704 L147.7969 6.3767 L148.8594 6.3767 L148.8594 11.2829 L151.3438 8.7517 L152.7188 8.7517 L150.3281 11.0486 L152.9531 14.9704 L151.6562 14.9704 L149.5938 11.7829 L148.8594 12.5017 L148.8594 14.9704 L147.7969 14.9704 ZM154.0625 14.9704 L154.0625 13.7673 L155.2656 13.7673 L155.2656 14.9704 Q155.2656 15.6267 155.0312 16.0407 Q154.7969 16.4548 154.2969 16.6736 L154 16.2204 Q154.3281 16.0798 154.4844 15.7907 Q154.6406 15.5017 154.6719 14.9704 L154.0625 14.9704 ZM163.8594 14.2048 Q163.2656 14.7048 162.7266 14.9079 Q162.1875 15.1111 161.5625 15.1111 Q160.5312 15.1111 159.9844 14.6111 Q159.4375 14.1111 159.4375 13.3298 Q159.4375 12.8767 159.6406 12.4939 Q159.8438 12.1111 160.1875 11.8845 Q160.5312 11.6579 160.9531 11.5486 Q161.25 11.4548 161.8906 11.3767 Q163.1562 11.2361 163.7656 11.0173 Q163.7656 10.7986 163.7656 10.7517 Q163.7656 10.0954 163.4688 9.8298 Q163.0625 9.4861 162.2656 9.4861 Q161.5312 9.4861 161.1719 9.7439 Q160.8125 10.0017 160.6406 10.6579 L159.6094 10.5173 Q159.75 9.8611 160.0781 9.4548 Q160.4062 9.0486 161.0156 8.8298 Q161.625 8.6111 162.4219 8.6111 Q163.2188 8.6111 163.7188 8.7986 Q164.2188 8.9861 164.4531 9.2673 Q164.6875 9.5486 164.7812 9.9861 Q164.8281 10.2517 164.8281 10.9548 L164.8281 12.3611 Q164.8281 13.8298 164.8984 14.2204 Q164.9688 14.6111 165.1719 14.9704 L164.0625 14.9704 Q163.9062 14.6423 163.8594 14.2048 ZM163.7656 11.8454 Q163.1875 12.0798 162.0469 12.2517 Q161.3906 12.3454 161.125 12.4626 Q160.8594 12.5798 160.7109 12.7986 Q160.5625 13.0173 160.5625 13.2986 Q160.5625 13.7204 160.8828 14.0017 Q161.2031 14.2829 161.8125 14.2829 Q162.4219 14.2829 162.8984 14.0173 Q163.375 13.7517 163.5938 13.2829 Q163.7656 12.9236 163.7656 12.2361 L163.7656 11.8454 ZM169.7812 14.9704 L169.7812 8.7517 L170.7344 8.7517 L170.7344 9.6892 Q171.0938 9.0329 171.3984 8.822 Q171.7031 8.6111 172.0781 8.6111 Q172.6094 8.6111 173.1562 8.9392 L172.7969 9.9236 Q172.4062 9.6892 172.0312 9.6892 Q171.6719 9.6892 171.3984 9.9001 Q171.125 10.1111 171.0156 10.4861 Q170.8281 11.0486 170.8281 11.7048 L170.8281 14.9704 L169.7812 14.9704 ZM178.0469 12.9704 L179.1406 13.0954 Q178.8906 14.0486 178.1875 14.5798 Q177.4844 15.1111 176.4062 15.1111 Q175.0469 15.1111 174.2422 14.2673 Q173.4375 13.4236 173.4375 11.9079 Q173.4375 10.3454 174.25 9.4782 Q175.0625 8.6111 176.3438 8.6111 Q177.5938 8.6111 178.3828 9.4548 Q179.1719 10.2986 179.1719 11.8454 Q179.1719 11.9392 179.1719 12.1267 L174.5312 12.1267 Q174.5938 13.1579 175.1094 13.697 Q175.625 14.2361 176.4062 14.2361 Q176.9844 14.2361 177.3984 13.9314 Q177.8125 13.6267 178.0469 12.9704 ZM174.5938 11.2673 L178.0625 11.2673 Q178 10.4704 177.6719 10.0798 Q177.1562 9.4704 176.3594 9.4704 Q175.625 9.4704 175.1328 9.9548 Q174.6406 10.4392 174.5938 11.2673 ZM175.125 6.9704 L175.9062 5.3298 L177.2969 5.3298 L176 6.9704 L175.125 6.9704 ZM180.5938 15.4861 L181.625 15.6423 Q181.6875 16.1111 181.9844 16.3298 Q182.375 16.6267 183.0469 16.6267 Q183.7812 16.6267 184.1797 16.3298 Q184.5781 16.0329 184.7188 15.5173 Q184.8125 15.1892 184.7969 14.1579 Q184.1094 14.9704 183.0781 14.9704 Q181.7969 14.9704 181.0938 14.0407 Q180.3906 13.1111 180.3906 11.8298 Q180.3906 10.9392 180.7109 10.1814 Q181.0312 9.4236 181.6406 9.0173 Q182.25 8.6111 183.0781 8.6111 Q184.1875 8.6111 184.9062 9.5017 L184.9062 8.7517 L185.875 8.7517 L185.875 14.1267 Q185.875 15.5798 185.5781 16.1892 Q185.2812 16.7986 184.6406 17.1501 Q184 17.5017 183.0625 17.5017 Q181.9531 17.5017 181.2656 17.0017 Q180.5781 16.5017 180.5938 15.4861 ZM181.4688 11.7517 Q181.4688 12.9704 181.9531 13.5329 Q182.4375 14.0954 183.1719 14.0954 Q183.9062 14.0954 184.3984 13.5329 Q184.8906 12.9704 184.8906 11.7829 Q184.8906 10.6423 184.3828 10.0642 Q183.875 9.4861 183.1562 9.4861 Q182.4531 9.4861 181.9609 10.0564 Q181.4688 10.6267 181.4688 11.7517 ZM187.7969 7.5954 L187.7969 6.3767 L188.8594 6.3767 L188.8594 7.5954 L187.7969 7.5954 ZM187.7969 14.9704 L187.7969 8.7517 L188.8594 8.7517 L188.8594 14.9704 L187.7969 14.9704 Z" style="clip-path:url(#clipPath14); stroke:none;" />
      <path d="M3.375 27.1111 L4.4062 26.9548 Q4.5 27.5798 4.8984 27.9079 Q5.2969 28.2361 6.0312 28.2361 Q6.75 28.2361 7.1016 27.947 Q7.4531 27.6579 7.4531 27.2517 Q7.4531 26.8923 7.1406 26.6892 Q6.9219 26.5486 6.0625 26.3298 Q4.9062 26.0329 4.4609 25.822 Q4.0156 25.6111 3.7812 25.2361 Q3.5469 24.8611 3.5469 24.3923 Q3.5469 23.9861 3.7344 23.6267 Q3.9219 23.2673 4.25 23.0329 Q4.5 22.8611 4.9219 22.7361 Q5.3438 22.6111 5.8438 22.6111 Q6.5625 22.6111 7.1172 22.822 Q7.6719 23.0329 7.9375 23.3923 Q8.2031 23.7517 8.2969 24.3454 L7.2656 24.4861 Q7.2031 24.0173 6.8672 23.7439 Q6.5312 23.4704 5.9062 23.4704 Q5.1875 23.4704 4.875 23.7126 Q4.5625 23.9548 4.5625 24.2829 Q4.5625 24.4861 4.6875 24.6423 Q4.8281 24.8142 5.0938 24.9236 Q5.25 24.9861 6.0312 25.1892 Q7.1562 25.5017 7.5938 25.6892 Q8.0312 25.8767 8.2812 26.2361 Q8.5312 26.5954 8.5312 27.1423 Q8.5312 27.6736 8.2266 28.1345 Q7.9219 28.5954 7.3438 28.8532 Q6.7656 29.1111 6.0312 29.1111 Q4.8125 29.1111 4.1797 28.6032 Q3.5469 28.0954 3.375 27.1111 ZM10.2344 28.9704 L10.2344 28.1111 L14.2031 23.5642 Q13.5156 23.5954 13 23.5954 L10.4688 23.5954 L10.4688 22.7517 L15.5625 22.7517 L15.5625 23.4392 L12.1875 27.3923 L11.5312 28.1111 Q12.25 28.0642 12.8594 28.0642 L15.75 28.0642 L15.75 28.9704 L10.2344 28.9704 ZM15.7969 21.5954 L15.7969 20.3767 L16.8594 20.3767 L16.8594 21.5954 L15.7969 21.5954 ZM15.7969 28.9704 L15.7969 22.7517 L16.8594 22.7517 L16.8594 28.9704 L15.7969 28.9704 ZM18.7969 28.9704 L18.7969 22.7517 L19.7344 22.7517 L19.7344 23.6267 Q20.0312 23.1579 20.5156 22.8845 Q21 22.6111 21.625 22.6111 Q22.3125 22.6111 22.7578 22.8923 Q23.2031 23.1736 23.375 23.6892 Q24.125 22.6111 25.2969 22.6111 Q26.2344 22.6111 26.7266 23.1189 Q27.2188 23.6267 27.2188 24.7048 L27.2188 28.9704 L26.1719 28.9704 L26.1719 25.0486 Q26.1719 24.4236 26.0703 24.1423 Q25.9688 23.8611 25.7031 23.6892 Q25.4375 23.5173 25.0625 23.5173 Q24.4062 23.5173 23.9766 23.9548 Q23.5469 24.3923 23.5469 25.3611 L23.5469 28.9704 L22.4844 28.9704 L22.4844 24.9236 Q22.4844 24.2204 22.2266 23.8689 Q21.9688 23.5173 21.3906 23.5173 Q20.9375 23.5173 20.5625 23.7517 Q20.1875 23.9861 20.0156 24.4392 Q19.8438 24.8923 19.8438 25.7361 L19.8438 28.9704 L18.7969 28.9704 ZM33.875 28.9704 L33.875 28.0486 Q33.1406 29.1111 31.8906 29.1111 Q31.3438 29.1111 30.8672 28.9001 Q30.3906 28.6892 30.1562 28.3689 Q29.9219 28.0486 29.8281 27.5798 Q29.7656 27.2829 29.7656 26.5954 L29.7656 22.7517 L30.8281 22.7517 L30.8281 26.2048 Q30.8281 27.0173 30.8906 27.3142 Q30.9844 27.7204 31.3047 27.9626 Q31.625 28.2048 32.1094 28.2048 Q32.5781 28.2048 32.9922 27.9626 Q33.4062 27.7204 33.5859 27.2986 Q33.7656 26.8767 33.7656 26.0798 L33.7656 22.7517 L34.8125 22.7517 L34.8125 28.9704 L33.875 28.9704 ZM36.7656 28.9704 L36.7656 20.3767 L37.8281 20.3767 L37.8281 28.9704 L36.7656 28.9704 ZM43.8594 28.2048 Q43.2656 28.7048 42.7266 28.9079 Q42.1875 29.1111 41.5625 29.1111 Q40.5312 29.1111 39.9844 28.6111 Q39.4375 28.1111 39.4375 27.3298 Q39.4375 26.8767 39.6406 26.4939 Q39.8438 26.1111 40.1875 25.8845 Q40.5312 25.6579 40.9531 25.5486 Q41.25 25.4548 41.8906 25.3767 Q43.1562 25.2361 43.7656 25.0173 Q43.7656 24.7986 43.7656 24.7517 Q43.7656 24.0954 43.4688 23.8298 Q43.0625 23.4861 42.2656 23.4861 Q41.5312 23.4861 41.1719 23.7439 Q40.8125 24.0017 40.6406 24.6579 L39.6094 24.5173 Q39.75 23.8611 40.0781 23.4548 Q40.4062 23.0486 41.0156 22.8298 Q41.625 22.6111 42.4219 22.6111 Q43.2188 22.6111 43.7188 22.7986 Q44.2188 22.9861 44.4531 23.2673 Q44.6875 23.5486 44.7812 23.9861 Q44.8281 24.2517 44.8281 24.9548 L44.8281 26.3611 Q44.8281 27.8298 44.8984 28.2204 Q44.9688 28.6111 45.1719 28.9704 L44.0625 28.9704 Q43.9062 28.6423 43.8594 28.2048 ZM43.7656 25.8454 Q43.1875 26.0798 42.0469 26.2517 Q41.3906 26.3454 41.125 26.4626 Q40.8594 26.5798 40.7109 26.7986 Q40.5625 27.0173 40.5625 27.2986 Q40.5625 27.7204 40.8828 28.0017 Q41.2031 28.2829 41.8125 28.2829 Q42.4219 28.2829 42.8984 28.0173 Q43.375 27.7517 43.5938 27.2829 Q43.7656 26.9236 43.7656 26.2361 L43.7656 25.8454 ZM41.125 20.9704 L41.9062 19.3298 L43.2969 19.3298 L42 20.9704 L41.125 20.9704 ZM50.8594 26.6892 L51.8906 26.8298 Q51.7188 27.8923 51.0156 28.5017 Q50.3125 29.1111 49.2969 29.1111 Q48.0156 29.1111 47.2422 28.2751 Q46.4688 27.4392 46.4688 25.8767 Q46.4688 24.8767 46.8047 24.1189 Q47.1406 23.3611 47.8203 22.9861 Q48.5 22.6111 49.3125 22.6111 Q50.3125 22.6111 50.9609 23.1189 Q51.6094 23.6267 51.7969 24.5798 L50.7656 24.7361 Q50.625 24.1111 50.25 23.7907 Q49.875 23.4704 49.3438 23.4704 Q48.5469 23.4704 48.0469 24.0407 Q47.5469 24.6111 47.5469 25.8454 Q47.5469 27.1111 48.0312 27.6736 Q48.5156 28.2361 49.2812 28.2361 Q49.9062 28.2361 50.3203 27.8611 Q50.7344 27.4861 50.8594 26.6892 ZM52.7969 21.5954 L52.7969 20.3767 L53.8594 20.3767 L53.8594 21.5954 L52.7969 21.5954 ZM52.7969 28.9704 L52.7969 22.7517 L53.8594 22.7517 L53.8594 28.9704 L52.7969 28.9704 ZM55.4062 25.8611 Q55.4062 24.1267 56.3594 23.2986 Q57.1562 22.6111 58.3125 22.6111 Q59.5938 22.6111 60.4141 23.447 Q61.2344 24.2829 61.2344 25.7673 Q61.2344 26.9704 60.875 27.6579 Q60.5156 28.3454 59.8203 28.7282 Q59.125 29.1111 58.3125 29.1111 Q57.0156 29.1111 56.2109 28.2751 Q55.4062 27.4392 55.4062 25.8611 ZM56.4844 25.8611 Q56.4844 27.0486 57.0078 27.6423 Q57.5312 28.2361 58.3125 28.2361 Q59.1094 28.2361 59.625 27.6423 Q60.1406 27.0486 60.1406 25.8298 Q60.1406 24.6736 59.6172 24.0798 Q59.0938 23.4861 58.3125 23.4861 Q57.5312 23.4861 57.0078 24.072 Q56.4844 24.6579 56.4844 25.8611 ZM57.125 20.9704 L57.9062 19.3298 L59.2969 19.3298 L58 20.9704 L57.125 20.9704 ZM65.0938 28.0329 L65.25 28.9548 Q64.7969 29.0486 64.4531 29.0486 Q63.875 29.0486 63.5625 28.8689 Q63.25 28.6892 63.1172 28.3923 Q62.9844 28.0954 62.9844 27.1423 L62.9844 23.5642 L62.2188 23.5642 L62.2188 22.7517 L62.9844 22.7517 L62.9844 21.2048 L64.0312 20.5798 L64.0312 22.7517 L65.0938 22.7517 L65.0938 23.5642 L64.0312 23.5642 L64.0312 27.2048 Q64.0312 27.6579 64.0859 27.7829 Q64.1406 27.9079 64.2656 27.9861 Q64.3906 28.0642 64.625 28.0642 Q64.8125 28.0642 65.0938 28.0329 ZM68.7656 28.9704 L68.7656 20.3767 L69.8281 20.3767 L69.8281 28.9704 L68.7656 28.9704 ZM76.0469 26.9704 L77.1406 27.0954 Q76.8906 28.0486 76.1875 28.5798 Q75.4844 29.1111 74.4062 29.1111 Q73.0469 29.1111 72.2422 28.2673 Q71.4375 27.4236 71.4375 25.9079 Q71.4375 24.3454 72.25 23.4782 Q73.0625 22.6111 74.3438 22.6111 Q75.5938 22.6111 76.3828 23.4548 Q77.1719 24.2986 77.1719 25.8454 Q77.1719 25.9392 77.1719 26.1267 L72.5312 26.1267 Q72.5938 27.1579 73.1094 27.697 Q73.625 28.2361 74.4062 28.2361 Q74.9844 28.2361 75.3984 27.9314 Q75.8125 27.6267 76.0469 26.9704 ZM72.5938 25.2673 L76.0625 25.2673 Q76 24.4704 75.6719 24.0798 Q75.1562 23.4704 74.3594 23.4704 Q73.625 23.4704 73.1328 23.9548 Q72.6406 24.4392 72.5938 25.2673 ZM82.8594 28.2048 Q82.2656 28.7048 81.7266 28.9079 Q81.1875 29.1111 80.5625 29.1111 Q79.5312 29.1111 78.9844 28.6111 Q78.4375 28.1111 78.4375 27.3298 Q78.4375 26.8767 78.6406 26.4939 Q78.8438 26.1111 79.1875 25.8845 Q79.5312 25.6579 79.9531 25.5486 Q80.25 25.4548 80.8906 25.3767 Q82.1562 25.2361 82.7656 25.0173 Q82.7656 24.7986 82.7656 24.7517 Q82.7656 24.0954 82.4688 23.8298 Q82.0625 23.4861 81.2656 23.4861 Q80.5312 23.4861 80.1719 23.7439 Q79.8125 24.0017 79.6406 24.6579 L78.6094 24.5173 Q78.75 23.8611 79.0781 23.4548 Q79.4062 23.0486 80.0156 22.8298 Q80.625 22.6111 81.4219 22.6111 Q82.2188 22.6111 82.7188 22.7986 Q83.2188 22.9861 83.4531 23.2673 Q83.6875 23.5486 83.7812 23.9861 Q83.8281 24.2517 83.8281 24.9548 L83.8281 26.3611 Q83.8281 27.8298 83.8984 28.2204 Q83.9688 28.6111 84.1719 28.9704 L83.0625 28.9704 Q82.9062 28.6423 82.8594 28.2048 ZM82.7656 25.8454 Q82.1875 26.0798 81.0469 26.2517 Q80.3906 26.3454 80.125 26.4626 Q79.8594 26.5798 79.7109 26.7986 Q79.5625 27.0173 79.5625 27.2986 Q79.5625 27.7204 79.8828 28.0017 Q80.2031 28.2829 80.8125 28.2829 Q81.4219 28.2829 81.8984 28.0173 Q82.375 27.7517 82.5938 27.2829 Q82.7656 26.9236 82.7656 26.2361 L82.7656 25.8454 ZM80.125 20.9704 L80.9062 19.3298 L82.2969 19.3298 L81 20.9704 L80.125 20.9704 ZM85.7656 28.9704 L85.7656 20.3767 L86.8281 20.3767 L86.8281 28.9704 L85.7656 28.9704 ZM88.7656 28.9704 L88.7656 20.3767 L89.8281 20.3767 L89.8281 28.9704 L88.7656 28.9704 ZM92.1562 28.9704 L92.1562 22.7517 L93.2188 22.7517 L93.2188 28.9704 L92.1562 28.9704 ZM92.125 20.9704 L92.9062 19.3298 L94.2969 19.3298 L93 20.9704 L92.125 20.9704 ZM97.0938 28.0329 L97.25 28.9548 Q96.7969 29.0486 96.4531 29.0486 Q95.875 29.0486 95.5625 28.8689 Q95.25 28.6892 95.1172 28.3923 Q94.9844 28.0954 94.9844 27.1423 L94.9844 23.5642 L94.2188 23.5642 L94.2188 22.7517 L94.9844 22.7517 L94.9844 21.2048 L96.0312 20.5798 L96.0312 22.7517 L97.0938 22.7517 L97.0938 23.5642 L96.0312 23.5642 L96.0312 27.2048 Q96.0312 27.6579 96.0859 27.7829 Q96.1406 27.9079 96.2656 27.9861 Q96.3906 28.0642 96.625 28.0642 Q96.8125 28.0642 97.0938 28.0329 ZM97.7812 21.6111 L97.7812 20.3767 L98.8438 20.3767 L98.8438 21.6111 L97.7812 21.6111 ZM96.4531 31.3923 L96.6406 30.4861 Q96.9688 30.5642 97.1406 30.5642 Q97.4688 30.5642 97.625 30.3532 Q97.7812 30.1423 97.7812 29.2829 L97.7812 22.7517 L98.8438 22.7517 L98.8438 29.3142 Q98.8438 30.4548 98.5469 30.9079 Q98.1562 31.5017 97.2812 31.5017 Q96.8438 31.5017 96.4531 31.3923 ZM104.875 28.9704 L104.875 28.0486 Q104.1406 29.1111 102.8906 29.1111 Q102.3438 29.1111 101.8672 28.9001 Q101.3906 28.6892 101.1562 28.3689 Q100.9219 28.0486 100.8281 27.5798 Q100.7656 27.2829 100.7656 26.5954 L100.7656 22.7517 L101.8281 22.7517 L101.8281 26.2048 Q101.8281 27.0173 101.8906 27.3142 Q101.9844 27.7204 102.3047 27.9626 Q102.625 28.2048 103.1094 28.2048 Q103.5781 28.2048 103.9922 27.9626 Q104.4062 27.7204 104.5859 27.2986 Q104.7656 26.8767 104.7656 26.0798 L104.7656 22.7517 L105.8125 22.7517 L105.8125 28.9704 L104.875 28.9704 ZM107.7969 28.9704 L107.7969 20.3767 L108.8594 20.3767 L108.8594 25.2829 L111.3438 22.7517 L112.7188 22.7517 L110.3281 25.0486 L112.9531 28.9704 L111.6562 28.9704 L109.5938 25.7829 L108.8594 26.5017 L108.8594 28.9704 L107.7969 28.9704 ZM114.0625 28.9704 L114.0625 27.7673 L115.2656 27.7673 L115.2656 28.9704 Q115.2656 29.6267 115.0312 30.0407 Q114.7969 30.4548 114.2969 30.6736 L114 30.2204 Q114.3281 30.0798 114.4844 29.7907 Q114.6406 29.5017 114.6719 28.9704 L114.0625 28.9704 ZM119.7969 28.9704 L119.7969 20.3767 L120.8438 20.3767 L120.8438 23.4548 Q121.5781 22.6111 122.7031 22.6111 Q123.4062 22.6111 123.9141 22.8845 Q124.4219 23.1579 124.6406 23.6345 Q124.8594 24.1111 124.8594 25.0329 L124.8594 28.9704 L123.8125 28.9704 L123.8125 25.0329 Q123.8125 24.2361 123.4688 23.8767 Q123.125 23.5173 122.5 23.5173 Q122.0312 23.5173 121.6172 23.7595 Q121.2031 24.0017 121.0234 24.4157 Q120.8438 24.8298 120.8438 25.5642 L120.8438 28.9704 L119.7969 28.9704 ZM130.8594 28.2048 Q130.2656 28.7048 129.7266 28.9079 Q129.1875 29.1111 128.5625 29.1111 Q127.5312 29.1111 126.9844 28.6111 Q126.4375 28.1111 126.4375 27.3298 Q126.4375 26.8767 126.6406 26.4939 Q126.8438 26.1111 127.1875 25.8845 Q127.5312 25.6579 127.9531 25.5486 Q128.25 25.4548 128.8906 25.3767 Q130.1562 25.2361 130.7656 25.0173 Q130.7656 24.7986 130.7656 24.7517 Q130.7656 24.0954 130.4688 23.8298 Q130.0625 23.4861 129.2656 23.4861 Q128.5312 23.4861 128.1719 23.7439 Q127.8125 24.0017 127.6406 24.6579 L126.6094 24.5173 Q126.75 23.8611 127.0781 23.4548 Q127.4062 23.0486 128.0156 22.8298 Q128.625 22.6111 129.4219 22.6111 Q130.2188 22.6111 130.7188 22.7986 Q131.2188 22.9861 131.4531 23.2673 Q131.6875 23.5486 131.7812 23.9861 Q131.8281 24.2517 131.8281 24.9548 L131.8281 26.3611 Q131.8281 27.8298 131.8984 28.2204 Q131.9688 28.6111 132.1719 28.9704 L131.0625 28.9704 Q130.9062 28.6423 130.8594 28.2048 ZM130.7656 25.8454 Q130.1875 26.0798 129.0469 26.2517 Q128.3906 26.3454 128.125 26.4626 Q127.8594 26.5798 127.7109 26.7986 Q127.5625 27.0173 127.5625 27.2986 Q127.5625 27.7204 127.8828 28.0017 Q128.2031 28.2829 128.8125 28.2829 Q129.4219 28.2829 129.8984 28.0173 Q130.375 27.7517 130.5938 27.2829 Q130.7656 26.9236 130.7656 26.2361 L130.7656 25.8454 ZM138.5156 28.9704 L136.1562 22.7517 L137.2656 22.7517 L138.6094 26.4704 Q138.8125 27.0798 139 27.7204 Q139.1406 27.2361 139.3906 26.5486 L140.7812 22.7517 L141.8594 22.7517 L139.5 28.9704 L138.5156 28.9704 ZM145.8594 28.2048 Q145.2656 28.7048 144.7266 28.9079 Q144.1875 29.1111 143.5625 29.1111 Q142.5312 29.1111 141.9844 28.6111 Q141.4375 28.1111 141.4375 27.3298 Q141.4375 26.8767 141.6406 26.4939 Q141.8438 26.1111 142.1875 25.8845 Q142.5312 25.6579 142.9531 25.5486 Q143.25 25.4548 143.8906 25.3767 Q145.1562 25.2361 145.7656 25.0173 Q145.7656 24.7986 145.7656 24.7517 Q145.7656 24.0954 145.4688 23.8298 Q145.0625 23.4861 144.2656 23.4861 Q143.5312 23.4861 143.1719 23.7439 Q142.8125 24.0017 142.6406 24.6579 L141.6094 24.5173 Q141.75 23.8611 142.0781 23.4548 Q142.4062 23.0486 143.0156 22.8298 Q143.625 22.6111 144.4219 22.6111 Q145.2188 22.6111 145.7188 22.7986 Q146.2188 22.9861 146.4531 23.2673 Q146.6875 23.5486 146.7812 23.9861 Q146.8281 24.2517 146.8281 24.9548 L146.8281 26.3611 Q146.8281 27.8298 146.8984 28.2204 Q146.9688 28.6111 147.1719 28.9704 L146.0625 28.9704 Q145.9062 28.6423 145.8594 28.2048 ZM145.7656 25.8454 Q145.1875 26.0798 144.0469 26.2517 Q143.3906 26.3454 143.125 26.4626 Q142.8594 26.5798 142.7109 26.7986 Q142.5625 27.0173 142.5625 27.2986 Q142.5625 27.7204 142.8828 28.0017 Q143.2031 28.2829 143.8125 28.2829 Q144.4219 28.2829 144.8984 28.0173 Q145.375 27.7517 145.5938 27.2829 Q145.7656 26.9236 145.7656 26.2361 L145.7656 25.8454 ZM148.7969 28.9704 L148.7969 22.7517 L149.7344 22.7517 L149.7344 23.6267 Q150.4219 22.6111 151.7188 22.6111 Q152.2812 22.6111 152.7578 22.8142 Q153.2344 23.0173 153.4688 23.3454 Q153.7031 23.6736 153.7969 24.1111 Q153.8438 24.4079 153.8438 25.1423 L153.8438 28.9704 L152.7969 28.9704 L152.7969 25.1892 Q152.7969 24.5329 152.6719 24.2204 Q152.5469 23.9079 152.2344 23.7126 Q151.9219 23.5173 151.5 23.5173 Q150.8281 23.5173 150.3359 23.947 Q149.8438 24.3767 149.8438 25.5642 L149.8438 28.9704 L148.7969 28.9704 ZM158.7969 21.5954 L158.7969 20.3767 L159.8594 20.3767 L159.8594 21.5954 L158.7969 21.5954 ZM158.7969 28.9704 L158.7969 22.7517 L159.8594 22.7517 L159.8594 28.9704 L158.7969 28.9704 ZM161.7656 28.9704 L161.7656 20.3767 L162.8281 20.3767 L162.8281 28.9704 L161.7656 28.9704 ZM164.75 31.3611 L164.625 30.3767 Q164.9688 30.4704 165.2344 30.4704 Q165.5781 30.4704 165.7891 30.3532 Q166 30.2361 166.1406 30.0329 Q166.2344 29.8611 166.4688 29.2361 Q166.4844 29.1579 166.5625 28.9861 L164.1875 22.7517 L165.3281 22.7517 L166.625 26.3454 Q166.875 27.0329 167.0781 27.7986 Q167.2656 27.0642 167.5156 26.3767 L168.8438 22.7517 L169.8906 22.7517 L167.5312 29.0798 Q167.1406 30.0954 166.9375 30.4861 Q166.6562 31.0173 166.2891 31.2595 Q165.9219 31.5017 165.4219 31.5017 Q165.125 31.5017 164.75 31.3611 ZM174.0469 26.9704 L175.1406 27.0954 Q174.8906 28.0486 174.1875 28.5798 Q173.4844 29.1111 172.4062 29.1111 Q171.0469 29.1111 170.2422 28.2673 Q169.4375 27.4236 169.4375 25.9079 Q169.4375 24.3454 170.25 23.4782 Q171.0625 22.6111 172.3438 22.6111 Q173.5938 22.6111 174.3828 23.4548 Q175.1719 24.2986 175.1719 25.8454 Q175.1719 25.9392 175.1719 26.1267 L170.5312 26.1267 Q170.5938 27.1579 171.1094 27.697 Q171.625 28.2361 172.4062 28.2361 Q172.9844 28.2361 173.3984 27.9314 Q173.8125 27.6267 174.0469 26.9704 ZM170.5938 25.2673 L174.0625 25.2673 Q174 24.4704 173.6719 24.0798 Q173.1562 23.4704 172.3594 23.4704 Q171.625 23.4704 171.1328 23.9548 Q170.6406 24.4392 170.5938 25.2673 ZM176.7969 28.9704 L176.7969 22.7517 L177.7344 22.7517 L177.7344 23.6267 Q178.4219 22.6111 179.7188 22.6111 Q180.2812 22.6111 180.7578 22.8142 Q181.2344 23.0173 181.4688 23.3454 Q181.7031 23.6736 181.7969 24.1111 Q181.8438 24.4079 181.8438 25.1423 L181.8438 28.9704 L180.7969 28.9704 L180.7969 25.1892 Q180.7969 24.5329 180.6719 24.2204 Q180.5469 23.9079 180.2344 23.7126 Q179.9219 23.5173 179.5 23.5173 Q178.8281 23.5173 178.3359 23.947 Q177.8438 24.3767 177.8438 25.5642 L177.8438 28.9704 L176.7969 28.9704 Z" style="clip-path:url(#clipPath14); stroke:none;" />
      <path d="M8.0469 40.9704 L9.1406 41.0954 Q8.8906 42.0486 8.1875 42.5798 Q7.4844 43.1111 6.4062 43.1111 Q5.0469 43.1111 4.2422 42.2673 Q3.4375 41.4236 3.4375 39.9079 Q3.4375 38.3454 4.25 37.4782 Q5.0625 36.6111 6.3438 36.6111 Q7.5938 36.6111 8.3828 37.4548 Q9.1719 38.2986 9.1719 39.8454 Q9.1719 39.9392 9.1719 40.1267 L4.5312 40.1267 Q4.5938 41.1579 5.1094 41.697 Q5.625 42.2361 6.4062 42.2361 Q6.9844 42.2361 7.3984 41.9314 Q7.8125 41.6267 8.0469 40.9704 ZM4.5938 39.2673 L8.0625 39.2673 Q8 38.4704 7.6719 38.0798 Q7.1562 37.4704 6.3594 37.4704 Q5.625 37.4704 5.1328 37.9548 Q4.6406 38.4392 4.5938 39.2673 ZM5.125 34.9704 L5.9062 33.3298 L7.2969 33.3298 L6 34.9704 L5.125 34.9704 ZM10.375 41.1111 L11.4062 40.9548 Q11.5 41.5798 11.8984 41.9079 Q12.2969 42.2361 13.0312 42.2361 Q13.75 42.2361 14.1016 41.947 Q14.4531 41.6579 14.4531 41.2517 Q14.4531 40.8923 14.1406 40.6892 Q13.9219 40.5486 13.0625 40.3298 Q11.9062 40.0329 11.4609 39.822 Q11.0156 39.6111 10.7812 39.2361 Q10.5469 38.8611 10.5469 38.3923 Q10.5469 37.9861 10.7344 37.6267 Q10.9219 37.2673 11.25 37.0329 Q11.5 36.8611 11.9219 36.7361 Q12.3438 36.6111 12.8438 36.6111 Q13.5625 36.6111 14.1172 36.822 Q14.6719 37.0329 14.9375 37.3923 Q15.2031 37.7517 15.2969 38.3454 L14.2656 38.4861 Q14.2031 38.0173 13.8672 37.7439 Q13.5312 37.4704 12.9062 37.4704 Q12.1875 37.4704 11.875 37.7126 Q11.5625 37.9548 11.5625 38.2829 Q11.5625 38.4861 11.6875 38.6423 Q11.8281 38.8142 12.0938 38.9236 Q12.25 38.9861 13.0312 39.1892 Q14.1562 39.5017 14.5938 39.6892 Q15.0312 39.8767 15.2812 40.2361 Q15.5312 40.5954 15.5312 41.1423 Q15.5312 41.6736 15.2266 42.1345 Q14.9219 42.5954 14.3438 42.8532 Q13.7656 43.1111 13.0312 43.1111 Q11.8125 43.1111 11.1797 42.6032 Q10.5469 42.0954 10.375 41.1111 ZM20.7656 42.9704 L20.7656 34.3767 L21.8281 34.3767 L21.8281 42.9704 L20.7656 42.9704 ZM28.0469 40.9704 L29.1406 41.0954 Q28.8906 42.0486 28.1875 42.5798 Q27.4844 43.1111 26.4062 43.1111 Q25.0469 43.1111 24.2422 42.2673 Q23.4375 41.4236 23.4375 39.9079 Q23.4375 38.3454 24.25 37.4782 Q25.0625 36.6111 26.3438 36.6111 Q27.5938 36.6111 28.3828 37.4548 Q29.1719 38.2986 29.1719 39.8454 Q29.1719 39.9392 29.1719 40.1267 L24.5312 40.1267 Q24.5938 41.1579 25.1094 41.697 Q25.625 42.2361 26.4062 42.2361 Q26.9844 42.2361 27.3984 41.9314 Q27.8125 41.6267 28.0469 40.9704 ZM24.5938 39.2673 L28.0625 39.2673 Q28 38.4704 27.6719 38.0798 Q27.1562 37.4704 26.3594 37.4704 Q25.625 37.4704 25.1328 37.9548 Q24.6406 38.4392 24.5938 39.2673 ZM25.125 34.9704 L25.9062 33.3298 L27.2969 33.3298 L26 34.9704 L25.125 34.9704 ZM33.0938 42.0329 L33.25 42.9548 Q32.7969 43.0486 32.4531 43.0486 Q31.875 43.0486 31.5625 42.8689 Q31.25 42.6892 31.1172 42.3923 Q30.9844 42.0954 30.9844 41.1423 L30.9844 37.5642 L30.2188 37.5642 L30.2188 36.7517 L30.9844 36.7517 L30.9844 35.2048 L32.0312 34.5798 L32.0312 36.7517 L33.0938 36.7517 L33.0938 37.5642 L32.0312 37.5642 L32.0312 41.2048 Q32.0312 41.6579 32.0859 41.7829 Q32.1406 41.9079 32.2656 41.9861 Q32.3906 42.0642 32.625 42.0642 Q32.8125 42.0642 33.0938 42.0329 ZM33.7812 42.9704 L33.7812 36.7517 L34.7344 36.7517 L34.7344 37.6892 Q35.0938 37.0329 35.3984 36.822 Q35.7031 36.6111 36.0781 36.6111 Q36.6094 36.6111 37.1562 36.9392 L36.7969 37.9236 Q36.4062 37.6892 36.0312 37.6892 Q35.6719 37.6892 35.3984 37.9001 Q35.125 38.1111 35.0156 38.4861 Q34.8281 39.0486 34.8281 39.7048 L34.8281 42.9704 L33.7812 42.9704 ZM42.0469 40.9704 L43.1406 41.0954 Q42.8906 42.0486 42.1875 42.5798 Q41.4844 43.1111 40.4062 43.1111 Q39.0469 43.1111 38.2422 42.2673 Q37.4375 41.4236 37.4375 39.9079 Q37.4375 38.3454 38.25 37.4782 Q39.0625 36.6111 40.3438 36.6111 Q41.5938 36.6111 42.3828 37.4548 Q43.1719 38.2986 43.1719 39.8454 Q43.1719 39.9392 43.1719 40.1267 L38.5312 40.1267 Q38.5938 41.1579 39.1094 41.697 Q39.625 42.2361 40.4062 42.2361 Q40.9844 42.2361 41.3984 41.9314 Q41.8125 41.6267 42.0469 40.9704 ZM38.5938 39.2673 L42.0625 39.2673 Q42 38.4704 41.6719 38.0798 Q41.1562 37.4704 40.3594 37.4704 Q39.625 37.4704 39.1328 37.9548 Q38.6406 38.4392 38.5938 39.2673 ZM44.7969 42.9704 L44.7969 34.3767 L45.8438 34.3767 L45.8438 37.4548 Q46.5781 36.6111 47.7031 36.6111 Q48.4062 36.6111 48.9141 36.8845 Q49.4219 37.1579 49.6406 37.6345 Q49.8594 38.1111 49.8594 39.0329 L49.8594 42.9704 L48.8125 42.9704 L48.8125 39.0329 Q48.8125 38.2361 48.4688 37.8767 Q48.125 37.5173 47.5 37.5173 Q47.0312 37.5173 46.6172 37.7595 Q46.2031 38.0017 46.0234 38.4157 Q45.8438 38.8298 45.8438 39.5642 L45.8438 42.9704 L44.7969 42.9704 ZM51.4062 39.8611 Q51.4062 38.1267 52.3594 37.2986 Q53.1562 36.6111 54.3125 36.6111 Q55.5938 36.6111 56.4141 37.447 Q57.2344 38.2829 57.2344 39.7673 Q57.2344 40.9704 56.875 41.6579 Q56.5156 42.3454 55.8203 42.7282 Q55.125 43.1111 54.3125 43.1111 Q53.0156 43.1111 52.2109 42.2751 Q51.4062 41.4392 51.4062 39.8611 ZM52.4844 39.8611 Q52.4844 41.0486 53.0078 41.6423 Q53.5312 42.2361 54.3125 42.2361 Q55.1094 42.2361 55.625 41.6423 Q56.1406 41.0486 56.1406 39.8298 Q56.1406 38.6736 55.6172 38.0798 Q55.0938 37.4861 54.3125 37.4861 Q53.5312 37.4861 53.0078 38.072 Q52.4844 38.6579 52.4844 39.8611 ZM58.2344 42.9704 L58.2344 42.1111 L62.2031 37.5642 Q61.5156 37.5954 61 37.5954 L58.4688 37.5954 L58.4688 36.7517 L63.5625 36.7517 L63.5625 37.4392 L60.1875 41.3923 L59.5312 42.1111 Q60.25 42.0642 60.8594 42.0642 L63.75 42.0642 L63.75 42.9704 L58.2344 42.9704 ZM67.875 42.9704 L67.875 42.0486 Q67.1406 43.1111 65.8906 43.1111 Q65.3438 43.1111 64.8672 42.9001 Q64.3906 42.6892 64.1562 42.3689 Q63.9219 42.0486 63.8281 41.5798 Q63.7656 41.2829 63.7656 40.5954 L63.7656 36.7517 L64.8281 36.7517 L64.8281 40.2048 Q64.8281 41.0173 64.8906 41.3142 Q64.9844 41.7204 65.3047 41.9626 Q65.625 42.2048 66.1094 42.2048 Q66.5781 42.2048 66.9922 41.9626 Q67.4062 41.7204 67.5859 41.2986 Q67.7656 40.8767 67.7656 40.0798 L67.7656 36.7517 L68.8125 36.7517 L68.8125 42.9704 L67.875 42.9704 ZM70.7969 42.9704 L70.7969 36.7517 L71.7344 36.7517 L71.7344 37.6267 Q72.4219 36.6111 73.7188 36.6111 Q74.2812 36.6111 74.7578 36.8142 Q75.2344 37.0173 75.4688 37.3454 Q75.7031 37.6736 75.7969 38.1111 Q75.8438 38.4079 75.8438 39.1423 L75.8438 42.9704 L74.7969 42.9704 L74.7969 39.1892 Q74.7969 38.5329 74.6719 38.2204 Q74.5469 37.9079 74.2344 37.7126 Q73.9219 37.5173 73.5 37.5173 Q72.8281 37.5173 72.3359 37.947 Q71.8438 38.3767 71.8438 39.5642 L71.8438 42.9704 L70.7969 42.9704 ZM77.7969 42.9704 L77.7969 34.3767 L78.8594 34.3767 L78.8594 39.2829 L81.3438 36.7517 L82.7188 36.7517 L80.3281 39.0486 L82.9531 42.9704 L81.6562 42.9704 L79.5938 39.7829 L78.8594 40.5017 L78.8594 42.9704 L77.7969 42.9704 ZM91.0469 40.9704 L92.1406 41.0954 Q91.8906 42.0486 91.1875 42.5798 Q90.4844 43.1111 89.4062 43.1111 Q88.0469 43.1111 87.2422 42.2673 Q86.4375 41.4236 86.4375 39.9079 Q86.4375 38.3454 87.25 37.4782 Q88.0625 36.6111 89.3438 36.6111 Q90.5938 36.6111 91.3828 37.4548 Q92.1719 38.2986 92.1719 39.8454 Q92.1719 39.9392 92.1719 40.1267 L87.5312 40.1267 Q87.5938 41.1579 88.1094 41.697 Q88.625 42.2361 89.4062 42.2361 Q89.9844 42.2361 90.3984 41.9314 Q90.8125 41.6267 91.0469 40.9704 ZM87.5938 39.2673 L91.0625 39.2673 Q91 38.4704 90.6719 38.0798 Q90.1562 37.4704 89.3594 37.4704 Q88.625 37.4704 88.1328 37.9548 Q87.6406 38.4392 87.5938 39.2673 ZM93.5938 43.4861 L94.625 43.6423 Q94.6875 44.1111 94.9844 44.3298 Q95.375 44.6267 96.0469 44.6267 Q96.7812 44.6267 97.1797 44.3298 Q97.5781 44.0329 97.7188 43.5173 Q97.8125 43.1892 97.7969 42.1579 Q97.1094 42.9704 96.0781 42.9704 Q94.7969 42.9704 94.0938 42.0407 Q93.3906 41.1111 93.3906 39.8298 Q93.3906 38.9392 93.7109 38.1814 Q94.0312 37.4236 94.6406 37.0173 Q95.25 36.6111 96.0781 36.6111 Q97.1875 36.6111 97.9062 37.5017 L97.9062 36.7517 L98.875 36.7517 L98.875 42.1267 Q98.875 43.5798 98.5781 44.1892 Q98.2812 44.7986 97.6406 45.1501 Q97 45.5017 96.0625 45.5017 Q94.9531 45.5017 94.2656 45.0017 Q93.5781 44.5017 93.5938 43.4861 ZM94.4688 39.7517 Q94.4688 40.9704 94.9531 41.5329 Q95.4375 42.0954 96.1719 42.0954 Q96.9062 42.0954 97.3984 41.5329 Q97.8906 40.9704 97.8906 39.7829 Q97.8906 38.6423 97.3828 38.0642 Q96.875 37.4861 96.1562 37.4861 Q95.4531 37.4861 94.9609 38.0564 Q94.4688 38.6267 94.4688 39.7517 ZM100.75 45.3611 L100.625 44.3767 Q100.9688 44.4704 101.2344 44.4704 Q101.5781 44.4704 101.7891 44.3532 Q102 44.2361 102.1406 44.0329 Q102.2344 43.8611 102.4688 43.2361 Q102.4844 43.1579 102.5625 42.9861 L100.1875 36.7517 L101.3281 36.7517 L102.625 40.3454 Q102.875 41.0329 103.0781 41.7986 Q103.2656 41.0642 103.5156 40.3767 L104.8438 36.7517 L105.8906 36.7517 L103.5312 43.0798 Q103.1406 44.0954 102.9375 44.4861 Q102.6562 45.0173 102.2891 45.2595 Q101.9219 45.5017 101.4219 45.5017 Q101.125 45.5017 100.75 45.3611 ZM112.875 42.9704 L112.875 42.0486 Q112.1406 43.1111 110.8906 43.1111 Q110.3438 43.1111 109.8672 42.9001 Q109.3906 42.6892 109.1562 42.3689 Q108.9219 42.0486 108.8281 41.5798 Q108.7656 41.2829 108.7656 40.5954 L108.7656 36.7517 L109.8281 36.7517 L109.8281 40.2048 Q109.8281 41.0173 109.8906 41.3142 Q109.9844 41.7204 110.3047 41.9626 Q110.625 42.2048 111.1094 42.2048 Q111.5781 42.2048 111.9922 41.9626 Q112.4062 41.7204 112.5859 41.2986 Q112.7656 40.8767 112.7656 40.0798 L112.7656 36.7517 L113.8125 36.7517 L113.8125 42.9704 L112.875 42.9704 ZM110.125 34.9704 L110.9062 33.3298 L112.2969 33.3298 L111 34.9704 L110.125 34.9704 ZM115.7812 35.6111 L115.7812 34.3767 L116.8438 34.3767 L116.8438 35.6111 L115.7812 35.6111 ZM114.4531 45.3923 L114.6406 44.4861 Q114.9688 44.5642 115.1406 44.5642 Q115.4688 44.5642 115.625 44.3532 Q115.7812 44.1423 115.7812 43.2829 L115.7812 36.7517 L116.8438 36.7517 L116.8438 43.3142 Q116.8438 44.4548 116.5469 44.9079 Q116.1562 45.5017 115.2812 45.5017 Q114.8438 45.5017 114.4531 45.3923 ZM125.8594 42.2048 Q125.2656 42.7048 124.7266 42.9079 Q124.1875 43.1111 123.5625 43.1111 Q122.5312 43.1111 121.9844 42.6111 Q121.4375 42.1111 121.4375 41.3298 Q121.4375 40.8767 121.6406 40.4939 Q121.8438 40.1111 122.1875 39.8845 Q122.5312 39.6579 122.9531 39.5486 Q123.25 39.4548 123.8906 39.3767 Q125.1562 39.2361 125.7656 39.0173 Q125.7656 38.7986 125.7656 38.7517 Q125.7656 38.0954 125.4688 37.8298 Q125.0625 37.4861 124.2656 37.4861 Q123.5312 37.4861 123.1719 37.7439 Q122.8125 38.0017 122.6406 38.6579 L121.6094 38.5173 Q121.75 37.8611 122.0781 37.4548 Q122.4062 37.0486 123.0156 36.8298 Q123.625 36.6111 124.4219 36.6111 Q125.2188 36.6111 125.7188 36.7986 Q126.2188 36.9861 126.4531 37.2673 Q126.6875 37.5486 126.7812 37.9861 Q126.8281 38.2517 126.8281 38.9548 L126.8281 40.3611 Q126.8281 41.8298 126.8984 42.2204 Q126.9688 42.6111 127.1719 42.9704 L126.0625 42.9704 Q125.9062 42.6423 125.8594 42.2048 ZM125.7656 39.8454 Q125.1875 40.0798 124.0469 40.2517 Q123.3906 40.3454 123.125 40.4626 Q122.8594 40.5798 122.7109 40.7986 Q122.5625 41.0173 122.5625 41.2986 Q122.5625 41.7204 122.8828 42.0017 Q123.2031 42.2829 123.8125 42.2829 Q124.4219 42.2829 124.8984 42.0173 Q125.375 41.7517 125.5938 41.2829 Q125.7656 40.9236 125.7656 40.2361 L125.7656 39.8454 ZM123.125 34.9704 L123.9062 33.3298 L125.2969 33.3298 L124 34.9704 L123.125 34.9704 ZM128.7812 42.9704 L128.7812 36.7517 L129.7344 36.7517 L129.7344 37.6892 Q130.0938 37.0329 130.3984 36.822 Q130.7031 36.6111 131.0781 36.6111 Q131.6094 36.6111 132.1562 36.9392 L131.7969 37.9236 Q131.4062 37.6892 131.0312 37.6892 Q130.6719 37.6892 130.3984 37.9001 Q130.125 38.1111 130.0156 38.4861 Q129.8281 39.0486 129.8281 39.7048 L129.8281 42.9704 L128.7812 42.9704 ZM136.8594 42.2048 Q136.2656 42.7048 135.7266 42.9079 Q135.1875 43.1111 134.5625 43.1111 Q133.5312 43.1111 132.9844 42.6111 Q132.4375 42.1111 132.4375 41.3298 Q132.4375 40.8767 132.6406 40.4939 Q132.8438 40.1111 133.1875 39.8845 Q133.5312 39.6579 133.9531 39.5486 Q134.25 39.4548 134.8906 39.3767 Q136.1562 39.2361 136.7656 39.0173 Q136.7656 38.7986 136.7656 38.7517 Q136.7656 38.0954 136.4688 37.8298 Q136.0625 37.4861 135.2656 37.4861 Q134.5312 37.4861 134.1719 37.7439 Q133.8125 38.0017 133.6406 38.6579 L132.6094 38.5173 Q132.75 37.8611 133.0781 37.4548 Q133.4062 37.0486 134.0156 36.8298 Q134.625 36.6111 135.4219 36.6111 Q136.2188 36.6111 136.7188 36.7986 Q137.2188 36.9861 137.4531 37.2673 Q137.6875 37.5486 137.7812 37.9861 Q137.8281 38.2517 137.8281 38.9548 L137.8281 40.3611 Q137.8281 41.8298 137.8984 42.2204 Q137.9688 42.6111 138.1719 42.9704 L137.0625 42.9704 Q136.9062 42.6423 136.8594 42.2048 ZM136.7656 39.8454 Q136.1875 40.0798 135.0469 40.2517 Q134.3906 40.3454 134.125 40.4626 Q133.8594 40.5798 133.7109 40.7986 Q133.5625 41.0173 133.5625 41.2986 Q133.5625 41.7204 133.8828 42.0017 Q134.2031 42.2829 134.8125 42.2829 Q135.4219 42.2829 135.8984 42.0173 Q136.375 41.7517 136.5938 41.2829 Q136.7656 40.9236 136.7656 40.2361 L136.7656 39.8454 ZM139.7969 42.9704 L139.7969 36.7517 L140.7344 36.7517 L140.7344 37.6267 Q141.0312 37.1579 141.5156 36.8845 Q142 36.6111 142.625 36.6111 Q143.3125 36.6111 143.7578 36.8923 Q144.2031 37.1736 144.375 37.6892 Q145.125 36.6111 146.2969 36.6111 Q147.2344 36.6111 147.7266 37.1189 Q148.2188 37.6267 148.2188 38.7048 L148.2188 42.9704 L147.1719 42.9704 L147.1719 39.0486 Q147.1719 38.4236 147.0703 38.1423 Q146.9688 37.8611 146.7031 37.6892 Q146.4375 37.5173 146.0625 37.5173 Q145.4062 37.5173 144.9766 37.9548 Q144.5469 38.3923 144.5469 39.3611 L144.5469 42.9704 L143.4844 42.9704 L143.4844 38.9236 Q143.4844 38.2204 143.2266 37.8689 Q142.9688 37.5173 142.3906 37.5173 Q141.9375 37.5173 141.5625 37.7517 Q141.1875 37.9861 141.0156 38.4392 Q140.8438 38.8923 140.8438 39.7361 L140.8438 42.9704 L139.7969 42.9704 ZM150.7969 42.9704 L150.7969 34.3767 L151.8594 34.3767 L151.8594 39.2829 L154.3438 36.7517 L155.7188 36.7517 L153.3281 39.0486 L155.9531 42.9704 L154.6562 42.9704 L152.5938 39.7829 L151.8594 40.5017 L151.8594 42.9704 L150.7969 42.9704 ZM156.4062 39.8611 Q156.4062 38.1267 157.3594 37.2986 Q158.1562 36.6111 159.3125 36.6111 Q160.5938 36.6111 161.4141 37.447 Q162.2344 38.2829 162.2344 39.7673 Q162.2344 40.9704 161.875 41.6579 Q161.5156 42.3454 160.8203 42.7282 Q160.125 43.1111 159.3125 43.1111 Q158.0156 43.1111 157.2109 42.2751 Q156.4062 41.4392 156.4062 39.8611 ZM157.4844 39.8611 Q157.4844 41.0486 158.0078 41.6423 Q158.5312 42.2361 159.3125 42.2361 Q160.1094 42.2361 160.625 41.6423 Q161.1406 41.0486 161.1406 39.8298 Q161.1406 38.6736 160.6172 38.0798 Q160.0938 37.4861 159.3125 37.4861 Q158.5312 37.4861 158.0078 38.072 Q157.4844 38.6579 157.4844 39.8611 ZM157.8125 34.9704 L157.8125 33.7673 L158.9062 33.7673 L158.9062 34.9704 L157.8125 34.9704 ZM160 34.9704 L160 33.7673 L161.0938 33.7673 L161.0938 34.9704 L160 34.9704 ZM163.7812 42.9704 L163.7812 36.7517 L164.7344 36.7517 L164.7344 37.6892 Q165.0938 37.0329 165.3984 36.822 Q165.7031 36.6111 166.0781 36.6111 Q166.6094 36.6111 167.1562 36.9392 L166.7969 37.9236 Q166.4062 37.6892 166.0312 37.6892 Q165.6719 37.6892 165.3984 37.9001 Q165.125 38.1111 165.0156 38.4861 Q164.8281 39.0486 164.8281 39.7048 L164.8281 42.9704 L163.7812 42.9704 ZM170.0938 42.0329 L170.25 42.9548 Q169.7969 43.0486 169.4531 43.0486 Q168.875 43.0486 168.5625 42.8689 Q168.25 42.6892 168.1172 42.3923 Q167.9844 42.0954 167.9844 41.1423 L167.9844 37.5642 L167.2188 37.5642 L167.2188 36.7517 L167.9844 36.7517 L167.9844 35.2048 L169.0312 34.5798 L169.0312 36.7517 L170.0938 36.7517 L170.0938 37.5642 L169.0312 37.5642 L169.0312 41.2048 Q169.0312 41.6579 169.0859 41.7829 Q169.1406 41.9079 169.2656 41.9861 Q169.3906 42.0642 169.625 42.0642 Q169.8125 42.0642 170.0938 42.0329 ZM171.0625 42.9704 L171.0625 41.7673 L172.2656 41.7673 L172.2656 42.9704 Q172.2656 43.6267 172.0312 44.0407 Q171.7969 44.4548 171.2969 44.6736 L171 44.2204 Q171.3281 44.0798 171.4844 43.7907 Q171.6406 43.5017 171.6719 42.9704 L171.0625 42.9704 ZM180.8594 42.2048 Q180.2656 42.7048 179.7266 42.9079 Q179.1875 43.1111 178.5625 43.1111 Q177.5312 43.1111 176.9844 42.6111 Q176.4375 42.1111 176.4375 41.3298 Q176.4375 40.8767 176.6406 40.4939 Q176.8438 40.1111 177.1875 39.8845 Q177.5312 39.6579 177.9531 39.5486 Q178.25 39.4548 178.8906 39.3767 Q180.1562 39.2361 180.7656 39.0173 Q180.7656 38.7986 180.7656 38.7517 Q180.7656 38.0954 180.4688 37.8298 Q180.0625 37.4861 179.2656 37.4861 Q178.5312 37.4861 178.1719 37.7439 Q177.8125 38.0017 177.6406 38.6579 L176.6094 38.5173 Q176.75 37.8611 177.0781 37.4548 Q177.4062 37.0486 178.0156 36.8298 Q178.625 36.6111 179.4219 36.6111 Q180.2188 36.6111 180.7188 36.7986 Q181.2188 36.9861 181.4531 37.2673 Q181.6875 37.5486 181.7812 37.9861 Q181.8281 38.2517 181.8281 38.9548 L181.8281 40.3611 Q181.8281 41.8298 181.8984 42.2204 Q181.9688 42.6111 182.1719 42.9704 L181.0625 42.9704 Q180.9062 42.6423 180.8594 42.2048 ZM180.7656 39.8454 Q180.1875 40.0798 179.0469 40.2517 Q178.3906 40.3454 178.125 40.4626 Q177.8594 40.5798 177.7109 40.7986 Q177.5625 41.0173 177.5625 41.2986 Q177.5625 41.7204 177.8828 42.0017 Q178.2031 42.2829 178.8125 42.2829 Q179.4219 42.2829 179.8984 42.0173 Q180.375 41.7517 180.5938 41.2829 Q180.7656 40.9236 180.7656 40.2361 L180.7656 39.8454 ZM183.2344 42.9704 L183.2344 42.1111 L187.2031 37.5642 Q186.5156 37.5954 186 37.5954 L183.4688 37.5954 L183.4688 36.7517 L188.5625 36.7517 L188.5625 37.4392 L185.1875 41.3923 L184.5312 42.1111 Q185.25 42.0642 185.8594 42.0642 L188.75 42.0642 L188.75 42.9704 L183.2344 42.9704 Z" style="clip-path:url(#clipPath14); stroke:none;" />
      <path d="M8.0469 54.9704 L9.1406 55.0954 Q8.8906 56.0486 8.1875 56.5798 Q7.4844 57.1111 6.4062 57.1111 Q5.0469 57.1111 4.2422 56.2673 Q3.4375 55.4236 3.4375 53.9079 Q3.4375 52.3454 4.25 51.4782 Q5.0625 50.6111 6.3438 50.6111 Q7.5938 50.6111 8.3828 51.4548 Q9.1719 52.2986 9.1719 53.8454 Q9.1719 53.9392 9.1719 54.1267 L4.5312 54.1267 Q4.5938 55.1579 5.1094 55.697 Q5.625 56.2361 6.4062 56.2361 Q6.9844 56.2361 7.3984 55.9314 Q7.8125 55.6267 8.0469 54.9704 ZM4.5938 53.2673 L8.0625 53.2673 Q8 52.4704 7.6719 52.0798 Q7.1562 51.4704 6.3594 51.4704 Q5.625 51.4704 5.1328 51.9548 Q4.6406 52.4392 4.5938 53.2673 ZM10.7656 56.9704 L10.7656 48.3767 L11.8281 48.3767 L11.8281 56.9704 L10.7656 56.9704 ZM13.4062 53.8611 Q13.4062 52.1267 14.3594 51.2986 Q15.1562 50.6111 16.3125 50.6111 Q17.5938 50.6111 18.4141 51.447 Q19.2344 52.2829 19.2344 53.7673 Q19.2344 54.9704 18.875 55.6579 Q18.5156 56.3454 17.8203 56.7282 Q17.125 57.1111 16.3125 57.1111 Q15.0156 57.1111 14.2109 56.2751 Q13.4062 55.4392 13.4062 53.8611 ZM14.4844 53.8611 Q14.4844 55.0486 15.0078 55.6423 Q15.5312 56.2361 16.3125 56.2361 Q17.1094 56.2361 17.625 55.6423 Q18.1406 55.0486 18.1406 53.8298 Q18.1406 52.6736 17.6172 52.0798 Q17.0938 51.4861 16.3125 51.4861 Q15.5312 51.4861 15.0078 52.072 Q14.4844 52.6579 14.4844 53.8611 ZM14.9688 48.9704 L15.6719 47.3298 L17.0469 47.3298 L15.8125 48.9704 L14.9688 48.9704 ZM17 48.9704 L17.75 47.3298 L19.0938 47.3298 L17.8906 48.9704 L17 48.9704 ZM20.2344 56.9704 L20.2344 56.1111 L24.2031 51.5642 Q23.5156 51.5954 23 51.5954 L20.4688 51.5954 L20.4688 50.7517 L25.5625 50.7517 L25.5625 51.4392 L22.1875 55.3923 L21.5312 56.1111 Q22.25 56.0642 22.8594 56.0642 L25.75 56.0642 L25.75 56.9704 L20.2344 56.9704 ZM25.4062 53.8611 Q25.4062 52.1267 26.3594 51.2986 Q27.1562 50.6111 28.3125 50.6111 Q29.5938 50.6111 30.4141 51.447 Q31.2344 52.2829 31.2344 53.7673 Q31.2344 54.9704 30.875 55.6579 Q30.5156 56.3454 29.8203 56.7282 Q29.125 57.1111 28.3125 57.1111 Q27.0156 57.1111 26.2109 56.2751 Q25.4062 55.4392 25.4062 53.8611 ZM26.4844 53.8611 Q26.4844 55.0486 27.0078 55.6423 Q27.5312 56.2361 28.3125 56.2361 Q29.1094 56.2361 29.625 55.6423 Q30.1406 55.0486 30.1406 53.8298 Q30.1406 52.6736 29.6172 52.0798 Q29.0938 51.4861 28.3125 51.4861 Q27.5312 51.4861 27.0078 52.072 Q26.4844 52.6579 26.4844 53.8611 ZM26.9688 48.9704 L27.6719 47.3298 L29.0469 47.3298 L27.8125 48.9704 L26.9688 48.9704 ZM29 48.9704 L29.75 47.3298 L31.0938 47.3298 L29.8906 48.9704 L29 48.9704 ZM35.0938 56.0329 L35.25 56.9548 Q34.7969 57.0486 34.4531 57.0486 Q33.875 57.0486 33.5625 56.8689 Q33.25 56.6892 33.1172 56.3923 Q32.9844 56.0954 32.9844 55.1423 L32.9844 51.5642 L32.2188 51.5642 L32.2188 50.7517 L32.9844 50.7517 L32.9844 49.2048 L34.0312 48.5798 L34.0312 50.7517 L35.0938 50.7517 L35.0938 51.5642 L34.0312 51.5642 L34.0312 55.2048 Q34.0312 55.6579 34.0859 55.7829 Q34.1406 55.9079 34.2656 55.9861 Q34.3906 56.0642 34.625 56.0642 Q34.8125 56.0642 35.0938 56.0329 ZM43.0469 54.9704 L44.1406 55.0954 Q43.8906 56.0486 43.1875 56.5798 Q42.4844 57.1111 41.4062 57.1111 Q40.0469 57.1111 39.2422 56.2673 Q38.4375 55.4236 38.4375 53.9079 Q38.4375 52.3454 39.25 51.4782 Q40.0625 50.6111 41.3438 50.6111 Q42.5938 50.6111 43.3828 51.4548 Q44.1719 52.2986 44.1719 53.8454 Q44.1719 53.9392 44.1719 54.1267 L39.5312 54.1267 Q39.5938 55.1579 40.1094 55.697 Q40.625 56.2361 41.4062 56.2361 Q41.9844 56.2361 42.3984 55.9314 Q42.8125 55.6267 43.0469 54.9704 ZM39.5938 53.2673 L43.0625 53.2673 Q43 52.4704 42.6719 52.0798 Q42.1562 51.4704 41.3594 51.4704 Q40.625 51.4704 40.1328 51.9548 Q39.6406 52.4392 39.5938 53.2673 ZM45.7656 56.9704 L45.7656 48.3767 L46.8281 48.3767 L46.8281 56.9704 L45.7656 56.9704 ZM52.8281 56.9704 L52.8281 56.1892 Q52.2344 57.1111 51.0938 57.1111 Q50.3438 57.1111 49.7188 56.697 Q49.0938 56.2829 48.75 55.5486 Q48.4062 54.8142 48.4062 53.8611 Q48.4062 52.9392 48.7188 52.1736 Q49.0312 51.4079 49.6562 51.0095 Q50.2812 50.6111 51.0469 50.6111 Q51.6094 50.6111 52.0469 50.8454 Q52.4844 51.0798 52.7656 51.4548 L52.7656 48.3767 L53.8125 48.3767 L53.8125 56.9704 L52.8281 56.9704 ZM49.5 53.8611 Q49.5 55.0642 50 55.6501 Q50.5 56.2361 51.1875 56.2361 Q51.875 56.2361 52.3594 55.6736 Q52.8438 55.1111 52.8438 53.9548 Q52.8438 52.6736 52.3516 52.0798 Q51.8594 51.4861 51.1406 51.4861 Q50.4375 51.4861 49.9688 52.0564 Q49.5 52.6267 49.5 53.8611 ZM55.4062 53.8611 Q55.4062 52.1267 56.3594 51.2986 Q57.1562 50.6111 58.3125 50.6111 Q59.5938 50.6111 60.4141 51.447 Q61.2344 52.2829 61.2344 53.7673 Q61.2344 54.9704 60.875 55.6579 Q60.5156 56.3454 59.8203 56.7282 Q59.125 57.1111 58.3125 57.1111 Q57.0156 57.1111 56.2109 56.2751 Q55.4062 55.4392 55.4062 53.8611 ZM56.4844 53.8611 Q56.4844 55.0486 57.0078 55.6423 Q57.5312 56.2361 58.3125 56.2361 Q59.1094 56.2361 59.625 55.6423 Q60.1406 55.0486 60.1406 53.8298 Q60.1406 52.6736 59.6172 52.0798 Q59.0938 51.4861 58.3125 51.4861 Q57.5312 51.4861 57.0078 52.072 Q56.4844 52.6579 56.4844 53.8611 ZM63.7656 56.9704 L62.7812 56.9704 L62.7812 48.3767 L63.8438 48.3767 L63.8438 51.4392 Q64.5156 50.6111 65.5469 50.6111 Q66.125 50.6111 66.6328 50.8376 Q67.1406 51.0642 67.4766 51.4861 Q67.8125 51.9079 68 52.5017 Q68.1875 53.0954 68.1875 53.7673 Q68.1875 55.3611 67.3906 56.2361 Q66.5938 57.1111 65.5 57.1111 Q64.3906 57.1111 63.7656 56.1892 L63.7656 56.9704 ZM63.75 53.8142 Q63.75 54.9236 64.0625 55.4236 Q64.5625 56.2361 65.4062 56.2361 Q66.0938 56.2361 66.6016 55.6423 Q67.1094 55.0486 67.1094 53.8454 Q67.1094 52.6267 66.625 52.0486 Q66.1406 51.4704 65.4531 51.4704 Q64.7656 51.4704 64.2578 52.072 Q63.75 52.6736 63.75 53.8142 ZM69.7812 49.6111 L69.7812 48.3767 L70.8438 48.3767 L70.8438 49.6111 L69.7812 49.6111 ZM68.4531 59.3923 L68.6406 58.4861 Q68.9688 58.5642 69.1406 58.5642 Q69.4688 58.5642 69.625 58.3532 Q69.7812 58.1423 69.7812 57.2829 L69.7812 50.7517 L70.8438 50.7517 L70.8438 57.3142 Q70.8438 58.4548 70.5469 58.9079 Q70.1562 59.5017 69.2812 59.5017 Q68.8438 59.5017 68.4531 59.3923 ZM76.875 56.9704 L76.875 56.0486 Q76.1406 57.1111 74.8906 57.1111 Q74.3438 57.1111 73.8672 56.9001 Q73.3906 56.6892 73.1562 56.3689 Q72.9219 56.0486 72.8281 55.5798 Q72.7656 55.2829 72.7656 54.5954 L72.7656 50.7517 L73.8281 50.7517 L73.8281 54.2048 Q73.8281 55.0173 73.8906 55.3142 Q73.9844 55.7204 74.3047 55.9626 Q74.625 56.2048 75.1094 56.2048 Q75.5781 56.2048 75.9922 55.9626 Q76.4062 55.7204 76.5859 55.2986 Q76.7656 54.8767 76.7656 54.0798 L76.7656 50.7517 L77.8125 50.7517 L77.8125 56.9704 L76.875 56.9704 ZM79.7969 56.9704 L79.7969 48.3767 L80.8594 48.3767 L80.8594 53.2829 L83.3438 50.7517 L84.7188 50.7517 L82.3281 53.0486 L84.9531 56.9704 L83.6562 56.9704 L81.5938 53.7829 L80.8594 54.5017 L80.8594 56.9704 L79.7969 56.9704 ZM86.0938 56.9704 L86.0938 55.7673 L87.2969 55.7673 L87.2969 56.9704 L86.0938 56.9704 Z" style="clip-path:url(#clipPath14); stroke:none;" />
    </g>
    <g transform="translate(406,324)" style="font-size:11; fill:white; text-rendering:geometricPrecision; font-family:sans-serif; stroke:white;">
      <rect x="0" y="0" width="8" style="clip-path:url(#clipPath15); stroke:none;" height="100" />
    </g>
    <g transform="translate(406,324)" style="font-size:11; stroke-linecap:butt; text-rendering:geometricPrecision; font-family:sans-serif; stroke-linejoin:round; stroke-miterlimit:0;">
      <rect x="0" y="0" width="8" style="clip-path:url(#clipPath15); fill:none;" height="100" />
    </g>
    <g style="text-rendering:geometricPrecision; font-size:11; font-family:sans-serif;" transform="translate(415,354)">
      <text x="11" y="12" style="clip-path:url(#clipPath16); stroke:none;" xml:space="preserve">Áramkört leíró fájl feldolgozása</text>
    </g>
    <g style="text-rendering:geometricPrecision; font-size:11; font-family:sans-serif;" transform="translate(230,34)">
      <text x="11" y="12" style="clip-path:url(#clipPath17); stroke:none;" xml:space="preserve">&lt;&lt;metaclass&gt;&gt;</text>
      <text x="33" y="27" style="clip-path:url(#clipPath17); stroke:none;" xml:space="preserve">Circuit</text>
    </g>
    <g style="text-rendering:geometricPrecision; font-size:11; font-family:sans-serif;" transform="translate(380,264)">
      <text x="10" y="12" style="clip-path:url(#clipPath18); stroke:none;" xml:space="preserve">: Parser</text>
    </g>
    <g style="text-rendering:geometricPrecision; font-size:11; font-family:sans-serif;" transform="translate(130,34)">
      <text x="8" y="12" style="clip-path:url(#clipPath19); stroke:none;" xml:space="preserve">oldSimulation :</text>
      <text x="19" y="27" style="clip-path:url(#clipPath19); stroke:none;" xml:space="preserve">Simulation</text>
    </g>
    <g style="text-rendering:geometricPrecision; font-size:11; font-family:sans-serif;" transform="translate(11,69)">
      <text x="9" y="12" style="clip-path:url(#clipPath20); stroke:none;" xml:space="preserve">Felhasználó</text>
    </g>
    <g transform="translate(4,114)" style="font-size:11; stroke-linecap:butt; text-rendering:geometricPrecision; font-family:sans-serif; stroke-linejoin:round;">
      <line x1="50" x2="167" y1="50" style="clip-path:url(#clipPath21); fill:none;" y2="50" />
      <polygon style="clip-path:url(#clipPath21); stroke:none;" points=" 167 50 155 44 155 56" />
      <polygon style="fill:none; clip-path:url(#clipPath21);" points=" 167 50 155 44 155 56" />
    </g>
    <g transform="translate(234,234)" style="font-size:11; stroke-linecap:butt; stroke-dashoffset:1; text-rendering:geometricPrecision; font-family:sans-serif; stroke-linejoin:round; stroke-dasharray:5;">
      <line x1="50" x2="146" y1="50" style="clip-path:url(#clipPath22); fill:none;" y2="50" />
      <line x1="146" x2="134" y1="50" style="stroke-dashoffset:0; clip-path:url(#clipPath22); fill:none; stroke-dasharray:none;" y2="44" />
      <line x1="146" x2="134" y1="50" style="stroke-dashoffset:0; clip-path:url(#clipPath22); fill:none; stroke-dasharray:none;" y2="56" />
    </g>
    <g transform="translate(234,274)" style="font-size:11; stroke-linecap:butt; text-rendering:geometricPrecision; font-family:sans-serif; stroke-linejoin:round;">
      <line x1="50" x2="172" y1="50" style="clip-path:url(#clipPath23); fill:none;" y2="50" />
      <polygon style="clip-path:url(#clipPath23); stroke:none;" points=" 172 50 160 44 160 56" />
      <polygon style="fill:none; clip-path:url(#clipPath23);" points=" 172 50 160 44 160 56" />
    </g>
    <g transform="translate(234,324)" style="font-size:11; stroke-linecap:butt; text-rendering:geometricPrecision; font-family:sans-serif; stroke-linejoin:round; stroke-dasharray:8,3; stroke-miterlimit:0;">
      <line x1="172" x2="50" y1="50" style="clip-path:url(#clipPath23); fill:none;" y2="50" />
      <line x1="50" x2="62" y1="50" style="clip-path:url(#clipPath23); fill:none; stroke-dasharray:none; stroke-miterlimit:10;" y2="56" />
      <line x1="50" x2="62" y1="50" style="clip-path:url(#clipPath23); fill:none; stroke-dasharray:none; stroke-miterlimit:10;" y2="44" />
    </g>
    <g transform="translate(364,294)" style="font-size:11; stroke-linecap:butt; text-rendering:geometricPrecision; font-family:sans-serif; stroke-linejoin:round;">
      <line x1="50" x2="136" y1="50" style="clip-path:url(#clipPath24); fill:none;" y2="50" />
      <polygon style="clip-path:url(#clipPath24); stroke:none;" points=" 136 50 124 44 124 56" />
      <polygon style="fill:none; clip-path:url(#clipPath24);" points=" 136 50 124 44 124 56" />
    </g>
    <g transform="translate(4,214)" style="font-size:11; stroke-linecap:butt; text-rendering:geometricPrecision; font-family:sans-serif; stroke-linejoin:round;">
      <line x1="50" x2="272" y1="50" style="clip-path:url(#clipPath25); fill:none;" y2="50" />
      <polygon style="clip-path:url(#clipPath25); stroke:none;" points=" 272 50 260 44 260 56" />
      <polygon style="fill:none; clip-path:url(#clipPath25);" points=" 272 50 260 44 260 56" />
    </g>
    <g transform="translate(4,334)" style="font-size:11; stroke-linecap:butt; text-rendering:geometricPrecision; font-family:sans-serif; stroke-linejoin:round; stroke-dasharray:8,3; stroke-miterlimit:0;">
      <line x1="272" x2="50" y1="50" style="clip-path:url(#clipPath25); fill:none;" y2="50" />
      <line x1="50" x2="62" y1="50" style="clip-path:url(#clipPath25); fill:none; stroke-dasharray:none; stroke-miterlimit:10;" y2="56" />
      <line x1="50" x2="62" y1="50" style="clip-path:url(#clipPath25); fill:none; stroke-dasharray:none; stroke-miterlimit:10;" y2="44" />
    </g>
    <g style="text-rendering:geometricPrecision; font-size:11; font-family:sans-serif;" transform="translate(134,364)">
      <text x="10" y="12" style="clip-path:url(#clipPath26); stroke:none;" xml:space="preserve">3: circuit</text>
    </g>
    <g style="text-rendering:geometricPrecision; font-size:11; font-family:sans-serif;" transform="translate(100,244)">
      <text x="12" y="12" style="clip-path:url(#clipPath27); stroke:none;" xml:space="preserve">2: loadCircuit(fileName)</text>
    </g>
    <g style="text-rendering:geometricPrecision; font-size:11; font-family:sans-serif;" transform="translate(432,324)">
      <text x="12" y="12" style="clip-path:url(#clipPath28); stroke:none;" xml:space="preserve">2.2.1:</text>
    </g>
    <g style="text-rendering:geometricPrecision; font-size:11; font-family:sans-serif;" transform="translate(310,354)">
      <text x="10" y="12" style="clip-path:url(#clipPath29); stroke:none;" xml:space="preserve">2.2.2: circuit</text>
    </g>
    <g style="text-rendering:geometricPrecision; font-size:11; font-family:sans-serif;" transform="translate(280,304)">
      <text x="11" y="12" style="clip-path:url(#clipPath30); stroke:none;" xml:space="preserve">2.2: parse(fileName)</text>
    </g>
    <g style="text-rendering:geometricPrecision; font-size:11; font-family:sans-serif;" transform="translate(290,254)">
      <text x="12" y="12" style="clip-path:url(#clipPath31); stroke:none;" xml:space="preserve">&lt;&lt;create&gt;&gt;</text>
      <text x="10" y="27" style="clip-path:url(#clipPath31); stroke:none;" xml:space="preserve">2.1: Parser()</text>
    </g>
    <g style="text-rendering:geometricPrecision; font-size:11; font-family:sans-serif;" transform="translate(50,144)">
      <text x="13" y="12" style="clip-path:url(#clipPath32); stroke:none;" xml:space="preserve">1: setState(STOPPED)</text>
    </g>
  </g>
</svg>
