<?xml version="1.0" encoding="UTF-8"?>

<!DOCTYPE svg PUBLIC '-//W3C//DTD SVG 1.0//EN' 'http://www.w3.org/TR/2001/REC-SVG-20010904/DTD/svg10.dtd'>
<svg style="fill-opacity:1; color-rendering:auto; color-interpolation:auto; stroke:black; text-rendering:auto; stroke-linecap:square; stroke-miterlimit:10; stroke-opacity:1; shape-rendering:auto; fill:black; stroke-dasharray:none; font-weight:normal; stroke-width:1; font-family:&apos;Dialog&apos;; font-style:normal; stroke-linejoin:miter; font-size:12; stroke-dashoffset:0; image-rendering:auto;" xmlns="http://www.w3.org/2000/svg" width="600" xmlns:xlink="http://www.w3.org/1999/xlink" height="438">
  <!--Generated by the Batik Graphics2D SVG Generator-->
  <defs id="genericDefs" />
  <g>
    <defs id="defs1">
      <clipPath clipPathUnits="userSpaceOnUse" id="clipPath1">
        <path d="M-3 -3 L67 -3 L67 397 L-3 397 L-3 -3 Z" />
      </clipPath>
      <clipPath clipPathUnits="userSpaceOnUse" id="clipPath2">
        <path d="M-3 -3 L97 -3 L97 187 L-3 187 L-3 -3 Z" />
      </clipPath>
      <clipPath clipPathUnits="userSpaceOnUse" id="clipPath3">
        <path d="M-3 -3 L15 -3 L15 35 L-3 35 L-3 -3 Z" />
      </clipPath>
      <clipPath clipPathUnits="userSpaceOnUse" id="clipPath4">
        <path d="M-3 -3 L67 -3 L67 167 L-3 167 L-3 -3 Z" />
      </clipPath>
      <clipPath clipPathUnits="userSpaceOnUse" id="clipPath5">
        <path d="M-3 -3 L107 -3 L107 397 L-3 397 L-3 -3 Z" />
      </clipPath>
      <clipPath clipPathUnits="userSpaceOnUse" id="clipPath6">
        <path d="M-3 -3 L15 -3 L15 169 L-3 169 L-3 -3 Z" />
      </clipPath>
      <clipPath clipPathUnits="userSpaceOnUse" id="clipPath7">
        <path d="M-3 -3 L187 -3 L187 127 L-3 127 L-3 -3 Z" />
      </clipPath>
      <clipPath clipPathUnits="userSpaceOnUse" id="clipPath8">
        <path d="M0 0 L27 0 L27 18 L0 18 L0 0 Z" />
      </clipPath>
      <clipPath clipPathUnits="userSpaceOnUse" id="clipPath9">
        <path d="M-3 -3 L187 -3 L187 109 L-3 109 L-3 -3 Z" />
      </clipPath>
      <clipPath clipPathUnits="userSpaceOnUse" id="clipPath10">
        <path d="M0 0 L118 0 L118 15 L0 15 L0 0 Z" />
      </clipPath>
      <clipPath clipPathUnits="userSpaceOnUse" id="clipPath11">
        <path d="M0 0 L0 4 L180 4 L180 0 Z" />
      </clipPath>
      <clipPath clipPathUnits="userSpaceOnUse" id="clipPath12">
        <path d="M-3 -3 L27 -3 L27 27 L-3 27 L-3 -3 Z" />
      </clipPath>
      <clipPath clipPathUnits="userSpaceOnUse" id="clipPath13">
        <path d="M-3 -3 L227 -3 L227 77 L-3 77 L-3 -3 Z" />
      </clipPath>
      <clipPath clipPathUnits="userSpaceOnUse" id="clipPath14">
        <path d="M0 0 L0 70 L220 70 L220 0 Z" />
      </clipPath>
      <clipPath clipPathUnits="userSpaceOnUse" id="clipPath15">
        <path d="M-3 -3 L15 -3 L15 67 L-3 67 L-3 -3 Z" />
      </clipPath>
      <clipPath clipPathUnits="userSpaceOnUse" id="clipPath16">
        <path d="M-171 -15 L342 -15 L342 30 L-171 30 L-171 -15 Z" />
      </clipPath>
      <clipPath clipPathUnits="userSpaceOnUse" id="clipPath17">
        <path d="M-100 -30 L200 -30 L200 60 L-100 60 L-100 -30 Z" />
      </clipPath>
      <clipPath clipPathUnits="userSpaceOnUse" id="clipPath18">
        <path d="M-60 -15 L120 -15 L120 30 L-60 30 L-60 -15 Z" />
      </clipPath>
      <clipPath clipPathUnits="userSpaceOnUse" id="clipPath19">
        <path d="M-90 -30 L180 -30 L180 60 L-90 60 L-90 -30 Z" />
      </clipPath>
      <clipPath clipPathUnits="userSpaceOnUse" id="clipPath20">
        <path d="M-78 -15 L156 -15 L156 30 L-78 30 L-78 -15 Z" />
      </clipPath>
      <clipPath clipPathUnits="userSpaceOnUse" id="clipPath21">
        <path d="M0 0 L221 0 L221 104 L0 104 L0 0 Z" />
      </clipPath>
      <clipPath clipPathUnits="userSpaceOnUse" id="clipPath22">
        <path d="M0 0 L200 0 L200 104 L0 104 L0 0 Z" />
      </clipPath>
      <clipPath clipPathUnits="userSpaceOnUse" id="clipPath23">
        <path d="M0 0 L226 0 L226 104 L0 104 L0 0 Z" />
      </clipPath>
      <clipPath clipPathUnits="userSpaceOnUse" id="clipPath24">
        <path d="M0 0 L190 0 L190 104 L0 104 L0 0 Z" />
      </clipPath>
      <clipPath clipPathUnits="userSpaceOnUse" id="clipPath25">
        <path d="M0 0 L326 0 L326 104 L0 104 L0 0 Z" />
      </clipPath>
      <clipPath clipPathUnits="userSpaceOnUse" id="clipPath26">
        <path d="M-61 -15 L122 -15 L122 30 L-61 30 L-61 -15 Z" />
      </clipPath>
      <clipPath clipPathUnits="userSpaceOnUse" id="clipPath27">
        <path d="M-135 -15 L270 -15 L270 30 L-135 30 L-135 -15 Z" />
      </clipPath>
      <clipPath clipPathUnits="userSpaceOnUse" id="clipPath28">
        <path d="M-51 -15 L102 -15 L102 30 L-51 30 L-51 -15 Z" />
      </clipPath>
      <clipPath clipPathUnits="userSpaceOnUse" id="clipPath29">
        <path d="M-79 -15 L158 -15 L158 30 L-79 30 L-79 -15 Z" />
      </clipPath>
      <clipPath clipPathUnits="userSpaceOnUse" id="clipPath30">
        <path d="M-120 -15 L240 -15 L240 30 L-120 30 L-120 -15 Z" />
      </clipPath>
      <clipPath clipPathUnits="userSpaceOnUse" id="clipPath31">
        <path d="M-81 -30 L162 -30 L162 60 L-81 60 L-81 -30 Z" />
      </clipPath>
      <clipPath clipPathUnits="userSpaceOnUse" id="clipPath32">
        <path d="M-132 -15 L264 -15 L264 30 L-132 30 L-132 -15 Z" />
      </clipPath>
    </defs>
    <g style="fill:white; text-rendering:geometricPrecision; stroke:white;">
      <rect x="0" y="0" width="600" style="stroke:none;" height="438" />
      <rect x="0" y="38" transform="translate(0,-38)" width="599" style="fill:none; stroke:black;" height="437" />
      <text x="7" y="55" transform="translate(0,-38)" style="fill:black; stroke:none; font-weight:bold;" xml:space="preserve">sd</text>
      <text x="28" y="55" transform="translate(0,-38)" style="fill:black; stroke:none;" xml:space="preserve">Áramkör választás</text>
      <line transform="translate(0,-38)" x1="0" x2="128" y1="62" style="fill:none; stroke:black;" y2="62" />
      <line transform="translate(0,-38)" x1="134" x2="134" y1="38" style="fill:none; stroke:black;" y2="52" />
      <line transform="translate(0,-38)" x1="134" x2="128" y1="52" style="fill:none; stroke:black;" y2="62" />
    </g>
    <g transform="translate(20,34)" style="font-size:11; stroke-linecap:butt; text-rendering:geometricPrecision; font-family:sans-serif; stroke-linejoin:round; stroke-miterlimit:0;">
      <circle style="fill:none; clip-path:url(#clipPath1);" r="5" cx="30" cy="5" />
      <rect x="26" y="50" width="8" style="clip-path:url(#clipPath1); fill:none;" height="339" />
      <line x1="30" x2="30" y1="10" style="clip-path:url(#clipPath1); fill:none;" y2="25" />
      <line x1="30" x2="21" y1="25" style="clip-path:url(#clipPath1); fill:none;" y2="36" />
      <line x1="30" x2="39" y1="25" style="clip-path:url(#clipPath1); fill:none;" y2="36" />
      <line x1="21" x2="39" y1="16" style="clip-path:url(#clipPath1); fill:none;" y2="16" />
    </g>
    <g transform="translate(130,34)" style="font-size:11; stroke-linecap:butt; text-rendering:geometricPrecision; font-family:sans-serif; stroke-linejoin:round; stroke-miterlimit:0;">
      <line x1="35" x2="53" y1="162" style="clip-path:url(#clipPath2); fill:none;" y2="180" />
      <line x1="35" x2="53" y1="180" style="clip-path:url(#clipPath2); fill:none;" y2="162" />
      <rect x="0" y="0" width="89" style="clip-path:url(#clipPath2); fill:none;" height="35" />
      <line x1="44" x2="44" y1="35" style="clip-path:url(#clipPath2); fill:none; stroke-linejoin:bevel; stroke-dasharray:8,3;" y2="171" />
    </g>
    <g transform="translate(171,164)" style="font-size:11; fill:white; text-rendering:geometricPrecision; font-family:sans-serif; stroke:white;">
      <rect x="0" y="0" width="8" style="clip-path:url(#clipPath3); stroke:none;" height="28" />
    </g>
    <g transform="translate(171,164)" style="font-size:11; stroke-linecap:butt; text-rendering:geometricPrecision; font-family:sans-serif; stroke-linejoin:round; stroke-miterlimit:0;">
      <rect x="0" y="0" width="8" style="clip-path:url(#clipPath3); fill:none;" height="28" />
    </g>
    <g transform="translate(380,264)" style="font-size:11; stroke-linecap:butt; text-rendering:geometricPrecision; font-family:sans-serif; stroke-linejoin:round; stroke-miterlimit:0;">
      <rect x="0" y="0" width="59" style="clip-path:url(#clipPath4); fill:none;" height="35" />
      <line x1="29" x2="29" y1="35" style="clip-path:url(#clipPath4); fill:none; stroke-linejoin:bevel; stroke-dasharray:8,3;" y2="160" />
    </g>
    <g transform="translate(230,34)" style="font-size:11; stroke-linecap:butt; text-rendering:geometricPrecision; font-family:sans-serif; stroke-linejoin:round; stroke-miterlimit:0;">
      <rect x="0" y="0" width="99" style="clip-path:url(#clipPath5); fill:none;" height="35" />
      <line x1="49" x2="49" y1="35" style="clip-path:url(#clipPath5); fill:none; stroke-linejoin:bevel; stroke-dasharray:8,3;" y2="390" />
    </g>
    <g transform="translate(276,234)" style="font-size:11; fill:white; text-rendering:geometricPrecision; font-family:sans-serif; stroke:white;">
      <rect x="0" y="0" width="8" style="clip-path:url(#clipPath6); stroke:none;" height="162" />
    </g>
    <g transform="translate(276,234)" style="font-size:11; stroke-linecap:butt; text-rendering:geometricPrecision; font-family:sans-serif; stroke-linejoin:round; stroke-miterlimit:0;">
      <rect x="0" y="0" width="8" style="clip-path:url(#clipPath6); fill:none;" height="162" />
    </g>
    <g transform="translate(30,94)" style="font-size:11; stroke-linecap:butt; text-rendering:geometricPrecision; font-family:sans-serif; stroke-linejoin:round; font-weight:bold; stroke-miterlimit:0;">
      <rect x="0" y="0" width="180" style="clip-path:url(#clipPath7); fill:none;" height="120" />
    </g>
    <g transform="translate(30,94)" style="font-size:11; fill:white; text-rendering:geometricPrecision; font-family:sans-serif; stroke:white; font-weight:bold;">
      <path d="M26 0 L26 9 L20 17 L0 17 L0 0 Z" style="clip-path:url(#clipPath7); stroke:none;" />
    </g>
    <g transform="translate(30,94)" style="font-size:11; stroke-linecap:butt; text-rendering:geometricPrecision; font-family:sans-serif; stroke-linejoin:round; font-weight:bold; stroke-miterlimit:0;">
      <path d="M26 0 L26 9 L20 17 L0 17 L0 0 Z" style="fill:none; clip-path:url(#clipPath7);" />
    </g>
    <g transform="translate(30,94)" style="text-rendering:geometricPrecision; font-size:11; font-weight:bold; font-family:sans-serif;">
      <text x="4" y="12" style="clip-path:url(#clipPath8); stroke:none;" xml:space="preserve">opt</text>
    </g>
    <g transform="translate(30,112)" style="font-size:11; fill:white; text-rendering:geometricPrecision; font-family:sans-serif; stroke:white;">
      <rect x="28" y="5" width="118" style="clip-path:url(#clipPath9); stroke:none;" height="15" />
    </g>
    <g style="text-rendering:geometricPrecision; font-size:11; font-family:sans-serif;" transform="translate(58,117)">
      <text x="9" y="12" style="clip-path:url(#clipPath10); stroke:none;" xml:space="preserve">[oldSimulation != null]</text>
    </g>
    <g transform="translate(490,334)" style="font-size:11; fill:silver; text-rendering:geometricPrecision; font-family:sans-serif; stroke:silver;">
      <rect x="0" y="0" width="19" style="clip-path:url(#clipPath12); fill:none;" height="19" />
    </g>
    <g transform="translate(300,104)" style="font-size:11; fill:white; text-rendering:geometricPrecision; font-family:sans-serif; stroke:white;">
      <polygon style="clip-path:url(#clipPath13); stroke:none;" points=" 0 0 204 0 219 15 204 15 204 0 219 15 219 69 0 69" />
    </g>
    <g transform="translate(300,104)" style="font-size:11; stroke-linecap:butt; text-rendering:geometricPrecision; font-family:sans-serif; stroke-linejoin:round; stroke-miterlimit:0;">
      <polygon style="fill:none; clip-path:url(#clipPath13);" points=" 0 0 204 0 219 15 204 15 204 0 219 15 219 69 0 69" />
    </g>
    <g style="text-rendering:geometricPrecision; font-size:11; font-family:&apos;Tahoma&apos;;" transform="translate(300,104)">
      <path d="M2.9844 14.9704 L6.2812 6.3767 L7.5 6.3767 L11.0156 14.9704 L9.7344 14.9704 L8.7188 12.3611 L5.1406 12.3611 L4.1875 14.9704 L2.9844 14.9704 ZM5.4688 11.4392 L8.375 11.4392 L7.4844 9.0642 Q7.0625 7.9861 6.875 7.2829 Q6.7031 8.1111 6.4062 8.9236 L5.4688 11.4392 ZM10.7969 14.9704 L10.7969 8.7517 L11.7344 8.7517 L11.7344 9.6267 Q12.0312 9.1579 12.5156 8.8845 Q13 8.6111 13.625 8.6111 Q14.3125 8.6111 14.7578 8.8923 Q15.2031 9.1736 15.375 9.6892 Q16.125 8.6111 17.2969 8.6111 Q18.2344 8.6111 18.7266 9.1189 Q19.2188 9.6267 19.2188 10.7048 L19.2188 14.9704 L18.1719 14.9704 L18.1719 11.0486 Q18.1719 10.4236 18.0703 10.1423 Q17.9688 9.8611 17.7031 9.6892 Q17.4375 9.5173 17.0625 9.5173 Q16.4062 9.5173 15.9766 9.9548 Q15.5469 10.3923 15.5469 11.3611 L15.5469 14.9704 L14.4844 14.9704 L14.4844 10.9236 Q14.4844 10.2204 14.2266 9.8689 Q13.9688 9.5173 13.3906 9.5173 Q12.9375 9.5173 12.5625 9.7517 Q12.1875 9.9861 12.0156 10.4392 Q11.8438 10.8923 11.8438 11.7361 L11.8438 14.9704 L10.7969 14.9704 ZM21.7969 7.5954 L21.7969 6.3767 L22.8594 6.3767 L22.8594 7.5954 L21.7969 7.5954 ZM21.7969 14.9704 L21.7969 8.7517 L22.8594 8.7517 L22.8594 14.9704 L21.7969 14.9704 ZM24.7969 14.9704 L24.7969 6.3767 L25.8594 6.3767 L25.8594 11.2829 L28.3438 8.7517 L29.7188 8.7517 L27.3281 11.0486 L29.9531 14.9704 L28.6562 14.9704 L26.5938 11.7829 L25.8594 12.5017 L25.8594 14.9704 L24.7969 14.9704 ZM30.4062 11.8611 Q30.4062 10.1267 31.3594 9.2986 Q32.1562 8.6111 33.3125 8.6111 Q34.5938 8.6111 35.4141 9.447 Q36.2344 10.2829 36.2344 11.7673 Q36.2344 12.9704 35.875 13.6579 Q35.5156 14.3454 34.8203 14.7282 Q34.125 15.1111 33.3125 15.1111 Q32.0156 15.1111 31.2109 14.2751 Q30.4062 13.4392 30.4062 11.8611 ZM31.4844 11.8611 Q31.4844 13.0486 32.0078 13.6423 Q32.5312 14.2361 33.3125 14.2361 Q34.1094 14.2361 34.625 13.6423 Q35.1406 13.0486 35.1406 11.8298 Q35.1406 10.6736 34.6172 10.0798 Q34.0938 9.4861 33.3125 9.4861 Q32.5312 9.4861 32.0078 10.072 Q31.4844 10.6579 31.4844 11.8611 ZM37.7812 14.9704 L37.7812 8.7517 L38.7344 8.7517 L38.7344 9.6892 Q39.0938 9.0329 39.3984 8.822 Q39.7031 8.6111 40.0781 8.6111 Q40.6094 8.6111 41.1562 8.9392 L40.7969 9.9236 Q40.4062 9.6892 40.0312 9.6892 Q39.6719 9.6892 39.3984 9.9001 Q39.125 10.1111 39.0156 10.4861 Q38.8281 11.0486 38.8281 11.7048 L38.8281 14.9704 L37.7812 14.9704 ZM48.8594 14.2048 Q48.2656 14.7048 47.7266 14.9079 Q47.1875 15.1111 46.5625 15.1111 Q45.5312 15.1111 44.9844 14.6111 Q44.4375 14.1111 44.4375 13.3298 Q44.4375 12.8767 44.6406 12.4939 Q44.8438 12.1111 45.1875 11.8845 Q45.5312 11.6579 45.9531 11.5486 Q46.25 11.4548 46.8906 11.3767 Q48.1562 11.2361 48.7656 11.0173 Q48.7656 10.7986 48.7656 10.7517 Q48.7656 10.0954 48.4688 9.8298 Q48.0625 9.4861 47.2656 9.4861 Q46.5312 9.4861 46.1719 9.7439 Q45.8125 10.0017 45.6406 10.6579 L44.6094 10.5173 Q44.75 9.8611 45.0781 9.4548 Q45.4062 9.0486 46.0156 8.8298 Q46.625 8.6111 47.4219 8.6111 Q48.2188 8.6111 48.7188 8.7986 Q49.2188 8.9861 49.4531 9.2673 Q49.6875 9.5486 49.7812 9.9861 Q49.8281 10.2517 49.8281 10.9548 L49.8281 12.3611 Q49.8281 13.8298 49.8984 14.2204 Q49.9688 14.6111 50.1719 14.9704 L49.0625 14.9704 Q48.9062 14.6423 48.8594 14.2048 ZM48.7656 11.8454 Q48.1875 12.0798 47.0469 12.2517 Q46.3906 12.3454 46.125 12.4626 Q45.8594 12.5798 45.7109 12.7986 Q45.5625 13.0173 45.5625 13.2986 Q45.5625 13.7204 45.8828 14.0017 Q46.2031 14.2829 46.8125 14.2829 Q47.4219 14.2829 47.8984 14.0173 Q48.375 13.7517 48.5938 13.2829 Q48.7656 12.9236 48.7656 12.2361 L48.7656 11.8454 ZM46.125 6.9704 L46.9062 5.3298 L48.2969 5.3298 L47 6.9704 L46.125 6.9704 ZM51.7812 14.9704 L51.7812 8.7517 L52.7344 8.7517 L52.7344 9.6892 Q53.0938 9.0329 53.3984 8.822 Q53.7031 8.6111 54.0781 8.6111 Q54.6094 8.6111 55.1562 8.9392 L54.7969 9.9236 Q54.4062 9.6892 54.0312 9.6892 Q53.6719 9.6892 53.3984 9.9001 Q53.125 10.1111 53.0156 10.4861 Q52.8281 11.0486 52.8281 11.7048 L52.8281 14.9704 L51.7812 14.9704 ZM59.8594 14.2048 Q59.2656 14.7048 58.7266 14.9079 Q58.1875 15.1111 57.5625 15.1111 Q56.5312 15.1111 55.9844 14.6111 Q55.4375 14.1111 55.4375 13.3298 Q55.4375 12.8767 55.6406 12.4939 Q55.8438 12.1111 56.1875 11.8845 Q56.5312 11.6579 56.9531 11.5486 Q57.25 11.4548 57.8906 11.3767 Q59.1562 11.2361 59.7656 11.0173 Q59.7656 10.7986 59.7656 10.7517 Q59.7656 10.0954 59.4688 9.8298 Q59.0625 9.4861 58.2656 9.4861 Q57.5312 9.4861 57.1719 9.7439 Q56.8125 10.0017 56.6406 10.6579 L55.6094 10.5173 Q55.75 9.8611 56.0781 9.4548 Q56.4062 9.0486 57.0156 8.8298 Q57.625 8.6111 58.4219 8.6111 Q59.2188 8.6111 59.7188 8.7986 Q60.2188 8.9861 60.4531 9.2673 Q60.6875 9.5486 60.7812 9.9861 Q60.8281 10.2517 60.8281 10.9548 L60.8281 12.3611 Q60.8281 13.8298 60.8984 14.2204 Q60.9688 14.6111 61.1719 14.9704 L60.0625 14.9704 Q59.9062 14.6423 59.8594 14.2048 ZM59.7656 11.8454 Q59.1875 12.0798 58.0469 12.2517 Q57.3906 12.3454 57.125 12.4626 Q56.8594 12.5798 56.7109 12.7986 Q56.5625 13.0173 56.5625 13.2986 Q56.5625 13.7204 56.8828 14.0017 Q57.2031 14.2829 57.8125 14.2829 Q58.4219 14.2829 58.8984 14.0173 Q59.375 13.7517 59.5938 13.2829 Q59.7656 12.9236 59.7656 12.2361 L59.7656 11.8454 ZM62.7969 14.9704 L62.7969 8.7517 L63.7344 8.7517 L63.7344 9.6267 Q64.0312 9.1579 64.5156 8.8845 Q65 8.6111 65.625 8.6111 Q66.3125 8.6111 66.7578 8.8923 Q67.2031 9.1736 67.375 9.6892 Q68.125 8.6111 69.2969 8.6111 Q70.2344 8.6111 70.7266 9.1189 Q71.2188 9.6267 71.2188 10.7048 L71.2188 14.9704 L70.1719 14.9704 L70.1719 11.0486 Q70.1719 10.4236 70.0703 10.1423 Q69.9688 9.8611 69.7031 9.6892 Q69.4375 9.5173 69.0625 9.5173 Q68.4062 9.5173 67.9766 9.9548 Q67.5469 10.3923 67.5469 11.3611 L67.5469 14.9704 L66.4844 14.9704 L66.4844 10.9236 Q66.4844 10.2204 66.2266 9.8689 Q65.9688 9.5173 65.3906 9.5173 Q64.9375 9.5173 64.5625 9.7517 Q64.1875 9.9861 64.0156 10.4392 Q63.8438 10.8923 63.8438 11.7361 L63.8438 14.9704 L62.7969 14.9704 ZM73.7969 14.9704 L73.7969 6.3767 L74.8594 6.3767 L74.8594 11.2829 L77.3438 8.7517 L78.7188 8.7517 L76.3281 11.0486 L78.9531 14.9704 L77.6562 14.9704 L75.5938 11.7829 L74.8594 12.5017 L74.8594 14.9704 L73.7969 14.9704 ZM79.4062 11.8611 Q79.4062 10.1267 80.3594 9.2986 Q81.1562 8.6111 82.3125 8.6111 Q83.5938 8.6111 84.4141 9.447 Q85.2344 10.2829 85.2344 11.7673 Q85.2344 12.9704 84.875 13.6579 Q84.5156 14.3454 83.8203 14.7282 Q83.125 15.1111 82.3125 15.1111 Q81.0156 15.1111 80.2109 14.2751 Q79.4062 13.4392 79.4062 11.8611 ZM80.4844 11.8611 Q80.4844 13.0486 81.0078 13.6423 Q81.5312 14.2361 82.3125 14.2361 Q83.1094 14.2361 83.625 13.6423 Q84.1406 13.0486 84.1406 11.8298 Q84.1406 10.6736 83.6172 10.0798 Q83.0938 9.4861 82.3125 9.4861 Q81.5312 9.4861 81.0078 10.072 Q80.4844 10.6579 80.4844 11.8611 ZM80.8125 6.9704 L80.8125 5.7673 L81.9062 5.7673 L81.9062 6.9704 L80.8125 6.9704 ZM83 6.9704 L83 5.7673 L84.0938 5.7673 L84.0938 6.9704 L83 6.9704 ZM86.7812 14.9704 L86.7812 8.7517 L87.7344 8.7517 L87.7344 9.6892 Q88.0938 9.0329 88.3984 8.822 Q88.7031 8.6111 89.0781 8.6111 Q89.6094 8.6111 90.1562 8.9392 L89.7969 9.9236 Q89.4062 9.6892 89.0312 9.6892 Q88.6719 9.6892 88.3984 9.9001 Q88.125 10.1111 88.0156 10.4861 Q87.8281 11.0486 87.8281 11.7048 L87.8281 14.9704 L86.7812 14.9704 ZM93.0938 14.0329 L93.25 14.9548 Q92.7969 15.0486 92.4531 15.0486 Q91.875 15.0486 91.5625 14.8689 Q91.25 14.6892 91.1172 14.3923 Q90.9844 14.0954 90.9844 13.1423 L90.9844 9.5642 L90.2188 9.5642 L90.2188 8.7517 L90.9844 8.7517 L90.9844 7.2048 L92.0312 6.5798 L92.0312 8.7517 L93.0938 8.7517 L93.0938 9.5642 L92.0312 9.5642 L92.0312 13.2048 Q92.0312 13.6579 92.0859 13.7829 Q92.1406 13.9079 92.2656 13.9861 Q92.3906 14.0642 92.625 14.0642 Q92.8125 14.0642 93.0938 14.0329 ZM98.5156 14.9704 L96.1562 8.7517 L97.2656 8.7517 L98.6094 12.4704 Q98.8125 13.0798 99 13.7204 Q99.1406 13.2361 99.3906 12.5486 L100.7812 8.7517 L101.8594 8.7517 L99.5 14.9704 L98.5156 14.9704 ZM105.8594 14.2048 Q105.2656 14.7048 104.7266 14.9079 Q104.1875 15.1111 103.5625 15.1111 Q102.5312 15.1111 101.9844 14.6111 Q101.4375 14.1111 101.4375 13.3298 Q101.4375 12.8767 101.6406 12.4939 Q101.8438 12.1111 102.1875 11.8845 Q102.5312 11.6579 102.9531 11.5486 Q103.25 11.4548 103.8906 11.3767 Q105.1562 11.2361 105.7656 11.0173 Q105.7656 10.7986 105.7656 10.7517 Q105.7656 10.0954 105.4688 9.8298 Q105.0625 9.4861 104.2656 9.4861 Q103.5312 9.4861 103.1719 9.7439 Q102.8125 10.0017 102.6406 10.6579 L101.6094 10.5173 Q101.75 9.8611 102.0781 9.4548 Q102.4062 9.0486 103.0156 8.8298 Q103.625 8.6111 104.4219 8.6111 Q105.2188 8.6111 105.7188 8.7986 Q106.2188 8.9861 106.4531 9.2673 Q106.6875 9.5486 106.7812 9.9861 Q106.8281 10.2517 106.8281 10.9548 L106.8281 12.3611 Q106.8281 13.8298 106.8984 14.2204 Q106.9688 14.6111 107.1719 14.9704 L106.0625 14.9704 Q105.9062 14.6423 105.8594 14.2048 ZM105.7656 11.8454 Q105.1875 12.0798 104.0469 12.2517 Q103.3906 12.3454 103.125 12.4626 Q102.8594 12.5798 102.7109 12.7986 Q102.5625 13.0173 102.5625 13.2986 Q102.5625 13.7204 102.8828 14.0017 Q103.2031 14.2829 103.8125 14.2829 Q104.4219 14.2829 104.8984 14.0173 Q105.375 13.7517 105.5938 13.2829 Q105.7656 12.9236 105.7656 12.2361 L105.7656 11.8454 ZM103.125 6.9704 L103.9062 5.3298 L105.2969 5.3298 L104 6.9704 L103.125 6.9704 ZM108.7656 14.9704 L108.7656 6.3767 L109.8281 6.3767 L109.8281 14.9704 L108.7656 14.9704 ZM115.8594 14.2048 Q115.2656 14.7048 114.7266 14.9079 Q114.1875 15.1111 113.5625 15.1111 Q112.5312 15.1111 111.9844 14.6111 Q111.4375 14.1111 111.4375 13.3298 Q111.4375 12.8767 111.6406 12.4939 Q111.8438 12.1111 112.1875 11.8845 Q112.5312 11.6579 112.9531 11.5486 Q113.25 11.4548 113.8906 11.3767 Q115.1562 11.2361 115.7656 11.0173 Q115.7656 10.7986 115.7656 10.7517 Q115.7656 10.0954 115.4688 9.8298 Q115.0625 9.4861 114.2656 9.4861 Q113.5312 9.4861 113.1719 9.7439 Q112.8125 10.0017 112.6406 10.6579 L111.6094 10.5173 Q111.75 9.8611 112.0781 9.4548 Q112.4062 9.0486 113.0156 8.8298 Q113.625 8.6111 114.4219 8.6111 Q115.2188 8.6111 115.7188 8.7986 Q116.2188 8.9861 116.4531 9.2673 Q116.6875 9.5486 116.7812 9.9861 Q116.8281 10.2517 116.8281 10.9548 L116.8281 12.3611 Q116.8281 13.8298 116.8984 14.2204 Q116.9688 14.6111 117.1719 14.9704 L116.0625 14.9704 Q115.9062 14.6423 115.8594 14.2048 ZM115.7656 11.8454 Q115.1875 12.0798 114.0469 12.2517 Q113.3906 12.3454 113.125 12.4626 Q112.8594 12.5798 112.7109 12.7986 Q112.5625 13.0173 112.5625 13.2986 Q112.5625 13.7204 112.8828 14.0017 Q113.2031 14.2829 113.8125 14.2829 Q114.4219 14.2829 114.8984 14.0173 Q115.375 13.7517 115.5938 13.2829 Q115.7656 12.9236 115.7656 12.2361 L115.7656 11.8454 ZM118.375 13.1111 L119.4062 12.9548 Q119.5 13.5798 119.8984 13.9079 Q120.2969 14.2361 121.0312 14.2361 Q121.75 14.2361 122.1016 13.947 Q122.4531 13.6579 122.4531 13.2517 Q122.4531 12.8923 122.1406 12.6892 Q121.9219 12.5486 121.0625 12.3298 Q119.9062 12.0329 119.4609 11.822 Q119.0156 11.6111 118.7812 11.2361 Q118.5469 10.8611 118.5469 10.3923 Q118.5469 9.9861 118.7344 9.6267 Q118.9219 9.2673 119.25 9.0329 Q119.5 8.8611 119.9219 8.7361 Q120.3438 8.6111 120.8438 8.6111 Q121.5625 8.6111 122.1172 8.822 Q122.6719 9.0329 122.9375 9.3923 Q123.2031 9.7517 123.2969 10.3454 L122.2656 10.4861 Q122.2031 10.0173 121.8672 9.7439 Q121.5312 9.4704 120.9062 9.4704 Q120.1875 9.4704 119.875 9.7126 Q119.5625 9.9548 119.5625 10.2829 Q119.5625 10.4861 119.6875 10.6423 Q119.8281 10.8142 120.0938 10.9236 Q120.25 10.9861 121.0312 11.1892 Q122.1562 11.5017 122.5938 11.6892 Q123.0312 11.8767 123.2812 12.2361 Q123.5312 12.5954 123.5312 13.1423 Q123.5312 13.6736 123.2266 14.1345 Q122.9219 14.5954 122.3438 14.8532 Q121.7656 15.1111 121.0312 15.1111 Q119.8125 15.1111 119.1797 14.6032 Q118.5469 14.0954 118.375 13.1111 ZM125.2344 14.9704 L125.2344 14.1111 L129.2031 9.5642 Q128.5156 9.5954 128 9.5954 L125.4688 9.5954 L125.4688 8.7517 L130.5625 8.7517 L130.5625 9.4392 L127.1875 13.3923 L126.5312 14.1111 Q127.25 14.0642 127.8594 14.0642 L130.75 14.0642 L130.75 14.9704 L125.2344 14.9704 ZM133.0938 14.0329 L133.25 14.9548 Q132.7969 15.0486 132.4531 15.0486 Q131.875 15.0486 131.5625 14.8689 Q131.25 14.6892 131.1172 14.3923 Q130.9844 14.0954 130.9844 13.1423 L130.9844 9.5642 L130.2188 9.5642 L130.2188 8.7517 L130.9844 8.7517 L130.9844 7.2048 L132.0312 6.5798 L132.0312 8.7517 L133.0938 8.7517 L133.0938 9.5642 L132.0312 9.5642 L132.0312 13.2048 Q132.0312 13.6579 132.0859 13.7829 Q132.1406 13.9079 132.2656 13.9861 Q132.3906 14.0642 132.625 14.0642 Q132.8125 14.0642 133.0938 14.0329 ZM137.875 14.9704 L137.875 14.0486 Q137.1406 15.1111 135.8906 15.1111 Q135.3438 15.1111 134.8672 14.9001 Q134.3906 14.6892 134.1562 14.3689 Q133.9219 14.0486 133.8281 13.5798 Q133.7656 13.2829 133.7656 12.5954 L133.7656 8.7517 L134.8281 8.7517 L134.8281 12.2048 Q134.8281 13.0173 134.8906 13.3142 Q134.9844 13.7204 135.3047 13.9626 Q135.625 14.2048 136.1094 14.2048 Q136.5781 14.2048 136.9922 13.9626 Q137.4062 13.7204 137.5859 13.2986 Q137.7656 12.8767 137.7656 12.0798 L137.7656 8.7517 L138.8125 8.7517 L138.8125 14.9704 L137.875 14.9704 ZM140.7969 14.9704 L140.7969 8.7517 L141.7344 8.7517 L141.7344 9.6267 Q142.4219 8.6111 143.7188 8.6111 Q144.2812 8.6111 144.7578 8.8142 Q145.2344 9.0173 145.4688 9.3454 Q145.7031 9.6736 145.7969 10.1111 Q145.8438 10.4079 145.8438 11.1423 L145.8438 14.9704 L144.7969 14.9704 L144.7969 11.1892 Q144.7969 10.5329 144.6719 10.2204 Q144.5469 9.9079 144.2344 9.7126 Q143.9219 9.5173 143.5 9.5173 Q142.8281 9.5173 142.3359 9.947 Q141.8438 10.3767 141.8438 11.5642 L141.8438 14.9704 L140.7969 14.9704 ZM147.7969 14.9704 L147.7969 6.3767 L148.8594 6.3767 L148.8594 11.2829 L151.3438 8.7517 L152.7188 8.7517 L150.3281 11.0486 L152.9531 14.9704 L151.6562 14.9704 L149.5938 11.7829 L148.8594 12.5017 L148.8594 14.9704 L147.7969 14.9704 ZM154.0625 14.9704 L154.0625 13.7673 L155.2656 13.7673 L155.2656 14.9704 Q155.2656 15.6267 155.0312 16.0407 Q154.7969 16.4548 154.2969 16.6736 L154 16.2204 Q154.3281 16.0798 154.4844 15.7907 Q154.6406 15.5017 154.6719 14.9704 L154.0625 14.9704 ZM163.8594 14.2048 Q163.2656 14.7048 162.7266 14.9079 Q162.1875 15.1111 161.5625 15.1111 Q160.5312 15.1111 159.9844 14.6111 Q159.4375 14.1111 159.4375 13.3298 Q159.4375 12.8767 159.6406 12.4939 Q159.8438 12.1111 160.1875 11.8845 Q160.5312 11.6579 160.9531 11.5486 Q161.25 11.4548 161.8906 11.3767 Q163.1562 11.2361 163.7656 11.0173 Q163.7656 10.7986 163.7656 10.7517 Q163.7656 10.0954 163.4688 9.8298 Q163.0625 9.4861 162.2656 9.4861 Q161.5312 9.4861 161.1719 9.7439 Q160.8125 10.0017 160.6406 10.6579 L159.6094 10.5173 Q159.75 9.8611 160.0781 9.4548 Q160.4062 9.0486 161.0156 8.8298 Q161.625 8.6111 162.4219 8.6111 Q163.2188 8.6111 163.7188 8.7986 Q164.2188 8.9861 164.4531 9.2673 Q164.6875 9.5486 164.7812 9.9861 Q164.8281 10.2517 164.8281 10.9548 L164.8281 12.3611 Q164.8281 13.8298 164.8984 14.2204 Q164.9688 14.6111 165.1719 14.9704 L164.0625 14.9704 Q163.9062 14.6423 163.8594 14.2048 ZM163.7656 11.8454 Q163.1875 12.0798 162.0469 12.2517 Q161.3906 12.3454 161.125 12.4626 Q160.8594 12.5798 160.7109 12.7986 Q160.5625 13.0173 160.5625 13.2986 Q160.5625 13.7204 160.8828 14.0017 Q161.2031 14.2829 161.8125 14.2829 Q162.4219 14.2829 162.8984 14.0173 Q163.375 13.7517 163.5938 13.2829 Q163.7656 12.9236 163.7656 12.2361 L163.7656 11.8454 ZM169.7812 14.9704 L169.7812 8.7517 L170.7344 8.7517 L170.7344 9.6892 Q171.0938 9.0329 171.3984 8.822 Q171.7031 8.6111 172.0781 8.6111 Q172.6094 8.6111 173.1562 8.9392 L172.7969 9.9236 Q172.4062 9.6892 172.0312 9.6892 Q171.6719 9.6892 171.3984 9.9001 Q171.125 10.1111 171.0156 10.4861 Q170.8281 11.0486 170.8281 11.7048 L170.8281 14.9704 L169.7812 14.9704 ZM178.0469 12.9704 L179.1406 13.0954 Q178.8906 14.0486 178.1875 14.5798 Q177.4844 15.1111 176.4062 15.1111 Q175.0469 15.1111 174.2422 14.2673 Q173.4375 13.4236 173.4375 11.9079 Q173.4375 10.3454 174.25 9.4782 Q175.0625 8.6111 176.3438 8.6111 Q177.5938 8.6111 178.3828 9.4548 Q179.1719 10.2986 179.1719 11.8454 Q179.1719 11.9392 179.1719 12.1267 L174.5312 12.1267 Q174.5938 13.1579 175.1094 13.697 Q175.625 14.2361 176.4062 14.2361 Q176.9844 14.2361 177.3984 13.9314 Q177.8125 13.6267 178.0469 12.9704 ZM174.5938 11.2673 L178.0625 11.2673 Q178 10.4704 177.6719 10.0798 Q177.1562 9.4704 176.3594 9.4704 Q175.625 9.4704 175.1328 9.9548 Q174.6406 10.4392 174.5938 11.2673 ZM175.125 6.9704 L175.9062 5.3298 L177.2969 5.3298 L176 6.9704 L175.125 6.9704 ZM180.5938 15.4861 L181.625 15.6423 Q181.6875 16.1111 181.9844 16.3298 Q182.375 16.6267 183.0469 16.6267 Q183.7812 16.6267 184.1797 16.3298 Q184.5781 16.0329 184.7188 15.5173 Q184.8125 15.1892 184.7969 14.1579 Q184.1094 14.9704 183.0781 14.9704 Q181.7969 14.9704 181.0938 14.0407 Q180.3906 13.1111 180.3906 11.8298 Q180.3906 10.9392 180.7109 10.1814 Q181.0312 9.4236 181.6406 9.0173 Q182.25 8.6111 183.0781 8.6111 Q184.1875 8.6111 184.9062 9.5017 L184.9062 8.7517 L185.875 8.7517 L185.875 14.1267 Q185.875 15.5798 185.5781 16.1892 Q185.2812 16.7986 184.6406 17.1501 Q184 17.5017 183.0625 17.5017 Q181.9531 17.5017 181.2656 17.0017 Q180.5781 16.5017 180.5938 15.4861 ZM181.4688 11.7517 Q181.4688 12.9704 181.9531 13.5329 Q182.4375 14.0954 183.1719 14.0954 Q183.9062 14.0954 184.3984 13.5329 Q184.8906 12.9704 184.8906 11.7829 Q184.8906 10.6423 184.3828 10.0642 Q183.875 9.4861 183.1562 9.4861 Q182.4531 9.4861 181.9609 10.0564 Q181.4688 10.6267 181.4688 11.7517 ZM187.7969 7.5954 L187.7969 6.3767 L188.8594 6.3767 L188.8594 7.5954 L187.7969 7.5954 ZM187.7969 14.9704 L187.7969 8.7517 L188.8594 8.7517 L188.8594 14.9704 L187.7969 14.9704 Z" style="clip-path:url(#clipPath14); stroke:none;" />
      <path d="M3.375 27.1111 L4.4062 26.9548 Q4.5 27.5798 4.8984 27.9079 Q5.2969 28.2361 6.0312 28.2361 Q6.75 28.2361 7.1016 27.947 Q7.4531 27.6579 7.4531 27.2517 Q7.4531 26.8923 7.1406 26.6892 Q6.9219 26.5486 6.0625 26.3298 Q4.9062 26.0329 4.4609 25.822 Q4.0156 25.6111 3.7812 25.2361 Q3.5469 24.8611 3.5469 24.3923 Q3.5469 23.9861 3.7344 23.6267 Q3.9219 23.2673 4.25 23.0329 Q4.5 22.8611 4.9219 22.7361 Q5.3438 22.6111 5.8438 22.6111 Q6.5625 22.6111 7.1172 22.822 Q7.6719 23.0329 7.9375 23.3923 Q8.2031 23.7517 8.2969 24.3454 L7.2656 24.4861 Q7.2031 24.0173 6.8672 23.7439 Q6.5312 23.4704 5.9062 23.4704 Q5.1875 23.4704 4.875 23.7126 Q4.5625 23.9548 4.5625 24.2829 Q4.5625 24.4861 4.6875 24.6423 Q4.8281 24.8142 5.0938 24.9236 Q5.25 24.9861 6.0312 25.1892 Q7.1562 25.5017 7.5938 25.6892 Q8.0312 25.8767 8.2812 26.2361 Q8.5312 26.5954 8.5312 27.1423 Q8.5312 27.6736 8.2266 28.1345 Q7.9219 28.5954 7.3438 28.8532 Q6.7656 29.1111 6.0312 29.1111 Q4.8125 29.1111 4.1797 28.6032 Q3.5469 28.0954 3.375 27.1111 ZM10.2344 28.9704 L10.2344 28.1111 L14.2031 23.5642 Q13.5156 23.5954 13 23.5954 L10.4688 23.5954 L10.4688 22.7517 L15.5625 22.7517 L15.5625 23.4392 L12.1875 27.3923 L11.5312 28.1111 Q12.25 28.0642 12.8594 28.0642 L15.75 28.0642 L15.75 28.9704 L10.2344 28.9704 ZM15.7969 21.5954 L15.7969 20.3767 L16.8594 20.3767 L16.8594 21.5954 L15.7969 21.5954 ZM15.7969 28.9704 L15.7969 22.7517 L16.8594 22.7517 L16.8594 28.9704 L15.7969 28.9704 ZM18.7969 28.9704 L18.7969 22.7517 L19.7344 22.7517 L19.7344 23.6267 Q20.0312 23.1579 20.5156 22.8845 Q21 22.6111 21.625 22.6111 Q22.3125 22.6111 22.7578 22.8923 Q23.2031 23.1736 23.375 23.6892 Q24.125 22.6111 25.2969 22.6111 Q26.2344 22.6111 26.7266 23.1189 Q27.2188 23.6267 27.2188 24.7048 L27.2188 28.9704 L26.1719 28.9704 L26.1719 25.0486 Q26.1719 24.4236 26.0703 24.1423 Q25.9688 23.8611 25.7031 23.6892 Q25.4375 23.5173 25.0625 23.5173 Q24.4062 23.5173 23.9766 23.9548 Q23.5469 24.3923 23.5469 25.3611 L23.5469 28.9704 L22.4844 28.9704 L22.4844 24.9236 Q22.4844 24.2204 22.2266 23.8689 Q21.9688 23.5173 21.3906 23.5173 Q20.9375 23.5173 20.5625 23.7517 Q20.1875 23.9861 20.0156 24.4392 Q19.8438 24.8923 19.8438 25.7361 L19.8438 28.9704 L18.7969 28.9704 ZM33.875 28.9704 L33.875 28.0486 Q33.1406 29.1111 31.8906 29.1111 Q31.3438 29.1111 30.8672 28.9001 Q30.3906 28.6892 30.1562 28.3689 Q29.9219 28.0486 29.8281 27.5798 Q29.7656 27.2829 29.7656 26.5954 L29.7656 22.7517 L30.8281 22.7517 L30.8281 26.2048 Q30.8281 27.0173 30.8906 27.3142 Q30.9844 27.7204 31.3047 27.9626 Q31.625 28.2048 32.1094 28.2048 Q32.5781 28.2048 32.9922 27.9626 Q33.4062 27.7204 33.5859 27.2986 Q33.7656 26.8767 33.7656 26.0798 L33.7656 22.7517 L34.8125 22.7517 L34.8125 28.9704 L33.875 28.9704 ZM36.7656 28.9704 L36.7656 20.3767 L37.8281 20.3767 L37.8281 28.9704 L36.7656 28.9704 ZM43.8594 28.2048 Q43.2656 28.7048 42.7266 28.9079 Q42.1875 29.1111 41.5625 29.1111 Q40.5312 29.1111 39.9844 28.6111 Q39.4375 28.1111 39.4375 27.3298 Q39.4375 26.8767 39.6406 26.4939 Q39.8438 26.1111 40.1875 25.8845 Q40.5312 25.6579 40.9531 25.5486 Q41.25 25.4548 41.8906 25.3767 Q43.1562 25.2361 43.7656 25.0173 Q43.7656 24.7986 43.7656 24.7517 Q43.7656 24.0954 43.4688 23.8298 Q43.0625 23.4861 42.2656 23.4861 Q41.5312 23.4861 41.1719 23.7439 Q40.8125 24.0017 40.6406 24.6579 L39.6094 24.5173 Q39.75 23.8611 40.0781 23.4548 Q40.4062 23.0486 41.0156 22.8298 Q41.625 22.6111 42.4219 22.6111 Q43.2188 22.6111 43.7188 22.7986 Q44.2188 22.9861 44.4531 23.2673 Q44.6875 23.5486 44.7812 23.9861 Q44.8281 24.2517 44.8281 24.9548 L44.8281 26.3611 Q44.8281 27.8298 44.8984 28.2204 Q44.9688 28.6111 45.1719 28.9704 L44.0625 28.9704 Q43.9062 28.6423 43.8594 28.2048 ZM43.7656 25.8454 Q43.1875 26.0798 42.0469 26.2517 Q41.3906 26.3454 41.125 26.4626 Q40.8594 26.5798 40.7109 26.7986 Q40.5625 27.0173 40.5625 27.2986 Q40.5625 27.7204 40.8828 28.0017 Q41.2031 28.2829 41.8125 28.2829 Q42.4219 28.2829 42.8984 28.0173 Q43.375 27.7517 43.5938 27.2829 Q43.7656 26.9236 43.7656 26.2361 L43.7656 25.8454 ZM41.125 20.9704 L41.9062 19.3298 L43.2969 19.3298 L42 20.9704 L41.125 20.9704 ZM50.8594 26.6892 L51.8906 26.8298 Q51.7188 27.8923 51.0156 28.5017 Q50.3125 29.1111 49.2969 29.1111 Q48.0156 29.1111 47.2422 28.2751 Q46.4688 27.4392 46.4688 25.8767 Q46.4688 24.8767 46.8047 24.1189 Q47.1406 23.3611 47.8203 22.9861 Q48.5 22.6111 49.3125 22.6111 Q50.3125 22.6111 50.9609 23.1189 Q51.6094 23.6267 51.7969 24.5798 L50.7656 24.7361 Q50.625 24.1111 50.25 23.7907 Q49.875 23.4704 49.3438 23.4704 Q48.5469 23.4704 48.0469 24.0407 Q47.5469 24.6111 47.5469 25.8454 Q47.5469 27.1111 48.0312 27.6736 Q48.5156 28.2361 49.2812 28.2361 Q49.9062 28.2361 50.3203 27.8611 Q50.7344 27.4861 50.8594 26.6892 ZM52.7969 21.5954 L52.7969 20.3767 L53.8594 20.3767 L53.8594 21.5954 L52.7969 21.5954 ZM52.7969 28.9704 L52.7969 22.7517 L53.8594 22.7517 L53.8594 28.9704 L52.7969 28.9704 ZM55.4062 25.8611 Q55.4062 24.1267 56.3594 23.2986 Q57.1562 22.6111 58.3125 22.6111 Q59.5938 22.6111 60.4141 23.447 Q61.2344 24.2829 61.2344 25.7673 Q61.2344 26.9704 60.875 27.6579 Q60.5156 28.3454 59.8203 28.7282 Q59.125 29.1111 58.3125 29.1111 Q57.0156 29.1111 56.2109 28.2751 Q55.4062 27.4392 55.4062 25.8611 ZM56.4844 25.8611 Q56.4844 27.0486 57.0078 27.6423 Q57.5312 28.2361 58.3125 28.2361 Q59.1094 28.2361 59.625 27.6423 Q60.1406 27.0486 60.1406 25.8298 Q60.1406 24.6736 59.6172 24.0798 Q59.0938 23.4861 58.3125 23.4861 Q57.5312 23.4861 57.0078 24.072 Q56.4844 24.6579 56.4844 25.8611 ZM57.125 20.9704 L57.9062 19.3298 L59.2969 19.3298 L58 20.9704 L57.125 20.9704 ZM65.0938 28.0329 L65.25 28.9548 Q64.7969 29.0486 64.4531 29.0486 Q63.875 29.0486 63.5625 28.8689 Q63.25 28.6892 63.1172 28.3923 Q62.9844 28.0954 62.9844 27.1423 L62.9844 23.5642 L62.2188 23.5642 L62.2188 22.7517 L62.9844 22.7517 L62.9844 21.2048 L64.0312 20.5798 L64.0312 22.7517 L65.0938 22.7517 L65.0938 23.5642 L64.0312 23.5642 L64.0312 27.2048 Q64.0312 27.6579 64.0859 27.7829 Q64.1406 27.9079 64.2656 27.9861 Q64.3906 28.0642 64.625 28.0642 Q64.8125 28.0642 65.0938 28.0329 ZM68.7656 28.9704 L68.7656 20.3767 L69.8281 20.3767 L69.8281 28.9704 L68.7656 28.9704 ZM76.0469 26.9704 L77.1406 27.0954 Q76.8906 28.0486 76.1875 28.5798 Q75.4844 29.1111 74.4062 29.1111 Q73.0469 29.1111 72.2422 28.2673 Q71.4375 27.4236 71.4375 25.9079 Q71.4375 24.3454 72.25 23.4782 Q73.0625 22.6111 74.3438 22.6111 Q75.5938 22.6111 76.3828 23.4548 Q77.1719 24.2986 77.1719 25.8454 Q77.1719 25.9392 77.1719 26.1267 L72.5312 26.1267 Q72.5938 27.1579 73.1094 27.697 Q73.625 28.2361 74.4062 28.2361 Q74.9844 28.2361 75.3984 27.9314 Q75.8125 27.6267 76.0469 26.9704 ZM72.5938 25.2673 L76.0625 25.2673 Q76 24.4704 75.6719 24.0798 Q75.1562 23.4704 74.3594 23.4704 Q73.625 23.4704 73.1328 23.9548 Q72.6406 24.4392 72.5938 25.2673 ZM82.8594 28.2048 Q82.2656 28.7048 81.7266 28.9079 Q81.1875 29.1111 80.5625 29.1111 Q79.5312 29.1111 78.9844 28.6111 Q78.4375 28.1111 78.4375 27.3298 Q78.4375 26.8767 78.6406 26.4939 Q78.8438 26.1111 79.1875 25.8845 Q79.5312 25.6579 79.9531 25.5486 Q80.25 25.4548 80.8906 25.3767 Q82.1562 25.2361 82.7656 25.0173 Q82.7656 24.7986 82.7656 24.7517 Q82.7656 24.0954 82.4688 23.8298 Q82.0625 23.4861 81.2656 23.4861 Q80.5312 23.4861 80.1719 23.7439 Q79.8125 24.0017 79.6406 24.6579 L78.6094 24.5173 Q78.75 23.8611 79.0781 23.4548 Q79.4062 23.0486 80.0156 22.8298 Q80.625 22.6111 81.4219 22.6111 Q82.2188 22.6111 82.7188 22.7986 Q83.2188 22.9861 83.4531 23.2673 Q83.6875 23.5486 83.7812 23.9861 Q83.8281 24.2517 83.8281 24.9548 L83.8281 26.3611 Q83.8281 27.8298 83.8984 28.2204 Q83.9688 28.6111 84.1719 28.9704 L83.0625 28.9704 Q82.9062 28.6423 82.8594 28.2048 ZM82.7656 25.8454 Q82.1875 26.0798 81.0469 26.2517 Q80.3906 26.3454 80.125 26.4626 Q79.8594 26.5798 79.7109 26.7986 Q79.5625 27.0173 79.5625 27.2986 Q79.5625 27.7204 79.8828 28.0017 Q80.2031 28.2829 80.8125 28.2829 Q81.4219 28.2829 81.8984 28.0173 Q82.375 27.7517 82.5938 27.2829 Q82.7656 26.9236 82.7656 26.2361 L82.7656 25.8454 ZM80.125 20.9704 L80.9062 19.3298 L82.2969 19.3298 L81 20.9704 L80.125 20.9704 ZM85.7656 28.9704 L85.7656 20.3767 L86.8281 20.3767 L86.8281 28.9704 L85.7656 28.9704 ZM88.7656 28.9704 L88.7656 20.3767 L89.8281 20.3767 L89.8281 28.9704 L88.7656 28.9704 ZM92.1562 28.9704 L92.1562 22.7517 L93.2188 22.7517 L93.2188 28.9704 L92.1562 28.9704 ZM92.125 20.9704 L92.9062 19.3298 L94.2969 19.3298 L93 20.9704 L92.125 20.9704 ZM97.0938 28.0329 L97.25 28.9548 Q96.7969 29.0486 96.4531 29.0486 Q95.875 29.0486 95.5625 28.8689 Q95.25 28.6892 95.1172 28.3923 Q94.9844 28.0954 94.9844 27.1423 L94.9844 23.5642 L94.2188 23.5642 L94.2188 22.7517 L94.9844 22.7517 L94.9844 21.2048 L96.0312 20.5798 L96.0312 22.7517 L97.0938 22.7517 L97.0938 23.5642 L96.0312 23.5642 L96.0312 27.2048 Q96.0312 27.6579 96.0859 27.7829 Q96.1406 27.9079 96.2656 27.9861 Q96.3906 28.0642 96.625 28.0642 Q96.8125 28.0642 97.0938 28.0329 ZM97.7812 21.6111 L97.7812 20.3767 L98.8438 20.3767 L98.8438 21.6111 L97.7812 21.6111 ZM96.4531 31.3923 L96.6406 30.4861 Q96.9688 30.5642 97.1406 30.5642 Q97.4688 30.5642 97.625 30.3532 Q97.7812 30.1423 97.7812 29.2829 L97.7812 22.7517 L98.8438 22.7517 L98.8438 29.3142 Q98.8438 30.4548 98.5469 30.9079 Q98.1562 31.5017 97.2812 31.5017 Q96.8438 31.5017 96.4531 31.3923 ZM104.875 28.9704 L104.875 28.0486 Q104.1406 29.1111 102.8906 29.1111 Q102.3438 29.1111 101.8672 28.9001 Q101.3906 28.6892 101.1562 28.3689 Q100.9219 28.0486 100.8281 27.5798 Q100.7656 27.2829 100.7656 26.5954 L100.7656 22.7517 L101.8281 22.7517 L101.8281 26.2048 Q101.8281 27.0173 101.8906 27.3142 Q101.9844 27.7204 102.3047 27.9626 Q102.625 28.2048 103.1094 28.2048 Q103.5781 28.2048 103.9922 27.9626 Q104.4062 27.7204 104.5859 27.2986 Q104.7656 26.8767 104.7656 26.0798 L104.7656 22.7517 L105.8125 22.7517 L105.8125 28.9704 L104.875 28.9704 ZM107.7969 28.9704 L107.7969 20.3767 L108.8594 20.3767 L108.8594 25.2829 L111.3438 22.7517 L112.7188 22.7517 L110.3281 25.0486 L112.9531 28.9704 L111.6562 28.9704 L109.5938 25.7829 L108.8594 26.5017 L108.8594 28.9704 L107.7969 28.9704 ZM114.0625 28.9704 L114.0625 27.7673 L115.2656 27.7673 L115.2656 28.9704 Q115.2656 29.6267 115.0312 30.0407 Q114.7969 30.4548 114.2969 30.6736 L114 30.2204 Q114.3281 30.0798 114.4844 29.7907 Q114.6406 29.5017 114.6719 28.9704 L114.0625 28.9704 ZM119.7969 28.9704 L119.7969 20.3767 L120.8438 20.3767 L120.8438 23.4548 Q121.5781 22.6111 122.7031 22.6111 Q123.4062 22.6111 123.9141 22.8845 Q124.4219 23.1579 124.6406 23.6345 Q124.8594 24.1111 124.8594 25.0329 L124.8594 28.9704 L123.8125 28.9704 L123.8125 25.0329 Q123.8125 24.2361 123.4688 23.8767 Q123.125 23.5173 122.5 23.5173 Q122.0312 23.5173 121.6172 23.7595 Q121.2031 24.0017 121.0234 24.4157 Q120.8438 24.8298 120.8438 25.5642 L120.8438 28.9704 L119.7969 28.9704 ZM130.8594 28.2048 Q130.2656 28.7048 129.7266 28.9079 Q129.1875 29.1111 128.5625 29.1111 Q127.5312 29.1111 126.9844 28.6111 Q126.4375 28.1111 126.4375 27.3298 Q126.4375 26.8767 126.6406 26.4939 Q126.8438 26.1111 127.1875 25.8845 Q127.5312 25.6579 127.9531 25.5486 Q128.25 25.4548 128.8906 25.3767 Q130.1562 25.2361 130.7656 25.0173 Q130.7656 24.7986 130.7656 24.7517 Q130.7656 24.0954 130.4688 23.8298 Q130.0625 23.4861 129.2656 23.4861 Q128.5312 23.4861 128.1719 23.7439 Q127.8125 24.0017 127.6406 24.6579 L126.6094 24.5173 Q126.75 23.8611 127.0781 23.4548 Q127.4062 23.0486 128.0156 22.8298 Q128.625 22.6111 129.4219 22.6111 Q130.2188 22.6111 130.7188 22.7986 Q131.2188 22.9861 131.4531 23.2673 Q131.6875 23.5486 131.7812 23.9861 Q131.8281 24.2517 131.8281 24.9548 L131.8281 26.3611 Q131.8281 27.8298 131.8984 28.2204 Q131.9688 28.6111 132.1719 28.9704 L131.0625 28.9704 Q130.9062 28.6423 130.8594 28.2048 ZM130.7656 25.8454 Q130.1875 26.0798 129.0469 26.2517 Q128.3906 26.3454 128.125 26.4626 Q127.8594 26.5798 127.7109 26.7986 Q127.5625 27.0173 127.5625 27.2986 Q127.5625 27.7204 127.8828 28.0017 Q128.2031 28.2829 128.8125 28.2829 Q129.4219 28.2829 129.8984 28.0173 Q130.375 27.7517 130.5938 27.2829 Q130.7656 26.9236 130.7656 26.2361 L130.7656 25.8454 ZM138.5156 28.9704 L136.1562 22.7517 L137.2656 22.7517 L138.6094 26.4704 Q138.8125 27.0798 139 27.7204 Q139.1406 27.2361 139.3906 26.5486 L140.7812 22.7517 L141.8594 22.7517 L139.5 28.9704 L138.5156 28.9704 ZM145.8594 28.2048 Q145.2656 28.7048 144.7266 28.9079 Q144.1875 29.1111 143.5625 29.1111 Q142.5312 29.1111 141.9844 28.6111 Q141.4375 28.1111 141.4375 27.3298 Q141.4375 26.8767 141.6406 26.4939 Q141.8438 26.1111 142.1875 25.8845 Q142.5312 25.6579 142.9531 25.5486 Q143.25 25.4548 143.8906 25.3767 Q145.1562 25.2361 145.7656 25.0173 Q145.7656 24.7986 145.7656 24.7517 Q145.7656 24.0954 145.4688 23.8298 Q145.0625 23.4861 144.2656 23.4861 Q143.5312 23.4861 143.1719 23.7439 Q142.8125 24.0017 142.6406 24.6579 L141.6094 24.5173 Q141.75 23.8611 142.0781 23.4548 Q142.4062 23.0486 143.0156 22.8298 Q143.625 22.6111 144.4219 22.6111 Q145.2188 22.6111 145.7188 22.7986 Q146.2188 22.9861 146.4531 23.2673 Q146.6875 23.5486 146.7812 23.9861 Q146.8281 24.2517 146.8281 24.9548 L146.8281 26.3611 Q146.8281 27.8298 146.8984 28.2204 Q146.9688 28.6111 147.1719 28.9704 L146.0625 28.9704 Q145.9062 28.6423 145.8594 28.2048 ZM145.7656 25.8454 Q145.1875 26.0798 144.0469 26.2517 Q143.3906 26.3454 143.125 26.4626 Q142.8594 26.5798 142.7109 26.7986 Q142.5625 27.0173 142.5625 27.2986 Q142.5625 27.7204 142.8828 28.0017 Q143.2031 28.2829 143.8125 28.2829 Q144.4219 28.2829 144.8984 28.0173 Q145.375 27.7517 145.5938 27.2829 Q145.7656 26.9236 145.7656 26.2361 L145.7656 25.8454 ZM148.7969 28.9704 L148.7969 22.7517 L149.7344 22.7517 L149.7344 23.6267 Q150.4219 22.6111 151.7188 22.6111 Q152.2812 22.6111 152.7578 22.8142 Q153.2344 23.0173 153.4688 23.3454 Q153.7031 23.6736 153.7969 24.1111 Q153.8438 24.4079 153.8438 25.1423 L153.8438 28.9704 L152.7969 28.9704 L152.7969 25.1892 Q152.7969 24.5329 152.6719 24.2204 Q152.5469 23.9079 152.2344 23.7126 Q151.9219 23.5173 151.5 23.5173 Q150.8281 23.5173 150.3359 23.947 Q149.8438 24.3767 149.8438 25.5642 L149.8438 28.9704 L148.7969 28.9704 ZM158.7969 21.5954 L158.7969 20.3767 L159.8594 20.3767 L159.8594 21.5954 L158.7969 21.5954 ZM158.7969 28.9704 L158.7969 22.7517 L159.8594 22.7517 L159.8594 28.9704 L158.7969 28.9704 ZM161.7656 28.9704 L161.7656 20.3767 L162.8281 20.3767 L162.8281 28.9704 L161.7656 28.9704 ZM164.75 31.3611 L164.625 30.3767 Q164.9688 30.4704 165.2344 30.4704 Q165.5781 30.4704 165.7891 30.3532 Q166 30.2361 166.1406 30.0329 Q166.2344 29.8611 166.4688 29.2361 Q166.4844 29.1579 166.5625 28.9861 L164.1875 22.7517 L165.3281 22.7517 L166.625 26.3454 Q166.875 27.0329 167.0781 27.7986 Q167.2656 27.0642 167.5156 26.3767 L168.8438 22.7517 L169.8906 22.7517 L167.5312 29.0798 Q167.1406 30.0954 166.9375 30.4861 Q166.6562 31.0173 166.2891 31.2595 Q165.9219 31.5017 165.4219 31.5017 Q165.125 31.5017 164.75 31.3611 ZM174.0469 26.9704 L175.1406 27.0954 Q174.8906 28.0486 174.1875 28.5798 Q173.4844 29.1111 172.4062 29.1111 Q171.0469 29.1111 170.2422 28.2673 Q169.4375 27.4236 169.4375 25.9079 Q169.4375 24.3454 170.25 23.4782 Q171.0625 22.6111 172.3438 22.6111 Q173.5938 22.6111 174.3828 23.4548 Q175.1719 24.2986 175.1719 25.8454 Q175.1719 25.9392 175.1719 26.1267 L170.5312 26.1267 Q170.5938 27.1579 171.1094 27.697 Q171.625 28.2361 172.4062 28.2361 Q172.9844 28.2361 173.3984 27.9314 Q173.8125 27.6267 174.0469 26.9704 ZM170.5938 25.2673 L174.0625 25.2673 Q174 24.4704 173.6719 24.0798 Q173.1562 23.4704 172.3594 23.4704 Q171.625 23.4704 171.1328 23.9548 Q170.6406 24.4392 170.5938 25.2673 ZM176.7969 28.9704 L176.7969 22.7517 L177.7344 22.7517 L177.7344 23.6267 Q178.4219 22.6111 179.7188 22.6111 Q180.2812 22.6111 180.7578 22.8142 Q181.2344 23.0173 181.4688 23.3454 Q181.7031 23.6736 181.7969 24.1111 Q181.8438 24.4079 181.8438 25.1423 L181.8438 28.9704 L180.7969 28.9704 L180.7969 25.1892 Q180.7969 24.5329 180.6719 24.2204 Q180.5469 23.9079 180.2344 23.7126 Q179.9219 23.5173 179.5 23.5173 Q178.8281 23.5173 178.3359 23.947 Q177.8438 24.3767 177.8438 25.5642 L177.8438 28.9704 L176.7969 28.9704 ZM191.0469 26.9704 L192.1406 27.0954 Q191.8906 28.0486 191.1875 28.5798 Q190.4844 29.1111 189.4062 29.1111 Q188.0469 29.1111 187.2422 28.2673 Q186.4375 27.4236 186.4375 25.9079 Q186.4375 24.3454 187.25 23.4782 Q188.0625 22.6111 189.3438 22.6111 Q190.5938 22.6111 191.3828 23.4548 Q192.1719 24.2986 192.1719 25.8454 Q192.1719 25.9392 192.1719 26.1267 L187.5312 26.1267 Q187.5938 27.1579 188.1094 27.697 Q188.625 28.2361 189.4062 28.2361 Q189.9844 28.2361 190.3984 27.9314 Q190.8125 27.6267 191.0469 26.9704 ZM187.5938 25.2673 L191.0625 25.2673 Q191 24.4704 190.6719 24.0798 Q190.1562 23.4704 189.3594 23.4704 Q188.625 23.4704 188.1328 23.9548 Q187.6406 24.4392 187.5938 25.2673 ZM188.125 20.9704 L188.9062 19.3298 L190.2969 19.3298 L189 20.9704 L188.125 20.9704 ZM193.375 27.1111 L194.4062 26.9548 Q194.5 27.5798 194.8984 27.9079 Q195.2969 28.2361 196.0312 28.2361 Q196.75 28.2361 197.1016 27.947 Q197.4531 27.6579 197.4531 27.2517 Q197.4531 26.8923 197.1406 26.6892 Q196.9219 26.5486 196.0625 26.3298 Q194.9062 26.0329 194.4609 25.822 Q194.0156 25.6111 193.7812 25.2361 Q193.5469 24.8611 193.5469 24.3923 Q193.5469 23.9861 193.7344 23.6267 Q193.9219 23.2673 194.25 23.0329 Q194.5 22.8611 194.9219 22.7361 Q195.3438 22.6111 195.8438 22.6111 Q196.5625 22.6111 197.1172 22.822 Q197.6719 23.0329 197.9375 23.3923 Q198.2031 23.7517 198.2969 24.3454 L197.2656 24.4861 Q197.2031 24.0173 196.8672 23.7439 Q196.5312 23.4704 195.9062 23.4704 Q195.1875 23.4704 194.875 23.7126 Q194.5625 23.9548 194.5625 24.2829 Q194.5625 24.4861 194.6875 24.6423 Q194.8281 24.8142 195.0938 24.9236 Q195.25 24.9861 196.0312 25.1892 Q197.1562 25.5017 197.5938 25.6892 Q198.0312 25.8767 198.2812 26.2361 Q198.5312 26.5954 198.5312 27.1423 Q198.5312 27.6736 198.2266 28.1345 Q197.9219 28.5954 197.3438 28.8532 Q196.7656 29.1111 196.0312 29.1111 Q194.8125 29.1111 194.1797 28.6032 Q193.5469 28.0954 193.375 27.1111 Z" style="clip-path:url(#clipPath14); stroke:none;" />
      <path d="M3.7656 42.9704 L3.7656 34.3767 L4.8281 34.3767 L4.8281 42.9704 L3.7656 42.9704 ZM11.0469 40.9704 L12.1406 41.0954 Q11.8906 42.0486 11.1875 42.5798 Q10.4844 43.1111 9.4062 43.1111 Q8.0469 43.1111 7.2422 42.2673 Q6.4375 41.4236 6.4375 39.9079 Q6.4375 38.3454 7.25 37.4782 Q8.0625 36.6111 9.3438 36.6111 Q10.5938 36.6111 11.3828 37.4548 Q12.1719 38.2986 12.1719 39.8454 Q12.1719 39.9392 12.1719 40.1267 L7.5312 40.1267 Q7.5938 41.1579 8.1094 41.697 Q8.625 42.2361 9.4062 42.2361 Q9.9844 42.2361 10.3984 41.9314 Q10.8125 41.6267 11.0469 40.9704 ZM7.5938 39.2673 L11.0625 39.2673 Q11 38.4704 10.6719 38.0798 Q10.1562 37.4704 9.3594 37.4704 Q8.625 37.4704 8.1328 37.9548 Q7.6406 38.4392 7.5938 39.2673 ZM8.125 34.9704 L8.9062 33.3298 L10.2969 33.3298 L9 34.9704 L8.125 34.9704 ZM16.0938 42.0329 L16.25 42.9548 Q15.7969 43.0486 15.4531 43.0486 Q14.875 43.0486 14.5625 42.8689 Q14.25 42.6892 14.1172 42.3923 Q13.9844 42.0954 13.9844 41.1423 L13.9844 37.5642 L13.2188 37.5642 L13.2188 36.7517 L13.9844 36.7517 L13.9844 35.2048 L15.0312 34.5798 L15.0312 36.7517 L16.0938 36.7517 L16.0938 37.5642 L15.0312 37.5642 L15.0312 41.2048 Q15.0312 41.6579 15.0859 41.7829 Q15.1406 41.9079 15.2656 41.9861 Q15.3906 42.0642 15.625 42.0642 Q15.8125 42.0642 16.0938 42.0329 ZM16.7812 42.9704 L16.7812 36.7517 L17.7344 36.7517 L17.7344 37.6892 Q18.0938 37.0329 18.3984 36.822 Q18.7031 36.6111 19.0781 36.6111 Q19.6094 36.6111 20.1562 36.9392 L19.7969 37.9236 Q19.4062 37.6892 19.0312 37.6892 Q18.6719 37.6892 18.3984 37.9001 Q18.125 38.1111 18.0156 38.4861 Q17.8281 39.0486 17.8281 39.7048 L17.8281 42.9704 L16.7812 42.9704 ZM25.0469 40.9704 L26.1406 41.0954 Q25.8906 42.0486 25.1875 42.5798 Q24.4844 43.1111 23.4062 43.1111 Q22.0469 43.1111 21.2422 42.2673 Q20.4375 41.4236 20.4375 39.9079 Q20.4375 38.3454 21.25 37.4782 Q22.0625 36.6111 23.3438 36.6111 Q24.5938 36.6111 25.3828 37.4548 Q26.1719 38.2986 26.1719 39.8454 Q26.1719 39.9392 26.1719 40.1267 L21.5312 40.1267 Q21.5938 41.1579 22.1094 41.697 Q22.625 42.2361 23.4062 42.2361 Q23.9844 42.2361 24.3984 41.9314 Q24.8125 41.6267 25.0469 40.9704 ZM21.5938 39.2673 L25.0625 39.2673 Q25 38.4704 24.6719 38.0798 Q24.1562 37.4704 23.3594 37.4704 Q22.625 37.4704 22.1328 37.9548 Q21.6406 38.4392 21.5938 39.2673 ZM27.7969 42.9704 L27.7969 34.3767 L28.8438 34.3767 L28.8438 37.4548 Q29.5781 36.6111 30.7031 36.6111 Q31.4062 36.6111 31.9141 36.8845 Q32.4219 37.1579 32.6406 37.6345 Q32.8594 38.1111 32.8594 39.0329 L32.8594 42.9704 L31.8125 42.9704 L31.8125 39.0329 Q31.8125 38.2361 31.4688 37.8767 Q31.125 37.5173 30.5 37.5173 Q30.0312 37.5173 29.6172 37.7595 Q29.2031 38.0017 29.0234 38.4157 Q28.8438 38.8298 28.8438 39.5642 L28.8438 42.9704 L27.7969 42.9704 ZM34.4062 39.8611 Q34.4062 38.1267 35.3594 37.2986 Q36.1562 36.6111 37.3125 36.6111 Q38.5938 36.6111 39.4141 37.447 Q40.2344 38.2829 40.2344 39.7673 Q40.2344 40.9704 39.875 41.6579 Q39.5156 42.3454 38.8203 42.7282 Q38.125 43.1111 37.3125 43.1111 Q36.0156 43.1111 35.2109 42.2751 Q34.4062 41.4392 34.4062 39.8611 ZM35.4844 39.8611 Q35.4844 41.0486 36.0078 41.6423 Q36.5312 42.2361 37.3125 42.2361 Q38.1094 42.2361 38.625 41.6423 Q39.1406 41.0486 39.1406 39.8298 Q39.1406 38.6736 38.6172 38.0798 Q38.0938 37.4861 37.3125 37.4861 Q36.5312 37.4861 36.0078 38.072 Q35.4844 38.6579 35.4844 39.8611 ZM41.2344 42.9704 L41.2344 42.1111 L45.2031 37.5642 Q44.5156 37.5954 44 37.5954 L41.4688 37.5954 L41.4688 36.7517 L46.5625 36.7517 L46.5625 37.4392 L43.1875 41.3923 L42.5312 42.1111 Q43.25 42.0642 43.8594 42.0642 L46.75 42.0642 L46.75 42.9704 L41.2344 42.9704 ZM50.875 42.9704 L50.875 42.0486 Q50.1406 43.1111 48.8906 43.1111 Q48.3438 43.1111 47.8672 42.9001 Q47.3906 42.6892 47.1562 42.3689 Q46.9219 42.0486 46.8281 41.5798 Q46.7656 41.2829 46.7656 40.5954 L46.7656 36.7517 L47.8281 36.7517 L47.8281 40.2048 Q47.8281 41.0173 47.8906 41.3142 Q47.9844 41.7204 48.3047 41.9626 Q48.625 42.2048 49.1094 42.2048 Q49.5781 42.2048 49.9922 41.9626 Q50.4062 41.7204 50.5859 41.2986 Q50.7656 40.8767 50.7656 40.0798 L50.7656 36.7517 L51.8125 36.7517 L51.8125 42.9704 L50.875 42.9704 ZM53.7969 42.9704 L53.7969 36.7517 L54.7344 36.7517 L54.7344 37.6267 Q55.4219 36.6111 56.7188 36.6111 Q57.2812 36.6111 57.7578 36.8142 Q58.2344 37.0173 58.4688 37.3454 Q58.7031 37.6736 58.7969 38.1111 Q58.8438 38.4079 58.8438 39.1423 L58.8438 42.9704 L57.7969 42.9704 L57.7969 39.1892 Q57.7969 38.5329 57.6719 38.2204 Q57.5469 37.9079 57.2344 37.7126 Q56.9219 37.5173 56.5 37.5173 Q55.8281 37.5173 55.3359 37.947 Q54.8438 38.3767 54.8438 39.5642 L54.8438 42.9704 L53.7969 42.9704 ZM60.7969 42.9704 L60.7969 34.3767 L61.8594 34.3767 L61.8594 39.2829 L64.3438 36.7517 L65.7188 36.7517 L63.3281 39.0486 L65.9531 42.9704 L64.6562 42.9704 L62.5938 39.7829 L61.8594 40.5017 L61.8594 42.9704 L60.7969 42.9704 ZM74.0469 40.9704 L75.1406 41.0954 Q74.8906 42.0486 74.1875 42.5798 Q73.4844 43.1111 72.4062 43.1111 Q71.0469 43.1111 70.2422 42.2673 Q69.4375 41.4236 69.4375 39.9079 Q69.4375 38.3454 70.25 37.4782 Q71.0625 36.6111 72.3438 36.6111 Q73.5938 36.6111 74.3828 37.4548 Q75.1719 38.2986 75.1719 39.8454 Q75.1719 39.9392 75.1719 40.1267 L70.5312 40.1267 Q70.5938 41.1579 71.1094 41.697 Q71.625 42.2361 72.4062 42.2361 Q72.9844 42.2361 73.3984 41.9314 Q73.8125 41.6267 74.0469 40.9704 ZM70.5938 39.2673 L74.0625 39.2673 Q74 38.4704 73.6719 38.0798 Q73.1562 37.4704 72.3594 37.4704 Q71.625 37.4704 71.1328 37.9548 Q70.6406 38.4392 70.5938 39.2673 ZM76.5938 43.4861 L77.625 43.6423 Q77.6875 44.1111 77.9844 44.3298 Q78.375 44.6267 79.0469 44.6267 Q79.7812 44.6267 80.1797 44.3298 Q80.5781 44.0329 80.7188 43.5173 Q80.8125 43.1892 80.7969 42.1579 Q80.1094 42.9704 79.0781 42.9704 Q77.7969 42.9704 77.0938 42.0407 Q76.3906 41.1111 76.3906 39.8298 Q76.3906 38.9392 76.7109 38.1814 Q77.0312 37.4236 77.6406 37.0173 Q78.25 36.6111 79.0781 36.6111 Q80.1875 36.6111 80.9062 37.5017 L80.9062 36.7517 L81.875 36.7517 L81.875 42.1267 Q81.875 43.5798 81.5781 44.1892 Q81.2812 44.7986 80.6406 45.1501 Q80 45.5017 79.0625 45.5017 Q77.9531 45.5017 77.2656 45.0017 Q76.5781 44.5017 76.5938 43.4861 ZM77.4688 39.7517 Q77.4688 40.9704 77.9531 41.5329 Q78.4375 42.0954 79.1719 42.0954 Q79.9062 42.0954 80.3984 41.5329 Q80.8906 40.9704 80.8906 39.7829 Q80.8906 38.6423 80.3828 38.0642 Q79.875 37.4861 79.1562 37.4861 Q78.4531 37.4861 77.9609 38.0564 Q77.4688 38.6267 77.4688 39.7517 ZM83.75 45.3611 L83.625 44.3767 Q83.9688 44.4704 84.2344 44.4704 Q84.5781 44.4704 84.7891 44.3532 Q85 44.2361 85.1406 44.0329 Q85.2344 43.8611 85.4688 43.2361 Q85.4844 43.1579 85.5625 42.9861 L83.1875 36.7517 L84.3281 36.7517 L85.625 40.3454 Q85.875 41.0329 86.0781 41.7986 Q86.2656 41.0642 86.5156 40.3767 L87.8438 36.7517 L88.8906 36.7517 L86.5312 43.0798 Q86.1406 44.0954 85.9375 44.4861 Q85.6562 45.0173 85.2891 45.2595 Q84.9219 45.5017 84.4219 45.5017 Q84.125 45.5017 83.75 45.3611 ZM95.875 42.9704 L95.875 42.0486 Q95.1406 43.1111 93.8906 43.1111 Q93.3438 43.1111 92.8672 42.9001 Q92.3906 42.6892 92.1562 42.3689 Q91.9219 42.0486 91.8281 41.5798 Q91.7656 41.2829 91.7656 40.5954 L91.7656 36.7517 L92.8281 36.7517 L92.8281 40.2048 Q92.8281 41.0173 92.8906 41.3142 Q92.9844 41.7204 93.3047 41.9626 Q93.625 42.2048 94.1094 42.2048 Q94.5781 42.2048 94.9922 41.9626 Q95.4062 41.7204 95.5859 41.2986 Q95.7656 40.8767 95.7656 40.0798 L95.7656 36.7517 L96.8125 36.7517 L96.8125 42.9704 L95.875 42.9704 ZM93.125 34.9704 L93.9062 33.3298 L95.2969 33.3298 L94 34.9704 L93.125 34.9704 ZM98.7812 35.6111 L98.7812 34.3767 L99.8438 34.3767 L99.8438 35.6111 L98.7812 35.6111 ZM97.4531 45.3923 L97.6406 44.4861 Q97.9688 44.5642 98.1406 44.5642 Q98.4688 44.5642 98.625 44.3532 Q98.7812 44.1423 98.7812 43.2829 L98.7812 36.7517 L99.8438 36.7517 L99.8438 43.3142 Q99.8438 44.4548 99.5469 44.9079 Q99.1562 45.5017 98.2812 45.5017 Q97.8438 45.5017 97.4531 45.3923 ZM108.8594 42.2048 Q108.2656 42.7048 107.7266 42.9079 Q107.1875 43.1111 106.5625 43.1111 Q105.5312 43.1111 104.9844 42.6111 Q104.4375 42.1111 104.4375 41.3298 Q104.4375 40.8767 104.6406 40.4939 Q104.8438 40.1111 105.1875 39.8845 Q105.5312 39.6579 105.9531 39.5486 Q106.25 39.4548 106.8906 39.3767 Q108.1562 39.2361 108.7656 39.0173 Q108.7656 38.7986 108.7656 38.7517 Q108.7656 38.0954 108.4688 37.8298 Q108.0625 37.4861 107.2656 37.4861 Q106.5312 37.4861 106.1719 37.7439 Q105.8125 38.0017 105.6406 38.6579 L104.6094 38.5173 Q104.75 37.8611 105.0781 37.4548 Q105.4062 37.0486 106.0156 36.8298 Q106.625 36.6111 107.4219 36.6111 Q108.2188 36.6111 108.7188 36.7986 Q109.2188 36.9861 109.4531 37.2673 Q109.6875 37.5486 109.7812 37.9861 Q109.8281 38.2517 109.8281 38.9548 L109.8281 40.3611 Q109.8281 41.8298 109.8984 42.2204 Q109.9688 42.6111 110.1719 42.9704 L109.0625 42.9704 Q108.9062 42.6423 108.8594 42.2048 ZM108.7656 39.8454 Q108.1875 40.0798 107.0469 40.2517 Q106.3906 40.3454 106.125 40.4626 Q105.8594 40.5798 105.7109 40.7986 Q105.5625 41.0173 105.5625 41.2986 Q105.5625 41.7204 105.8828 42.0017 Q106.2031 42.2829 106.8125 42.2829 Q107.4219 42.2829 107.8984 42.0173 Q108.375 41.7517 108.5938 41.2829 Q108.7656 40.9236 108.7656 40.2361 L108.7656 39.8454 ZM106.125 34.9704 L106.9062 33.3298 L108.2969 33.3298 L107 34.9704 L106.125 34.9704 ZM111.7812 42.9704 L111.7812 36.7517 L112.7344 36.7517 L112.7344 37.6892 Q113.0938 37.0329 113.3984 36.822 Q113.7031 36.6111 114.0781 36.6111 Q114.6094 36.6111 115.1562 36.9392 L114.7969 37.9236 Q114.4062 37.6892 114.0312 37.6892 Q113.6719 37.6892 113.3984 37.9001 Q113.125 38.1111 113.0156 38.4861 Q112.8281 39.0486 112.8281 39.7048 L112.8281 42.9704 L111.7812 42.9704 ZM119.8594 42.2048 Q119.2656 42.7048 118.7266 42.9079 Q118.1875 43.1111 117.5625 43.1111 Q116.5312 43.1111 115.9844 42.6111 Q115.4375 42.1111 115.4375 41.3298 Q115.4375 40.8767 115.6406 40.4939 Q115.8438 40.1111 116.1875 39.8845 Q116.5312 39.6579 116.9531 39.5486 Q117.25 39.4548 117.8906 39.3767 Q119.1562 39.2361 119.7656 39.0173 Q119.7656 38.7986 119.7656 38.7517 Q119.7656 38.0954 119.4688 37.8298 Q119.0625 37.4861 118.2656 37.4861 Q117.5312 37.4861 117.1719 37.7439 Q116.8125 38.0017 116.6406 38.6579 L115.6094 38.5173 Q115.75 37.8611 116.0781 37.4548 Q116.4062 37.0486 117.0156 36.8298 Q117.625 36.6111 118.4219 36.6111 Q119.2188 36.6111 119.7188 36.7986 Q120.2188 36.9861 120.4531 37.2673 Q120.6875 37.5486 120.7812 37.9861 Q120.8281 38.2517 120.8281 38.9548 L120.8281 40.3611 Q120.8281 41.8298 120.8984 42.2204 Q120.9688 42.6111 121.1719 42.9704 L120.0625 42.9704 Q119.9062 42.6423 119.8594 42.2048 ZM119.7656 39.8454 Q119.1875 40.0798 118.0469 40.2517 Q117.3906 40.3454 117.125 40.4626 Q116.8594 40.5798 116.7109 40.7986 Q116.5625 41.0173 116.5625 41.2986 Q116.5625 41.7204 116.8828 42.0017 Q117.2031 42.2829 117.8125 42.2829 Q118.4219 42.2829 118.8984 42.0173 Q119.375 41.7517 119.5938 41.2829 Q119.7656 40.9236 119.7656 40.2361 L119.7656 39.8454 ZM122.7969 42.9704 L122.7969 36.7517 L123.7344 36.7517 L123.7344 37.6267 Q124.0312 37.1579 124.5156 36.8845 Q125 36.6111 125.625 36.6111 Q126.3125 36.6111 126.7578 36.8923 Q127.2031 37.1736 127.375 37.6892 Q128.125 36.6111 129.2969 36.6111 Q130.2344 36.6111 130.7266 37.1189 Q131.2188 37.6267 131.2188 38.7048 L131.2188 42.9704 L130.1719 42.9704 L130.1719 39.0486 Q130.1719 38.4236 130.0703 38.1423 Q129.9688 37.8611 129.7031 37.6892 Q129.4375 37.5173 129.0625 37.5173 Q128.4062 37.5173 127.9766 37.9548 Q127.5469 38.3923 127.5469 39.3611 L127.5469 42.9704 L126.4844 42.9704 L126.4844 38.9236 Q126.4844 38.2204 126.2266 37.8689 Q125.9688 37.5173 125.3906 37.5173 Q124.9375 37.5173 124.5625 37.7517 Q124.1875 37.9861 124.0156 38.4392 Q123.8438 38.8923 123.8438 39.7361 L123.8438 42.9704 L122.7969 42.9704 ZM133.7969 42.9704 L133.7969 34.3767 L134.8594 34.3767 L134.8594 39.2829 L137.3438 36.7517 L138.7188 36.7517 L136.3281 39.0486 L138.9531 42.9704 L137.6562 42.9704 L135.5938 39.7829 L134.8594 40.5017 L134.8594 42.9704 L133.7969 42.9704 ZM139.4062 39.8611 Q139.4062 38.1267 140.3594 37.2986 Q141.1562 36.6111 142.3125 36.6111 Q143.5938 36.6111 144.4141 37.447 Q145.2344 38.2829 145.2344 39.7673 Q145.2344 40.9704 144.875 41.6579 Q144.5156 42.3454 143.8203 42.7282 Q143.125 43.1111 142.3125 43.1111 Q141.0156 43.1111 140.2109 42.2751 Q139.4062 41.4392 139.4062 39.8611 ZM140.4844 39.8611 Q140.4844 41.0486 141.0078 41.6423 Q141.5312 42.2361 142.3125 42.2361 Q143.1094 42.2361 143.625 41.6423 Q144.1406 41.0486 144.1406 39.8298 Q144.1406 38.6736 143.6172 38.0798 Q143.0938 37.4861 142.3125 37.4861 Q141.5312 37.4861 141.0078 38.072 Q140.4844 38.6579 140.4844 39.8611 ZM140.8125 34.9704 L140.8125 33.7673 L141.9062 33.7673 L141.9062 34.9704 L140.8125 34.9704 ZM143 34.9704 L143 33.7673 L144.0938 33.7673 L144.0938 34.9704 L143 34.9704 ZM146.7812 42.9704 L146.7812 36.7517 L147.7344 36.7517 L147.7344 37.6892 Q148.0938 37.0329 148.3984 36.822 Q148.7031 36.6111 149.0781 36.6111 Q149.6094 36.6111 150.1562 36.9392 L149.7969 37.9236 Q149.4062 37.6892 149.0312 37.6892 Q148.6719 37.6892 148.3984 37.9001 Q148.125 38.1111 148.0156 38.4861 Q147.8281 39.0486 147.8281 39.7048 L147.8281 42.9704 L146.7812 42.9704 ZM153.0938 42.0329 L153.25 42.9548 Q152.7969 43.0486 152.4531 43.0486 Q151.875 43.0486 151.5625 42.8689 Q151.25 42.6892 151.1172 42.3923 Q150.9844 42.0954 150.9844 41.1423 L150.9844 37.5642 L150.2188 37.5642 L150.2188 36.7517 L150.9844 36.7517 L150.9844 35.2048 L152.0312 34.5798 L152.0312 36.7517 L153.0938 36.7517 L153.0938 37.5642 L152.0312 37.5642 L152.0312 41.2048 Q152.0312 41.6579 152.0859 41.7829 Q152.1406 41.9079 152.2656 41.9861 Q152.3906 42.0642 152.625 42.0642 Q152.8125 42.0642 153.0938 42.0329 ZM154.0625 42.9704 L154.0625 41.7673 L155.2656 41.7673 L155.2656 42.9704 Q155.2656 43.6267 155.0312 44.0407 Q154.7969 44.4548 154.2969 44.6736 L154 44.2204 Q154.3281 44.0798 154.4844 43.7907 Q154.6406 43.5017 154.6719 42.9704 L154.0625 42.9704 ZM163.8594 42.2048 Q163.2656 42.7048 162.7266 42.9079 Q162.1875 43.1111 161.5625 43.1111 Q160.5312 43.1111 159.9844 42.6111 Q159.4375 42.1111 159.4375 41.3298 Q159.4375 40.8767 159.6406 40.4939 Q159.8438 40.1111 160.1875 39.8845 Q160.5312 39.6579 160.9531 39.5486 Q161.25 39.4548 161.8906 39.3767 Q163.1562 39.2361 163.7656 39.0173 Q163.7656 38.7986 163.7656 38.7517 Q163.7656 38.0954 163.4688 37.8298 Q163.0625 37.4861 162.2656 37.4861 Q161.5312 37.4861 161.1719 37.7439 Q160.8125 38.0017 160.6406 38.6579 L159.6094 38.5173 Q159.75 37.8611 160.0781 37.4548 Q160.4062 37.0486 161.0156 36.8298 Q161.625 36.6111 162.4219 36.6111 Q163.2188 36.6111 163.7188 36.7986 Q164.2188 36.9861 164.4531 37.2673 Q164.6875 37.5486 164.7812 37.9861 Q164.8281 38.2517 164.8281 38.9548 L164.8281 40.3611 Q164.8281 41.8298 164.8984 42.2204 Q164.9688 42.6111 165.1719 42.9704 L164.0625 42.9704 Q163.9062 42.6423 163.8594 42.2048 ZM163.7656 39.8454 Q163.1875 40.0798 162.0469 40.2517 Q161.3906 40.3454 161.125 40.4626 Q160.8594 40.5798 160.7109 40.7986 Q160.5625 41.0173 160.5625 41.2986 Q160.5625 41.7204 160.8828 42.0017 Q161.2031 42.2829 161.8125 42.2829 Q162.4219 42.2829 162.8984 42.0173 Q163.375 41.7517 163.5938 41.2829 Q163.7656 40.9236 163.7656 40.2361 L163.7656 39.8454 ZM166.2344 42.9704 L166.2344 42.1111 L170.2031 37.5642 Q169.5156 37.5954 169 37.5954 L166.4688 37.5954 L166.4688 36.7517 L171.5625 36.7517 L171.5625 37.4392 L168.1875 41.3923 L167.5312 42.1111 Q168.25 42.0642 168.8594 42.0642 L171.75 42.0642 L171.75 42.9704 L166.2344 42.9704 ZM179.0469 40.9704 L180.1406 41.0954 Q179.8906 42.0486 179.1875 42.5798 Q178.4844 43.1111 177.4062 43.1111 Q176.0469 43.1111 175.2422 42.2673 Q174.4375 41.4236 174.4375 39.9079 Q174.4375 38.3454 175.25 37.4782 Q176.0625 36.6111 177.3438 36.6111 Q178.5938 36.6111 179.3828 37.4548 Q180.1719 38.2986 180.1719 39.8454 Q180.1719 39.9392 180.1719 40.1267 L175.5312 40.1267 Q175.5938 41.1579 176.1094 41.697 Q176.625 42.2361 177.4062 42.2361 Q177.9844 42.2361 178.3984 41.9314 Q178.8125 41.6267 179.0469 40.9704 ZM175.5938 39.2673 L179.0625 39.2673 Q179 38.4704 178.6719 38.0798 Q178.1562 37.4704 177.3594 37.4704 Q176.625 37.4704 176.1328 37.9548 Q175.6406 38.4392 175.5938 39.2673 ZM181.7656 42.9704 L181.7656 34.3767 L182.8281 34.3767 L182.8281 42.9704 L181.7656 42.9704 ZM184.4062 39.8611 Q184.4062 38.1267 185.3594 37.2986 Q186.1562 36.6111 187.3125 36.6111 Q188.5938 36.6111 189.4141 37.447 Q190.2344 38.2829 190.2344 39.7673 Q190.2344 40.9704 189.875 41.6579 Q189.5156 42.3454 188.8203 42.7282 Q188.125 43.1111 187.3125 43.1111 Q186.0156 43.1111 185.2109 42.2751 Q184.4062 41.4392 184.4062 39.8611 ZM185.4844 39.8611 Q185.4844 41.0486 186.0078 41.6423 Q186.5312 42.2361 187.3125 42.2361 Q188.1094 42.2361 188.625 41.6423 Q189.1406 41.0486 189.1406 39.8298 Q189.1406 38.6736 188.6172 38.0798 Q188.0938 37.4861 187.3125 37.4861 Q186.5312 37.4861 186.0078 38.072 Q185.4844 38.6579 185.4844 39.8611 ZM185.9688 34.9704 L186.6719 33.3298 L188.0469 33.3298 L186.8125 34.9704 L185.9688 34.9704 ZM188 34.9704 L188.75 33.3298 L190.0938 33.3298 L188.8906 34.9704 L188 34.9704 ZM191.2344 42.9704 L191.2344 42.1111 L195.2031 37.5642 Q194.5156 37.5954 194 37.5954 L191.4688 37.5954 L191.4688 36.7517 L196.5625 36.7517 L196.5625 37.4392 L193.1875 41.3923 L192.5312 42.1111 Q193.25 42.0642 193.8594 42.0642 L196.75 42.0642 L196.75 42.9704 L191.2344 42.9704 ZM196.4062 39.8611 Q196.4062 38.1267 197.3594 37.2986 Q198.1562 36.6111 199.3125 36.6111 Q200.5938 36.6111 201.4141 37.447 Q202.2344 38.2829 202.2344 39.7673 Q202.2344 40.9704 201.875 41.6579 Q201.5156 42.3454 200.8203 42.7282 Q200.125 43.1111 199.3125 43.1111 Q198.0156 43.1111 197.2109 42.2751 Q196.4062 41.4392 196.4062 39.8611 ZM197.4844 39.8611 Q197.4844 41.0486 198.0078 41.6423 Q198.5312 42.2361 199.3125 42.2361 Q200.1094 42.2361 200.625 41.6423 Q201.1406 41.0486 201.1406 39.8298 Q201.1406 38.6736 200.6172 38.0798 Q200.0938 37.4861 199.3125 37.4861 Q198.5312 37.4861 198.0078 38.072 Q197.4844 38.6579 197.4844 39.8611 ZM197.9688 34.9704 L198.6719 33.3298 L200.0469 33.3298 L198.8125 34.9704 L197.9688 34.9704 ZM200 34.9704 L200.75 33.3298 L202.0938 33.3298 L200.8906 34.9704 L200 34.9704 ZM206.0938 42.0329 L206.25 42.9548 Q205.7969 43.0486 205.4531 43.0486 Q204.875 43.0486 204.5625 42.8689 Q204.25 42.6892 204.1172 42.3923 Q203.9844 42.0954 203.9844 41.1423 L203.9844 37.5642 L203.2188 37.5642 L203.2188 36.7517 L203.9844 36.7517 L203.9844 35.2048 L205.0312 34.5798 L205.0312 36.7517 L206.0938 36.7517 L206.0938 37.5642 L205.0312 37.5642 L205.0312 41.2048 Q205.0312 41.6579 205.0859 41.7829 Q205.1406 41.9079 205.2656 41.9861 Q205.3906 42.0642 205.625 42.0642 Q205.8125 42.0642 206.0938 42.0329 Z" style="clip-path:url(#clipPath14); stroke:none;" />
      <path d="M8.0469 54.9704 L9.1406 55.0954 Q8.8906 56.0486 8.1875 56.5798 Q7.4844 57.1111 6.4062 57.1111 Q5.0469 57.1111 4.2422 56.2673 Q3.4375 55.4236 3.4375 53.9079 Q3.4375 52.3454 4.25 51.4782 Q5.0625 50.6111 6.3438 50.6111 Q7.5938 50.6111 8.3828 51.4548 Q9.1719 52.2986 9.1719 53.8454 Q9.1719 53.9392 9.1719 54.1267 L4.5312 54.1267 Q4.5938 55.1579 5.1094 55.697 Q5.625 56.2361 6.4062 56.2361 Q6.9844 56.2361 7.3984 55.9314 Q7.8125 55.6267 8.0469 54.9704 ZM4.5938 53.2673 L8.0625 53.2673 Q8 52.4704 7.6719 52.0798 Q7.1562 51.4704 6.3594 51.4704 Q5.625 51.4704 5.1328 51.9548 Q4.6406 52.4392 4.5938 53.2673 ZM10.7656 56.9704 L10.7656 48.3767 L11.8281 48.3767 L11.8281 56.9704 L10.7656 56.9704 ZM17.8281 56.9704 L17.8281 56.1892 Q17.2344 57.1111 16.0938 57.1111 Q15.3438 57.1111 14.7188 56.697 Q14.0938 56.2829 13.75 55.5486 Q13.4062 54.8142 13.4062 53.8611 Q13.4062 52.9392 13.7188 52.1736 Q14.0312 51.4079 14.6562 51.0095 Q15.2812 50.6111 16.0469 50.6111 Q16.6094 50.6111 17.0469 50.8454 Q17.4844 51.0798 17.7656 51.4548 L17.7656 48.3767 L18.8125 48.3767 L18.8125 56.9704 L17.8281 56.9704 ZM14.5 53.8611 Q14.5 55.0642 15 55.6501 Q15.5 56.2361 16.1875 56.2361 Q16.875 56.2361 17.3594 55.6736 Q17.8438 55.1111 17.8438 53.9548 Q17.8438 52.6736 17.3516 52.0798 Q16.8594 51.4861 16.1406 51.4861 Q15.4375 51.4861 14.9688 52.0564 Q14.5 52.6267 14.5 53.8611 ZM20.4062 53.8611 Q20.4062 52.1267 21.3594 51.2986 Q22.1562 50.6111 23.3125 50.6111 Q24.5938 50.6111 25.4141 51.447 Q26.2344 52.2829 26.2344 53.7673 Q26.2344 54.9704 25.875 55.6579 Q25.5156 56.3454 24.8203 56.7282 Q24.125 57.1111 23.3125 57.1111 Q22.0156 57.1111 21.2109 56.2751 Q20.4062 55.4392 20.4062 53.8611 ZM21.4844 53.8611 Q21.4844 55.0486 22.0078 55.6423 Q22.5312 56.2361 23.3125 56.2361 Q24.1094 56.2361 24.625 55.6423 Q25.1406 55.0486 25.1406 53.8298 Q25.1406 52.6736 24.6172 52.0798 Q24.0938 51.4861 23.3125 51.4861 Q22.5312 51.4861 22.0078 52.072 Q21.4844 52.6579 21.4844 53.8611 ZM28.7656 56.9704 L27.7812 56.9704 L27.7812 48.3767 L28.8438 48.3767 L28.8438 51.4392 Q29.5156 50.6111 30.5469 50.6111 Q31.125 50.6111 31.6328 50.8376 Q32.1406 51.0642 32.4766 51.4861 Q32.8125 51.9079 33 52.5017 Q33.1875 53.0954 33.1875 53.7673 Q33.1875 55.3611 32.3906 56.2361 Q31.5938 57.1111 30.5 57.1111 Q29.3906 57.1111 28.7656 56.1892 L28.7656 56.9704 ZM28.75 53.8142 Q28.75 54.9236 29.0625 55.4236 Q29.5625 56.2361 30.4062 56.2361 Q31.0938 56.2361 31.6016 55.6423 Q32.1094 55.0486 32.1094 53.8454 Q32.1094 52.6267 31.625 52.0486 Q31.1406 51.4704 30.4531 51.4704 Q29.7656 51.4704 29.2578 52.072 Q28.75 52.6736 28.75 53.8142 ZM34.7812 49.6111 L34.7812 48.3767 L35.8438 48.3767 L35.8438 49.6111 L34.7812 49.6111 ZM33.4531 59.3923 L33.6406 58.4861 Q33.9688 58.5642 34.1406 58.5642 Q34.4688 58.5642 34.625 58.3532 Q34.7812 58.1423 34.7812 57.2829 L34.7812 50.7517 L35.8438 50.7517 L35.8438 57.3142 Q35.8438 58.4548 35.5469 58.9079 Q35.1562 59.5017 34.2812 59.5017 Q33.8438 59.5017 33.4531 59.3923 ZM41.875 56.9704 L41.875 56.0486 Q41.1406 57.1111 39.8906 57.1111 Q39.3438 57.1111 38.8672 56.9001 Q38.3906 56.6892 38.1562 56.3689 Q37.9219 56.0486 37.8281 55.5798 Q37.7656 55.2829 37.7656 54.5954 L37.7656 50.7517 L38.8281 50.7517 L38.8281 54.2048 Q38.8281 55.0173 38.8906 55.3142 Q38.9844 55.7204 39.3047 55.9626 Q39.625 56.2048 40.1094 56.2048 Q40.5781 56.2048 40.9922 55.9626 Q41.4062 55.7204 41.5859 55.2986 Q41.7656 54.8767 41.7656 54.0798 L41.7656 50.7517 L42.8125 50.7517 L42.8125 56.9704 L41.875 56.9704 ZM44.7969 56.9704 L44.7969 48.3767 L45.8594 48.3767 L45.8594 53.2829 L48.3438 50.7517 L49.7188 50.7517 L47.3281 53.0486 L49.9531 56.9704 L48.6562 56.9704 L46.5938 53.7829 L45.8594 54.5017 L45.8594 56.9704 L44.7969 56.9704 ZM51.0938 56.9704 L51.0938 55.7673 L52.2969 55.7673 L52.2969 56.9704 L51.0938 56.9704 Z" style="clip-path:url(#clipPath14); stroke:none;" />
    </g>
    <g transform="translate(406,324)" style="font-size:11; fill:white; text-rendering:geometricPrecision; font-family:sans-serif; stroke:white;">
      <rect x="0" y="0" width="8" style="clip-path:url(#clipPath15); stroke:none;" height="60" />
    </g>
    <g transform="translate(406,324)" style="font-size:11; stroke-linecap:butt; text-rendering:geometricPrecision; font-family:sans-serif; stroke-linejoin:round; stroke-miterlimit:0;">
      <rect x="0" y="0" width="8" style="clip-path:url(#clipPath15); fill:none;" height="60" />
    </g>
    <g style="text-rendering:geometricPrecision; font-size:11; font-family:sans-serif;" transform="translate(415,354)">
      <text x="11" y="12" style="clip-path:url(#clipPath16); stroke:none;" xml:space="preserve">Áramkört leíró fájl feldolgozása</text>
    </g>
    <g style="text-rendering:geometricPrecision; font-size:11; font-family:sans-serif;" transform="translate(230,34)">
      <text x="11" y="12" style="clip-path:url(#clipPath17); stroke:none;" xml:space="preserve">&lt;&lt;metaclass&gt;&gt;</text>
      <text x="33" y="27" style="clip-path:url(#clipPath17); stroke:none;" xml:space="preserve">Circuit</text>
    </g>
    <g style="text-rendering:geometricPrecision; font-size:11; font-family:sans-serif;" transform="translate(380,264)">
      <text x="10" y="12" style="clip-path:url(#clipPath18); stroke:none;" xml:space="preserve">: Parser</text>
    </g>
    <g style="text-rendering:geometricPrecision; font-size:11; font-family:sans-serif;" transform="translate(130,34)">
      <text x="8" y="12" style="clip-path:url(#clipPath19); stroke:none;" xml:space="preserve">oldSimulation :</text>
      <text x="19" y="27" style="clip-path:url(#clipPath19); stroke:none;" xml:space="preserve">Simulation</text>
    </g>
    <g style="text-rendering:geometricPrecision; font-size:11; font-family:sans-serif;" transform="translate(11,69)">
      <text x="9" y="12" style="clip-path:url(#clipPath20); stroke:none;" xml:space="preserve">Felhasználó</text>
    </g>
    <g transform="translate(4,114)" style="font-size:11; stroke-linecap:butt; text-rendering:geometricPrecision; font-family:sans-serif; stroke-linejoin:round;">
      <line x1="50" x2="167" y1="50" style="clip-path:url(#clipPath21); fill:none;" y2="50" />
      <polygon style="clip-path:url(#clipPath21); stroke:none;" points=" 167 50 155 44 155 56" />
      <polygon style="fill:none; clip-path:url(#clipPath21);" points=" 167 50 155 44 155 56" />
    </g>
    <g transform="translate(234,234)" style="font-size:11; stroke-linecap:butt; stroke-dashoffset:1; text-rendering:geometricPrecision; font-family:sans-serif; stroke-linejoin:round; stroke-dasharray:5;">
      <line x1="50" x2="146" y1="50" style="clip-path:url(#clipPath22); fill:none;" y2="50" />
      <line x1="146" x2="134" y1="50" style="stroke-dashoffset:0; clip-path:url(#clipPath22); fill:none; stroke-dasharray:none;" y2="44" />
      <line x1="146" x2="134" y1="50" style="stroke-dashoffset:0; clip-path:url(#clipPath22); fill:none; stroke-dasharray:none;" y2="56" />
    </g>
    <g transform="translate(234,274)" style="font-size:11; stroke-linecap:butt; text-rendering:geometricPrecision; font-family:sans-serif; stroke-linejoin:round;">
      <line x1="50" x2="172" y1="50" style="clip-path:url(#clipPath23); fill:none;" y2="50" />
      <polygon style="clip-path:url(#clipPath23); stroke:none;" points=" 172 50 160 44 160 56" />
      <polygon style="fill:none; clip-path:url(#clipPath23);" points=" 172 50 160 44 160 56" />
    </g>
    <g transform="translate(234,324)" style="font-size:11; stroke-linecap:butt; text-rendering:geometricPrecision; font-family:sans-serif; stroke-linejoin:round; stroke-dasharray:8,3; stroke-miterlimit:0;">
      <line x1="172" x2="50" y1="50" style="clip-path:url(#clipPath23); fill:none;" y2="50" />
      <line x1="50" x2="62" y1="50" style="clip-path:url(#clipPath23); fill:none; stroke-dasharray:none; stroke-miterlimit:10;" y2="56" />
      <line x1="50" x2="62" y1="50" style="clip-path:url(#clipPath23); fill:none; stroke-dasharray:none; stroke-miterlimit:10;" y2="44" />
    </g>
    <g transform="translate(364,294)" style="font-size:11; stroke-linecap:butt; text-rendering:geometricPrecision; font-family:sans-serif; stroke-linejoin:round;">
      <line x1="50" x2="136" y1="50" style="clip-path:url(#clipPath24); fill:none;" y2="50" />
      <polygon style="clip-path:url(#clipPath24); stroke:none;" points=" 136 50 124 44 124 56" />
      <polygon style="fill:none; clip-path:url(#clipPath24);" points=" 136 50 124 44 124 56" />
    </g>
    <g transform="translate(4,194)" style="font-size:11; stroke-linecap:butt; text-rendering:geometricPrecision; font-family:sans-serif; stroke-linejoin:round;">
      <line x1="50" x2="272" y1="50" style="clip-path:url(#clipPath25); fill:none;" y2="50" />
      <polygon style="clip-path:url(#clipPath25); stroke:none;" points=" 272 50 260 44 260 56" />
      <polygon style="fill:none; clip-path:url(#clipPath25);" points=" 272 50 260 44 260 56" />
    </g>
    <g transform="translate(4,334)" style="font-size:11; stroke-linecap:butt; text-rendering:geometricPrecision; font-family:sans-serif; stroke-linejoin:round; stroke-dasharray:8,3; stroke-miterlimit:0;">
      <line x1="272" x2="50" y1="50" style="clip-path:url(#clipPath25); fill:none;" y2="50" />
      <line x1="50" x2="62" y1="50" style="clip-path:url(#clipPath25); fill:none; stroke-dasharray:none; stroke-miterlimit:10;" y2="56" />
      <line x1="50" x2="62" y1="50" style="clip-path:url(#clipPath25); fill:none; stroke-dasharray:none; stroke-miterlimit:10;" y2="44" />
    </g>
    <g style="text-rendering:geometricPrecision; font-size:11; font-family:sans-serif;" transform="translate(134,364)">
      <text x="10" y="12" style="clip-path:url(#clipPath26); stroke:none;" xml:space="preserve">3: circuit</text>
    </g>
    <g style="text-rendering:geometricPrecision; font-size:11; font-family:sans-serif;" transform="translate(100,224)">
      <text x="12" y="12" style="clip-path:url(#clipPath27); stroke:none;" xml:space="preserve">2: loadCircuit(fileName)</text>
    </g>
    <g style="text-rendering:geometricPrecision; font-size:11; font-family:sans-serif;" transform="translate(432,324)">
      <text x="12" y="12" style="clip-path:url(#clipPath28); stroke:none;" xml:space="preserve">2.2.1:</text>
    </g>
    <g style="text-rendering:geometricPrecision; font-size:11; font-family:sans-serif;" transform="translate(310,354)">
      <text x="10" y="12" style="clip-path:url(#clipPath29); stroke:none;" xml:space="preserve">2.2.2: circuit</text>
    </g>
    <g style="text-rendering:geometricPrecision; font-size:11; font-family:sans-serif;" transform="translate(280,304)">
      <text x="11" y="12" style="clip-path:url(#clipPath30); stroke:none;" xml:space="preserve">2.2: parse(fileName)</text>
    </g>
    <g style="text-rendering:geometricPrecision; font-size:11; font-family:sans-serif;" transform="translate(290,254)">
      <text x="12" y="12" style="clip-path:url(#clipPath31); stroke:none;" xml:space="preserve">&lt;&lt;create&gt;&gt;</text>
      <text x="10" y="27" style="clip-path:url(#clipPath31); stroke:none;" xml:space="preserve">2.1: Parser()</text>
    </g>
    <g style="text-rendering:geometricPrecision; font-size:11; font-family:sans-serif;" transform="translate(50,144)">
      <text x="13" y="12" style="clip-path:url(#clipPath32); stroke:none;" xml:space="preserve">1: setState(STOPPED)</text>
    </g>
  </g>
</svg>
