<?xml version="1.0" encoding="UTF-8"?>

<!DOCTYPE svg PUBLIC '-//W3C//DTD SVG 1.0//EN' 'http://www.w3.org/TR/2001/REC-SVG-20010904/DTD/svg10.dtd'>
<svg style="fill-opacity:1; color-rendering:auto; color-interpolation:auto; stroke:black; text-rendering:auto; stroke-linecap:square; stroke-miterlimit:10; stroke-opacity:1; shape-rendering:auto; fill:black; stroke-dasharray:none; font-weight:normal; stroke-width:1; font-family:&apos;Dialog&apos;; font-style:normal; stroke-linejoin:miter; font-size:12; stroke-dashoffset:0; image-rendering:auto;" xmlns="http://www.w3.org/2000/svg" width="580" xmlns:xlink="http://www.w3.org/1999/xlink" height="508">
  <!--Generated by the Batik Graphics2D SVG Generator-->
  <defs id="genericDefs" />
  <g>
    <defs id="defs1">
      <clipPath clipPathUnits="userSpaceOnUse" id="clipPath1">
        <path d="M-3 -3 L67 -3 L67 467 L-3 467 L-3 -3 Z" />
      </clipPath>
      <clipPath clipPathUnits="userSpaceOnUse" id="clipPath2">
        <path d="M-3 -3 L97 -3 L97 187 L-3 187 L-3 -3 Z" />
      </clipPath>
      <clipPath clipPathUnits="userSpaceOnUse" id="clipPath3">
        <path d="M-3 -3 L15 -3 L15 35 L-3 35 L-3 -3 Z" />
      </clipPath>
      <clipPath clipPathUnits="userSpaceOnUse" id="clipPath4">
        <path d="M-3 -3 L67 -3 L67 217 L-3 217 L-3 -3 Z" />
      </clipPath>
      <clipPath clipPathUnits="userSpaceOnUse" id="clipPath5">
        <path d="M-3 -3 L107 -3 L107 267 L-3 267 L-3 -3 Z" />
      </clipPath>
      <clipPath clipPathUnits="userSpaceOnUse" id="clipPath6">
        <path d="M-3 -3 L15 -3 L15 137 L-3 137 L-3 -3 Z" />
      </clipPath>
      <clipPath clipPathUnits="userSpaceOnUse" id="clipPath7">
        <path d="M-3 -3 L15 -3 L15 33 L-3 33 L-3 -3 Z" />
      </clipPath>
      <clipPath clipPathUnits="userSpaceOnUse" id="clipPath8">
        <path d="M-3 -3 L15 -3 L15 77 L-3 77 L-3 -3 Z" />
      </clipPath>
      <clipPath clipPathUnits="userSpaceOnUse" id="clipPath9">
        <path d="M-3 -3 L27 -3 L27 27 L-3 27 L-3 -3 Z" />
      </clipPath>
      <clipPath clipPathUnits="userSpaceOnUse" id="clipPath10">
        <path d="M-3 -3 L207 -3 L207 87 L-3 87 L-3 -3 Z" />
      </clipPath>
      <clipPath clipPathUnits="userSpaceOnUse" id="clipPath11">
        <path d="M0 0 L0 80 L200 80 L200 0 Z" />
      </clipPath>
      <clipPath clipPathUnits="userSpaceOnUse" id="clipPath12">
        <path d="M-3 -3 L187 -3 L187 127 L-3 127 L-3 -3 Z" />
      </clipPath>
      <clipPath clipPathUnits="userSpaceOnUse" id="clipPath13">
        <path d="M0 0 L27 0 L27 18 L0 18 L0 0 Z" />
      </clipPath>
      <clipPath clipPathUnits="userSpaceOnUse" id="clipPath14">
        <path d="M-3 -3 L187 -3 L187 109 L-3 109 L-3 -3 Z" />
      </clipPath>
      <clipPath clipPathUnits="userSpaceOnUse" id="clipPath15">
        <path d="M0 0 L125 0 L125 15 L0 15 L0 0 Z" />
      </clipPath>
      <clipPath clipPathUnits="userSpaceOnUse" id="clipPath16">
        <path d="M0 0 L0 4 L180 4 L180 0 Z" />
      </clipPath>
      <clipPath clipPathUnits="userSpaceOnUse" id="clipPath17">
        <path d="M-171 -15 L342 -15 L342 30 L-171 30 L-171 -15 Z" />
      </clipPath>
      <clipPath clipPathUnits="userSpaceOnUse" id="clipPath18">
        <path d="M-100 -30 L200 -30 L200 60 L-100 60 L-100 -30 Z" />
      </clipPath>
      <clipPath clipPathUnits="userSpaceOnUse" id="clipPath19">
        <path d="M-60 -15 L120 -15 L120 30 L-60 30 L-60 -15 Z" />
      </clipPath>
      <clipPath clipPathUnits="userSpaceOnUse" id="clipPath20">
        <path d="M-90 -30 L180 -30 L180 60 L-90 60 L-90 -30 Z" />
      </clipPath>
      <clipPath clipPathUnits="userSpaceOnUse" id="clipPath21">
        <path d="M-78 -15 L156 -15 L156 30 L-78 30 L-78 -15 Z" />
      </clipPath>
      <clipPath clipPathUnits="userSpaceOnUse" id="clipPath22">
        <path d="M0 0 L221 0 L221 104 L0 104 L0 0 Z" />
      </clipPath>
      <clipPath clipPathUnits="userSpaceOnUse" id="clipPath23">
        <path d="M0 0 L220 0 L220 104 L0 104 L0 0 Z" />
      </clipPath>
      <clipPath clipPathUnits="userSpaceOnUse" id="clipPath24">
        <path d="M0 0 L286 0 L286 104 L0 104 L0 0 Z" />
      </clipPath>
      <clipPath clipPathUnits="userSpaceOnUse" id="clipPath25">
        <path d="M0 0 L240 0 L240 104 L0 104 L0 0 Z" />
      </clipPath>
      <clipPath clipPathUnits="userSpaceOnUse" id="clipPath26">
        <path d="M0 0 L246 0 L246 104 L0 104 L0 0 Z" />
      </clipPath>
      <clipPath clipPathUnits="userSpaceOnUse" id="clipPath27">
        <path d="M0 0 L130 0 L130 124 L0 124 L0 0 Z" />
      </clipPath>
      <clipPath clipPathUnits="userSpaceOnUse" id="clipPath28">
        <path d="M0 0 L190 0 L190 104 L0 104 L0 0 Z" />
      </clipPath>
      <clipPath clipPathUnits="userSpaceOnUse" id="clipPath29">
        <path d="M-41 -15 L82 -15 L82 30 L-41 30 L-41 -15 Z" />
      </clipPath>
      <clipPath clipPathUnits="userSpaceOnUse" id="clipPath30">
        <path d="M-114 -15 L228 -15 L228 30 L-114 30 L-114 -15 Z" />
      </clipPath>
      <clipPath clipPathUnits="userSpaceOnUse" id="clipPath31">
        <path d="M-70 -15 L140 -15 L140 30 L-70 30 L-70 -15 Z" />
      </clipPath>
      <clipPath clipPathUnits="userSpaceOnUse" id="clipPath32">
        <path d="M-110 -15 L220 -15 L220 30 L-110 30 L-110 -15 Z" />
      </clipPath>
      <clipPath clipPathUnits="userSpaceOnUse" id="clipPath33">
        <path d="M-134 -30 L268 -30 L268 60 L-134 60 L-134 -30 Z" />
      </clipPath>
      <clipPath clipPathUnits="userSpaceOnUse" id="clipPath34">
        <path d="M-131 -15 L262 -15 L262 30 L-131 30 L-131 -15 Z" />
      </clipPath>
      <clipPath clipPathUnits="userSpaceOnUse" id="clipPath35">
        <path d="M-76 -30 L152 -30 L152 60 L-76 60 L-76 -30 Z" />
      </clipPath>
      <clipPath clipPathUnits="userSpaceOnUse" id="clipPath36">
        <path d="M-132 -15 L264 -15 L264 30 L-132 30 L-132 -15 Z" />
      </clipPath>
    </defs>
    <g style="fill:white; text-rendering:geometricPrecision; stroke:white;">
      <rect x="0" y="0" width="580" style="stroke:none;" height="508" />
      <rect x="0" y="38" transform="translate(0,-38)" width="579" style="fill:none; stroke:black;" height="507" />
      <text x="7" y="55" transform="translate(0,-38)" style="fill:black; stroke:none; font-weight:bold;" xml:space="preserve">sd</text>
      <text x="28" y="55" transform="translate(0,-38)" style="fill:black; stroke:none;" xml:space="preserve">Áramkör választás</text>
      <line transform="translate(0,-38)" x1="0" x2="128" y1="62" style="fill:none; stroke:black;" y2="62" />
      <line transform="translate(0,-38)" x1="134" x2="134" y1="38" style="fill:none; stroke:black;" y2="52" />
      <line transform="translate(0,-38)" x1="134" x2="128" y1="52" style="fill:none; stroke:black;" y2="62" />
    </g>
    <g transform="translate(20,34)" style="font-size:11; stroke-linecap:butt; text-rendering:geometricPrecision; font-family:sans-serif; stroke-linejoin:round; stroke-miterlimit:0;">
      <circle style="fill:none; clip-path:url(#clipPath1);" r="5" cx="30" cy="5" />
      <rect x="26" y="50" width="8" style="clip-path:url(#clipPath1); fill:none;" height="409" />
      <line x1="30" x2="30" y1="10" style="clip-path:url(#clipPath1); fill:none;" y2="25" />
      <line x1="30" x2="21" y1="25" style="clip-path:url(#clipPath1); fill:none;" y2="36" />
      <line x1="30" x2="39" y1="25" style="clip-path:url(#clipPath1); fill:none;" y2="36" />
      <line x1="21" x2="39" y1="16" style="clip-path:url(#clipPath1); fill:none;" y2="16" />
    </g>
    <g transform="translate(130,34)" style="font-size:11; stroke-linecap:butt; text-rendering:geometricPrecision; font-family:sans-serif; stroke-linejoin:round; stroke-miterlimit:0;">
      <line x1="35" x2="53" y1="162" style="clip-path:url(#clipPath2); fill:none;" y2="180" />
      <line x1="35" x2="53" y1="180" style="clip-path:url(#clipPath2); fill:none;" y2="162" />
      <rect x="0" y="0" width="89" style="clip-path:url(#clipPath2); fill:none;" height="35" />
      <line x1="44" x2="44" y1="35" style="clip-path:url(#clipPath2); fill:none; stroke-linejoin:bevel; stroke-dasharray:8,3;" y2="171" />
    </g>
    <g transform="translate(171,164)" style="font-size:11; fill:white; text-rendering:geometricPrecision; font-family:sans-serif; stroke:white;">
      <rect x="0" y="0" width="8" style="clip-path:url(#clipPath3); stroke:none;" height="28" />
    </g>
    <g transform="translate(171,164)" style="font-size:11; stroke-linecap:butt; text-rendering:geometricPrecision; font-family:sans-serif; stroke-linejoin:round; stroke-miterlimit:0;">
      <rect x="0" y="0" width="8" style="clip-path:url(#clipPath3); fill:none;" height="28" />
    </g>
    <g transform="translate(360,284)" style="font-size:11; stroke-linecap:butt; text-rendering:geometricPrecision; font-family:sans-serif; stroke-linejoin:round; stroke-miterlimit:0;">
      <rect x="0" y="0" width="59" style="clip-path:url(#clipPath4); fill:none;" height="35" />
      <line x1="29" x2="29" y1="35" style="clip-path:url(#clipPath4); fill:none; stroke-linejoin:bevel; stroke-dasharray:8,3;" y2="210" />
    </g>
    <g transform="translate(190,234)" style="font-size:11; stroke-linecap:butt; text-rendering:geometricPrecision; font-family:sans-serif; stroke-linejoin:round; stroke-miterlimit:0;">
      <rect x="0" y="0" width="99" style="clip-path:url(#clipPath5); fill:none;" height="35" />
      <line x1="49" x2="49" y1="35" style="clip-path:url(#clipPath5); fill:none; stroke-linejoin:bevel; stroke-dasharray:8,3;" y2="260" />
    </g>
    <g transform="translate(236,284)" style="font-size:11; fill:white; text-rendering:geometricPrecision; font-family:sans-serif; stroke:white;">
      <rect x="0" y="0" width="8" style="clip-path:url(#clipPath6); stroke:none;" height="130" />
    </g>
    <g transform="translate(236,284)" style="font-size:11; stroke-linecap:butt; text-rendering:geometricPrecision; font-family:sans-serif; stroke-linejoin:round; stroke-miterlimit:0;">
      <rect x="0" y="0" width="8" style="clip-path:url(#clipPath6); fill:none;" height="130" />
    </g>
    <g transform="translate(236,444)" style="font-size:11; fill:white; text-rendering:geometricPrecision; font-family:sans-serif; stroke:white;">
      <rect x="0" y="0" width="8" style="clip-path:url(#clipPath7); stroke:none;" height="26" />
    </g>
    <g transform="translate(236,444)" style="font-size:11; stroke-linecap:butt; text-rendering:geometricPrecision; font-family:sans-serif; stroke-linejoin:round; stroke-miterlimit:0;">
      <rect x="0" y="0" width="8" style="clip-path:url(#clipPath7); fill:none;" height="26" />
    </g>
    <g transform="translate(386,344)" style="font-size:11; fill:white; text-rendering:geometricPrecision; font-family:sans-serif; stroke:white;">
      <rect x="0" y="0" width="8" style="clip-path:url(#clipPath8); stroke:none;" height="70" />
    </g>
    <g transform="translate(386,344)" style="font-size:11; stroke-linecap:butt; text-rendering:geometricPrecision; font-family:sans-serif; stroke-linejoin:round; stroke-miterlimit:0;">
      <rect x="0" y="0" width="8" style="clip-path:url(#clipPath8); fill:none;" height="70" />
    </g>
    <g transform="translate(470,344)" style="font-size:11; fill:silver; text-rendering:geometricPrecision; font-family:sans-serif; stroke:silver;">
      <rect x="0" y="0" width="19" style="clip-path:url(#clipPath9); fill:none;" height="19" />
    </g>
    <g transform="translate(270,104)" style="font-size:11; fill:white; text-rendering:geometricPrecision; font-family:sans-serif; stroke:white;">
      <polygon style="clip-path:url(#clipPath10); stroke:none;" points=" 0 0 184 0 199 15 184 15 184 0 199 15 199 79 0 79" />
    </g>
    <g transform="translate(270,104)" style="font-size:11; stroke-linecap:butt; text-rendering:geometricPrecision; font-family:sans-serif; stroke-linejoin:round; stroke-miterlimit:0;">
      <polygon style="fill:none; clip-path:url(#clipPath10);" points=" 0 0 184 0 199 15 184 15 184 0 199 15 199 79 0 79" />
    </g>
    <g style="text-rendering:geometricPrecision; font-size:11; font-family:&apos;Tahoma&apos;;" transform="translate(270,104)">
      <path d="M2.9844 14.9704 L6.2812 6.3767 L7.5 6.3767 L11.0156 14.9704 L9.7344 14.9704 L8.7188 12.3611 L5.1406 12.3611 L4.1875 14.9704 L2.9844 14.9704 ZM5.4688 11.4392 L8.375 11.4392 L7.4844 9.0642 Q7.0625 7.9861 6.875 7.2829 Q6.7031 8.1111 6.4062 8.9236 L5.4688 11.4392 ZM10.7969 14.9704 L10.7969 8.7517 L11.7344 8.7517 L11.7344 9.6267 Q12.0312 9.1579 12.5156 8.8845 Q13 8.6111 13.625 8.6111 Q14.3125 8.6111 14.7578 8.8923 Q15.2031 9.1736 15.375 9.6892 Q16.125 8.6111 17.2969 8.6111 Q18.2344 8.6111 18.7266 9.1189 Q19.2188 9.6267 19.2188 10.7048 L19.2188 14.9704 L18.1719 14.9704 L18.1719 11.0486 Q18.1719 10.4236 18.0703 10.1423 Q17.9688 9.8611 17.7031 9.6892 Q17.4375 9.5173 17.0625 9.5173 Q16.4062 9.5173 15.9766 9.9548 Q15.5469 10.3923 15.5469 11.3611 L15.5469 14.9704 L14.4844 14.9704 L14.4844 10.9236 Q14.4844 10.2204 14.2266 9.8689 Q13.9688 9.5173 13.3906 9.5173 Q12.9375 9.5173 12.5625 9.7517 Q12.1875 9.9861 12.0156 10.4392 Q11.8438 10.8923 11.8438 11.7361 L11.8438 14.9704 L10.7969 14.9704 ZM21.7969 7.5954 L21.7969 6.3767 L22.8594 6.3767 L22.8594 7.5954 L21.7969 7.5954 ZM21.7969 14.9704 L21.7969 8.7517 L22.8594 8.7517 L22.8594 14.9704 L21.7969 14.9704 ZM24.7969 14.9704 L24.7969 6.3767 L25.8594 6.3767 L25.8594 11.2829 L28.3438 8.7517 L29.7188 8.7517 L27.3281 11.0486 L29.9531 14.9704 L28.6562 14.9704 L26.5938 11.7829 L25.8594 12.5017 L25.8594 14.9704 L24.7969 14.9704 ZM30.4062 11.8611 Q30.4062 10.1267 31.3594 9.2986 Q32.1562 8.6111 33.3125 8.6111 Q34.5938 8.6111 35.4141 9.447 Q36.2344 10.2829 36.2344 11.7673 Q36.2344 12.9704 35.875 13.6579 Q35.5156 14.3454 34.8203 14.7282 Q34.125 15.1111 33.3125 15.1111 Q32.0156 15.1111 31.2109 14.2751 Q30.4062 13.4392 30.4062 11.8611 ZM31.4844 11.8611 Q31.4844 13.0486 32.0078 13.6423 Q32.5312 14.2361 33.3125 14.2361 Q34.1094 14.2361 34.625 13.6423 Q35.1406 13.0486 35.1406 11.8298 Q35.1406 10.6736 34.6172 10.0798 Q34.0938 9.4861 33.3125 9.4861 Q32.5312 9.4861 32.0078 10.072 Q31.4844 10.6579 31.4844 11.8611 ZM37.7812 14.9704 L37.7812 8.7517 L38.7344 8.7517 L38.7344 9.6892 Q39.0938 9.0329 39.3984 8.822 Q39.7031 8.6111 40.0781 8.6111 Q40.6094 8.6111 41.1562 8.9392 L40.7969 9.9236 Q40.4062 9.6892 40.0312 9.6892 Q39.6719 9.6892 39.3984 9.9001 Q39.125 10.1111 39.0156 10.4861 Q38.8281 11.0486 38.8281 11.7048 L38.8281 14.9704 L37.7812 14.9704 ZM48.8594 14.2048 Q48.2656 14.7048 47.7266 14.9079 Q47.1875 15.1111 46.5625 15.1111 Q45.5312 15.1111 44.9844 14.6111 Q44.4375 14.1111 44.4375 13.3298 Q44.4375 12.8767 44.6406 12.4939 Q44.8438 12.1111 45.1875 11.8845 Q45.5312 11.6579 45.9531 11.5486 Q46.25 11.4548 46.8906 11.3767 Q48.1562 11.2361 48.7656 11.0173 Q48.7656 10.7986 48.7656 10.7517 Q48.7656 10.0954 48.4688 9.8298 Q48.0625 9.4861 47.2656 9.4861 Q46.5312 9.4861 46.1719 9.7439 Q45.8125 10.0017 45.6406 10.6579 L44.6094 10.5173 Q44.75 9.8611 45.0781 9.4548 Q45.4062 9.0486 46.0156 8.8298 Q46.625 8.6111 47.4219 8.6111 Q48.2188 8.6111 48.7188 8.7986 Q49.2188 8.9861 49.4531 9.2673 Q49.6875 9.5486 49.7812 9.9861 Q49.8281 10.2517 49.8281 10.9548 L49.8281 12.3611 Q49.8281 13.8298 49.8984 14.2204 Q49.9688 14.6111 50.1719 14.9704 L49.0625 14.9704 Q48.9062 14.6423 48.8594 14.2048 ZM48.7656 11.8454 Q48.1875 12.0798 47.0469 12.2517 Q46.3906 12.3454 46.125 12.4626 Q45.8594 12.5798 45.7109 12.7986 Q45.5625 13.0173 45.5625 13.2986 Q45.5625 13.7204 45.8828 14.0017 Q46.2031 14.2829 46.8125 14.2829 Q47.4219 14.2829 47.8984 14.0173 Q48.375 13.7517 48.5938 13.2829 Q48.7656 12.9236 48.7656 12.2361 L48.7656 11.8454 ZM46.125 6.9704 L46.9062 5.3298 L48.2969 5.3298 L47 6.9704 L46.125 6.9704 ZM51.7812 14.9704 L51.7812 8.7517 L52.7344 8.7517 L52.7344 9.6892 Q53.0938 9.0329 53.3984 8.822 Q53.7031 8.6111 54.0781 8.6111 Q54.6094 8.6111 55.1562 8.9392 L54.7969 9.9236 Q54.4062 9.6892 54.0312 9.6892 Q53.6719 9.6892 53.3984 9.9001 Q53.125 10.1111 53.0156 10.4861 Q52.8281 11.0486 52.8281 11.7048 L52.8281 14.9704 L51.7812 14.9704 ZM59.8594 14.2048 Q59.2656 14.7048 58.7266 14.9079 Q58.1875 15.1111 57.5625 15.1111 Q56.5312 15.1111 55.9844 14.6111 Q55.4375 14.1111 55.4375 13.3298 Q55.4375 12.8767 55.6406 12.4939 Q55.8438 12.1111 56.1875 11.8845 Q56.5312 11.6579 56.9531 11.5486 Q57.25 11.4548 57.8906 11.3767 Q59.1562 11.2361 59.7656 11.0173 Q59.7656 10.7986 59.7656 10.7517 Q59.7656 10.0954 59.4688 9.8298 Q59.0625 9.4861 58.2656 9.4861 Q57.5312 9.4861 57.1719 9.7439 Q56.8125 10.0017 56.6406 10.6579 L55.6094 10.5173 Q55.75 9.8611 56.0781 9.4548 Q56.4062 9.0486 57.0156 8.8298 Q57.625 8.6111 58.4219 8.6111 Q59.2188 8.6111 59.7188 8.7986 Q60.2188 8.9861 60.4531 9.2673 Q60.6875 9.5486 60.7812 9.9861 Q60.8281 10.2517 60.8281 10.9548 L60.8281 12.3611 Q60.8281 13.8298 60.8984 14.2204 Q60.9688 14.6111 61.1719 14.9704 L60.0625 14.9704 Q59.9062 14.6423 59.8594 14.2048 ZM59.7656 11.8454 Q59.1875 12.0798 58.0469 12.2517 Q57.3906 12.3454 57.125 12.4626 Q56.8594 12.5798 56.7109 12.7986 Q56.5625 13.0173 56.5625 13.2986 Q56.5625 13.7204 56.8828 14.0017 Q57.2031 14.2829 57.8125 14.2829 Q58.4219 14.2829 58.8984 14.0173 Q59.375 13.7517 59.5938 13.2829 Q59.7656 12.9236 59.7656 12.2361 L59.7656 11.8454 ZM62.7969 14.9704 L62.7969 8.7517 L63.7344 8.7517 L63.7344 9.6267 Q64.0312 9.1579 64.5156 8.8845 Q65 8.6111 65.625 8.6111 Q66.3125 8.6111 66.7578 8.8923 Q67.2031 9.1736 67.375 9.6892 Q68.125 8.6111 69.2969 8.6111 Q70.2344 8.6111 70.7266 9.1189 Q71.2188 9.6267 71.2188 10.7048 L71.2188 14.9704 L70.1719 14.9704 L70.1719 11.0486 Q70.1719 10.4236 70.0703 10.1423 Q69.9688 9.8611 69.7031 9.6892 Q69.4375 9.5173 69.0625 9.5173 Q68.4062 9.5173 67.9766 9.9548 Q67.5469 10.3923 67.5469 11.3611 L67.5469 14.9704 L66.4844 14.9704 L66.4844 10.9236 Q66.4844 10.2204 66.2266 9.8689 Q65.9688 9.5173 65.3906 9.5173 Q64.9375 9.5173 64.5625 9.7517 Q64.1875 9.9861 64.0156 10.4392 Q63.8438 10.8923 63.8438 11.7361 L63.8438 14.9704 L62.7969 14.9704 ZM73.7969 14.9704 L73.7969 6.3767 L74.8594 6.3767 L74.8594 11.2829 L77.3438 8.7517 L78.7188 8.7517 L76.3281 11.0486 L78.9531 14.9704 L77.6562 14.9704 L75.5938 11.7829 L74.8594 12.5017 L74.8594 14.9704 L73.7969 14.9704 ZM79.4062 11.8611 Q79.4062 10.1267 80.3594 9.2986 Q81.1562 8.6111 82.3125 8.6111 Q83.5938 8.6111 84.4141 9.447 Q85.2344 10.2829 85.2344 11.7673 Q85.2344 12.9704 84.875 13.6579 Q84.5156 14.3454 83.8203 14.7282 Q83.125 15.1111 82.3125 15.1111 Q81.0156 15.1111 80.2109 14.2751 Q79.4062 13.4392 79.4062 11.8611 ZM80.4844 11.8611 Q80.4844 13.0486 81.0078 13.6423 Q81.5312 14.2361 82.3125 14.2361 Q83.1094 14.2361 83.625 13.6423 Q84.1406 13.0486 84.1406 11.8298 Q84.1406 10.6736 83.6172 10.0798 Q83.0938 9.4861 82.3125 9.4861 Q81.5312 9.4861 81.0078 10.072 Q80.4844 10.6579 80.4844 11.8611 ZM80.8125 6.9704 L80.8125 5.7673 L81.9062 5.7673 L81.9062 6.9704 L80.8125 6.9704 ZM83 6.9704 L83 5.7673 L84.0938 5.7673 L84.0938 6.9704 L83 6.9704 ZM86.7812 14.9704 L86.7812 8.7517 L87.7344 8.7517 L87.7344 9.6892 Q88.0938 9.0329 88.3984 8.822 Q88.7031 8.6111 89.0781 8.6111 Q89.6094 8.6111 90.1562 8.9392 L89.7969 9.9236 Q89.4062 9.6892 89.0312 9.6892 Q88.6719 9.6892 88.3984 9.9001 Q88.125 10.1111 88.0156 10.4861 Q87.8281 11.0486 87.8281 11.7048 L87.8281 14.9704 L86.7812 14.9704 ZM93.0938 14.0329 L93.25 14.9548 Q92.7969 15.0486 92.4531 15.0486 Q91.875 15.0486 91.5625 14.8689 Q91.25 14.6892 91.1172 14.3923 Q90.9844 14.0954 90.9844 13.1423 L90.9844 9.5642 L90.2188 9.5642 L90.2188 8.7517 L90.9844 8.7517 L90.9844 7.2048 L92.0312 6.5798 L92.0312 8.7517 L93.0938 8.7517 L93.0938 9.5642 L92.0312 9.5642 L92.0312 13.2048 Q92.0312 13.6579 92.0859 13.7829 Q92.1406 13.9079 92.2656 13.9861 Q92.3906 14.0642 92.625 14.0642 Q92.8125 14.0642 93.0938 14.0329 ZM98.5156 14.9704 L96.1562 8.7517 L97.2656 8.7517 L98.6094 12.4704 Q98.8125 13.0798 99 13.7204 Q99.1406 13.2361 99.3906 12.5486 L100.7812 8.7517 L101.8594 8.7517 L99.5 14.9704 L98.5156 14.9704 ZM105.8594 14.2048 Q105.2656 14.7048 104.7266 14.9079 Q104.1875 15.1111 103.5625 15.1111 Q102.5312 15.1111 101.9844 14.6111 Q101.4375 14.1111 101.4375 13.3298 Q101.4375 12.8767 101.6406 12.4939 Q101.8438 12.1111 102.1875 11.8845 Q102.5312 11.6579 102.9531 11.5486 Q103.25 11.4548 103.8906 11.3767 Q105.1562 11.2361 105.7656 11.0173 Q105.7656 10.7986 105.7656 10.7517 Q105.7656 10.0954 105.4688 9.8298 Q105.0625 9.4861 104.2656 9.4861 Q103.5312 9.4861 103.1719 9.7439 Q102.8125 10.0017 102.6406 10.6579 L101.6094 10.5173 Q101.75 9.8611 102.0781 9.4548 Q102.4062 9.0486 103.0156 8.8298 Q103.625 8.6111 104.4219 8.6111 Q105.2188 8.6111 105.7188 8.7986 Q106.2188 8.9861 106.4531 9.2673 Q106.6875 9.5486 106.7812 9.9861 Q106.8281 10.2517 106.8281 10.9548 L106.8281 12.3611 Q106.8281 13.8298 106.8984 14.2204 Q106.9688 14.6111 107.1719 14.9704 L106.0625 14.9704 Q105.9062 14.6423 105.8594 14.2048 ZM105.7656 11.8454 Q105.1875 12.0798 104.0469 12.2517 Q103.3906 12.3454 103.125 12.4626 Q102.8594 12.5798 102.7109 12.7986 Q102.5625 13.0173 102.5625 13.2986 Q102.5625 13.7204 102.8828 14.0017 Q103.2031 14.2829 103.8125 14.2829 Q104.4219 14.2829 104.8984 14.0173 Q105.375 13.7517 105.5938 13.2829 Q105.7656 12.9236 105.7656 12.2361 L105.7656 11.8454 ZM103.125 6.9704 L103.9062 5.3298 L105.2969 5.3298 L104 6.9704 L103.125 6.9704 ZM108.7656 14.9704 L108.7656 6.3767 L109.8281 6.3767 L109.8281 14.9704 L108.7656 14.9704 ZM115.8594 14.2048 Q115.2656 14.7048 114.7266 14.9079 Q114.1875 15.1111 113.5625 15.1111 Q112.5312 15.1111 111.9844 14.6111 Q111.4375 14.1111 111.4375 13.3298 Q111.4375 12.8767 111.6406 12.4939 Q111.8438 12.1111 112.1875 11.8845 Q112.5312 11.6579 112.9531 11.5486 Q113.25 11.4548 113.8906 11.3767 Q115.1562 11.2361 115.7656 11.0173 Q115.7656 10.7986 115.7656 10.7517 Q115.7656 10.0954 115.4688 9.8298 Q115.0625 9.4861 114.2656 9.4861 Q113.5312 9.4861 113.1719 9.7439 Q112.8125 10.0017 112.6406 10.6579 L111.6094 10.5173 Q111.75 9.8611 112.0781 9.4548 Q112.4062 9.0486 113.0156 8.8298 Q113.625 8.6111 114.4219 8.6111 Q115.2188 8.6111 115.7188 8.7986 Q116.2188 8.9861 116.4531 9.2673 Q116.6875 9.5486 116.7812 9.9861 Q116.8281 10.2517 116.8281 10.9548 L116.8281 12.3611 Q116.8281 13.8298 116.8984 14.2204 Q116.9688 14.6111 117.1719 14.9704 L116.0625 14.9704 Q115.9062 14.6423 115.8594 14.2048 ZM115.7656 11.8454 Q115.1875 12.0798 114.0469 12.2517 Q113.3906 12.3454 113.125 12.4626 Q112.8594 12.5798 112.7109 12.7986 Q112.5625 13.0173 112.5625 13.2986 Q112.5625 13.7204 112.8828 14.0017 Q113.2031 14.2829 113.8125 14.2829 Q114.4219 14.2829 114.8984 14.0173 Q115.375 13.7517 115.5938 13.2829 Q115.7656 12.9236 115.7656 12.2361 L115.7656 11.8454 ZM118.375 13.1111 L119.4062 12.9548 Q119.5 13.5798 119.8984 13.9079 Q120.2969 14.2361 121.0312 14.2361 Q121.75 14.2361 122.1016 13.947 Q122.4531 13.6579 122.4531 13.2517 Q122.4531 12.8923 122.1406 12.6892 Q121.9219 12.5486 121.0625 12.3298 Q119.9062 12.0329 119.4609 11.822 Q119.0156 11.6111 118.7812 11.2361 Q118.5469 10.8611 118.5469 10.3923 Q118.5469 9.9861 118.7344 9.6267 Q118.9219 9.2673 119.25 9.0329 Q119.5 8.8611 119.9219 8.7361 Q120.3438 8.6111 120.8438 8.6111 Q121.5625 8.6111 122.1172 8.822 Q122.6719 9.0329 122.9375 9.3923 Q123.2031 9.7517 123.2969 10.3454 L122.2656 10.4861 Q122.2031 10.0173 121.8672 9.7439 Q121.5312 9.4704 120.9062 9.4704 Q120.1875 9.4704 119.875 9.7126 Q119.5625 9.9548 119.5625 10.2829 Q119.5625 10.4861 119.6875 10.6423 Q119.8281 10.8142 120.0938 10.9236 Q120.25 10.9861 121.0312 11.1892 Q122.1562 11.5017 122.5938 11.6892 Q123.0312 11.8767 123.2812 12.2361 Q123.5312 12.5954 123.5312 13.1423 Q123.5312 13.6736 123.2266 14.1345 Q122.9219 14.5954 122.3438 14.8532 Q121.7656 15.1111 121.0312 15.1111 Q119.8125 15.1111 119.1797 14.6032 Q118.5469 14.0954 118.375 13.1111 ZM125.2344 14.9704 L125.2344 14.1111 L129.2031 9.5642 Q128.5156 9.5954 128 9.5954 L125.4688 9.5954 L125.4688 8.7517 L130.5625 8.7517 L130.5625 9.4392 L127.1875 13.3923 L126.5312 14.1111 Q127.25 14.0642 127.8594 14.0642 L130.75 14.0642 L130.75 14.9704 L125.2344 14.9704 ZM133.0938 14.0329 L133.25 14.9548 Q132.7969 15.0486 132.4531 15.0486 Q131.875 15.0486 131.5625 14.8689 Q131.25 14.6892 131.1172 14.3923 Q130.9844 14.0954 130.9844 13.1423 L130.9844 9.5642 L130.2188 9.5642 L130.2188 8.7517 L130.9844 8.7517 L130.9844 7.2048 L132.0312 6.5798 L132.0312 8.7517 L133.0938 8.7517 L133.0938 9.5642 L132.0312 9.5642 L132.0312 13.2048 Q132.0312 13.6579 132.0859 13.7829 Q132.1406 13.9079 132.2656 13.9861 Q132.3906 14.0642 132.625 14.0642 Q132.8125 14.0642 133.0938 14.0329 ZM137.875 14.9704 L137.875 14.0486 Q137.1406 15.1111 135.8906 15.1111 Q135.3438 15.1111 134.8672 14.9001 Q134.3906 14.6892 134.1562 14.3689 Q133.9219 14.0486 133.8281 13.5798 Q133.7656 13.2829 133.7656 12.5954 L133.7656 8.7517 L134.8281 8.7517 L134.8281 12.2048 Q134.8281 13.0173 134.8906 13.3142 Q134.9844 13.7204 135.3047 13.9626 Q135.625 14.2048 136.1094 14.2048 Q136.5781 14.2048 136.9922 13.9626 Q137.4062 13.7204 137.5859 13.2986 Q137.7656 12.8767 137.7656 12.0798 L137.7656 8.7517 L138.8125 8.7517 L138.8125 14.9704 L137.875 14.9704 ZM140.7969 14.9704 L140.7969 8.7517 L141.7344 8.7517 L141.7344 9.6267 Q142.4219 8.6111 143.7188 8.6111 Q144.2812 8.6111 144.7578 8.8142 Q145.2344 9.0173 145.4688 9.3454 Q145.7031 9.6736 145.7969 10.1111 Q145.8438 10.4079 145.8438 11.1423 L145.8438 14.9704 L144.7969 14.9704 L144.7969 11.1892 Q144.7969 10.5329 144.6719 10.2204 Q144.5469 9.9079 144.2344 9.7126 Q143.9219 9.5173 143.5 9.5173 Q142.8281 9.5173 142.3359 9.947 Q141.8438 10.3767 141.8438 11.5642 L141.8438 14.9704 L140.7969 14.9704 ZM147.7969 14.9704 L147.7969 6.3767 L148.8594 6.3767 L148.8594 11.2829 L151.3438 8.7517 L152.7188 8.7517 L150.3281 11.0486 L152.9531 14.9704 L151.6562 14.9704 L149.5938 11.7829 L148.8594 12.5017 L148.8594 14.9704 L147.7969 14.9704 ZM154.0625 14.9704 L154.0625 13.7673 L155.2656 13.7673 L155.2656 14.9704 Q155.2656 15.6267 155.0312 16.0407 Q154.7969 16.4548 154.2969 16.6736 L154 16.2204 Q154.3281 16.0798 154.4844 15.7907 Q154.6406 15.5017 154.6719 14.9704 L154.0625 14.9704 Z" style="clip-path:url(#clipPath11); stroke:none;" />
      <path d="M6.0938 28.0329 L6.25 28.9548 Q5.7969 29.0486 5.4531 29.0486 Q4.875 29.0486 4.5625 28.8689 Q4.25 28.6892 4.1172 28.3923 Q3.9844 28.0954 3.9844 27.1423 L3.9844 23.5642 L3.2188 23.5642 L3.2188 22.7517 L3.9844 22.7517 L3.9844 21.2048 L5.0312 20.5798 L5.0312 22.7517 L6.0938 22.7517 L6.0938 23.5642 L5.0312 23.5642 L5.0312 27.2048 Q5.0312 27.6579 5.0859 27.7829 Q5.1406 27.9079 5.2656 27.9861 Q5.3906 28.0642 5.625 28.0642 Q5.8125 28.0642 6.0938 28.0329 ZM10.875 28.9704 L10.875 28.0486 Q10.1406 29.1111 8.8906 29.1111 Q8.3438 29.1111 7.8672 28.9001 Q7.3906 28.6892 7.1562 28.3689 Q6.9219 28.0486 6.8281 27.5798 Q6.7656 27.2829 6.7656 26.5954 L6.7656 22.7517 L7.8281 22.7517 L7.8281 26.2048 Q7.8281 27.0173 7.8906 27.3142 Q7.9844 27.7204 8.3047 27.9626 Q8.625 28.2048 9.1094 28.2048 Q9.5781 28.2048 9.9922 27.9626 Q10.4062 27.7204 10.5859 27.2986 Q10.7656 26.8767 10.7656 26.0798 L10.7656 22.7517 L11.8125 22.7517 L11.8125 28.9704 L10.875 28.9704 ZM13.7656 28.9704 L13.7656 20.3767 L14.8281 20.3767 L14.8281 28.9704 L13.7656 28.9704 ZM20.8594 28.2048 Q20.2656 28.7048 19.7266 28.9079 Q19.1875 29.1111 18.5625 29.1111 Q17.5312 29.1111 16.9844 28.6111 Q16.4375 28.1111 16.4375 27.3298 Q16.4375 26.8767 16.6406 26.4939 Q16.8438 26.1111 17.1875 25.8845 Q17.5312 25.6579 17.9531 25.5486 Q18.25 25.4548 18.8906 25.3767 Q20.1562 25.2361 20.7656 25.0173 Q20.7656 24.7986 20.7656 24.7517 Q20.7656 24.0954 20.4688 23.8298 Q20.0625 23.4861 19.2656 23.4861 Q18.5312 23.4861 18.1719 23.7439 Q17.8125 24.0017 17.6406 24.6579 L16.6094 24.5173 Q16.75 23.8611 17.0781 23.4548 Q17.4062 23.0486 18.0156 22.8298 Q18.625 22.6111 19.4219 22.6111 Q20.2188 22.6111 20.7188 22.7986 Q21.2188 22.9861 21.4531 23.2673 Q21.6875 23.5486 21.7812 23.9861 Q21.8281 24.2517 21.8281 24.9548 L21.8281 26.3611 Q21.8281 27.8298 21.8984 28.2204 Q21.9688 28.6111 22.1719 28.9704 L21.0625 28.9704 Q20.9062 28.6423 20.8594 28.2048 ZM20.7656 25.8454 Q20.1875 26.0798 19.0469 26.2517 Q18.3906 26.3454 18.125 26.4626 Q17.8594 26.5798 17.7109 26.7986 Q17.5625 27.0173 17.5625 27.2986 Q17.5625 27.7204 17.8828 28.0017 Q18.2031 28.2829 18.8125 28.2829 Q19.4219 28.2829 19.8984 28.0173 Q20.375 27.7517 20.5938 27.2829 Q20.7656 26.9236 20.7656 26.2361 L20.7656 25.8454 ZM23.7812 21.6111 L23.7812 20.3767 L24.8438 20.3767 L24.8438 21.6111 L23.7812 21.6111 ZM22.4531 31.3923 L22.6406 30.4861 Q22.9688 30.5642 23.1406 30.5642 Q23.4688 30.5642 23.625 30.3532 Q23.7812 30.1423 23.7812 29.2829 L23.7812 22.7517 L24.8438 22.7517 L24.8438 29.3142 Q24.8438 30.4548 24.5469 30.9079 Q24.1562 31.5017 23.2812 31.5017 Q22.8438 31.5017 22.4531 31.3923 ZM30.8281 28.9704 L30.8281 28.1892 Q30.2344 29.1111 29.0938 29.1111 Q28.3438 29.1111 27.7188 28.697 Q27.0938 28.2829 26.75 27.5486 Q26.4062 26.8142 26.4062 25.8611 Q26.4062 24.9392 26.7188 24.1736 Q27.0312 23.4079 27.6562 23.0095 Q28.2812 22.6111 29.0469 22.6111 Q29.6094 22.6111 30.0469 22.8454 Q30.4844 23.0798 30.7656 23.4548 L30.7656 20.3767 L31.8125 20.3767 L31.8125 28.9704 L30.8281 28.9704 ZM27.5 25.8611 Q27.5 27.0642 28 27.6501 Q28.5 28.2361 29.1875 28.2361 Q29.875 28.2361 30.3594 27.6736 Q30.8438 27.1111 30.8438 25.9548 Q30.8438 24.6736 30.3516 24.0798 Q29.8594 23.4861 29.1406 23.4861 Q28.4375 23.4861 27.9688 24.0564 Q27.5 24.6267 27.5 25.8611 ZM33.4062 25.8611 Q33.4062 24.1267 34.3594 23.2986 Q35.1562 22.6111 36.3125 22.6111 Q37.5938 22.6111 38.4141 23.447 Q39.2344 24.2829 39.2344 25.7673 Q39.2344 26.9704 38.875 27.6579 Q38.5156 28.3454 37.8203 28.7282 Q37.125 29.1111 36.3125 29.1111 Q35.0156 29.1111 34.2109 28.2751 Q33.4062 27.4392 33.4062 25.8611 ZM34.4844 25.8611 Q34.4844 27.0486 35.0078 27.6423 Q35.5312 28.2361 36.3125 28.2361 Q37.1094 28.2361 37.625 27.6423 Q38.1406 27.0486 38.1406 25.8298 Q38.1406 24.6736 37.6172 24.0798 Q37.0938 23.4861 36.3125 23.4861 Q35.5312 23.4861 35.0078 24.072 Q34.4844 24.6579 34.4844 25.8611 ZM40.7969 28.9704 L40.7969 22.7517 L41.7344 22.7517 L41.7344 23.6267 Q42.4219 22.6111 43.7188 22.6111 Q44.2812 22.6111 44.7578 22.8142 Q45.2344 23.0173 45.4688 23.3454 Q45.7031 23.6736 45.7969 24.1111 Q45.8438 24.4079 45.8438 25.1423 L45.8438 28.9704 L44.7969 28.9704 L44.7969 25.1892 Q44.7969 24.5329 44.6719 24.2204 Q44.5469 23.9079 44.2344 23.7126 Q43.9219 23.5173 43.5 23.5173 Q42.8281 23.5173 42.3359 23.947 Q41.8438 24.3767 41.8438 25.5642 L41.8438 28.9704 L40.7969 28.9704 ZM47.7969 28.9704 L47.7969 20.3767 L48.8594 20.3767 L48.8594 25.2829 L51.3438 22.7517 L52.7188 22.7517 L50.3281 25.0486 L52.9531 28.9704 L51.6562 28.9704 L49.5938 25.7829 L48.8594 26.5017 L48.8594 28.9704 L47.7969 28.9704 ZM58.0469 26.9704 L59.1406 27.0954 Q58.8906 28.0486 58.1875 28.5798 Q57.4844 29.1111 56.4062 29.1111 Q55.0469 29.1111 54.2422 28.2673 Q53.4375 27.4236 53.4375 25.9079 Q53.4375 24.3454 54.25 23.4782 Q55.0625 22.6111 56.3438 22.6111 Q57.5938 22.6111 58.3828 23.4548 Q59.1719 24.2986 59.1719 25.8454 Q59.1719 25.9392 59.1719 26.1267 L54.5312 26.1267 Q54.5938 27.1579 55.1094 27.697 Q55.625 28.2361 56.4062 28.2361 Q56.9844 28.2361 57.3984 27.9314 Q57.8125 27.6267 58.0469 26.9704 ZM54.5938 25.2673 L58.0625 25.2673 Q58 24.4704 57.6719 24.0798 Q57.1562 23.4704 56.3594 23.4704 Q55.625 23.4704 55.1328 23.9548 Q54.6406 24.4392 54.5938 25.2673 ZM55.125 20.9704 L55.9062 19.3298 L57.2969 19.3298 L56 20.9704 L55.125 20.9704 ZM60.7969 31.3611 L60.7969 22.7517 L61.75 22.7517 L61.75 23.5486 Q62.0938 23.0798 62.5234 22.8454 Q62.9531 22.6111 63.5625 22.6111 Q64.3594 22.6111 64.9688 23.0173 Q65.5781 23.4236 65.8828 24.1736 Q66.1875 24.9236 66.1875 25.8142 Q66.1875 26.7673 65.8516 27.5329 Q65.5156 28.2986 64.8594 28.7048 Q64.2031 29.1111 63.4844 29.1111 Q62.9531 29.1111 62.5312 28.8845 Q62.1094 28.6579 61.8438 28.3298 L61.8438 31.3611 L60.7969 31.3611 ZM61.75 25.8923 Q61.75 27.0954 62.2344 27.6657 Q62.7188 28.2361 63.4062 28.2361 Q64.1094 28.2361 64.6094 27.6423 Q65.1094 27.0486 65.1094 25.7986 Q65.1094 24.6111 64.625 24.0251 Q64.1406 23.4392 63.4531 23.4392 Q62.7812 23.4392 62.2656 24.0642 Q61.75 24.6892 61.75 25.8923 ZM67.7969 31.3611 L67.7969 22.7517 L68.75 22.7517 L68.75 23.5486 Q69.0938 23.0798 69.5234 22.8454 Q69.9531 22.6111 70.5625 22.6111 Q71.3594 22.6111 71.9688 23.0173 Q72.5781 23.4236 72.8828 24.1736 Q73.1875 24.9236 73.1875 25.8142 Q73.1875 26.7673 72.8516 27.5329 Q72.5156 28.2986 71.8594 28.7048 Q71.2031 29.1111 70.4844 29.1111 Q69.9531 29.1111 69.5312 28.8845 Q69.1094 28.6579 68.8438 28.3298 L68.8438 31.3611 L67.7969 31.3611 ZM68.75 25.8923 Q68.75 27.0954 69.2344 27.6657 Q69.7188 28.2361 70.4062 28.2361 Q71.1094 28.2361 71.6094 27.6423 Q72.1094 27.0486 72.1094 25.7986 Q72.1094 24.6111 71.625 24.0251 Q71.1406 23.4392 70.4531 23.4392 Q69.7812 23.4392 69.2656 24.0642 Q68.75 24.6892 68.75 25.8923 ZM79.0469 26.9704 L80.1406 27.0954 Q79.8906 28.0486 79.1875 28.5798 Q78.4844 29.1111 77.4062 29.1111 Q76.0469 29.1111 75.2422 28.2673 Q74.4375 27.4236 74.4375 25.9079 Q74.4375 24.3454 75.25 23.4782 Q76.0625 22.6111 77.3438 22.6111 Q78.5938 22.6111 79.3828 23.4548 Q80.1719 24.2986 80.1719 25.8454 Q80.1719 25.9392 80.1719 26.1267 L75.5312 26.1267 Q75.5938 27.1579 76.1094 27.697 Q76.625 28.2361 77.4062 28.2361 Q77.9844 28.2361 78.3984 27.9314 Q78.8125 27.6267 79.0469 26.9704 ZM75.5938 25.2673 L79.0625 25.2673 Q79 24.4704 78.6719 24.0798 Q78.1562 23.4704 77.3594 23.4704 Q76.625 23.4704 76.1328 23.9548 Q75.6406 24.4392 75.5938 25.2673 ZM81.7969 28.9704 L81.7969 22.7517 L82.7344 22.7517 L82.7344 23.6267 Q83.4219 22.6111 84.7188 22.6111 Q85.2812 22.6111 85.7578 22.8142 Q86.2344 23.0173 86.4688 23.3454 Q86.7031 23.6736 86.7969 24.1111 Q86.8438 24.4079 86.8438 25.1423 L86.8438 28.9704 L85.7969 28.9704 L85.7969 25.1892 Q85.7969 24.5329 85.6719 24.2204 Q85.5469 23.9079 85.2344 23.7126 Q84.9219 23.5173 84.5 23.5173 Q83.8281 23.5173 83.3359 23.947 Q82.8438 24.3767 82.8438 25.5642 L82.8438 28.9704 L81.7969 28.9704 ZM95.8594 28.2048 Q95.2656 28.7048 94.7266 28.9079 Q94.1875 29.1111 93.5625 29.1111 Q92.5312 29.1111 91.9844 28.6111 Q91.4375 28.1111 91.4375 27.3298 Q91.4375 26.8767 91.6406 26.4939 Q91.8438 26.1111 92.1875 25.8845 Q92.5312 25.6579 92.9531 25.5486 Q93.25 25.4548 93.8906 25.3767 Q95.1562 25.2361 95.7656 25.0173 Q95.7656 24.7986 95.7656 24.7517 Q95.7656 24.0954 95.4688 23.8298 Q95.0625 23.4861 94.2656 23.4861 Q93.5312 23.4861 93.1719 23.7439 Q92.8125 24.0017 92.6406 24.6579 L91.6094 24.5173 Q91.75 23.8611 92.0781 23.4548 Q92.4062 23.0486 93.0156 22.8298 Q93.625 22.6111 94.4219 22.6111 Q95.2188 22.6111 95.7188 22.7986 Q96.2188 22.9861 96.4531 23.2673 Q96.6875 23.5486 96.7812 23.9861 Q96.8281 24.2517 96.8281 24.9548 L96.8281 26.3611 Q96.8281 27.8298 96.8984 28.2204 Q96.9688 28.6111 97.1719 28.9704 L96.0625 28.9704 Q95.9062 28.6423 95.8594 28.2048 ZM95.7656 25.8454 Q95.1875 26.0798 94.0469 26.2517 Q93.3906 26.3454 93.125 26.4626 Q92.8594 26.5798 92.7109 26.7986 Q92.5625 27.0173 92.5625 27.2986 Q92.5625 27.7204 92.8828 28.0017 Q93.2031 28.2829 93.8125 28.2829 Q94.4219 28.2829 94.8984 28.0173 Q95.375 27.7517 95.5938 27.2829 Q95.7656 26.9236 95.7656 26.2361 L95.7656 25.8454 ZM101.7812 28.9704 L101.7812 22.7517 L102.7344 22.7517 L102.7344 23.6892 Q103.0938 23.0329 103.3984 22.822 Q103.7031 22.6111 104.0781 22.6111 Q104.6094 22.6111 105.1562 22.9392 L104.7969 23.9236 Q104.4062 23.6892 104.0312 23.6892 Q103.6719 23.6892 103.3984 23.9001 Q103.125 24.1111 103.0156 24.4861 Q102.8281 25.0486 102.8281 25.7048 L102.8281 28.9704 L101.7812 28.9704 ZM110.0469 26.9704 L111.1406 27.0954 Q110.8906 28.0486 110.1875 28.5798 Q109.4844 29.1111 108.4062 29.1111 Q107.0469 29.1111 106.2422 28.2673 Q105.4375 27.4236 105.4375 25.9079 Q105.4375 24.3454 106.25 23.4782 Q107.0625 22.6111 108.3438 22.6111 Q109.5938 22.6111 110.3828 23.4548 Q111.1719 24.2986 111.1719 25.8454 Q111.1719 25.9392 111.1719 26.1267 L106.5312 26.1267 Q106.5938 27.1579 107.1094 27.697 Q107.625 28.2361 108.4062 28.2361 Q108.9844 28.2361 109.3984 27.9314 Q109.8125 27.6267 110.0469 26.9704 ZM106.5938 25.2673 L110.0625 25.2673 Q110 24.4704 109.6719 24.0798 Q109.1562 23.4704 108.3594 23.4704 Q107.625 23.4704 107.1328 23.9548 Q106.6406 24.4392 106.5938 25.2673 ZM107.125 20.9704 L107.9062 19.3298 L109.2969 19.3298 L108 20.9704 L107.125 20.9704 ZM112.5938 29.4861 L113.625 29.6423 Q113.6875 30.1111 113.9844 30.3298 Q114.375 30.6267 115.0469 30.6267 Q115.7812 30.6267 116.1797 30.3298 Q116.5781 30.0329 116.7188 29.5173 Q116.8125 29.1892 116.7969 28.1579 Q116.1094 28.9704 115.0781 28.9704 Q113.7969 28.9704 113.0938 28.0407 Q112.3906 27.1111 112.3906 25.8298 Q112.3906 24.9392 112.7109 24.1814 Q113.0312 23.4236 113.6406 23.0173 Q114.25 22.6111 115.0781 22.6111 Q116.1875 22.6111 116.9062 23.5017 L116.9062 22.7517 L117.875 22.7517 L117.875 28.1267 Q117.875 29.5798 117.5781 30.1892 Q117.2812 30.7986 116.6406 31.1501 Q116 31.5017 115.0625 31.5017 Q113.9531 31.5017 113.2656 31.0017 Q112.5781 30.5017 112.5938 29.4861 ZM113.4688 25.7517 Q113.4688 26.9704 113.9531 27.5329 Q114.4375 28.0954 115.1719 28.0954 Q115.9062 28.0954 116.3984 27.5329 Q116.8906 26.9704 116.8906 25.7829 Q116.8906 24.6423 116.3828 24.0642 Q115.875 23.4861 115.1562 23.4861 Q114.4531 23.4861 113.9609 24.0564 Q113.4688 24.6267 113.4688 25.7517 ZM119.7969 21.5954 L119.7969 20.3767 L120.8594 20.3767 L120.8594 21.5954 L119.7969 21.5954 ZM119.7969 28.9704 L119.7969 22.7517 L120.8594 22.7517 L120.8594 28.9704 L119.7969 28.9704 ZM125.375 27.1111 L126.4062 26.9548 Q126.5 27.5798 126.8984 27.9079 Q127.2969 28.2361 128.0312 28.2361 Q128.75 28.2361 129.1016 27.947 Q129.4531 27.6579 129.4531 27.2517 Q129.4531 26.8923 129.1406 26.6892 Q128.9219 26.5486 128.0625 26.3298 Q126.9062 26.0329 126.4609 25.822 Q126.0156 25.6111 125.7812 25.2361 Q125.5469 24.8611 125.5469 24.3923 Q125.5469 23.9861 125.7344 23.6267 Q125.9219 23.2673 126.25 23.0329 Q126.5 22.8611 126.9219 22.7361 Q127.3438 22.6111 127.8438 22.6111 Q128.5625 22.6111 129.1172 22.822 Q129.6719 23.0329 129.9375 23.3923 Q130.2031 23.7517 130.2969 24.3454 L129.2656 24.4861 Q129.2031 24.0173 128.8672 23.7439 Q128.5312 23.4704 127.9062 23.4704 Q127.1875 23.4704 126.875 23.7126 Q126.5625 23.9548 126.5625 24.2829 Q126.5625 24.4861 126.6875 24.6423 Q126.8281 24.8142 127.0938 24.9236 Q127.25 24.9861 128.0312 25.1892 Q129.1562 25.5017 129.5938 25.6892 Q130.0312 25.8767 130.2812 26.2361 Q130.5312 26.5954 130.5312 27.1423 Q130.5312 27.6736 130.2266 28.1345 Q129.9219 28.5954 129.3438 28.8532 Q128.7656 29.1111 128.0312 29.1111 Q126.8125 29.1111 126.1797 28.6032 Q125.5469 28.0954 125.375 27.1111 ZM132.2344 28.9704 L132.2344 28.1111 L136.2031 23.5642 Q135.5156 23.5954 135 23.5954 L132.4688 23.5954 L132.4688 22.7517 L137.5625 22.7517 L137.5625 23.4392 L134.1875 27.3923 L133.5312 28.1111 Q134.25 28.0642 134.8594 28.0642 L137.75 28.0642 L137.75 28.9704 L132.2344 28.9704 ZM137.7969 21.5954 L137.7969 20.3767 L138.8594 20.3767 L138.8594 21.5954 L137.7969 21.5954 ZM137.7969 28.9704 L137.7969 22.7517 L138.8594 22.7517 L138.8594 28.9704 L137.7969 28.9704 ZM140.7969 28.9704 L140.7969 22.7517 L141.7344 22.7517 L141.7344 23.6267 Q142.0312 23.1579 142.5156 22.8845 Q143 22.6111 143.625 22.6111 Q144.3125 22.6111 144.7578 22.8923 Q145.2031 23.1736 145.375 23.6892 Q146.125 22.6111 147.2969 22.6111 Q148.2344 22.6111 148.7266 23.1189 Q149.2188 23.6267 149.2188 24.7048 L149.2188 28.9704 L148.1719 28.9704 L148.1719 25.0486 Q148.1719 24.4236 148.0703 24.1423 Q147.9688 23.8611 147.7031 23.6892 Q147.4375 23.5173 147.0625 23.5173 Q146.4062 23.5173 145.9766 23.9548 Q145.5469 24.3923 145.5469 25.3611 L145.5469 28.9704 L144.4844 28.9704 L144.4844 24.9236 Q144.4844 24.2204 144.2266 23.8689 Q143.9688 23.5173 143.3906 23.5173 Q142.9375 23.5173 142.5625 23.7517 Q142.1875 23.9861 142.0156 24.4392 Q141.8438 24.8923 141.8438 25.7361 L141.8438 28.9704 L140.7969 28.9704 ZM155.875 28.9704 L155.875 28.0486 Q155.1406 29.1111 153.8906 29.1111 Q153.3438 29.1111 152.8672 28.9001 Q152.3906 28.6892 152.1562 28.3689 Q151.9219 28.0486 151.8281 27.5798 Q151.7656 27.2829 151.7656 26.5954 L151.7656 22.7517 L152.8281 22.7517 L152.8281 26.2048 Q152.8281 27.0173 152.8906 27.3142 Q152.9844 27.7204 153.3047 27.9626 Q153.625 28.2048 154.1094 28.2048 Q154.5781 28.2048 154.9922 27.9626 Q155.4062 27.7204 155.5859 27.2986 Q155.7656 26.8767 155.7656 26.0798 L155.7656 22.7517 L156.8125 22.7517 L156.8125 28.9704 L155.875 28.9704 ZM158.7656 28.9704 L158.7656 20.3767 L159.8281 20.3767 L159.8281 28.9704 L158.7656 28.9704 ZM165.8594 28.2048 Q165.2656 28.7048 164.7266 28.9079 Q164.1875 29.1111 163.5625 29.1111 Q162.5312 29.1111 161.9844 28.6111 Q161.4375 28.1111 161.4375 27.3298 Q161.4375 26.8767 161.6406 26.4939 Q161.8438 26.1111 162.1875 25.8845 Q162.5312 25.6579 162.9531 25.5486 Q163.25 25.4548 163.8906 25.3767 Q165.1562 25.2361 165.7656 25.0173 Q165.7656 24.7986 165.7656 24.7517 Q165.7656 24.0954 165.4688 23.8298 Q165.0625 23.4861 164.2656 23.4861 Q163.5312 23.4861 163.1719 23.7439 Q162.8125 24.0017 162.6406 24.6579 L161.6094 24.5173 Q161.75 23.8611 162.0781 23.4548 Q162.4062 23.0486 163.0156 22.8298 Q163.625 22.6111 164.4219 22.6111 Q165.2188 22.6111 165.7188 22.7986 Q166.2188 22.9861 166.4531 23.2673 Q166.6875 23.5486 166.7812 23.9861 Q166.8281 24.2517 166.8281 24.9548 L166.8281 26.3611 Q166.8281 27.8298 166.8984 28.2204 Q166.9688 28.6111 167.1719 28.9704 L166.0625 28.9704 Q165.9062 28.6423 165.8594 28.2048 ZM165.7656 25.8454 Q165.1875 26.0798 164.0469 26.2517 Q163.3906 26.3454 163.125 26.4626 Q162.8594 26.5798 162.7109 26.7986 Q162.5625 27.0173 162.5625 27.2986 Q162.5625 27.7204 162.8828 28.0017 Q163.2031 28.2829 163.8125 28.2829 Q164.4219 28.2829 164.8984 28.0173 Q165.375 27.7517 165.5938 27.2829 Q165.7656 26.9236 165.7656 26.2361 L165.7656 25.8454 ZM163.125 20.9704 L163.9062 19.3298 L165.2969 19.3298 L164 20.9704 L163.125 20.9704 ZM172.8594 26.6892 L173.8906 26.8298 Q173.7188 27.8923 173.0156 28.5017 Q172.3125 29.1111 171.2969 29.1111 Q170.0156 29.1111 169.2422 28.2751 Q168.4688 27.4392 168.4688 25.8767 Q168.4688 24.8767 168.8047 24.1189 Q169.1406 23.3611 169.8203 22.9861 Q170.5 22.6111 171.3125 22.6111 Q172.3125 22.6111 172.9609 23.1189 Q173.6094 23.6267 173.7969 24.5798 L172.7656 24.7361 Q172.625 24.1111 172.25 23.7907 Q171.875 23.4704 171.3438 23.4704 Q170.5469 23.4704 170.0469 24.0407 Q169.5469 24.6111 169.5469 25.8454 Q169.5469 27.1111 170.0312 27.6736 Q170.5156 28.2361 171.2812 28.2361 Q171.9062 28.2361 172.3203 27.8611 Q172.7344 27.4861 172.8594 26.6892 ZM174.7969 21.5954 L174.7969 20.3767 L175.8594 20.3767 L175.8594 21.5954 L174.7969 21.5954 ZM174.7969 28.9704 L174.7969 22.7517 L175.8594 22.7517 L175.8594 28.9704 L174.7969 28.9704 ZM177.4062 25.8611 Q177.4062 24.1267 178.3594 23.2986 Q179.1562 22.6111 180.3125 22.6111 Q181.5938 22.6111 182.4141 23.447 Q183.2344 24.2829 183.2344 25.7673 Q183.2344 26.9704 182.875 27.6579 Q182.5156 28.3454 181.8203 28.7282 Q181.125 29.1111 180.3125 29.1111 Q179.0156 29.1111 178.2109 28.2751 Q177.4062 27.4392 177.4062 25.8611 ZM178.4844 25.8611 Q178.4844 27.0486 179.0078 27.6423 Q179.5312 28.2361 180.3125 28.2361 Q181.1094 28.2361 181.625 27.6423 Q182.1406 27.0486 182.1406 25.8298 Q182.1406 24.6736 181.6172 24.0798 Q181.0938 23.4861 180.3125 23.4861 Q179.5312 23.4861 179.0078 24.072 Q178.4844 24.6579 178.4844 25.8611 ZM179.125 20.9704 L179.9062 19.3298 L181.2969 19.3298 L180 20.9704 L179.125 20.9704 ZM187.0938 28.0329 L187.25 28.9548 Q186.7969 29.0486 186.4531 29.0486 Q185.875 29.0486 185.5625 28.8689 Q185.25 28.6892 185.1172 28.3923 Q184.9844 28.0954 184.9844 27.1423 L184.9844 23.5642 L184.2188 23.5642 L184.2188 22.7517 L184.9844 22.7517 L184.9844 21.2048 L186.0312 20.5798 L186.0312 22.7517 L187.0938 22.7517 L187.0938 23.5642 L186.0312 23.5642 L186.0312 27.2048 Q186.0312 27.6579 186.0859 27.7829 Q186.1406 27.9079 186.2656 27.9861 Q186.3906 28.0642 186.625 28.0642 Q186.8125 28.0642 187.0938 28.0329 Z" style="clip-path:url(#clipPath11); stroke:none;" />
      <path d="M3.7656 42.9704 L3.7656 34.3767 L4.8281 34.3767 L4.8281 42.9704 L3.7656 42.9704 ZM11.0469 40.9704 L12.1406 41.0954 Q11.8906 42.0486 11.1875 42.5798 Q10.4844 43.1111 9.4062 43.1111 Q8.0469 43.1111 7.2422 42.2673 Q6.4375 41.4236 6.4375 39.9079 Q6.4375 38.3454 7.25 37.4782 Q8.0625 36.6111 9.3438 36.6111 Q10.5938 36.6111 11.3828 37.4548 Q12.1719 38.2986 12.1719 39.8454 Q12.1719 39.9392 12.1719 40.1267 L7.5312 40.1267 Q7.5938 41.1579 8.1094 41.697 Q8.625 42.2361 9.4062 42.2361 Q9.9844 42.2361 10.3984 41.9314 Q10.8125 41.6267 11.0469 40.9704 ZM7.5938 39.2673 L11.0625 39.2673 Q11 38.4704 10.6719 38.0798 Q10.1562 37.4704 9.3594 37.4704 Q8.625 37.4704 8.1328 37.9548 Q7.6406 38.4392 7.5938 39.2673 ZM17.8594 42.2048 Q17.2656 42.7048 16.7266 42.9079 Q16.1875 43.1111 15.5625 43.1111 Q14.5312 43.1111 13.9844 42.6111 Q13.4375 42.1111 13.4375 41.3298 Q13.4375 40.8767 13.6406 40.4939 Q13.8438 40.1111 14.1875 39.8845 Q14.5312 39.6579 14.9531 39.5486 Q15.25 39.4548 15.8906 39.3767 Q17.1562 39.2361 17.7656 39.0173 Q17.7656 38.7986 17.7656 38.7517 Q17.7656 38.0954 17.4688 37.8298 Q17.0625 37.4861 16.2656 37.4861 Q15.5312 37.4861 15.1719 37.7439 Q14.8125 38.0017 14.6406 38.6579 L13.6094 38.5173 Q13.75 37.8611 14.0781 37.4548 Q14.4062 37.0486 15.0156 36.8298 Q15.625 36.6111 16.4219 36.6111 Q17.2188 36.6111 17.7188 36.7986 Q18.2188 36.9861 18.4531 37.2673 Q18.6875 37.5486 18.7812 37.9861 Q18.8281 38.2517 18.8281 38.9548 L18.8281 40.3611 Q18.8281 41.8298 18.8984 42.2204 Q18.9688 42.6111 19.1719 42.9704 L18.0625 42.9704 Q17.9062 42.6423 17.8594 42.2048 ZM17.7656 39.8454 Q17.1875 40.0798 16.0469 40.2517 Q15.3906 40.3454 15.125 40.4626 Q14.8594 40.5798 14.7109 40.7986 Q14.5625 41.0173 14.5625 41.2986 Q14.5625 41.7204 14.8828 42.0017 Q15.2031 42.2829 15.8125 42.2829 Q16.4219 42.2829 16.8984 42.0173 Q17.375 41.7517 17.5938 41.2829 Q17.7656 40.9236 17.7656 40.2361 L17.7656 39.8454 ZM15.125 34.9704 L15.9062 33.3298 L17.2969 33.3298 L16 34.9704 L15.125 34.9704 ZM20.7656 42.9704 L20.7656 34.3767 L21.8281 34.3767 L21.8281 42.9704 L20.7656 42.9704 ZM23.7656 42.9704 L23.7656 34.3767 L24.8281 34.3767 L24.8281 42.9704 L23.7656 42.9704 ZM27.1562 42.9704 L27.1562 36.7517 L28.2188 36.7517 L28.2188 42.9704 L27.1562 42.9704 ZM27.125 34.9704 L27.9062 33.3298 L29.2969 33.3298 L28 34.9704 L27.125 34.9704 ZM32.0938 42.0329 L32.25 42.9548 Q31.7969 43.0486 31.4531 43.0486 Q30.875 43.0486 30.5625 42.8689 Q30.25 42.6892 30.1172 42.3923 Q29.9844 42.0954 29.9844 41.1423 L29.9844 37.5642 L29.2188 37.5642 L29.2188 36.7517 L29.9844 36.7517 L29.9844 35.2048 L31.0312 34.5798 L31.0312 36.7517 L32.0938 36.7517 L32.0938 37.5642 L31.0312 37.5642 L31.0312 41.2048 Q31.0312 41.6579 31.0859 41.7829 Q31.1406 41.9079 31.2656 41.9861 Q31.3906 42.0642 31.625 42.0642 Q31.8125 42.0642 32.0938 42.0329 ZM32.7812 35.6111 L32.7812 34.3767 L33.8438 34.3767 L33.8438 35.6111 L32.7812 35.6111 ZM31.4531 45.3923 L31.6406 44.4861 Q31.9688 44.5642 32.1406 44.5642 Q32.4688 44.5642 32.625 44.3532 Q32.7812 44.1423 32.7812 43.2829 L32.7812 36.7517 L33.8438 36.7517 L33.8438 43.3142 Q33.8438 44.4548 33.5469 44.9079 Q33.1562 45.5017 32.2812 45.5017 Q31.8438 45.5017 31.4531 45.3923 ZM39.875 42.9704 L39.875 42.0486 Q39.1406 43.1111 37.8906 43.1111 Q37.3438 43.1111 36.8672 42.9001 Q36.3906 42.6892 36.1562 42.3689 Q35.9219 42.0486 35.8281 41.5798 Q35.7656 41.2829 35.7656 40.5954 L35.7656 36.7517 L36.8281 36.7517 L36.8281 40.2048 Q36.8281 41.0173 36.8906 41.3142 Q36.9844 41.7204 37.3047 41.9626 Q37.625 42.2048 38.1094 42.2048 Q38.5781 42.2048 38.9922 41.9626 Q39.4062 41.7204 39.5859 41.2986 Q39.7656 40.8767 39.7656 40.0798 L39.7656 36.7517 L40.8125 36.7517 L40.8125 42.9704 L39.875 42.9704 ZM42.7969 42.9704 L42.7969 34.3767 L43.8594 34.3767 L43.8594 39.2829 L46.3438 36.7517 L47.7188 36.7517 L45.3281 39.0486 L47.9531 42.9704 L46.6562 42.9704 L44.5938 39.7829 L43.8594 40.5017 L43.8594 42.9704 L42.7969 42.9704 ZM56.0469 40.9704 L57.1406 41.0954 Q56.8906 42.0486 56.1875 42.5798 Q55.4844 43.1111 54.4062 43.1111 Q53.0469 43.1111 52.2422 42.2673 Q51.4375 41.4236 51.4375 39.9079 Q51.4375 38.3454 52.25 37.4782 Q53.0625 36.6111 54.3438 36.6111 Q55.5938 36.6111 56.3828 37.4548 Q57.1719 38.2986 57.1719 39.8454 Q57.1719 39.9392 57.1719 40.1267 L52.5312 40.1267 Q52.5938 41.1579 53.1094 41.697 Q53.625 42.2361 54.4062 42.2361 Q54.9844 42.2361 55.3984 41.9314 Q55.8125 41.6267 56.0469 40.9704 ZM52.5938 39.2673 L56.0625 39.2673 Q56 38.4704 55.6719 38.0798 Q55.1562 37.4704 54.3594 37.4704 Q53.625 37.4704 53.1328 37.9548 Q52.6406 38.4392 52.5938 39.2673 ZM53.125 34.9704 L53.9062 33.3298 L55.2969 33.3298 L54 34.9704 L53.125 34.9704 ZM58.375 41.1111 L59.4062 40.9548 Q59.5 41.5798 59.8984 41.9079 Q60.2969 42.2361 61.0312 42.2361 Q61.75 42.2361 62.1016 41.947 Q62.4531 41.6579 62.4531 41.2517 Q62.4531 40.8923 62.1406 40.6892 Q61.9219 40.5486 61.0625 40.3298 Q59.9062 40.0329 59.4609 39.822 Q59.0156 39.6111 58.7812 39.2361 Q58.5469 38.8611 58.5469 38.3923 Q58.5469 37.9861 58.7344 37.6267 Q58.9219 37.2673 59.25 37.0329 Q59.5 36.8611 59.9219 36.7361 Q60.3438 36.6111 60.8438 36.6111 Q61.5625 36.6111 62.1172 36.822 Q62.6719 37.0329 62.9375 37.3923 Q63.2031 37.7517 63.2969 38.3454 L62.2656 38.4861 Q62.2031 38.0173 61.8672 37.7439 Q61.5312 37.4704 60.9062 37.4704 Q60.1875 37.4704 59.875 37.7126 Q59.5625 37.9548 59.5625 38.2829 Q59.5625 38.4861 59.6875 38.6423 Q59.8281 38.8142 60.0938 38.9236 Q60.25 38.9861 61.0312 39.1892 Q62.1562 39.5017 62.5938 39.6892 Q63.0312 39.8767 63.2812 40.2361 Q63.5312 40.5954 63.5312 41.1423 Q63.5312 41.6736 63.2266 42.1345 Q62.9219 42.5954 62.3438 42.8532 Q61.7656 43.1111 61.0312 43.1111 Q59.8125 43.1111 59.1797 42.6032 Q58.5469 42.0954 58.375 41.1111 ZM72.875 42.9704 L72.875 42.0486 Q72.1406 43.1111 70.8906 43.1111 Q70.3438 43.1111 69.8672 42.9001 Q69.3906 42.6892 69.1562 42.3689 Q68.9219 42.0486 68.8281 41.5798 Q68.7656 41.2829 68.7656 40.5954 L68.7656 36.7517 L69.8281 36.7517 L69.8281 40.2048 Q69.8281 41.0173 69.8906 41.3142 Q69.9844 41.7204 70.3047 41.9626 Q70.625 42.2048 71.1094 42.2048 Q71.5781 42.2048 71.9922 41.9626 Q72.4062 41.7204 72.5859 41.2986 Q72.7656 40.8767 72.7656 40.0798 L72.7656 36.7517 L73.8125 36.7517 L73.8125 42.9704 L72.875 42.9704 ZM70.125 34.9704 L70.9062 33.3298 L72.2969 33.3298 L71 34.9704 L70.125 34.9704 ZM75.7812 35.6111 L75.7812 34.3767 L76.8438 34.3767 L76.8438 35.6111 L75.7812 35.6111 ZM74.4531 45.3923 L74.6406 44.4861 Q74.9688 44.5642 75.1406 44.5642 Q75.4688 44.5642 75.625 44.3532 Q75.7812 44.1423 75.7812 43.2829 L75.7812 36.7517 L76.8438 36.7517 L76.8438 43.3142 Q76.8438 44.4548 76.5469 44.9079 Q76.1562 45.5017 75.2812 45.5017 Q74.8438 45.5017 74.4531 45.3923 ZM82.8594 42.2048 Q82.2656 42.7048 81.7266 42.9079 Q81.1875 43.1111 80.5625 43.1111 Q79.5312 43.1111 78.9844 42.6111 Q78.4375 42.1111 78.4375 41.3298 Q78.4375 40.8767 78.6406 40.4939 Q78.8438 40.1111 79.1875 39.8845 Q79.5312 39.6579 79.9531 39.5486 Q80.25 39.4548 80.8906 39.3767 Q82.1562 39.2361 82.7656 39.0173 Q82.7656 38.7986 82.7656 38.7517 Q82.7656 38.0954 82.4688 37.8298 Q82.0625 37.4861 81.2656 37.4861 Q80.5312 37.4861 80.1719 37.7439 Q79.8125 38.0017 79.6406 38.6579 L78.6094 38.5173 Q78.75 37.8611 79.0781 37.4548 Q79.4062 37.0486 80.0156 36.8298 Q80.625 36.6111 81.4219 36.6111 Q82.2188 36.6111 82.7188 36.7986 Q83.2188 36.9861 83.4531 37.2673 Q83.6875 37.5486 83.7812 37.9861 Q83.8281 38.2517 83.8281 38.9548 L83.8281 40.3611 Q83.8281 41.8298 83.8984 42.2204 Q83.9688 42.6111 84.1719 42.9704 L83.0625 42.9704 Q82.9062 42.6423 82.8594 42.2048 ZM82.7656 39.8454 Q82.1875 40.0798 81.0469 40.2517 Q80.3906 40.3454 80.125 40.4626 Q79.8594 40.5798 79.7109 40.7986 Q79.5625 41.0173 79.5625 41.2986 Q79.5625 41.7204 79.8828 42.0017 Q80.2031 42.2829 80.8125 42.2829 Q81.4219 42.2829 81.8984 42.0173 Q82.375 41.7517 82.5938 41.2829 Q82.7656 40.9236 82.7656 40.2361 L82.7656 39.8454 ZM88.0938 42.0329 L88.25 42.9548 Q87.7969 43.0486 87.4531 43.0486 Q86.875 43.0486 86.5625 42.8689 Q86.25 42.6892 86.1172 42.3923 Q85.9844 42.0954 85.9844 41.1423 L85.9844 37.5642 L85.2188 37.5642 L85.2188 36.7517 L85.9844 36.7517 L85.9844 35.2048 L87.0312 34.5798 L87.0312 36.7517 L88.0938 36.7517 L88.0938 37.5642 L87.0312 37.5642 L87.0312 41.2048 Q87.0312 41.6579 87.0859 41.7829 Q87.1406 41.9079 87.2656 41.9861 Q87.3906 42.0642 87.625 42.0642 Q87.8125 42.0642 88.0938 42.0329 ZM91.7969 35.5954 L91.7969 34.3767 L92.8594 34.3767 L92.8594 35.5954 L91.7969 35.5954 ZM91.7969 42.9704 L91.7969 36.7517 L92.8594 36.7517 L92.8594 42.9704 L91.7969 42.9704 ZM94.7969 42.9704 L94.7969 36.7517 L95.7344 36.7517 L95.7344 37.6267 Q96.4219 36.6111 97.7188 36.6111 Q98.2812 36.6111 98.7578 36.8142 Q99.2344 37.0173 99.4688 37.3454 Q99.7031 37.6736 99.7969 38.1111 Q99.8438 38.4079 99.8438 39.1423 L99.8438 42.9704 L98.7969 42.9704 L98.7969 39.1892 Q98.7969 38.5329 98.6719 38.2204 Q98.5469 37.9079 98.2344 37.7126 Q97.9219 37.5173 97.5 37.5173 Q96.8281 37.5173 96.3359 37.947 Q95.8438 38.3767 95.8438 39.5642 L95.8438 42.9704 L94.7969 42.9704 ZM105.8281 42.9704 L105.8281 42.1892 Q105.2344 43.1111 104.0938 43.1111 Q103.3438 43.1111 102.7188 42.697 Q102.0938 42.2829 101.75 41.5486 Q101.4062 40.8142 101.4062 39.8611 Q101.4062 38.9392 101.7188 38.1736 Q102.0312 37.4079 102.6562 37.0095 Q103.2812 36.6111 104.0469 36.6111 Q104.6094 36.6111 105.0469 36.8454 Q105.4844 37.0798 105.7656 37.4548 L105.7656 34.3767 L106.8125 34.3767 L106.8125 42.9704 L105.8281 42.9704 ZM102.5 39.8611 Q102.5 41.0642 103 41.6501 Q103.5 42.2361 104.1875 42.2361 Q104.875 42.2361 105.3594 41.6736 Q105.8438 41.1111 105.8438 39.9548 Q105.8438 38.6736 105.3516 38.0798 Q104.8594 37.4861 104.1406 37.4861 Q103.4375 37.4861 102.9688 38.0564 Q102.5 38.6267 102.5 39.8611 ZM109.1562 42.9704 L109.1562 36.7517 L110.2188 36.7517 L110.2188 42.9704 L109.1562 42.9704 ZM109.125 34.9704 L109.9062 33.3298 L111.2969 33.3298 L110 34.9704 L109.125 34.9704 ZM114.0938 42.0329 L114.25 42.9548 Q113.7969 43.0486 113.4531 43.0486 Q112.875 43.0486 112.5625 42.8689 Q112.25 42.6892 112.1172 42.3923 Q111.9844 42.0954 111.9844 41.1423 L111.9844 37.5642 L111.2188 37.5642 L111.2188 36.7517 L111.9844 36.7517 L111.9844 35.2048 L113.0312 34.5798 L113.0312 36.7517 L114.0938 36.7517 L114.0938 37.5642 L113.0312 37.5642 L113.0312 41.2048 Q113.0312 41.6579 113.0859 41.7829 Q113.1406 41.9079 113.2656 41.9861 Q113.3906 42.0642 113.625 42.0642 Q113.8125 42.0642 114.0938 42.0329 ZM118.875 42.9704 L118.875 42.0486 Q118.1406 43.1111 116.8906 43.1111 Q116.3438 43.1111 115.8672 42.9001 Q115.3906 42.6892 115.1562 42.3689 Q114.9219 42.0486 114.8281 41.5798 Q114.7656 41.2829 114.7656 40.5954 L114.7656 36.7517 L115.8281 36.7517 L115.8281 40.2048 Q115.8281 41.0173 115.8906 41.3142 Q115.9844 41.7204 116.3047 41.9626 Q116.625 42.2048 117.1094 42.2048 Q117.5781 42.2048 117.9922 41.9626 Q118.4062 41.7204 118.5859 41.2986 Q118.7656 40.8767 118.7656 40.0798 L118.7656 36.7517 L119.8125 36.7517 L119.8125 42.9704 L118.875 42.9704 ZM121.7969 42.9704 L121.7969 36.7517 L122.7344 36.7517 L122.7344 37.6267 Q123.4219 36.6111 124.7188 36.6111 Q125.2812 36.6111 125.7578 36.8142 Q126.2344 37.0173 126.4688 37.3454 Q126.7031 37.6736 126.7969 38.1111 Q126.8438 38.4079 126.8438 39.1423 L126.8438 42.9704 L125.7969 42.9704 L125.7969 39.1892 Q125.7969 38.5329 125.6719 38.2204 Q125.5469 37.9079 125.2344 37.7126 Q124.9219 37.5173 124.5 37.5173 Q123.8281 37.5173 123.3359 37.947 Q122.8438 38.3767 122.8438 39.5642 L122.8438 42.9704 L121.7969 42.9704 ZM128.7969 42.9704 L128.7969 34.3767 L129.8594 34.3767 L129.8594 39.2829 L132.3438 36.7517 L133.7188 36.7517 L131.3281 39.0486 L133.9531 42.9704 L132.6562 42.9704 L130.5938 39.7829 L129.8594 40.5017 L129.8594 42.9704 L128.7969 42.9704 ZM142.0469 40.9704 L143.1406 41.0954 Q142.8906 42.0486 142.1875 42.5798 Q141.4844 43.1111 140.4062 43.1111 Q139.0469 43.1111 138.2422 42.2673 Q137.4375 41.4236 137.4375 39.9079 Q137.4375 38.3454 138.25 37.4782 Q139.0625 36.6111 140.3438 36.6111 Q141.5938 36.6111 142.3828 37.4548 Q143.1719 38.2986 143.1719 39.8454 Q143.1719 39.9392 143.1719 40.1267 L138.5312 40.1267 Q138.5938 41.1579 139.1094 41.697 Q139.625 42.2361 140.4062 42.2361 Q140.9844 42.2361 141.3984 41.9314 Q141.8125 41.6267 142.0469 40.9704 ZM138.5938 39.2673 L142.0625 39.2673 Q142 38.4704 141.6719 38.0798 Q141.1562 37.4704 140.3594 37.4704 Q139.625 37.4704 139.1328 37.9548 Q138.6406 38.4392 138.5938 39.2673 ZM144.5938 43.4861 L145.625 43.6423 Q145.6875 44.1111 145.9844 44.3298 Q146.375 44.6267 147.0469 44.6267 Q147.7812 44.6267 148.1797 44.3298 Q148.5781 44.0329 148.7188 43.5173 Q148.8125 43.1892 148.7969 42.1579 Q148.1094 42.9704 147.0781 42.9704 Q145.7969 42.9704 145.0938 42.0407 Q144.3906 41.1111 144.3906 39.8298 Q144.3906 38.9392 144.7109 38.1814 Q145.0312 37.4236 145.6406 37.0173 Q146.25 36.6111 147.0781 36.6111 Q148.1875 36.6111 148.9062 37.5017 L148.9062 36.7517 L149.875 36.7517 L149.875 42.1267 Q149.875 43.5798 149.5781 44.1892 Q149.2812 44.7986 148.6406 45.1501 Q148 45.5017 147.0625 45.5017 Q145.9531 45.5017 145.2656 45.0017 Q144.5781 44.5017 144.5938 43.4861 ZM145.4688 39.7517 Q145.4688 40.9704 145.9531 41.5329 Q146.4375 42.0954 147.1719 42.0954 Q147.9062 42.0954 148.3984 41.5329 Q148.8906 40.9704 148.8906 39.7829 Q148.8906 38.6423 148.3828 38.0642 Q147.875 37.4861 147.1562 37.4861 Q146.4531 37.4861 145.9609 38.0564 Q145.4688 38.6267 145.4688 39.7517 ZM151.75 45.3611 L151.625 44.3767 Q151.9688 44.4704 152.2344 44.4704 Q152.5781 44.4704 152.7891 44.3532 Q153 44.2361 153.1406 44.0329 Q153.2344 43.8611 153.4688 43.2361 Q153.4844 43.1579 153.5625 42.9861 L151.1875 36.7517 L152.3281 36.7517 L153.625 40.3454 Q153.875 41.0329 154.0781 41.7986 Q154.2656 41.0642 154.5156 40.3767 L155.8438 36.7517 L156.8906 36.7517 L154.5312 43.0798 Q154.1406 44.0954 153.9375 44.4861 Q153.6562 45.0173 153.2891 45.2595 Q152.9219 45.5017 152.4219 45.5017 Q152.125 45.5017 151.75 45.3611 ZM159.7969 42.9704 L159.7969 36.7517 L160.7344 36.7517 L160.7344 37.6267 Q161.0312 37.1579 161.5156 36.8845 Q162 36.6111 162.625 36.6111 Q163.3125 36.6111 163.7578 36.8923 Q164.2031 37.1736 164.375 37.6892 Q165.125 36.6111 166.2969 36.6111 Q167.2344 36.6111 167.7266 37.1189 Q168.2188 37.6267 168.2188 38.7048 L168.2188 42.9704 L167.1719 42.9704 L167.1719 39.0486 Q167.1719 38.4236 167.0703 38.1423 Q166.9688 37.8611 166.7031 37.6892 Q166.4375 37.5173 166.0625 37.5173 Q165.4062 37.5173 164.9766 37.9548 Q164.5469 38.3923 164.5469 39.3611 L164.5469 42.9704 L163.4844 42.9704 L163.4844 38.9236 Q163.4844 38.2204 163.2266 37.8689 Q162.9688 37.5173 162.3906 37.5173 Q161.9375 37.5173 161.5625 37.7517 Q161.1875 37.9861 161.0156 38.4392 Q160.8438 38.8923 160.8438 39.7361 L160.8438 42.9704 L159.7969 42.9704 ZM174.8594 42.2048 Q174.2656 42.7048 173.7266 42.9079 Q173.1875 43.1111 172.5625 43.1111 Q171.5312 43.1111 170.9844 42.6111 Q170.4375 42.1111 170.4375 41.3298 Q170.4375 40.8767 170.6406 40.4939 Q170.8438 40.1111 171.1875 39.8845 Q171.5312 39.6579 171.9531 39.5486 Q172.25 39.4548 172.8906 39.3767 Q174.1562 39.2361 174.7656 39.0173 Q174.7656 38.7986 174.7656 38.7517 Q174.7656 38.0954 174.4688 37.8298 Q174.0625 37.4861 173.2656 37.4861 Q172.5312 37.4861 172.1719 37.7439 Q171.8125 38.0017 171.6406 38.6579 L170.6094 38.5173 Q170.75 37.8611 171.0781 37.4548 Q171.4062 37.0486 172.0156 36.8298 Q172.625 36.6111 173.4219 36.6111 Q174.2188 36.6111 174.7188 36.7986 Q175.2188 36.9861 175.4531 37.2673 Q175.6875 37.5486 175.7812 37.9861 Q175.8281 38.2517 175.8281 38.9548 L175.8281 40.3611 Q175.8281 41.8298 175.8984 42.2204 Q175.9688 42.6111 176.1719 42.9704 L175.0625 42.9704 Q174.9062 42.6423 174.8594 42.2048 ZM174.7656 39.8454 Q174.1875 40.0798 173.0469 40.2517 Q172.3906 40.3454 172.125 40.4626 Q171.8594 40.5798 171.7109 40.7986 Q171.5625 41.0173 171.5625 41.2986 Q171.5625 41.7204 171.8828 42.0017 Q172.2031 42.2829 172.8125 42.2829 Q173.4219 42.2829 173.8984 42.0173 Q174.375 41.7517 174.5938 41.2829 Q174.7656 40.9236 174.7656 40.2361 L174.7656 39.8454 ZM172.125 34.9704 L172.9062 33.3298 L174.2969 33.3298 L173 34.9704 L172.125 34.9704 ZM177.375 41.1111 L178.4062 40.9548 Q178.5 41.5798 178.8984 41.9079 Q179.2969 42.2361 180.0312 42.2361 Q180.75 42.2361 181.1016 41.947 Q181.4531 41.6579 181.4531 41.2517 Q181.4531 40.8923 181.1406 40.6892 Q180.9219 40.5486 180.0625 40.3298 Q178.9062 40.0329 178.4609 39.822 Q178.0156 39.6111 177.7812 39.2361 Q177.5469 38.8611 177.5469 38.3923 Q177.5469 37.9861 177.7344 37.6267 Q177.9219 37.2673 178.25 37.0329 Q178.5 36.8611 178.9219 36.7361 Q179.3438 36.6111 179.8438 36.6111 Q180.5625 36.6111 181.1172 36.822 Q181.6719 37.0329 181.9375 37.3923 Q182.2031 37.7517 182.2969 38.3454 L181.2656 38.4861 Q181.2031 38.0173 180.8672 37.7439 Q180.5312 37.4704 179.9062 37.4704 Q179.1875 37.4704 178.875 37.7126 Q178.5625 37.9548 178.5625 38.2829 Q178.5625 38.4861 178.6875 38.6423 Q178.8281 38.8142 179.0938 38.9236 Q179.25 38.9861 180.0312 39.1892 Q181.1562 39.5017 181.5938 39.6892 Q182.0312 39.8767 182.2812 40.2361 Q182.5312 40.5954 182.5312 41.1423 Q182.5312 41.6736 182.2266 42.1345 Q181.9219 42.5954 181.3438 42.8532 Q180.7656 43.1111 180.0312 43.1111 Q178.8125 43.1111 178.1797 42.6032 Q177.5469 42.0954 177.375 41.1111 ZM184.7969 35.5954 L184.7969 34.3767 L185.8594 34.3767 L185.8594 35.5954 L184.7969 35.5954 ZM184.7969 42.9704 L184.7969 36.7517 L185.8594 36.7517 L185.8594 42.9704 L184.7969 42.9704 ZM187.7969 42.9704 L187.7969 34.3767 L188.8594 34.3767 L188.8594 39.2829 L191.3438 36.7517 L192.7188 36.7517 L190.3281 39.0486 L192.9531 42.9704 L191.6562 42.9704 L189.5938 39.7829 L188.8594 40.5017 L188.8594 42.9704 L187.7969 42.9704 Z" style="clip-path:url(#clipPath11); stroke:none;" />
      <path d="M7.8594 56.2048 Q7.2656 56.7048 6.7266 56.9079 Q6.1875 57.1111 5.5625 57.1111 Q4.5312 57.1111 3.9844 56.6111 Q3.4375 56.1111 3.4375 55.3298 Q3.4375 54.8767 3.6406 54.4939 Q3.8438 54.1111 4.1875 53.8845 Q4.5312 53.6579 4.9531 53.5486 Q5.25 53.4548 5.8906 53.3767 Q7.1562 53.2361 7.7656 53.0173 Q7.7656 52.7986 7.7656 52.7517 Q7.7656 52.0954 7.4688 51.8298 Q7.0625 51.4861 6.2656 51.4861 Q5.5312 51.4861 5.1719 51.7439 Q4.8125 52.0017 4.6406 52.6579 L3.6094 52.5173 Q3.75 51.8611 4.0781 51.4548 Q4.4062 51.0486 5.0156 50.8298 Q5.625 50.6111 6.4219 50.6111 Q7.2188 50.6111 7.7188 50.7986 Q8.2188 50.9861 8.4531 51.2673 Q8.6875 51.5486 8.7812 51.9861 Q8.8281 52.2517 8.8281 52.9548 L8.8281 54.3611 Q8.8281 55.8298 8.8984 56.2204 Q8.9688 56.6111 9.1719 56.9704 L8.0625 56.9704 Q7.9062 56.6423 7.8594 56.2048 ZM7.7656 53.8454 Q7.1875 54.0798 6.0469 54.2517 Q5.3906 54.3454 5.125 54.4626 Q4.8594 54.5798 4.7109 54.7986 Q4.5625 55.0173 4.5625 55.2986 Q4.5625 55.7204 4.8828 56.0017 Q5.2031 56.2829 5.8125 56.2829 Q6.4219 56.2829 6.8984 56.0173 Q7.375 55.7517 7.5938 55.2829 Q7.7656 54.9236 7.7656 54.2361 L7.7656 53.8454 ZM5.125 48.9704 L5.9062 47.3298 L7.2969 47.3298 L6 48.9704 L5.125 48.9704 ZM10.7812 56.9704 L10.7812 50.7517 L11.7344 50.7517 L11.7344 51.6892 Q12.0938 51.0329 12.3984 50.822 Q12.7031 50.6111 13.0781 50.6111 Q13.6094 50.6111 14.1562 50.9392 L13.7969 51.9236 Q13.4062 51.6892 13.0312 51.6892 Q12.6719 51.6892 12.3984 51.9001 Q12.125 52.1111 12.0156 52.4861 Q11.8281 53.0486 11.8281 53.7048 L11.8281 56.9704 L10.7812 56.9704 ZM18.8594 56.2048 Q18.2656 56.7048 17.7266 56.9079 Q17.1875 57.1111 16.5625 57.1111 Q15.5312 57.1111 14.9844 56.6111 Q14.4375 56.1111 14.4375 55.3298 Q14.4375 54.8767 14.6406 54.4939 Q14.8438 54.1111 15.1875 53.8845 Q15.5312 53.6579 15.9531 53.5486 Q16.25 53.4548 16.8906 53.3767 Q18.1562 53.2361 18.7656 53.0173 Q18.7656 52.7986 18.7656 52.7517 Q18.7656 52.0954 18.4688 51.8298 Q18.0625 51.4861 17.2656 51.4861 Q16.5312 51.4861 16.1719 51.7439 Q15.8125 52.0017 15.6406 52.6579 L14.6094 52.5173 Q14.75 51.8611 15.0781 51.4548 Q15.4062 51.0486 16.0156 50.8298 Q16.625 50.6111 17.4219 50.6111 Q18.2188 50.6111 18.7188 50.7986 Q19.2188 50.9861 19.4531 51.2673 Q19.6875 51.5486 19.7812 51.9861 Q19.8281 52.2517 19.8281 52.9548 L19.8281 54.3611 Q19.8281 55.8298 19.8984 56.2204 Q19.9688 56.6111 20.1719 56.9704 L19.0625 56.9704 Q18.9062 56.6423 18.8594 56.2048 ZM18.7656 53.8454 Q18.1875 54.0798 17.0469 54.2517 Q16.3906 54.3454 16.125 54.4626 Q15.8594 54.5798 15.7109 54.7986 Q15.5625 55.0173 15.5625 55.2986 Q15.5625 55.7204 15.8828 56.0017 Q16.2031 56.2829 16.8125 56.2829 Q17.4219 56.2829 17.8984 56.0173 Q18.375 55.7517 18.5938 55.2829 Q18.7656 54.9236 18.7656 54.2361 L18.7656 53.8454 ZM21.7969 56.9704 L21.7969 50.7517 L22.7344 50.7517 L22.7344 51.6267 Q23.0312 51.1579 23.5156 50.8845 Q24 50.6111 24.625 50.6111 Q25.3125 50.6111 25.7578 50.8923 Q26.2031 51.1736 26.375 51.6892 Q27.125 50.6111 28.2969 50.6111 Q29.2344 50.6111 29.7266 51.1189 Q30.2188 51.6267 30.2188 52.7048 L30.2188 56.9704 L29.1719 56.9704 L29.1719 53.0486 Q29.1719 52.4236 29.0703 52.1423 Q28.9688 51.8611 28.7031 51.6892 Q28.4375 51.5173 28.0625 51.5173 Q27.4062 51.5173 26.9766 51.9548 Q26.5469 52.3923 26.5469 53.3611 L26.5469 56.9704 L25.4844 56.9704 L25.4844 52.9236 Q25.4844 52.2204 25.2266 51.8689 Q24.9688 51.5173 24.3906 51.5173 Q23.9375 51.5173 23.5625 51.7517 Q23.1875 51.9861 23.0156 52.4392 Q22.8438 52.8923 22.8438 53.7361 L22.8438 56.9704 L21.7969 56.9704 ZM32.7969 56.9704 L32.7969 48.3767 L33.8594 48.3767 L33.8594 53.2829 L36.3438 50.7517 L37.7188 50.7517 L35.3281 53.0486 L37.9531 56.9704 L36.6562 56.9704 L34.5938 53.7829 L33.8594 54.5017 L33.8594 56.9704 L32.7969 56.9704 ZM38.4062 53.8611 Q38.4062 52.1267 39.3594 51.2986 Q40.1562 50.6111 41.3125 50.6111 Q42.5938 50.6111 43.4141 51.447 Q44.2344 52.2829 44.2344 53.7673 Q44.2344 54.9704 43.875 55.6579 Q43.5156 56.3454 42.8203 56.7282 Q42.125 57.1111 41.3125 57.1111 Q40.0156 57.1111 39.2109 56.2751 Q38.4062 55.4392 38.4062 53.8611 ZM39.4844 53.8611 Q39.4844 55.0486 40.0078 55.6423 Q40.5312 56.2361 41.3125 56.2361 Q42.1094 56.2361 42.625 55.6423 Q43.1406 55.0486 43.1406 53.8298 Q43.1406 52.6736 42.6172 52.0798 Q42.0938 51.4861 41.3125 51.4861 Q40.5312 51.4861 40.0078 52.072 Q39.4844 52.6579 39.4844 53.8611 ZM39.8125 48.9704 L39.8125 47.7673 L40.9062 47.7673 L40.9062 48.9704 L39.8125 48.9704 ZM42 48.9704 L42 47.7673 L43.0938 47.7673 L43.0938 48.9704 L42 48.9704 ZM45.7812 56.9704 L45.7812 50.7517 L46.7344 50.7517 L46.7344 51.6892 Q47.0938 51.0329 47.3984 50.822 Q47.7031 50.6111 48.0781 50.6111 Q48.6094 50.6111 49.1562 50.9392 L48.7969 51.9236 Q48.4062 51.6892 48.0312 51.6892 Q47.6719 51.6892 47.3984 51.9001 Q47.125 52.1111 47.0156 52.4861 Q46.8281 53.0486 46.8281 53.7048 L46.8281 56.9704 L45.7812 56.9704 ZM49.7812 56.9704 L49.7812 50.7517 L50.7344 50.7517 L50.7344 51.6892 Q51.0938 51.0329 51.3984 50.822 Q51.7031 50.6111 52.0781 50.6111 Q52.6094 50.6111 53.1562 50.9392 L52.7969 51.9236 Q52.4062 51.6892 52.0312 51.6892 Q51.6719 51.6892 51.3984 51.9001 Q51.125 52.1111 51.0156 52.4861 Q50.8281 53.0486 50.8281 53.7048 L50.8281 56.9704 L49.7812 56.9704 ZM58.0469 54.9704 L59.1406 55.0954 Q58.8906 56.0486 58.1875 56.5798 Q57.4844 57.1111 56.4062 57.1111 Q55.0469 57.1111 54.2422 56.2673 Q53.4375 55.4236 53.4375 53.9079 Q53.4375 52.3454 54.25 51.4782 Q55.0625 50.6111 56.3438 50.6111 Q57.5938 50.6111 58.3828 51.4548 Q59.1719 52.2986 59.1719 53.8454 Q59.1719 53.9392 59.1719 54.1267 L54.5312 54.1267 Q54.5938 55.1579 55.1094 55.697 Q55.625 56.2361 56.4062 56.2361 Q56.9844 56.2361 57.3984 55.9314 Q57.8125 55.6267 58.0469 54.9704 ZM54.5938 53.2673 L58.0625 53.2673 Q58 52.4704 57.6719 52.0798 Q57.1562 51.4704 56.3594 51.4704 Q55.625 51.4704 55.1328 51.9548 Q54.6406 52.4392 54.5938 53.2673 ZM60.7656 56.9704 L60.7656 48.3767 L61.8281 48.3767 L61.8281 56.9704 L60.7656 56.9704 ZM64.0938 56.9704 L64.0938 55.7673 L65.2969 55.7673 L65.2969 56.9704 L64.0938 56.9704 Z" style="clip-path:url(#clipPath11); stroke:none;" />
    </g>
    <g transform="translate(30,94)" style="font-size:11; stroke-linecap:butt; text-rendering:geometricPrecision; font-family:sans-serif; stroke-linejoin:round; font-weight:bold; stroke-miterlimit:0;">
      <rect x="0" y="0" width="180" style="clip-path:url(#clipPath12); fill:none;" height="120" />
    </g>
    <g transform="translate(30,94)" style="font-size:11; fill:white; text-rendering:geometricPrecision; font-family:sans-serif; stroke:white; font-weight:bold;">
      <path d="M26 0 L26 9 L20 17 L0 17 L0 0 Z" style="clip-path:url(#clipPath12); stroke:none;" />
    </g>
    <g transform="translate(30,94)" style="font-size:11; stroke-linecap:butt; text-rendering:geometricPrecision; font-family:sans-serif; stroke-linejoin:round; font-weight:bold; stroke-miterlimit:0;">
      <path d="M26 0 L26 9 L20 17 L0 17 L0 0 Z" style="fill:none; clip-path:url(#clipPath12);" />
    </g>
    <g transform="translate(30,94)" style="text-rendering:geometricPrecision; font-size:11; font-weight:bold; font-family:sans-serif;">
      <text x="4" y="12" style="clip-path:url(#clipPath13); stroke:none;" xml:space="preserve">opt</text>
    </g>
    <g transform="translate(30,112)" style="font-size:11; fill:white; text-rendering:geometricPrecision; font-family:sans-serif; stroke:white;">
      <rect x="28" y="5" width="125" style="clip-path:url(#clipPath14); stroke:none;" height="15" />
    </g>
    <g style="text-rendering:geometricPrecision; font-size:11; font-family:sans-serif;" transform="translate(58,117)">
      <text x="13" y="12" style="clip-path:url(#clipPath15); stroke:none;" xml:space="preserve">[oldSimulation != null]</text>
    </g>
    <g style="text-rendering:geometricPrecision; font-size:11; font-family:sans-serif;" transform="translate(395,364)">
      <text x="11" y="12" style="clip-path:url(#clipPath17); stroke:none;" xml:space="preserve">Áramkört leíró fájl feldolgozása</text>
    </g>
    <g style="text-rendering:geometricPrecision; font-size:11; font-family:sans-serif;" transform="translate(190,234)">
      <text x="11" y="12" style="clip-path:url(#clipPath18); stroke:none;" xml:space="preserve">newSimulation :</text>
      <text x="24" y="27" style="clip-path:url(#clipPath18); stroke:none;" xml:space="preserve">Simulation</text>
    </g>
    <g style="text-rendering:geometricPrecision; font-size:11; font-family:sans-serif;" transform="translate(360,284)">
      <text x="10" y="12" style="clip-path:url(#clipPath19); stroke:none;" xml:space="preserve">: Parser</text>
    </g>
    <g style="text-rendering:geometricPrecision; font-size:11; font-family:sans-serif;" transform="translate(130,34)">
      <text x="8" y="12" style="clip-path:url(#clipPath20); stroke:none;" xml:space="preserve">oldSimulation :</text>
      <text x="19" y="27" style="clip-path:url(#clipPath20); stroke:none;" xml:space="preserve">Simulation</text>
    </g>
    <g style="text-rendering:geometricPrecision; font-size:11; font-family:sans-serif;" transform="translate(11,69)">
      <text x="9" y="12" style="clip-path:url(#clipPath21); stroke:none;" xml:space="preserve">Felhasználó</text>
    </g>
    <g transform="translate(4,114)" style="font-size:11; stroke-linecap:butt; text-rendering:geometricPrecision; font-family:sans-serif; stroke-linejoin:round;">
      <line x1="50" x2="167" y1="50" style="clip-path:url(#clipPath22); fill:none;" y2="50" />
      <polygon style="clip-path:url(#clipPath22); stroke:none;" points=" 167 50 155 44 155 56" />
      <polygon style="fill:none; clip-path:url(#clipPath22);" points=" 167 50 155 44 155 56" />
    </g>
    <g transform="translate(194,254)" style="font-size:11; stroke-linecap:butt; stroke-dashoffset:1; text-rendering:geometricPrecision; font-family:sans-serif; stroke-linejoin:round; stroke-dasharray:5;">
      <line x1="50" x2="166" y1="50" style="clip-path:url(#clipPath23); fill:none;" y2="50" />
      <line x1="166" x2="154" y1="50" style="stroke-dashoffset:0; clip-path:url(#clipPath23); fill:none; stroke-dasharray:none;" y2="44" />
      <line x1="166" x2="154" y1="50" style="stroke-dashoffset:0; clip-path:url(#clipPath23); fill:none; stroke-dasharray:none;" y2="56" />
    </g>
    <g transform="translate(4,394)" style="font-size:11; stroke-linecap:butt; text-rendering:geometricPrecision; font-family:sans-serif; stroke-linejoin:round;">
      <line x1="50" x2="232" y1="50" style="clip-path:url(#clipPath24); fill:none;" y2="50" />
      <polygon style="clip-path:url(#clipPath24); stroke:none;" points=" 232 50 220 44 220 56" />
      <polygon style="fill:none; clip-path:url(#clipPath24);" points=" 232 50 220 44 220 56" />
    </g>
    <g transform="translate(4,204)" style="font-size:11; stroke-linecap:butt; stroke-dashoffset:1; text-rendering:geometricPrecision; font-family:sans-serif; stroke-linejoin:round; stroke-dasharray:5;">
      <line x1="50" x2="186" y1="50" style="clip-path:url(#clipPath25); fill:none;" y2="50" />
      <line x1="186" x2="174" y1="50" style="stroke-dashoffset:0; clip-path:url(#clipPath25); fill:none; stroke-dasharray:none;" y2="44" />
      <line x1="186" x2="174" y1="50" style="stroke-dashoffset:0; clip-path:url(#clipPath25); fill:none; stroke-dasharray:none;" y2="56" />
    </g>
    <g transform="translate(194,294)" style="font-size:11; stroke-linecap:butt; text-rendering:geometricPrecision; font-family:sans-serif; stroke-linejoin:round;">
      <line x1="50" x2="192" y1="50" style="clip-path:url(#clipPath26); fill:none;" y2="50" />
      <polygon style="clip-path:url(#clipPath26); stroke:none;" points=" 192 50 180 44 180 56" />
      <polygon style="fill:none; clip-path:url(#clipPath26);" points=" 192 50 180 44 180 56" />
    </g>
    <g transform="translate(194,324)" style="font-size:11; stroke-linecap:butt; text-rendering:geometricPrecision; font-family:sans-serif; stroke-linejoin:round; stroke-dasharray:8,3; stroke-miterlimit:0;">
      <line x1="192" x2="50" y1="50" style="clip-path:url(#clipPath26); fill:none;" y2="50" />
      <line x1="50" x2="62" y1="50" style="clip-path:url(#clipPath26); fill:none; stroke-dasharray:none; stroke-miterlimit:10;" y2="56" />
      <line x1="50" x2="62" y1="50" style="clip-path:url(#clipPath26); fill:none; stroke-dasharray:none; stroke-miterlimit:10;" y2="44" />
    </g>
    <g transform="translate(194,334)" style="font-size:11; stroke-linecap:butt; text-rendering:geometricPrecision; font-family:sans-serif; stroke-linejoin:round;">
      <line x1="50" x2="76" y1="50" style="clip-path:url(#clipPath27); fill:none;" y2="50" />
      <line x1="76" x2="76" y1="50" style="clip-path:url(#clipPath27); fill:none;" y2="70" />
      <line x1="76" x2="50" y1="70" style="clip-path:url(#clipPath27); fill:none;" y2="70" />
      <polygon style="clip-path:url(#clipPath27); stroke:none;" points=" 50 70 62 76 62 64" />
      <polygon style="fill:none; clip-path:url(#clipPath27);" points=" 50 70 62 76 62 64" />
    </g>
    <g transform="translate(344,304)" style="font-size:11; stroke-linecap:butt; text-rendering:geometricPrecision; font-family:sans-serif; stroke-linejoin:round;">
      <line x1="50" x2="136" y1="50" style="clip-path:url(#clipPath28); fill:none;" y2="50" />
      <polygon style="clip-path:url(#clipPath28); stroke:none;" points=" 136 50 124 44 124 56" />
      <polygon style="fill:none; clip-path:url(#clipPath28);" points=" 136 50 124 44 124 56" />
    </g>
    <g style="text-rendering:geometricPrecision; font-size:11; font-family:sans-serif;" transform="translate(417,334)">
      <text x="11" y="12" style="clip-path:url(#clipPath29); stroke:none;" xml:space="preserve">4.1:</text>
    </g>
    <g style="text-rendering:geometricPrecision; font-size:11; font-family:sans-serif;" transform="translate(270,384)">
      <text x="10" y="12" style="clip-path:url(#clipPath30); stroke:none;" xml:space="preserve">5: setCircuit(circuit)</text>
    </g>
    <g style="text-rendering:geometricPrecision; font-size:11; font-family:sans-serif;" transform="translate(280,354)">
      <text x="10" y="12" style="clip-path:url(#clipPath31); stroke:none;" xml:space="preserve">4.2: circuit</text>
    </g>
    <g style="text-rendering:geometricPrecision; font-size:11; font-family:sans-serif;" transform="translate(255,324)">
      <text x="10" y="12" style="clip-path:url(#clipPath32); stroke:none;" xml:space="preserve">4: parse(fileName)</text>
    </g>
    <g style="text-rendering:geometricPrecision; font-size:11; font-family:sans-serif;" transform="translate(50,224)">
      <text x="39" y="12" style="clip-path:url(#clipPath33); stroke:none;" xml:space="preserve">&lt;&lt;create&gt;&gt;</text>
      <text x="12" y="27" style="clip-path:url(#clipPath33); stroke:none;" xml:space="preserve">2: Simulation(fileName)</text>
    </g>
    <g style="text-rendering:geometricPrecision; font-size:11; font-family:sans-serif;" transform="translate(70,424)">
      <text x="13" y="12" style="clip-path:url(#clipPath34); stroke:none;" xml:space="preserve">6: setState(RUNNING)</text>
    </g>
    <g style="text-rendering:geometricPrecision; font-size:11; font-family:sans-serif;" transform="translate(255,274)">
      <text x="10" y="12" style="clip-path:url(#clipPath35); stroke:none;" xml:space="preserve">&lt;&lt;create&gt;&gt;</text>
      <text x="12" y="27" style="clip-path:url(#clipPath35); stroke:none;" xml:space="preserve">3: Parser()</text>
    </g>
    <g style="text-rendering:geometricPrecision; font-size:11; font-family:sans-serif;" transform="translate(50,144)">
      <text x="13" y="12" style="clip-path:url(#clipPath36); stroke:none;" xml:space="preserve">1: setState(STOPPED)</text>
    </g>
  </g>
</svg>
