<?xml version="1.0" encoding="UTF-8"?>

<!DOCTYPE svg PUBLIC '-//W3C//DTD SVG 1.0//EN' 'http://www.w3.org/TR/2001/REC-SVG-20010904/DTD/svg10.dtd'>
<svg style="fill-opacity:1; color-rendering:auto; color-interpolation:auto; stroke:black; text-rendering:auto; stroke-linecap:square; stroke-miterlimit:10; stroke-opacity:1; shape-rendering:auto; fill:black; stroke-dasharray:none; font-weight:normal; stroke-width:1; font-family:&apos;Dialog&apos;; font-style:normal; stroke-linejoin:miter; font-size:12; stroke-dashoffset:0; image-rendering:auto;" xmlns="http://www.w3.org/2000/svg" width="604" xmlns:xlink="http://www.w3.org/1999/xlink" height="1238">
  <!--Generated by the Batik Graphics2D SVG Generator-->
  <defs id="genericDefs" />
  <g>
    <defs id="defs1">
      <clipPath clipPathUnits="userSpaceOnUse" id="clipPath1">
        <path d="M-3 -3 L167 -3 L167 1197 L-3 1197 L-3 -3 Z" />
      </clipPath>
      <clipPath clipPathUnits="userSpaceOnUse" id="clipPath2">
        <path d="M-3 -3 L187 -3 L187 1017 L-3 1017 L-3 -3 Z" />
      </clipPath>
      <clipPath clipPathUnits="userSpaceOnUse" id="clipPath3">
        <path d="M-3 -3 L67 -3 L67 1197 L-3 1197 L-3 -3 Z" />
      </clipPath>
      <clipPath clipPathUnits="userSpaceOnUse" id="clipPath4">
        <path d="M-3 -3 L67 -3 L67 1137 L-3 1137 L-3 -3 Z" />
      </clipPath>
      <clipPath clipPathUnits="userSpaceOnUse" id="clipPath5">
        <path d="M-3 -3 L27 -3 L27 27 L-3 27 L-3 -3 Z" />
      </clipPath>
      <clipPath clipPathUnits="userSpaceOnUse" id="clipPath6">
        <path d="M-3 -3 L15 -3 L15 1137 L-3 1137 L-3 -3 Z" />
      </clipPath>
      <clipPath clipPathUnits="userSpaceOnUse" id="clipPath7">
        <path d="M-3 -3 L15 -3 L15 26 L-3 26 L-3 -3 Z" />
      </clipPath>
      <clipPath clipPathUnits="userSpaceOnUse" id="clipPath8">
        <path d="M-3 -3 L15 -3 L15 837 L-3 837 L-3 -3 Z" />
      </clipPath>
      <clipPath clipPathUnits="userSpaceOnUse" id="clipPath9">
        <path d="M-3 -3 L67 -3 L67 457 L-3 457 L-3 -3 Z" />
      </clipPath>
      <clipPath clipPathUnits="userSpaceOnUse" id="clipPath10">
        <path d="M-3 -3 L67 -3 L67 338 L-3 338 L-3 -3 Z" />
      </clipPath>
      <clipPath clipPathUnits="userSpaceOnUse" id="clipPath11">
        <path d="M-3 -3 L427 -3 L427 497 L-3 497 L-3 -3 Z" />
      </clipPath>
      <clipPath clipPathUnits="userSpaceOnUse" id="clipPath12">
        <path d="M0 0 L33 0 L33 18 L0 18 L0 0 Z" />
      </clipPath>
      <clipPath clipPathUnits="userSpaceOnUse" id="clipPath13">
        <path d="M-3 -3 L477 -3 L477 737 L-3 737 L-3 -3 Z" />
      </clipPath>
      <clipPath clipPathUnits="userSpaceOnUse" id="clipPath14">
        <path d="M0 0 L27 0 L27 18 L0 18 L0 0 Z" />
      </clipPath>
      <clipPath clipPathUnits="userSpaceOnUse" id="clipPath15">
        <path d="M-3 -3 L477 -3 L477 177 L-3 177 L-3 -3 Z" />
      </clipPath>
      <clipPath clipPathUnits="userSpaceOnUse" id="clipPath16">
        <path d="M-3 -3 L507 -3 L507 807 L-3 807 L-3 -3 Z" />
      </clipPath>
      <clipPath clipPathUnits="userSpaceOnUse" id="clipPath17">
        <path d="M-3 -3 L15 -3 L15 57 L-3 57 L-3 -3 Z" />
      </clipPath>
      <clipPath clipPathUnits="userSpaceOnUse" id="clipPath18">
        <path d="M-3 -3 L15 -3 L15 47 L-3 47 L-3 -3 Z" />
      </clipPath>
      <clipPath clipPathUnits="userSpaceOnUse" id="clipPath19">
        <path d="M-3 -3 L437 -3 L437 617 L-3 617 L-3 -3 Z" />
      </clipPath>
      <clipPath clipPathUnits="userSpaceOnUse" id="clipPath20">
        <path d="M0 0 L23 0 L23 18 L0 18 L0 0 Z" />
      </clipPath>
      <clipPath clipPathUnits="userSpaceOnUse" id="clipPath21">
        <path d="M-3 -3 L15 -3 L15 30 L-3 30 L-3 -3 Z" />
      </clipPath>
      <clipPath clipPathUnits="userSpaceOnUse" id="clipPath22">
        <path d="M-3 -3 L16 -3 L16 22 L-3 22 L-3 -3 Z" />
      </clipPath>
      <clipPath clipPathUnits="userSpaceOnUse" id="clipPath23">
        <path d="M-3 -3 L15 -3 L15 28 L-3 28 L-3 -3 Z" />
      </clipPath>
      <clipPath clipPathUnits="userSpaceOnUse" id="clipPath24">
        <path d="M-3 -3 L15 -3 L15 32 L-3 32 L-3 -3 Z" />
      </clipPath>
      <clipPath clipPathUnits="userSpaceOnUse" id="clipPath25">
        <path d="M-3 -3 L427 -3 L427 479 L-3 479 L-3 -3 Z" />
      </clipPath>
      <clipPath clipPathUnits="userSpaceOnUse" id="clipPath26">
        <path d="M0 0 L312 0 L312 60 L0 60 L0 0 Z" />
      </clipPath>
      <clipPath clipPathUnits="userSpaceOnUse" id="clipPath27">
        <path d="M0 0 L0 4 L420 4 L420 0 Z" />
      </clipPath>
      <clipPath clipPathUnits="userSpaceOnUse" id="clipPath28">
        <path d="M-3 -3 L387 -3 L387 129 L-3 129 L-3 -3 Z" />
      </clipPath>
      <clipPath clipPathUnits="userSpaceOnUse" id="clipPath29">
        <path d="M0 0 L0 4 L380 4 L380 0 Z" />
      </clipPath>
      <clipPath clipPathUnits="userSpaceOnUse" id="clipPath30">
        <path d="M-3 -3 L387 -3 L387 137 L-3 137 L-3 -3 Z" />
      </clipPath>
      <clipPath clipPathUnits="userSpaceOnUse" id="clipPath31">
        <path d="M0 0 L44 0 L44 15 L0 15 L0 0 Z" />
      </clipPath>
      <clipPath clipPathUnits="userSpaceOnUse" id="clipPath32">
        <path d="M-3 -3 L387 -3 L387 128 L-3 128 L-3 -3 Z" />
      </clipPath>
      <clipPath clipPathUnits="userSpaceOnUse" id="clipPath33">
        <path d="M0 0 L143 0 L143 15 L0 15 L0 0 Z" />
      </clipPath>
      <clipPath clipPathUnits="userSpaceOnUse" id="clipPath34">
        <path d="M-3 -3 L437 -3 L437 530 L-3 530 L-3 -3 Z" />
      </clipPath>
      <clipPath clipPathUnits="userSpaceOnUse" id="clipPath35">
        <path d="M0 0 L46 0 L46 15 L0 15 L0 0 Z" />
      </clipPath>
      <clipPath clipPathUnits="userSpaceOnUse" id="clipPath36">
        <path d="M0 0 L0 4 L430 4 L430 0 Z" />
      </clipPath>
      <clipPath clipPathUnits="userSpaceOnUse" id="clipPath37">
        <path d="M-3 -3 L437 -3 L437 77 L-3 77 L-3 -3 Z" />
      </clipPath>
      <clipPath clipPathUnits="userSpaceOnUse" id="clipPath38">
        <path d="M0 0 L230 0 L230 15 L0 15 L0 0 Z" />
      </clipPath>
      <clipPath clipPathUnits="userSpaceOnUse" id="clipPath39">
        <path d="M-3 -3 L477 -3 L477 719 L-3 719 L-3 -3 Z" />
      </clipPath>
      <clipPath clipPathUnits="userSpaceOnUse" id="clipPath40">
        <path d="M0 0 L183 0 L183 15 L0 15 L0 0 Z" />
      </clipPath>
      <clipPath clipPathUnits="userSpaceOnUse" id="clipPath41">
        <path d="M0 0 L0 4 L470 4 L470 0 Z" />
      </clipPath>
      <clipPath clipPathUnits="userSpaceOnUse" id="clipPath42">
        <path d="M-3 -3 L507 -3 L507 789 L-3 789 L-3 -3 Z" />
      </clipPath>
      <clipPath clipPathUnits="userSpaceOnUse" id="clipPath43">
        <path d="M0 0 L244 0 L244 15 L0 15 L0 0 Z" />
      </clipPath>
      <clipPath clipPathUnits="userSpaceOnUse" id="clipPath44">
        <path d="M0 0 L0 4 L500 4 L500 0 Z" />
      </clipPath>
      <clipPath clipPathUnits="userSpaceOnUse" id="clipPath45">
        <path d="M-3 -3 L387 -3 L387 397 L-3 397 L-3 -3 Z" />
      </clipPath>
      <clipPath clipPathUnits="userSpaceOnUse" id="clipPath46">
        <path d="M-3 -3 L477 -3 L477 159 L-3 159 L-3 -3 Z" />
      </clipPath>
      <clipPath clipPathUnits="userSpaceOnUse" id="clipPath47">
        <path d="M0 0 L170 0 L170 15 L0 15 L0 0 Z" />
      </clipPath>
      <clipPath clipPathUnits="userSpaceOnUse" id="clipPath48">
        <path d="M-3 -3 L107 -3 L107 117 L-3 117 L-3 -3 Z" />
      </clipPath>
      <clipPath clipPathUnits="userSpaceOnUse" id="clipPath49">
        <path d="M0 0 L0 110 L100 110 L100 0 Z" />
      </clipPath>
      <clipPath clipPathUnits="userSpaceOnUse" id="clipPath50">
        <path d="M-49 -15 L98 -15 L98 30 L-49 30 L-49 -15 Z" />
      </clipPath>
      <clipPath clipPathUnits="userSpaceOnUse" id="clipPath51">
        <path d="M-160 -15 L320 -15 L320 30 L-160 30 L-160 -15 Z" />
      </clipPath>
      <clipPath clipPathUnits="userSpaceOnUse" id="clipPath52">
        <path d="M-60 -15 L120 -15 L120 30 L-60 30 L-60 -15 Z" />
      </clipPath>
      <clipPath clipPathUnits="userSpaceOnUse" id="clipPath53">
        <path d="M-180 -15 L360 -15 L360 30 L-180 30 L-180 -15 Z" />
      </clipPath>
      <clipPath clipPathUnits="userSpaceOnUse" id="clipPath54">
        <path d="M-122 -14 L244 -14 L244 28 L-122 28 L-122 -14 Z" />
      </clipPath>
      <clipPath clipPathUnits="userSpaceOnUse" id="clipPath55">
        <path d="M-60 -30 L120 -30 L120 60 L-60 60 L-60 -30 Z" />
      </clipPath>
      <clipPath clipPathUnits="userSpaceOnUse" id="clipPath56">
        <path d="M0 0 L315 0 L315 129 L0 129 L0 0 Z" />
      </clipPath>
      <clipPath clipPathUnits="userSpaceOnUse" id="clipPath57">
        <path d="M0 0 L235 0 L235 129 L0 129 L0 0 Z" />
      </clipPath>
      <clipPath clipPathUnits="userSpaceOnUse" id="clipPath58">
        <path d="M0 0 L155 0 L155 149 L0 149 L0 0 Z" />
      </clipPath>
      <clipPath clipPathUnits="userSpaceOnUse" id="clipPath59">
        <path d="M0 0 L365 0 L365 129 L0 129 L0 0 Z" />
      </clipPath>
      <clipPath clipPathUnits="userSpaceOnUse" id="clipPath60">
        <path d="M0 0 L342 0 L342 129 L0 129 L0 0 Z" />
      </clipPath>
      <clipPath clipPathUnits="userSpaceOnUse" id="clipPath61">
        <path d="M0 0 L232 0 L232 129 L0 129 L0 0 Z" />
      </clipPath>
      <clipPath clipPathUnits="userSpaceOnUse" id="clipPath62">
        <path d="M0 0 L448 0 L448 129 L0 129 L0 0 Z" />
      </clipPath>
      <clipPath clipPathUnits="userSpaceOnUse" id="clipPath63">
        <path d="M0 0 L222 0 L222 129 L0 129 L0 0 Z" />
      </clipPath>
      <clipPath clipPathUnits="userSpaceOnUse" id="clipPath64">
        <path d="M0 0 L338 0 L338 129 L0 129 L0 0 Z" />
      </clipPath>
      <clipPath clipPathUnits="userSpaceOnUse" id="clipPath65">
        <path d="M0 0 L225 0 L225 129 L0 129 L0 0 Z" />
      </clipPath>
      <clipPath clipPathUnits="userSpaceOnUse" id="clipPath66">
        <path d="M0 0 L208 0 L208 148 L0 148 L0 0 Z" />
      </clipPath>
      <clipPath clipPathUnits="userSpaceOnUse" id="clipPath67">
        <path d="M-61 -15 L122 -15 L122 30 L-61 30 L-61 -15 Z" />
      </clipPath>
      <clipPath clipPathUnits="userSpaceOnUse" id="clipPath68">
        <path d="M-106 -15 L212 -15 L212 30 L-106 30 L-106 -15 Z" />
      </clipPath>
      <clipPath clipPathUnits="userSpaceOnUse" id="clipPath69">
        <path d="M-105 -15 L210 -15 L210 30 L-105 30 L-105 -15 Z" />
      </clipPath>
      <clipPath clipPathUnits="userSpaceOnUse" id="clipPath70">
        <path d="M-172 -15 L344 -15 L344 30 L-172 30 L-172 -15 Z" />
      </clipPath>
      <clipPath clipPathUnits="userSpaceOnUse" id="clipPath71">
        <path d="M-284 -15 L568 -15 L568 30 L-284 30 L-284 -15 Z" />
      </clipPath>
      <clipPath clipPathUnits="userSpaceOnUse" id="clipPath72">
        <path d="M-132 -15 L264 -15 L264 30 L-132 30 L-132 -15 Z" />
      </clipPath>
      <clipPath clipPathUnits="userSpaceOnUse" id="clipPath73">
        <path d="M-256 -15 L512 -15 L512 30 L-256 30 L-256 -15 Z" />
      </clipPath>
      <clipPath clipPathUnits="userSpaceOnUse" id="clipPath74">
        <path d="M-114 -15 L228 -15 L228 30 L-114 30 L-114 -15 Z" />
      </clipPath>
      <clipPath clipPathUnits="userSpaceOnUse" id="clipPath75">
        <path d="M-76 -30 L152 -30 L152 60 L-76 60 L-76 -30 Z" />
      </clipPath>
      <clipPath clipPathUnits="userSpaceOnUse" id="clipPath76">
        <path d="M-115 -15 L230 -15 L230 30 L-115 30 L-115 -15 Z" />
      </clipPath>
      <clipPath clipPathUnits="userSpaceOnUse" id="clipPath77">
        <path d="M-118 -15 L236 -15 L236 30 L-118 30 L-118 -15 Z" />
      </clipPath>
      <clipPath clipPathUnits="userSpaceOnUse" id="clipPath78">
        <path d="M-178 -15 L356 -15 L356 30 L-178 30 L-178 -15 Z" />
      </clipPath>
      <clipPath clipPathUnits="userSpaceOnUse" id="clipPath79">
        <path d="M-136 -30 L272 -30 L272 60 L-136 60 L-136 -30 Z" />
      </clipPath>
      <clipPath clipPathUnits="userSpaceOnUse" id="clipPath80">
        <path d="M-98 -15 L196 -15 L196 30 L-98 30 L-98 -15 Z" />
      </clipPath>
      <clipPath clipPathUnits="userSpaceOnUse" id="clipPath81">
        <path d="M-110 -15 L220 -15 L220 30 L-110 30 L-110 -15 Z" />
      </clipPath>
      <clipPath clipPathUnits="userSpaceOnUse" id="clipPath82">
        <path d="M-80 -30 L160 -30 L160 60 L-80 60 L-80 -30 Z" />
      </clipPath>
    </defs>
    <g style="fill:white; text-rendering:geometricPrecision; stroke:white;">
      <rect x="0" y="0" width="604" style="stroke:none;" height="1238" />
      <rect x="0" y="38" transform="translate(0,-38)" width="603" style="fill:none; stroke:black;" height="1237" />
      <text x="7" y="55" transform="translate(0,-38)" style="fill:black; stroke:none; font-weight:bold;" xml:space="preserve">sd</text>
      <text x="28" y="55" transform="translate(0,-38)" style="fill:black; stroke:none;" xml:space="preserve">Áramkör betöltése fájlból</text>
      <line transform="translate(0,-38)" x1="0" x2="164" y1="62" style="fill:none; stroke:black;" y2="62" />
      <line transform="translate(0,-38)" x1="170" x2="170" y1="38" style="fill:none; stroke:black;" y2="52" />
      <line transform="translate(0,-38)" x1="170" x2="164" y1="52" style="fill:none; stroke:black;" y2="62" />
    </g>
    <g transform="translate(430,34)" style="font-size:11; fill:white; text-rendering:geometricPrecision; font-family:sans-serif; stroke:white;">
      <rect x="0" y="0" width="159" style="clip-path:url(#clipPath1); stroke:none;" height="35" />
    </g>
    <g transform="translate(430,34)" style="font-size:11; stroke-linecap:butt; text-rendering:geometricPrecision; font-family:sans-serif; stroke-linejoin:round; stroke-miterlimit:0;">
      <rect x="0" y="0" width="159" style="clip-path:url(#clipPath1); fill:none;" height="35" />
      <line x1="79" x2="79" y1="35" style="clip-path:url(#clipPath1); fill:none; stroke-linejoin:bevel; stroke-dasharray:8,3;" y2="1190" />
    </g>
    <g transform="translate(400,214)" style="font-size:11; fill:white; text-rendering:geometricPrecision; font-family:sans-serif; stroke:white;">
      <rect x="0" y="0" width="179" style="clip-path:url(#clipPath2); stroke:none;" height="35" />
    </g>
    <g transform="translate(400,214)" style="font-size:11; stroke-linecap:butt; text-rendering:geometricPrecision; font-family:sans-serif; stroke-linejoin:round; stroke-miterlimit:0;">
      <rect x="0" y="0" width="179" style="clip-path:url(#clipPath2); fill:none;" height="35" />
      <line x1="89" x2="89" y1="35" style="clip-path:url(#clipPath2); fill:none; stroke-linejoin:bevel; stroke-dasharray:8,3;" y2="1010" />
    </g>
    <g transform="translate(130,34)" style="font-size:11; fill:white; text-rendering:geometricPrecision; font-family:sans-serif; stroke:white;">
      <rect x="0" y="0" width="59" style="clip-path:url(#clipPath3); stroke:none;" height="35" />
    </g>
    <g transform="translate(130,34)" style="font-size:11; stroke-linecap:butt; text-rendering:geometricPrecision; font-family:sans-serif; stroke-linejoin:round; stroke-miterlimit:0;">
      <rect x="0" y="0" width="59" style="clip-path:url(#clipPath3); fill:none;" height="35" />
      <line x1="29" x2="29" y1="35" style="clip-path:url(#clipPath3); fill:none; stroke-linejoin:bevel; stroke-dasharray:8,3;" y2="1190" />
    </g>
    <g transform="translate(350,94)" style="font-size:11; fill:white; text-rendering:geometricPrecision; font-family:sans-serif; stroke:white;">
      <rect x="0" y="0" width="59" style="clip-path:url(#clipPath4); stroke:none;" height="35" />
    </g>
    <g transform="translate(350,94)" style="font-size:11; stroke-linecap:butt; text-rendering:geometricPrecision; font-family:sans-serif; stroke-linejoin:round; stroke-miterlimit:0;">
      <rect x="0" y="0" width="59" style="clip-path:url(#clipPath4); fill:none;" height="35" />
      <line x1="29" x2="29" y1="35" style="clip-path:url(#clipPath4); fill:none; stroke-linejoin:bevel; stroke-dasharray:8,3;" y2="1130" />
    </g>
    <g transform="translate(40,84)" style="font-size:11; fill:silver; text-rendering:geometricPrecision; font-family:sans-serif; stroke:silver;">
      <rect x="0" y="0" width="19" style="clip-path:url(#clipPath5); fill:none;" height="19" />
    </g>
    <g transform="translate(156,74)" style="font-size:11; fill:white; text-rendering:geometricPrecision; font-family:sans-serif; stroke:white;">
      <rect x="0" y="0" width="8" style="clip-path:url(#clipPath6); stroke:none;" height="1130" />
    </g>
    <g transform="translate(156,74)" style="font-size:11; stroke-linecap:butt; text-rendering:geometricPrecision; font-family:sans-serif; stroke-linejoin:round; stroke-miterlimit:0;">
      <rect x="0" y="0" width="8" style="clip-path:url(#clipPath6); fill:none;" height="1130" />
    </g>
    <g transform="translate(376,274)" style="font-size:11; fill:white; text-rendering:geometricPrecision; font-family:sans-serif; stroke:white;">
      <rect x="0" y="0" width="8" style="clip-path:url(#clipPath7); stroke:none;" height="19" />
    </g>
    <g transform="translate(376,274)" style="font-size:11; stroke-linecap:butt; text-rendering:geometricPrecision; font-family:sans-serif; stroke-linejoin:round; stroke-miterlimit:0;">
      <rect x="0" y="0" width="8" style="clip-path:url(#clipPath7); fill:none;" height="19" />
    </g>
    <g transform="translate(160,330)" style="font-size:11; fill:white; text-rendering:geometricPrecision; font-family:sans-serif; stroke:white;">
      <rect x="0" y="0" width="8" style="clip-path:url(#clipPath8); stroke:none;" height="830" />
    </g>
    <g transform="translate(160,330)" style="font-size:11; stroke-linecap:butt; text-rendering:geometricPrecision; font-family:sans-serif; stroke-linejoin:round; stroke-miterlimit:0;">
      <rect x="0" y="0" width="8" style="clip-path:url(#clipPath8); fill:none;" height="830" />
    </g>
    <g transform="translate(270,774)" style="font-size:11; fill:white; text-rendering:geometricPrecision; font-family:sans-serif; stroke:white;">
      <rect x="0" y="0" width="59" style="clip-path:url(#clipPath9); stroke:none;" height="35" />
    </g>
    <g transform="translate(270,774)" style="font-size:11; stroke-linecap:butt; text-rendering:geometricPrecision; font-family:sans-serif; stroke-linejoin:round; stroke-miterlimit:0;">
      <rect x="0" y="0" width="59" style="clip-path:url(#clipPath9); fill:none;" height="35" />
      <line x1="29" x2="29" y1="35" style="clip-path:url(#clipPath9); fill:none; stroke-linejoin:bevel; stroke-dasharray:8,3;" y2="450" />
    </g>
    <g transform="translate(260,893)" style="font-size:11; fill:white; text-rendering:geometricPrecision; font-family:sans-serif; stroke:white;">
      <rect x="0" y="0" width="59" style="clip-path:url(#clipPath10); stroke:none;" height="35" />
    </g>
    <g transform="translate(260,893)" style="font-size:11; stroke-linecap:butt; text-rendering:geometricPrecision; font-family:sans-serif; stroke-linejoin:round; stroke-miterlimit:0;">
      <rect x="0" y="0" width="59" style="clip-path:url(#clipPath10); fill:none;" height="35" />
      <line x1="29" x2="29" y1="35" style="clip-path:url(#clipPath10); fill:none; stroke-linejoin:bevel; stroke-dasharray:8,3;" y2="331" />
    </g>
    <g transform="translate(130,624)" style="font-size:11; stroke-linecap:butt; text-rendering:geometricPrecision; font-family:sans-serif; stroke-linejoin:round; font-weight:bold; stroke-miterlimit:0;">
      <rect x="0" y="0" width="420" style="clip-path:url(#clipPath11); fill:none;" height="490" />
    </g>
    <g transform="translate(130,624)" style="font-size:11; fill:white; text-rendering:geometricPrecision; font-family:sans-serif; stroke:white; font-weight:bold;">
      <path d="M32 0 L32 9 L26 17 L0 17 L0 0 Z" style="clip-path:url(#clipPath11); stroke:none;" />
    </g>
    <g transform="translate(130,624)" style="font-size:11; stroke-linecap:butt; text-rendering:geometricPrecision; font-family:sans-serif; stroke-linejoin:round; font-weight:bold; stroke-miterlimit:0;">
      <path d="M32 0 L32 9 L26 17 L0 17 L0 0 Z" style="fill:none; clip-path:url(#clipPath11);" />
    </g>
    <g transform="translate(130,624)" style="text-rendering:geometricPrecision; font-size:11; font-weight:bold; font-family:sans-serif;">
      <text x="4" y="12" style="clip-path:url(#clipPath12); stroke:none;" xml:space="preserve">loop</text>
    </g>
    <g transform="translate(90,404)" style="font-size:11; stroke-linecap:butt; text-rendering:geometricPrecision; font-family:sans-serif; stroke-linejoin:round; font-weight:bold; stroke-miterlimit:0;">
      <rect x="0" y="0" width="470" style="clip-path:url(#clipPath13); fill:none;" height="730" />
    </g>
    <g transform="translate(90,404)" style="font-size:11; fill:white; text-rendering:geometricPrecision; font-family:sans-serif; stroke:white; font-weight:bold;">
      <path d="M26 0 L26 9 L20 17 L0 17 L0 0 Z" style="clip-path:url(#clipPath13); stroke:none;" />
    </g>
    <g transform="translate(90,404)" style="font-size:11; stroke-linecap:butt; text-rendering:geometricPrecision; font-family:sans-serif; stroke-linejoin:round; font-weight:bold; stroke-miterlimit:0;">
      <path d="M26 0 L26 9 L20 17 L0 17 L0 0 Z" style="fill:none; clip-path:url(#clipPath13);" />
    </g>
    <g transform="translate(90,404)" style="text-rendering:geometricPrecision; font-size:11; font-weight:bold; font-family:sans-serif;">
      <text x="4" y="12" style="clip-path:url(#clipPath14); stroke:none;" xml:space="preserve">opt</text>
    </g>
    <g transform="translate(120,134)" style="font-size:11; stroke-linecap:butt; text-rendering:geometricPrecision; font-family:sans-serif; stroke-linejoin:round; font-weight:bold; stroke-miterlimit:0;">
      <rect x="0" y="0" width="470" style="clip-path:url(#clipPath15); fill:none;" height="170" />
    </g>
    <g transform="translate(120,134)" style="font-size:11; fill:white; text-rendering:geometricPrecision; font-family:sans-serif; stroke:white; font-weight:bold;">
      <path d="M32 0 L32 9 L26 17 L0 17 L0 0 Z" style="clip-path:url(#clipPath15); stroke:none;" />
    </g>
    <g transform="translate(120,134)" style="font-size:11; stroke-linecap:butt; text-rendering:geometricPrecision; font-family:sans-serif; stroke-linejoin:round; font-weight:bold; stroke-miterlimit:0;">
      <path d="M32 0 L32 9 L26 17 L0 17 L0 0 Z" style="fill:none; clip-path:url(#clipPath15);" />
    </g>
    <g transform="translate(120,134)" style="text-rendering:geometricPrecision; font-size:11; font-weight:bold; font-family:sans-serif;">
      <text x="4" y="12" style="clip-path:url(#clipPath12); stroke:none;" xml:space="preserve">loop</text>
    </g>
    <g transform="translate(70,354)" style="font-size:11; stroke-linecap:butt; text-rendering:geometricPrecision; font-family:sans-serif; stroke-linejoin:round; font-weight:bold; stroke-miterlimit:0;">
      <rect x="0" y="0" width="500" style="clip-path:url(#clipPath16); fill:none;" height="800" />
    </g>
    <g transform="translate(70,354)" style="font-size:11; fill:white; text-rendering:geometricPrecision; font-family:sans-serif; stroke:white; font-weight:bold;">
      <path d="M32 0 L32 9 L26 17 L0 17 L0 0 Z" style="clip-path:url(#clipPath16); stroke:none;" />
    </g>
    <g transform="translate(70,354)" style="font-size:11; stroke-linecap:butt; text-rendering:geometricPrecision; font-family:sans-serif; stroke-linejoin:round; font-weight:bold; stroke-miterlimit:0;">
      <path d="M32 0 L32 9 L26 17 L0 17 L0 0 Z" style="fill:none; clip-path:url(#clipPath16);" />
    </g>
    <g transform="translate(70,354)" style="text-rendering:geometricPrecision; font-size:11; font-weight:bold; font-family:sans-serif;">
      <text x="4" y="12" style="clip-path:url(#clipPath12); stroke:none;" xml:space="preserve">loop</text>
    </g>
    <g transform="translate(376,1002)" style="font-size:11; fill:white; text-rendering:geometricPrecision; font-family:sans-serif; stroke:white;">
      <rect x="0" y="0" width="8" style="clip-path:url(#clipPath17); stroke:none;" height="50" />
    </g>
    <g transform="translate(376,1002)" style="font-size:11; stroke-linecap:butt; text-rendering:geometricPrecision; font-family:sans-serif; stroke-linejoin:round; stroke-miterlimit:0;">
      <rect x="0" y="0" width="8" style="clip-path:url(#clipPath17); fill:none;" height="50" />
    </g>
    <g transform="translate(376,464)" style="font-size:11; fill:white; text-rendering:geometricPrecision; font-family:sans-serif; stroke:white;">
      <rect x="0" y="0" width="8" style="clip-path:url(#clipPath18); stroke:none;" height="40" />
    </g>
    <g transform="translate(376,464)" style="font-size:11; stroke-linecap:butt; text-rendering:geometricPrecision; font-family:sans-serif; stroke-linejoin:round; stroke-miterlimit:0;">
      <rect x="0" y="0" width="8" style="clip-path:url(#clipPath18); fill:none;" height="40" />
    </g>
    <g transform="translate(120,514)" style="font-size:11; stroke-linecap:butt; text-rendering:geometricPrecision; font-family:sans-serif; stroke-linejoin:round; font-weight:bold; stroke-miterlimit:0;">
      <rect x="0" y="0" width="430" style="clip-path:url(#clipPath19); fill:none;" height="610" />
    </g>
    <g transform="translate(120,514)" style="font-size:11; fill:white; text-rendering:geometricPrecision; font-family:sans-serif; stroke:white; font-weight:bold;">
      <path d="M22 0 L22 9 L16 17 L0 17 L0 0 Z" style="clip-path:url(#clipPath19); stroke:none;" />
    </g>
    <g transform="translate(120,514)" style="font-size:11; stroke-linecap:butt; text-rendering:geometricPrecision; font-family:sans-serif; stroke-linejoin:round; font-weight:bold; stroke-miterlimit:0;">
      <path d="M22 0 L22 9 L16 17 L0 17 L0 0 Z" style="fill:none; clip-path:url(#clipPath19);" />
    </g>
    <g transform="translate(120,514)" style="text-rendering:geometricPrecision; font-size:11; font-weight:bold; font-family:sans-serif;">
      <text x="5" y="12" style="clip-path:url(#clipPath20); stroke:none;" xml:space="preserve">alt</text>
    </g>
    <g transform="translate(486,574)" style="font-size:11; fill:white; text-rendering:geometricPrecision; font-family:sans-serif; stroke:white;">
      <rect x="0" y="0" width="8" style="clip-path:url(#clipPath21); stroke:none;" height="23" />
    </g>
    <g transform="translate(486,574)" style="font-size:11; stroke-linecap:butt; text-rendering:geometricPrecision; font-family:sans-serif; stroke-linejoin:round; stroke-miterlimit:0;">
      <rect x="0" y="0" width="8" style="clip-path:url(#clipPath21); fill:none;" height="23" />
    </g>
    <g transform="translate(486,834)" style="font-size:11; fill:white; text-rendering:geometricPrecision; font-family:sans-serif; stroke:white;">
      <rect x="0" y="0" width="9" style="clip-path:url(#clipPath22); stroke:none;" height="15" />
    </g>
    <g transform="translate(486,834)" style="font-size:11; stroke-linecap:butt; text-rendering:geometricPrecision; font-family:sans-serif; stroke-linejoin:round; stroke-miterlimit:0;">
      <rect x="0" y="0" width="9" style="clip-path:url(#clipPath22); fill:none;" height="15" />
    </g>
    <g transform="translate(486,1069)" style="font-size:11; fill:white; text-rendering:geometricPrecision; font-family:sans-serif; stroke:white;">
      <rect x="0" y="0" width="8" style="clip-path:url(#clipPath23); stroke:none;" height="21" />
    </g>
    <g transform="translate(486,1069)" style="font-size:11; stroke-linecap:butt; text-rendering:geometricPrecision; font-family:sans-serif; stroke-linejoin:round; stroke-miterlimit:0;">
      <rect x="0" y="0" width="8" style="clip-path:url(#clipPath23); fill:none;" height="21" />
    </g>
    <g transform="translate(486,949)" style="font-size:11; fill:white; text-rendering:geometricPrecision; font-family:sans-serif; stroke:white;">
      <rect x="0" y="0" width="8" style="clip-path:url(#clipPath24); stroke:none;" height="25" />
    </g>
    <g transform="translate(486,949)" style="font-size:11; stroke-linecap:butt; text-rendering:geometricPrecision; font-family:sans-serif; stroke-linejoin:round; stroke-miterlimit:0;">
      <rect x="0" y="0" width="8" style="clip-path:url(#clipPath24); fill:none;" height="25" />
    </g>
    <g transform="translate(130,642)" style="font-size:11; fill:white; text-rendering:geometricPrecision; font-family:sans-serif; stroke:white;">
      <rect x="28" y="5" width="312" style="clip-path:url(#clipPath25); stroke:none;" height="60" />
    </g>
    <g style="text-rendering:geometricPrecision; font-size:11; font-family:sans-serif;" transform="translate(158,647)">
      <text x="75" y="12" style="clip-path:url(#clipPath26); stroke:none;" xml:space="preserve">[komponens bemenetein iterálunk,</text>
      <text x="20" y="27" style="clip-path:url(#clipPath26); stroke:none;" xml:space="preserve">componentName := a bemenetre kötött komponens neve,</text>
      <text x="20" y="42" style="clip-path:url(#clipPath26); stroke:none;" xml:space="preserve">inputPin := melyik bemenetre kötjük rá a fenti komponenst</text>
      <text x="15" y="57" style="clip-path:url(#clipPath26); stroke:none;" xml:space="preserve">outputPin := melyik kimenete van az adott bemenetre kötve]</text>
    </g>
    <g transform="translate(140,852)" style="font-size:11; fill:white; text-rendering:geometricPrecision; font-family:sans-serif; stroke:white;">
      <rect x="28" y="5" width="44" style="clip-path:url(#clipPath30); stroke:none;" height="15" />
    </g>
    <g transform="translate(140,852)" style="font-size:11; stroke-linecap:butt; text-rendering:geometricPrecision; font-family:sans-serif; stroke-linejoin:bevel; stroke-dasharray:5,2; stroke-miterlimit:0;">
      <line x1="0" x2="379" y1="129" style="clip-path:url(#clipPath30); fill:none;" y2="129" />
    </g>
    <g style="text-rendering:geometricPrecision; font-size:11; font-family:sans-serif;" transform="translate(168,857)">
      <text x="9" y="12" style="clip-path:url(#clipPath31); stroke:none;" xml:space="preserve">[Vcc]</text>
    </g>
    <g transform="translate(140,732)" style="font-size:11; fill:white; text-rendering:geometricPrecision; font-family:sans-serif; stroke:white;">
      <rect x="28" y="5" width="143" style="clip-path:url(#clipPath32); stroke:none;" height="15" />
    </g>
    <g transform="translate(140,732)" style="font-size:11; stroke-linecap:butt; text-rendering:geometricPrecision; font-family:sans-serif; stroke-linejoin:bevel; stroke-dasharray:5,2; stroke-miterlimit:0;">
      <line x1="0" x2="379" y1="120" style="clip-path:url(#clipPath32); fill:none;" y2="120" />
    </g>
    <g style="text-rendering:geometricPrecision; font-size:11; font-family:sans-serif;" transform="translate(168,737)">
      <text x="12" y="12" style="clip-path:url(#clipPath33); stroke:none;" xml:space="preserve">[componentName == "0"]</text>
    </g>
    <g transform="translate(120,599)" style="font-size:11; fill:white; text-rendering:geometricPrecision; font-family:sans-serif; stroke:white;">
      <rect x="28" y="5" width="46" style="clip-path:url(#clipPath34); stroke:none;" height="15" />
    </g>
    <g style="text-rendering:geometricPrecision; font-size:11; font-family:sans-serif;" transform="translate(148,604)">
      <text x="10" y="12" style="clip-path:url(#clipPath35); stroke:none;" xml:space="preserve">[else]</text>
    </g>
    <g transform="translate(120,532)" style="font-size:11; fill:white; text-rendering:geometricPrecision; font-family:sans-serif; stroke:white;">
      <rect x="28" y="5" width="230" style="clip-path:url(#clipPath37); stroke:none;" height="15" />
    </g>
    <g transform="translate(120,532)" style="font-size:11; stroke-linecap:butt; text-rendering:geometricPrecision; font-family:sans-serif; stroke-linejoin:bevel; stroke-dasharray:5,2; stroke-miterlimit:0;">
      <line x1="0" x2="429" y1="69" style="clip-path:url(#clipPath37); fill:none;" y2="69" />
    </g>
    <g style="text-rendering:geometricPrecision; font-size:11; font-family:sans-serif;" transform="translate(148,537)">
      <text x="11" y="12" style="clip-path:url(#clipPath38); stroke:none;" xml:space="preserve">[component instaceof SequenceGenerator]</text>
    </g>
    <g transform="translate(90,422)" style="font-size:11; fill:white; text-rendering:geometricPrecision; font-family:sans-serif; stroke:white;">
      <rect x="28" y="5" width="183" style="clip-path:url(#clipPath39); stroke:none;" height="15" />
    </g>
    <g style="text-rendering:geometricPrecision; font-size:11; font-family:sans-serif;" transform="translate(118,427)">
      <text x="12" y="12" style="clip-path:url(#clipPath40); stroke:none;" xml:space="preserve">[van bemenete a komponensnek]</text>
    </g>
    <g transform="translate(70,372)" style="font-size:11; fill:white; text-rendering:geometricPrecision; font-family:sans-serif; stroke:white;">
      <rect x="28" y="5" width="244" style="clip-path:url(#clipPath42); stroke:none;" height="15" />
    </g>
    <g style="text-rendering:geometricPrecision; font-size:11; font-family:sans-serif;" transform="translate(98,377)">
      <text x="12" y="12" style="clip-path:url(#clipPath43); stroke:none;" xml:space="preserve">[végigmegyünk a létrehozott komponenseken]</text>
    </g>
    <g transform="translate(140,714)" style="font-size:11; stroke-linecap:butt; text-rendering:geometricPrecision; font-family:sans-serif; stroke-linejoin:round; font-weight:bold; stroke-miterlimit:0;">
      <rect x="0" y="0" width="380" style="clip-path:url(#clipPath45); fill:none;" height="390" />
    </g>
    <g transform="translate(140,714)" style="font-size:11; fill:white; text-rendering:geometricPrecision; font-family:sans-serif; stroke:white; font-weight:bold;">
      <path d="M22 0 L22 9 L16 17 L0 17 L0 0 Z" style="clip-path:url(#clipPath45); stroke:none;" />
    </g>
    <g transform="translate(140,714)" style="font-size:11; stroke-linecap:butt; text-rendering:geometricPrecision; font-family:sans-serif; stroke-linejoin:round; font-weight:bold; stroke-miterlimit:0;">
      <path d="M22 0 L22 9 L16 17 L0 17 L0 0 Z" style="fill:none; clip-path:url(#clipPath45);" />
    </g>
    <g transform="translate(140,714)" style="text-rendering:geometricPrecision; font-size:11; font-weight:bold; font-family:sans-serif;">
      <text x="5" y="12" style="clip-path:url(#clipPath20); stroke:none;" xml:space="preserve">alt</text>
    </g>
    <g transform="translate(120,148)" style="font-size:11; fill:white; text-rendering:geometricPrecision; font-family:sans-serif; stroke:white;">
      <rect x="28" y="5" width="170" style="clip-path:url(#clipPath46); stroke:none;" height="15" />
    </g>
    <g style="text-rendering:geometricPrecision; font-size:11; font-family:sans-serif;" transform="translate(148,153)">
      <text x="10" y="12" style="clip-path:url(#clipPath47); stroke:none;" xml:space="preserve">[fájl végéig olvassuk a sorokat]</text>
    </g>
    <g transform="translate(50,1174)" style="font-size:11; fill:silver; text-rendering:geometricPrecision; font-family:sans-serif; stroke:silver;">
      <rect x="0" y="0" width="19" style="clip-path:url(#clipPath5); fill:none;" height="19" />
    </g>
    <g transform="translate(10,564)" style="font-size:11; fill:white; text-rendering:geometricPrecision; font-family:sans-serif; stroke:white;">
      <polygon style="clip-path:url(#clipPath48); stroke:none;" points=" 0 0 84 0 99 15 84 15 84 0 99 15 99 109 0 109" />
    </g>
    <g transform="translate(10,564)" style="font-size:11; stroke-linecap:butt; text-rendering:geometricPrecision; font-family:sans-serif; stroke-linejoin:round; stroke-miterlimit:0;">
      <polygon style="fill:none; clip-path:url(#clipPath48);" points=" 0 0 84 0 99 15 84 15 84 0 99 15 99 109 0 109" />
    </g>
    <g style="text-rendering:geometricPrecision; font-size:11; font-family:&apos;Tahoma&apos;;" transform="translate(10,564)">
      <path d="M3.9688 14.9704 L3.9688 6.3767 L5.0938 6.3767 L5.0938 9.9079 L9.5625 9.9079 L9.5625 6.3767 L10.7031 6.3767 L10.7031 14.9704 L9.5625 14.9704 L9.5625 10.9236 L5.0938 10.9236 L5.0938 14.9704 L3.9688 14.9704 ZM16.8594 14.2048 Q16.2656 14.7048 15.7266 14.9079 Q15.1875 15.1111 14.5625 15.1111 Q13.5312 15.1111 12.9844 14.6111 Q12.4375 14.1111 12.4375 13.3298 Q12.4375 12.8767 12.6406 12.4939 Q12.8438 12.1111 13.1875 11.8845 Q13.5312 11.6579 13.9531 11.5486 Q14.25 11.4548 14.8906 11.3767 Q16.1562 11.2361 16.7656 11.0173 Q16.7656 10.7986 16.7656 10.7517 Q16.7656 10.0954 16.4688 9.8298 Q16.0625 9.4861 15.2656 9.4861 Q14.5312 9.4861 14.1719 9.7439 Q13.8125 10.0017 13.6406 10.6579 L12.6094 10.5173 Q12.75 9.8611 13.0781 9.4548 Q13.4062 9.0486 14.0156 8.8298 Q14.625 8.6111 15.4219 8.6111 Q16.2188 8.6111 16.7188 8.7986 Q17.2188 8.9861 17.4531 9.2673 Q17.6875 9.5486 17.7812 9.9861 Q17.8281 10.2517 17.8281 10.9548 L17.8281 12.3611 Q17.8281 13.8298 17.8984 14.2204 Q17.9688 14.6111 18.1719 14.9704 L17.0625 14.9704 Q16.9062 14.6423 16.8594 14.2048 ZM16.7656 11.8454 Q16.1875 12.0798 15.0469 12.2517 Q14.3906 12.3454 14.125 12.4626 Q13.8594 12.5798 13.7109 12.7986 Q13.5625 13.0173 13.5625 13.2986 Q13.5625 13.7204 13.8828 14.0017 Q14.2031 14.2829 14.8125 14.2829 Q15.4219 14.2829 15.8984 14.0173 Q16.375 13.7517 16.5938 13.2829 Q16.7656 12.9236 16.7656 12.2361 L16.7656 11.8454 Z" style="clip-path:url(#clipPath49); stroke:none;" />
      <path d="M3.7812 21.6111 L3.7812 20.3767 L4.8438 20.3767 L4.8438 21.6111 L3.7812 21.6111 ZM2.4531 31.3923 L2.6406 30.4861 Q2.9688 30.5642 3.1406 30.5642 Q3.4688 30.5642 3.625 30.3532 Q3.7812 30.1423 3.7812 29.2829 L3.7812 22.7517 L4.8438 22.7517 L4.8438 29.3142 Q4.8438 30.4548 4.5469 30.9079 Q4.1562 31.5017 3.2812 31.5017 Q2.8438 31.5017 2.4531 31.3923 ZM11.0469 26.9704 L12.1406 27.0954 Q11.8906 28.0486 11.1875 28.5798 Q10.4844 29.1111 9.4062 29.1111 Q8.0469 29.1111 7.2422 28.2673 Q6.4375 27.4236 6.4375 25.9079 Q6.4375 24.3454 7.25 23.4782 Q8.0625 22.6111 9.3438 22.6111 Q10.5938 22.6111 11.3828 23.4548 Q12.1719 24.2986 12.1719 25.8454 Q12.1719 25.9392 12.1719 26.1267 L7.5312 26.1267 Q7.5938 27.1579 8.1094 27.697 Q8.625 28.2361 9.4062 28.2361 Q9.9844 28.2361 10.3984 27.9314 Q10.8125 27.6267 11.0469 26.9704 ZM7.5938 25.2673 L11.0625 25.2673 Q11 24.4704 10.6719 24.0798 Q10.1562 23.4704 9.3594 23.4704 Q8.625 23.4704 8.1328 23.9548 Q7.6406 24.4392 7.5938 25.2673 ZM13.7656 28.9704 L13.7656 20.3767 L14.8281 20.3767 L14.8281 28.9704 L13.7656 28.9704 ZM16.5938 29.4861 L17.625 29.6423 Q17.6875 30.1111 17.9844 30.3298 Q18.375 30.6267 19.0469 30.6267 Q19.7812 30.6267 20.1797 30.3298 Q20.5781 30.0329 20.7188 29.5173 Q20.8125 29.1892 20.7969 28.1579 Q20.1094 28.9704 19.0781 28.9704 Q17.7969 28.9704 17.0938 28.0407 Q16.3906 27.1111 16.3906 25.8298 Q16.3906 24.9392 16.7109 24.1814 Q17.0312 23.4236 17.6406 23.0173 Q18.25 22.6111 19.0781 22.6111 Q20.1875 22.6111 20.9062 23.5017 L20.9062 22.7517 L21.875 22.7517 L21.875 28.1267 Q21.875 29.5798 21.5781 30.1892 Q21.2812 30.7986 20.6406 31.1501 Q20 31.5017 19.0625 31.5017 Q17.9531 31.5017 17.2656 31.0017 Q16.5781 30.5017 16.5938 29.4861 ZM17.4688 25.7517 Q17.4688 26.9704 17.9531 27.5329 Q18.4375 28.0954 19.1719 28.0954 Q19.9062 28.0954 20.3984 27.5329 Q20.8906 26.9704 20.8906 25.7829 Q20.8906 24.6423 20.3828 24.0642 Q19.875 23.4861 19.1562 23.4861 Q18.4531 23.4861 17.9609 24.0564 Q17.4688 24.6267 17.4688 25.7517 ZM28.0469 26.9704 L29.1406 27.0954 Q28.8906 28.0486 28.1875 28.5798 Q27.4844 29.1111 26.4062 29.1111 Q25.0469 29.1111 24.2422 28.2673 Q23.4375 27.4236 23.4375 25.9079 Q23.4375 24.3454 24.25 23.4782 Q25.0625 22.6111 26.3438 22.6111 Q27.5938 22.6111 28.3828 23.4548 Q29.1719 24.2986 29.1719 25.8454 Q29.1719 25.9392 29.1719 26.1267 L24.5312 26.1267 Q24.5938 27.1579 25.1094 27.697 Q25.625 28.2361 26.4062 28.2361 Q26.9844 28.2361 27.3984 27.9314 Q27.8125 27.6267 28.0469 26.9704 ZM24.5938 25.2673 L28.0625 25.2673 Q28 24.4704 27.6719 24.0798 Q27.1562 23.4704 26.3594 23.4704 Q25.625 23.4704 25.1328 23.9548 Q24.6406 24.4392 24.5938 25.2673 ZM30.7969 28.9704 L30.7969 22.7517 L31.7344 22.7517 L31.7344 23.6267 Q32.4219 22.6111 33.7188 22.6111 Q34.2812 22.6111 34.7578 22.8142 Q35.2344 23.0173 35.4688 23.3454 Q35.7031 23.6736 35.7969 24.1111 Q35.8438 24.4079 35.8438 25.1423 L35.8438 28.9704 L34.7969 28.9704 L34.7969 25.1892 Q34.7969 24.5329 34.6719 24.2204 Q34.5469 23.9079 34.2344 23.7126 Q33.9219 23.5173 33.5 23.5173 Q32.8281 23.5173 32.3359 23.947 Q31.8438 24.3767 31.8438 25.5642 L31.8438 28.9704 L30.7969 28.9704 ZM42.0469 26.9704 L43.1406 27.0954 Q42.8906 28.0486 42.1875 28.5798 Q41.4844 29.1111 40.4062 29.1111 Q39.0469 29.1111 38.2422 28.2673 Q37.4375 27.4236 37.4375 25.9079 Q37.4375 24.3454 38.25 23.4782 Q39.0625 22.6111 40.3438 22.6111 Q41.5938 22.6111 42.3828 23.4548 Q43.1719 24.2986 43.1719 25.8454 Q43.1719 25.9392 43.1719 26.1267 L38.5312 26.1267 Q38.5938 27.1579 39.1094 27.697 Q39.625 28.2361 40.4062 28.2361 Q40.9844 28.2361 41.3984 27.9314 Q41.8125 27.6267 42.0469 26.9704 ZM38.5938 25.2673 L42.0625 25.2673 Q42 24.4704 41.6719 24.0798 Q41.1562 23.4704 40.3594 23.4704 Q39.625 23.4704 39.1328 23.9548 Q38.6406 24.4392 38.5938 25.2673 ZM44.7812 28.9704 L44.7812 22.7517 L45.7344 22.7517 L45.7344 23.6892 Q46.0938 23.0329 46.3984 22.822 Q46.7031 22.6111 47.0781 22.6111 Q47.6094 22.6111 48.1562 22.9392 L47.7969 23.9236 Q47.4062 23.6892 47.0312 23.6892 Q46.6719 23.6892 46.3984 23.9001 Q46.125 24.1111 46.0156 24.4861 Q45.8281 25.0486 45.8281 25.7048 L45.8281 28.9704 L44.7812 28.9704 ZM52.8594 28.2048 Q52.2656 28.7048 51.7266 28.9079 Q51.1875 29.1111 50.5625 29.1111 Q49.5312 29.1111 48.9844 28.6111 Q48.4375 28.1111 48.4375 27.3298 Q48.4375 26.8767 48.6406 26.4939 Q48.8438 26.1111 49.1875 25.8845 Q49.5312 25.6579 49.9531 25.5486 Q50.25 25.4548 50.8906 25.3767 Q52.1562 25.2361 52.7656 25.0173 Q52.7656 24.7986 52.7656 24.7517 Q52.7656 24.0954 52.4688 23.8298 Q52.0625 23.4861 51.2656 23.4861 Q50.5312 23.4861 50.1719 23.7439 Q49.8125 24.0017 49.6406 24.6579 L48.6094 24.5173 Q48.75 23.8611 49.0781 23.4548 Q49.4062 23.0486 50.0156 22.8298 Q50.625 22.6111 51.4219 22.6111 Q52.2188 22.6111 52.7188 22.7986 Q53.2188 22.9861 53.4531 23.2673 Q53.6875 23.5486 53.7812 23.9861 Q53.8281 24.2517 53.8281 24.9548 L53.8281 26.3611 Q53.8281 27.8298 53.8984 28.2204 Q53.9688 28.6111 54.1719 28.9704 L53.0625 28.9704 Q52.9062 28.6423 52.8594 28.2048 ZM52.7656 25.8454 Q52.1875 26.0798 51.0469 26.2517 Q50.3906 26.3454 50.125 26.4626 Q49.8594 26.5798 49.7109 26.7986 Q49.5625 27.0173 49.5625 27.2986 Q49.5625 27.7204 49.8828 28.0017 Q50.2031 28.2829 50.8125 28.2829 Q51.4219 28.2829 51.8984 28.0173 Q52.375 27.7517 52.5938 27.2829 Q52.7656 26.9236 52.7656 26.2361 L52.7656 25.8454 ZM50.125 20.9704 L50.9062 19.3298 L52.2969 19.3298 L51 20.9704 L50.125 20.9704 ZM58.0938 28.0329 L58.25 28.9548 Q57.7969 29.0486 57.4531 29.0486 Q56.875 29.0486 56.5625 28.8689 Q56.25 28.6892 56.1172 28.3923 Q55.9844 28.0954 55.9844 27.1423 L55.9844 23.5642 L55.2188 23.5642 L55.2188 22.7517 L55.9844 22.7517 L55.9844 21.2048 L57.0312 20.5798 L57.0312 22.7517 L58.0938 22.7517 L58.0938 23.5642 L57.0312 23.5642 L57.0312 27.2048 Q57.0312 27.6579 57.0859 27.7829 Q57.1406 27.9079 57.2656 27.9861 Q57.3906 28.0642 57.625 28.0642 Q57.8125 28.0642 58.0938 28.0329 ZM58.4062 25.8611 Q58.4062 24.1267 59.3594 23.2986 Q60.1562 22.6111 61.3125 22.6111 Q62.5938 22.6111 63.4141 23.447 Q64.2344 24.2829 64.2344 25.7673 Q64.2344 26.9704 63.875 27.6579 Q63.5156 28.3454 62.8203 28.7282 Q62.125 29.1111 61.3125 29.1111 Q60.0156 29.1111 59.2109 28.2751 Q58.4062 27.4392 58.4062 25.8611 ZM59.4844 25.8611 Q59.4844 27.0486 60.0078 27.6423 Q60.5312 28.2361 61.3125 28.2361 Q62.1094 28.2361 62.625 27.6423 Q63.1406 27.0486 63.1406 25.8298 Q63.1406 24.6736 62.6172 24.0798 Q62.0938 23.4861 61.3125 23.4861 Q60.5312 23.4861 60.0078 24.072 Q59.4844 24.6579 59.4844 25.8611 ZM65.7812 28.9704 L65.7812 22.7517 L66.7344 22.7517 L66.7344 23.6892 Q67.0938 23.0329 67.3984 22.822 Q67.7031 22.6111 68.0781 22.6111 Q68.6094 22.6111 69.1562 22.9392 L68.7969 23.9236 Q68.4062 23.6892 68.0312 23.6892 Q67.6719 23.6892 67.3984 23.9001 Q67.125 24.1111 67.0156 24.4861 Q66.8281 25.0486 66.8281 25.7048 L66.8281 28.9704 L65.7812 28.9704 ZM69.7812 28.9704 L69.7812 22.7517 L70.7344 22.7517 L70.7344 23.6892 Q71.0938 23.0329 71.3984 22.822 Q71.7031 22.6111 72.0781 22.6111 Q72.6094 22.6111 73.1562 22.9392 L72.7969 23.9236 Q72.4062 23.6892 72.0312 23.6892 Q71.6719 23.6892 71.3984 23.9001 Q71.125 24.1111 71.0156 24.4861 Q70.8281 25.0486 70.8281 25.7048 L70.8281 28.9704 L69.7812 28.9704 ZM73.4062 25.8611 Q73.4062 24.1267 74.3594 23.2986 Q75.1562 22.6111 76.3125 22.6111 Q77.5938 22.6111 78.4141 23.447 Q79.2344 24.2829 79.2344 25.7673 Q79.2344 26.9704 78.875 27.6579 Q78.5156 28.3454 77.8203 28.7282 Q77.125 29.1111 76.3125 29.1111 Q75.0156 29.1111 74.2109 28.2751 Q73.4062 27.4392 73.4062 25.8611 ZM74.4844 25.8611 Q74.4844 27.0486 75.0078 27.6423 Q75.5312 28.2361 76.3125 28.2361 Q77.1094 28.2361 77.625 27.6423 Q78.1406 27.0486 78.1406 25.8298 Q78.1406 24.6736 77.6172 24.0798 Q77.0938 23.4861 76.3125 23.4861 Q75.5312 23.4861 75.0078 24.072 Q74.4844 24.6579 74.4844 25.8611 ZM80.7656 28.9704 L80.7656 20.3767 L81.8281 20.3767 L81.8281 28.9704 L80.7656 28.9704 Z" style="clip-path:url(#clipPath49); stroke:none;" />
      <path d="M5.5156 42.9704 L3.1562 36.7517 L4.2656 36.7517 L5.6094 40.4704 Q5.8125 41.0798 6 41.7204 Q6.1406 41.2361 6.3906 40.5486 L7.7812 36.7517 L8.8594 36.7517 L6.5 42.9704 L5.5156 42.9704 ZM12.8594 42.2048 Q12.2656 42.7048 11.7266 42.9079 Q11.1875 43.1111 10.5625 43.1111 Q9.5312 43.1111 8.9844 42.6111 Q8.4375 42.1111 8.4375 41.3298 Q8.4375 40.8767 8.6406 40.4939 Q8.8438 40.1111 9.1875 39.8845 Q9.5312 39.6579 9.9531 39.5486 Q10.25 39.4548 10.8906 39.3767 Q12.1562 39.2361 12.7656 39.0173 Q12.7656 38.7986 12.7656 38.7517 Q12.7656 38.0954 12.4688 37.8298 Q12.0625 37.4861 11.2656 37.4861 Q10.5312 37.4861 10.1719 37.7439 Q9.8125 38.0017 9.6406 38.6579 L8.6094 38.5173 Q8.75 37.8611 9.0781 37.4548 Q9.4062 37.0486 10.0156 36.8298 Q10.625 36.6111 11.4219 36.6111 Q12.2188 36.6111 12.7188 36.7986 Q13.2188 36.9861 13.4531 37.2673 Q13.6875 37.5486 13.7812 37.9861 Q13.8281 38.2517 13.8281 38.9548 L13.8281 40.3611 Q13.8281 41.8298 13.8984 42.2204 Q13.9688 42.6111 14.1719 42.9704 L13.0625 42.9704 Q12.9062 42.6423 12.8594 42.2048 ZM12.7656 39.8454 Q12.1875 40.0798 11.0469 40.2517 Q10.3906 40.3454 10.125 40.4626 Q9.8594 40.5798 9.7109 40.7986 Q9.5625 41.0173 9.5625 41.2986 Q9.5625 41.7204 9.8828 42.0017 Q10.2031 42.2829 10.8125 42.2829 Q11.4219 42.2829 11.8984 42.0173 Q12.375 41.7517 12.5938 41.2829 Q12.7656 40.9236 12.7656 40.2361 L12.7656 39.8454 ZM15.7969 42.9704 L15.7969 36.7517 L16.7344 36.7517 L16.7344 37.6267 Q17.4219 36.6111 18.7188 36.6111 Q19.2812 36.6111 19.7578 36.8142 Q20.2344 37.0173 20.4688 37.3454 Q20.7031 37.6736 20.7969 38.1111 Q20.8438 38.4079 20.8438 39.1423 L20.8438 42.9704 L19.7969 42.9704 L19.7969 39.1892 Q19.7969 38.5329 19.6719 38.2204 Q19.5469 37.9079 19.2344 37.7126 Q18.9219 37.5173 18.5 37.5173 Q17.8281 37.5173 17.3359 37.947 Q16.8438 38.3767 16.8438 39.5642 L16.8438 42.9704 L15.7969 42.9704 ZM25.375 41.1111 L26.4062 40.9548 Q26.5 41.5798 26.8984 41.9079 Q27.2969 42.2361 28.0312 42.2361 Q28.75 42.2361 29.1016 41.947 Q29.4531 41.6579 29.4531 41.2517 Q29.4531 40.8923 29.1406 40.6892 Q28.9219 40.5486 28.0625 40.3298 Q26.9062 40.0329 26.4609 39.822 Q26.0156 39.6111 25.7812 39.2361 Q25.5469 38.8611 25.5469 38.3923 Q25.5469 37.9861 25.7344 37.6267 Q25.9219 37.2673 26.25 37.0329 Q26.5 36.8611 26.9219 36.7361 Q27.3438 36.6111 27.8438 36.6111 Q28.5625 36.6111 29.1172 36.822 Q29.6719 37.0329 29.9375 37.3923 Q30.2031 37.7517 30.2969 38.3454 L29.2656 38.4861 Q29.2031 38.0173 28.8672 37.7439 Q28.5312 37.4704 27.9062 37.4704 Q27.1875 37.4704 26.875 37.7126 Q26.5625 37.9548 26.5625 38.2829 Q26.5625 38.4861 26.6875 38.6423 Q26.8281 38.8142 27.0938 38.9236 Q27.25 38.9861 28.0312 39.1892 Q29.1562 39.5017 29.5938 39.6892 Q30.0312 39.8767 30.2812 40.2361 Q30.5312 40.5954 30.5312 41.1423 Q30.5312 41.6736 30.2266 42.1345 Q29.9219 42.5954 29.3438 42.8532 Q28.7656 43.1111 28.0312 43.1111 Q26.8125 43.1111 26.1797 42.6032 Q25.5469 42.0954 25.375 41.1111 ZM32.2344 42.9704 L32.2344 42.1111 L36.2031 37.5642 Q35.5156 37.5954 35 37.5954 L32.4688 37.5954 L32.4688 36.7517 L37.5625 36.7517 L37.5625 37.4392 L34.1875 41.3923 L33.5312 42.1111 Q34.25 42.0642 34.8594 42.0642 L37.75 42.0642 L37.75 42.9704 L32.2344 42.9704 ZM37.4062 39.8611 Q37.4062 38.1267 38.3594 37.2986 Q39.1562 36.6111 40.3125 36.6111 Q41.5938 36.6111 42.4141 37.447 Q43.2344 38.2829 43.2344 39.7673 Q43.2344 40.9704 42.875 41.6579 Q42.5156 42.3454 41.8203 42.7282 Q41.125 43.1111 40.3125 43.1111 Q39.0156 43.1111 38.2109 42.2751 Q37.4062 41.4392 37.4062 39.8611 ZM38.4844 39.8611 Q38.4844 41.0486 39.0078 41.6423 Q39.5312 42.2361 40.3125 42.2361 Q41.1094 42.2361 41.625 41.6423 Q42.1406 41.0486 42.1406 39.8298 Q42.1406 38.6736 41.6172 38.0798 Q41.0938 37.4861 40.3125 37.4861 Q39.5312 37.4861 39.0078 38.072 Q38.4844 38.6579 38.4844 39.8611 ZM39.125 34.9704 L39.9062 33.3298 L41.2969 33.3298 L40 34.9704 L39.125 34.9704 ZM45.0625 42.9704 L45.0625 41.7673 L46.2656 41.7673 L46.2656 42.9704 Q46.2656 43.6267 46.0312 44.0407 Q45.7969 44.4548 45.2969 44.6736 L45 44.2204 Q45.3281 44.0798 45.4844 43.7907 Q45.6406 43.5017 45.6719 42.9704 L45.0625 42.9704 ZM54.8594 42.2048 Q54.2656 42.7048 53.7266 42.9079 Q53.1875 43.1111 52.5625 43.1111 Q51.5312 43.1111 50.9844 42.6111 Q50.4375 42.1111 50.4375 41.3298 Q50.4375 40.8767 50.6406 40.4939 Q50.8438 40.1111 51.1875 39.8845 Q51.5312 39.6579 51.9531 39.5486 Q52.25 39.4548 52.8906 39.3767 Q54.1562 39.2361 54.7656 39.0173 Q54.7656 38.7986 54.7656 38.7517 Q54.7656 38.0954 54.4688 37.8298 Q54.0625 37.4861 53.2656 37.4861 Q52.5312 37.4861 52.1719 37.7439 Q51.8125 38.0017 51.6406 38.6579 L50.6094 38.5173 Q50.75 37.8611 51.0781 37.4548 Q51.4062 37.0486 52.0156 36.8298 Q52.625 36.6111 53.4219 36.6111 Q54.2188 36.6111 54.7188 36.7986 Q55.2188 36.9861 55.4531 37.2673 Q55.6875 37.5486 55.7812 37.9861 Q55.8281 38.2517 55.8281 38.9548 L55.8281 40.3611 Q55.8281 41.8298 55.8984 42.2204 Q55.9688 42.6111 56.1719 42.9704 L55.0625 42.9704 Q54.9062 42.6423 54.8594 42.2048 ZM54.7656 39.8454 Q54.1875 40.0798 53.0469 40.2517 Q52.3906 40.3454 52.125 40.4626 Q51.8594 40.5798 51.7109 40.7986 Q51.5625 41.0173 51.5625 41.2986 Q51.5625 41.7204 51.8828 42.0017 Q52.2031 42.2829 52.8125 42.2829 Q53.4219 42.2829 53.8984 42.0173 Q54.375 41.7517 54.5938 41.2829 Q54.7656 40.9236 54.7656 40.2361 L54.7656 39.8454 ZM57.7969 42.9704 L57.7969 34.3767 L58.8594 34.3767 L58.8594 39.2829 L61.3438 36.7517 L62.7188 36.7517 L60.3281 39.0486 L62.9531 42.9704 L61.6562 42.9704 L59.5938 39.7829 L58.8594 40.5017 L58.8594 42.9704 L57.7969 42.9704 ZM63.7969 42.9704 L63.7969 34.3767 L64.8594 34.3767 L64.8594 39.2829 L67.3438 36.7517 L68.7188 36.7517 L66.3281 39.0486 L68.9531 42.9704 L67.6562 42.9704 L65.5938 39.7829 L64.8594 40.5017 L64.8594 42.9704 L63.7969 42.9704 ZM69.4062 39.8611 Q69.4062 38.1267 70.3594 37.2986 Q71.1562 36.6111 72.3125 36.6111 Q73.5938 36.6111 74.4141 37.447 Q75.2344 38.2829 75.2344 39.7673 Q75.2344 40.9704 74.875 41.6579 Q74.5156 42.3454 73.8203 42.7282 Q73.125 43.1111 72.3125 43.1111 Q71.0156 43.1111 70.2109 42.2751 Q69.4062 41.4392 69.4062 39.8611 ZM70.4844 39.8611 Q70.4844 41.0486 71.0078 41.6423 Q71.5312 42.2361 72.3125 42.2361 Q73.1094 42.2361 73.625 41.6423 Q74.1406 41.0486 74.1406 39.8298 Q74.1406 38.6736 73.6172 38.0798 Q73.0938 37.4861 72.3125 37.4861 Q71.5312 37.4861 71.0078 38.072 Q70.4844 38.6579 70.4844 39.8611 ZM76.7812 42.9704 L76.7812 36.7517 L77.7344 36.7517 L77.7344 37.6892 Q78.0938 37.0329 78.3984 36.822 Q78.7031 36.6111 79.0781 36.6111 Q79.6094 36.6111 80.1562 36.9392 L79.7969 37.9236 Q79.4062 37.6892 79.0312 37.6892 Q78.6719 37.6892 78.3984 37.9001 Q78.125 38.1111 78.0156 38.4861 Q77.8281 39.0486 77.8281 39.7048 L77.8281 42.9704 L76.7812 42.9704 ZM87.8594 42.2048 Q87.2656 42.7048 86.7266 42.9079 Q86.1875 43.1111 85.5625 43.1111 Q84.5312 43.1111 83.9844 42.6111 Q83.4375 42.1111 83.4375 41.3298 Q83.4375 40.8767 83.6406 40.4939 Q83.8438 40.1111 84.1875 39.8845 Q84.5312 39.6579 84.9531 39.5486 Q85.25 39.4548 85.8906 39.3767 Q87.1562 39.2361 87.7656 39.0173 Q87.7656 38.7986 87.7656 38.7517 Q87.7656 38.0954 87.4688 37.8298 Q87.0625 37.4861 86.2656 37.4861 Q85.5312 37.4861 85.1719 37.7439 Q84.8125 38.0017 84.6406 38.6579 L83.6094 38.5173 Q83.75 37.8611 84.0781 37.4548 Q84.4062 37.0486 85.0156 36.8298 Q85.625 36.6111 86.4219 36.6111 Q87.2188 36.6111 87.7188 36.7986 Q88.2188 36.9861 88.4531 37.2673 Q88.6875 37.5486 88.7812 37.9861 Q88.8281 38.2517 88.8281 38.9548 L88.8281 40.3611 Q88.8281 41.8298 88.8984 42.2204 Q88.9688 42.6111 89.1719 42.9704 L88.0625 42.9704 Q87.9062 42.6423 87.8594 42.2048 ZM87.7656 39.8454 Q87.1875 40.0798 86.0469 40.2517 Q85.3906 40.3454 85.125 40.4626 Q84.8594 40.5798 84.7109 40.7986 Q84.5625 41.0173 84.5625 41.2986 Q84.5625 41.7204 84.8828 42.0017 Q85.2031 42.2829 85.8125 42.2829 Q86.4219 42.2829 86.8984 42.0173 Q87.375 41.7517 87.5938 41.2829 Q87.7656 40.9236 87.7656 40.2361 L87.7656 39.8454 Z" style="clip-path:url(#clipPath49); stroke:none;" />
      <path d="M4.7656 56.9704 L3.7812 56.9704 L3.7812 48.3767 L4.8438 48.3767 L4.8438 51.4392 Q5.5156 50.6111 6.5469 50.6111 Q7.125 50.6111 7.6328 50.8376 Q8.1406 51.0642 8.4766 51.4861 Q8.8125 51.9079 9 52.5017 Q9.1875 53.0954 9.1875 53.7673 Q9.1875 55.3611 8.3906 56.2361 Q7.5938 57.1111 6.5 57.1111 Q5.3906 57.1111 4.7656 56.1892 L4.7656 56.9704 ZM4.75 53.8142 Q4.75 54.9236 5.0625 55.4236 Q5.5625 56.2361 6.4062 56.2361 Q7.0938 56.2361 7.6016 55.6423 Q8.1094 55.0486 8.1094 53.8454 Q8.1094 52.6267 7.625 52.0486 Q7.1406 51.4704 6.4531 51.4704 Q5.7656 51.4704 5.2578 52.072 Q4.75 52.6736 4.75 53.8142 ZM15.0469 54.9704 L16.1406 55.0954 Q15.8906 56.0486 15.1875 56.5798 Q14.4844 57.1111 13.4062 57.1111 Q12.0469 57.1111 11.2422 56.2673 Q10.4375 55.4236 10.4375 53.9079 Q10.4375 52.3454 11.25 51.4782 Q12.0625 50.6111 13.3438 50.6111 Q14.5938 50.6111 15.3828 51.4548 Q16.1719 52.2986 16.1719 53.8454 Q16.1719 53.9392 16.1719 54.1267 L11.5312 54.1267 Q11.5938 55.1579 12.1094 55.697 Q12.625 56.2361 13.4062 56.2361 Q13.9844 56.2361 14.3984 55.9314 Q14.8125 55.6267 15.0469 54.9704 ZM11.5938 53.2673 L15.0625 53.2673 Q15 52.4704 14.6719 52.0798 Q14.1562 51.4704 13.3594 51.4704 Q12.625 51.4704 12.1328 51.9548 Q11.6406 52.4392 11.5938 53.2673 ZM17.7969 56.9704 L17.7969 50.7517 L18.7344 50.7517 L18.7344 51.6267 Q19.0312 51.1579 19.5156 50.8845 Q20 50.6111 20.625 50.6111 Q21.3125 50.6111 21.7578 50.8923 Q22.2031 51.1736 22.375 51.6892 Q23.125 50.6111 24.2969 50.6111 Q25.2344 50.6111 25.7266 51.1189 Q26.2188 51.6267 26.2188 52.7048 L26.2188 56.9704 L25.1719 56.9704 L25.1719 53.0486 Q25.1719 52.4236 25.0703 52.1423 Q24.9688 51.8611 24.7031 51.6892 Q24.4375 51.5173 24.0625 51.5173 Q23.4062 51.5173 22.9766 51.9548 Q22.5469 52.3923 22.5469 53.3611 L22.5469 56.9704 L21.4844 56.9704 L21.4844 52.9236 Q21.4844 52.2204 21.2266 51.8689 Q20.9688 51.5173 20.3906 51.5173 Q19.9375 51.5173 19.5625 51.7517 Q19.1875 51.9861 19.0156 52.4392 Q18.8438 52.8923 18.8438 53.7361 L18.8438 56.9704 L17.7969 56.9704 ZM33.0469 54.9704 L34.1406 55.0954 Q33.8906 56.0486 33.1875 56.5798 Q32.4844 57.1111 31.4062 57.1111 Q30.0469 57.1111 29.2422 56.2673 Q28.4375 55.4236 28.4375 53.9079 Q28.4375 52.3454 29.25 51.4782 Q30.0625 50.6111 31.3438 50.6111 Q32.5938 50.6111 33.3828 51.4548 Q34.1719 52.2986 34.1719 53.8454 Q34.1719 53.9392 34.1719 54.1267 L29.5312 54.1267 Q29.5938 55.1579 30.1094 55.697 Q30.625 56.2361 31.4062 56.2361 Q31.9844 56.2361 32.3984 55.9314 Q32.8125 55.6267 33.0469 54.9704 ZM29.5938 53.2673 L33.0625 53.2673 Q33 52.4704 32.6719 52.0798 Q32.1562 51.4704 31.3594 51.4704 Q30.625 51.4704 30.1328 51.9548 Q29.6406 52.4392 29.5938 53.2673 ZM35.7969 56.9704 L35.7969 50.7517 L36.7344 50.7517 L36.7344 51.6267 Q37.4219 50.6111 38.7188 50.6111 Q39.2812 50.6111 39.7578 50.8142 Q40.2344 51.0173 40.4688 51.3454 Q40.7031 51.6736 40.7969 52.1111 Q40.8438 52.4079 40.8438 53.1423 L40.8438 56.9704 L39.7969 56.9704 L39.7969 53.1892 Q39.7969 52.5329 39.6719 52.2204 Q39.5469 51.9079 39.2344 51.7126 Q38.9219 51.5173 38.5 51.5173 Q37.8281 51.5173 37.3359 51.947 Q36.8438 52.3767 36.8438 53.5642 L36.8438 56.9704 L35.7969 56.9704 ZM47.0469 54.9704 L48.1406 55.0954 Q47.8906 56.0486 47.1875 56.5798 Q46.4844 57.1111 45.4062 57.1111 Q44.0469 57.1111 43.2422 56.2673 Q42.4375 55.4236 42.4375 53.9079 Q42.4375 52.3454 43.25 51.4782 Q44.0625 50.6111 45.3438 50.6111 Q46.5938 50.6111 47.3828 51.4548 Q48.1719 52.2986 48.1719 53.8454 Q48.1719 53.9392 48.1719 54.1267 L43.5312 54.1267 Q43.5938 55.1579 44.1094 55.697 Q44.625 56.2361 45.4062 56.2361 Q45.9844 56.2361 46.3984 55.9314 Q46.8125 55.6267 47.0469 54.9704 ZM43.5938 53.2673 L47.0625 53.2673 Q47 52.4704 46.6719 52.0798 Q46.1562 51.4704 45.3594 51.4704 Q44.625 51.4704 44.1328 51.9548 Q43.6406 52.4392 43.5938 53.2673 ZM52.0938 56.0329 L52.25 56.9548 Q51.7969 57.0486 51.4531 57.0486 Q50.875 57.0486 50.5625 56.8689 Q50.25 56.6892 50.1172 56.3923 Q49.9844 56.0954 49.9844 55.1423 L49.9844 51.5642 L49.2188 51.5642 L49.2188 50.7517 L49.9844 50.7517 L49.9844 49.2048 L51.0312 48.5798 L51.0312 50.7517 L52.0938 50.7517 L52.0938 51.5642 L51.0312 51.5642 L51.0312 55.2048 Q51.0312 55.6579 51.0859 55.7829 Q51.1406 55.9079 51.2656 55.9861 Q51.3906 56.0642 51.625 56.0642 Q51.8125 56.0642 52.0938 56.0329 ZM57.0469 54.9704 L58.1406 55.0954 Q57.8906 56.0486 57.1875 56.5798 Q56.4844 57.1111 55.4062 57.1111 Q54.0469 57.1111 53.2422 56.2673 Q52.4375 55.4236 52.4375 53.9079 Q52.4375 52.3454 53.25 51.4782 Q54.0625 50.6111 55.3438 50.6111 Q56.5938 50.6111 57.3828 51.4548 Q58.1719 52.2986 58.1719 53.8454 Q58.1719 53.9392 58.1719 54.1267 L53.5312 54.1267 Q53.5938 55.1579 54.1094 55.697 Q54.625 56.2361 55.4062 56.2361 Q55.9844 56.2361 56.3984 55.9314 Q56.8125 55.6267 57.0469 54.9704 ZM53.5938 53.2673 L57.0625 53.2673 Q57 52.4704 56.6719 52.0798 Q56.1562 51.4704 55.3594 51.4704 Q54.625 51.4704 54.1328 51.9548 Q53.6406 52.4392 53.5938 53.2673 ZM59.7969 56.9704 L59.7969 48.3767 L60.8594 48.3767 L60.8594 53.2829 L63.3438 50.7517 L64.7188 50.7517 L62.3281 53.0486 L64.9531 56.9704 L63.6562 56.9704 L61.5938 53.7829 L60.8594 54.5017 L60.8594 56.9704 L59.7969 56.9704 ZM70.0469 54.9704 L71.1406 55.0954 Q70.8906 56.0486 70.1875 56.5798 Q69.4844 57.1111 68.4062 57.1111 Q67.0469 57.1111 66.2422 56.2673 Q65.4375 55.4236 65.4375 53.9079 Q65.4375 52.3454 66.25 51.4782 Q67.0625 50.6111 68.3438 50.6111 Q69.5938 50.6111 70.3828 51.4548 Q71.1719 52.2986 71.1719 53.8454 Q71.1719 53.9392 71.1719 54.1267 L66.5312 54.1267 Q66.5938 55.1579 67.1094 55.697 Q67.625 56.2361 68.4062 56.2361 Q68.9844 56.2361 69.3984 55.9314 Q69.8125 55.6267 70.0469 54.9704 ZM66.5938 53.2673 L70.0625 53.2673 Q70 52.4704 69.6719 52.0798 Q69.1562 51.4704 68.3594 51.4704 Q67.625 51.4704 67.1328 51.9548 Q66.6406 52.4392 66.5938 53.2673 ZM75.0938 56.0329 L75.25 56.9548 Q74.7969 57.0486 74.4531 57.0486 Q73.875 57.0486 73.5625 56.8689 Q73.25 56.6892 73.1172 56.3923 Q72.9844 56.0954 72.9844 55.1423 L72.9844 51.5642 L72.2188 51.5642 L72.2188 50.7517 L72.9844 50.7517 L72.9844 49.2048 L74.0312 48.5798 L74.0312 50.7517 L75.0938 50.7517 L75.0938 51.5642 L74.0312 51.5642 L74.0312 55.2048 Q74.0312 55.6579 74.0859 55.7829 Q74.1406 55.9079 74.2656 55.9861 Q74.3906 56.0642 74.625 56.0642 Q74.8125 56.0642 75.0938 56.0329 Z" style="clip-path:url(#clipPath49); stroke:none;" />
      <path d="M7.8594 70.2048 Q7.2656 70.7048 6.7266 70.9079 Q6.1875 71.1111 5.5625 71.1111 Q4.5312 71.1111 3.9844 70.6111 Q3.4375 70.1111 3.4375 69.3298 Q3.4375 68.8767 3.6406 68.4939 Q3.8438 68.1111 4.1875 67.8845 Q4.5312 67.6579 4.9531 67.5486 Q5.25 67.4548 5.8906 67.3767 Q7.1562 67.2361 7.7656 67.0173 Q7.7656 66.7986 7.7656 66.7517 Q7.7656 66.0954 7.4688 65.8298 Q7.0625 65.4861 6.2656 65.4861 Q5.5312 65.4861 5.1719 65.7439 Q4.8125 66.0017 4.6406 66.6579 L3.6094 66.5173 Q3.75 65.8611 4.0781 65.4548 Q4.4062 65.0486 5.0156 64.8298 Q5.625 64.6111 6.4219 64.6111 Q7.2188 64.6111 7.7188 64.7986 Q8.2188 64.9861 8.4531 65.2673 Q8.6875 65.5486 8.7812 65.9861 Q8.8281 66.2517 8.8281 66.9548 L8.8281 68.3611 Q8.8281 69.8298 8.8984 70.2204 Q8.9688 70.6111 9.1719 70.9704 L8.0625 70.9704 Q7.9062 70.6423 7.8594 70.2048 ZM7.7656 67.8454 Q7.1875 68.0798 6.0469 68.2517 Q5.3906 68.3454 5.125 68.4626 Q4.8594 68.5798 4.7109 68.7986 Q4.5625 69.0173 4.5625 69.2986 Q4.5625 69.7204 4.8828 70.0017 Q5.2031 70.2829 5.8125 70.2829 Q6.4219 70.2829 6.8984 70.0173 Q7.375 69.7517 7.5938 69.2829 Q7.7656 68.9236 7.7656 68.2361 L7.7656 67.8454 ZM10.7656 70.9704 L10.7656 62.3767 L11.8281 62.3767 L11.8281 70.9704 L10.7656 70.9704 ZM17.8594 70.2048 Q17.2656 70.7048 16.7266 70.9079 Q16.1875 71.1111 15.5625 71.1111 Q14.5312 71.1111 13.9844 70.6111 Q13.4375 70.1111 13.4375 69.3298 Q13.4375 68.8767 13.6406 68.4939 Q13.8438 68.1111 14.1875 67.8845 Q14.5312 67.6579 14.9531 67.5486 Q15.25 67.4548 15.8906 67.3767 Q17.1562 67.2361 17.7656 67.0173 Q17.7656 66.7986 17.7656 66.7517 Q17.7656 66.0954 17.4688 65.8298 Q17.0625 65.4861 16.2656 65.4861 Q15.5312 65.4861 15.1719 65.7439 Q14.8125 66.0017 14.6406 66.6579 L13.6094 66.5173 Q13.75 65.8611 14.0781 65.4548 Q14.4062 65.0486 15.0156 64.8298 Q15.625 64.6111 16.4219 64.6111 Q17.2188 64.6111 17.7188 64.7986 Q18.2188 64.9861 18.4531 65.2673 Q18.6875 65.5486 18.7812 65.9861 Q18.8281 66.2517 18.8281 66.9548 L18.8281 68.3611 Q18.8281 69.8298 18.8984 70.2204 Q18.9688 70.6111 19.1719 70.9704 L18.0625 70.9704 Q17.9062 70.6423 17.8594 70.2048 ZM17.7656 67.8454 Q17.1875 68.0798 16.0469 68.2517 Q15.3906 68.3454 15.125 68.4626 Q14.8594 68.5798 14.7109 68.7986 Q14.5625 69.0173 14.5625 69.2986 Q14.5625 69.7204 14.8828 70.0017 Q15.2031 70.2829 15.8125 70.2829 Q16.4219 70.2829 16.8984 70.0173 Q17.375 69.7517 17.5938 69.2829 Q17.7656 68.9236 17.7656 68.2361 L17.7656 67.8454 ZM20.7969 73.3611 L20.7969 64.7517 L21.75 64.7517 L21.75 65.5486 Q22.0938 65.0798 22.5234 64.8454 Q22.9531 64.6111 23.5625 64.6111 Q24.3594 64.6111 24.9688 65.0173 Q25.5781 65.4236 25.8828 66.1736 Q26.1875 66.9236 26.1875 67.8142 Q26.1875 68.7673 25.8516 69.5329 Q25.5156 70.2986 24.8594 70.7048 Q24.2031 71.1111 23.4844 71.1111 Q22.9531 71.1111 22.5312 70.8845 Q22.1094 70.6579 21.8438 70.3298 L21.8438 73.3611 L20.7969 73.3611 ZM21.75 67.8923 Q21.75 69.0954 22.2344 69.6657 Q22.7188 70.2361 23.4062 70.2361 Q24.1094 70.2361 24.6094 69.6423 Q25.1094 69.0486 25.1094 67.7986 Q25.1094 66.6111 24.625 66.0251 Q24.1406 65.4392 23.4531 65.4392 Q22.7812 65.4392 22.2656 66.0642 Q21.75 66.6892 21.75 67.8923 ZM32.0469 68.9704 L33.1406 69.0954 Q32.8906 70.0486 32.1875 70.5798 Q31.4844 71.1111 30.4062 71.1111 Q29.0469 71.1111 28.2422 70.2673 Q27.4375 69.4236 27.4375 67.9079 Q27.4375 66.3454 28.25 65.4782 Q29.0625 64.6111 30.3438 64.6111 Q31.5938 64.6111 32.3828 65.4548 Q33.1719 66.2986 33.1719 67.8454 Q33.1719 67.9392 33.1719 68.1267 L28.5312 68.1267 Q28.5938 69.1579 29.1094 69.697 Q29.625 70.2361 30.4062 70.2361 Q30.9844 70.2361 31.3984 69.9314 Q31.8125 69.6267 32.0469 68.9704 ZM28.5938 67.2673 L32.0625 67.2673 Q32 66.4704 31.6719 66.0798 Q31.1562 65.4704 30.3594 65.4704 Q29.625 65.4704 29.1328 65.9548 Q28.6406 66.4392 28.5938 67.2673 ZM29.125 62.9704 L29.9062 61.3298 L31.2969 61.3298 L30 62.9704 L29.125 62.9704 ZM34.7812 70.9704 L34.7812 64.7517 L35.7344 64.7517 L35.7344 65.6892 Q36.0938 65.0329 36.3984 64.822 Q36.7031 64.6111 37.0781 64.6111 Q37.6094 64.6111 38.1562 64.9392 L37.7969 65.9236 Q37.4062 65.6892 37.0312 65.6892 Q36.6719 65.6892 36.3984 65.9001 Q36.125 66.1111 36.0156 66.4861 Q35.8281 67.0486 35.8281 67.7048 L35.8281 70.9704 L34.7812 70.9704 ZM41.0938 70.0329 L41.25 70.9548 Q40.7969 71.0486 40.4531 71.0486 Q39.875 71.0486 39.5625 70.8689 Q39.25 70.6892 39.1172 70.3923 Q38.9844 70.0954 38.9844 69.1423 L38.9844 65.5642 L38.2188 65.5642 L38.2188 64.7517 L38.9844 64.7517 L38.9844 63.2048 L40.0312 62.5798 L40.0312 64.7517 L41.0938 64.7517 L41.0938 65.5642 L40.0312 65.5642 L40.0312 69.2048 Q40.0312 69.6579 40.0859 69.7829 Q40.1406 69.9079 40.2656 69.9861 Q40.3906 70.0642 40.625 70.0642 Q40.8125 70.0642 41.0938 70.0329 ZM46.0469 68.9704 L47.1406 69.0954 Q46.8906 70.0486 46.1875 70.5798 Q45.4844 71.1111 44.4062 71.1111 Q43.0469 71.1111 42.2422 70.2673 Q41.4375 69.4236 41.4375 67.9079 Q41.4375 66.3454 42.25 65.4782 Q43.0625 64.6111 44.3438 64.6111 Q45.5938 64.6111 46.3828 65.4548 Q47.1719 66.2986 47.1719 67.8454 Q47.1719 67.9392 47.1719 68.1267 L42.5312 68.1267 Q42.5938 69.1579 43.1094 69.697 Q43.625 70.2361 44.4062 70.2361 Q44.9844 70.2361 45.3984 69.9314 Q45.8125 69.6267 46.0469 68.9704 ZM42.5938 67.2673 L46.0625 67.2673 Q46 66.4704 45.6719 66.0798 Q45.1562 65.4704 44.3594 65.4704 Q43.625 65.4704 43.1328 65.9548 Q42.6406 66.4392 42.5938 67.2673 ZM48.7656 70.9704 L48.7656 62.3767 L49.8281 62.3767 L49.8281 70.9704 L48.7656 70.9704 ZM51.7969 70.9704 L51.7969 64.7517 L52.7344 64.7517 L52.7344 65.6267 Q53.0312 65.1579 53.5156 64.8845 Q54 64.6111 54.625 64.6111 Q55.3125 64.6111 55.7578 64.8923 Q56.2031 65.1736 56.375 65.6892 Q57.125 64.6111 58.2969 64.6111 Q59.2344 64.6111 59.7266 65.1189 Q60.2188 65.6267 60.2188 66.7048 L60.2188 70.9704 L59.1719 70.9704 L59.1719 67.0486 Q59.1719 66.4236 59.0703 66.1423 Q58.9688 65.8611 58.7031 65.6892 Q58.4375 65.5173 58.0625 65.5173 Q57.4062 65.5173 56.9766 65.9548 Q56.5469 66.3923 56.5469 67.3611 L56.5469 70.9704 L55.4844 70.9704 L55.4844 66.9236 Q55.4844 66.2204 55.2266 65.8689 Q54.9688 65.5173 54.3906 65.5173 Q53.9375 65.5173 53.5625 65.7517 Q53.1875 65.9861 53.0156 66.4392 Q52.8438 66.8923 52.8438 67.7361 L52.8438 70.9704 L51.7969 70.9704 ZM67.0469 68.9704 L68.1406 69.0954 Q67.8906 70.0486 67.1875 70.5798 Q66.4844 71.1111 65.4062 71.1111 Q64.0469 71.1111 63.2422 70.2673 Q62.4375 69.4236 62.4375 67.9079 Q62.4375 66.3454 63.25 65.4782 Q64.0625 64.6111 65.3438 64.6111 Q66.5938 64.6111 67.3828 65.4548 Q68.1719 66.2986 68.1719 67.8454 Q68.1719 67.9392 68.1719 68.1267 L63.5312 68.1267 Q63.5938 69.1579 64.1094 69.697 Q64.625 70.2361 65.4062 70.2361 Q65.9844 70.2361 66.3984 69.9314 Q66.8125 69.6267 67.0469 68.9704 ZM63.5938 67.2673 L67.0625 67.2673 Q67 66.4704 66.6719 66.0798 Q66.1562 65.4704 65.3594 65.4704 Q64.625 65.4704 64.1328 65.9548 Q63.6406 66.4392 63.5938 67.2673 ZM69.2344 70.9704 L69.2344 70.1111 L73.2031 65.5642 Q72.5156 65.5954 72 65.5954 L69.4688 65.5954 L69.4688 64.7517 L74.5625 64.7517 L74.5625 65.4392 L71.1875 69.3923 L70.5312 70.1111 Q71.25 70.0642 71.8594 70.0642 L74.75 70.0642 L74.75 70.9704 L69.2344 70.9704 ZM79.0469 68.9704 L80.1406 69.0954 Q79.8906 70.0486 79.1875 70.5798 Q78.4844 71.1111 77.4062 71.1111 Q76.0469 71.1111 75.2422 70.2673 Q74.4375 69.4236 74.4375 67.9079 Q74.4375 66.3454 75.25 65.4782 Q76.0625 64.6111 77.3438 64.6111 Q78.5938 64.6111 79.3828 65.4548 Q80.1719 66.2986 80.1719 67.8454 Q80.1719 67.9392 80.1719 68.1267 L75.5312 68.1267 Q75.5938 69.1579 76.1094 69.697 Q76.625 70.2361 77.4062 70.2361 Q77.9844 70.2361 78.3984 69.9314 Q78.8125 69.6267 79.0469 68.9704 ZM75.5938 67.2673 L79.0625 67.2673 Q79 66.4704 78.6719 66.0798 Q78.1562 65.4704 77.3594 65.4704 Q76.625 65.4704 76.1328 65.9548 Q75.6406 66.4392 75.5938 67.2673 ZM84.0938 70.0329 L84.25 70.9548 Q83.7969 71.0486 83.4531 71.0486 Q82.875 71.0486 82.5625 70.8689 Q82.25 70.6892 82.1172 70.3923 Q81.9844 70.0954 81.9844 69.1423 L81.9844 65.5642 L81.2188 65.5642 L81.2188 64.7517 L81.9844 64.7517 L81.9844 63.2048 L83.0312 62.5798 L83.0312 64.7517 L84.0938 64.7517 L84.0938 65.5642 L83.0312 65.5642 L83.0312 69.2048 Q83.0312 69.6579 83.0859 69.7829 Q83.1406 69.9079 83.2656 69.9861 Q83.3906 70.0642 83.625 70.0642 Q83.8125 70.0642 84.0938 70.0329 ZM87.0938 70.0329 L87.25 70.9548 Q86.7969 71.0486 86.4531 71.0486 Q85.875 71.0486 85.5625 70.8689 Q85.25 70.6892 85.1172 70.3923 Q84.9844 70.0954 84.9844 69.1423 L84.9844 65.5642 L84.2188 65.5642 L84.2188 64.7517 L84.9844 64.7517 L84.9844 63.2048 L86.0312 62.5798 L86.0312 64.7517 L87.0938 64.7517 L87.0938 65.5642 L86.0312 65.5642 L86.0312 69.2048 Q86.0312 69.6579 86.0859 69.7829 Q86.1406 69.9079 86.2656 69.9861 Q86.3906 70.0642 86.625 70.0642 Q86.8125 70.0642 87.0938 70.0329 Z" style="clip-path:url(#clipPath49); stroke:none;" />
      <path d="M3.375 83.1111 L4.4062 82.9548 Q4.5 83.5798 4.8984 83.9079 Q5.2969 84.2361 6.0312 84.2361 Q6.75 84.2361 7.1016 83.947 Q7.4531 83.6579 7.4531 83.2517 Q7.4531 82.8923 7.1406 82.6892 Q6.9219 82.5486 6.0625 82.3298 Q4.9062 82.0329 4.4609 81.822 Q4.0156 81.6111 3.7812 81.2361 Q3.5469 80.8611 3.5469 80.3923 Q3.5469 79.9861 3.7344 79.6267 Q3.9219 79.2673 4.25 79.0329 Q4.5 78.8611 4.9219 78.7361 Q5.3438 78.6111 5.8438 78.6111 Q6.5625 78.6111 7.1172 78.822 Q7.6719 79.0329 7.9375 79.3923 Q8.2031 79.7517 8.2969 80.3454 L7.2656 80.4861 Q7.2031 80.0173 6.8672 79.7439 Q6.5312 79.4704 5.9062 79.4704 Q5.1875 79.4704 4.875 79.7126 Q4.5625 79.9548 4.5625 80.2829 Q4.5625 80.4861 4.6875 80.6423 Q4.8281 80.8142 5.0938 80.9236 Q5.25 80.9861 6.0312 81.1892 Q7.1562 81.5017 7.5938 81.6892 Q8.0312 81.8767 8.2812 82.2361 Q8.5312 82.5954 8.5312 83.1423 Q8.5312 83.6736 8.2266 84.1345 Q7.9219 84.5954 7.3438 84.8532 Q6.7656 85.1111 6.0312 85.1111 Q4.8125 85.1111 4.1797 84.6032 Q3.5469 84.0954 3.375 83.1111 ZM10.2344 84.9704 L10.2344 84.1111 L14.2031 79.5642 Q13.5156 79.5954 13 79.5954 L10.4688 79.5954 L10.4688 78.7517 L15.5625 78.7517 L15.5625 79.4392 L12.1875 83.3923 L11.5312 84.1111 Q12.25 84.0642 12.8594 84.0642 L15.75 84.0642 L15.75 84.9704 L10.2344 84.9704 ZM20.0469 82.9704 L21.1406 83.0954 Q20.8906 84.0486 20.1875 84.5798 Q19.4844 85.1111 18.4062 85.1111 Q17.0469 85.1111 16.2422 84.2673 Q15.4375 83.4236 15.4375 81.9079 Q15.4375 80.3454 16.25 79.4782 Q17.0625 78.6111 18.3438 78.6111 Q19.5938 78.6111 20.3828 79.4548 Q21.1719 80.2986 21.1719 81.8454 Q21.1719 81.9392 21.1719 82.1267 L16.5312 82.1267 Q16.5938 83.1579 17.1094 83.697 Q17.625 84.2361 18.4062 84.2361 Q18.9844 84.2361 19.3984 83.9314 Q19.8125 83.6267 20.0469 82.9704 ZM16.5938 81.2673 L20.0625 81.2673 Q20 80.4704 19.6719 80.0798 Q19.1562 79.4704 18.3594 79.4704 Q17.625 79.4704 17.1328 79.9548 Q16.6406 80.4392 16.5938 81.2673 ZM22.7969 84.9704 L22.7969 76.3767 L23.8594 76.3767 L23.8594 81.2829 L26.3438 78.7517 L27.7188 78.7517 L25.3281 81.0486 L27.9531 84.9704 L26.6562 84.9704 L24.5938 81.7829 L23.8594 82.5017 L23.8594 84.9704 L22.7969 84.9704 ZM30.5156 84.9704 L28.1562 78.7517 L29.2656 78.7517 L30.6094 82.4704 Q30.8125 83.0798 31 83.7204 Q31.1406 83.2361 31.3906 82.5486 L32.7812 78.7517 L33.8594 78.7517 L31.5 84.9704 L30.5156 84.9704 ZM38.0469 82.9704 L39.1406 83.0954 Q38.8906 84.0486 38.1875 84.5798 Q37.4844 85.1111 36.4062 85.1111 Q35.0469 85.1111 34.2422 84.2673 Q33.4375 83.4236 33.4375 81.9079 Q33.4375 80.3454 34.25 79.4782 Q35.0625 78.6111 36.3438 78.6111 Q37.5938 78.6111 38.3828 79.4548 Q39.1719 80.2986 39.1719 81.8454 Q39.1719 81.9392 39.1719 82.1267 L34.5312 82.1267 Q34.5938 83.1579 35.1094 83.697 Q35.625 84.2361 36.4062 84.2361 Q36.9844 84.2361 37.3984 83.9314 Q37.8125 83.6267 38.0469 82.9704 ZM34.5938 81.2673 L38.0625 81.2673 Q38 80.4704 37.6719 80.0798 Q37.1562 79.4704 36.3594 79.4704 Q35.625 79.4704 35.1328 79.9548 Q34.6406 80.4392 34.5938 81.2673 ZM40.7969 84.9704 L40.7969 78.7517 L41.7344 78.7517 L41.7344 79.6267 Q42.4219 78.6111 43.7188 78.6111 Q44.2812 78.6111 44.7578 78.8142 Q45.2344 79.0173 45.4688 79.3454 Q45.7031 79.6736 45.7969 80.1111 Q45.8438 80.4079 45.8438 81.1423 L45.8438 84.9704 L44.7969 84.9704 L44.7969 81.1892 Q44.7969 80.5329 44.6719 80.2204 Q44.5469 79.9079 44.2344 79.7126 Q43.9219 79.5173 43.5 79.5173 Q42.8281 79.5173 42.3359 79.947 Q41.8438 80.3767 41.8438 81.5642 L41.8438 84.9704 L40.7969 84.9704 ZM51.8594 82.6892 L52.8906 82.8298 Q52.7188 83.8923 52.0156 84.5017 Q51.3125 85.1111 50.2969 85.1111 Q49.0156 85.1111 48.2422 84.2751 Q47.4688 83.4392 47.4688 81.8767 Q47.4688 80.8767 47.8047 80.1189 Q48.1406 79.3611 48.8203 78.9861 Q49.5 78.6111 50.3125 78.6111 Q51.3125 78.6111 51.9609 79.1189 Q52.6094 79.6267 52.7969 80.5798 L51.7656 80.7361 Q51.625 80.1111 51.25 79.7907 Q50.875 79.4704 50.3438 79.4704 Q49.5469 79.4704 49.0469 80.0407 Q48.5469 80.6111 48.5469 81.8454 Q48.5469 83.1111 49.0312 83.6736 Q49.5156 84.2361 50.2812 84.2361 Q50.9062 84.2361 51.3203 83.8611 Q51.7344 83.4861 51.8594 82.6892 ZM53.7969 77.5954 L53.7969 76.3767 L54.8594 76.3767 L54.8594 77.5954 L53.7969 77.5954 ZM53.7969 84.9704 L53.7969 78.7517 L54.8594 78.7517 L54.8594 84.9704 L53.7969 84.9704 ZM60.8594 84.2048 Q60.2656 84.7048 59.7266 84.9079 Q59.1875 85.1111 58.5625 85.1111 Q57.5312 85.1111 56.9844 84.6111 Q56.4375 84.1111 56.4375 83.3298 Q56.4375 82.8767 56.6406 82.4939 Q56.8438 82.1111 57.1875 81.8845 Q57.5312 81.6579 57.9531 81.5486 Q58.25 81.4548 58.8906 81.3767 Q60.1562 81.2361 60.7656 81.0173 Q60.7656 80.7986 60.7656 80.7517 Q60.7656 80.0954 60.4688 79.8298 Q60.0625 79.4861 59.2656 79.4861 Q58.5312 79.4861 58.1719 79.7439 Q57.8125 80.0017 57.6406 80.6579 L56.6094 80.5173 Q56.75 79.8611 57.0781 79.4548 Q57.4062 79.0486 58.0156 78.8298 Q58.625 78.6111 59.4219 78.6111 Q60.2188 78.6111 60.7188 78.7986 Q61.2188 78.9861 61.4531 79.2673 Q61.6875 79.5486 61.7812 79.9861 Q61.8281 80.2517 61.8281 80.9548 L61.8281 82.3611 Q61.8281 83.8298 61.8984 84.2204 Q61.9688 84.6111 62.1719 84.9704 L61.0625 84.9704 Q60.9062 84.6423 60.8594 84.2048 ZM60.7656 81.8454 Q60.1875 82.0798 59.0469 82.2517 Q58.3906 82.3454 58.125 82.4626 Q57.8594 82.5798 57.7109 82.7986 Q57.5625 83.0173 57.5625 83.2986 Q57.5625 83.7204 57.8828 84.0017 Q58.2031 84.2829 58.8125 84.2829 Q59.4219 84.2829 59.8984 84.0173 Q60.375 83.7517 60.5938 83.2829 Q60.7656 82.9236 60.7656 82.2361 L60.7656 81.8454 ZM58.125 76.9704 L58.9062 75.3298 L60.2969 75.3298 L59 76.9704 L58.125 76.9704 ZM63.7969 84.9704 L63.7969 78.7517 L64.7344 78.7517 L64.7344 79.6267 Q65.4219 78.6111 66.7188 78.6111 Q67.2812 78.6111 67.7578 78.8142 Q68.2344 79.0173 68.4688 79.3454 Q68.7031 79.6736 68.7969 80.1111 Q68.8438 80.4079 68.8438 81.1423 L68.8438 84.9704 L67.7969 84.9704 L67.7969 81.1892 Q67.7969 80.5329 67.6719 80.2204 Q67.5469 79.9079 67.2344 79.7126 Q66.9219 79.5173 66.5 79.5173 Q65.8281 79.5173 65.3359 79.947 Q64.8438 80.3767 64.8438 81.5642 L64.8438 84.9704 L63.7969 84.9704 ZM74.8594 84.2048 Q74.2656 84.7048 73.7266 84.9079 Q73.1875 85.1111 72.5625 85.1111 Q71.5312 85.1111 70.9844 84.6111 Q70.4375 84.1111 70.4375 83.3298 Q70.4375 82.8767 70.6406 82.4939 Q70.8438 82.1111 71.1875 81.8845 Q71.5312 81.6579 71.9531 81.5486 Q72.25 81.4548 72.8906 81.3767 Q74.1562 81.2361 74.7656 81.0173 Q74.7656 80.7986 74.7656 80.7517 Q74.7656 80.0954 74.4688 79.8298 Q74.0625 79.4861 73.2656 79.4861 Q72.5312 79.4861 72.1719 79.7439 Q71.8125 80.0017 71.6406 80.6579 L70.6094 80.5173 Q70.75 79.8611 71.0781 79.4548 Q71.4062 79.0486 72.0156 78.8298 Q72.625 78.6111 73.4219 78.6111 Q74.2188 78.6111 74.7188 78.7986 Q75.2188 78.9861 75.4531 79.2673 Q75.6875 79.5486 75.7812 79.9861 Q75.8281 80.2517 75.8281 80.9548 L75.8281 82.3611 Q75.8281 83.8298 75.8984 84.2204 Q75.9688 84.6111 76.1719 84.9704 L75.0625 84.9704 Q74.9062 84.6423 74.8594 84.2048 ZM74.7656 81.8454 Q74.1875 82.0798 73.0469 82.2517 Q72.3906 82.3454 72.125 82.4626 Q71.8594 82.5798 71.7109 82.7986 Q71.5625 83.0173 71.5625 83.2986 Q71.5625 83.7204 71.8828 84.0017 Q72.2031 84.2829 72.8125 84.2829 Q73.4219 84.2829 73.8984 84.0173 Q74.375 83.7517 74.5938 83.2829 Q74.7656 82.9236 74.7656 82.2361 L74.7656 81.8454 ZM77.7969 84.9704 L77.7969 76.3767 L78.8594 76.3767 L78.8594 81.2829 L81.3438 78.7517 L82.7188 78.7517 L80.3281 81.0486 L82.9531 84.9704 L81.6562 84.9704 L79.5938 81.7829 L78.8594 82.5017 L78.8594 84.9704 L77.7969 84.9704 Z" style="clip-path:url(#clipPath49); stroke:none;" />
      <path d="M8.0469 96.9704 L9.1406 97.0954 Q8.8906 98.0486 8.1875 98.5798 Q7.4844 99.1111 6.4062 99.1111 Q5.0469 99.1111 4.2422 98.2673 Q3.4375 97.4236 3.4375 95.9079 Q3.4375 94.3454 4.25 93.4782 Q5.0625 92.6111 6.3438 92.6111 Q7.5938 92.6111 8.3828 93.4548 Q9.1719 94.2986 9.1719 95.8454 Q9.1719 95.9392 9.1719 96.1267 L4.5312 96.1267 Q4.5938 97.1579 5.1094 97.697 Q5.625 98.2361 6.4062 98.2361 Q6.9844 98.2361 7.3984 97.9314 Q7.8125 97.6267 8.0469 96.9704 ZM4.5938 95.2673 L8.0625 95.2673 Q8 94.4704 7.6719 94.0798 Q7.1562 93.4704 6.3594 93.4704 Q5.625 93.4704 5.1328 93.9548 Q4.6406 94.4392 4.5938 95.2673 ZM5.125 90.9704 L5.9062 89.3298 L7.2969 89.3298 L6 90.9704 L5.125 90.9704 ZM10.7812 98.9704 L10.7812 92.7517 L11.7344 92.7517 L11.7344 93.6892 Q12.0938 93.0329 12.3984 92.822 Q12.7031 92.6111 13.0781 92.6111 Q13.6094 92.6111 14.1562 92.9392 L13.7969 93.9236 Q13.4062 93.6892 13.0312 93.6892 Q12.6719 93.6892 12.3984 93.9001 Q12.125 94.1111 12.0156 94.4861 Q11.8281 95.0486 11.8281 95.7048 L11.8281 98.9704 L10.7812 98.9704 ZM17.0938 98.0329 L17.25 98.9548 Q16.7969 99.0486 16.4531 99.0486 Q15.875 99.0486 15.5625 98.8689 Q15.25 98.6892 15.1172 98.3923 Q14.9844 98.0954 14.9844 97.1423 L14.9844 93.5642 L14.2188 93.5642 L14.2188 92.7517 L14.9844 92.7517 L14.9844 91.2048 L16.0312 90.5798 L16.0312 92.7517 L17.0938 92.7517 L17.0938 93.5642 L16.0312 93.5642 L16.0312 97.2048 Q16.0312 97.6579 16.0859 97.7829 Q16.1406 97.9079 16.2656 97.9861 Q16.3906 98.0642 16.625 98.0642 Q16.8125 98.0642 17.0938 98.0329 ZM22.0469 96.9704 L23.1406 97.0954 Q22.8906 98.0486 22.1875 98.5798 Q21.4844 99.1111 20.4062 99.1111 Q19.0469 99.1111 18.2422 98.2673 Q17.4375 97.4236 17.4375 95.9079 Q17.4375 94.3454 18.25 93.4782 Q19.0625 92.6111 20.3438 92.6111 Q21.5938 92.6111 22.3828 93.4548 Q23.1719 94.2986 23.1719 95.8454 Q23.1719 95.9392 23.1719 96.1267 L18.5312 96.1267 Q18.5938 97.1579 19.1094 97.697 Q19.625 98.2361 20.4062 98.2361 Q20.9844 98.2361 21.3984 97.9314 Q21.8125 97.6267 22.0469 96.9704 ZM18.5938 95.2673 L22.0625 95.2673 Q22 94.4704 21.6719 94.0798 Q21.1562 93.4704 20.3594 93.4704 Q19.625 93.4704 19.1328 93.9548 Q18.6406 94.4392 18.5938 95.2673 ZM24.7656 98.9704 L24.7656 90.3767 L25.8281 90.3767 L25.8281 98.9704 L24.7656 98.9704 ZM27.7969 98.9704 L27.7969 92.7517 L28.7344 92.7517 L28.7344 93.6267 Q29.0312 93.1579 29.5156 92.8845 Q30 92.6111 30.625 92.6111 Q31.3125 92.6111 31.7578 92.8923 Q32.2031 93.1736 32.375 93.6892 Q33.125 92.6111 34.2969 92.6111 Q35.2344 92.6111 35.7266 93.1189 Q36.2188 93.6267 36.2188 94.7048 L36.2188 98.9704 L35.1719 98.9704 L35.1719 95.0486 Q35.1719 94.4236 35.0703 94.1423 Q34.9688 93.8611 34.7031 93.6892 Q34.4375 93.5173 34.0625 93.5173 Q33.4062 93.5173 32.9766 93.9548 Q32.5469 94.3923 32.5469 95.3611 L32.5469 98.9704 L31.4844 98.9704 L31.4844 94.9236 Q31.4844 94.2204 31.2266 93.8689 Q30.9688 93.5173 30.3906 93.5173 Q29.9375 93.5173 29.5625 93.7517 Q29.1875 93.9861 29.0156 94.4392 Q28.8438 94.8923 28.8438 95.7361 L28.8438 98.9704 L27.7969 98.9704 ZM43.0469 96.9704 L44.1406 97.0954 Q43.8906 98.0486 43.1875 98.5798 Q42.4844 99.1111 41.4062 99.1111 Q40.0469 99.1111 39.2422 98.2673 Q38.4375 97.4236 38.4375 95.9079 Q38.4375 94.3454 39.25 93.4782 Q40.0625 92.6111 41.3438 92.6111 Q42.5938 92.6111 43.3828 93.4548 Q44.1719 94.2986 44.1719 95.8454 Q44.1719 95.9392 44.1719 96.1267 L39.5312 96.1267 Q39.5938 97.1579 40.1094 97.697 Q40.625 98.2361 41.4062 98.2361 Q41.9844 98.2361 42.3984 97.9314 Q42.8125 97.6267 43.0469 96.9704 ZM39.5938 95.2673 L43.0625 95.2673 Q43 94.4704 42.6719 94.0798 Q42.1562 93.4704 41.3594 93.4704 Q40.625 93.4704 40.1328 93.9548 Q39.6406 94.4392 39.5938 95.2673 ZM45.2344 98.9704 L45.2344 98.1111 L49.2031 93.5642 Q48.5156 93.5954 48 93.5954 L45.4688 93.5954 L45.4688 92.7517 L50.5625 92.7517 L50.5625 93.4392 L47.1875 97.3923 L46.5312 98.1111 Q47.25 98.0642 47.8594 98.0642 L50.75 98.0642 L50.75 98.9704 L45.2344 98.9704 ZM50.2344 98.9704 L50.2344 98.1111 L54.2031 93.5642 Q53.5156 93.5954 53 93.5954 L50.4688 93.5954 L50.4688 92.7517 L55.5625 92.7517 L55.5625 93.4392 L52.1875 97.3923 L51.5312 98.1111 Q52.25 98.0642 52.8594 98.0642 L55.75 98.0642 L55.75 98.9704 L50.2344 98.9704 ZM59.875 98.9704 L59.875 98.0486 Q59.1406 99.1111 57.8906 99.1111 Q57.3438 99.1111 56.8672 98.9001 Q56.3906 98.6892 56.1562 98.3689 Q55.9219 98.0486 55.8281 97.5798 Q55.7656 97.2829 55.7656 96.5954 L55.7656 92.7517 L56.8281 92.7517 L56.8281 96.2048 Q56.8281 97.0173 56.8906 97.3142 Q56.9844 97.7204 57.3047 97.9626 Q57.625 98.2048 58.1094 98.2048 Q58.5781 98.2048 58.9922 97.9626 Q59.4062 97.7204 59.5859 97.2986 Q59.7656 96.8767 59.7656 96.0798 L59.7656 92.7517 L60.8125 92.7517 L60.8125 98.9704 L59.875 98.9704 ZM56.3594 90.9704 L56.3594 89.7673 L57.4531 89.7673 L57.4531 90.9704 L56.3594 90.9704 ZM58.5469 90.9704 L58.5469 89.7673 L59.6406 89.7673 L59.6406 90.9704 L58.5469 90.9704 ZM62.7969 98.9704 L62.7969 90.3767 L63.8594 90.3767 L63.8594 95.2829 L66.3438 92.7517 L67.7188 92.7517 L65.3281 95.0486 L67.9531 98.9704 L66.6562 98.9704 L64.5938 95.7829 L63.8594 96.5017 L63.8594 98.9704 L62.7969 98.9704 Z" style="clip-path:url(#clipPath49); stroke:none;" />
    </g>
    <g style="text-rendering:geometricPrecision; font-size:11; font-family:sans-serif;" transform="translate(36,1194)">
      <text x="10" y="12" style="clip-path:url(#clipPath50); stroke:none;" xml:space="preserve">return</text>
    </g>
    <g style="text-rendering:geometricPrecision; font-size:11; font-family:sans-serif;" transform="translate(430,34)">
      <text x="6" y="12" style="clip-path:url(#clipPath51); stroke:none;" xml:space="preserve">seqGen : SequenceGenerator</text>
    </g>
    <g style="text-rendering:geometricPrecision; font-size:11; font-family:sans-serif;" transform="translate(260,893)">
      <text x="7" y="12" style="clip-path:url(#clipPath52); stroke:none;" xml:space="preserve">vcc : Vcc</text>
    </g>
    <g style="text-rendering:geometricPrecision; font-size:11; font-family:sans-serif;" transform="translate(270,774)">
      <text x="5" y="12" style="clip-path:url(#clipPath52); stroke:none;" xml:space="preserve">gnd : Gnd</text>
    </g>
    <g style="text-rendering:geometricPrecision; font-size:11; font-family:sans-serif;" transform="translate(400,214)">
      <text x="9" y="12" style="clip-path:url(#clipPath53); stroke:none;" xml:space="preserve">component : AbstractComponent</text>
    </g>
    <g style="text-rendering:geometricPrecision; font-size:11; font-family:sans-serif;" transform="translate(10,104)">
      <text x="11" y="12" style="clip-path:url(#clipPath54); stroke:none;" xml:space="preserve">Feldolgozási kérelem</text>
    </g>
    <g style="text-rendering:geometricPrecision; font-size:11; font-family:sans-serif;" transform="translate(350,94)">
      <text x="12" y="12" style="clip-path:url(#clipPath55); stroke:none;" xml:space="preserve">circuit :</text>
      <text x="13" y="27" style="clip-path:url(#clipPath55); stroke:none;" xml:space="preserve">Circuit</text>
    </g>
    <g style="text-rendering:geometricPrecision; font-size:11; font-family:sans-serif;" transform="translate(130,34)">
      <text x="13" y="12" style="clip-path:url(#clipPath52); stroke:none;" xml:space="preserve">Parser</text>
    </g>
    <g transform="translate(101,52)" style="font-size:11; stroke-linecap:butt; stroke-dashoffset:1; text-rendering:geometricPrecision; font-family:sans-serif; stroke-linejoin:round; stroke-dasharray:5;">
      <line x1="63" x2="249" y1="63" style="clip-path:url(#clipPath56); fill:none;" y2="63" />
      <line x1="249" x2="237" y1="63" style="stroke-dashoffset:0; clip-path:url(#clipPath56); fill:none; stroke-dasharray:none;" y2="57" />
      <line x1="249" x2="237" y1="63" style="stroke-dashoffset:0; clip-path:url(#clipPath56); fill:none; stroke-dasharray:none;" y2="69" />
    </g>
    <g transform="translate(-12,32)" style="font-size:11; stroke-linecap:butt; text-rendering:geometricPrecision; font-family:sans-serif; stroke-linejoin:round;">
      <line x1="63" x2="169" y1="63" style="clip-path:url(#clipPath57); fill:none;" y2="63" />
      <polygon style="clip-path:url(#clipPath57); stroke:none;" points=" 169 63 157 57 157 69" />
      <polygon style="fill:none; clip-path:url(#clipPath57);" points=" 169 63 157 57 157 69" />
    </g>
    <g transform="translate(101,112)" style="font-size:11; stroke-linecap:butt; text-rendering:geometricPrecision; font-family:sans-serif; stroke-linejoin:round;">
      <line x1="63" x2="89" y1="63" style="clip-path:url(#clipPath58); fill:none;" y2="63" />
      <line x1="89" x2="89" y1="63" style="clip-path:url(#clipPath58); fill:none;" y2="83" />
      <line x1="89" x2="63" y1="83" style="clip-path:url(#clipPath58); fill:none;" y2="83" />
      <polygon style="clip-path:url(#clipPath58); stroke:none;" points=" 63 83 75 89 75 77" />
      <polygon style="fill:none; clip-path:url(#clipPath58);" points=" 63 83 75 89 75 77" />
    </g>
    <g transform="translate(101,172)" style="font-size:11; stroke-linecap:butt; stroke-dashoffset:1; text-rendering:geometricPrecision; font-family:sans-serif; stroke-linejoin:round; stroke-dasharray:5;">
      <line x1="63" x2="299" y1="63" style="clip-path:url(#clipPath59); fill:none;" y2="63" />
      <line x1="299" x2="287" y1="63" style="stroke-dashoffset:0; clip-path:url(#clipPath59); fill:none; stroke-dasharray:none;" y2="57" />
      <line x1="299" x2="287" y1="63" style="stroke-dashoffset:0; clip-path:url(#clipPath59); fill:none; stroke-dasharray:none;" y2="69" />
    </g>
    <g transform="translate(101,212)" style="font-size:11; stroke-linecap:butt; text-rendering:geometricPrecision; font-family:sans-serif; stroke-linejoin:round;">
      <line x1="63" x2="275" y1="63" style="clip-path:url(#clipPath60); fill:none;" y2="63" />
      <polygon style="clip-path:url(#clipPath60); stroke:none;" points=" 275 63 263 57 263 69" />
      <polygon style="fill:none; clip-path:url(#clipPath60);" points=" 275 63 263 57 263 69" />
    </g>
    <g transform="translate(101,252)" style="font-size:11; stroke-linecap:butt; text-rendering:geometricPrecision; font-family:sans-serif; stroke-linejoin:round;">
      <line x1="63" x2="89" y1="63" style="clip-path:url(#clipPath58); fill:none;" y2="63" />
      <line x1="89" x2="89" y1="63" style="clip-path:url(#clipPath58); fill:none;" y2="83" />
      <line x1="89" x2="66" y1="83" style="clip-path:url(#clipPath58); fill:none;" y2="83" />
      <polygon style="clip-path:url(#clipPath58); stroke:none;" points=" 66 83 78 89 78 77" />
      <polygon style="fill:none; clip-path:url(#clipPath58);" points=" 66 83 78 89 78 77" />
    </g>
    <g transform="translate(105,722)" style="font-size:11; stroke-linecap:butt; stroke-dashoffset:1; text-rendering:geometricPrecision; font-family:sans-serif; stroke-linejoin:round; stroke-dasharray:5;">
      <line x1="63" x2="165" y1="63" style="clip-path:url(#clipPath61); fill:none;" y2="63" />
      <line x1="165" x2="153" y1="63" style="stroke-dashoffset:0; clip-path:url(#clipPath61); fill:none; stroke-dasharray:none;" y2="57" />
      <line x1="165" x2="153" y1="63" style="stroke-dashoffset:0; clip-path:url(#clipPath61); fill:none; stroke-dasharray:none;" y2="69" />
    </g>
    <g transform="translate(105,772)" style="font-size:11; stroke-linecap:butt; text-rendering:geometricPrecision; font-family:sans-serif; stroke-linejoin:round;">
      <line x1="63" x2="381" y1="63" style="clip-path:url(#clipPath62); fill:none;" y2="63" />
      <polygon style="clip-path:url(#clipPath62); stroke:none;" points=" 381 63 369 57 369 69" />
      <polygon style="fill:none; clip-path:url(#clipPath62);" points=" 381 63 369 57 369 69" />
    </g>
    <g transform="translate(105,842)" style="font-size:11; stroke-linecap:butt; stroke-dashoffset:1; text-rendering:geometricPrecision; font-family:sans-serif; stroke-linejoin:round; stroke-dasharray:5;">
      <line x1="63" x2="155" y1="63" style="clip-path:url(#clipPath63); fill:none;" y2="63" />
      <line x1="155" x2="143" y1="63" style="stroke-dashoffset:0; clip-path:url(#clipPath63); fill:none; stroke-dasharray:none;" y2="57" />
      <line x1="155" x2="143" y1="63" style="stroke-dashoffset:0; clip-path:url(#clipPath63); fill:none; stroke-dasharray:none;" y2="69" />
    </g>
    <g transform="translate(105,892)" style="font-size:11; stroke-linecap:butt; text-rendering:geometricPrecision; font-family:sans-serif; stroke-linejoin:round;">
      <line x1="63" x2="381" y1="63" style="clip-path:url(#clipPath62); fill:none;" y2="63" />
      <polygon style="clip-path:url(#clipPath62); stroke:none;" points=" 381 63 369 57 369 69" />
      <polygon style="fill:none; clip-path:url(#clipPath62);" points=" 381 63 369 57 369 69" />
    </g>
    <g transform="translate(105,952)" style="font-size:11; stroke-linecap:butt; text-rendering:geometricPrecision; font-family:sans-serif; stroke-linejoin:round;">
      <line x1="63" x2="271" y1="63" style="clip-path:url(#clipPath64); fill:none;" y2="63" />
      <polygon style="clip-path:url(#clipPath64); stroke:none;" points=" 271 63 259 57 259 69" />
      <polygon style="fill:none; clip-path:url(#clipPath64);" points=" 271 63 259 57 259 69" />
    </g>
    <g transform="translate(105,982)" style="font-size:11; stroke-linecap:butt; text-rendering:geometricPrecision; font-family:sans-serif; stroke-linejoin:round; stroke-dasharray:8,3; stroke-miterlimit:0;">
      <line x1="271" x2="63" y1="63" style="clip-path:url(#clipPath64); fill:none;" y2="63" />
      <line x1="63" x2="75" y1="63" style="clip-path:url(#clipPath64); fill:none; stroke-dasharray:none; stroke-miterlimit:10;" y2="69" />
      <line x1="63" x2="75" y1="63" style="clip-path:url(#clipPath64); fill:none; stroke-dasharray:none; stroke-miterlimit:10;" y2="57" />
    </g>
    <g transform="translate(105,1012)" style="font-size:11; stroke-linecap:butt; text-rendering:geometricPrecision; font-family:sans-serif; stroke-linejoin:round;">
      <line x1="63" x2="381" y1="63" style="clip-path:url(#clipPath62); fill:none;" y2="63" />
      <polygon style="clip-path:url(#clipPath62); stroke:none;" points=" 381 63 369 57 369 69" />
      <polygon style="fill:none; clip-path:url(#clipPath62);" points=" 381 63 369 57 369 69" />
    </g>
    <g transform="translate(105,402)" style="font-size:11; stroke-linecap:butt; text-rendering:geometricPrecision; font-family:sans-serif; stroke-linejoin:round;">
      <line x1="63" x2="271" y1="63" style="clip-path:url(#clipPath64); fill:none;" y2="63" />
      <polygon style="clip-path:url(#clipPath64); stroke:none;" points=" 271 63 259 57 259 69" />
      <polygon style="fill:none; clip-path:url(#clipPath64);" points=" 271 63 259 57 259 69" />
    </g>
    <g transform="translate(105,432)" style="font-size:11; stroke-linecap:butt; text-rendering:geometricPrecision; font-family:sans-serif; stroke-linejoin:round; stroke-dasharray:8,3; stroke-miterlimit:0;">
      <line x1="271" x2="63" y1="63" style="clip-path:url(#clipPath64); fill:none;" y2="63" />
      <line x1="63" x2="75" y1="63" style="clip-path:url(#clipPath64); fill:none; stroke-dasharray:none; stroke-miterlimit:10;" y2="69" />
      <line x1="63" x2="75" y1="63" style="clip-path:url(#clipPath64); fill:none; stroke-dasharray:none; stroke-miterlimit:10;" y2="57" />
    </g>
    <g transform="translate(105,512)" style="font-size:11; stroke-linecap:butt; text-rendering:geometricPrecision; font-family:sans-serif; stroke-linejoin:round;">
      <line x1="63" x2="381" y1="63" style="clip-path:url(#clipPath62); fill:none;" y2="63" />
      <polygon style="clip-path:url(#clipPath62); stroke:none;" points=" 381 63 369 57 369 69" />
      <polygon style="fill:none; clip-path:url(#clipPath62);" points=" 381 63 369 57 369 69" />
    </g>
    <g transform="translate(-2,1122)" style="font-size:11; stroke-linecap:butt; text-rendering:geometricPrecision; font-family:sans-serif; stroke-linejoin:round; stroke-dasharray:8,3; stroke-miterlimit:0;">
      <line x1="159" x2="63" y1="63" style="clip-path:url(#clipPath65); fill:none;" y2="63" />
      <line x1="63" x2="75" y1="63" style="clip-path:url(#clipPath65); fill:none; stroke-dasharray:none; stroke-miterlimit:10;" y2="69" />
      <line x1="63" x2="75" y1="63" style="clip-path:url(#clipPath65); fill:none; stroke-dasharray:none; stroke-miterlimit:10;" y2="57" />
    </g>
    <g transform="translate(-22,482)" style="font-size:11; stroke-linecap:butt; text-rendering:geometricPrecision; font-family:sans-serif; stroke-linejoin:round; stroke-dasharray:4;">
      <line x1="141" x2="63" y1="63" style="clip-path:url(#clipPath66); fill:none;" y2="63" />
      <line x1="63" x2="63" y1="63" style="clip-path:url(#clipPath66); fill:none;" y2="81" />
    </g>
    <g style="text-rendering:geometricPrecision; font-size:11; font-family:sans-serif;" transform="translate(78,1160)">
      <text x="10" y="12" style="clip-path:url(#clipPath67); stroke:none;" xml:space="preserve">2: circuit</text>
    </g>
    <g style="text-rendering:geometricPrecision; font-size:11; font-family:sans-serif;" transform="translate(250,554)">
      <text x="9" y="12" style="clip-path:url(#clipPath68); stroke:none;" xml:space="preserve">1.5.3: setValues()</text>
    </g>
    <g style="text-rendering:geometricPrecision; font-size:11; font-family:sans-serif;" transform="translate(215,474)">
      <text x="11" y="12" style="clip-path:url(#clipPath69); stroke:none;" xml:space="preserve">1.5.2: component</text>
    </g>
    <g style="text-rendering:geometricPrecision; font-size:11; font-family:sans-serif;" transform="translate(185,444)">
      <text x="12" y="12" style="clip-path:url(#clipPath70); stroke:none;" xml:space="preserve">1.5.1: getComponentByName()</text>
    </g>
    <g style="text-rendering:geometricPrecision; font-size:11; font-family:sans-serif;" transform="translate(180,1054)">
      <text x="16" y="12" style="clip-path:url(#clipPath71); stroke:none;" xml:space="preserve">1.5.10: setInput(inputPin, inputComponent, outputPin)</text>
    </g>
    <g style="text-rendering:geometricPrecision; font-size:11; font-family:sans-serif;" transform="translate(200,1024)">
      <text x="12" y="12" style="clip-path:url(#clipPath72); stroke:none;" xml:space="preserve">1.5.9: inputComponent</text>
    </g>
    <g style="text-rendering:geometricPrecision; font-size:11; font-family:sans-serif;" transform="translate(150,994)">
      <text x="14" y="12" style="clip-path:url(#clipPath73); stroke:none;" xml:space="preserve">1.5.8: getComponentByName(componentName)</text>
    </g>
    <g style="text-rendering:geometricPrecision; font-size:11; font-family:sans-serif;" transform="translate(180,934)">
      <text x="10" y="12" style="clip-path:url(#clipPath74); stroke:none;" xml:space="preserve">1.5.7: setInput(vcc)</text>
    </g>
    <g style="text-rendering:geometricPrecision; font-size:11; font-family:sans-serif;" transform="translate(170,874)">
      <text x="10" y="12" style="clip-path:url(#clipPath75); stroke:none;" xml:space="preserve">&lt;&lt;create&gt;&gt;</text>
      <text x="24" y="27" style="clip-path:url(#clipPath75); stroke:none;" xml:space="preserve">1.5.6:</text>
    </g>
    <g style="text-rendering:geometricPrecision; font-size:11; font-family:sans-serif;" transform="translate(180,814)">
      <text x="10" y="12" style="clip-path:url(#clipPath76); stroke:none;" xml:space="preserve">1.5.5: setInput(gnd)</text>
    </g>
    <g style="text-rendering:geometricPrecision; font-size:11; font-family:sans-serif;" transform="translate(180,754)">
      <text x="10" y="12" style="clip-path:url(#clipPath75); stroke:none;" xml:space="preserve">&lt;&lt;create&gt;&gt;</text>
      <text x="24" y="27" style="clip-path:url(#clipPath75); stroke:none;" xml:space="preserve">1.5.4:</text>
    </g>
    <g style="text-rendering:geometricPrecision; font-size:11; font-family:sans-serif;" transform="translate(190,314)">
      <text x="10" y="12" style="clip-path:url(#clipPath77); stroke:none;" xml:space="preserve">1.5: setArguments()</text>
    </g>
    <g style="text-rendering:geometricPrecision; font-size:11; font-family:sans-serif;" transform="translate(174,253)">
      <text x="12" y="12" style="clip-path:url(#clipPath78); stroke:none;" xml:space="preserve">1.4: addComponent(component)</text>
    </g>
    <g style="text-rendering:geometricPrecision; font-size:11; font-family:sans-serif;" transform="translate(205,204)">
      <text x="40" y="12" style="clip-path:url(#clipPath79); stroke:none;" xml:space="preserve">&lt;&lt;create&gt;&gt;</text>
      <text x="11" y="27" style="clip-path:url(#clipPath79); stroke:none;" xml:space="preserve">1.3: createComponent()</text>
    </g>
    <g style="text-rendering:geometricPrecision; font-size:11; font-family:sans-serif;" transform="translate(190,174)">
      <text x="10" y="12" style="clip-path:url(#clipPath80); stroke:none;" xml:space="preserve">1.2: parseLine()</text>
    </g>
    <g style="text-rendering:geometricPrecision; font-size:11; font-family:sans-serif;" transform="translate(48,70)">
      <text x="10" y="12" style="clip-path:url(#clipPath81); stroke:none;" xml:space="preserve">1: parse(fileName)</text>
    </g>
    <g style="text-rendering:geometricPrecision; font-size:11; font-family:sans-serif;" transform="translate(214,84)">
      <text x="12" y="12" style="clip-path:url(#clipPath82); stroke:none;" xml:space="preserve">&lt;&lt;create&gt;&gt;</text>
      <text x="10" y="27" style="clip-path:url(#clipPath82); stroke:none;" xml:space="preserve">1.1: Circuit()</text>
    </g>
  </g>
</svg>
