<?xml version="1.0" encoding="UTF-8"?>

<!DOCTYPE svg PUBLIC '-//W3C//DTD SVG 1.0//EN' 'http://www.w3.org/TR/2001/REC-SVG-20010904/DTD/svg10.dtd'>
<svg style="fill-opacity:1; color-rendering:auto; color-interpolation:auto; stroke:black; text-rendering:auto; stroke-linecap:square; stroke-miterlimit:10; stroke-opacity:1; shape-rendering:auto; fill:black; stroke-dasharray:none; font-weight:normal; stroke-width:1; font-family:&apos;Dialog&apos;; font-style:normal; stroke-linejoin:miter; font-size:12; stroke-dashoffset:0; image-rendering:auto;" xmlns="http://www.w3.org/2000/svg" width="424" xmlns:xlink="http://www.w3.org/1999/xlink" height="438">
  <!--Generated by the Batik Graphics2D SVG Generator-->
  <defs id="genericDefs" />
  <g>
    <defs id="defs1">
      <clipPath clipPathUnits="userSpaceOnUse" id="clipPath1">
        <path d="M-3 -3 L27 -3 L27 27 L-3 27 L-3 -3 Z" />
      </clipPath>
      <clipPath clipPathUnits="userSpaceOnUse" id="clipPath2">
        <path d="M-3 -3 L127 -3 L127 397 L-3 397 L-3 -3 Z" />
      </clipPath>
      <clipPath clipPathUnits="userSpaceOnUse" id="clipPath3">
        <path d="M-3 -3 L15 -3 L15 318 L-3 318 L-3 -3 Z" />
      </clipPath>
      <clipPath clipPathUnits="userSpaceOnUse" id="clipPath4">
        <path d="M-3 -3 L107 -3 L107 397 L-3 397 L-3 -3 Z" />
      </clipPath>
      <clipPath clipPathUnits="userSpaceOnUse" id="clipPath5">
        <path d="M-3 -3 L257 -3 L257 257 L-3 257 L-3 -3 Z" />
      </clipPath>
      <clipPath clipPathUnits="userSpaceOnUse" id="clipPath6">
        <path d="M0 0 L33 0 L33 18 L0 18 L0 0 Z" />
      </clipPath>
      <clipPath clipPathUnits="userSpaceOnUse" id="clipPath7">
        <path d="M-3 -3 L15 -3 L15 19 L-3 19 L-3 -3 Z" />
      </clipPath>
      <clipPath clipPathUnits="userSpaceOnUse" id="clipPath8">
        <path d="M-3 -3 L237 -3 L237 69 L-3 69 L-3 -3 Z" />
      </clipPath>
      <clipPath clipPathUnits="userSpaceOnUse" id="clipPath9">
        <path d="M0 0 L71 0 L71 15 L0 15 L0 0 Z" />
      </clipPath>
      <clipPath clipPathUnits="userSpaceOnUse" id="clipPath10">
        <path d="M0 0 L0 4 L230 4 L230 0 Z" />
      </clipPath>
      <clipPath clipPathUnits="userSpaceOnUse" id="clipPath11">
        <path d="M-3 -3 L237 -3 L237 97 L-3 97 L-3 -3 Z" />
      </clipPath>
      <clipPath clipPathUnits="userSpaceOnUse" id="clipPath12">
        <path d="M0 0 L191 0 L191 30 L0 30 L0 0 Z" />
      </clipPath>
      <clipPath clipPathUnits="userSpaceOnUse" id="clipPath13">
        <path d="M-3 -3 L257 -3 L257 239 L-3 239 L-3 -3 Z" />
      </clipPath>
      <clipPath clipPathUnits="userSpaceOnUse" id="clipPath14">
        <path d="M0 0 L131 0 L131 15 L0 15 L0 0 Z" />
      </clipPath>
      <clipPath clipPathUnits="userSpaceOnUse" id="clipPath15">
        <path d="M0 0 L0 4 L250 4 L250 0 Z" />
      </clipPath>
      <clipPath clipPathUnits="userSpaceOnUse" id="clipPath16">
        <path d="M-3 -3 L237 -3 L237 177 L-3 177 L-3 -3 Z" />
      </clipPath>
      <clipPath clipPathUnits="userSpaceOnUse" id="clipPath17">
        <path d="M0 0 L23 0 L23 18 L0 18 L0 0 Z" />
      </clipPath>
      <clipPath clipPathUnits="userSpaceOnUse" id="clipPath18">
        <path d="M-3 -3 L147 -3 L147 147 L-3 147 L-3 -3 Z" />
      </clipPath>
      <clipPath clipPathUnits="userSpaceOnUse" id="clipPath19">
        <path d="M0 0 L0 140 L140 140 L140 0 Z" />
      </clipPath>
      <clipPath clipPathUnits="userSpaceOnUse" id="clipPath20">
        <path d="M-100 -15 L200 -15 L200 30 L-100 30 L-100 -15 Z" />
      </clipPath>
      <clipPath clipPathUnits="userSpaceOnUse" id="clipPath21">
        <path d="M-120 -30 L240 -30 L240 60 L-120 60 L-120 -30 Z" />
      </clipPath>
      <clipPath clipPathUnits="userSpaceOnUse" id="clipPath22">
        <path d="M-59 -15 L118 -15 L118 30 L-59 30 L-59 -15 Z" />
      </clipPath>
      <clipPath clipPathUnits="userSpaceOnUse" id="clipPath23">
        <path d="M0 0 L230 0 L230 104 L0 104 L0 0 Z" />
      </clipPath>
      <clipPath clipPathUnits="userSpaceOnUse" id="clipPath24">
        <path d="M0 0 L130 0 L130 124 L0 124 L0 0 Z" />
      </clipPath>
      <clipPath clipPathUnits="userSpaceOnUse" id="clipPath25">
        <path d="M0 0 L266 0 L266 104 L0 104 L0 0 Z" />
      </clipPath>
      <clipPath clipPathUnits="userSpaceOnUse" id="clipPath26">
        <path d="M0 0 L113 0 L113 104 L0 104 L0 0 Z" />
      </clipPath>
      <clipPath clipPathUnits="userSpaceOnUse" id="clipPath27">
        <path d="M-107 -15 L214 -15 L214 30 L-107 30 L-107 -15 Z" />
      </clipPath>
      <clipPath clipPathUnits="userSpaceOnUse" id="clipPath28">
        <path d="M-103 -15 L206 -15 L206 30 L-103 30 L-103 -15 Z" />
      </clipPath>
      <clipPath clipPathUnits="userSpaceOnUse" id="clipPath29">
        <path d="M-106 -15 L212 -15 L212 30 L-106 30 L-106 -15 Z" />
      </clipPath>
      <clipPath clipPathUnits="userSpaceOnUse" id="clipPath30">
        <path d="M-60 -15 L120 -15 L120 30 L-60 30 L-60 -15 Z" />
      </clipPath>
    </defs>
    <g style="fill:white; text-rendering:geometricPrecision; stroke:white;">
      <rect x="0" y="0" width="424" style="stroke:none;" height="438" />
      <rect x="0" y="38" transform="translate(0,-38)" width="423" style="fill:none; stroke:black;" height="437" />
      <text x="7" y="55" transform="translate(0,-38)" style="fill:black; stroke:none; font-weight:bold;" xml:space="preserve">sd</text>
      <text x="28" y="55" transform="translate(0,-38)" style="fill:black; stroke:none;" xml:space="preserve">Jelgenerátor lépésénél a feliratkozott FF-ek vezérlése</text>
      <line transform="translate(0,-38)" x1="0" x2="318" y1="62" style="fill:none; stroke:black;" y2="62" />
      <line transform="translate(0,-38)" x1="324" x2="324" y1="38" style="fill:none; stroke:black;" y2="52" />
      <line transform="translate(0,-38)" x1="324" x2="318" y1="52" style="fill:none; stroke:black;" y2="62" />
    </g>
    <g transform="translate(40,84)" style="font-size:11; fill:silver; text-rendering:geometricPrecision; font-family:sans-serif; stroke:silver;">
      <rect x="0" y="0" width="19" style="clip-path:url(#clipPath1); fill:none;" height="19" />
    </g>
    <g transform="translate(120,34)" style="font-size:11; fill:white; text-rendering:geometricPrecision; font-family:sans-serif; stroke:white;">
      <rect x="0" y="0" width="119" style="clip-path:url(#clipPath2); stroke:none;" height="35" />
    </g>
    <g transform="translate(120,34)" style="font-size:11; stroke-linecap:butt; text-rendering:geometricPrecision; font-family:sans-serif; stroke-linejoin:round; stroke-miterlimit:0;">
      <rect x="0" y="0" width="119" style="clip-path:url(#clipPath2); fill:none;" height="35" />
      <line x1="59" x2="59" y1="35" style="clip-path:url(#clipPath2); fill:none; stroke-linejoin:bevel; stroke-dasharray:8,3;" y2="390" />
    </g>
    <g transform="translate(176,84)" style="font-size:11; fill:white; text-rendering:geometricPrecision; font-family:sans-serif; stroke:white;">
      <rect x="0" y="0" width="8" style="clip-path:url(#clipPath3); stroke:none;" height="311" />
    </g>
    <g transform="translate(176,84)" style="font-size:11; stroke-linecap:butt; text-rendering:geometricPrecision; font-family:sans-serif; stroke-linejoin:round; stroke-miterlimit:0;">
      <rect x="0" y="0" width="8" style="clip-path:url(#clipPath3); fill:none;" height="311" />
    </g>
    <g transform="translate(300,34)" style="font-size:11; fill:white; text-rendering:geometricPrecision; font-family:sans-serif; stroke:white;">
      <rect x="4" y="4" width="95" style="clip-path:url(#clipPath4); stroke:none;" height="35" />
    </g>
    <g transform="translate(300,34)" style="font-size:11; stroke-linecap:butt; text-rendering:geometricPrecision; font-family:sans-serif; stroke-linejoin:round; stroke-miterlimit:0;">
      <rect x="4" y="4" width="95" style="clip-path:url(#clipPath4); fill:none;" height="35" />
    </g>
    <g transform="translate(300,34)" style="font-size:11; fill:white; text-rendering:geometricPrecision; font-family:sans-serif; stroke:white;">
      <rect x="0" y="0" width="95" style="clip-path:url(#clipPath4); stroke:none;" height="35" />
    </g>
    <g transform="translate(300,34)" style="font-size:11; stroke-linecap:butt; text-rendering:geometricPrecision; font-family:sans-serif; stroke-linejoin:round; stroke-miterlimit:0;">
      <rect x="0" y="0" width="95" style="clip-path:url(#clipPath4); fill:none;" height="35" />
      <line x1="47" x2="47" y1="35" style="clip-path:url(#clipPath4); fill:none; stroke-linejoin:bevel; stroke-dasharray:8,3;" y2="390" />
    </g>
    <g transform="translate(160,134)" style="font-size:11; stroke-linecap:butt; text-rendering:geometricPrecision; font-family:sans-serif; stroke-linejoin:round; font-weight:bold; stroke-miterlimit:0;">
      <rect x="0" y="0" width="250" style="clip-path:url(#clipPath5); fill:none;" height="250" />
    </g>
    <g transform="translate(160,134)" style="font-size:11; fill:white; text-rendering:geometricPrecision; font-family:sans-serif; stroke:white; font-weight:bold;">
      <path d="M32 0 L32 9 L26 17 L0 17 L0 0 Z" style="clip-path:url(#clipPath5); stroke:none;" />
    </g>
    <g transform="translate(160,134)" style="font-size:11; stroke-linecap:butt; text-rendering:geometricPrecision; font-family:sans-serif; stroke-linejoin:round; font-weight:bold; stroke-miterlimit:0;">
      <path d="M32 0 L32 9 L26 17 L0 17 L0 0 Z" style="fill:none; clip-path:url(#clipPath5);" />
    </g>
    <g transform="translate(160,134)" style="text-rendering:geometricPrecision; font-size:11; font-weight:bold; font-family:sans-serif;">
      <text x="4" y="12" style="clip-path:url(#clipPath6); stroke:none;" xml:space="preserve">loop</text>
    </g>
    <g transform="translate(346,264)" style="font-size:11; fill:white; text-rendering:geometricPrecision; font-family:sans-serif; stroke:white;">
      <rect x="0" y="0" width="8" style="clip-path:url(#clipPath7); stroke:none;" height="12" />
    </g>
    <g transform="translate(346,264)" style="font-size:11; stroke-linecap:butt; text-rendering:geometricPrecision; font-family:sans-serif; stroke-linejoin:round; stroke-miterlimit:0;">
      <rect x="0" y="0" width="8" style="clip-path:url(#clipPath7); fill:none;" height="12" />
    </g>
    <g transform="translate(346,334)" style="font-size:11; fill:white; text-rendering:geometricPrecision; font-family:sans-serif; stroke:white;">
      <rect x="0" y="0" width="8" style="clip-path:url(#clipPath7); stroke:none;" height="12" />
    </g>
    <g transform="translate(346,334)" style="font-size:11; stroke-linecap:butt; text-rendering:geometricPrecision; font-family:sans-serif; stroke-linejoin:round; stroke-miterlimit:0;">
      <rect x="0" y="0" width="8" style="clip-path:url(#clipPath7); fill:none;" height="12" />
    </g>
    <g transform="translate(170,292)" style="font-size:11; fill:white; text-rendering:geometricPrecision; font-family:sans-serif; stroke:white;">
      <rect x="28" y="5" width="71" style="clip-path:url(#clipPath8); stroke:none;" height="15" />
    </g>
    <g style="text-rendering:geometricPrecision; font-size:11; font-family:sans-serif;" transform="translate(198,297)">
      <text x="11" y="12" style="clip-path:url(#clipPath9); stroke:none;" xml:space="preserve">[különben]</text>
    </g>
    <g transform="translate(170,202)" style="font-size:11; fill:white; text-rendering:geometricPrecision; font-family:sans-serif; stroke:white;">
      <rect x="28" y="5" width="191" style="clip-path:url(#clipPath11); stroke:none;" height="30" />
    </g>
    <g transform="translate(170,202)" style="font-size:11; stroke-linecap:butt; text-rendering:geometricPrecision; font-family:sans-serif; stroke-linejoin:bevel; stroke-dasharray:5,2; stroke-miterlimit:0;">
      <line x1="0" x2="229" y1="89" style="clip-path:url(#clipPath11); fill:none;" y2="89" />
    </g>
    <g style="text-rendering:geometricPrecision; font-size:11; font-family:sans-serif;" transform="translate(198,207)">
      <text x="11" y="12" style="clip-path:url(#clipPath12); stroke:none;" xml:space="preserve">[előző érték 0 volt, most 1-et adunk</text>
      <text x="26" y="27" style="clip-path:url(#clipPath12); stroke:none;" xml:space="preserve">ki a léptetés miatt (felfutó él)]</text>
    </g>
    <g transform="translate(160,152)" style="font-size:11; fill:white; text-rendering:geometricPrecision; font-family:sans-serif; stroke:white;">
      <rect x="28" y="5" width="131" style="clip-path:url(#clipPath13); stroke:none;" height="15" />
    </g>
    <g style="text-rendering:geometricPrecision; font-size:11; font-family:sans-serif;" transform="translate(188,157)">
      <text x="11" y="12" style="clip-path:url(#clipPath14); stroke:none;" xml:space="preserve">[ffList minden elemére]</text>
    </g>
    <g transform="translate(170,184)" style="font-size:11; stroke-linecap:butt; text-rendering:geometricPrecision; font-family:sans-serif; stroke-linejoin:round; font-weight:bold; stroke-miterlimit:0;">
      <rect x="0" y="0" width="230" style="clip-path:url(#clipPath16); fill:none;" height="170" />
    </g>
    <g transform="translate(170,184)" style="font-size:11; fill:white; text-rendering:geometricPrecision; font-family:sans-serif; stroke:white; font-weight:bold;">
      <path d="M22 0 L22 9 L16 17 L0 17 L0 0 Z" style="clip-path:url(#clipPath16); stroke:none;" />
    </g>
    <g transform="translate(170,184)" style="font-size:11; stroke-linecap:butt; text-rendering:geometricPrecision; font-family:sans-serif; stroke-linejoin:round; font-weight:bold; stroke-miterlimit:0;">
      <path d="M22 0 L22 9 L16 17 L0 17 L0 0 Z" style="fill:none; clip-path:url(#clipPath16);" />
    </g>
    <g transform="translate(170,184)" style="text-rendering:geometricPrecision; font-size:11; font-weight:bold; font-family:sans-serif;">
      <text x="5" y="12" style="clip-path:url(#clipPath17); stroke:none;" xml:space="preserve">alt</text>
    </g>
    <g transform="translate(10,144)" style="font-size:11; fill:white; text-rendering:geometricPrecision; font-family:sans-serif; stroke:white;">
      <polygon style="clip-path:url(#clipPath18); stroke:none;" points=" 0 0 124 0 139 15 124 15 124 0 139 15 139 139 0 139" />
    </g>
    <g transform="translate(10,144)" style="font-size:11; stroke-linecap:butt; text-rendering:geometricPrecision; font-family:sans-serif; stroke-linejoin:round; stroke-miterlimit:0;">
      <polygon style="fill:none; clip-path:url(#clipPath18);" points=" 0 0 124 0 139 15 124 15 124 0 139 15 139 139 0 139" />
    </g>
    <g style="text-rendering:geometricPrecision; font-size:11; font-family:&apos;Tahoma&apos;;" transform="translate(10,144)">
      <path d="M3.9844 14.9704 L3.9844 6.3767 L9.7812 6.3767 L9.7812 7.3923 L5.125 7.3923 L5.125 10.0486 L9.1562 10.0486 L9.1562 11.0642 L5.125 11.0642 L5.125 14.9704 L3.9844 14.9704 ZM15.0469 12.9704 L16.1406 13.0954 Q15.8906 14.0486 15.1875 14.5798 Q14.4844 15.1111 13.4062 15.1111 Q12.0469 15.1111 11.2422 14.2673 Q10.4375 13.4236 10.4375 11.9079 Q10.4375 10.3454 11.25 9.4782 Q12.0625 8.6111 13.3438 8.6111 Q14.5938 8.6111 15.3828 9.4548 Q16.1719 10.2986 16.1719 11.8454 Q16.1719 11.9392 16.1719 12.1267 L11.5312 12.1267 Q11.5938 13.1579 12.1094 13.697 Q12.625 14.2361 13.4062 14.2361 Q13.9844 14.2361 14.3984 13.9314 Q14.8125 13.6267 15.0469 12.9704 ZM11.5938 11.2673 L15.0625 11.2673 Q15 10.4704 14.6719 10.0798 Q14.1562 9.4704 13.3594 9.4704 Q12.625 9.4704 12.1328 9.9548 Q11.6406 10.4392 11.5938 11.2673 ZM17.7656 14.9704 L17.7656 6.3767 L18.8281 6.3767 L18.8281 14.9704 L17.7656 14.9704 ZM20.7969 7.5954 L20.7969 6.3767 L21.8594 6.3767 L21.8594 7.5954 L20.7969 7.5954 ZM20.7969 14.9704 L20.7969 8.7517 L21.8594 8.7517 L21.8594 14.9704 L20.7969 14.9704 ZM23.7812 14.9704 L23.7812 8.7517 L24.7344 8.7517 L24.7344 9.6892 Q25.0938 9.0329 25.3984 8.822 Q25.7031 8.6111 26.0781 8.6111 Q26.6094 8.6111 27.1562 8.9392 L26.7969 9.9236 Q26.4062 9.6892 26.0312 9.6892 Q25.6719 9.6892 25.3984 9.9001 Q25.125 10.1111 25.0156 10.4861 Q24.8281 11.0486 24.8281 11.7048 L24.8281 14.9704 L23.7812 14.9704 ZM31.8594 14.2048 Q31.2656 14.7048 30.7266 14.9079 Q30.1875 15.1111 29.5625 15.1111 Q28.5312 15.1111 27.9844 14.6111 Q27.4375 14.1111 27.4375 13.3298 Q27.4375 12.8767 27.6406 12.4939 Q27.8438 12.1111 28.1875 11.8845 Q28.5312 11.6579 28.9531 11.5486 Q29.25 11.4548 29.8906 11.3767 Q31.1562 11.2361 31.7656 11.0173 Q31.7656 10.7986 31.7656 10.7517 Q31.7656 10.0954 31.4688 9.8298 Q31.0625 9.4861 30.2656 9.4861 Q29.5312 9.4861 29.1719 9.7439 Q28.8125 10.0017 28.6406 10.6579 L27.6094 10.5173 Q27.75 9.8611 28.0781 9.4548 Q28.4062 9.0486 29.0156 8.8298 Q29.625 8.6111 30.4219 8.6111 Q31.2188 8.6111 31.7188 8.7986 Q32.2188 8.9861 32.4531 9.2673 Q32.6875 9.5486 32.7812 9.9861 Q32.8281 10.2517 32.8281 10.9548 L32.8281 12.3611 Q32.8281 13.8298 32.8984 14.2204 Q32.9688 14.6111 33.1719 14.9704 L32.0625 14.9704 Q31.9062 14.6423 31.8594 14.2048 ZM31.7656 11.8454 Q31.1875 12.0798 30.0469 12.2517 Q29.3906 12.3454 29.125 12.4626 Q28.8594 12.5798 28.7109 12.7986 Q28.5625 13.0173 28.5625 13.2986 Q28.5625 13.7204 28.8828 14.0017 Q29.2031 14.2829 29.8125 14.2829 Q30.4219 14.2829 30.8984 14.0173 Q31.375 13.7517 31.5938 13.2829 Q31.7656 12.9236 31.7656 12.2361 L31.7656 11.8454 ZM37.0938 14.0329 L37.25 14.9548 Q36.7969 15.0486 36.4531 15.0486 Q35.875 15.0486 35.5625 14.8689 Q35.25 14.6892 35.1172 14.3923 Q34.9844 14.0954 34.9844 13.1423 L34.9844 9.5642 L34.2188 9.5642 L34.2188 8.7517 L34.9844 8.7517 L34.9844 7.2048 L36.0312 6.5798 L36.0312 8.7517 L37.0938 8.7517 L37.0938 9.5642 L36.0312 9.5642 L36.0312 13.2048 Q36.0312 13.6579 36.0859 13.7829 Q36.1406 13.9079 36.2656 13.9861 Q36.3906 14.0642 36.625 14.0642 Q36.8125 14.0642 37.0938 14.0329 ZM37.7969 14.9704 L37.7969 6.3767 L38.8594 6.3767 L38.8594 11.2829 L41.3438 8.7517 L42.7188 8.7517 L40.3281 11.0486 L42.9531 14.9704 L41.6562 14.9704 L39.5938 11.7829 L38.8594 12.5017 L38.8594 14.9704 L37.7969 14.9704 ZM43.4062 11.8611 Q43.4062 10.1267 44.3594 9.2986 Q45.1562 8.6111 46.3125 8.6111 Q47.5938 8.6111 48.4141 9.447 Q49.2344 10.2829 49.2344 11.7673 Q49.2344 12.9704 48.875 13.6579 Q48.5156 14.3454 47.8203 14.7282 Q47.125 15.1111 46.3125 15.1111 Q45.0156 15.1111 44.2109 14.2751 Q43.4062 13.4392 43.4062 11.8611 ZM44.4844 11.8611 Q44.4844 13.0486 45.0078 13.6423 Q45.5312 14.2361 46.3125 14.2361 Q47.1094 14.2361 47.625 13.6423 Q48.1406 13.0486 48.1406 11.8298 Q48.1406 10.6736 47.6172 10.0798 Q47.0938 9.4861 46.3125 9.4861 Q45.5312 9.4861 45.0078 10.072 Q44.4844 10.6579 44.4844 11.8611 ZM50.2344 14.9704 L50.2344 14.1111 L54.2031 9.5642 Q53.5156 9.5954 53 9.5954 L50.4688 9.5954 L50.4688 8.7517 L55.5625 8.7517 L55.5625 9.4392 L52.1875 13.3923 L51.5312 14.1111 Q52.25 14.0642 52.8594 14.0642 L55.75 14.0642 L55.75 14.9704 L50.2344 14.9704 ZM55.4062 11.8611 Q55.4062 10.1267 56.3594 9.2986 Q57.1562 8.6111 58.3125 8.6111 Q59.5938 8.6111 60.4141 9.447 Q61.2344 10.2829 61.2344 11.7673 Q61.2344 12.9704 60.875 13.6579 Q60.5156 14.3454 59.8203 14.7282 Q59.125 15.1111 58.3125 15.1111 Q57.0156 15.1111 56.2109 14.2751 Q55.4062 13.4392 55.4062 11.8611 ZM56.4844 11.8611 Q56.4844 13.0486 57.0078 13.6423 Q57.5312 14.2361 58.3125 14.2361 Q59.1094 14.2361 59.625 13.6423 Q60.1406 13.0486 60.1406 11.8298 Q60.1406 10.6736 59.6172 10.0798 Q59.0938 9.4861 58.3125 9.4861 Q57.5312 9.4861 57.0078 10.072 Q56.4844 10.6579 56.4844 11.8611 ZM65.0938 14.0329 L65.25 14.9548 Q64.7969 15.0486 64.4531 15.0486 Q63.875 15.0486 63.5625 14.8689 Q63.25 14.6892 63.1172 14.3923 Q62.9844 14.0954 62.9844 13.1423 L62.9844 9.5642 L62.2188 9.5642 L62.2188 8.7517 L62.9844 8.7517 L62.9844 7.2048 L64.0312 6.5798 L64.0312 8.7517 L65.0938 8.7517 L65.0938 9.5642 L64.0312 9.5642 L64.0312 13.2048 Q64.0312 13.6579 64.0859 13.7829 Q64.1406 13.9079 64.2656 13.9861 Q64.3906 14.0642 64.625 14.0642 Q64.8125 14.0642 65.0938 14.0329 ZM68.0938 14.0329 L68.25 14.9548 Q67.7969 15.0486 67.4531 15.0486 Q66.875 15.0486 66.5625 14.8689 Q66.25 14.6892 66.1172 14.3923 Q65.9844 14.0954 65.9844 13.1423 L65.9844 9.5642 L65.2188 9.5642 L65.2188 8.7517 L65.9844 8.7517 L65.9844 7.2048 L67.0312 6.5798 L67.0312 8.7517 L68.0938 8.7517 L68.0938 9.5642 L67.0312 9.5642 L67.0312 13.2048 Q67.0312 13.6579 67.0859 13.7829 Q67.1406 13.9079 67.2656 13.9861 Q67.3906 14.0642 67.625 14.0642 Q67.8125 14.0642 68.0938 14.0329 ZM71.9844 14.9704 L71.9844 6.3767 L77.7812 6.3767 L77.7812 7.3923 L73.125 7.3923 L73.125 10.0486 L77.1562 10.0486 L77.1562 11.0642 L73.125 11.0642 L73.125 14.9704 L71.9844 14.9704 ZM78.9844 14.9704 L78.9844 6.3767 L84.7812 6.3767 L84.7812 7.3923 L80.125 7.3923 L80.125 10.0486 L84.1562 10.0486 L84.1562 11.0642 L80.125 11.0642 L80.125 14.9704 L78.9844 14.9704 ZM85.375 12.3923 L85.375 11.3298 L88.625 11.3298 L88.625 12.3923 L85.375 12.3923 ZM94.0469 12.9704 L95.1406 13.0954 Q94.8906 14.0486 94.1875 14.5798 Q93.4844 15.1111 92.4062 15.1111 Q91.0469 15.1111 90.2422 14.2673 Q89.4375 13.4236 89.4375 11.9079 Q89.4375 10.3454 90.25 9.4782 Q91.0625 8.6111 92.3438 8.6111 Q93.5938 8.6111 94.3828 9.4548 Q95.1719 10.2986 95.1719 11.8454 Q95.1719 11.9392 95.1719 12.1267 L90.5312 12.1267 Q90.5938 13.1579 91.1094 13.697 Q91.625 14.2361 92.4062 14.2361 Q92.9844 14.2361 93.3984 13.9314 Q93.8125 13.6267 94.0469 12.9704 ZM90.5938 11.2673 L94.0625 11.2673 Q94 10.4704 93.6719 10.0798 Q93.1562 9.4704 92.3594 9.4704 Q91.625 9.4704 91.1328 9.9548 Q90.6406 10.4392 90.5938 11.2673 ZM96.7969 14.9704 L96.7969 6.3767 L97.8594 6.3767 L97.8594 11.2829 L100.3438 8.7517 L101.7188 8.7517 L99.3281 11.0486 L101.9531 14.9704 L100.6562 14.9704 L98.5938 11.7829 L97.8594 12.5017 L97.8594 14.9704 L96.7969 14.9704 ZM102.7969 14.9704 L102.7969 8.7517 L103.7344 8.7517 L103.7344 9.6267 Q104.4219 8.6111 105.7188 8.6111 Q106.2812 8.6111 106.7578 8.8142 Q107.2344 9.0173 107.4688 9.3454 Q107.7031 9.6736 107.7969 10.1111 Q107.8438 10.4079 107.8438 11.1423 L107.8438 14.9704 L106.7969 14.9704 L106.7969 11.1892 Q106.7969 10.5329 106.6719 10.2204 Q106.5469 9.9079 106.2344 9.7126 Q105.9219 9.5173 105.5 9.5173 Q104.8281 9.5173 104.3359 9.947 Q103.8438 10.3767 103.8438 11.5642 L103.8438 14.9704 L102.7969 14.9704 ZM114.0469 12.9704 L115.1406 13.0954 Q114.8906 14.0486 114.1875 14.5798 Q113.4844 15.1111 112.4062 15.1111 Q111.0469 15.1111 110.2422 14.2673 Q109.4375 13.4236 109.4375 11.9079 Q109.4375 10.3454 110.25 9.4782 Q111.0625 8.6111 112.3438 8.6111 Q113.5938 8.6111 114.3828 9.4548 Q115.1719 10.2986 115.1719 11.8454 Q115.1719 11.9392 115.1719 12.1267 L110.5312 12.1267 Q110.5938 13.1579 111.1094 13.697 Q111.625 14.2361 112.4062 14.2361 Q112.9844 14.2361 113.3984 13.9314 Q113.8125 13.6267 114.0469 12.9704 ZM110.5938 11.2673 L114.0625 11.2673 Q114 10.4704 113.6719 10.0798 Q113.1562 9.4704 112.3594 9.4704 Q111.625 9.4704 111.1328 9.9548 Q110.6406 10.4392 110.5938 11.2673 ZM116.7969 14.9704 L116.7969 6.3767 L117.8594 6.3767 L117.8594 11.2829 L120.3438 8.7517 L121.7188 8.7517 L119.3281 11.0486 L121.9531 14.9704 L120.6562 14.9704 L118.5938 11.7829 L117.8594 12.5017 L117.8594 14.9704 L116.7969 14.9704 Z" style="clip-path:url(#clipPath19); stroke:none;" />
      <path d="M5.5156 28.9704 L3.1562 22.7517 L4.2656 22.7517 L5.6094 26.4704 Q5.8125 27.0798 6 27.7204 Q6.1406 27.2361 6.3906 26.5486 L7.7812 22.7517 L8.8594 22.7517 L6.5 28.9704 L5.5156 28.9704 ZM12.8594 28.2048 Q12.2656 28.7048 11.7266 28.9079 Q11.1875 29.1111 10.5625 29.1111 Q9.5312 29.1111 8.9844 28.6111 Q8.4375 28.1111 8.4375 27.3298 Q8.4375 26.8767 8.6406 26.4939 Q8.8438 26.1111 9.1875 25.8845 Q9.5312 25.6579 9.9531 25.5486 Q10.25 25.4548 10.8906 25.3767 Q12.1562 25.2361 12.7656 25.0173 Q12.7656 24.7986 12.7656 24.7517 Q12.7656 24.0954 12.4688 23.8298 Q12.0625 23.4861 11.2656 23.4861 Q10.5312 23.4861 10.1719 23.7439 Q9.8125 24.0017 9.6406 24.6579 L8.6094 24.5173 Q8.75 23.8611 9.0781 23.4548 Q9.4062 23.0486 10.0156 22.8298 Q10.625 22.6111 11.4219 22.6111 Q12.2188 22.6111 12.7188 22.7986 Q13.2188 22.9861 13.4531 23.2673 Q13.6875 23.5486 13.7812 23.9861 Q13.8281 24.2517 13.8281 24.9548 L13.8281 26.3611 Q13.8281 27.8298 13.8984 28.2204 Q13.9688 28.6111 14.1719 28.9704 L13.0625 28.9704 Q12.9062 28.6423 12.8594 28.2048 ZM12.7656 25.8454 Q12.1875 26.0798 11.0469 26.2517 Q10.3906 26.3454 10.125 26.4626 Q9.8594 26.5798 9.7109 26.7986 Q9.5625 27.0173 9.5625 27.2986 Q9.5625 27.7204 9.8828 28.0017 Q10.2031 28.2829 10.8125 28.2829 Q11.4219 28.2829 11.8984 28.0173 Q12.375 27.7517 12.5938 27.2829 Q12.7656 26.9236 12.7656 26.2361 L12.7656 25.8454 ZM10.125 20.9704 L10.9062 19.3298 L12.2969 19.3298 L11 20.9704 L10.125 20.9704 ZM15.7656 28.9704 L15.7656 20.3767 L16.8281 20.3767 L16.8281 28.9704 L15.7656 28.9704 ZM21.0938 28.0329 L21.25 28.9548 Q20.7969 29.0486 20.4531 29.0486 Q19.875 29.0486 19.5625 28.8689 Q19.25 28.6892 19.1172 28.3923 Q18.9844 28.0954 18.9844 27.1423 L18.9844 23.5642 L18.2188 23.5642 L18.2188 22.7517 L18.9844 22.7517 L18.9844 21.2048 L20.0312 20.5798 L20.0312 22.7517 L21.0938 22.7517 L21.0938 23.5642 L20.0312 23.5642 L20.0312 27.2048 Q20.0312 27.6579 20.0859 27.7829 Q20.1406 27.9079 20.2656 27.9861 Q20.3906 28.0642 20.625 28.0642 Q20.8125 28.0642 21.0938 28.0329 ZM21.4062 25.8611 Q21.4062 24.1267 22.3594 23.2986 Q23.1562 22.6111 24.3125 22.6111 Q25.5938 22.6111 26.4141 23.447 Q27.2344 24.2829 27.2344 25.7673 Q27.2344 26.9704 26.875 27.6579 Q26.5156 28.3454 25.8203 28.7282 Q25.125 29.1111 24.3125 29.1111 Q23.0156 29.1111 22.2109 28.2751 Q21.4062 27.4392 21.4062 25.8611 ZM22.4844 25.8611 Q22.4844 27.0486 23.0078 27.6423 Q23.5312 28.2361 24.3125 28.2361 Q25.1094 28.2361 25.625 27.6423 Q26.1406 27.0486 26.1406 25.8298 Q26.1406 24.6736 25.6172 24.0798 Q25.0938 23.4861 24.3125 23.4861 Q23.5312 23.4861 23.0078 24.072 Q22.4844 24.6579 22.4844 25.8611 ZM28.2344 28.9704 L28.2344 28.1111 L32.2031 23.5642 Q31.5156 23.5954 31 23.5954 L28.4688 23.5954 L28.4688 22.7517 L33.5625 22.7517 L33.5625 23.4392 L30.1875 27.3923 L29.5312 28.1111 Q30.25 28.0642 30.8594 28.0642 L33.75 28.0642 L33.75 28.9704 L28.2344 28.9704 ZM36.0938 28.0329 L36.25 28.9548 Q35.7969 29.0486 35.4531 29.0486 Q34.875 29.0486 34.5625 28.8689 Q34.25 28.6892 34.1172 28.3923 Q33.9844 28.0954 33.9844 27.1423 L33.9844 23.5642 L33.2188 23.5642 L33.2188 22.7517 L33.9844 22.7517 L33.9844 21.2048 L35.0312 20.5798 L35.0312 22.7517 L36.0938 22.7517 L36.0938 23.5642 L35.0312 23.5642 L35.0312 27.2048 Q35.0312 27.6579 35.0859 27.7829 Q35.1406 27.9079 35.2656 27.9861 Q35.3906 28.0642 35.625 28.0642 Q35.8125 28.0642 36.0938 28.0329 ZM40.8594 28.2048 Q40.2656 28.7048 39.7266 28.9079 Q39.1875 29.1111 38.5625 29.1111 Q37.5312 29.1111 36.9844 28.6111 Q36.4375 28.1111 36.4375 27.3298 Q36.4375 26.8767 36.6406 26.4939 Q36.8438 26.1111 37.1875 25.8845 Q37.5312 25.6579 37.9531 25.5486 Q38.25 25.4548 38.8906 25.3767 Q40.1562 25.2361 40.7656 25.0173 Q40.7656 24.7986 40.7656 24.7517 Q40.7656 24.0954 40.4688 23.8298 Q40.0625 23.4861 39.2656 23.4861 Q38.5312 23.4861 38.1719 23.7439 Q37.8125 24.0017 37.6406 24.6579 L36.6094 24.5173 Q36.75 23.8611 37.0781 23.4548 Q37.4062 23.0486 38.0156 22.8298 Q38.625 22.6111 39.4219 22.6111 Q40.2188 22.6111 40.7188 22.7986 Q41.2188 22.9861 41.4531 23.2673 Q41.6875 23.5486 41.7812 23.9861 Q41.8281 24.2517 41.8281 24.9548 L41.8281 26.3611 Q41.8281 27.8298 41.8984 28.2204 Q41.9688 28.6111 42.1719 28.9704 L41.0625 28.9704 Q40.9062 28.6423 40.8594 28.2048 ZM40.7656 25.8454 Q40.1875 26.0798 39.0469 26.2517 Q38.3906 26.3454 38.125 26.4626 Q37.8594 26.5798 37.7109 26.7986 Q37.5625 27.0173 37.5625 27.2986 Q37.5625 27.7204 37.8828 28.0017 Q38.2031 28.2829 38.8125 28.2829 Q39.4219 28.2829 39.8984 28.0173 Q40.375 27.7517 40.5938 27.2829 Q40.7656 26.9236 40.7656 26.2361 L40.7656 25.8454 ZM46.0938 28.0329 L46.25 28.9548 Q45.7969 29.0486 45.4531 29.0486 Q44.875 29.0486 44.5625 28.8689 Q44.25 28.6892 44.1172 28.3923 Q43.9844 28.0954 43.9844 27.1423 L43.9844 23.5642 L43.2188 23.5642 L43.2188 22.7517 L43.9844 22.7517 L43.9844 21.2048 L45.0312 20.5798 L45.0312 22.7517 L46.0938 22.7517 L46.0938 23.5642 L45.0312 23.5642 L45.0312 27.2048 Q45.0312 27.6579 45.0859 27.7829 Q45.1406 27.9079 45.2656 27.9861 Q45.3906 28.0642 45.625 28.0642 Q45.8125 28.0642 46.0938 28.0329 ZM46.7812 21.6111 L46.7812 20.3767 L47.8438 20.3767 L47.8438 21.6111 L46.7812 21.6111 ZM45.4531 31.3923 L45.6406 30.4861 Q45.9688 30.5642 46.1406 30.5642 Q46.4688 30.5642 46.625 30.3532 Q46.7812 30.1423 46.7812 29.2829 L46.7812 22.7517 L47.8438 22.7517 L47.8438 29.3142 Q47.8438 30.4548 47.5469 30.9079 Q47.1562 31.5017 46.2812 31.5017 Q45.8438 31.5017 45.4531 31.3923 ZM53.875 28.9704 L53.875 28.0486 Q53.1406 29.1111 51.8906 29.1111 Q51.3438 29.1111 50.8672 28.9001 Q50.3906 28.6892 50.1562 28.3689 Q49.9219 28.0486 49.8281 27.5798 Q49.7656 27.2829 49.7656 26.5954 L49.7656 22.7517 L50.8281 22.7517 L50.8281 26.2048 Q50.8281 27.0173 50.8906 27.3142 Q50.9844 27.7204 51.3047 27.9626 Q51.625 28.2048 52.1094 28.2048 Q52.5781 28.2048 52.9922 27.9626 Q53.4062 27.7204 53.5859 27.2986 Q53.7656 26.8767 53.7656 26.0798 L53.7656 22.7517 L54.8125 22.7517 L54.8125 28.9704 L53.875 28.9704 ZM56.7969 28.9704 L56.7969 20.3767 L57.8594 20.3767 L57.8594 25.2829 L60.3438 22.7517 L61.7188 22.7517 L59.3281 25.0486 L61.9531 28.9704 L60.6562 28.9704 L58.5938 25.7829 L57.8594 26.5017 L57.8594 28.9704 L56.7969 28.9704 ZM69.8594 28.2048 Q69.2656 28.7048 68.7266 28.9079 Q68.1875 29.1111 67.5625 29.1111 Q66.5312 29.1111 65.9844 28.6111 Q65.4375 28.1111 65.4375 27.3298 Q65.4375 26.8767 65.6406 26.4939 Q65.8438 26.1111 66.1875 25.8845 Q66.5312 25.6579 66.9531 25.5486 Q67.25 25.4548 67.8906 25.3767 Q69.1562 25.2361 69.7656 25.0173 Q69.7656 24.7986 69.7656 24.7517 Q69.7656 24.0954 69.4688 23.8298 Q69.0625 23.4861 68.2656 23.4861 Q67.5312 23.4861 67.1719 23.7439 Q66.8125 24.0017 66.6406 24.6579 L65.6094 24.5173 Q65.75 23.8611 66.0781 23.4548 Q66.4062 23.0486 67.0156 22.8298 Q67.625 22.6111 68.4219 22.6111 Q69.2188 22.6111 69.7188 22.7986 Q70.2188 22.9861 70.4531 23.2673 Q70.6875 23.5486 70.7812 23.9861 Q70.8281 24.2517 70.8281 24.9548 L70.8281 26.3611 Q70.8281 27.8298 70.8984 28.2204 Q70.9688 28.6111 71.1719 28.9704 L70.0625 28.9704 Q69.9062 28.6423 69.8594 28.2048 ZM69.7656 25.8454 Q69.1875 26.0798 68.0469 26.2517 Q67.3906 26.3454 67.125 26.4626 Q66.8594 26.5798 66.7109 26.7986 Q66.5625 27.0173 66.5625 27.2986 Q66.5625 27.7204 66.8828 28.0017 Q67.2031 28.2829 67.8125 28.2829 Q68.4219 28.2829 68.8984 28.0173 Q69.375 27.7517 69.5938 27.2829 Q69.7656 26.9236 69.7656 26.2361 L69.7656 25.8454 ZM72.2344 28.9704 L72.2344 28.1111 L76.2031 23.5642 Q75.5156 23.5954 75 23.5954 L72.4688 23.5954 L72.4688 22.7517 L77.5625 22.7517 L77.5625 23.4392 L74.1875 27.3923 L73.5312 28.1111 Q74.25 28.0642 74.8594 28.0642 L77.75 28.0642 L77.75 28.9704 L72.2344 28.9704 ZM84.8594 28.2048 Q84.2656 28.7048 83.7266 28.9079 Q83.1875 29.1111 82.5625 29.1111 Q81.5312 29.1111 80.9844 28.6111 Q80.4375 28.1111 80.4375 27.3298 Q80.4375 26.8767 80.6406 26.4939 Q80.8438 26.1111 81.1875 25.8845 Q81.5312 25.6579 81.9531 25.5486 Q82.25 25.4548 82.8906 25.3767 Q84.1562 25.2361 84.7656 25.0173 Q84.7656 24.7986 84.7656 24.7517 Q84.7656 24.0954 84.4688 23.8298 Q84.0625 23.4861 83.2656 23.4861 Q82.5312 23.4861 82.1719 23.7439 Q81.8125 24.0017 81.6406 24.6579 L80.6094 24.5173 Q80.75 23.8611 81.0781 23.4548 Q81.4062 23.0486 82.0156 22.8298 Q82.625 22.6111 83.4219 22.6111 Q84.2188 22.6111 84.7188 22.7986 Q85.2188 22.9861 85.4531 23.2673 Q85.6875 23.5486 85.7812 23.9861 Q85.8281 24.2517 85.8281 24.9548 L85.8281 26.3611 Q85.8281 27.8298 85.8984 28.2204 Q85.9688 28.6111 86.1719 28.9704 L85.0625 28.9704 Q84.9062 28.6423 84.8594 28.2048 ZM84.7656 25.8454 Q84.1875 26.0798 83.0469 26.2517 Q82.3906 26.3454 82.125 26.4626 Q81.8594 26.5798 81.7109 26.7986 Q81.5625 27.0173 81.5625 27.2986 Q81.5625 27.7204 81.8828 28.0017 Q82.2031 28.2829 82.8125 28.2829 Q83.4219 28.2829 83.8984 28.0173 Q84.375 27.7517 84.5938 27.2829 Q84.7656 26.9236 84.7656 26.2361 L84.7656 25.8454 ZM91.8594 26.6892 L92.8906 26.8298 Q92.7188 27.8923 92.0156 28.5017 Q91.3125 29.1111 90.2969 29.1111 Q89.0156 29.1111 88.2422 28.2751 Q87.4688 27.4392 87.4688 25.8767 Q87.4688 24.8767 87.8047 24.1189 Q88.1406 23.3611 88.8203 22.9861 Q89.5 22.6111 90.3125 22.6111 Q91.3125 22.6111 91.9609 23.1189 Q92.6094 23.6267 92.7969 24.5798 L91.7656 24.7361 Q91.625 24.1111 91.25 23.7907 Q90.875 23.4704 90.3438 23.4704 Q89.5469 23.4704 89.0469 24.0407 Q88.5469 24.6111 88.5469 25.8454 Q88.5469 27.1111 89.0312 27.6736 Q89.5156 28.2361 90.2812 28.2361 Q90.9062 28.2361 91.3203 27.8611 Q91.7344 27.4861 91.8594 26.6892 ZM96.0938 28.0329 L96.25 28.9548 Q95.7969 29.0486 95.4531 29.0486 Q94.875 29.0486 94.5625 28.8689 Q94.25 28.6892 94.1172 28.3923 Q93.9844 28.0954 93.9844 27.1423 L93.9844 23.5642 L93.2188 23.5642 L93.2188 22.7517 L93.9844 22.7517 L93.9844 21.2048 L95.0312 20.5798 L95.0312 22.7517 L96.0938 22.7517 L96.0938 23.5642 L95.0312 23.5642 L95.0312 27.2048 Q95.0312 27.6579 95.0859 27.7829 Q95.1406 27.9079 95.2656 27.9861 Q95.3906 28.0642 95.625 28.0642 Q95.8125 28.0642 96.0938 28.0329 ZM96.7969 21.5954 L96.7969 20.3767 L97.8594 20.3767 L97.8594 21.5954 L96.7969 21.5954 ZM96.7969 28.9704 L96.7969 22.7517 L97.8594 22.7517 L97.8594 28.9704 L96.7969 28.9704 ZM101.5156 28.9704 L99.1562 22.7517 L100.2656 22.7517 L101.6094 26.4704 Q101.8125 27.0798 102 27.7204 Q102.1406 27.2361 102.3906 26.5486 L103.7812 22.7517 L104.8594 22.7517 L102.5 28.9704 L101.5156 28.9704 ZM109.0469 26.9704 L110.1406 27.0954 Q109.8906 28.0486 109.1875 28.5798 Q108.4844 29.1111 107.4062 29.1111 Q106.0469 29.1111 105.2422 28.2673 Q104.4375 27.4236 104.4375 25.9079 Q104.4375 24.3454 105.25 23.4782 Q106.0625 22.6111 107.3438 22.6111 Q108.5938 22.6111 109.3828 23.4548 Q110.1719 24.2986 110.1719 25.8454 Q110.1719 25.9392 110.1719 26.1267 L105.5312 26.1267 Q105.5938 27.1579 106.1094 27.697 Q106.625 28.2361 107.4062 28.2361 Q107.9844 28.2361 108.3984 27.9314 Q108.8125 27.6267 109.0469 26.9704 ZM105.5938 25.2673 L109.0625 25.2673 Q109 24.4704 108.6719 24.0798 Q108.1562 23.4704 107.3594 23.4704 Q106.625 23.4704 106.1328 23.9548 Q105.6406 24.4392 105.5938 25.2673 Z" style="clip-path:url(#clipPath19); stroke:none;" />
      <path d="M4.0469 42.9704 L4.0469 37.5642 L3.1094 37.5642 L3.1094 36.7517 L4.0469 36.7517 L4.0469 36.0798 Q4.0469 35.4548 4.1562 35.1579 Q4.3125 34.7361 4.6953 34.4861 Q5.0781 34.2361 5.7656 34.2361 Q6.2188 34.2361 6.75 34.3454 L6.5938 35.2517 Q6.2656 35.2048 5.9688 35.2048 Q5.4844 35.2048 5.2891 35.4079 Q5.0938 35.6111 5.0938 36.1736 L5.0938 36.7517 L6.3125 36.7517 L6.3125 37.5642 L5.0938 37.5642 L5.0938 42.9704 L4.0469 42.9704 ZM6.7656 42.9704 L6.7656 34.3767 L7.8281 34.3767 L7.8281 42.9704 L6.7656 42.9704 ZM13.8594 42.2048 Q13.2656 42.7048 12.7266 42.9079 Q12.1875 43.1111 11.5625 43.1111 Q10.5312 43.1111 9.9844 42.6111 Q9.4375 42.1111 9.4375 41.3298 Q9.4375 40.8767 9.6406 40.4939 Q9.8438 40.1111 10.1875 39.8845 Q10.5312 39.6579 10.9531 39.5486 Q11.25 39.4548 11.8906 39.3767 Q13.1562 39.2361 13.7656 39.0173 Q13.7656 38.7986 13.7656 38.7517 Q13.7656 38.0954 13.4688 37.8298 Q13.0625 37.4861 12.2656 37.4861 Q11.5312 37.4861 11.1719 37.7439 Q10.8125 38.0017 10.6406 38.6579 L9.6094 38.5173 Q9.75 37.8611 10.0781 37.4548 Q10.4062 37.0486 11.0156 36.8298 Q11.625 36.6111 12.4219 36.6111 Q13.2188 36.6111 13.7188 36.7986 Q14.2188 36.9861 14.4531 37.2673 Q14.6875 37.5486 14.7812 37.9861 Q14.8281 38.2517 14.8281 38.9548 L14.8281 40.3611 Q14.8281 41.8298 14.8984 42.2204 Q14.9688 42.6111 15.1719 42.9704 L14.0625 42.9704 Q13.9062 42.6423 13.8594 42.2048 ZM13.7656 39.8454 Q13.1875 40.0798 12.0469 40.2517 Q11.3906 40.3454 11.125 40.4626 Q10.8594 40.5798 10.7109 40.7986 Q10.5625 41.0173 10.5625 41.2986 Q10.5625 41.7204 10.8828 42.0017 Q11.2031 42.2829 11.8125 42.2829 Q12.4219 42.2829 12.8984 42.0173 Q13.375 41.7517 13.5938 41.2829 Q13.7656 40.9236 13.7656 40.2361 L13.7656 39.8454 ZM16.5938 43.4861 L17.625 43.6423 Q17.6875 44.1111 17.9844 44.3298 Q18.375 44.6267 19.0469 44.6267 Q19.7812 44.6267 20.1797 44.3298 Q20.5781 44.0329 20.7188 43.5173 Q20.8125 43.1892 20.7969 42.1579 Q20.1094 42.9704 19.0781 42.9704 Q17.7969 42.9704 17.0938 42.0407 Q16.3906 41.1111 16.3906 39.8298 Q16.3906 38.9392 16.7109 38.1814 Q17.0312 37.4236 17.6406 37.0173 Q18.25 36.6111 19.0781 36.6111 Q20.1875 36.6111 20.9062 37.5017 L20.9062 36.7517 L21.875 36.7517 L21.875 42.1267 Q21.875 43.5798 21.5781 44.1892 Q21.2812 44.7986 20.6406 45.1501 Q20 45.5017 19.0625 45.5017 Q17.9531 45.5017 17.2656 45.0017 Q16.5781 44.5017 16.5938 43.4861 ZM17.4688 39.7517 Q17.4688 40.9704 17.9531 41.5329 Q18.4375 42.0954 19.1719 42.0954 Q19.9062 42.0954 20.3984 41.5329 Q20.8906 40.9704 20.8906 39.7829 Q20.8906 38.6423 20.3828 38.0642 Q19.875 37.4861 19.1562 37.4861 Q18.4531 37.4861 17.9609 38.0564 Q17.4688 38.6267 17.4688 39.7517 ZM23.7812 35.6111 L23.7812 34.3767 L24.8438 34.3767 L24.8438 35.6111 L23.7812 35.6111 ZM22.4531 45.3923 L22.6406 44.4861 Q22.9688 44.5642 23.1406 44.5642 Q23.4688 44.5642 23.625 44.3532 Q23.7812 44.1423 23.7812 43.2829 L23.7812 36.7517 L24.8438 36.7517 L24.8438 43.3142 Q24.8438 44.4548 24.5469 44.9079 Q24.1562 45.5017 23.2812 45.5017 Q22.8438 45.5017 22.4531 45.3923 ZM31.0469 40.9704 L32.1406 41.0954 Q31.8906 42.0486 31.1875 42.5798 Q30.4844 43.1111 29.4062 43.1111 Q28.0469 43.1111 27.2422 42.2673 Q26.4375 41.4236 26.4375 39.9079 Q26.4375 38.3454 27.25 37.4782 Q28.0625 36.6111 29.3438 36.6111 Q30.5938 36.6111 31.3828 37.4548 Q32.1719 38.2986 32.1719 39.8454 Q32.1719 39.9392 32.1719 40.1267 L27.5312 40.1267 Q27.5938 41.1579 28.1094 41.697 Q28.625 42.2361 29.4062 42.2361 Q29.9844 42.2361 30.3984 41.9314 Q30.8125 41.6267 31.0469 40.9704 ZM27.5938 39.2673 L31.0625 39.2673 Q31 38.4704 30.6719 38.0798 Q30.1562 37.4704 29.3594 37.4704 Q28.625 37.4704 28.1328 37.9548 Q27.6406 38.4392 27.5938 39.2673 ZM28.125 34.9704 L28.9062 33.3298 L30.2969 33.3298 L29 34.9704 L28.125 34.9704 ZM36.0938 42.0329 L36.25 42.9548 Q35.7969 43.0486 35.4531 43.0486 Q34.875 43.0486 34.5625 42.8689 Q34.25 42.6892 34.1172 42.3923 Q33.9844 42.0954 33.9844 41.1423 L33.9844 37.5642 L33.2188 37.5642 L33.2188 36.7517 L33.9844 36.7517 L33.9844 35.2048 L35.0312 34.5798 L35.0312 36.7517 L36.0938 36.7517 L36.0938 37.5642 L35.0312 37.5642 L35.0312 41.2048 Q35.0312 41.6579 35.0859 41.7829 Q35.1406 41.9079 35.2656 41.9861 Q35.3906 42.0642 35.625 42.0642 Q35.8125 42.0642 36.0938 42.0329 ZM41.8125 45.5017 Q40.9375 44.3923 40.3359 42.9157 Q39.7344 41.4392 39.7344 39.8611 Q39.7344 38.4704 40.1719 37.1892 Q40.7031 35.7048 41.8125 34.2361 L42.5625 34.2361 Q41.8594 35.4548 41.625 35.9704 Q41.2656 36.7829 41.0625 37.6579 Q40.8125 38.7517 40.8125 39.8611 Q40.8125 42.6892 42.5625 45.5017 L41.8125 45.5017 ZM43.7969 42.9704 L43.7969 34.3767 L44.8438 34.3767 L44.8438 37.4548 Q45.5781 36.6111 46.7031 36.6111 Q47.4062 36.6111 47.9141 36.8845 Q48.4219 37.1579 48.6406 37.6345 Q48.8594 38.1111 48.8594 39.0329 L48.8594 42.9704 L47.8125 42.9704 L47.8125 39.0329 Q47.8125 38.2361 47.4688 37.8767 Q47.125 37.5173 46.5 37.5173 Q46.0312 37.5173 45.6172 37.7595 Q45.2031 38.0017 45.0234 38.4157 Q44.8438 38.8298 44.8438 39.5642 L44.8438 42.9704 L43.7969 42.9704 ZM54.8594 42.2048 Q54.2656 42.7048 53.7266 42.9079 Q53.1875 43.1111 52.5625 43.1111 Q51.5312 43.1111 50.9844 42.6111 Q50.4375 42.1111 50.4375 41.3298 Q50.4375 40.8767 50.6406 40.4939 Q50.8438 40.1111 51.1875 39.8845 Q51.5312 39.6579 51.9531 39.5486 Q52.25 39.4548 52.8906 39.3767 Q54.1562 39.2361 54.7656 39.0173 Q54.7656 38.7986 54.7656 38.7517 Q54.7656 38.0954 54.4688 37.8298 Q54.0625 37.4861 53.2656 37.4861 Q52.5312 37.4861 52.1719 37.7439 Q51.8125 38.0017 51.6406 38.6579 L50.6094 38.5173 Q50.75 37.8611 51.0781 37.4548 Q51.4062 37.0486 52.0156 36.8298 Q52.625 36.6111 53.4219 36.6111 Q54.2188 36.6111 54.7188 36.7986 Q55.2188 36.9861 55.4531 37.2673 Q55.6875 37.5486 55.7812 37.9861 Q55.8281 38.2517 55.8281 38.9548 L55.8281 40.3611 Q55.8281 41.8298 55.8984 42.2204 Q55.9688 42.6111 56.1719 42.9704 L55.0625 42.9704 Q54.9062 42.6423 54.8594 42.2048 ZM54.7656 39.8454 Q54.1875 40.0798 53.0469 40.2517 Q52.3906 40.3454 52.125 40.4626 Q51.8594 40.5798 51.7109 40.7986 Q51.5625 41.0173 51.5625 41.2986 Q51.5625 41.7204 51.8828 42.0017 Q52.2031 42.2829 52.8125 42.2829 Q53.4219 42.2829 53.8984 42.0173 Q54.375 41.7517 54.5938 41.2829 Q54.7656 40.9236 54.7656 40.2361 L54.7656 39.8454 ZM65.0469 40.9704 L66.1406 41.0954 Q65.8906 42.0486 65.1875 42.5798 Q64.4844 43.1111 63.4062 43.1111 Q62.0469 43.1111 61.2422 42.2673 Q60.4375 41.4236 60.4375 39.9079 Q60.4375 38.3454 61.25 37.4782 Q62.0625 36.6111 63.3438 36.6111 Q64.5938 36.6111 65.3828 37.4548 Q66.1719 38.2986 66.1719 39.8454 Q66.1719 39.9392 66.1719 40.1267 L61.5312 40.1267 Q61.5938 41.1579 62.1094 41.697 Q62.625 42.2361 63.4062 42.2361 Q63.9844 42.2361 64.3984 41.9314 Q64.8125 41.6267 65.0469 40.9704 ZM61.5938 39.2673 L65.0625 39.2673 Q65 38.4704 64.6719 38.0798 Q64.1562 37.4704 63.3594 37.4704 Q62.625 37.4704 62.1328 37.9548 Q61.6406 38.4392 61.5938 39.2673 ZM67.2344 42.9704 L67.2344 42.1111 L71.2031 37.5642 Q70.5156 37.5954 70 37.5954 L67.4688 37.5954 L67.4688 36.7517 L72.5625 36.7517 L72.5625 37.4392 L69.1875 41.3923 L68.5312 42.1111 Q69.25 42.0642 69.8594 42.0642 L72.75 42.0642 L72.75 42.9704 L67.2344 42.9704 ZM76.7656 42.9704 L75.7812 42.9704 L75.7812 34.3767 L76.8438 34.3767 L76.8438 37.4392 Q77.5156 36.6111 78.5469 36.6111 Q79.125 36.6111 79.6328 36.8376 Q80.1406 37.0642 80.4766 37.4861 Q80.8125 37.9079 81 38.5017 Q81.1875 39.0954 81.1875 39.7673 Q81.1875 41.3611 80.3906 42.2361 Q79.5938 43.1111 78.5 43.1111 Q77.3906 43.1111 76.7656 42.1892 L76.7656 42.9704 ZM76.75 39.8142 Q76.75 40.9236 77.0625 41.4236 Q77.5625 42.2361 78.4062 42.2361 Q79.0938 42.2361 79.6016 41.6423 Q80.1094 41.0486 80.1094 39.8454 Q80.1094 38.6267 79.625 38.0486 Q79.1406 37.4704 78.4531 37.4704 Q77.7656 37.4704 77.2578 38.072 Q76.75 38.6736 76.75 39.8142 ZM87.0469 40.9704 L88.1406 41.0954 Q87.8906 42.0486 87.1875 42.5798 Q86.4844 43.1111 85.4062 43.1111 Q84.0469 43.1111 83.2422 42.2673 Q82.4375 41.4236 82.4375 39.9079 Q82.4375 38.3454 83.25 37.4782 Q84.0625 36.6111 85.3438 36.6111 Q86.5938 36.6111 87.3828 37.4548 Q88.1719 38.2986 88.1719 39.8454 Q88.1719 39.9392 88.1719 40.1267 L83.5312 40.1267 Q83.5938 41.1579 84.1094 41.697 Q84.625 42.2361 85.4062 42.2361 Q85.9844 42.2361 86.3984 41.9314 Q86.8125 41.6267 87.0469 40.9704 ZM83.5938 39.2673 L87.0625 39.2673 Q87 38.4704 86.6719 38.0798 Q86.1562 37.4704 85.3594 37.4704 Q84.625 37.4704 84.1328 37.9548 Q83.6406 38.4392 83.5938 39.2673 ZM94.5156 42.9704 L92.1562 36.7517 L93.2656 36.7517 L94.6094 40.4704 Q94.8125 41.0798 95 41.7204 Q95.1406 41.2361 95.3906 40.5486 L96.7812 36.7517 L97.8594 36.7517 L95.5 42.9704 L94.5156 42.9704 ZM101.8594 42.2048 Q101.2656 42.7048 100.7266 42.9079 Q100.1875 43.1111 99.5625 43.1111 Q98.5312 43.1111 97.9844 42.6111 Q97.4375 42.1111 97.4375 41.3298 Q97.4375 40.8767 97.6406 40.4939 Q97.8438 40.1111 98.1875 39.8845 Q98.5312 39.6579 98.9531 39.5486 Q99.25 39.4548 99.8906 39.3767 Q101.1562 39.2361 101.7656 39.0173 Q101.7656 38.7986 101.7656 38.7517 Q101.7656 38.0954 101.4688 37.8298 Q101.0625 37.4861 100.2656 37.4861 Q99.5312 37.4861 99.1719 37.7439 Q98.8125 38.0017 98.6406 38.6579 L97.6094 38.5173 Q97.75 37.8611 98.0781 37.4548 Q98.4062 37.0486 99.0156 36.8298 Q99.625 36.6111 100.4219 36.6111 Q101.2188 36.6111 101.7188 36.7986 Q102.2188 36.9861 102.4531 37.2673 Q102.6875 37.5486 102.7812 37.9861 Q102.8281 38.2517 102.8281 38.9548 L102.8281 40.3611 Q102.8281 41.8298 102.8984 42.2204 Q102.9688 42.6111 103.1719 42.9704 L102.0625 42.9704 Q101.9062 42.6423 101.8594 42.2048 ZM101.7656 39.8454 Q101.1875 40.0798 100.0469 40.2517 Q99.3906 40.3454 99.125 40.4626 Q98.8594 40.5798 98.7109 40.7986 Q98.5625 41.0173 98.5625 41.2986 Q98.5625 41.7204 98.8828 42.0017 Q99.2031 42.2829 99.8125 42.2829 Q100.4219 42.2829 100.8984 42.0173 Q101.375 41.7517 101.5938 41.2829 Q101.7656 40.9236 101.7656 40.2361 L101.7656 39.8454 ZM104.7969 42.9704 L104.7969 36.7517 L105.7344 36.7517 L105.7344 37.6267 Q106.4219 36.6111 107.7188 36.6111 Q108.2812 36.6111 108.7578 36.8142 Q109.2344 37.0173 109.4688 37.3454 Q109.7031 37.6736 109.7969 38.1111 Q109.8438 38.4079 109.8438 39.1423 L109.8438 42.9704 L108.7969 42.9704 L108.7969 39.1892 Q108.7969 38.5329 108.6719 38.2204 Q108.5469 37.9079 108.2344 37.7126 Q107.9219 37.5173 107.5 37.5173 Q106.8281 37.5173 106.3359 37.947 Q105.8438 38.3767 105.8438 39.5642 L105.8438 42.9704 L104.7969 42.9704 Z" style="clip-path:url(#clipPath19); stroke:none;" />
      <path d="M4.7656 56.9704 L3.7812 56.9704 L3.7812 48.3767 L4.8438 48.3767 L4.8438 51.4392 Q5.5156 50.6111 6.5469 50.6111 Q7.125 50.6111 7.6328 50.8376 Q8.1406 51.0642 8.4766 51.4861 Q8.8125 51.9079 9 52.5017 Q9.1875 53.0954 9.1875 53.7673 Q9.1875 55.3611 8.3906 56.2361 Q7.5938 57.1111 6.5 57.1111 Q5.3906 57.1111 4.7656 56.1892 L4.7656 56.9704 ZM4.75 53.8142 Q4.75 54.9236 5.0625 55.4236 Q5.5625 56.2361 6.4062 56.2361 Q7.0938 56.2361 7.6016 55.6423 Q8.1094 55.0486 8.1094 53.8454 Q8.1094 52.6267 7.625 52.0486 Q7.1406 51.4704 6.4531 51.4704 Q5.7656 51.4704 5.2578 52.072 Q4.75 52.6736 4.75 53.8142 ZM10.7969 49.5954 L10.7969 48.3767 L11.8594 48.3767 L11.8594 49.5954 L10.7969 49.5954 ZM10.7969 56.9704 L10.7969 50.7517 L11.8594 50.7517 L11.8594 56.9704 L10.7969 56.9704 ZM13.7656 56.9704 L13.7656 48.3767 L14.8281 48.3767 L14.8281 56.9704 L13.7656 56.9704 ZM16.7656 56.9704 L16.7656 48.3767 L17.8281 48.3767 L17.8281 56.9704 L16.7656 56.9704 ZM24.0469 54.9704 L25.1406 55.0954 Q24.8906 56.0486 24.1875 56.5798 Q23.4844 57.1111 22.4062 57.1111 Q21.0469 57.1111 20.2422 56.2673 Q19.4375 55.4236 19.4375 53.9079 Q19.4375 52.3454 20.25 51.4782 Q21.0625 50.6111 22.3438 50.6111 Q23.5938 50.6111 24.3828 51.4548 Q25.1719 52.2986 25.1719 53.8454 Q25.1719 53.9392 25.1719 54.1267 L20.5312 54.1267 Q20.5938 55.1579 21.1094 55.697 Q21.625 56.2361 22.4062 56.2361 Q22.9844 56.2361 23.3984 55.9314 Q23.8125 55.6267 24.0469 54.9704 ZM20.5938 53.2673 L24.0625 53.2673 Q24 52.4704 23.6719 52.0798 Q23.1562 51.4704 22.3594 51.4704 Q21.625 51.4704 21.1328 51.9548 Q20.6406 52.4392 20.5938 53.2673 ZM26.7969 56.9704 L26.7969 50.7517 L27.7344 50.7517 L27.7344 51.6267 Q28.4219 50.6111 29.7188 50.6111 Q30.2812 50.6111 30.7578 50.8142 Q31.2344 51.0173 31.4688 51.3454 Q31.7031 51.6736 31.7969 52.1111 Q31.8438 52.4079 31.8438 53.1423 L31.8438 56.9704 L30.7969 56.9704 L30.7969 53.1892 Q30.7969 52.5329 30.6719 52.2204 Q30.5469 51.9079 30.2344 51.7126 Q29.9219 51.5173 29.5 51.5173 Q28.8281 51.5173 28.3359 51.947 Q27.8438 52.3767 27.8438 53.5642 L27.8438 56.9704 L26.7969 56.9704 ZM35.5156 56.9704 L33.1562 50.7517 L34.2656 50.7517 L35.6094 54.4704 Q35.8125 55.0798 36 55.7204 Q36.1406 55.2361 36.3906 54.5486 L37.7812 50.7517 L38.8594 50.7517 L36.5 56.9704 L35.5156 56.9704 ZM43.0469 54.9704 L44.1406 55.0954 Q43.8906 56.0486 43.1875 56.5798 Q42.4844 57.1111 41.4062 57.1111 Q40.0469 57.1111 39.2422 56.2673 Q38.4375 55.4236 38.4375 53.9079 Q38.4375 52.3454 39.25 51.4782 Q40.0625 50.6111 41.3438 50.6111 Q42.5938 50.6111 43.3828 51.4548 Q44.1719 52.2986 44.1719 53.8454 Q44.1719 53.9392 44.1719 54.1267 L39.5312 54.1267 Q39.5938 55.1579 40.1094 55.697 Q40.625 56.2361 41.4062 56.2361 Q41.9844 56.2361 42.3984 55.9314 Q42.8125 55.6267 43.0469 54.9704 ZM39.5938 53.2673 L43.0625 53.2673 Q43 52.4704 42.6719 52.0798 Q42.1562 51.4704 41.3594 51.4704 Q40.625 51.4704 40.1328 51.9548 Q39.6406 52.4392 39.5938 53.2673 ZM52.8594 56.2048 Q52.2656 56.7048 51.7266 56.9079 Q51.1875 57.1111 50.5625 57.1111 Q49.5312 57.1111 48.9844 56.6111 Q48.4375 56.1111 48.4375 55.3298 Q48.4375 54.8767 48.6406 54.4939 Q48.8438 54.1111 49.1875 53.8845 Q49.5312 53.6579 49.9531 53.5486 Q50.25 53.4548 50.8906 53.3767 Q52.1562 53.2361 52.7656 53.0173 Q52.7656 52.7986 52.7656 52.7517 Q52.7656 52.0954 52.4688 51.8298 Q52.0625 51.4861 51.2656 51.4861 Q50.5312 51.4861 50.1719 51.7439 Q49.8125 52.0017 49.6406 52.6579 L48.6094 52.5173 Q48.75 51.8611 49.0781 51.4548 Q49.4062 51.0486 50.0156 50.8298 Q50.625 50.6111 51.4219 50.6111 Q52.2188 50.6111 52.7188 50.7986 Q53.2188 50.9861 53.4531 51.2673 Q53.6875 51.5486 53.7812 51.9861 Q53.8281 52.2517 53.8281 52.9548 L53.8281 54.3611 Q53.8281 55.8298 53.8984 56.2204 Q53.9688 56.6111 54.1719 56.9704 L53.0625 56.9704 Q52.9062 56.6423 52.8594 56.2048 ZM52.7656 53.8454 Q52.1875 54.0798 51.0469 54.2517 Q50.3906 54.3454 50.125 54.4626 Q49.8594 54.5798 49.7109 54.7986 Q49.5625 55.0173 49.5625 55.2986 Q49.5625 55.7204 49.8828 56.0017 Q50.2031 56.2829 50.8125 56.2829 Q51.4219 56.2829 51.8984 56.0173 Q52.375 55.7517 52.5938 55.2829 Q52.7656 54.9236 52.7656 54.2361 L52.7656 53.8454 ZM55.7969 56.9704 L55.7969 48.3767 L56.8594 48.3767 L56.8594 53.2829 L59.3438 50.7517 L60.7188 50.7517 L58.3281 53.0486 L60.9531 56.9704 L59.6562 56.9704 L57.5938 53.7829 L56.8594 54.5017 L56.8594 56.9704 L55.7969 56.9704 ZM61.7969 56.9704 L61.7969 48.3767 L62.8594 48.3767 L62.8594 53.2829 L65.3438 50.7517 L66.7188 50.7517 L64.3281 53.0486 L66.9531 56.9704 L65.6562 56.9704 L63.5938 53.7829 L62.8594 54.5017 L62.8594 56.9704 L61.7969 56.9704 ZM67.4062 53.8611 Q67.4062 52.1267 68.3594 51.2986 Q69.1562 50.6111 70.3125 50.6111 Q71.5938 50.6111 72.4141 51.447 Q73.2344 52.2829 73.2344 53.7673 Q73.2344 54.9704 72.875 55.6579 Q72.5156 56.3454 71.8203 56.7282 Q71.125 57.1111 70.3125 57.1111 Q69.0156 57.1111 68.2109 56.2751 Q67.4062 55.4392 67.4062 53.8611 ZM68.4844 53.8611 Q68.4844 55.0486 69.0078 55.6423 Q69.5312 56.2361 70.3125 56.2361 Q71.1094 56.2361 71.625 55.6423 Q72.1406 55.0486 72.1406 53.8298 Q72.1406 52.6736 71.6172 52.0798 Q71.0938 51.4861 70.3125 51.4861 Q69.5312 51.4861 69.0078 52.072 Q68.4844 52.6579 68.4844 53.8611 ZM74.7812 56.9704 L74.7812 50.7517 L75.7344 50.7517 L75.7344 51.6892 Q76.0938 51.0329 76.3984 50.822 Q76.7031 50.6111 77.0781 50.6111 Q77.6094 50.6111 78.1562 50.9392 L77.7969 51.9236 Q77.4062 51.6892 77.0312 51.6892 Q76.6719 51.6892 76.3984 51.9001 Q76.125 52.1111 76.0156 52.4861 Q75.8281 53.0486 75.8281 53.7048 L75.8281 56.9704 L74.7812 56.9704 ZM83.5156 56.9704 L81.1562 50.7517 L82.2656 50.7517 L83.6094 54.4704 Q83.8125 55.0798 84 55.7204 Q84.1406 55.2361 84.3906 54.5486 L85.7812 50.7517 L86.8594 50.7517 L84.5 56.9704 L83.5156 56.9704 ZM90.8594 56.2048 Q90.2656 56.7048 89.7266 56.9079 Q89.1875 57.1111 88.5625 57.1111 Q87.5312 57.1111 86.9844 56.6111 Q86.4375 56.1111 86.4375 55.3298 Q86.4375 54.8767 86.6406 54.4939 Q86.8438 54.1111 87.1875 53.8845 Q87.5312 53.6579 87.9531 53.5486 Q88.25 53.4548 88.8906 53.3767 Q90.1562 53.2361 90.7656 53.0173 Q90.7656 52.7986 90.7656 52.7517 Q90.7656 52.0954 90.4688 51.8298 Q90.0625 51.4861 89.2656 51.4861 Q88.5312 51.4861 88.1719 51.7439 Q87.8125 52.0017 87.6406 52.6579 L86.6094 52.5173 Q86.75 51.8611 87.0781 51.4548 Q87.4062 51.0486 88.0156 50.8298 Q88.625 50.6111 89.4219 50.6111 Q90.2188 50.6111 90.7188 50.7986 Q91.2188 50.9861 91.4531 51.2673 Q91.6875 51.5486 91.7812 51.9861 Q91.8281 52.2517 91.8281 52.9548 L91.8281 54.3611 Q91.8281 55.8298 91.8984 56.2204 Q91.9688 56.6111 92.1719 56.9704 L91.0625 56.9704 Q90.9062 56.6423 90.8594 56.2048 ZM90.7656 53.8454 Q90.1875 54.0798 89.0469 54.2517 Q88.3906 54.3454 88.125 54.4626 Q87.8594 54.5798 87.7109 54.7986 Q87.5625 55.0173 87.5625 55.2986 Q87.5625 55.7204 87.8828 56.0017 Q88.2031 56.2829 88.8125 56.2829 Q89.4219 56.2829 89.8984 56.0173 Q90.375 55.7517 90.5938 55.2829 Q90.7656 54.9236 90.7656 54.2361 L90.7656 53.8454 ZM88.125 48.9704 L88.9062 47.3298 L90.2969 47.3298 L89 48.9704 L88.125 48.9704 ZM93.7656 56.9704 L93.7656 48.3767 L94.8281 48.3767 L94.8281 56.9704 L93.7656 56.9704 ZM99.0938 56.0329 L99.25 56.9548 Q98.7969 57.0486 98.4531 57.0486 Q97.875 57.0486 97.5625 56.8689 Q97.25 56.6892 97.1172 56.3923 Q96.9844 56.0954 96.9844 55.1423 L96.9844 51.5642 L96.2188 51.5642 L96.2188 50.7517 L96.9844 50.7517 L96.9844 49.2048 L98.0312 48.5798 L98.0312 50.7517 L99.0938 50.7517 L99.0938 51.5642 L98.0312 51.5642 L98.0312 55.2048 Q98.0312 55.6579 98.0859 55.7829 Q98.1406 55.9079 98.2656 55.9861 Q98.3906 56.0642 98.625 56.0642 Q98.8125 56.0642 99.0938 56.0329 ZM99.4062 53.8611 Q99.4062 52.1267 100.3594 51.2986 Q101.1562 50.6111 102.3125 50.6111 Q103.5938 50.6111 104.4141 51.447 Q105.2344 52.2829 105.2344 53.7673 Q105.2344 54.9704 104.875 55.6579 Q104.5156 56.3454 103.8203 56.7282 Q103.125 57.1111 102.3125 57.1111 Q101.0156 57.1111 100.2109 56.2751 Q99.4062 55.4392 99.4062 53.8611 ZM100.4844 53.8611 Q100.4844 55.0486 101.0078 55.6423 Q101.5312 56.2361 102.3125 56.2361 Q103.1094 56.2361 103.625 55.6423 Q104.1406 55.0486 104.1406 53.8298 Q104.1406 52.6736 103.6172 52.0798 Q103.0938 51.4861 102.3125 51.4861 Q101.5312 51.4861 101.0078 52.072 Q100.4844 52.6579 100.4844 53.8611 ZM106.2344 56.9704 L106.2344 56.1111 L110.2031 51.5642 Q109.5156 51.5954 109 51.5954 L106.4688 51.5954 L106.4688 50.7517 L111.5625 50.7517 L111.5625 51.4392 L108.1875 55.3923 L107.5312 56.1111 Q108.25 56.0642 108.8594 56.0642 L111.75 56.0642 L111.75 56.9704 L106.2344 56.9704 ZM111.7969 56.9704 L111.7969 48.3767 L112.8438 48.3767 L112.8438 51.4548 Q113.5781 50.6111 114.7031 50.6111 Q115.4062 50.6111 115.9141 50.8845 Q116.4219 51.1579 116.6406 51.6345 Q116.8594 52.1111 116.8594 53.0329 L116.8594 56.9704 L115.8125 56.9704 L115.8125 53.0329 Q115.8125 52.2361 115.4688 51.8767 Q115.125 51.5173 114.5 51.5173 Q114.0312 51.5173 113.6172 51.7595 Q113.2031 52.0017 113.0234 52.4157 Q112.8438 52.8298 112.8438 53.5642 L112.8438 56.9704 L111.7969 56.9704 ZM122.8594 56.2048 Q122.2656 56.7048 121.7266 56.9079 Q121.1875 57.1111 120.5625 57.1111 Q119.5312 57.1111 118.9844 56.6111 Q118.4375 56.1111 118.4375 55.3298 Q118.4375 54.8767 118.6406 54.4939 Q118.8438 54.1111 119.1875 53.8845 Q119.5312 53.6579 119.9531 53.5486 Q120.25 53.4548 120.8906 53.3767 Q122.1562 53.2361 122.7656 53.0173 Q122.7656 52.7986 122.7656 52.7517 Q122.7656 52.0954 122.4688 51.8298 Q122.0625 51.4861 121.2656 51.4861 Q120.5312 51.4861 120.1719 51.7439 Q119.8125 52.0017 119.6406 52.6579 L118.6094 52.5173 Q118.75 51.8611 119.0781 51.4548 Q119.4062 51.0486 120.0156 50.8298 Q120.625 50.6111 121.4219 50.6111 Q122.2188 50.6111 122.7188 50.7986 Q123.2188 50.9861 123.4531 51.2673 Q123.6875 51.5486 123.7812 51.9861 Q123.8281 52.2517 123.8281 52.9548 L123.8281 54.3611 Q123.8281 55.8298 123.8984 56.2204 Q123.9688 56.6111 124.1719 56.9704 L123.0625 56.9704 Q122.9062 56.6423 122.8594 56.2048 ZM122.7656 53.8454 Q122.1875 54.0798 121.0469 54.2517 Q120.3906 54.3454 120.125 54.4626 Q119.8594 54.5798 119.7109 54.7986 Q119.5625 55.0173 119.5625 55.2986 Q119.5625 55.7204 119.8828 56.0017 Q120.2031 56.2829 120.8125 56.2829 Q121.4219 56.2829 121.8984 56.0173 Q122.375 55.7517 122.5938 55.2829 Q122.7656 54.9236 122.7656 54.2361 L122.7656 53.8454 ZM128.0938 56.0329 L128.25 56.9548 Q127.7969 57.0486 127.4531 57.0486 Q126.875 57.0486 126.5625 56.8689 Q126.25 56.6892 126.1172 56.3923 Q125.9844 56.0954 125.9844 55.1423 L125.9844 51.5642 L125.2188 51.5642 L125.2188 50.7517 L125.9844 50.7517 L125.9844 49.2048 L127.0312 48.5798 L127.0312 50.7517 L128.0938 50.7517 L128.0938 51.5642 L127.0312 51.5642 L127.0312 55.2048 Q127.0312 55.6579 127.0859 55.7829 Q127.1406 55.9079 127.2656 55.9861 Q127.3906 56.0642 127.625 56.0642 Q127.8125 56.0642 128.0938 56.0329 Z" style="clip-path:url(#clipPath19); stroke:none;" />
      <path d="M7.8594 70.2048 Q7.2656 70.7048 6.7266 70.9079 Q6.1875 71.1111 5.5625 71.1111 Q4.5312 71.1111 3.9844 70.6111 Q3.4375 70.1111 3.4375 69.3298 Q3.4375 68.8767 3.6406 68.4939 Q3.8438 68.1111 4.1875 67.8845 Q4.5312 67.6579 4.9531 67.5486 Q5.25 67.4548 5.8906 67.3767 Q7.1562 67.2361 7.7656 67.0173 Q7.7656 66.7986 7.7656 66.7517 Q7.7656 66.0954 7.4688 65.8298 Q7.0625 65.4861 6.2656 65.4861 Q5.5312 65.4861 5.1719 65.7439 Q4.8125 66.0017 4.6406 66.6579 L3.6094 66.5173 Q3.75 65.8611 4.0781 65.4548 Q4.4062 65.0486 5.0156 64.8298 Q5.625 64.6111 6.4219 64.6111 Q7.2188 64.6111 7.7188 64.7986 Q8.2188 64.9861 8.4531 65.2673 Q8.6875 65.5486 8.7812 65.9861 Q8.8281 66.2517 8.8281 66.9548 L8.8281 68.3611 Q8.8281 69.8298 8.8984 70.2204 Q8.9688 70.6111 9.1719 70.9704 L8.0625 70.9704 Q7.9062 70.6423 7.8594 70.2048 ZM7.7656 67.8454 Q7.1875 68.0798 6.0469 68.2517 Q5.3906 68.3454 5.125 68.4626 Q4.8594 68.5798 4.7109 68.7986 Q4.5625 69.0173 4.5625 69.2986 Q4.5625 69.7204 4.8828 70.0017 Q5.2031 70.2829 5.8125 70.2829 Q6.4219 70.2829 6.8984 70.0173 Q7.375 69.7517 7.5938 69.2829 Q7.7656 68.9236 7.7656 68.2361 L7.7656 67.8454 ZM14.7656 70.9704 L13.7812 70.9704 L13.7812 62.3767 L14.8438 62.3767 L14.8438 65.4392 Q15.5156 64.6111 16.5469 64.6111 Q17.125 64.6111 17.6328 64.8376 Q18.1406 65.0642 18.4766 65.4861 Q18.8125 65.9079 19 66.5017 Q19.1875 67.0954 19.1875 67.7673 Q19.1875 69.3611 18.3906 70.2361 Q17.5938 71.1111 16.5 71.1111 Q15.3906 71.1111 14.7656 70.1892 L14.7656 70.9704 ZM14.75 67.8142 Q14.75 68.9236 15.0625 69.4236 Q15.5625 70.2361 16.4062 70.2361 Q17.0938 70.2361 17.6016 69.6423 Q18.1094 69.0486 18.1094 67.8454 Q18.1094 66.6267 17.625 66.0486 Q17.1406 65.4704 16.4531 65.4704 Q15.7656 65.4704 15.2578 66.072 Q14.75 66.6736 14.75 67.8142 ZM25.0469 68.9704 L26.1406 69.0954 Q25.8906 70.0486 25.1875 70.5798 Q24.4844 71.1111 23.4062 71.1111 Q22.0469 71.1111 21.2422 70.2673 Q20.4375 69.4236 20.4375 67.9079 Q20.4375 66.3454 21.25 65.4782 Q22.0625 64.6111 23.3438 64.6111 Q24.5938 64.6111 25.3828 65.4548 Q26.1719 66.2986 26.1719 67.8454 Q26.1719 67.9392 26.1719 68.1267 L21.5312 68.1267 Q21.5938 69.1579 22.1094 69.697 Q22.625 70.2361 23.4062 70.2361 Q23.9844 70.2361 24.3984 69.9314 Q24.8125 69.6267 25.0469 68.9704 ZM21.5938 67.2673 L25.0625 67.2673 Q25 66.4704 24.6719 66.0798 Q24.1562 65.4704 23.3594 65.4704 Q22.625 65.4704 22.1328 65.9548 Q21.6406 66.4392 21.5938 67.2673 ZM27.7656 70.9704 L27.7656 62.3767 L28.8281 62.3767 L28.8281 70.9704 L27.7656 70.9704 ZM30.375 69.1111 L31.4062 68.9548 Q31.5 69.5798 31.8984 69.9079 Q32.2969 70.2361 33.0312 70.2361 Q33.75 70.2361 34.1016 69.947 Q34.4531 69.6579 34.4531 69.2517 Q34.4531 68.8923 34.1406 68.6892 Q33.9219 68.5486 33.0625 68.3298 Q31.9062 68.0329 31.4609 67.822 Q31.0156 67.6111 30.7812 67.2361 Q30.5469 66.8611 30.5469 66.3923 Q30.5469 65.9861 30.7344 65.6267 Q30.9219 65.2673 31.25 65.0329 Q31.5 64.8611 31.9219 64.7361 Q32.3438 64.6111 32.8438 64.6111 Q33.5625 64.6111 34.1172 64.822 Q34.6719 65.0329 34.9375 65.3923 Q35.2031 65.7517 35.2969 66.3454 L34.2656 66.4861 Q34.2031 66.0173 33.8672 65.7439 Q33.5312 65.4704 32.9062 65.4704 Q32.1875 65.4704 31.875 65.7126 Q31.5625 65.9548 31.5625 66.2829 Q31.5625 66.4861 31.6875 66.6423 Q31.8281 66.8142 32.0938 66.9236 Q32.25 66.9861 33.0312 67.1892 Q34.1562 67.5017 34.5938 67.6892 Q35.0312 67.8767 35.2812 68.2361 Q35.5312 68.5954 35.5312 69.1423 Q35.5312 69.6736 35.2266 70.1345 Q34.9219 70.5954 34.3438 70.8532 Q33.7656 71.1111 33.0312 71.1111 Q31.8125 71.1111 31.1797 70.6032 Q30.5469 70.0954 30.375 69.1111 ZM37.4062 67.8611 Q37.4062 66.1267 38.3594 65.2986 Q39.1562 64.6111 40.3125 64.6111 Q41.5938 64.6111 42.4141 65.447 Q43.2344 66.2829 43.2344 67.7673 Q43.2344 68.9704 42.875 69.6579 Q42.5156 70.3454 41.8203 70.7282 Q41.125 71.1111 40.3125 71.1111 Q39.0156 71.1111 38.2109 70.2751 Q37.4062 69.4392 37.4062 67.8611 ZM38.4844 67.8611 Q38.4844 69.0486 39.0078 69.6423 Q39.5312 70.2361 40.3125 70.2361 Q41.1094 70.2361 41.625 69.6423 Q42.1406 69.0486 42.1406 67.8298 Q42.1406 66.6736 41.6172 66.0798 Q41.0938 65.4861 40.3125 65.4861 Q39.5312 65.4861 39.0078 66.072 Q38.4844 66.6579 38.4844 67.8611 ZM38.9688 62.9704 L39.6719 61.3298 L41.0469 61.3298 L39.8125 62.9704 L38.9688 62.9704 ZM41 62.9704 L41.75 61.3298 L43.0938 61.3298 L41.8906 62.9704 L41 62.9704 ZM47.7969 70.9704 L47.7969 64.7517 L48.7344 64.7517 L48.7344 65.6267 Q49.0312 65.1579 49.5156 64.8845 Q50 64.6111 50.625 64.6111 Q51.3125 64.6111 51.7578 64.8923 Q52.2031 65.1736 52.375 65.6892 Q53.125 64.6111 54.2969 64.6111 Q55.2344 64.6111 55.7266 65.1189 Q56.2188 65.6267 56.2188 66.7048 L56.2188 70.9704 L55.1719 70.9704 L55.1719 67.0486 Q55.1719 66.4236 55.0703 66.1423 Q54.9688 65.8611 54.7031 65.6892 Q54.4375 65.5173 54.0625 65.5173 Q53.4062 65.5173 52.9766 65.9548 Q52.5469 66.3923 52.5469 67.3611 L52.5469 70.9704 L51.4844 70.9704 L51.4844 66.9236 Q51.4844 66.2204 51.2266 65.8689 Q50.9688 65.5173 50.3906 65.5173 Q49.9375 65.5173 49.5625 65.7517 Q49.1875 65.9861 49.0156 66.4392 Q48.8438 66.8923 48.8438 67.7361 L48.8438 70.9704 L47.7969 70.9704 ZM63.0469 68.9704 L64.1406 69.0954 Q63.8906 70.0486 63.1875 70.5798 Q62.4844 71.1111 61.4062 71.1111 Q60.0469 71.1111 59.2422 70.2673 Q58.4375 69.4236 58.4375 67.9079 Q58.4375 66.3454 59.25 65.4782 Q60.0625 64.6111 61.3438 64.6111 Q62.5938 64.6111 63.3828 65.4548 Q64.1719 66.2986 64.1719 67.8454 Q64.1719 67.9392 64.1719 68.1267 L59.5312 68.1267 Q59.5938 69.1579 60.1094 69.697 Q60.625 70.2361 61.4062 70.2361 Q61.9844 70.2361 62.3984 69.9314 Q62.8125 69.6267 63.0469 68.9704 ZM59.5938 67.2673 L63.0625 67.2673 Q63 66.4704 62.6719 66.0798 Q62.1562 65.4704 61.3594 65.4704 Q60.625 65.4704 60.1328 65.9548 Q59.6406 66.4392 59.5938 67.2673 ZM65.7969 70.9704 L65.7969 64.7517 L66.7344 64.7517 L66.7344 65.6267 Q67.0312 65.1579 67.5156 64.8845 Q68 64.6111 68.625 64.6111 Q69.3125 64.6111 69.7578 64.8923 Q70.2031 65.1736 70.375 65.6892 Q71.125 64.6111 72.2969 64.6111 Q73.2344 64.6111 73.7266 65.1189 Q74.2188 65.6267 74.2188 66.7048 L74.2188 70.9704 L73.1719 70.9704 L73.1719 67.0486 Q73.1719 66.4236 73.0703 66.1423 Q72.9688 65.8611 72.7031 65.6892 Q72.4375 65.5173 72.0625 65.5173 Q71.4062 65.5173 70.9766 65.9548 Q70.5469 66.3923 70.5469 67.3611 L70.5469 70.9704 L69.4844 70.9704 L69.4844 66.9236 Q69.4844 66.2204 69.2266 65.8689 Q68.9688 65.5173 68.3906 65.5173 Q67.9375 65.5173 67.5625 65.7517 Q67.1875 65.9861 67.0156 66.4392 Q66.8438 66.8923 66.8438 67.7361 L66.8438 70.9704 L65.7969 70.9704 ZM76.4062 67.8611 Q76.4062 66.1267 77.3594 65.2986 Q78.1562 64.6111 79.3125 64.6111 Q80.5938 64.6111 81.4141 65.447 Q82.2344 66.2829 82.2344 67.7673 Q82.2344 68.9704 81.875 69.6579 Q81.5156 70.3454 80.8203 70.7282 Q80.125 71.1111 79.3125 71.1111 Q78.0156 71.1111 77.2109 70.2751 Q76.4062 69.4392 76.4062 67.8611 ZM77.4844 67.8611 Q77.4844 69.0486 78.0078 69.6423 Q78.5312 70.2361 79.3125 70.2361 Q80.1094 70.2361 80.625 69.6423 Q81.1406 69.0486 81.1406 67.8298 Q81.1406 66.6736 80.6172 66.0798 Q80.0938 65.4861 79.3125 65.4861 Q78.5312 65.4861 78.0078 66.072 Q77.4844 66.6579 77.4844 67.8611 ZM78.125 62.9704 L78.9062 61.3298 L80.2969 61.3298 L79 62.9704 L78.125 62.9704 ZM83.7812 70.9704 L83.7812 64.7517 L84.7344 64.7517 L84.7344 65.6892 Q85.0938 65.0329 85.3984 64.822 Q85.7031 64.6111 86.0781 64.6111 Q86.6094 64.6111 87.1562 64.9392 L86.7969 65.9236 Q86.4062 65.6892 86.0312 65.6892 Q85.6719 65.6892 85.3984 65.9001 Q85.125 66.1111 85.0156 66.4861 Q84.8281 67.0486 84.8281 67.7048 L84.8281 70.9704 L83.7812 70.9704 ZM87.7969 63.5954 L87.7969 62.3767 L88.8594 62.3767 L88.8594 63.5954 L87.7969 63.5954 ZM87.7969 70.9704 L87.7969 64.7517 L88.8594 64.7517 L88.8594 70.9704 L87.7969 70.9704 ZM94.8594 70.2048 Q94.2656 70.7048 93.7266 70.9079 Q93.1875 71.1111 92.5625 71.1111 Q91.5312 71.1111 90.9844 70.6111 Q90.4375 70.1111 90.4375 69.3298 Q90.4375 68.8767 90.6406 68.4939 Q90.8438 68.1111 91.1875 67.8845 Q91.5312 67.6579 91.9531 67.5486 Q92.25 67.4548 92.8906 67.3767 Q94.1562 67.2361 94.7656 67.0173 Q94.7656 66.7986 94.7656 66.7517 Q94.7656 66.0954 94.4688 65.8298 Q94.0625 65.4861 93.2656 65.4861 Q92.5312 65.4861 92.1719 65.7439 Q91.8125 66.0017 91.6406 66.6579 L90.6094 66.5173 Q90.75 65.8611 91.0781 65.4548 Q91.4062 65.0486 92.0156 64.8298 Q92.625 64.6111 93.4219 64.6111 Q94.2188 64.6111 94.7188 64.7986 Q95.2188 64.9861 95.4531 65.2673 Q95.6875 65.5486 95.7812 65.9861 Q95.8281 66.2517 95.8281 66.9548 L95.8281 68.3611 Q95.8281 69.8298 95.8984 70.2204 Q95.9688 70.6111 96.1719 70.9704 L95.0625 70.9704 Q94.9062 70.6423 94.8594 70.2048 ZM94.7656 67.8454 Q94.1875 68.0798 93.0469 68.2517 Q92.3906 68.3454 92.125 68.4626 Q91.8594 68.5798 91.7109 68.7986 Q91.5625 69.0173 91.5625 69.2986 Q91.5625 69.7204 91.8828 70.0017 Q92.2031 70.2829 92.8125 70.2829 Q93.4219 70.2829 93.8984 70.0173 Q94.375 69.7517 94.5938 69.2829 Q94.7656 68.9236 94.7656 68.2361 L94.7656 67.8454 ZM98.4844 73.5017 L97.7344 73.5017 Q99.4844 70.6892 99.4844 67.8611 Q99.4844 66.7673 99.2344 65.6736 Q99.0312 64.7986 98.6719 63.9861 Q98.4375 63.4704 97.7344 62.2361 L98.4844 62.2361 Q99.5781 63.7048 100.1094 65.1892 Q100.5625 66.4704 100.5625 67.8611 Q100.5625 69.4392 99.9531 70.9157 Q99.3438 72.3923 98.4844 73.5017 ZM102.0625 70.9704 L102.0625 69.7673 L103.2656 69.7673 L103.2656 70.9704 Q103.2656 71.6267 103.0312 72.0407 Q102.7969 72.4548 102.2969 72.6736 L102 72.2204 Q102.3281 72.0798 102.4844 71.7907 Q102.6406 71.5017 102.6719 70.9704 L102.0625 70.9704 ZM111.8594 70.2048 Q111.2656 70.7048 110.7266 70.9079 Q110.1875 71.1111 109.5625 71.1111 Q108.5312 71.1111 107.9844 70.6111 Q107.4375 70.1111 107.4375 69.3298 Q107.4375 68.8767 107.6406 68.4939 Q107.8438 68.1111 108.1875 67.8845 Q108.5312 67.6579 108.9531 67.5486 Q109.25 67.4548 109.8906 67.3767 Q111.1562 67.2361 111.7656 67.0173 Q111.7656 66.7986 111.7656 66.7517 Q111.7656 66.0954 111.4688 65.8298 Q111.0625 65.4861 110.2656 65.4861 Q109.5312 65.4861 109.1719 65.7439 Q108.8125 66.0017 108.6406 66.6579 L107.6094 66.5173 Q107.75 65.8611 108.0781 65.4548 Q108.4062 65.0486 109.0156 64.8298 Q109.625 64.6111 110.4219 64.6111 Q111.2188 64.6111 111.7188 64.7986 Q112.2188 64.9861 112.4531 65.2673 Q112.6875 65.5486 112.7812 65.9861 Q112.8281 66.2517 112.8281 66.9548 L112.8281 68.3611 Q112.8281 69.8298 112.8984 70.2204 Q112.9688 70.6111 113.1719 70.9704 L112.0625 70.9704 Q111.9062 70.6423 111.8594 70.2048 ZM111.7656 67.8454 Q111.1875 68.0798 110.0469 68.2517 Q109.3906 68.3454 109.125 68.4626 Q108.8594 68.5798 108.7109 68.7986 Q108.5625 69.0173 108.5625 69.2986 Q108.5625 69.7204 108.8828 70.0017 Q109.2031 70.2829 109.8125 70.2829 Q110.4219 70.2829 110.8984 70.0173 Q111.375 69.7517 111.5938 69.2829 Q111.7656 68.9236 111.7656 68.2361 L111.7656 67.8454 ZM117.0938 70.0329 L117.25 70.9548 Q116.7969 71.0486 116.4531 71.0486 Q115.875 71.0486 115.5625 70.8689 Q115.25 70.6892 115.1172 70.3923 Q114.9844 70.0954 114.9844 69.1423 L114.9844 65.5642 L114.2188 65.5642 L114.2188 64.7517 L114.9844 64.7517 L114.9844 63.2048 L116.0312 62.5798 L116.0312 64.7517 L117.0938 64.7517 L117.0938 65.5642 L116.0312 65.5642 L116.0312 69.2048 Q116.0312 69.6579 116.0859 69.7829 Q116.1406 69.9079 116.2656 69.9861 Q116.3906 70.0642 116.625 70.0642 Q116.8125 70.0642 117.0938 70.0329 ZM120.0938 70.0329 L120.25 70.9548 Q119.7969 71.0486 119.4531 71.0486 Q118.875 71.0486 118.5625 70.8689 Q118.25 70.6892 118.1172 70.3923 Q117.9844 70.0954 117.9844 69.1423 L117.9844 65.5642 L117.2188 65.5642 L117.2188 64.7517 L117.9844 64.7517 L117.9844 63.2048 L119.0312 62.5798 L119.0312 64.7517 L120.0938 64.7517 L120.0938 65.5642 L119.0312 65.5642 L119.0312 69.2048 Q119.0312 69.6579 119.0859 69.7829 Q119.1406 69.9079 119.2656 69.9861 Q119.3906 70.0642 119.625 70.0642 Q119.8125 70.0642 120.0938 70.0329 ZM120.4062 67.8611 Q120.4062 66.1267 121.3594 65.2986 Q122.1562 64.6111 123.3125 64.6111 Q124.5938 64.6111 125.4141 65.447 Q126.2344 66.2829 126.2344 67.7673 Q126.2344 68.9704 125.875 69.6579 Q125.5156 70.3454 124.8203 70.7282 Q124.125 71.1111 123.3125 71.1111 Q122.0156 71.1111 121.2109 70.2751 Q120.4062 69.4392 120.4062 67.8611 ZM121.4844 67.8611 Q121.4844 69.0486 122.0078 69.6423 Q122.5312 70.2361 123.3125 70.2361 Q124.1094 70.2361 124.625 69.6423 Q125.1406 69.0486 125.1406 67.8298 Q125.1406 66.6736 124.6172 66.0798 Q124.0938 65.4861 123.3125 65.4861 Q122.5312 65.4861 122.0078 66.072 Q121.4844 66.6579 121.4844 67.8611 ZM122.125 62.9704 L122.9062 61.3298 L124.2969 61.3298 L123 62.9704 L122.125 62.9704 ZM127.7656 70.9704 L127.7656 62.3767 L128.8281 62.3767 L128.8281 70.9704 L127.7656 70.9704 Z" style="clip-path:url(#clipPath19); stroke:none;" />
      <text x="3" y="85" style="font-size:11.5385; clip-path:url(#clipPath19); text-rendering:optimizeLegibility; font-family:sans-serif; stroke:none;" xml:space="preserve">függően, hogy a </text>
      <text x="3" y="100" style="font-size:11.5385; clip-path:url(#clipPath19); text-rendering:optimizeLegibility; font-family:sans-serif; stroke:none;" xml:space="preserve">léptetés következtében </text>
      <path d="M7.8594 114.2048 Q7.2656 114.7048 6.7266 114.9079 Q6.1875 115.1111 5.5625 115.1111 Q4.5312 115.1111 3.9844 114.6111 Q3.4375 114.1111 3.4375 113.3298 Q3.4375 112.8767 3.6406 112.4939 Q3.8438 112.1111 4.1875 111.8845 Q4.5312 111.6579 4.9531 111.5486 Q5.25 111.4548 5.8906 111.3767 Q7.1562 111.2361 7.7656 111.0173 Q7.7656 110.7986 7.7656 110.7517 Q7.7656 110.0954 7.4688 109.8298 Q7.0625 109.4861 6.2656 109.4861 Q5.5312 109.4861 5.1719 109.7439 Q4.8125 110.0017 4.6406 110.6579 L3.6094 110.5173 Q3.75 109.8611 4.0781 109.4548 Q4.4062 109.0486 5.0156 108.8298 Q5.625 108.6111 6.4219 108.6111 Q7.2188 108.6111 7.7188 108.7986 Q8.2188 108.9861 8.4531 109.2673 Q8.6875 109.5486 8.7812 109.9861 Q8.8281 110.2517 8.8281 110.9548 L8.8281 112.3611 Q8.8281 113.8298 8.8984 114.2204 Q8.9688 114.6111 9.1719 114.9704 L8.0625 114.9704 Q7.9062 114.6423 7.8594 114.2048 ZM7.7656 111.8454 Q7.1875 112.0798 6.0469 112.2517 Q5.3906 112.3454 5.125 112.4626 Q4.8594 112.5798 4.7109 112.7986 Q4.5625 113.0173 4.5625 113.2986 Q4.5625 113.7204 4.8828 114.0017 Q5.2031 114.2829 5.8125 114.2829 Q6.4219 114.2829 6.8984 114.0173 Q7.375 113.7517 7.5938 113.2829 Q7.7656 112.9236 7.7656 112.2361 L7.7656 111.8454 ZM13.7812 107.6111 L13.7812 106.3767 L14.8438 106.3767 L14.8438 107.6111 L13.7812 107.6111 ZM12.4531 117.3923 L12.6406 116.4861 Q12.9688 116.5642 13.1406 116.5642 Q13.4688 116.5642 13.625 116.3532 Q13.7812 116.1423 13.7812 115.2829 L13.7812 108.7517 L14.8438 108.7517 L14.8438 115.3142 Q14.8438 116.4548 14.5469 116.9079 Q14.1562 117.5017 13.2812 117.5017 Q12.8438 117.5017 12.4531 117.3923 ZM21.0469 112.9704 L22.1406 113.0954 Q21.8906 114.0486 21.1875 114.5798 Q20.4844 115.1111 19.4062 115.1111 Q18.0469 115.1111 17.2422 114.2673 Q16.4375 113.4236 16.4375 111.9079 Q16.4375 110.3454 17.25 109.4782 Q18.0625 108.6111 19.3438 108.6111 Q20.5938 108.6111 21.3828 109.4548 Q22.1719 110.2986 22.1719 111.8454 Q22.1719 111.9392 22.1719 112.1267 L17.5312 112.1267 Q17.5938 113.1579 18.1094 113.697 Q18.625 114.2361 19.4062 114.2361 Q19.9844 114.2361 20.3984 113.9314 Q20.8125 113.6267 21.0469 112.9704 ZM17.5938 111.2673 L21.0625 111.2673 Q21 110.4704 20.6719 110.0798 Q20.1562 109.4704 19.3594 109.4704 Q18.625 109.4704 18.1328 109.9548 Q17.6406 110.4392 17.5938 111.2673 ZM23.7656 114.9704 L23.7656 106.3767 L24.8281 106.3767 L24.8281 114.9704 L23.7656 114.9704 ZM26.5938 115.4861 L27.625 115.6423 Q27.6875 116.1111 27.9844 116.3298 Q28.375 116.6267 29.0469 116.6267 Q29.7812 116.6267 30.1797 116.3298 Q30.5781 116.0329 30.7188 115.5173 Q30.8125 115.1892 30.7969 114.1579 Q30.1094 114.9704 29.0781 114.9704 Q27.7969 114.9704 27.0938 114.0407 Q26.3906 113.1111 26.3906 111.8298 Q26.3906 110.9392 26.7109 110.1814 Q27.0312 109.4236 27.6406 109.0173 Q28.25 108.6111 29.0781 108.6111 Q30.1875 108.6111 30.9062 109.5017 L30.9062 108.7517 L31.875 108.7517 L31.875 114.1267 Q31.875 115.5798 31.5781 116.1892 Q31.2812 116.7986 30.6406 117.1501 Q30 117.5017 29.0625 117.5017 Q27.9531 117.5017 27.2656 117.0017 Q26.5781 116.5017 26.5938 115.4861 ZM27.4688 111.7517 Q27.4688 112.9704 27.9531 113.5329 Q28.4375 114.0954 29.1719 114.0954 Q29.9062 114.0954 30.3984 113.5329 Q30.8906 112.9704 30.8906 111.7829 Q30.8906 110.6423 30.3828 110.0642 Q29.875 109.4861 29.1562 109.4861 Q28.4531 109.4861 27.9609 110.0564 Q27.4688 110.6267 27.4688 111.7517 ZM38.0469 112.9704 L39.1406 113.0954 Q38.8906 114.0486 38.1875 114.5798 Q37.4844 115.1111 36.4062 115.1111 Q35.0469 115.1111 34.2422 114.2673 Q33.4375 113.4236 33.4375 111.9079 Q33.4375 110.3454 34.25 109.4782 Q35.0625 108.6111 36.3438 108.6111 Q37.5938 108.6111 38.3828 109.4548 Q39.1719 110.2986 39.1719 111.8454 Q39.1719 111.9392 39.1719 112.1267 L34.5312 112.1267 Q34.5938 113.1579 35.1094 113.697 Q35.625 114.2361 36.4062 114.2361 Q36.9844 114.2361 37.3984 113.9314 Q37.8125 113.6267 38.0469 112.9704 ZM34.5938 111.2673 L38.0625 111.2673 Q38 110.4704 37.6719 110.0798 Q37.1562 109.4704 36.3594 109.4704 Q35.625 109.4704 35.1328 109.9548 Q34.6406 110.4392 34.5938 111.2673 ZM40.7969 114.9704 L40.7969 108.7517 L41.7344 108.7517 L41.7344 109.6267 Q42.4219 108.6111 43.7188 108.6111 Q44.2812 108.6111 44.7578 108.8142 Q45.2344 109.0173 45.4688 109.3454 Q45.7031 109.6736 45.7969 110.1111 Q45.8438 110.4079 45.8438 111.1423 L45.8438 114.9704 L44.7969 114.9704 L44.7969 111.1892 Q44.7969 110.5329 44.6719 110.2204 Q44.5469 109.9079 44.2344 109.7126 Q43.9219 109.5173 43.5 109.5173 Q42.8281 109.5173 42.3359 109.947 Q41.8438 110.3767 41.8438 111.5642 L41.8438 114.9704 L40.7969 114.9704 ZM52.0469 112.9704 L53.1406 113.0954 Q52.8906 114.0486 52.1875 114.5798 Q51.4844 115.1111 50.4062 115.1111 Q49.0469 115.1111 48.2422 114.2673 Q47.4375 113.4236 47.4375 111.9079 Q47.4375 110.3454 48.25 109.4782 Q49.0625 108.6111 50.3438 108.6111 Q51.5938 108.6111 52.3828 109.4548 Q53.1719 110.2986 53.1719 111.8454 Q53.1719 111.9392 53.1719 112.1267 L48.5312 112.1267 Q48.5938 113.1579 49.1094 113.697 Q49.625 114.2361 50.4062 114.2361 Q50.9844 114.2361 51.3984 113.9314 Q51.8125 113.6267 52.0469 112.9704 ZM48.5938 111.2673 L52.0625 111.2673 Q52 110.4704 51.6719 110.0798 Q51.1562 109.4704 50.3594 109.4704 Q49.625 109.4704 49.1328 109.9548 Q48.6406 110.4392 48.5938 111.2673 ZM54.7812 114.9704 L54.7812 108.7517 L55.7344 108.7517 L55.7344 109.6892 Q56.0938 109.0329 56.3984 108.822 Q56.7031 108.6111 57.0781 108.6111 Q57.6094 108.6111 58.1562 108.9392 L57.7969 109.9236 Q57.4062 109.6892 57.0312 109.6892 Q56.6719 109.6892 56.3984 109.9001 Q56.125 110.1111 56.0156 110.4861 Q55.8281 111.0486 55.8281 111.7048 L55.8281 114.9704 L54.7812 114.9704 ZM62.8594 114.2048 Q62.2656 114.7048 61.7266 114.9079 Q61.1875 115.1111 60.5625 115.1111 Q59.5312 115.1111 58.9844 114.6111 Q58.4375 114.1111 58.4375 113.3298 Q58.4375 112.8767 58.6406 112.4939 Q58.8438 112.1111 59.1875 111.8845 Q59.5312 111.6579 59.9531 111.5486 Q60.25 111.4548 60.8906 111.3767 Q62.1562 111.2361 62.7656 111.0173 Q62.7656 110.7986 62.7656 110.7517 Q62.7656 110.0954 62.4688 109.8298 Q62.0625 109.4861 61.2656 109.4861 Q60.5312 109.4861 60.1719 109.7439 Q59.8125 110.0017 59.6406 110.6579 L58.6094 110.5173 Q58.75 109.8611 59.0781 109.4548 Q59.4062 109.0486 60.0156 108.8298 Q60.625 108.6111 61.4219 108.6111 Q62.2188 108.6111 62.7188 108.7986 Q63.2188 108.9861 63.4531 109.2673 Q63.6875 109.5486 63.7812 109.9861 Q63.8281 110.2517 63.8281 110.9548 L63.8281 112.3611 Q63.8281 113.8298 63.8984 114.2204 Q63.9688 114.6111 64.1719 114.9704 L63.0625 114.9704 Q62.9062 114.6423 62.8594 114.2048 ZM62.7656 111.8454 Q62.1875 112.0798 61.0469 112.2517 Q60.3906 112.3454 60.125 112.4626 Q59.8594 112.5798 59.7109 112.7986 Q59.5625 113.0173 59.5625 113.2986 Q59.5625 113.7204 59.8828 114.0017 Q60.2031 114.2829 60.8125 114.2829 Q61.4219 114.2829 61.8984 114.0173 Q62.375 113.7517 62.5938 113.2829 Q62.7656 112.9236 62.7656 112.2361 L62.7656 111.8454 ZM60.125 106.9704 L60.9062 105.3298 L62.2969 105.3298 L61 106.9704 L60.125 106.9704 ZM68.0938 114.0329 L68.25 114.9548 Q67.7969 115.0486 67.4531 115.0486 Q66.875 115.0486 66.5625 114.8689 Q66.25 114.6892 66.1172 114.3923 Q65.9844 114.0954 65.9844 113.1423 L65.9844 109.5642 L65.2188 109.5642 L65.2188 108.7517 L65.9844 108.7517 L65.9844 107.2048 L67.0312 106.5798 L67.0312 108.7517 L68.0938 108.7517 L68.0938 109.5642 L67.0312 109.5642 L67.0312 113.2048 Q67.0312 113.6579 67.0859 113.7829 Q67.1406 113.9079 67.2656 113.9861 Q67.3906 114.0642 67.625 114.0642 Q67.8125 114.0642 68.0938 114.0329 ZM68.4062 111.8611 Q68.4062 110.1267 69.3594 109.2986 Q70.1562 108.6111 71.3125 108.6111 Q72.5938 108.6111 73.4141 109.447 Q74.2344 110.2829 74.2344 111.7673 Q74.2344 112.9704 73.875 113.6579 Q73.5156 114.3454 72.8203 114.7282 Q72.125 115.1111 71.3125 115.1111 Q70.0156 115.1111 69.2109 114.2751 Q68.4062 113.4392 68.4062 111.8611 ZM69.4844 111.8611 Q69.4844 113.0486 70.0078 113.6423 Q70.5312 114.2361 71.3125 114.2361 Q72.1094 114.2361 72.625 113.6423 Q73.1406 113.0486 73.1406 111.8298 Q73.1406 110.6736 72.6172 110.0798 Q72.0938 109.4861 71.3125 109.4861 Q70.5312 109.4861 70.0078 110.072 Q69.4844 110.6579 69.4844 111.8611 ZM75.7812 114.9704 L75.7812 108.7517 L76.7344 108.7517 L76.7344 109.6892 Q77.0938 109.0329 77.3984 108.822 Q77.7031 108.6111 78.0781 108.6111 Q78.6094 108.6111 79.1562 108.9392 L78.7969 109.9236 Q78.4062 109.6892 78.0312 109.6892 Q77.6719 109.6892 77.3984 109.9001 Q77.125 110.1111 77.0156 110.4861 Q76.8281 111.0486 76.8281 111.7048 L76.8281 114.9704 L75.7812 114.9704 ZM83.0469 114.9704 L83.0469 109.5642 L82.1094 109.5642 L82.1094 108.7517 L83.0469 108.7517 L83.0469 108.0798 Q83.0469 107.4548 83.1562 107.1579 Q83.3125 106.7361 83.6953 106.4861 Q84.0781 106.2361 84.7656 106.2361 Q85.2188 106.2361 85.75 106.3454 L85.5938 107.2517 Q85.2656 107.2048 84.9688 107.2048 Q84.4844 107.2048 84.2891 107.4079 Q84.0938 107.6111 84.0938 108.1736 L84.0938 108.7517 L85.3125 108.7517 L85.3125 109.5642 L84.0938 109.5642 L84.0938 114.9704 L83.0469 114.9704 ZM90.0469 112.9704 L91.1406 113.0954 Q90.8906 114.0486 90.1875 114.5798 Q89.4844 115.1111 88.4062 115.1111 Q87.0469 115.1111 86.2422 114.2673 Q85.4375 113.4236 85.4375 111.9079 Q85.4375 110.3454 86.25 109.4782 Q87.0625 108.6111 88.3438 108.6111 Q89.5938 108.6111 90.3828 109.4548 Q91.1719 110.2986 91.1719 111.8454 Q91.1719 111.9392 91.1719 112.1267 L86.5312 112.1267 Q86.5938 113.1579 87.1094 113.697 Q87.625 114.2361 88.4062 114.2361 Q88.9844 114.2361 89.3984 113.9314 Q89.8125 113.6267 90.0469 112.9704 ZM86.5938 111.2673 L90.0625 111.2673 Q90 110.4704 89.6719 110.0798 Q89.1562 109.4704 88.3594 109.4704 Q87.625 109.4704 87.1328 109.9548 Q86.6406 110.4392 86.5938 111.2673 ZM92.7656 114.9704 L92.7656 106.3767 L93.8281 106.3767 L93.8281 114.9704 L92.7656 114.9704 ZM96.0469 114.9704 L96.0469 109.5642 L95.1094 109.5642 L95.1094 108.7517 L96.0469 108.7517 L96.0469 108.0798 Q96.0469 107.4548 96.1562 107.1579 Q96.3125 106.7361 96.6953 106.4861 Q97.0781 106.2361 97.7656 106.2361 Q98.2188 106.2361 98.75 106.3454 L98.5938 107.2517 Q98.2656 107.2048 97.9688 107.2048 Q97.4844 107.2048 97.2891 107.4079 Q97.0938 107.6111 97.0938 108.1736 L97.0938 108.7517 L98.3125 108.7517 L98.3125 109.5642 L97.0938 109.5642 L97.0938 114.9704 L96.0469 114.9704 ZM102.875 114.9704 L102.875 114.0486 Q102.1406 115.1111 100.8906 115.1111 Q100.3438 115.1111 99.8672 114.9001 Q99.3906 114.6892 99.1562 114.3689 Q98.9219 114.0486 98.8281 113.5798 Q98.7656 113.2829 98.7656 112.5954 L98.7656 108.7517 L99.8281 108.7517 L99.8281 112.2048 Q99.8281 113.0173 99.8906 113.3142 Q99.9844 113.7204 100.3047 113.9626 Q100.625 114.2048 101.1094 114.2048 Q101.5781 114.2048 101.9922 113.9626 Q102.4062 113.7204 102.5859 113.2986 Q102.7656 112.8767 102.7656 112.0798 L102.7656 108.7517 L103.8125 108.7517 L103.8125 114.9704 L102.875 114.9704 ZM108.0938 114.0329 L108.25 114.9548 Q107.7969 115.0486 107.4531 115.0486 Q106.875 115.0486 106.5625 114.8689 Q106.25 114.6892 106.1172 114.3923 Q105.9844 114.0954 105.9844 113.1423 L105.9844 109.5642 L105.2188 109.5642 L105.2188 108.7517 L105.9844 108.7517 L105.9844 107.2048 L107.0312 106.5798 L107.0312 108.7517 L108.0938 108.7517 L108.0938 109.5642 L107.0312 109.5642 L107.0312 113.2048 Q107.0312 113.6579 107.0859 113.7829 Q107.1406 113.9079 107.2656 113.9861 Q107.3906 114.0642 107.625 114.0642 Q107.8125 114.0642 108.0938 114.0329 ZM108.4062 111.8611 Q108.4062 110.1267 109.3594 109.2986 Q110.1562 108.6111 111.3125 108.6111 Q112.5938 108.6111 113.4141 109.447 Q114.2344 110.2829 114.2344 111.7673 Q114.2344 112.9704 113.875 113.6579 Q113.5156 114.3454 112.8203 114.7282 Q112.125 115.1111 111.3125 115.1111 Q110.0156 115.1111 109.2109 114.2751 Q108.4062 113.4392 108.4062 111.8611 ZM109.4844 111.8611 Q109.4844 113.0486 110.0078 113.6423 Q110.5312 114.2361 111.3125 114.2361 Q112.1094 114.2361 112.625 113.6423 Q113.1406 113.0486 113.1406 111.8298 Q113.1406 110.6736 112.6172 110.0798 Q112.0938 109.4861 111.3125 109.4861 Q110.5312 109.4861 110.0078 110.072 Q109.4844 110.6579 109.4844 111.8611 ZM110.125 106.9704 L110.9062 105.3298 L112.2969 105.3298 L111 106.9704 L110.125 106.9704 ZM123.0469 112.9704 L124.1406 113.0954 Q123.8906 114.0486 123.1875 114.5798 Q122.4844 115.1111 121.4062 115.1111 Q120.0469 115.1111 119.2422 114.2673 Q118.4375 113.4236 118.4375 111.9079 Q118.4375 110.3454 119.25 109.4782 Q120.0625 108.6111 121.3438 108.6111 Q122.5938 108.6111 123.3828 109.4548 Q124.1719 110.2986 124.1719 111.8454 Q124.1719 111.9392 124.1719 112.1267 L119.5312 112.1267 Q119.5938 113.1579 120.1094 113.697 Q120.625 114.2361 121.4062 114.2361 Q121.9844 114.2361 122.3984 113.9314 Q122.8125 113.6267 123.0469 112.9704 ZM119.5938 111.2673 L123.0625 111.2673 Q123 110.4704 122.6719 110.0798 Q122.1562 109.4704 121.3594 109.4704 Q120.625 109.4704 120.1328 109.9548 Q119.6406 110.4392 119.5938 111.2673 ZM120.125 106.9704 L120.9062 105.3298 L122.2969 105.3298 L121 106.9704 L120.125 106.9704 ZM125.7656 114.9704 L125.7656 106.3767 L126.8281 106.3767 L126.8281 114.9704 L125.7656 114.9704 ZM131.0938 114.0329 L131.25 114.9548 Q130.7969 115.0486 130.4531 115.0486 Q129.875 115.0486 129.5625 114.8689 Q129.25 114.6892 129.1172 114.3923 Q128.9844 114.0954 128.9844 113.1423 L128.9844 109.5642 L128.2188 109.5642 L128.2188 108.7517 L128.9844 108.7517 L128.9844 107.2048 L130.0312 106.5798 L130.0312 108.7517 L131.0938 108.7517 L131.0938 109.5642 L130.0312 109.5642 L130.0312 113.2048 Q130.0312 113.6579 130.0859 113.7829 Q130.1406 113.9079 130.2656 113.9861 Q130.3906 114.0642 130.625 114.0642 Q130.8125 114.0642 131.0938 114.0329 Z" style="clip-path:url(#clipPath19); stroke:none;" />
      <path d="M3.5938 129.4861 L4.625 129.6423 Q4.6875 130.1111 4.9844 130.3298 Q5.375 130.6267 6.0469 130.6267 Q6.7812 130.6267 7.1797 130.3298 Q7.5781 130.0329 7.7188 129.5173 Q7.8125 129.1892 7.7969 128.1579 Q7.1094 128.9704 6.0781 128.9704 Q4.7969 128.9704 4.0938 128.0407 Q3.3906 127.1111 3.3906 125.8298 Q3.3906 124.9392 3.7109 124.1814 Q4.0312 123.4236 4.6406 123.0173 Q5.25 122.6111 6.0781 122.6111 Q7.1875 122.6111 7.9062 123.5017 L7.9062 122.7517 L8.875 122.7517 L8.875 128.1267 Q8.875 129.5798 8.5781 130.1892 Q8.2812 130.7986 7.6406 131.1501 Q7 131.5017 6.0625 131.5017 Q4.9531 131.5017 4.2656 131.0017 Q3.5781 130.5017 3.5938 129.4861 ZM4.4688 125.7517 Q4.4688 126.9704 4.9531 127.5329 Q5.4375 128.0954 6.1719 128.0954 Q6.9062 128.0954 7.3984 127.5329 Q7.8906 126.9704 7.8906 125.7829 Q7.8906 124.6423 7.3828 124.0642 Q6.875 123.4861 6.1562 123.4861 Q5.4531 123.4861 4.9609 124.0564 Q4.4688 124.6267 4.4688 125.7517 ZM15.0469 126.9704 L16.1406 127.0954 Q15.8906 128.0486 15.1875 128.5798 Q14.4844 129.1111 13.4062 129.1111 Q12.0469 129.1111 11.2422 128.2673 Q10.4375 127.4236 10.4375 125.9079 Q10.4375 124.3454 11.25 123.4782 Q12.0625 122.6111 13.3438 122.6111 Q14.5938 122.6111 15.3828 123.4548 Q16.1719 124.2986 16.1719 125.8454 Q16.1719 125.9392 16.1719 126.1267 L11.5312 126.1267 Q11.5938 127.1579 12.1094 127.697 Q12.625 128.2361 13.4062 128.2361 Q13.9844 128.2361 14.3984 127.9314 Q14.8125 127.6267 15.0469 126.9704 ZM11.5938 125.2673 L15.0625 125.2673 Q15 124.4704 14.6719 124.0798 Q14.1562 123.4704 13.3594 123.4704 Q12.625 123.4704 12.1328 123.9548 Q11.6406 124.4392 11.5938 125.2673 ZM17.7969 128.9704 L17.7969 122.7517 L18.7344 122.7517 L18.7344 123.6267 Q19.4219 122.6111 20.7188 122.6111 Q21.2812 122.6111 21.7578 122.8142 Q22.2344 123.0173 22.4688 123.3454 Q22.7031 123.6736 22.7969 124.1111 Q22.8438 124.4079 22.8438 125.1423 L22.8438 128.9704 L21.7969 128.9704 L21.7969 125.1892 Q21.7969 124.5329 21.6719 124.2204 Q21.5469 123.9079 21.2344 123.7126 Q20.9219 123.5173 20.5 123.5173 Q19.8281 123.5173 19.3359 123.947 Q18.8438 124.3767 18.8438 125.5642 L18.8438 128.9704 L17.7969 128.9704 ZM29.0469 126.9704 L30.1406 127.0954 Q29.8906 128.0486 29.1875 128.5798 Q28.4844 129.1111 27.4062 129.1111 Q26.0469 129.1111 25.2422 128.2673 Q24.4375 127.4236 24.4375 125.9079 Q24.4375 124.3454 25.25 123.4782 Q26.0625 122.6111 27.3438 122.6111 Q28.5938 122.6111 29.3828 123.4548 Q30.1719 124.2986 30.1719 125.8454 Q30.1719 125.9392 30.1719 126.1267 L25.5312 126.1267 Q25.5938 127.1579 26.1094 127.697 Q26.625 128.2361 27.4062 128.2361 Q27.9844 128.2361 28.3984 127.9314 Q28.8125 127.6267 29.0469 126.9704 ZM25.5938 125.2673 L29.0625 125.2673 Q29 124.4704 28.6719 124.0798 Q28.1562 123.4704 27.3594 123.4704 Q26.625 123.4704 26.1328 123.9548 Q25.6406 124.4392 25.5938 125.2673 ZM31.7812 128.9704 L31.7812 122.7517 L32.7344 122.7517 L32.7344 123.6892 Q33.0938 123.0329 33.3984 122.822 Q33.7031 122.6111 34.0781 122.6111 Q34.6094 122.6111 35.1562 122.9392 L34.7969 123.9236 Q34.4062 123.6892 34.0312 123.6892 Q33.6719 123.6892 33.3984 123.9001 Q33.125 124.1111 33.0156 124.4861 Q32.8281 125.0486 32.8281 125.7048 L32.8281 128.9704 L31.7812 128.9704 ZM39.8594 128.2048 Q39.2656 128.7048 38.7266 128.9079 Q38.1875 129.1111 37.5625 129.1111 Q36.5312 129.1111 35.9844 128.6111 Q35.4375 128.1111 35.4375 127.3298 Q35.4375 126.8767 35.6406 126.4939 Q35.8438 126.1111 36.1875 125.8845 Q36.5312 125.6579 36.9531 125.5486 Q37.25 125.4548 37.8906 125.3767 Q39.1562 125.2361 39.7656 125.0173 Q39.7656 124.7986 39.7656 124.7517 Q39.7656 124.0954 39.4688 123.8298 Q39.0625 123.4861 38.2656 123.4861 Q37.5312 123.4861 37.1719 123.7439 Q36.8125 124.0017 36.6406 124.6579 L35.6094 124.5173 Q35.75 123.8611 36.0781 123.4548 Q36.4062 123.0486 37.0156 122.8298 Q37.625 122.6111 38.4219 122.6111 Q39.2188 122.6111 39.7188 122.7986 Q40.2188 122.9861 40.4531 123.2673 Q40.6875 123.5486 40.7812 123.9861 Q40.8281 124.2517 40.8281 124.9548 L40.8281 126.3611 Q40.8281 127.8298 40.8984 128.2204 Q40.9688 128.6111 41.1719 128.9704 L40.0625 128.9704 Q39.9062 128.6423 39.8594 128.2048 ZM39.7656 125.8454 Q39.1875 126.0798 38.0469 126.2517 Q37.3906 126.3454 37.125 126.4626 Q36.8594 126.5798 36.7109 126.7986 Q36.5625 127.0173 36.5625 127.2986 Q36.5625 127.7204 36.8828 128.0017 Q37.2031 128.2829 37.8125 128.2829 Q38.4219 128.2829 38.8984 128.0173 Q39.375 127.7517 39.5938 127.2829 Q39.7656 126.9236 39.7656 126.2361 L39.7656 125.8454 ZM37.125 120.9704 L37.9062 119.3298 L39.2969 119.3298 L38 120.9704 L37.125 120.9704 ZM42.7656 128.9704 L42.7656 120.3767 L43.8281 120.3767 L43.8281 128.9704 L42.7656 128.9704 ZM48.0938 128.0329 L48.25 128.9548 Q47.7969 129.0486 47.4531 129.0486 Q46.875 129.0486 46.5625 128.8689 Q46.25 128.6892 46.1172 128.3923 Q45.9844 128.0954 45.9844 127.1423 L45.9844 123.5642 L45.2188 123.5642 L45.2188 122.7517 L45.9844 122.7517 L45.9844 121.2048 L47.0312 120.5798 L47.0312 122.7517 L48.0938 122.7517 L48.0938 123.5642 L47.0312 123.5642 L47.0312 127.2048 Q47.0312 127.6579 47.0859 127.7829 Q47.1406 127.9079 47.2656 127.9861 Q47.3906 128.0642 47.625 128.0642 Q47.8125 128.0642 48.0938 128.0329 ZM48.375 126.3923 L48.375 125.3298 L51.625 125.3298 L51.625 126.3923 L48.375 126.3923 ZM57.0469 126.9704 L58.1406 127.0954 Q57.8906 128.0486 57.1875 128.5798 Q56.4844 129.1111 55.4062 129.1111 Q54.0469 129.1111 53.2422 128.2673 Q52.4375 127.4236 52.4375 125.9079 Q52.4375 124.3454 53.25 123.4782 Q54.0625 122.6111 55.3438 122.6111 Q56.5938 122.6111 57.3828 123.4548 Q58.1719 124.2986 58.1719 125.8454 Q58.1719 125.9392 58.1719 126.1267 L53.5312 126.1267 Q53.5938 127.1579 54.1094 127.697 Q54.625 128.2361 55.4062 128.2361 Q55.9844 128.2361 56.3984 127.9314 Q56.8125 127.6267 57.0469 126.9704 ZM53.5938 125.2673 L57.0625 125.2673 Q57 124.4704 56.6719 124.0798 Q56.1562 123.4704 55.3594 123.4704 Q54.625 123.4704 54.1328 123.9548 Q53.6406 124.4392 53.5938 125.2673 ZM60.0938 128.9704 L60.0938 127.7673 L61.2969 127.7673 L61.2969 128.9704 L60.0938 128.9704 Z" style="clip-path:url(#clipPath19); stroke:none;" />
    </g>
    <g style="text-rendering:geometricPrecision; font-size:11; font-family:sans-serif;" transform="translate(300,34)">
      <text x="14" y="12" style="clip-path:url(#clipPath20); stroke:none;" xml:space="preserve">ffList : FlipFlop</text>
    </g>
    <g style="text-rendering:geometricPrecision; font-size:11; font-family:sans-serif;" transform="translate(120,34)">
      <text x="37" y="12" style="clip-path:url(#clipPath21); stroke:none;" xml:space="preserve">seqGen :</text>
      <text x="10" y="27" style="clip-path:url(#clipPath21); stroke:none;" xml:space="preserve">SequenceGenerator</text>
    </g>
    <g style="text-rendering:geometricPrecision; font-size:11; font-family:sans-serif;" transform="translate(21,104)">
      <text x="10" y="12" style="clip-path:url(#clipPath22); stroke:none;" xml:space="preserve">léptetés</text>
    </g>
    <g transform="translate(0,44)" style="font-size:11; stroke-linecap:butt; text-rendering:geometricPrecision; font-family:sans-serif; stroke-linejoin:round;">
      <line x1="50" x2="176" y1="50" style="clip-path:url(#clipPath23); fill:none;" y2="50" />
      <polygon style="clip-path:url(#clipPath23); stroke:none;" points=" 176 50 164 44 164 56" />
      <polygon style="fill:none; clip-path:url(#clipPath23);" points=" 176 50 164 44 164 56" />
    </g>
    <g transform="translate(134,44)" style="font-size:11; stroke-linecap:butt; text-rendering:geometricPrecision; font-family:sans-serif; stroke-linejoin:round;">
      <line x1="50" x2="76" y1="50" style="clip-path:url(#clipPath24); fill:none;" y2="50" />
      <line x1="76" x2="76" y1="50" style="clip-path:url(#clipPath24); fill:none;" y2="70" />
      <line x1="76" x2="50" y1="70" style="clip-path:url(#clipPath24); fill:none;" y2="70" />
      <polygon style="clip-path:url(#clipPath24); stroke:none;" points=" 50 70 62 76 62 64" />
      <polygon style="fill:none; clip-path:url(#clipPath24);" points=" 50 70 62 76 62 64" />
    </g>
    <g transform="translate(134,214)" style="font-size:11; stroke-linecap:butt; text-rendering:geometricPrecision; font-family:sans-serif; stroke-linejoin:round;">
      <line x1="50" x2="212" y1="50" style="clip-path:url(#clipPath25); fill:none;" y2="50" />
      <polygon style="clip-path:url(#clipPath25); stroke:none;" points=" 212 50 200 44 200 56" />
      <polygon style="fill:none; clip-path:url(#clipPath25);" points=" 212 50 200 44 200 56" />
    </g>
    <g transform="translate(134,284)" style="font-size:11; stroke-linecap:butt; text-rendering:geometricPrecision; font-family:sans-serif; stroke-linejoin:round;">
      <line x1="50" x2="212" y1="50" style="clip-path:url(#clipPath25); fill:none;" y2="50" />
      <polygon style="clip-path:url(#clipPath25); stroke:none;" points=" 212 50 200 44 200 56" />
      <polygon style="fill:none; clip-path:url(#clipPath25);" points=" 212 50 200 44 200 56" />
    </g>
    <g transform="translate(100,114)" style="font-size:11; stroke-linecap:butt; text-rendering:geometricPrecision; font-family:sans-serif; stroke-linejoin:round; stroke-dasharray:4;">
      <line x1="59" x2="50" y1="50" style="clip-path:url(#clipPath26); fill:none;" y2="50" />
    </g>
    <g style="text-rendering:geometricPrecision; font-size:11; font-family:sans-serif;" transform="translate(212,314)">
      <text x="8" y="12" style="clip-path:url(#clipPath27); stroke:none;" xml:space="preserve">4: setActive(false)</text>
    </g>
    <g style="text-rendering:geometricPrecision; font-size:11; font-family:sans-serif;" transform="translate(210,244)">
      <text x="9" y="12" style="clip-path:url(#clipPath28); stroke:none;" xml:space="preserve">3: setActive(true)</text>
    </g>
    <g style="text-rendering:geometricPrecision; font-size:11; font-family:sans-serif;" transform="translate(210,94)">
      <text x="10" y="12" style="clip-path:url(#clipPath29); stroke:none;" xml:space="preserve">1: index léptetése</text>
    </g>
    <g style="text-rendering:geometricPrecision; font-size:11; font-family:sans-serif;" transform="translate(80,74)">
      <text x="9" y="12" style="clip-path:url(#clipPath30); stroke:none;" xml:space="preserve">2: step()</text>
    </g>
  </g>
</svg>
