<?xml version="1.0" encoding="UTF-8"?>

<!DOCTYPE svg PUBLIC '-//W3C//DTD SVG 1.0//EN' 'http://www.w3.org/TR/2001/REC-SVG-20010904/DTD/svg10.dtd'>
<svg style="fill-opacity:1; color-rendering:auto; color-interpolation:auto; stroke:black; text-rendering:auto; stroke-linecap:square; stroke-miterlimit:10; stroke-opacity:1; shape-rendering:auto; fill:black; stroke-dasharray:none; font-weight:normal; stroke-width:1; font-family:&apos;Dialog&apos;; font-style:normal; stroke-linejoin:miter; font-size:12; stroke-dashoffset:0; image-rendering:auto;" xmlns="http://www.w3.org/2000/svg" width="639" xmlns:xlink="http://www.w3.org/1999/xlink" height="598">
  <!--Generated by the Batik Graphics2D SVG Generator-->
  <defs id="genericDefs" />
  <g>
    <defs id="defs1">
      <clipPath clipPathUnits="userSpaceOnUse" id="clipPath1">
        <path d="M-3 -3 L77 -3 L77 537 L-3 537 L-3 -3 Z" />
      </clipPath>
      <clipPath clipPathUnits="userSpaceOnUse" id="clipPath2">
        <path d="M-3 -3 L107 -3 L107 537 L-3 537 L-3 -3 Z" />
      </clipPath>
      <clipPath clipPathUnits="userSpaceOnUse" id="clipPath3">
        <path d="M-3 -3 L15 -3 L15 387 L-3 387 L-3 -3 Z" />
      </clipPath>
      <clipPath clipPathUnits="userSpaceOnUse" id="clipPath4">
        <path d="M-3 -3 L67 -3 L67 537 L-3 537 L-3 -3 Z" />
      </clipPath>
      <clipPath clipPathUnits="userSpaceOnUse" id="clipPath5">
        <path d="M-3 -3 L14 -3 L14 47 L-3 47 L-3 -3 Z" />
      </clipPath>
      <clipPath clipPathUnits="userSpaceOnUse" id="clipPath6">
        <path d="M-3 -3 L137 -3 L137 537 L-3 537 L-3 -3 Z" />
      </clipPath>
      <clipPath clipPathUnits="userSpaceOnUse" id="clipPath7">
        <path d="M-3 -3 L157 -3 L157 337 L-3 337 L-3 -3 Z" />
      </clipPath>
      <clipPath clipPathUnits="userSpaceOnUse" id="clipPath8">
        <path d="M-3 -3 L13 -3 L13 97 L-3 97 L-3 -3 Z" />
      </clipPath>
      <clipPath clipPathUnits="userSpaceOnUse" id="clipPath9">
        <path d="M-3 -3 L15 -3 L15 47 L-3 47 L-3 -3 Z" />
      </clipPath>
      <clipPath clipPathUnits="userSpaceOnUse" id="clipPath10">
        <path d="M-3 -3 L14 -3 L14 19 L-3 19 L-3 -3 Z" />
      </clipPath>
      <clipPath clipPathUnits="userSpaceOnUse" id="clipPath11">
        <path d="M-3 -3 L447 -3 L447 187 L-3 187 L-3 -3 Z" />
      </clipPath>
      <clipPath clipPathUnits="userSpaceOnUse" id="clipPath12">
        <path d="M0 0 L33 0 L33 18 L0 18 L0 0 Z" />
      </clipPath>
      <clipPath clipPathUnits="userSpaceOnUse" id="clipPath13">
        <path d="M-3 -3 L447 -3 L447 170 L-3 170 L-3 -3 Z" />
      </clipPath>
      <clipPath clipPathUnits="userSpaceOnUse" id="clipPath14">
        <path d="M0 0 L147 0 L147 15 L0 15 L0 0 Z" />
      </clipPath>
      <clipPath clipPathUnits="userSpaceOnUse" id="clipPath15">
        <path d="M0 0 L0 4 L440 4 L440 0 Z" />
      </clipPath>
      <clipPath clipPathUnits="userSpaceOnUse" id="clipPath16">
        <path d="M-3 -3 L297 -3 L297 67 L-3 67 L-3 -3 Z" />
      </clipPath>
      <clipPath clipPathUnits="userSpaceOnUse" id="clipPath17">
        <path d="M0 0 L0 60 L290 60 L290 0 Z" />
      </clipPath>
      <clipPath clipPathUnits="userSpaceOnUse" id="clipPath18">
        <path d="M-150 -15 L300 -15 L300 30 L-150 30 L-150 -15 Z" />
      </clipPath>
      <clipPath clipPathUnits="userSpaceOnUse" id="clipPath19">
        <path d="M-130 -15 L260 -15 L260 30 L-130 30 L-130 -15 Z" />
      </clipPath>
      <clipPath clipPathUnits="userSpaceOnUse" id="clipPath20">
        <path d="M-60 -30 L120 -30 L120 60 L-60 60 L-60 -30 Z" />
      </clipPath>
      <clipPath clipPathUnits="userSpaceOnUse" id="clipPath21">
        <path d="M-100 -30 L200 -30 L200 60 L-100 60 L-100 -30 Z" />
      </clipPath>
      <clipPath clipPathUnits="userSpaceOnUse" id="clipPath22">
        <path d="M-79 -15 L158 -15 L158 30 L-79 30 L-79 -15 Z" />
      </clipPath>
      <clipPath clipPathUnits="userSpaceOnUse" id="clipPath23">
        <path d="M0 0 L266 0 L266 129 L0 129 L0 0 Z" />
      </clipPath>
      <clipPath clipPathUnits="userSpaceOnUse" id="clipPath24">
        <path d="M0 0 L242 0 L242 129 L0 129 L0 0 Z" />
      </clipPath>
      <clipPath clipPathUnits="userSpaceOnUse" id="clipPath25">
        <path d="M0 0 L358 0 L358 129 L0 129 L0 0 Z" />
      </clipPath>
      <clipPath clipPathUnits="userSpaceOnUse" id="clipPath26">
        <path d="M0 0 L252 0 L252 129 L0 129 L0 0 Z" />
      </clipPath>
      <clipPath clipPathUnits="userSpaceOnUse" id="clipPath27">
        <path d="M0 0 L356 0 L356 129 L0 129 L0 0 Z" />
      </clipPath>
      <clipPath clipPathUnits="userSpaceOnUse" id="clipPath28">
        <path d="M0 0 L129 0 L129 188 L0 188 L0 0 Z" />
      </clipPath>
      <clipPath clipPathUnits="userSpaceOnUse" id="clipPath29">
        <path d="M0 0 L160 0 L160 149 L0 149 L0 0 Z" />
      </clipPath>
      <clipPath clipPathUnits="userSpaceOnUse" id="clipPath30">
        <path d="M0 0 L285 0 L285 129 L0 129 L0 0 Z" />
      </clipPath>
      <clipPath clipPathUnits="userSpaceOnUse" id="clipPath31">
        <path d="M-100 -15 L200 -15 L200 30 L-100 30 L-100 -15 Z" />
      </clipPath>
      <clipPath clipPathUnits="userSpaceOnUse" id="clipPath32">
        <path d="M-156 -30 L312 -30 L312 60 L-156 60 L-156 -30 Z" />
      </clipPath>
      <clipPath clipPathUnits="userSpaceOnUse" id="clipPath33">
        <path d="M-98 -15 L196 -15 L196 30 L-98 30 L-98 -15 Z" />
      </clipPath>
      <clipPath clipPathUnits="userSpaceOnUse" id="clipPath34">
        <path d="M-74 -15 L148 -15 L148 30 L-74 30 L-74 -15 Z" />
      </clipPath>
      <clipPath clipPathUnits="userSpaceOnUse" id="clipPath35">
        <path d="M-82 -15 L164 -15 L164 30 L-82 30 L-82 -15 Z" />
      </clipPath>
      <clipPath clipPathUnits="userSpaceOnUse" id="clipPath36">
        <path d="M-108 -15 L216 -15 L216 30 L-108 30 L-108 -15 Z" />
      </clipPath>
      <clipPath clipPathUnits="userSpaceOnUse" id="clipPath37">
        <path d="M-80 -15 L160 -15 L160 30 L-80 30 L-80 -15 Z" />
      </clipPath>
      <clipPath clipPathUnits="userSpaceOnUse" id="clipPath38">
        <path d="M-104 -15 L208 -15 L208 30 L-104 30 L-104 -15 Z" />
      </clipPath>
      <clipPath clipPathUnits="userSpaceOnUse" id="clipPath39">
        <path d="M-148 -15 L296 -15 L296 30 L-148 30 L-148 -15 Z" />
      </clipPath>
    </defs>
    <g style="fill:white; text-rendering:geometricPrecision; stroke:white;">
      <rect x="0" y="0" width="639" style="stroke:none;" height="598" />
      <rect x="4" y="38" transform="translate(-4.25,-38)" width="638" style="fill:none; stroke:black;" height="597" />
      <text x="11" y="55" transform="translate(-4.25,-38)" style="fill:black; stroke:none; font-weight:bold;" xml:space="preserve">sd</text>
      <text x="32" y="55" transform="translate(-4.25,-38)" style="fill:black; stroke:none;" xml:space="preserve">Jelforrások elmentése</text>
      <line transform="translate(-4.25,-38)" x1="4" x2="155" y1="62" style="fill:none; stroke:black;" y2="62" />
      <line transform="translate(-4.25,-38)" x1="161" x2="161" y1="38" style="fill:none; stroke:black;" y2="52" />
      <line transform="translate(-4.25,-38)" x1="161" x2="155" y1="52" style="fill:none; stroke:black;" y2="62" />
    </g>
    <g transform="translate(15.75,34)" style="font-size:11; fill:white; text-rendering:geometricPrecision; font-family:sans-serif; stroke:white;">
      <circle style="clip-path:url(#clipPath1); stroke:none;" r="5" cx="35" cy="5" />
      <rect x="31" y="50" width="8" style="clip-path:url(#clipPath1); stroke:none;" height="479" />
    </g>
    <g transform="translate(15.75,34)" style="font-size:11; stroke-linecap:butt; text-rendering:geometricPrecision; font-family:sans-serif; stroke-linejoin:round; stroke-miterlimit:0;">
      <circle style="fill:none; clip-path:url(#clipPath1);" r="5" cx="35" cy="5" />
      <rect x="31" y="50" width="8" style="clip-path:url(#clipPath1); fill:none;" height="479" />
      <line x1="35" x2="35" y1="10" style="clip-path:url(#clipPath1); fill:none;" y2="25" />
      <line x1="35" x2="26" y1="25" style="clip-path:url(#clipPath1); fill:none;" y2="36" />
      <line x1="35" x2="44" y1="25" style="clip-path:url(#clipPath1); fill:none;" y2="36" />
      <line x1="26" x2="44" y1="16" style="clip-path:url(#clipPath1); fill:none;" y2="16" />
    </g>
    <g transform="translate(145.75,34)" style="font-size:11; fill:white; text-rendering:geometricPrecision; font-family:sans-serif; stroke:white;">
      <rect x="0" y="0" width="99" style="clip-path:url(#clipPath2); stroke:none;" height="35" />
    </g>
    <g transform="translate(145.75,34)" style="font-size:11; stroke-linecap:butt; text-rendering:geometricPrecision; font-family:sans-serif; stroke-linejoin:round; stroke-miterlimit:0;">
      <rect x="0" y="0" width="99" style="clip-path:url(#clipPath2); fill:none;" height="35" />
      <line x1="49" x2="49" y1="35" style="clip-path:url(#clipPath2); fill:none; stroke-linejoin:bevel; stroke-dasharray:8,3;" y2="530" />
    </g>
    <g transform="translate(191.75,124)" style="font-size:11; fill:white; text-rendering:geometricPrecision; font-family:sans-serif; stroke:white;">
      <rect x="0" y="0" width="8" style="clip-path:url(#clipPath3); stroke:none;" height="380" />
    </g>
    <g transform="translate(191.75,124)" style="font-size:11; stroke-linecap:butt; text-rendering:geometricPrecision; font-family:sans-serif; stroke-linejoin:round; stroke-miterlimit:0;">
      <rect x="0" y="0" width="8" style="clip-path:url(#clipPath3); fill:none;" height="380" />
    </g>
    <g transform="translate(285.75,34)" style="font-size:11; fill:white; text-rendering:geometricPrecision; font-family:sans-serif; stroke:white;">
      <rect x="0" y="0" width="59" style="clip-path:url(#clipPath4); stroke:none;" height="35" />
    </g>
    <g transform="translate(285.75,34)" style="font-size:11; stroke-linecap:butt; text-rendering:geometricPrecision; font-family:sans-serif; stroke-linejoin:round; stroke-miterlimit:0;">
      <rect x="0" y="0" width="59" style="clip-path:url(#clipPath4); fill:none;" height="35" />
      <line x1="29" x2="29" y1="35" style="clip-path:url(#clipPath4); fill:none; stroke-linejoin:bevel; stroke-dasharray:8,3;" y2="530" />
    </g>
    <g transform="translate(313.75,144)" style="font-size:11; fill:white; text-rendering:geometricPrecision; font-family:sans-serif; stroke:white;">
      <rect x="0" y="0" width="7" style="clip-path:url(#clipPath5); stroke:none;" height="40" />
    </g>
    <g transform="translate(313.75,144)" style="font-size:11; stroke-linecap:butt; text-rendering:geometricPrecision; font-family:sans-serif; stroke-linejoin:round; stroke-miterlimit:0;">
      <rect x="0" y="0" width="7" style="clip-path:url(#clipPath5); fill:none;" height="40" />
    </g>
    <g transform="translate(495.75,34)" style="font-size:11; fill:white; text-rendering:geometricPrecision; font-family:sans-serif; stroke:white;">
      <rect x="4" y="4" width="125" style="clip-path:url(#clipPath6); stroke:none;" height="35" />
    </g>
    <g transform="translate(495.75,34)" style="font-size:11; stroke-linecap:butt; text-rendering:geometricPrecision; font-family:sans-serif; stroke-linejoin:round; stroke-miterlimit:0;">
      <rect x="4" y="4" width="125" style="clip-path:url(#clipPath6); fill:none;" height="35" />
    </g>
    <g transform="translate(495.75,34)" style="font-size:11; fill:white; text-rendering:geometricPrecision; font-family:sans-serif; stroke:white;">
      <rect x="0" y="0" width="125" style="clip-path:url(#clipPath6); stroke:none;" height="35" />
    </g>
    <g transform="translate(495.75,34)" style="font-size:11; stroke-linecap:butt; text-rendering:geometricPrecision; font-family:sans-serif; stroke-linejoin:round; stroke-miterlimit:0;">
      <rect x="0" y="0" width="125" style="clip-path:url(#clipPath6); fill:none;" height="35" />
      <line x1="62" x2="62" y1="35" style="clip-path:url(#clipPath6); fill:none; stroke-linejoin:bevel; stroke-dasharray:8,3;" y2="530" />
    </g>
    <g transform="translate(355.75,234)" style="font-size:11; fill:white; text-rendering:geometricPrecision; font-family:sans-serif; stroke:white;">
      <rect x="0" y="0" width="149" style="clip-path:url(#clipPath7); stroke:none;" height="35" />
    </g>
    <g transform="translate(355.75,234)" style="font-size:11; stroke-linecap:butt; text-rendering:geometricPrecision; font-family:sans-serif; stroke-linejoin:round; stroke-miterlimit:0;">
      <rect x="0" y="0" width="149" style="clip-path:url(#clipPath7); fill:none;" height="35" />
      <line x1="74" x2="74" y1="35" style="clip-path:url(#clipPath7); fill:none; stroke-linejoin:bevel; stroke-dasharray:8,3;" y2="330" />
    </g>
    <g transform="translate(428.75,354)" style="font-size:11; fill:white; text-rendering:geometricPrecision; font-family:sans-serif; stroke:white;">
      <rect x="0" y="0" width="6" style="clip-path:url(#clipPath8); stroke:none;" height="90" />
    </g>
    <g transform="translate(428.75,354)" style="font-size:11; stroke-linecap:butt; text-rendering:geometricPrecision; font-family:sans-serif; stroke-linejoin:round; stroke-miterlimit:0;">
      <rect x="0" y="0" width="6" style="clip-path:url(#clipPath8); fill:none;" height="90" />
    </g>
    <g transform="translate(556.75,364)" style="font-size:11; fill:white; text-rendering:geometricPrecision; font-family:sans-serif; stroke:white;">
      <rect x="0" y="0" width="8" style="clip-path:url(#clipPath9); stroke:none;" height="40" />
    </g>
    <g transform="translate(556.75,364)" style="font-size:11; stroke-linecap:butt; text-rendering:geometricPrecision; font-family:sans-serif; stroke-linejoin:round; stroke-miterlimit:0;">
      <rect x="0" y="0" width="8" style="clip-path:url(#clipPath9); fill:none;" height="40" />
    </g>
    <g transform="translate(426.75,484)" style="font-size:11; fill:white; text-rendering:geometricPrecision; font-family:sans-serif; stroke:white;">
      <rect x="0" y="0" width="7" style="clip-path:url(#clipPath10); stroke:none;" height="12" />
    </g>
    <g transform="translate(426.75,484)" style="font-size:11; stroke-linecap:butt; text-rendering:geometricPrecision; font-family:sans-serif; stroke-linejoin:round; stroke-miterlimit:0;">
      <rect x="0" y="0" width="7" style="clip-path:url(#clipPath10); fill:none;" height="12" />
    </g>
    <g transform="translate(145.75,284)" style="font-size:11; stroke-linecap:butt; text-rendering:geometricPrecision; font-family:sans-serif; stroke-linejoin:round; font-weight:bold; stroke-miterlimit:0;">
      <rect x="0" y="0" width="440" style="clip-path:url(#clipPath11); fill:none;" height="180" />
    </g>
    <g transform="translate(145.75,284)" style="font-size:11; fill:white; text-rendering:geometricPrecision; font-family:sans-serif; stroke:white; font-weight:bold;">
      <path d="M32 0 L32 9 L26 17 L0 17 L0 0 Z" style="clip-path:url(#clipPath11); stroke:none;" />
    </g>
    <g transform="translate(145.75,284)" style="font-size:11; stroke-linecap:butt; text-rendering:geometricPrecision; font-family:sans-serif; stroke-linejoin:round; font-weight:bold; stroke-miterlimit:0;">
      <path d="M32 0 L32 9 L26 17 L0 17 L0 0 Z" style="fill:none; clip-path:url(#clipPath11);" />
    </g>
    <g transform="translate(145.75,284)" style="text-rendering:geometricPrecision; font-size:11; font-weight:bold; font-family:sans-serif;">
      <text x="4" y="12" style="clip-path:url(#clipPath12); stroke:none;" xml:space="preserve">loop</text>
    </g>
    <g transform="translate(145.75,300)" style="font-size:11; fill:white; text-rendering:geometricPrecision; font-family:sans-serif; stroke:white;">
      <rect x="28" y="5" width="147" style="clip-path:url(#clipPath13); stroke:none;" height="15" />
    </g>
    <g style="text-rendering:geometricPrecision; font-size:11; font-family:sans-serif;" transform="translate(173.75,305)">
      <text x="11" y="12" style="clip-path:url(#clipPath14); stroke:none;" xml:space="preserve">[sources minden elemére]</text>
    </g>
    <g transform="translate(105.75,524)" style="font-size:11; fill:white; text-rendering:geometricPrecision; font-family:sans-serif; stroke:white;">
      <polygon style="clip-path:url(#clipPath16); stroke:none;" points=" 0 0 274 0 289 15 274 15 274 0 289 15 289 59 0 59" />
    </g>
    <g transform="translate(105.75,524)" style="font-size:11; stroke-linecap:butt; text-rendering:geometricPrecision; font-family:sans-serif; stroke-linejoin:round; stroke-miterlimit:0;">
      <polygon style="fill:none; clip-path:url(#clipPath16);" points=" 0 0 274 0 289 15 274 15 274 0 289 15 289 59 0 59" />
    </g>
    <g style="text-rendering:geometricPrecision; font-size:11; font-family:&apos;Tahoma&apos;;" transform="translate(105.75,524)">
      <path d="M2.9844 14.9704 L6.2812 6.3767 L7.5 6.3767 L11.0156 14.9704 L9.7344 14.9704 L8.7188 12.3611 L5.1406 12.3611 L4.1875 14.9704 L2.9844 14.9704 ZM5.4688 11.4392 L8.375 11.4392 L7.4844 9.0642 Q7.0625 7.9861 6.875 7.2829 Q6.7031 8.1111 6.4062 8.9236 L5.4688 11.4392 ZM13.375 13.1111 L14.4062 12.9548 Q14.5 13.5798 14.8984 13.9079 Q15.2969 14.2361 16.0312 14.2361 Q16.75 14.2361 17.1016 13.947 Q17.4531 13.6579 17.4531 13.2517 Q17.4531 12.8923 17.1406 12.6892 Q16.9219 12.5486 16.0625 12.3298 Q14.9062 12.0329 14.4609 11.822 Q14.0156 11.6111 13.7812 11.2361 Q13.5469 10.8611 13.5469 10.3923 Q13.5469 9.9861 13.7344 9.6267 Q13.9219 9.2673 14.25 9.0329 Q14.5 8.8611 14.9219 8.7361 Q15.3438 8.6111 15.8438 8.6111 Q16.5625 8.6111 17.1172 8.822 Q17.6719 9.0329 17.9375 9.3923 Q18.2031 9.7517 18.2969 10.3454 L17.2656 10.4861 Q17.2031 10.0173 16.8672 9.7439 Q16.5312 9.4704 15.9062 9.4704 Q15.1875 9.4704 14.875 9.7126 Q14.5625 9.9548 14.5625 10.2829 Q14.5625 10.4861 14.6875 10.6423 Q14.8281 10.8142 15.0938 10.9236 Q15.25 10.9861 16.0312 11.1892 Q17.1562 11.5017 17.5938 11.6892 Q18.0312 11.8767 18.2812 12.2361 Q18.5312 12.5954 18.5312 13.1423 Q18.5312 13.6736 18.2266 14.1345 Q17.9219 14.5954 17.3438 14.8532 Q16.7656 15.1111 16.0312 15.1111 Q14.8125 15.1111 14.1797 14.6032 Q13.5469 14.0954 13.375 13.1111 ZM20.4062 11.8611 Q20.4062 10.1267 21.3594 9.2986 Q22.1562 8.6111 23.3125 8.6111 Q24.5938 8.6111 25.4141 9.447 Q26.2344 10.2829 26.2344 11.7673 Q26.2344 12.9704 25.875 13.6579 Q25.5156 14.3454 24.8203 14.7282 Q24.125 15.1111 23.3125 15.1111 Q22.0156 15.1111 21.2109 14.2751 Q20.4062 13.4392 20.4062 11.8611 ZM21.4844 11.8611 Q21.4844 13.0486 22.0078 13.6423 Q22.5312 14.2361 23.3125 14.2361 Q24.1094 14.2361 24.625 13.6423 Q25.1406 13.0486 25.1406 11.8298 Q25.1406 10.6736 24.6172 10.0798 Q24.0938 9.4861 23.3125 9.4861 Q22.5312 9.4861 22.0078 10.072 Q21.4844 10.6579 21.4844 11.8611 ZM31.875 14.9704 L31.875 14.0486 Q31.1406 15.1111 29.8906 15.1111 Q29.3438 15.1111 28.8672 14.9001 Q28.3906 14.6892 28.1562 14.3689 Q27.9219 14.0486 27.8281 13.5798 Q27.7656 13.2829 27.7656 12.5954 L27.7656 8.7517 L28.8281 8.7517 L28.8281 12.2048 Q28.8281 13.0173 28.8906 13.3142 Q28.9844 13.7204 29.3047 13.9626 Q29.625 14.2048 30.1094 14.2048 Q30.5781 14.2048 30.9922 13.9626 Q31.4062 13.7204 31.5859 13.2986 Q31.7656 12.8767 31.7656 12.0798 L31.7656 8.7517 L32.8125 8.7517 L32.8125 14.9704 L31.875 14.9704 ZM34.7812 14.9704 L34.7812 8.7517 L35.7344 8.7517 L35.7344 9.6892 Q36.0938 9.0329 36.3984 8.822 Q36.7031 8.6111 37.0781 8.6111 Q37.6094 8.6111 38.1562 8.9392 L37.7969 9.9236 Q37.4062 9.6892 37.0312 9.6892 Q36.6719 9.6892 36.3984 9.9001 Q36.125 10.1111 36.0156 10.4861 Q35.8281 11.0486 35.8281 11.7048 L35.8281 14.9704 L34.7812 14.9704 ZM42.8594 12.6892 L43.8906 12.8298 Q43.7188 13.8923 43.0156 14.5017 Q42.3125 15.1111 41.2969 15.1111 Q40.0156 15.1111 39.2422 14.2751 Q38.4688 13.4392 38.4688 11.8767 Q38.4688 10.8767 38.8047 10.1189 Q39.1406 9.3611 39.8203 8.9861 Q40.5 8.6111 41.3125 8.6111 Q42.3125 8.6111 42.9609 9.1189 Q43.6094 9.6267 43.7969 10.5798 L42.7656 10.7361 Q42.625 10.1111 42.25 9.7907 Q41.875 9.4704 41.3438 9.4704 Q40.5469 9.4704 40.0469 10.0407 Q39.5469 10.6111 39.5469 11.8454 Q39.5469 13.1111 40.0312 13.6736 Q40.5156 14.2361 41.2812 14.2361 Q41.9062 14.2361 42.3203 13.8611 Q42.7344 13.4861 42.8594 12.6892 ZM49.0469 12.9704 L50.1406 13.0954 Q49.8906 14.0486 49.1875 14.5798 Q48.4844 15.1111 47.4062 15.1111 Q46.0469 15.1111 45.2422 14.2673 Q44.4375 13.4236 44.4375 11.9079 Q44.4375 10.3454 45.25 9.4782 Q46.0625 8.6111 47.3438 8.6111 Q48.5938 8.6111 49.3828 9.4548 Q50.1719 10.2986 50.1719 11.8454 Q50.1719 11.9392 50.1719 12.1267 L45.5312 12.1267 Q45.5938 13.1579 46.1094 13.697 Q46.625 14.2361 47.4062 14.2361 Q47.9844 14.2361 48.3984 13.9314 Q48.8125 13.6267 49.0469 12.9704 ZM45.5938 11.2673 L49.0625 11.2673 Q49 10.4704 48.6719 10.0798 Q48.1562 9.4704 47.3594 9.4704 Q46.625 9.4704 46.1328 9.9548 Q45.6406 10.4392 45.5938 11.2673 ZM51.375 13.1111 L52.4062 12.9548 Q52.5 13.5798 52.8984 13.9079 Q53.2969 14.2361 54.0312 14.2361 Q54.75 14.2361 55.1016 13.947 Q55.4531 13.6579 55.4531 13.2517 Q55.4531 12.8923 55.1406 12.6892 Q54.9219 12.5486 54.0625 12.3298 Q52.9062 12.0329 52.4609 11.822 Q52.0156 11.6111 51.7812 11.2361 Q51.5469 10.8611 51.5469 10.3923 Q51.5469 9.9861 51.7344 9.6267 Q51.9219 9.2673 52.25 9.0329 Q52.5 8.8611 52.9219 8.7361 Q53.3438 8.6111 53.8438 8.6111 Q54.5625 8.6111 55.1172 8.822 Q55.6719 9.0329 55.9375 9.3923 Q56.2031 9.7517 56.2969 10.3454 L55.2656 10.4861 Q55.2031 10.0173 54.8672 9.7439 Q54.5312 9.4704 53.9062 9.4704 Q53.1875 9.4704 52.875 9.7126 Q52.5625 9.9548 52.5625 10.2829 Q52.5625 10.4861 52.6875 10.6423 Q52.8281 10.8142 53.0938 10.9236 Q53.25 10.9861 54.0312 11.1892 Q55.1562 11.5017 55.5938 11.6892 Q56.0312 11.8767 56.2812 12.2361 Q56.5312 12.5954 56.5312 13.1423 Q56.5312 13.6736 56.2266 14.1345 Q55.9219 14.5954 55.3438 14.8532 Q54.7656 15.1111 54.0312 15.1111 Q52.8125 15.1111 52.1797 14.6032 Q51.5469 14.0954 51.375 13.1111 ZM61.7969 14.9704 L61.7969 8.7517 L62.7344 8.7517 L62.7344 9.6267 Q63.0312 9.1579 63.5156 8.8845 Q64 8.6111 64.625 8.6111 Q65.3125 8.6111 65.7578 8.8923 Q66.2031 9.1736 66.375 9.6892 Q67.125 8.6111 68.2969 8.6111 Q69.2344 8.6111 69.7266 9.1189 Q70.2188 9.6267 70.2188 10.7048 L70.2188 14.9704 L69.1719 14.9704 L69.1719 11.0486 Q69.1719 10.4236 69.0703 10.1423 Q68.9688 9.8611 68.7031 9.6892 Q68.4375 9.5173 68.0625 9.5173 Q67.4062 9.5173 66.9766 9.9548 Q66.5469 10.3923 66.5469 11.3611 L66.5469 14.9704 L65.4844 14.9704 L65.4844 10.9236 Q65.4844 10.2204 65.2266 9.8689 Q64.9688 9.5173 64.3906 9.5173 Q63.9375 9.5173 63.5625 9.7517 Q63.1875 9.9861 63.0156 10.4392 Q62.8438 10.8923 62.8438 11.7361 L62.8438 14.9704 L61.7969 14.9704 ZM72.7969 7.5954 L72.7969 6.3767 L73.8594 6.3767 L73.8594 7.5954 L72.7969 7.5954 ZM72.7969 14.9704 L72.7969 8.7517 L73.8594 8.7517 L73.8594 14.9704 L72.7969 14.9704 ZM75.7969 14.9704 L75.7969 8.7517 L76.7344 8.7517 L76.7344 9.6267 Q77.4219 8.6111 78.7188 8.6111 Q79.2812 8.6111 79.7578 8.8142 Q80.2344 9.0173 80.4688 9.3454 Q80.7031 9.6736 80.7969 10.1111 Q80.8438 10.4079 80.8438 11.1423 L80.8438 14.9704 L79.7969 14.9704 L79.7969 11.1892 Q79.7969 10.5329 79.6719 10.2204 Q79.5469 9.9079 79.2344 9.7126 Q78.9219 9.5173 78.5 9.5173 Q77.8281 9.5173 77.3359 9.947 Q76.8438 10.3767 76.8438 11.5642 L76.8438 14.9704 L75.7969 14.9704 ZM86.8281 14.9704 L86.8281 14.1892 Q86.2344 15.1111 85.0938 15.1111 Q84.3438 15.1111 83.7188 14.697 Q83.0938 14.2829 82.75 13.5486 Q82.4062 12.8142 82.4062 11.8611 Q82.4062 10.9392 82.7188 10.1736 Q83.0312 9.4079 83.6562 9.0095 Q84.2812 8.6111 85.0469 8.6111 Q85.6094 8.6111 86.0469 8.8454 Q86.4844 9.0798 86.7656 9.4548 L86.7656 6.3767 L87.8125 6.3767 L87.8125 14.9704 L86.8281 14.9704 ZM83.5 11.8611 Q83.5 13.0642 84 13.6501 Q84.5 14.2361 85.1875 14.2361 Q85.875 14.2361 86.3594 13.6736 Q86.8438 13.1111 86.8438 11.9548 Q86.8438 10.6736 86.3516 10.0798 Q85.8594 9.4861 85.1406 9.4861 Q84.4375 9.4861 83.9688 10.0564 Q83.5 10.6267 83.5 11.8611 ZM94.0469 12.9704 L95.1406 13.0954 Q94.8906 14.0486 94.1875 14.5798 Q93.4844 15.1111 92.4062 15.1111 Q91.0469 15.1111 90.2422 14.2673 Q89.4375 13.4236 89.4375 11.9079 Q89.4375 10.3454 90.25 9.4782 Q91.0625 8.6111 92.3438 8.6111 Q93.5938 8.6111 94.3828 9.4548 Q95.1719 10.2986 95.1719 11.8454 Q95.1719 11.9392 95.1719 12.1267 L90.5312 12.1267 Q90.5938 13.1579 91.1094 13.697 Q91.625 14.2361 92.4062 14.2361 Q92.9844 14.2361 93.3984 13.9314 Q93.8125 13.6267 94.0469 12.9704 ZM90.5938 11.2673 L94.0625 11.2673 Q94 10.4704 93.6719 10.0798 Q93.1562 9.4704 92.3594 9.4704 Q91.625 9.4704 91.1328 9.9548 Q90.6406 10.4392 90.5938 11.2673 ZM96.7969 14.9704 L96.7969 8.7517 L97.7344 8.7517 L97.7344 9.6267 Q98.4219 8.6111 99.7188 8.6111 Q100.2812 8.6111 100.7578 8.8142 Q101.2344 9.0173 101.4688 9.3454 Q101.7031 9.6736 101.7969 10.1111 Q101.8438 10.4079 101.8438 11.1423 L101.8438 14.9704 L100.7969 14.9704 L100.7969 11.1892 Q100.7969 10.5329 100.6719 10.2204 Q100.5469 9.9079 100.2344 9.7126 Q99.9219 9.5173 99.5 9.5173 Q98.8281 9.5173 98.3359 9.947 Q97.8438 10.3767 97.8438 11.5642 L97.8438 14.9704 L96.7969 14.9704 ZM111.0469 12.9704 L112.1406 13.0954 Q111.8906 14.0486 111.1875 14.5798 Q110.4844 15.1111 109.4062 15.1111 Q108.0469 15.1111 107.2422 14.2673 Q106.4375 13.4236 106.4375 11.9079 Q106.4375 10.3454 107.25 9.4782 Q108.0625 8.6111 109.3438 8.6111 Q110.5938 8.6111 111.3828 9.4548 Q112.1719 10.2986 112.1719 11.8454 Q112.1719 11.9392 112.1719 12.1267 L107.5312 12.1267 Q107.5938 13.1579 108.1094 13.697 Q108.625 14.2361 109.4062 14.2361 Q109.9844 14.2361 110.3984 13.9314 Q110.8125 13.6267 111.0469 12.9704 ZM107.5938 11.2673 L111.0625 11.2673 Q111 10.4704 110.6719 10.0798 Q110.1562 9.4704 109.3594 9.4704 Q108.625 9.4704 108.1328 9.9548 Q107.6406 10.4392 107.5938 11.2673 ZM113.7656 14.9704 L113.7656 6.3767 L114.8281 6.3767 L114.8281 14.9704 L113.7656 14.9704 ZM121.0469 12.9704 L122.1406 13.0954 Q121.8906 14.0486 121.1875 14.5798 Q120.4844 15.1111 119.4062 15.1111 Q118.0469 15.1111 117.2422 14.2673 Q116.4375 13.4236 116.4375 11.9079 Q116.4375 10.3454 117.25 9.4782 Q118.0625 8.6111 119.3438 8.6111 Q120.5938 8.6111 121.3828 9.4548 Q122.1719 10.2986 122.1719 11.8454 Q122.1719 11.9392 122.1719 12.1267 L117.5312 12.1267 Q117.5938 13.1579 118.1094 13.697 Q118.625 14.2361 119.4062 14.2361 Q119.9844 14.2361 120.3984 13.9314 Q120.8125 13.6267 121.0469 12.9704 ZM117.5938 11.2673 L121.0625 11.2673 Q121 10.4704 120.6719 10.0798 Q120.1562 9.4704 119.3594 9.4704 Q118.625 9.4704 118.1328 9.9548 Q117.6406 10.4392 117.5938 11.2673 ZM123.7969 14.9704 L123.7969 8.7517 L124.7344 8.7517 L124.7344 9.6267 Q125.0312 9.1579 125.5156 8.8845 Q126 8.6111 126.625 8.6111 Q127.3125 8.6111 127.7578 8.8923 Q128.2031 9.1736 128.375 9.6892 Q129.125 8.6111 130.2969 8.6111 Q131.2344 8.6111 131.7266 9.1189 Q132.2188 9.6267 132.2188 10.7048 L132.2188 14.9704 L131.1719 14.9704 L131.1719 11.0486 Q131.1719 10.4236 131.0703 10.1423 Q130.9688 9.8611 130.7031 9.6892 Q130.4375 9.5173 130.0625 9.5173 Q129.4062 9.5173 128.9766 9.9548 Q128.5469 10.3923 128.5469 11.3611 L128.5469 14.9704 L127.4844 14.9704 L127.4844 10.9236 Q127.4844 10.2204 127.2266 9.8689 Q126.9688 9.5173 126.3906 9.5173 Q125.9375 9.5173 125.5625 9.7517 Q125.1875 9.9861 125.0156 10.4392 Q124.8438 10.8923 124.8438 11.7361 L124.8438 14.9704 L123.7969 14.9704 ZM139.0469 12.9704 L140.1406 13.0954 Q139.8906 14.0486 139.1875 14.5798 Q138.4844 15.1111 137.4062 15.1111 Q136.0469 15.1111 135.2422 14.2673 Q134.4375 13.4236 134.4375 11.9079 Q134.4375 10.3454 135.25 9.4782 Q136.0625 8.6111 137.3438 8.6111 Q138.5938 8.6111 139.3828 9.4548 Q140.1719 10.2986 140.1719 11.8454 Q140.1719 11.9392 140.1719 12.1267 L135.5312 12.1267 Q135.5938 13.1579 136.1094 13.697 Q136.625 14.2361 137.4062 14.2361 Q137.9844 14.2361 138.3984 13.9314 Q138.8125 13.6267 139.0469 12.9704 ZM135.5938 11.2673 L139.0625 11.2673 Q139 10.4704 138.6719 10.0798 Q138.1562 9.4704 137.3594 9.4704 Q136.625 9.4704 136.1328 9.9548 Q135.6406 10.4392 135.5938 11.2673 ZM136.125 6.9704 L136.9062 5.3298 L138.2969 5.3298 L137 6.9704 L136.125 6.9704 ZM141.7812 14.9704 L141.7812 8.7517 L142.7344 8.7517 L142.7344 9.6892 Q143.0938 9.0329 143.3984 8.822 Q143.7031 8.6111 144.0781 8.6111 Q144.6094 8.6111 145.1562 8.9392 L144.7969 9.9236 Q144.4062 9.6892 144.0312 9.6892 Q143.6719 9.6892 143.3984 9.9001 Q143.125 10.1111 143.0156 10.4861 Q142.8281 11.0486 142.8281 11.7048 L142.8281 14.9704 L141.7812 14.9704 ZM150.0469 12.9704 L151.1406 13.0954 Q150.8906 14.0486 150.1875 14.5798 Q149.4844 15.1111 148.4062 15.1111 Q147.0469 15.1111 146.2422 14.2673 Q145.4375 13.4236 145.4375 11.9079 Q145.4375 10.3454 146.25 9.4782 Q147.0625 8.6111 148.3438 8.6111 Q149.5938 8.6111 150.3828 9.4548 Q151.1719 10.2986 151.1719 11.8454 Q151.1719 11.9392 151.1719 12.1267 L146.5312 12.1267 Q146.5938 13.1579 147.1094 13.697 Q147.625 14.2361 148.4062 14.2361 Q148.9844 14.2361 149.3984 13.9314 Q149.8125 13.6267 150.0469 12.9704 ZM146.5938 11.2673 L150.0625 11.2673 Q150 10.4704 149.6719 10.0798 Q149.1562 9.4704 148.3594 9.4704 Q147.625 9.4704 147.1328 9.9548 Q146.6406 10.4392 146.5938 11.2673 ZM155.7969 14.9704 L155.7969 8.7517 L156.7344 8.7517 L156.7344 9.6267 Q157.0312 9.1579 157.5156 8.8845 Q158 8.6111 158.625 8.6111 Q159.3125 8.6111 159.7578 8.8923 Q160.2031 9.1736 160.375 9.6892 Q161.125 8.6111 162.2969 8.6111 Q163.2344 8.6111 163.7266 9.1189 Q164.2188 9.6267 164.2188 10.7048 L164.2188 14.9704 L163.1719 14.9704 L163.1719 11.0486 Q163.1719 10.4236 163.0703 10.1423 Q162.9688 9.8611 162.7031 9.6892 Q162.4375 9.5173 162.0625 9.5173 Q161.4062 9.5173 160.9766 9.9548 Q160.5469 10.3923 160.5469 11.3611 L160.5469 14.9704 L159.4844 14.9704 L159.4844 10.9236 Q159.4844 10.2204 159.2266 9.8689 Q158.9688 9.5173 158.3906 9.5173 Q157.9375 9.5173 157.5625 9.7517 Q157.1875 9.9861 157.0156 10.4392 Q156.8438 10.8923 156.8438 11.7361 L156.8438 14.9704 L155.7969 14.9704 ZM171.0469 12.9704 L172.1406 13.0954 Q171.8906 14.0486 171.1875 14.5798 Q170.4844 15.1111 169.4062 15.1111 Q168.0469 15.1111 167.2422 14.2673 Q166.4375 13.4236 166.4375 11.9079 Q166.4375 10.3454 167.25 9.4782 Q168.0625 8.6111 169.3438 8.6111 Q170.5938 8.6111 171.3828 9.4548 Q172.1719 10.2986 172.1719 11.8454 Q172.1719 11.9392 172.1719 12.1267 L167.5312 12.1267 Q167.5938 13.1579 168.1094 13.697 Q168.625 14.2361 169.4062 14.2361 Q169.9844 14.2361 170.3984 13.9314 Q170.8125 13.6267 171.0469 12.9704 ZM167.5938 11.2673 L171.0625 11.2673 Q171 10.4704 170.6719 10.0798 Q170.1562 9.4704 169.3594 9.4704 Q168.625 9.4704 168.1328 9.9548 Q167.6406 10.4392 167.5938 11.2673 ZM173.5938 15.4861 L174.625 15.6423 Q174.6875 16.1111 174.9844 16.3298 Q175.375 16.6267 176.0469 16.6267 Q176.7812 16.6267 177.1797 16.3298 Q177.5781 16.0329 177.7188 15.5173 Q177.8125 15.1892 177.7969 14.1579 Q177.1094 14.9704 176.0781 14.9704 Q174.7969 14.9704 174.0938 14.0407 Q173.3906 13.1111 173.3906 11.8298 Q173.3906 10.9392 173.7109 10.1814 Q174.0312 9.4236 174.6406 9.0173 Q175.25 8.6111 176.0781 8.6111 Q177.1875 8.6111 177.9062 9.5017 L177.9062 8.7517 L178.875 8.7517 L178.875 14.1267 Q178.875 15.5798 178.5781 16.1892 Q178.2812 16.7986 177.6406 17.1501 Q177 17.5017 176.0625 17.5017 Q174.9531 17.5017 174.2656 17.0017 Q173.5781 16.5017 173.5938 15.4861 ZM174.4688 11.7517 Q174.4688 12.9704 174.9531 13.5329 Q175.4375 14.0954 176.1719 14.0954 Q176.9062 14.0954 177.3984 13.5329 Q177.8906 12.9704 177.8906 11.7829 Q177.8906 10.6423 177.3828 10.0642 Q176.875 9.4861 176.1562 9.4861 Q175.4531 9.4861 174.9609 10.0564 Q174.4688 10.6267 174.4688 11.7517 ZM180.7969 14.9704 L180.7969 6.3767 L181.8438 6.3767 L181.8438 9.4548 Q182.5781 8.6111 183.7031 8.6111 Q184.4062 8.6111 184.9141 8.8845 Q185.4219 9.1579 185.6406 9.6345 Q185.8594 10.1111 185.8594 11.0329 L185.8594 14.9704 L184.8125 14.9704 L184.8125 11.0329 Q184.8125 10.2361 184.4688 9.8767 Q184.125 9.5173 183.5 9.5173 Q183.0312 9.5173 182.6172 9.7595 Q182.2031 10.0017 182.0234 10.4157 Q181.8438 10.8298 181.8438 11.5642 L181.8438 14.9704 L180.7969 14.9704 ZM188.1562 14.9704 L188.1562 8.7517 L189.2188 8.7517 L189.2188 14.9704 L188.1562 14.9704 ZM188.125 6.9704 L188.9062 5.3298 L190.2969 5.3298 L189 6.9704 L188.125 6.9704 ZM192.5156 14.9704 L190.1562 8.7517 L191.2656 8.7517 L192.6094 12.4704 Q192.8125 13.0798 193 13.7204 Q193.1406 13.2361 193.3906 12.5486 L194.7812 8.7517 L195.8594 8.7517 L193.5 14.9704 L192.5156 14.9704 ZM195.7812 7.6111 L195.7812 6.3767 L196.8438 6.3767 L196.8438 7.6111 L195.7812 7.6111 ZM194.4531 17.3923 L194.6406 16.4861 Q194.9688 16.5642 195.1406 16.5642 Q195.4688 16.5642 195.625 16.3532 Q195.7812 16.1423 195.7812 15.2829 L195.7812 8.7517 L196.8438 8.7517 L196.8438 15.3142 Q196.8438 16.4548 196.5469 16.9079 Q196.1562 17.5017 195.2812 17.5017 Q194.8438 17.5017 194.4531 17.3923 ZM202.875 14.9704 L202.875 14.0486 Q202.1406 15.1111 200.8906 15.1111 Q200.3438 15.1111 199.8672 14.9001 Q199.3906 14.6892 199.1562 14.3689 Q198.9219 14.0486 198.8281 13.5798 Q198.7656 13.2829 198.7656 12.5954 L198.7656 8.7517 L199.8281 8.7517 L199.8281 12.2048 Q199.8281 13.0173 199.8906 13.3142 Q199.9844 13.7204 200.3047 13.9626 Q200.625 14.2048 201.1094 14.2048 Q201.5781 14.2048 201.9922 13.9626 Q202.4062 13.7204 202.5859 13.2986 Q202.7656 12.8767 202.7656 12.0798 L202.7656 8.7517 L203.8125 8.7517 L203.8125 14.9704 L202.875 14.9704 ZM205.7969 14.9704 L205.7969 6.3767 L206.8594 6.3767 L206.8594 11.2829 L209.3438 8.7517 L210.7188 8.7517 L208.3281 11.0486 L210.9531 14.9704 L209.6562 14.9704 L207.5938 11.7829 L206.8594 12.5017 L206.8594 14.9704 L205.7969 14.9704 ZM218.8594 14.2048 Q218.2656 14.7048 217.7266 14.9079 Q217.1875 15.1111 216.5625 15.1111 Q215.5312 15.1111 214.9844 14.6111 Q214.4375 14.1111 214.4375 13.3298 Q214.4375 12.8767 214.6406 12.4939 Q214.8438 12.1111 215.1875 11.8845 Q215.5312 11.6579 215.9531 11.5486 Q216.25 11.4548 216.8906 11.3767 Q218.1562 11.2361 218.7656 11.0173 Q218.7656 10.7986 218.7656 10.7517 Q218.7656 10.0954 218.4688 9.8298 Q218.0625 9.4861 217.2656 9.4861 Q216.5312 9.4861 216.1719 9.7439 Q215.8125 10.0017 215.6406 10.6579 L214.6094 10.5173 Q214.75 9.8611 215.0781 9.4548 Q215.4062 9.0486 216.0156 8.8298 Q216.625 8.6111 217.4219 8.6111 Q218.2188 8.6111 218.7188 8.7986 Q219.2188 8.9861 219.4531 9.2673 Q219.6875 9.5486 219.7812 9.9861 Q219.8281 10.2517 219.8281 10.9548 L219.8281 12.3611 Q219.8281 13.8298 219.8984 14.2204 Q219.9688 14.6111 220.1719 14.9704 L219.0625 14.9704 Q218.9062 14.6423 218.8594 14.2048 ZM218.7656 11.8454 Q218.1875 12.0798 217.0469 12.2517 Q216.3906 12.3454 216.125 12.4626 Q215.8594 12.5798 215.7109 12.7986 Q215.5625 13.0173 215.5625 13.2986 Q215.5625 13.7204 215.8828 14.0017 Q216.2031 14.2829 216.8125 14.2829 Q217.4219 14.2829 217.8984 14.0173 Q218.375 13.7517 218.5938 13.2829 Q218.7656 12.9236 218.7656 12.2361 L218.7656 11.8454 Z" style="clip-path:url(#clipPath17); stroke:none;" />
      <path d="M3.375 27.1111 L4.4062 26.9548 Q4.5 27.5798 4.8984 27.9079 Q5.2969 28.2361 6.0312 28.2361 Q6.75 28.2361 7.1016 27.947 Q7.4531 27.6579 7.4531 27.2517 Q7.4531 26.8923 7.1406 26.6892 Q6.9219 26.5486 6.0625 26.3298 Q4.9062 26.0329 4.4609 25.822 Q4.0156 25.6111 3.7812 25.2361 Q3.5469 24.8611 3.5469 24.3923 Q3.5469 23.9861 3.7344 23.6267 Q3.9219 23.2673 4.25 23.0329 Q4.5 22.8611 4.9219 22.7361 Q5.3438 22.6111 5.8438 22.6111 Q6.5625 22.6111 7.1172 22.822 Q7.6719 23.0329 7.9375 23.3923 Q8.2031 23.7517 8.2969 24.3454 L7.2656 24.4861 Q7.2031 24.0173 6.8672 23.7439 Q6.5312 23.4704 5.9062 23.4704 Q5.1875 23.4704 4.875 23.7126 Q4.5625 23.9548 4.5625 24.2829 Q4.5625 24.4861 4.6875 24.6423 Q4.8281 24.8142 5.0938 24.9236 Q5.25 24.9861 6.0312 25.1892 Q7.1562 25.5017 7.5938 25.6892 Q8.0312 25.8767 8.2812 26.2361 Q8.5312 26.5954 8.5312 27.1423 Q8.5312 27.6736 8.2266 28.1345 Q7.9219 28.5954 7.3438 28.8532 Q6.7656 29.1111 6.0312 29.1111 Q4.8125 29.1111 4.1797 28.6032 Q3.5469 28.0954 3.375 27.1111 ZM10.4062 25.8611 Q10.4062 24.1267 11.3594 23.2986 Q12.1562 22.6111 13.3125 22.6111 Q14.5938 22.6111 15.4141 23.447 Q16.2344 24.2829 16.2344 25.7673 Q16.2344 26.9704 15.875 27.6579 Q15.5156 28.3454 14.8203 28.7282 Q14.125 29.1111 13.3125 29.1111 Q12.0156 29.1111 11.2109 28.2751 Q10.4062 27.4392 10.4062 25.8611 ZM11.4844 25.8611 Q11.4844 27.0486 12.0078 27.6423 Q12.5312 28.2361 13.3125 28.2361 Q14.1094 28.2361 14.625 27.6423 Q15.1406 27.0486 15.1406 25.8298 Q15.1406 24.6736 14.6172 24.0798 Q14.0938 23.4861 13.3125 23.4861 Q12.5312 23.4861 12.0078 24.072 Q11.4844 24.6579 11.4844 25.8611 ZM21.875 28.9704 L21.875 28.0486 Q21.1406 29.1111 19.8906 29.1111 Q19.3438 29.1111 18.8672 28.9001 Q18.3906 28.6892 18.1562 28.3689 Q17.9219 28.0486 17.8281 27.5798 Q17.7656 27.2829 17.7656 26.5954 L17.7656 22.7517 L18.8281 22.7517 L18.8281 26.2048 Q18.8281 27.0173 18.8906 27.3142 Q18.9844 27.7204 19.3047 27.9626 Q19.625 28.2048 20.1094 28.2048 Q20.5781 28.2048 20.9922 27.9626 Q21.4062 27.7204 21.5859 27.2986 Q21.7656 26.8767 21.7656 26.0798 L21.7656 22.7517 L22.8125 22.7517 L22.8125 28.9704 L21.875 28.9704 ZM24.7812 28.9704 L24.7812 22.7517 L25.7344 22.7517 L25.7344 23.6892 Q26.0938 23.0329 26.3984 22.822 Q26.7031 22.6111 27.0781 22.6111 Q27.6094 22.6111 28.1562 22.9392 L27.7969 23.9236 Q27.4062 23.6892 27.0312 23.6892 Q26.6719 23.6892 26.3984 23.9001 Q26.125 24.1111 26.0156 24.4861 Q25.8281 25.0486 25.8281 25.7048 L25.8281 28.9704 L24.7812 28.9704 ZM32.8594 26.6892 L33.8906 26.8298 Q33.7188 27.8923 33.0156 28.5017 Q32.3125 29.1111 31.2969 29.1111 Q30.0156 29.1111 29.2422 28.2751 Q28.4688 27.4392 28.4688 25.8767 Q28.4688 24.8767 28.8047 24.1189 Q29.1406 23.3611 29.8203 22.9861 Q30.5 22.6111 31.3125 22.6111 Q32.3125 22.6111 32.9609 23.1189 Q33.6094 23.6267 33.7969 24.5798 L32.7656 24.7361 Q32.625 24.1111 32.25 23.7907 Q31.875 23.4704 31.3438 23.4704 Q30.5469 23.4704 30.0469 24.0407 Q29.5469 24.6111 29.5469 25.8454 Q29.5469 27.1111 30.0312 27.6736 Q30.5156 28.2361 31.2812 28.2361 Q31.9062 28.2361 32.3203 27.8611 Q32.7344 27.4861 32.8594 26.6892 ZM39.0469 26.9704 L40.1406 27.0954 Q39.8906 28.0486 39.1875 28.5798 Q38.4844 29.1111 37.4062 29.1111 Q36.0469 29.1111 35.2422 28.2673 Q34.4375 27.4236 34.4375 25.9079 Q34.4375 24.3454 35.25 23.4782 Q36.0625 22.6111 37.3438 22.6111 Q38.5938 22.6111 39.3828 23.4548 Q40.1719 24.2986 40.1719 25.8454 Q40.1719 25.9392 40.1719 26.1267 L35.5312 26.1267 Q35.5938 27.1579 36.1094 27.697 Q36.625 28.2361 37.4062 28.2361 Q37.9844 28.2361 38.3984 27.9314 Q38.8125 27.6267 39.0469 26.9704 ZM35.5938 25.2673 L39.0625 25.2673 Q39 24.4704 38.6719 24.0798 Q38.1562 23.4704 37.3594 23.4704 Q36.625 23.4704 36.1328 23.9548 Q35.6406 24.4392 35.5938 25.2673 ZM43.4219 28.9704 L41.1406 20.3767 L42.3125 20.3767 L43.625 26.0173 Q43.8281 26.8923 43.9844 27.7673 Q44.3125 26.3923 44.375 26.1736 L46 20.3767 L47.375 20.3767 L48.6094 24.7204 Q49.0625 26.3454 49.2812 27.7673 Q49.4375 26.9548 49.7031 25.8923 L51.0469 20.3767 L52.1875 20.3767 L49.8438 28.9704 L48.7344 28.9704 L46.9375 22.4236 Q46.7031 21.6111 46.6562 21.4236 Q46.5312 22.0017 46.4062 22.4236 L44.5938 28.9704 L43.4219 28.9704 ZM52.7812 28.9704 L52.7812 22.7517 L53.7344 22.7517 L53.7344 23.6892 Q54.0938 23.0329 54.3984 22.822 Q54.7031 22.6111 55.0781 22.6111 Q55.6094 22.6111 56.1562 22.9392 L55.7969 23.9236 Q55.4062 23.6892 55.0312 23.6892 Q54.6719 23.6892 54.3984 23.9001 Q54.125 24.1111 54.0156 24.4861 Q53.8281 25.0486 53.8281 25.7048 L53.8281 28.9704 L52.7812 28.9704 ZM56.7969 21.5954 L56.7969 20.3767 L57.8594 20.3767 L57.8594 21.5954 L56.7969 21.5954 ZM56.7969 28.9704 L56.7969 22.7517 L57.8594 22.7517 L57.8594 28.9704 L56.7969 28.9704 ZM62.0938 28.0329 L62.25 28.9548 Q61.7969 29.0486 61.4531 29.0486 Q60.875 29.0486 60.5625 28.8689 Q60.25 28.6892 60.1172 28.3923 Q59.9844 28.0954 59.9844 27.1423 L59.9844 23.5642 L59.2188 23.5642 L59.2188 22.7517 L59.9844 22.7517 L59.9844 21.2048 L61.0312 20.5798 L61.0312 22.7517 L62.0938 22.7517 L62.0938 23.5642 L61.0312 23.5642 L61.0312 27.2048 Q61.0312 27.6579 61.0859 27.7829 Q61.1406 27.9079 61.2656 27.9861 Q61.3906 28.0642 61.625 28.0642 Q61.8125 28.0642 62.0938 28.0329 ZM67.0469 26.9704 L68.1406 27.0954 Q67.8906 28.0486 67.1875 28.5798 Q66.4844 29.1111 65.4062 29.1111 Q64.0469 29.1111 63.2422 28.2673 Q62.4375 27.4236 62.4375 25.9079 Q62.4375 24.3454 63.25 23.4782 Q64.0625 22.6111 65.3438 22.6111 Q66.5938 22.6111 67.3828 23.4548 Q68.1719 24.2986 68.1719 25.8454 Q68.1719 25.9392 68.1719 26.1267 L63.5312 26.1267 Q63.5938 27.1579 64.1094 27.697 Q64.625 28.2361 65.4062 28.2361 Q65.9844 28.2361 66.3984 27.9314 Q66.8125 27.6267 67.0469 26.9704 ZM63.5938 25.2673 L67.0625 25.2673 Q67 24.4704 66.6719 24.0798 Q66.1562 23.4704 65.3594 23.4704 Q64.625 23.4704 64.1328 23.9548 Q63.6406 24.4392 63.5938 25.2673 ZM69.7812 28.9704 L69.7812 22.7517 L70.7344 22.7517 L70.7344 23.6892 Q71.0938 23.0329 71.3984 22.822 Q71.7031 22.6111 72.0781 22.6111 Q72.6094 22.6111 73.1562 22.9392 L72.7969 23.9236 Q72.4062 23.6892 72.0312 23.6892 Q71.6719 23.6892 71.3984 23.9001 Q71.125 24.1111 71.0156 24.4861 Q70.8281 25.0486 70.8281 25.7048 L70.8281 28.9704 L69.7812 28.9704 ZM74.0938 28.9704 L74.0938 27.7673 L75.2969 27.7673 L75.2969 28.9704 L74.0938 28.9704 ZM80.8594 28.2048 Q80.2656 28.7048 79.7266 28.9079 Q79.1875 29.1111 78.5625 29.1111 Q77.5312 29.1111 76.9844 28.6111 Q76.4375 28.1111 76.4375 27.3298 Q76.4375 26.8767 76.6406 26.4939 Q76.8438 26.1111 77.1875 25.8845 Q77.5312 25.6579 77.9531 25.5486 Q78.25 25.4548 78.8906 25.3767 Q80.1562 25.2361 80.7656 25.0173 Q80.7656 24.7986 80.7656 24.7517 Q80.7656 24.0954 80.4688 23.8298 Q80.0625 23.4861 79.2656 23.4861 Q78.5312 23.4861 78.1719 23.7439 Q77.8125 24.0017 77.6406 24.6579 L76.6094 24.5173 Q76.75 23.8611 77.0781 23.4548 Q77.4062 23.0486 78.0156 22.8298 Q78.625 22.6111 79.4219 22.6111 Q80.2188 22.6111 80.7188 22.7986 Q81.2188 22.9861 81.4531 23.2673 Q81.6875 23.5486 81.7812 23.9861 Q81.8281 24.2517 81.8281 24.9548 L81.8281 26.3611 Q81.8281 27.8298 81.8984 28.2204 Q81.9688 28.6111 82.1719 28.9704 L81.0625 28.9704 Q80.9062 28.6423 80.8594 28.2048 ZM80.7656 25.8454 Q80.1875 26.0798 79.0469 26.2517 Q78.3906 26.3454 78.125 26.4626 Q77.8594 26.5798 77.7109 26.7986 Q77.5625 27.0173 77.5625 27.2986 Q77.5625 27.7204 77.8828 28.0017 Q78.2031 28.2829 78.8125 28.2829 Q79.4219 28.2829 79.8984 28.0173 Q80.375 27.7517 80.5938 27.2829 Q80.7656 26.9236 80.7656 26.2361 L80.7656 25.8454 ZM87.8281 28.9704 L87.8281 28.1892 Q87.2344 29.1111 86.0938 29.1111 Q85.3438 29.1111 84.7188 28.697 Q84.0938 28.2829 83.75 27.5486 Q83.4062 26.8142 83.4062 25.8611 Q83.4062 24.9392 83.7188 24.1736 Q84.0312 23.4079 84.6562 23.0095 Q85.2812 22.6111 86.0469 22.6111 Q86.6094 22.6111 87.0469 22.8454 Q87.4844 23.0798 87.7656 23.4548 L87.7656 20.3767 L88.8125 20.3767 L88.8125 28.9704 L87.8281 28.9704 ZM84.5 25.8611 Q84.5 27.0642 85 27.6501 Q85.5 28.2361 86.1875 28.2361 Q86.875 28.2361 87.3594 27.6736 Q87.8438 27.1111 87.8438 25.9548 Q87.8438 24.6736 87.3516 24.0798 Q86.8594 23.4861 86.1406 23.4861 Q85.4375 23.4861 84.9688 24.0564 Q84.5 24.6267 84.5 25.8611 ZM94.8281 28.9704 L94.8281 28.1892 Q94.2344 29.1111 93.0938 29.1111 Q92.3438 29.1111 91.7188 28.697 Q91.0938 28.2829 90.75 27.5486 Q90.4062 26.8142 90.4062 25.8611 Q90.4062 24.9392 90.7188 24.1736 Q91.0312 23.4079 91.6562 23.0095 Q92.2812 22.6111 93.0469 22.6111 Q93.6094 22.6111 94.0469 22.8454 Q94.4844 23.0798 94.7656 23.4548 L94.7656 20.3767 L95.8125 20.3767 L95.8125 28.9704 L94.8281 28.9704 ZM91.5 25.8611 Q91.5 27.0642 92 27.6501 Q92.5 28.2361 93.1875 28.2361 Q93.875 28.2361 94.3594 27.6736 Q94.8438 27.1111 94.8438 25.9548 Q94.8438 24.6736 94.3516 24.0798 Q93.8594 23.4861 93.1406 23.4861 Q92.4375 23.4861 91.9688 24.0564 Q91.5 24.6267 91.5 25.8611 ZM99.8125 31.5017 Q98.9375 30.3923 98.3359 28.9157 Q97.7344 27.4392 97.7344 25.8611 Q97.7344 24.4704 98.1719 23.1892 Q98.7031 21.7048 99.8125 20.2361 L100.5625 20.2361 Q99.8594 21.4548 99.625 21.9704 Q99.2656 22.7829 99.0625 23.6579 Q98.8125 24.7517 98.8125 25.8611 Q98.8125 28.6892 100.5625 31.5017 L99.8125 31.5017 ZM101.375 27.1111 L102.4062 26.9548 Q102.5 27.5798 102.8984 27.9079 Q103.2969 28.2361 104.0312 28.2361 Q104.75 28.2361 105.1016 27.947 Q105.4531 27.6579 105.4531 27.2517 Q105.4531 26.8923 105.1406 26.6892 Q104.9219 26.5486 104.0625 26.3298 Q102.9062 26.0329 102.4609 25.822 Q102.0156 25.6111 101.7812 25.2361 Q101.5469 24.8611 101.5469 24.3923 Q101.5469 23.9861 101.7344 23.6267 Q101.9219 23.2673 102.25 23.0329 Q102.5 22.8611 102.9219 22.7361 Q103.3438 22.6111 103.8438 22.6111 Q104.5625 22.6111 105.1172 22.822 Q105.6719 23.0329 105.9375 23.3923 Q106.2031 23.7517 106.2969 24.3454 L105.2656 24.4861 Q105.2031 24.0173 104.8672 23.7439 Q104.5312 23.4704 103.9062 23.4704 Q103.1875 23.4704 102.875 23.7126 Q102.5625 23.9548 102.5625 24.2829 Q102.5625 24.4861 102.6875 24.6423 Q102.8281 24.8142 103.0938 24.9236 Q103.25 24.9861 104.0312 25.1892 Q105.1562 25.5017 105.5938 25.6892 Q106.0312 25.8767 106.2812 26.2361 Q106.5312 26.5954 106.5312 27.1423 Q106.5312 27.6736 106.2266 28.1345 Q105.9219 28.5954 105.3438 28.8532 Q104.7656 29.1111 104.0312 29.1111 Q102.8125 29.1111 102.1797 28.6032 Q101.5469 28.0954 101.375 27.1111 ZM108.4062 25.8611 Q108.4062 24.1267 109.3594 23.2986 Q110.1562 22.6111 111.3125 22.6111 Q112.5938 22.6111 113.4141 23.447 Q114.2344 24.2829 114.2344 25.7673 Q114.2344 26.9704 113.875 27.6579 Q113.5156 28.3454 112.8203 28.7282 Q112.125 29.1111 111.3125 29.1111 Q110.0156 29.1111 109.2109 28.2751 Q108.4062 27.4392 108.4062 25.8611 ZM109.4844 25.8611 Q109.4844 27.0486 110.0078 27.6423 Q110.5312 28.2361 111.3125 28.2361 Q112.1094 28.2361 112.625 27.6423 Q113.1406 27.0486 113.1406 25.8298 Q113.1406 24.6736 112.6172 24.0798 Q112.0938 23.4861 111.3125 23.4861 Q110.5312 23.4861 110.0078 24.072 Q109.4844 24.6579 109.4844 25.8611 ZM119.875 28.9704 L119.875 28.0486 Q119.1406 29.1111 117.8906 29.1111 Q117.3438 29.1111 116.8672 28.9001 Q116.3906 28.6892 116.1562 28.3689 Q115.9219 28.0486 115.8281 27.5798 Q115.7656 27.2829 115.7656 26.5954 L115.7656 22.7517 L116.8281 22.7517 L116.8281 26.2048 Q116.8281 27.0173 116.8906 27.3142 Q116.9844 27.7204 117.3047 27.9626 Q117.625 28.2048 118.1094 28.2048 Q118.5781 28.2048 118.9922 27.9626 Q119.4062 27.7204 119.5859 27.2986 Q119.7656 26.8767 119.7656 26.0798 L119.7656 22.7517 L120.8125 22.7517 L120.8125 28.9704 L119.875 28.9704 ZM122.7812 28.9704 L122.7812 22.7517 L123.7344 22.7517 L123.7344 23.6892 Q124.0938 23.0329 124.3984 22.822 Q124.7031 22.6111 125.0781 22.6111 Q125.6094 22.6111 126.1562 22.9392 L125.7969 23.9236 Q125.4062 23.6892 125.0312 23.6892 Q124.6719 23.6892 124.3984 23.9001 Q124.125 24.1111 124.0156 24.4861 Q123.8281 25.0486 123.8281 25.7048 L123.8281 28.9704 L122.7812 28.9704 ZM130.8594 26.6892 L131.8906 26.8298 Q131.7188 27.8923 131.0156 28.5017 Q130.3125 29.1111 129.2969 29.1111 Q128.0156 29.1111 127.2422 28.2751 Q126.4688 27.4392 126.4688 25.8767 Q126.4688 24.8767 126.8047 24.1189 Q127.1406 23.3611 127.8203 22.9861 Q128.5 22.6111 129.3125 22.6111 Q130.3125 22.6111 130.9609 23.1189 Q131.6094 23.6267 131.7969 24.5798 L130.7656 24.7361 Q130.625 24.1111 130.25 23.7907 Q129.875 23.4704 129.3438 23.4704 Q128.5469 23.4704 128.0469 24.0407 Q127.5469 24.6111 127.5469 25.8454 Q127.5469 27.1111 128.0312 27.6736 Q128.5156 28.2361 129.2812 28.2361 Q129.9062 28.2361 130.3203 27.8611 Q130.7344 27.4861 130.8594 26.6892 ZM137.0469 26.9704 L138.1406 27.0954 Q137.8906 28.0486 137.1875 28.5798 Q136.4844 29.1111 135.4062 29.1111 Q134.0469 29.1111 133.2422 28.2673 Q132.4375 27.4236 132.4375 25.9079 Q132.4375 24.3454 133.25 23.4782 Q134.0625 22.6111 135.3438 22.6111 Q136.5938 22.6111 137.3828 23.4548 Q138.1719 24.2986 138.1719 25.8454 Q138.1719 25.9392 138.1719 26.1267 L133.5312 26.1267 Q133.5938 27.1579 134.1094 27.697 Q134.625 28.2361 135.4062 28.2361 Q135.9844 28.2361 136.3984 27.9314 Q136.8125 27.6267 137.0469 26.9704 ZM133.5938 25.2673 L137.0625 25.2673 Q137 24.4704 136.6719 24.0798 Q136.1562 23.4704 135.3594 23.4704 Q134.625 23.4704 134.1328 23.9548 Q133.6406 24.4392 133.5938 25.2673 ZM140.4844 31.5017 L139.7344 31.5017 Q141.4844 28.6892 141.4844 25.8611 Q141.4844 24.7673 141.2344 23.6736 Q141.0312 22.7986 140.6719 21.9861 Q140.4375 21.4704 139.7344 20.2361 L140.4844 20.2361 Q141.5781 21.7048 142.1094 23.1892 Q142.5625 24.4704 142.5625 25.8611 Q142.5625 27.4392 141.9531 28.9157 Q141.3438 30.3923 140.4844 31.5017 ZM146.7969 28.9704 L146.7969 22.7517 L147.7344 22.7517 L147.7344 23.6267 Q148.0312 23.1579 148.5156 22.8845 Q149 22.6111 149.625 22.6111 Q150.3125 22.6111 150.7578 22.8923 Q151.2031 23.1736 151.375 23.6892 Q152.125 22.6111 153.2969 22.6111 Q154.2344 22.6111 154.7266 23.1189 Q155.2188 23.6267 155.2188 24.7048 L155.2188 28.9704 L154.1719 28.9704 L154.1719 25.0486 Q154.1719 24.4236 154.0703 24.1423 Q153.9688 23.8611 153.7031 23.6892 Q153.4375 23.5173 153.0625 23.5173 Q152.4062 23.5173 151.9766 23.9548 Q151.5469 24.3923 151.5469 25.3611 L151.5469 28.9704 L150.4844 28.9704 L150.4844 24.9236 Q150.4844 24.2204 150.2266 23.8689 Q149.9688 23.5173 149.3906 23.5173 Q148.9375 23.5173 148.5625 23.7517 Q148.1875 23.9861 148.0156 24.4392 Q147.8438 24.8923 147.8438 25.7361 L147.8438 28.9704 L146.7969 28.9704 ZM162.0469 26.9704 L163.1406 27.0954 Q162.8906 28.0486 162.1875 28.5798 Q161.4844 29.1111 160.4062 29.1111 Q159.0469 29.1111 158.2422 28.2673 Q157.4375 27.4236 157.4375 25.9079 Q157.4375 24.3454 158.25 23.4782 Q159.0625 22.6111 160.3438 22.6111 Q161.5938 22.6111 162.3828 23.4548 Q163.1719 24.2986 163.1719 25.8454 Q163.1719 25.9392 163.1719 26.1267 L158.5312 26.1267 Q158.5938 27.1579 159.1094 27.697 Q159.625 28.2361 160.4062 28.2361 Q160.9844 28.2361 161.3984 27.9314 Q161.8125 27.6267 162.0469 26.9704 ZM158.5938 25.2673 L162.0625 25.2673 Q162 24.4704 161.6719 24.0798 Q161.1562 23.4704 160.3594 23.4704 Q159.625 23.4704 159.1328 23.9548 Q158.6406 24.4392 158.5938 25.2673 ZM167.0938 28.0329 L167.25 28.9548 Q166.7969 29.0486 166.4531 29.0486 Q165.875 29.0486 165.5625 28.8689 Q165.25 28.6892 165.1172 28.3923 Q164.9844 28.0954 164.9844 27.1423 L164.9844 23.5642 L164.2188 23.5642 L164.2188 22.7517 L164.9844 22.7517 L164.9844 21.2048 L166.0312 20.5798 L166.0312 22.7517 L167.0938 22.7517 L167.0938 23.5642 L166.0312 23.5642 L166.0312 27.2048 Q166.0312 27.6579 166.0859 27.7829 Q166.1406 27.9079 166.2656 27.9861 Q166.3906 28.0642 166.625 28.0642 Q166.8125 28.0642 167.0938 28.0329 ZM167.4062 25.8611 Q167.4062 24.1267 168.3594 23.2986 Q169.1562 22.6111 170.3125 22.6111 Q171.5938 22.6111 172.4141 23.447 Q173.2344 24.2829 173.2344 25.7673 Q173.2344 26.9704 172.875 27.6579 Q172.5156 28.3454 171.8203 28.7282 Q171.125 29.1111 170.3125 29.1111 Q169.0156 29.1111 168.2109 28.2751 Q167.4062 27.4392 167.4062 25.8611 ZM168.4844 25.8611 Q168.4844 27.0486 169.0078 27.6423 Q169.5312 28.2361 170.3125 28.2361 Q171.1094 28.2361 171.625 27.6423 Q172.1406 27.0486 172.1406 25.8298 Q172.1406 24.6736 171.6172 24.0798 Q171.0938 23.4861 170.3125 23.4861 Q169.5312 23.4861 169.0078 24.072 Q168.4844 24.6579 168.4844 25.8611 ZM169.125 20.9704 L169.9062 19.3298 L171.2969 19.3298 L170 20.9704 L169.125 20.9704 ZM178.8281 28.9704 L178.8281 28.1892 Q178.2344 29.1111 177.0938 29.1111 Q176.3438 29.1111 175.7188 28.697 Q175.0938 28.2829 174.75 27.5486 Q174.4062 26.8142 174.4062 25.8611 Q174.4062 24.9392 174.7188 24.1736 Q175.0312 23.4079 175.6562 23.0095 Q176.2812 22.6111 177.0469 22.6111 Q177.6094 22.6111 178.0469 22.8454 Q178.4844 23.0798 178.7656 23.4548 L178.7656 20.3767 L179.8125 20.3767 L179.8125 28.9704 L178.8281 28.9704 ZM175.5 25.8611 Q175.5 27.0642 176 27.6501 Q176.5 28.2361 177.1875 28.2361 Q177.875 28.2361 178.3594 27.6736 Q178.8438 27.1111 178.8438 25.9548 Q178.8438 24.6736 178.3516 24.0798 Q177.8594 23.4861 177.1406 23.4861 Q176.4375 23.4861 175.9688 24.0564 Q175.5 24.6267 175.5 25.8611 ZM185.875 28.9704 L185.875 28.0486 Q185.1406 29.1111 183.8906 29.1111 Q183.3438 29.1111 182.8672 28.9001 Q182.3906 28.6892 182.1562 28.3689 Q181.9219 28.0486 181.8281 27.5798 Q181.7656 27.2829 181.7656 26.5954 L181.7656 22.7517 L182.8281 22.7517 L182.8281 26.2048 Q182.8281 27.0173 182.8906 27.3142 Q182.9844 27.7204 183.3047 27.9626 Q183.625 28.2048 184.1094 28.2048 Q184.5781 28.2048 184.9922 27.9626 Q185.4062 27.7204 185.5859 27.2986 Q185.7656 26.8767 185.7656 26.0798 L185.7656 22.7517 L186.8125 22.7517 L186.8125 28.9704 L185.875 28.9704 ZM188.375 27.1111 L189.4062 26.9548 Q189.5 27.5798 189.8984 27.9079 Q190.2969 28.2361 191.0312 28.2361 Q191.75 28.2361 192.1016 27.947 Q192.4531 27.6579 192.4531 27.2517 Q192.4531 26.8923 192.1406 26.6892 Q191.9219 26.5486 191.0625 26.3298 Q189.9062 26.0329 189.4609 25.822 Q189.0156 25.6111 188.7812 25.2361 Q188.5469 24.8611 188.5469 24.3923 Q188.5469 23.9861 188.7344 23.6267 Q188.9219 23.2673 189.25 23.0329 Q189.5 22.8611 189.9219 22.7361 Q190.3438 22.6111 190.8438 22.6111 Q191.5625 22.6111 192.1172 22.822 Q192.6719 23.0329 192.9375 23.3923 Q193.2031 23.7517 193.2969 24.3454 L192.2656 24.4861 Q192.2031 24.0173 191.8672 23.7439 Q191.5312 23.4704 190.9062 23.4704 Q190.1875 23.4704 189.875 23.7126 Q189.5625 23.9548 189.5625 24.2829 Q189.5625 24.4861 189.6875 24.6423 Q189.8281 24.8142 190.0938 24.9236 Q190.25 24.9861 191.0312 25.1892 Q192.1562 25.5017 192.5938 25.6892 Q193.0312 25.8767 193.2812 26.2361 Q193.5312 26.5954 193.5312 27.1423 Q193.5312 27.6736 193.2266 28.1345 Q192.9219 28.5954 192.3438 28.8532 Q191.7656 29.1111 191.0312 29.1111 Q189.8125 29.1111 189.1797 28.6032 Q188.5469 28.0954 188.375 27.1111 ZM198.0938 28.0329 L198.25 28.9548 Q197.7969 29.0486 197.4531 29.0486 Q196.875 29.0486 196.5625 28.8689 Q196.25 28.6892 196.1172 28.3923 Q195.9844 28.0954 195.9844 27.1423 L195.9844 23.5642 L195.2188 23.5642 L195.2188 22.7517 L195.9844 22.7517 L195.9844 21.2048 L197.0312 20.5798 L197.0312 22.7517 L198.0938 22.7517 L198.0938 23.5642 L197.0312 23.5642 L197.0312 27.2048 Q197.0312 27.6579 197.0859 27.7829 Q197.1406 27.9079 197.2656 27.9861 Q197.3906 28.0642 197.625 28.0642 Q197.8125 28.0642 198.0938 28.0329 ZM199.0938 28.9704 L199.0938 27.7673 L200.2969 27.7673 L200.2969 28.9704 L199.0938 28.9704 ZM205.125 28.9704 L205.125 20.3767 L206.25 20.3767 L206.25 28.9704 L205.125 28.9704 ZM205.125 18.9704 L205.9062 17.3298 L207.2969 17.3298 L206 18.9704 L205.125 18.9704 ZM207.5938 29.4861 L208.625 29.6423 Q208.6875 30.1111 208.9844 30.3298 Q209.375 30.6267 210.0469 30.6267 Q210.7812 30.6267 211.1797 30.3298 Q211.5781 30.0329 211.7188 29.5173 Q211.8125 29.1892 211.7969 28.1579 Q211.1094 28.9704 210.0781 28.9704 Q208.7969 28.9704 208.0938 28.0407 Q207.3906 27.1111 207.3906 25.8298 Q207.3906 24.9392 207.7109 24.1814 Q208.0312 23.4236 208.6406 23.0173 Q209.25 22.6111 210.0781 22.6111 Q211.1875 22.6111 211.9062 23.5017 L211.9062 22.7517 L212.875 22.7517 L212.875 28.1267 Q212.875 29.5798 212.5781 30.1892 Q212.2812 30.7986 211.6406 31.1501 Q211 31.5017 210.0625 31.5017 Q208.9531 31.5017 208.2656 31.0017 Q207.5781 30.5017 207.5938 29.4861 ZM208.4688 25.7517 Q208.4688 26.9704 208.9531 27.5329 Q209.4375 28.0954 210.1719 28.0954 Q210.9062 28.0954 211.3984 27.5329 Q211.8906 26.9704 211.8906 25.7829 Q211.8906 24.6423 211.3828 24.0642 Q210.875 23.4861 210.1562 23.4861 Q209.4531 23.4861 208.9609 24.0564 Q208.4688 24.6267 208.4688 25.7517 ZM214.75 31.3611 L214.625 30.3767 Q214.9688 30.4704 215.2344 30.4704 Q215.5781 30.4704 215.7891 30.3532 Q216 30.2361 216.1406 30.0329 Q216.2344 29.8611 216.4688 29.2361 Q216.4844 29.1579 216.5625 28.9861 L214.1875 22.7517 L215.3281 22.7517 L216.625 26.3454 Q216.875 27.0329 217.0781 27.7986 Q217.2656 27.0642 217.5156 26.3767 L218.8438 22.7517 L219.8906 22.7517 L217.5312 29.0798 Q217.1406 30.0954 216.9375 30.4861 Q216.6562 31.0173 216.2891 31.2595 Q215.9219 31.5017 215.4219 31.5017 Q215.125 31.5017 214.75 31.3611 ZM223.7656 28.9704 L222.7812 28.9704 L222.7812 20.3767 L223.8438 20.3767 L223.8438 23.4392 Q224.5156 22.6111 225.5469 22.6111 Q226.125 22.6111 226.6328 22.8376 Q227.1406 23.0642 227.4766 23.4861 Q227.8125 23.9079 228 24.5017 Q228.1875 25.0954 228.1875 25.7673 Q228.1875 27.3611 227.3906 28.2361 Q226.5938 29.1111 225.5 29.1111 Q224.3906 29.1111 223.7656 28.1892 L223.7656 28.9704 ZM223.75 25.8142 Q223.75 26.9236 224.0625 27.4236 Q224.5625 28.2361 225.4062 28.2361 Q226.0938 28.2361 226.6016 27.6423 Q227.1094 27.0486 227.1094 25.8454 Q227.1094 24.6267 226.625 24.0486 Q226.1406 23.4704 225.4531 23.4704 Q224.7656 23.4704 224.2578 24.072 Q223.75 24.6736 223.75 25.8142 ZM234.0469 26.9704 L235.1406 27.0954 Q234.8906 28.0486 234.1875 28.5798 Q233.4844 29.1111 232.4062 29.1111 Q231.0469 29.1111 230.2422 28.2673 Q229.4375 27.4236 229.4375 25.9079 Q229.4375 24.3454 230.25 23.4782 Q231.0625 22.6111 232.3438 22.6111 Q233.5938 22.6111 234.3828 23.4548 Q235.1719 24.2986 235.1719 25.8454 Q235.1719 25.9392 235.1719 26.1267 L230.5312 26.1267 Q230.5938 27.1579 231.1094 27.697 Q231.625 28.2361 232.4062 28.2361 Q232.9844 28.2361 233.3984 27.9314 Q233.8125 27.6267 234.0469 26.9704 ZM230.5938 25.2673 L234.0625 25.2673 Q234 24.4704 233.6719 24.0798 Q233.1562 23.4704 232.3594 23.4704 Q231.625 23.4704 231.1328 23.9548 Q230.6406 24.4392 230.5938 25.2673 ZM236.7969 28.9704 L236.7969 20.3767 L237.8594 20.3767 L237.8594 25.2829 L240.3438 22.7517 L241.7188 22.7517 L239.3281 25.0486 L241.9531 28.9704 L240.6562 28.9704 L238.5938 25.7829 L237.8594 26.5017 L237.8594 28.9704 L236.7969 28.9704 ZM247.0469 26.9704 L248.1406 27.0954 Q247.8906 28.0486 247.1875 28.5798 Q246.4844 29.1111 245.4062 29.1111 Q244.0469 29.1111 243.2422 28.2673 Q242.4375 27.4236 242.4375 25.9079 Q242.4375 24.3454 243.25 23.4782 Q244.0625 22.6111 245.3438 22.6111 Q246.5938 22.6111 247.3828 23.4548 Q248.1719 24.2986 248.1719 25.8454 Q248.1719 25.9392 248.1719 26.1267 L243.5312 26.1267 Q243.5938 27.1579 244.1094 27.697 Q244.625 28.2361 245.4062 28.2361 Q245.9844 28.2361 246.3984 27.9314 Q246.8125 27.6267 247.0469 26.9704 ZM243.5938 25.2673 L247.0625 25.2673 Q247 24.4704 246.6719 24.0798 Q246.1562 23.4704 245.3594 23.4704 Q244.625 23.4704 244.1328 23.9548 Q243.6406 24.4392 243.5938 25.2673 ZM249.7812 28.9704 L249.7812 22.7517 L250.7344 22.7517 L250.7344 23.6892 Q251.0938 23.0329 251.3984 22.822 Q251.7031 22.6111 252.0781 22.6111 Q252.6094 22.6111 253.1562 22.9392 L252.7969 23.9236 Q252.4062 23.6892 252.0312 23.6892 Q251.6719 23.6892 251.3984 23.9001 Q251.125 24.1111 251.0156 24.4861 Q250.8281 25.0486 250.8281 25.7048 L250.8281 28.9704 L249.7812 28.9704 ZM257.875 28.9704 L257.875 28.0486 Q257.1406 29.1111 255.8906 29.1111 Q255.3438 29.1111 254.8672 28.9001 Q254.3906 28.6892 254.1562 28.3689 Q253.9219 28.0486 253.8281 27.5798 Q253.7656 27.2829 253.7656 26.5954 L253.7656 22.7517 L254.8281 22.7517 L254.8281 26.2048 Q254.8281 27.0173 254.8906 27.3142 Q254.9844 27.7204 255.3047 27.9626 Q255.625 28.2048 256.1094 28.2048 Q256.5781 28.2048 256.9922 27.9626 Q257.4062 27.7204 257.5859 27.2986 Q257.7656 26.8767 257.7656 26.0798 L257.7656 22.7517 L258.8125 22.7517 L258.8125 28.9704 L257.875 28.9704 ZM254.3594 20.9704 L254.3594 19.7673 L255.4531 19.7673 L255.4531 20.9704 L254.3594 20.9704 ZM256.5469 20.9704 L256.5469 19.7673 L257.6406 19.7673 L257.6406 20.9704 L256.5469 20.9704 ZM260.7656 28.9704 L260.7656 20.3767 L261.8281 20.3767 L261.8281 28.9704 L260.7656 28.9704 ZM270.8594 28.2048 Q270.2656 28.7048 269.7266 28.9079 Q269.1875 29.1111 268.5625 29.1111 Q267.5312 29.1111 266.9844 28.6111 Q266.4375 28.1111 266.4375 27.3298 Q266.4375 26.8767 266.6406 26.4939 Q266.8438 26.1111 267.1875 25.8845 Q267.5312 25.6579 267.9531 25.5486 Q268.25 25.4548 268.8906 25.3767 Q270.1562 25.2361 270.7656 25.0173 Q270.7656 24.7986 270.7656 24.7517 Q270.7656 24.0954 270.4688 23.8298 Q270.0625 23.4861 269.2656 23.4861 Q268.5312 23.4861 268.1719 23.7439 Q267.8125 24.0017 267.6406 24.6579 L266.6094 24.5173 Q266.75 23.8611 267.0781 23.4548 Q267.4062 23.0486 268.0156 22.8298 Q268.625 22.6111 269.4219 22.6111 Q270.2188 22.6111 270.7188 22.7986 Q271.2188 22.9861 271.4531 23.2673 Q271.6875 23.5486 271.7812 23.9861 Q271.8281 24.2517 271.8281 24.9548 L271.8281 26.3611 Q271.8281 27.8298 271.8984 28.2204 Q271.9688 28.6111 272.1719 28.9704 L271.0625 28.9704 Q270.9062 28.6423 270.8594 28.2048 ZM270.7656 25.8454 Q270.1875 26.0798 269.0469 26.2517 Q268.3906 26.3454 268.125 26.4626 Q267.8594 26.5798 267.7109 26.7986 Q267.5625 27.0173 267.5625 27.2986 Q267.5625 27.7204 267.8828 28.0017 Q268.2031 28.2829 268.8125 28.2829 Q269.4219 28.2829 269.8984 28.0173 Q270.375 27.7517 270.5938 27.2829 Q270.7656 26.9236 270.7656 26.2361 L270.7656 25.8454 ZM273.2344 28.9704 L273.2344 28.1111 L277.2031 23.5642 Q276.5156 23.5954 276 23.5954 L273.4688 23.5954 L273.4688 22.7517 L278.5625 22.7517 L278.5625 23.4392 L275.1875 27.3923 L274.5312 28.1111 Q275.25 28.0642 275.8594 28.0642 L278.75 28.0642 L278.75 28.9704 L273.2344 28.9704 Z" style="clip-path:url(#clipPath17); stroke:none;" />
      <path d="M7.8594 42.2048 Q7.2656 42.7048 6.7266 42.9079 Q6.1875 43.1111 5.5625 43.1111 Q4.5312 43.1111 3.9844 42.6111 Q3.4375 42.1111 3.4375 41.3298 Q3.4375 40.8767 3.6406 40.4939 Q3.8438 40.1111 4.1875 39.8845 Q4.5312 39.6579 4.9531 39.5486 Q5.25 39.4548 5.8906 39.3767 Q7.1562 39.2361 7.7656 39.0173 Q7.7656 38.7986 7.7656 38.7517 Q7.7656 38.0954 7.4688 37.8298 Q7.0625 37.4861 6.2656 37.4861 Q5.5312 37.4861 5.1719 37.7439 Q4.8125 38.0017 4.6406 38.6579 L3.6094 38.5173 Q3.75 37.8611 4.0781 37.4548 Q4.4062 37.0486 5.0156 36.8298 Q5.625 36.6111 6.4219 36.6111 Q7.2188 36.6111 7.7188 36.7986 Q8.2188 36.9861 8.4531 37.2673 Q8.6875 37.5486 8.7812 37.9861 Q8.8281 38.2517 8.8281 38.9548 L8.8281 40.3611 Q8.8281 41.8298 8.8984 42.2204 Q8.9688 42.6111 9.1719 42.9704 L8.0625 42.9704 Q7.9062 42.6423 7.8594 42.2048 ZM7.7656 39.8454 Q7.1875 40.0798 6.0469 40.2517 Q5.3906 40.3454 5.125 40.4626 Q4.8594 40.5798 4.7109 40.7986 Q4.5625 41.0173 4.5625 41.2986 Q4.5625 41.7204 4.8828 42.0017 Q5.2031 42.2829 5.8125 42.2829 Q6.4219 42.2829 6.8984 42.0173 Q7.375 41.7517 7.5938 41.2829 Q7.7656 40.9236 7.7656 40.2361 L7.7656 39.8454 ZM14.8281 42.9704 L14.8281 42.1892 Q14.2344 43.1111 13.0938 43.1111 Q12.3438 43.1111 11.7188 42.697 Q11.0938 42.2829 10.75 41.5486 Q10.4062 40.8142 10.4062 39.8611 Q10.4062 38.9392 10.7188 38.1736 Q11.0312 37.4079 11.6562 37.0095 Q12.2812 36.6111 13.0469 36.6111 Q13.6094 36.6111 14.0469 36.8454 Q14.4844 37.0798 14.7656 37.4548 L14.7656 34.3767 L15.8125 34.3767 L15.8125 42.9704 L14.8281 42.9704 ZM11.5 39.8611 Q11.5 41.0642 12 41.6501 Q12.5 42.2361 13.1875 42.2361 Q13.875 42.2361 14.3594 41.6736 Q14.8438 41.1111 14.8438 39.9548 Q14.8438 38.6736 14.3516 38.0798 Q13.8594 37.4861 13.1406 37.4861 Q12.4375 37.4861 11.9688 38.0564 Q11.5 38.6267 11.5 39.8611 ZM17.4062 39.8611 Q17.4062 38.1267 18.3594 37.2986 Q19.1562 36.6111 20.3125 36.6111 Q21.5938 36.6111 22.4141 37.447 Q23.2344 38.2829 23.2344 39.7673 Q23.2344 40.9704 22.875 41.6579 Q22.5156 42.3454 21.8203 42.7282 Q21.125 43.1111 20.3125 43.1111 Q19.0156 43.1111 18.2109 42.2751 Q17.4062 41.4392 17.4062 39.8611 ZM18.4844 39.8611 Q18.4844 41.0486 19.0078 41.6423 Q19.5312 42.2361 20.3125 42.2361 Q21.1094 42.2361 21.625 41.6423 Q22.1406 41.0486 22.1406 39.8298 Q22.1406 38.6736 21.6172 38.0798 Q21.0938 37.4861 20.3125 37.4861 Q19.5312 37.4861 19.0078 38.072 Q18.4844 38.6579 18.4844 39.8611 ZM27.0938 42.0329 L27.25 42.9548 Q26.7969 43.0486 26.4531 43.0486 Q25.875 43.0486 25.5625 42.8689 Q25.25 42.6892 25.1172 42.3923 Q24.9844 42.0954 24.9844 41.1423 L24.9844 37.5642 L24.2188 37.5642 L24.2188 36.7517 L24.9844 36.7517 L24.9844 35.2048 L26.0312 34.5798 L26.0312 36.7517 L27.0938 36.7517 L27.0938 37.5642 L26.0312 37.5642 L26.0312 41.2048 Q26.0312 41.6579 26.0859 41.7829 Q26.1406 41.9079 26.2656 41.9861 Q26.3906 42.0642 26.625 42.0642 Q26.8125 42.0642 27.0938 42.0329 ZM30.0938 42.0329 L30.25 42.9548 Q29.7969 43.0486 29.4531 43.0486 Q28.875 43.0486 28.5625 42.8689 Q28.25 42.6892 28.1172 42.3923 Q27.9844 42.0954 27.9844 41.1423 L27.9844 37.5642 L27.2188 37.5642 L27.2188 36.7517 L27.9844 36.7517 L27.9844 35.2048 L29.0312 34.5798 L29.0312 36.7517 L30.0938 36.7517 L30.0938 37.5642 L29.0312 37.5642 L29.0312 41.2048 Q29.0312 41.6579 29.0859 41.7829 Q29.1406 41.9079 29.2656 41.9861 Q29.3906 42.0642 29.625 42.0642 Q29.8125 42.0642 30.0938 42.0329 ZM33.7812 35.6111 L33.7812 34.3767 L34.8438 34.3767 L34.8438 35.6111 L33.7812 35.6111 ZM32.4531 45.3923 L32.6406 44.4861 Q32.9688 44.5642 33.1406 44.5642 Q33.4688 44.5642 33.625 44.3532 Q33.7812 44.1423 33.7812 43.2829 L33.7812 36.7517 L34.8438 36.7517 L34.8438 43.3142 Q34.8438 44.4548 34.5469 44.9079 Q34.1562 45.5017 33.2812 45.5017 Q32.8438 45.5017 32.4531 45.3923 ZM41.0469 40.9704 L42.1406 41.0954 Q41.8906 42.0486 41.1875 42.5798 Q40.4844 43.1111 39.4062 43.1111 Q38.0469 43.1111 37.2422 42.2673 Q36.4375 41.4236 36.4375 39.9079 Q36.4375 38.3454 37.25 37.4782 Q38.0625 36.6111 39.3438 36.6111 Q40.5938 36.6111 41.3828 37.4548 Q42.1719 38.2986 42.1719 39.8454 Q42.1719 39.9392 42.1719 40.1267 L37.5312 40.1267 Q37.5938 41.1579 38.1094 41.697 Q38.625 42.2361 39.4062 42.2361 Q39.9844 42.2361 40.3984 41.9314 Q40.8125 41.6267 41.0469 40.9704 ZM37.5938 39.2673 L41.0625 39.2673 Q41 38.4704 40.6719 38.0798 Q40.1562 37.4704 39.3594 37.4704 Q38.625 37.4704 38.1328 37.9548 Q37.6406 38.4392 37.5938 39.2673 ZM43.7656 42.9704 L43.7656 34.3767 L44.8281 34.3767 L44.8281 42.9704 L43.7656 42.9704 ZM47.0469 42.9704 L47.0469 37.5642 L46.1094 37.5642 L46.1094 36.7517 L47.0469 36.7517 L47.0469 36.0798 Q47.0469 35.4548 47.1562 35.1579 Q47.3125 34.7361 47.6953 34.4861 Q48.0781 34.2361 48.7656 34.2361 Q49.2188 34.2361 49.75 34.3454 L49.5938 35.2517 Q49.2656 35.2048 48.9688 35.2048 Q48.4844 35.2048 48.2891 35.4079 Q48.0938 35.6111 48.0938 36.1736 L48.0938 36.7517 L49.3125 36.7517 L49.3125 37.5642 L48.0938 37.5642 L48.0938 42.9704 L47.0469 42.9704 ZM49.4062 39.8611 Q49.4062 38.1267 50.3594 37.2986 Q51.1562 36.6111 52.3125 36.6111 Q53.5938 36.6111 54.4141 37.447 Q55.2344 38.2829 55.2344 39.7673 Q55.2344 40.9704 54.875 41.6579 Q54.5156 42.3454 53.8203 42.7282 Q53.125 43.1111 52.3125 43.1111 Q51.0156 43.1111 50.2109 42.2751 Q49.4062 41.4392 49.4062 39.8611 ZM50.4844 39.8611 Q50.4844 41.0486 51.0078 41.6423 Q51.5312 42.2361 52.3125 42.2361 Q53.1094 42.2361 53.625 41.6423 Q54.1406 41.0486 54.1406 39.8298 Q54.1406 38.6736 53.6172 38.0798 Q53.0938 37.4861 52.3125 37.4861 Q51.5312 37.4861 51.0078 38.072 Q50.4844 38.6579 50.4844 39.8611 ZM56.7812 42.9704 L56.7812 36.7517 L57.7344 36.7517 L57.7344 37.6892 Q58.0938 37.0329 58.3984 36.822 Q58.7031 36.6111 59.0781 36.6111 Q59.6094 36.6111 60.1562 36.9392 L59.7969 37.9236 Q59.4062 37.6892 59.0312 37.6892 Q58.6719 37.6892 58.3984 37.9001 Q58.125 38.1111 58.0156 38.4861 Q57.8281 39.0486 57.8281 39.7048 L57.8281 42.9704 L56.7812 42.9704 ZM60.7812 42.9704 L60.7812 36.7517 L61.7344 36.7517 L61.7344 37.6892 Q62.0938 37.0329 62.3984 36.822 Q62.7031 36.6111 63.0781 36.6111 Q63.6094 36.6111 64.1562 36.9392 L63.7969 37.9236 Q63.4062 37.6892 63.0312 37.6892 Q62.6719 37.6892 62.3984 37.9001 Q62.125 38.1111 62.0156 38.4861 Q61.8281 39.0486 61.8281 39.7048 L61.8281 42.9704 L60.7812 42.9704 ZM68.8594 42.2048 Q68.2656 42.7048 67.7266 42.9079 Q67.1875 43.1111 66.5625 43.1111 Q65.5312 43.1111 64.9844 42.6111 Q64.4375 42.1111 64.4375 41.3298 Q64.4375 40.8767 64.6406 40.4939 Q64.8438 40.1111 65.1875 39.8845 Q65.5312 39.6579 65.9531 39.5486 Q66.25 39.4548 66.8906 39.3767 Q68.1562 39.2361 68.7656 39.0173 Q68.7656 38.7986 68.7656 38.7517 Q68.7656 38.0954 68.4688 37.8298 Q68.0625 37.4861 67.2656 37.4861 Q66.5312 37.4861 66.1719 37.7439 Q65.8125 38.0017 65.6406 38.6579 L64.6094 38.5173 Q64.75 37.8611 65.0781 37.4548 Q65.4062 37.0486 66.0156 36.8298 Q66.625 36.6111 67.4219 36.6111 Q68.2188 36.6111 68.7188 36.7986 Q69.2188 36.9861 69.4531 37.2673 Q69.6875 37.5486 69.7812 37.9861 Q69.8281 38.2517 69.8281 38.9548 L69.8281 40.3611 Q69.8281 41.8298 69.8984 42.2204 Q69.9688 42.6111 70.1719 42.9704 L69.0625 42.9704 Q68.9062 42.6423 68.8594 42.2048 ZM68.7656 39.8454 Q68.1875 40.0798 67.0469 40.2517 Q66.3906 40.3454 66.125 40.4626 Q65.8594 40.5798 65.7109 40.7986 Q65.5625 41.0173 65.5625 41.2986 Q65.5625 41.7204 65.8828 42.0017 Q66.2031 42.2829 66.8125 42.2829 Q67.4219 42.2829 67.8984 42.0173 Q68.375 41.7517 68.5938 41.2829 Q68.7656 40.9236 68.7656 40.2361 L68.7656 39.8454 ZM66.125 34.9704 L66.9062 33.3298 L68.2969 33.3298 L67 34.9704 L66.125 34.9704 ZM71.375 41.1111 L72.4062 40.9548 Q72.5 41.5798 72.8984 41.9079 Q73.2969 42.2361 74.0312 42.2361 Q74.75 42.2361 75.1016 41.947 Q75.4531 41.6579 75.4531 41.2517 Q75.4531 40.8923 75.1406 40.6892 Q74.9219 40.5486 74.0625 40.3298 Q72.9062 40.0329 72.4609 39.822 Q72.0156 39.6111 71.7812 39.2361 Q71.5469 38.8611 71.5469 38.3923 Q71.5469 37.9861 71.7344 37.6267 Q71.9219 37.2673 72.25 37.0329 Q72.5 36.8611 72.9219 36.7361 Q73.3438 36.6111 73.8438 36.6111 Q74.5625 36.6111 75.1172 36.822 Q75.6719 37.0329 75.9375 37.3923 Q76.2031 37.7517 76.2969 38.3454 L75.2656 38.4861 Q75.2031 38.0173 74.8672 37.7439 Q74.5312 37.4704 73.9062 37.4704 Q73.1875 37.4704 72.875 37.7126 Q72.5625 37.9548 72.5625 38.2829 Q72.5625 38.4861 72.6875 38.6423 Q72.8281 38.8142 73.0938 38.9236 Q73.25 38.9861 74.0312 39.1892 Q75.1562 39.5017 75.5938 39.6892 Q76.0312 39.8767 76.2812 40.2361 Q76.5312 40.5954 76.5312 41.1423 Q76.5312 41.6736 76.2266 42.1345 Q75.9219 42.5954 75.3438 42.8532 Q74.7656 43.1111 74.0312 43.1111 Q72.8125 43.1111 72.1797 42.6032 Q71.5469 42.0954 71.375 41.1111 ZM85.8594 42.2048 Q85.2656 42.7048 84.7266 42.9079 Q84.1875 43.1111 83.5625 43.1111 Q82.5312 43.1111 81.9844 42.6111 Q81.4375 42.1111 81.4375 41.3298 Q81.4375 40.8767 81.6406 40.4939 Q81.8438 40.1111 82.1875 39.8845 Q82.5312 39.6579 82.9531 39.5486 Q83.25 39.4548 83.8906 39.3767 Q85.1562 39.2361 85.7656 39.0173 Q85.7656 38.7986 85.7656 38.7517 Q85.7656 38.0954 85.4688 37.8298 Q85.0625 37.4861 84.2656 37.4861 Q83.5312 37.4861 83.1719 37.7439 Q82.8125 38.0017 82.6406 38.6579 L81.6094 38.5173 Q81.75 37.8611 82.0781 37.4548 Q82.4062 37.0486 83.0156 36.8298 Q83.625 36.6111 84.4219 36.6111 Q85.2188 36.6111 85.7188 36.7986 Q86.2188 36.9861 86.4531 37.2673 Q86.6875 37.5486 86.7812 37.9861 Q86.8281 38.2517 86.8281 38.9548 L86.8281 40.3611 Q86.8281 41.8298 86.8984 42.2204 Q86.9688 42.6111 87.1719 42.9704 L86.0625 42.9704 Q85.9062 42.6423 85.8594 42.2048 ZM85.7656 39.8454 Q85.1875 40.0798 84.0469 40.2517 Q83.3906 40.3454 83.125 40.4626 Q82.8594 40.5798 82.7109 40.7986 Q82.5625 41.0173 82.5625 41.2986 Q82.5625 41.7204 82.8828 42.0017 Q83.2031 42.2829 83.8125 42.2829 Q84.4219 42.2829 84.8984 42.0173 Q85.375 41.7517 85.5938 41.2829 Q85.7656 40.9236 85.7656 40.2361 L85.7656 39.8454 ZM83.125 34.9704 L83.9062 33.3298 L85.2969 33.3298 L84 34.9704 L83.125 34.9704 ZM88.7656 42.9704 L88.7656 34.3767 L89.8281 34.3767 L89.8281 42.9704 L88.7656 42.9704 ZM91.7656 42.9704 L91.7656 34.3767 L92.8281 34.3767 L92.8281 42.9704 L91.7656 42.9704 ZM98.8594 42.2048 Q98.2656 42.7048 97.7266 42.9079 Q97.1875 43.1111 96.5625 43.1111 Q95.5312 43.1111 94.9844 42.6111 Q94.4375 42.1111 94.4375 41.3298 Q94.4375 40.8767 94.6406 40.4939 Q94.8438 40.1111 95.1875 39.8845 Q95.5312 39.6579 95.9531 39.5486 Q96.25 39.4548 96.8906 39.3767 Q98.1562 39.2361 98.7656 39.0173 Q98.7656 38.7986 98.7656 38.7517 Q98.7656 38.0954 98.4688 37.8298 Q98.0625 37.4861 97.2656 37.4861 Q96.5312 37.4861 96.1719 37.7439 Q95.8125 38.0017 95.6406 38.6579 L94.6094 38.5173 Q94.75 37.8611 95.0781 37.4548 Q95.4062 37.0486 96.0156 36.8298 Q96.625 36.6111 97.4219 36.6111 Q98.2188 36.6111 98.7188 36.7986 Q99.2188 36.9861 99.4531 37.2673 Q99.6875 37.5486 99.7812 37.9861 Q99.8281 38.2517 99.8281 38.9548 L99.8281 40.3611 Q99.8281 41.8298 99.8984 42.2204 Q99.9688 42.6111 100.1719 42.9704 L99.0625 42.9704 Q98.9062 42.6423 98.8594 42.2048 ZM98.7656 39.8454 Q98.1875 40.0798 97.0469 40.2517 Q96.3906 40.3454 96.125 40.4626 Q95.8594 40.5798 95.7109 40.7986 Q95.5625 41.0173 95.5625 41.2986 Q95.5625 41.7204 95.8828 42.0017 Q96.2031 42.2829 96.8125 42.2829 Q97.4219 42.2829 97.8984 42.0173 Q98.375 41.7517 98.5938 41.2829 Q98.7656 40.9236 98.7656 40.2361 L98.7656 39.8454 ZM101.7969 45.3611 L101.7969 36.7517 L102.75 36.7517 L102.75 37.5486 Q103.0938 37.0798 103.5234 36.8454 Q103.9531 36.6111 104.5625 36.6111 Q105.3594 36.6111 105.9688 37.0173 Q106.5781 37.4236 106.8828 38.1736 Q107.1875 38.9236 107.1875 39.8142 Q107.1875 40.7673 106.8516 41.5329 Q106.5156 42.2986 105.8594 42.7048 Q105.2031 43.1111 104.4844 43.1111 Q103.9531 43.1111 103.5312 42.8845 Q103.1094 42.6579 102.8438 42.3298 L102.8438 45.3611 L101.7969 45.3611 ZM102.75 39.8923 Q102.75 41.0954 103.2344 41.6657 Q103.7188 42.2361 104.4062 42.2361 Q105.1094 42.2361 105.6094 41.6423 Q106.1094 41.0486 106.1094 39.7986 Q106.1094 38.6111 105.625 38.0251 Q105.1406 37.4392 104.4531 37.4392 Q103.7812 37.4392 103.2656 38.0642 Q102.75 38.6892 102.75 39.8923 ZM108.4062 39.8611 Q108.4062 38.1267 109.3594 37.2986 Q110.1562 36.6111 111.3125 36.6111 Q112.5938 36.6111 113.4141 37.447 Q114.2344 38.2829 114.2344 39.7673 Q114.2344 40.9704 113.875 41.6579 Q113.5156 42.3454 112.8203 42.7282 Q112.125 43.1111 111.3125 43.1111 Q110.0156 43.1111 109.2109 42.2751 Q108.4062 41.4392 108.4062 39.8611 ZM109.4844 39.8611 Q109.4844 41.0486 110.0078 41.6423 Q110.5312 42.2361 111.3125 42.2361 Q112.1094 42.2361 112.625 41.6423 Q113.1406 41.0486 113.1406 39.8298 Q113.1406 38.6736 112.6172 38.0798 Q112.0938 37.4861 111.3125 37.4861 Q110.5312 37.4861 110.0078 38.072 Q109.4844 38.6579 109.4844 39.8611 ZM118.0938 42.0329 L118.25 42.9548 Q117.7969 43.0486 117.4531 43.0486 Q116.875 43.0486 116.5625 42.8689 Q116.25 42.6892 116.1172 42.3923 Q115.9844 42.0954 115.9844 41.1423 L115.9844 37.5642 L115.2188 37.5642 L115.2188 36.7517 L115.9844 36.7517 L115.9844 35.2048 L117.0312 34.5798 L117.0312 36.7517 L118.0938 36.7517 L118.0938 37.5642 L117.0312 37.5642 L117.0312 41.2048 Q117.0312 41.6579 117.0859 41.7829 Q117.1406 41.9079 117.2656 41.9861 Q117.3906 42.0642 117.625 42.0642 Q117.8125 42.0642 118.0938 42.0329 ZM122.8594 42.2048 Q122.2656 42.7048 121.7266 42.9079 Q121.1875 43.1111 120.5625 43.1111 Q119.5312 43.1111 118.9844 42.6111 Q118.4375 42.1111 118.4375 41.3298 Q118.4375 40.8767 118.6406 40.4939 Q118.8438 40.1111 119.1875 39.8845 Q119.5312 39.6579 119.9531 39.5486 Q120.25 39.4548 120.8906 39.3767 Q122.1562 39.2361 122.7656 39.0173 Q122.7656 38.7986 122.7656 38.7517 Q122.7656 38.0954 122.4688 37.8298 Q122.0625 37.4861 121.2656 37.4861 Q120.5312 37.4861 120.1719 37.7439 Q119.8125 38.0017 119.6406 38.6579 L118.6094 38.5173 Q118.75 37.8611 119.0781 37.4548 Q119.4062 37.0486 120.0156 36.8298 Q120.625 36.6111 121.4219 36.6111 Q122.2188 36.6111 122.7188 36.7986 Q123.2188 36.9861 123.4531 37.2673 Q123.6875 37.5486 123.7812 37.9861 Q123.8281 38.2517 123.8281 38.9548 L123.8281 40.3611 Q123.8281 41.8298 123.8984 42.2204 Q123.9688 42.6111 124.1719 42.9704 L123.0625 42.9704 Q122.9062 42.6423 122.8594 42.2048 ZM122.7656 39.8454 Q122.1875 40.0798 121.0469 40.2517 Q120.3906 40.3454 120.125 40.4626 Q119.8594 40.5798 119.7109 40.7986 Q119.5625 41.0173 119.5625 41.2986 Q119.5625 41.7204 119.8828 42.0017 Q120.2031 42.2829 120.8125 42.2829 Q121.4219 42.2829 121.8984 42.0173 Q122.375 41.7517 122.5938 41.2829 Q122.7656 40.9236 122.7656 40.2361 L122.7656 39.8454 ZM132.8594 42.2048 Q132.2656 42.7048 131.7266 42.9079 Q131.1875 43.1111 130.5625 43.1111 Q129.5312 43.1111 128.9844 42.6111 Q128.4375 42.1111 128.4375 41.3298 Q128.4375 40.8767 128.6406 40.4939 Q128.8438 40.1111 129.1875 39.8845 Q129.5312 39.6579 129.9531 39.5486 Q130.25 39.4548 130.8906 39.3767 Q132.1562 39.2361 132.7656 39.0173 Q132.7656 38.7986 132.7656 38.7517 Q132.7656 38.0954 132.4688 37.8298 Q132.0625 37.4861 131.2656 37.4861 Q130.5312 37.4861 130.1719 37.7439 Q129.8125 38.0017 129.6406 38.6579 L128.6094 38.5173 Q128.75 37.8611 129.0781 37.4548 Q129.4062 37.0486 130.0156 36.8298 Q130.625 36.6111 131.4219 36.6111 Q132.2188 36.6111 132.7188 36.7986 Q133.2188 36.9861 133.4531 37.2673 Q133.6875 37.5486 133.7812 37.9861 Q133.8281 38.2517 133.8281 38.9548 L133.8281 40.3611 Q133.8281 41.8298 133.8984 42.2204 Q133.9688 42.6111 134.1719 42.9704 L133.0625 42.9704 Q132.9062 42.6423 132.8594 42.2048 ZM132.7656 39.8454 Q132.1875 40.0798 131.0469 40.2517 Q130.3906 40.3454 130.125 40.4626 Q129.8594 40.5798 129.7109 40.7986 Q129.5625 41.0173 129.5625 41.2986 Q129.5625 41.7204 129.8828 42.0017 Q130.2031 42.2829 130.8125 42.2829 Q131.4219 42.2829 131.8984 42.0173 Q132.375 41.7517 132.5938 41.2829 Q132.7656 40.9236 132.7656 40.2361 L132.7656 39.8454 ZM139.0469 42.9704 L139.0469 37.5642 L138.1094 37.5642 L138.1094 36.7517 L139.0469 36.7517 L139.0469 36.0798 Q139.0469 35.4548 139.1562 35.1579 Q139.3125 34.7361 139.6953 34.4861 Q140.0781 34.2361 140.7656 34.2361 Q141.2188 34.2361 141.75 34.3454 L141.5938 35.2517 Q141.2656 35.2048 140.9688 35.2048 Q140.4844 35.2048 140.2891 35.4079 Q140.0938 35.6111 140.0938 36.1736 L140.0938 36.7517 L141.3125 36.7517 L141.3125 37.5642 L140.0938 37.5642 L140.0938 42.9704 L139.0469 42.9704 ZM145.8594 42.2048 Q145.2656 42.7048 144.7266 42.9079 Q144.1875 43.1111 143.5625 43.1111 Q142.5312 43.1111 141.9844 42.6111 Q141.4375 42.1111 141.4375 41.3298 Q141.4375 40.8767 141.6406 40.4939 Q141.8438 40.1111 142.1875 39.8845 Q142.5312 39.6579 142.9531 39.5486 Q143.25 39.4548 143.8906 39.3767 Q145.1562 39.2361 145.7656 39.0173 Q145.7656 38.7986 145.7656 38.7517 Q145.7656 38.0954 145.4688 37.8298 Q145.0625 37.4861 144.2656 37.4861 Q143.5312 37.4861 143.1719 37.7439 Q142.8125 38.0017 142.6406 38.6579 L141.6094 38.5173 Q141.75 37.8611 142.0781 37.4548 Q142.4062 37.0486 143.0156 36.8298 Q143.625 36.6111 144.4219 36.6111 Q145.2188 36.6111 145.7188 36.7986 Q146.2188 36.9861 146.4531 37.2673 Q146.6875 37.5486 146.7812 37.9861 Q146.8281 38.2517 146.8281 38.9548 L146.8281 40.3611 Q146.8281 41.8298 146.8984 42.2204 Q146.9688 42.6111 147.1719 42.9704 L146.0625 42.9704 Q145.9062 42.6423 145.8594 42.2048 ZM145.7656 39.8454 Q145.1875 40.0798 144.0469 40.2517 Q143.3906 40.3454 143.125 40.4626 Q142.8594 40.5798 142.7109 40.7986 Q142.5625 41.0173 142.5625 41.2986 Q142.5625 41.7204 142.8828 42.0017 Q143.2031 42.2829 143.8125 42.2829 Q144.4219 42.2829 144.8984 42.0173 Q145.375 41.7517 145.5938 41.2829 Q145.7656 40.9236 145.7656 40.2361 L145.7656 39.8454 ZM143.125 34.9704 L143.9062 33.3298 L145.2969 33.3298 L144 34.9704 L143.125 34.9704 ZM148.7812 35.6111 L148.7812 34.3767 L149.8438 34.3767 L149.8438 35.6111 L148.7812 35.6111 ZM147.4531 45.3923 L147.6406 44.4861 Q147.9688 44.5642 148.1406 44.5642 Q148.4688 44.5642 148.625 44.3532 Q148.7812 44.1423 148.7812 43.2829 L148.7812 36.7517 L149.8438 36.7517 L149.8438 43.3142 Q149.8438 44.4548 149.5469 44.9079 Q149.1562 45.5017 148.2812 45.5017 Q147.8438 45.5017 147.4531 45.3923 ZM151.7656 42.9704 L151.7656 34.3767 L152.8281 34.3767 L152.8281 42.9704 L151.7656 42.9704 ZM155.7656 42.9704 L154.7812 42.9704 L154.7812 34.3767 L155.8438 34.3767 L155.8438 37.4392 Q156.5156 36.6111 157.5469 36.6111 Q158.125 36.6111 158.6328 36.8376 Q159.1406 37.0642 159.4766 37.4861 Q159.8125 37.9079 160 38.5017 Q160.1875 39.0954 160.1875 39.7673 Q160.1875 41.3611 159.3906 42.2361 Q158.5938 43.1111 157.5 43.1111 Q156.3906 43.1111 155.7656 42.1892 L155.7656 42.9704 ZM155.75 39.8142 Q155.75 40.9236 156.0625 41.4236 Q156.5625 42.2361 157.4062 42.2361 Q158.0938 42.2361 158.6016 41.6423 Q159.1094 41.0486 159.1094 39.8454 Q159.1094 38.6267 158.625 38.0486 Q158.1406 37.4704 157.4531 37.4704 Q156.7656 37.4704 156.2578 38.072 Q155.75 38.6736 155.75 39.8142 ZM165.8594 42.2048 Q165.2656 42.7048 164.7266 42.9079 Q164.1875 43.1111 163.5625 43.1111 Q162.5312 43.1111 161.9844 42.6111 Q161.4375 42.1111 161.4375 41.3298 Q161.4375 40.8767 161.6406 40.4939 Q161.8438 40.1111 162.1875 39.8845 Q162.5312 39.6579 162.9531 39.5486 Q163.25 39.4548 163.8906 39.3767 Q165.1562 39.2361 165.7656 39.0173 Q165.7656 38.7986 165.7656 38.7517 Q165.7656 38.0954 165.4688 37.8298 Q165.0625 37.4861 164.2656 37.4861 Q163.5312 37.4861 163.1719 37.7439 Q162.8125 38.0017 162.6406 38.6579 L161.6094 38.5173 Q161.75 37.8611 162.0781 37.4548 Q162.4062 37.0486 163.0156 36.8298 Q163.625 36.6111 164.4219 36.6111 Q165.2188 36.6111 165.7188 36.7986 Q166.2188 36.9861 166.4531 37.2673 Q166.6875 37.5486 166.7812 37.9861 Q166.8281 38.2517 166.8281 38.9548 L166.8281 40.3611 Q166.8281 41.8298 166.8984 42.2204 Q166.9688 42.6111 167.1719 42.9704 L166.0625 42.9704 Q165.9062 42.6423 165.8594 42.2048 ZM165.7656 39.8454 Q165.1875 40.0798 164.0469 40.2517 Q163.3906 40.3454 163.125 40.4626 Q162.8594 40.5798 162.7109 40.7986 Q162.5625 41.0173 162.5625 41.2986 Q162.5625 41.7204 162.8828 42.0017 Q163.2031 42.2829 163.8125 42.2829 Q164.4219 42.2829 164.8984 42.0173 Q165.375 41.7517 165.5938 41.2829 Q165.7656 40.9236 165.7656 40.2361 L165.7656 39.8454 ZM169.0938 42.9704 L169.0938 41.7673 L170.2969 41.7673 L170.2969 42.9704 L169.0938 42.9704 Z" style="clip-path:url(#clipPath17); stroke:none;" />
    </g>
    <g style="text-rendering:geometricPrecision; font-size:11; font-family:sans-serif;" transform="translate(355.75,234)">
      <text x="7" y="12" style="clip-path:url(#clipPath18); stroke:none;" xml:space="preserve">sourceWriter : SourceWriter</text>
    </g>
    <g style="text-rendering:geometricPrecision; font-size:11; font-family:sans-serif;" transform="translate(495.75,34)">
      <text x="18" y="12" style="clip-path:url(#clipPath19); stroke:none;" xml:space="preserve">sources : IsSource</text>
    </g>
    <g style="text-rendering:geometricPrecision; font-size:11; font-family:sans-serif;" transform="translate(285.75,34)">
      <text x="12" y="12" style="clip-path:url(#clipPath20); stroke:none;" xml:space="preserve">circuit :</text>
      <text x="13" y="27" style="clip-path:url(#clipPath20); stroke:none;" xml:space="preserve">Circuit</text>
    </g>
    <g style="text-rendering:geometricPrecision; font-size:11; font-family:sans-serif;" transform="translate(145.75,34)">
      <text x="22" y="12" style="clip-path:url(#clipPath21); stroke:none;" xml:space="preserve">simulation :</text>
      <text x="24" y="27" style="clip-path:url(#clipPath21); stroke:none;" xml:space="preserve">Simulation</text>
    </g>
    <g style="text-rendering:geometricPrecision; font-size:11; font-family:sans-serif;" transform="translate(11.75,69)">
      <text x="10" y="12" style="clip-path:url(#clipPath22); stroke:none;" xml:space="preserve">Felhasználó</text>
    </g>
    <g transform="translate(-8.25,62)" style="font-size:11; stroke-linecap:butt; text-rendering:geometricPrecision; font-family:sans-serif; stroke-linejoin:round;">
      <line x1="63" x2="200" y1="63" style="clip-path:url(#clipPath23); fill:none;" y2="63" />
      <polygon style="clip-path:url(#clipPath23); stroke:none;" points=" 200 63 188 57 188 69" />
      <polygon style="fill:none; clip-path:url(#clipPath23);" points=" 200 63 188 57 188 69" />
    </g>
    <g transform="translate(137.75,82)" style="font-size:11; stroke-linecap:butt; text-rendering:geometricPrecision; font-family:sans-serif; stroke-linejoin:round;">
      <line x1="63" x2="175" y1="63" style="clip-path:url(#clipPath24); fill:none;" y2="63" />
      <polygon style="clip-path:url(#clipPath24); stroke:none;" points=" 175 63 163 57 163 69" />
      <polygon style="fill:none; clip-path:url(#clipPath24);" points=" 175 63 163 57 163 69" />
    </g>
    <g transform="translate(137.75,112)" style="font-size:11; stroke-linecap:butt; text-rendering:geometricPrecision; font-family:sans-serif; stroke-linejoin:round; stroke-dasharray:8,3; stroke-miterlimit:0;">
      <line x1="175" x2="63" y1="63" style="clip-path:url(#clipPath24); fill:none;" y2="63" />
      <line x1="63" x2="75" y1="63" style="clip-path:url(#clipPath24); fill:none; stroke-dasharray:none; stroke-miterlimit:10;" y2="69" />
      <line x1="63" x2="75" y1="63" style="clip-path:url(#clipPath24); fill:none; stroke-dasharray:none; stroke-miterlimit:10;" y2="57" />
    </g>
    <g transform="translate(136.75,292)" style="font-size:11; stroke-linecap:butt; text-rendering:geometricPrecision; font-family:sans-serif; stroke-linejoin:round;">
      <line x1="63" x2="291" y1="63" style="clip-path:url(#clipPath25); fill:none;" y2="63" />
      <polygon style="clip-path:url(#clipPath25); stroke:none;" points=" 291 63 279 57 279 69" />
      <polygon style="fill:none; clip-path:url(#clipPath25);" points=" 291 63 279 57 279 69" />
    </g>
    <g transform="translate(371.75,302)" style="font-size:11; stroke-linecap:butt; text-rendering:geometricPrecision; font-family:sans-serif; stroke-linejoin:round;">
      <line x1="63" x2="185" y1="63" style="clip-path:url(#clipPath26); fill:none;" y2="63" />
      <polygon style="clip-path:url(#clipPath26); stroke:none;" points=" 185 63 173 57 173 69" />
      <polygon style="fill:none; clip-path:url(#clipPath26);" points=" 185 63 173 57 173 69" />
    </g>
    <g transform="translate(371.75,332)" style="font-size:11; stroke-linecap:butt; text-rendering:geometricPrecision; font-family:sans-serif; stroke-linejoin:round; stroke-dasharray:8,3; stroke-miterlimit:0;">
      <line x1="185" x2="63" y1="63" style="clip-path:url(#clipPath26); fill:none;" y2="63" />
      <line x1="63" x2="75" y1="63" style="clip-path:url(#clipPath26); fill:none; stroke-dasharray:none; stroke-miterlimit:10;" y2="69" />
      <line x1="63" x2="75" y1="63" style="clip-path:url(#clipPath26); fill:none; stroke-dasharray:none; stroke-miterlimit:10;" y2="57" />
    </g>
    <g transform="translate(136.75,422)" style="font-size:11; stroke-linecap:butt; text-rendering:geometricPrecision; font-family:sans-serif; stroke-linejoin:round;">
      <line x1="63" x2="290" y1="63" style="clip-path:url(#clipPath27); fill:none;" y2="63" />
      <polygon style="clip-path:url(#clipPath27); stroke:none;" points=" 290 63 278 57 278 69" />
      <polygon style="fill:none; clip-path:url(#clipPath27);" points=" 290 63 278 57 278 69" />
    </g>
    <g transform="translate(173.75,402)" style="font-size:11; stroke-linecap:butt; text-rendering:geometricPrecision; font-family:sans-serif; stroke-linejoin:round; stroke-dasharray:4;">
      <line x1="63" x2="63" y1="63" style="clip-path:url(#clipPath28); fill:none;" y2="121" />
    </g>
    <g transform="translate(371.75,352)" style="font-size:11; stroke-linecap:butt; text-rendering:geometricPrecision; font-family:sans-serif; stroke-linejoin:round;">
      <line x1="63" x2="94" y1="63" style="clip-path:url(#clipPath29); fill:none;" y2="63" />
      <line x1="94" x2="94" y1="63" style="clip-path:url(#clipPath29); fill:none;" y2="83" />
      <line x1="94" x2="63" y1="83" style="clip-path:url(#clipPath29); fill:none;" y2="83" />
      <polygon style="clip-path:url(#clipPath29); stroke:none;" points=" 63 83 75 89 75 77" />
      <polygon style="fill:none; clip-path:url(#clipPath29);" points=" 63 83 75 89 75 77" />
    </g>
    <g transform="translate(136.75,192)" style="font-size:11; stroke-linecap:butt; stroke-dashoffset:1; text-rendering:geometricPrecision; font-family:sans-serif; stroke-linejoin:round; stroke-dasharray:5;">
      <line x1="63" x2="219" y1="63" style="clip-path:url(#clipPath30); fill:none;" y2="63" />
      <line x1="219" x2="207" y1="63" style="stroke-dashoffset:0; clip-path:url(#clipPath30); fill:none; stroke-dasharray:none;" y2="57" />
      <line x1="219" x2="207" y1="63" style="stroke-dashoffset:0; clip-path:url(#clipPath30); fill:none; stroke-dasharray:none;" y2="69" />
    </g>
    <g transform="translate(-8.25,432)" style="font-size:11; stroke-linecap:butt; text-rendering:geometricPrecision; font-family:sans-serif; stroke-linejoin:round; stroke-dasharray:8,3; stroke-miterlimit:0;">
      <line x1="200" x2="63" y1="63" style="clip-path:url(#clipPath23); fill:none;" y2="63" />
      <line x1="63" x2="75" y1="63" style="clip-path:url(#clipPath23); fill:none; stroke-dasharray:none; stroke-miterlimit:10;" y2="69" />
      <line x1="63" x2="75" y1="63" style="clip-path:url(#clipPath23); fill:none; stroke-dasharray:none; stroke-miterlimit:10;" y2="57" />
    </g>
    <g style="text-rendering:geometricPrecision; font-size:11; font-family:sans-serif;" transform="translate(75.75,474)">
      <text x="9" y="12" style="clip-path:url(#clipPath31); stroke:none;" xml:space="preserve">1.6: visszajelzés</text>
    </g>
    <g style="text-rendering:geometricPrecision; font-size:11; font-family:sans-serif;" transform="translate(194.75,224)">
      <text x="50" y="12" style="clip-path:url(#clipPath32); stroke:none;" xml:space="preserve">&lt;&lt;create&gt;&gt;</text>
      <text x="11" y="27" style="clip-path:url(#clipPath32); stroke:none;" xml:space="preserve">1.3: SourceWriter(fileName)</text>
    </g>
    <g style="text-rendering:geometricPrecision; font-size:11; font-family:sans-serif;" transform="translate(465.75,414)">
      <text x="10" y="12" style="clip-path:url(#clipPath33); stroke:none;" xml:space="preserve">1.4.3: fájlba írás</text>
    </g>
    <g style="text-rendering:geometricPrecision; font-size:11; font-family:sans-serif;" transform="translate(234.75,464)">
      <text x="9" y="12" style="clip-path:url(#clipPath34); stroke:none;" xml:space="preserve">1.5: close()</text>
    </g>
    <g style="text-rendering:geometricPrecision; font-size:11; font-family:sans-serif;" transform="translate(449.75,374)">
      <text x="10" y="12" style="clip-path:url(#clipPath35); stroke:none;" xml:space="preserve">1.4.2: values</text>
    </g>
    <g style="text-rendering:geometricPrecision; font-size:11; font-family:sans-serif;" transform="translate(437.75,344)">
      <text x="10" y="12" style="clip-path:url(#clipPath36); stroke:none;" xml:space="preserve">1.4.1: getValues()</text>
    </g>
    <g style="text-rendering:geometricPrecision; font-size:11; font-family:sans-serif;" transform="translate(219.75,334)">
      <text x="9" y="12" style="clip-path:url(#clipPath31); stroke:none;" xml:space="preserve">1.4: add(source)</text>
    </g>
    <g style="text-rendering:geometricPrecision; font-size:11; font-family:sans-serif;" transform="translate(216.75,154)">
      <text x="9" y="12" style="clip-path:url(#clipPath37); stroke:none;" xml:space="preserve">1.2: sources</text>
    </g>
    <g style="text-rendering:geometricPrecision; font-size:11; font-family:sans-serif;" transform="translate(195.75,124)">
      <text x="9" y="12" style="clip-path:url(#clipPath38); stroke:none;" xml:space="preserve">1.1: getSources()</text>
    </g>
    <g style="text-rendering:geometricPrecision; font-size:11; font-family:sans-serif;" transform="translate(45.75,104)">
      <text x="10" y="12" style="clip-path:url(#clipPath39); stroke:none;" xml:space="preserve">1: saveSources(fileName)</text>
    </g>
  </g>
</svg>
