<?xml version="1.0" encoding="UTF-8"?>

<!DOCTYPE svg PUBLIC '-//W3C//DTD SVG 1.0//EN' 'http://www.w3.org/TR/2001/REC-SVG-20010904/DTD/svg10.dtd'>
<svg style="fill-opacity:1; color-rendering:auto; color-interpolation:auto; stroke:black; text-rendering:auto; stroke-linecap:square; stroke-miterlimit:10; stroke-opacity:1; shape-rendering:auto; fill:black; stroke-dasharray:none; font-weight:normal; stroke-width:1; font-family:&apos;Dialog&apos;; font-style:normal; stroke-linejoin:miter; font-size:12; stroke-dashoffset:0; image-rendering:auto;" xmlns="http://www.w3.org/2000/svg" width="754" xmlns:xlink="http://www.w3.org/1999/xlink" height="518">
  <!--Generated by the Batik Graphics2D SVG Generator-->
  <defs id="genericDefs" />
  <g>
    <defs id="defs1">
      <clipPath clipPathUnits="userSpaceOnUse" id="clipPath1">
        <path d="M-3 -3 L67 -3 L67 457 L-3 457 L-3 -3 Z" />
      </clipPath>
      <clipPath clipPathUnits="userSpaceOnUse" id="clipPath2">
        <path d="M-3 -3 L97 -3 L97 177 L-3 177 L-3 -3 Z" />
      </clipPath>
      <clipPath clipPathUnits="userSpaceOnUse" id="clipPath3">
        <path d="M-3 -3 L15 -3 L15 77 L-3 77 L-3 -3 Z" />
      </clipPath>
      <clipPath clipPathUnits="userSpaceOnUse" id="clipPath4">
        <path d="M-3 -3 L107 -3 L107 377 L-3 377 L-3 -3 Z" />
      </clipPath>
      <clipPath clipPathUnits="userSpaceOnUse" id="clipPath5">
        <path d="M-3 -3 L15 -3 L15 289 L-3 289 L-3 -3 Z" />
      </clipPath>
      <clipPath clipPathUnits="userSpaceOnUse" id="clipPath6">
        <path d="M-3 -3 L97 -3 L97 457 L-3 457 L-3 -3 Z" />
      </clipPath>
      <clipPath clipPathUnits="userSpaceOnUse" id="clipPath7">
        <path d="M-3 -3 L15 -3 L15 277 L-3 277 L-3 -3 Z" />
      </clipPath>
      <clipPath clipPathUnits="userSpaceOnUse" id="clipPath8">
        <path d="M-3 -3 L15 -3 L15 47 L-3 47 L-3 -3 Z" />
      </clipPath>
      <clipPath clipPathUnits="userSpaceOnUse" id="clipPath9">
        <path d="M-3 -3 L213 -3 L213 138 L-3 138 L-3 -3 Z" />
      </clipPath>
      <clipPath clipPathUnits="userSpaceOnUse" id="clipPath10">
        <path d="M0 0 L33 0 L33 18 L0 18 L0 0 Z" />
      </clipPath>
      <clipPath clipPathUnits="userSpaceOnUse" id="clipPath11">
        <path d="M-3 -3 L213 -3 L213 119 L-3 119 L-3 -3 Z" />
      </clipPath>
      <clipPath clipPathUnits="userSpaceOnUse" id="clipPath12">
        <path d="M0 0 L147 0 L147 15 L0 15 L0 0 Z" />
      </clipPath>
      <clipPath clipPathUnits="userSpaceOnUse" id="clipPath13">
        <path d="M0 0 L0 4 L206 4 L206 0 Z" />
      </clipPath>
      <clipPath clipPathUnits="userSpaceOnUse" id="clipPath14">
        <path d="M-3 -3 L15 -3 L15 19 L-3 19 L-3 -3 Z" />
      </clipPath>
      <clipPath clipPathUnits="userSpaceOnUse" id="clipPath15">
        <path d="M-3 -3 L197 -3 L197 67 L-3 67 L-3 -3 Z" />
      </clipPath>
      <clipPath clipPathUnits="userSpaceOnUse" id="clipPath16">
        <path d="M0 0 L0 60 L190 60 L190 0 Z" />
      </clipPath>
      <clipPath clipPathUnits="userSpaceOnUse" id="clipPath17">
        <path d="M-60 -30 L120 -30 L120 60 L-60 60 L-60 -30 Z" />
      </clipPath>
      <clipPath clipPathUnits="userSpaceOnUse" id="clipPath18">
        <path d="M-90 -30 L180 -30 L180 60 L-90 60 L-90 -30 Z" />
      </clipPath>
      <clipPath clipPathUnits="userSpaceOnUse" id="clipPath19">
        <path d="M-100 -30 L200 -30 L200 60 L-100 60 L-100 -30 Z" />
      </clipPath>
      <clipPath clipPathUnits="userSpaceOnUse" id="clipPath20">
        <path d="M-79 -14 L158 -14 L158 28 L-79 28 L-79 -14 Z" />
      </clipPath>
      <clipPath clipPathUnits="userSpaceOnUse" id="clipPath21">
        <path d="M0 0 L265 0 L265 146 L0 146 L0 0 Z" />
      </clipPath>
      <clipPath clipPathUnits="userSpaceOnUse" id="clipPath22">
        <path d="M0 0 L500 0 L500 337 L0 337 L0 0 Z" />
      </clipPath>
      <clipPath clipPathUnits="userSpaceOnUse" id="clipPath23">
        <path d="M0 0 L370 0 L370 357 L0 357 L0 0 Z" />
      </clipPath>
      <clipPath clipPathUnits="userSpaceOnUse" id="clipPath24">
        <path d="M0 0 L178 0 L178 167 L0 167 L0 0 Z" />
      </clipPath>
      <clipPath clipPathUnits="userSpaceOnUse" id="clipPath25">
        <path d="M0 0 L482 0 L482 146 L0 146 L0 0 Z" />
      </clipPath>
      <clipPath clipPathUnits="userSpaceOnUse" id="clipPath26">
        <path d="M0 0 L328 0 L328 147 L0 147 L0 0 Z" />
      </clipPath>
      <clipPath clipPathUnits="userSpaceOnUse" id="clipPath27">
        <path d="M0 0 L430 0 L430 337 L0 337 L0 0 Z" />
      </clipPath>
      <clipPath clipPathUnits="userSpaceOnUse" id="clipPath28">
        <path d="M0 0 L146 0 L146 206 L0 206 L0 0 Z" />
      </clipPath>
      <clipPath clipPathUnits="userSpaceOnUse" id="clipPath29">
        <path d="M0 0 L264 0 L264 147 L0 147 L0 0 Z" />
      </clipPath>
      <clipPath clipPathUnits="userSpaceOnUse" id="clipPath30">
        <path d="M-97 -11 L194 -11 L194 22 L-97 22 L-97 -11 Z" />
      </clipPath>
      <clipPath clipPathUnits="userSpaceOnUse" id="clipPath31">
        <path d="M-187 -11 L374 -11 L374 22 L-187 22 L-187 -11 Z" />
      </clipPath>
      <clipPath clipPathUnits="userSpaceOnUse" id="clipPath32">
        <path d="M-70 -11 L140 -11 L140 22 L-70 22 L-70 -11 Z" />
      </clipPath>
      <clipPath clipPathUnits="userSpaceOnUse" id="clipPath33">
        <path d="M-91 -11 L182 -11 L182 22 L-91 22 L-91 -11 Z" />
      </clipPath>
      <clipPath clipPathUnits="userSpaceOnUse" id="clipPath34">
        <path d="M-157 -30 L314 -30 L314 60 L-157 60 L-157 -30 Z" />
      </clipPath>
      <clipPath clipPathUnits="userSpaceOnUse" id="clipPath35">
        <path d="M-101 -11 L202 -11 L202 22 L-101 22 L-101 -11 Z" />
      </clipPath>
      <clipPath clipPathUnits="userSpaceOnUse" id="clipPath36">
        <path d="M-90 -11 L180 -11 L180 22 L-90 22 L-90 -11 Z" />
      </clipPath>
      <clipPath clipPathUnits="userSpaceOnUse" id="clipPath37">
        <path d="M-141 -11 L282 -11 L282 22 L-141 22 L-141 -11 Z" />
      </clipPath>
      <clipPath clipPathUnits="userSpaceOnUse" id="clipPath38">
        <path d="M-180 -30 L360 -30 L360 60 L-180 60 L-180 -30 Z" />
      </clipPath>
      <clipPath clipPathUnits="userSpaceOnUse" id="clipPath39">
        <path d="M-147 -17 L294 -17 L294 34 L-147 34 L-147 -17 Z" />
      </clipPath>
    </defs>
    <g style="fill:white; text-rendering:geometricPrecision; stroke:white;">
      <rect x="0" y="0" width="754" style="stroke:none;" height="518" />
      <rect x="0" y="18" transform="translate(0,-18)" width="753" style="fill:none; stroke:black;" height="517" />
      <text x="7" y="35" transform="translate(0,-18)" style="fill:black; stroke:none; font-weight:bold;" xml:space="preserve">sd</text>
      <text x="28" y="35" transform="translate(0,-18)" style="fill:black; stroke:none;" xml:space="preserve">Jelforrások betöltése</text>
      <line transform="translate(0,-18)" x1="0" x2="143" y1="42" style="fill:none; stroke:black;" y2="42" />
      <line transform="translate(0,-18)" x1="149" x2="149" y1="18" style="fill:none; stroke:black;" y2="32" />
      <line transform="translate(0,-18)" x1="149" x2="143" y1="32" style="fill:none; stroke:black;" y2="42" />
    </g>
    <g transform="translate(20,54)" style="font-size:11; fill:white; text-rendering:geometricPrecision; font-family:sans-serif; stroke:white;">
      <circle style="clip-path:url(#clipPath1); stroke:none;" r="5" cx="30" cy="5" />
      <rect x="26" y="48" width="8" style="clip-path:url(#clipPath1); stroke:none;" height="401" />
    </g>
    <g transform="translate(20,54)" style="font-size:11; stroke-linecap:butt; text-rendering:geometricPrecision; font-family:sans-serif; stroke-linejoin:round; stroke-miterlimit:0;">
      <circle style="fill:none; clip-path:url(#clipPath1);" r="5" cx="30" cy="5" />
      <rect x="26" y="48" width="8" style="clip-path:url(#clipPath1); fill:none;" height="401" />
      <line x1="30" x2="30" y1="10" style="clip-path:url(#clipPath1); fill:none;" y2="25" />
      <line x1="30" x2="21" y1="25" style="clip-path:url(#clipPath1); fill:none;" y2="36" />
      <line x1="30" x2="39" y1="25" style="clip-path:url(#clipPath1); fill:none;" y2="36" />
      <line x1="21" x2="39" y1="16" style="clip-path:url(#clipPath1); fill:none;" y2="16" />
    </g>
    <g transform="translate(133,54)" style="font-size:11; fill:white; text-rendering:geometricPrecision; font-family:sans-serif; stroke:white;">
      <rect x="0" y="0" width="89" style="clip-path:url(#clipPath2); stroke:none;" height="35" />
    </g>
    <g transform="translate(133,54)" style="font-size:11; stroke-linecap:butt; text-rendering:geometricPrecision; font-family:sans-serif; stroke-linejoin:round; stroke-miterlimit:0;">
      <line x1="35" x2="53" y1="152" style="clip-path:url(#clipPath2); fill:none;" y2="170" />
      <line x1="35" x2="53" y1="170" style="clip-path:url(#clipPath2); fill:none;" y2="152" />
      <rect x="0" y="0" width="89" style="clip-path:url(#clipPath2); fill:none;" height="35" />
      <line x1="44" x2="44" y1="35" style="clip-path:url(#clipPath2); fill:none; stroke-linejoin:bevel; stroke-dasharray:8,3;" y2="161" />
    </g>
    <g transform="translate(173,130)" style="font-size:11; fill:white; text-rendering:geometricPrecision; font-family:sans-serif; stroke:white;">
      <rect x="0" y="0" width="8" style="clip-path:url(#clipPath3); stroke:none;" height="70" />
    </g>
    <g transform="translate(173,130)" style="font-size:11; stroke-linecap:butt; text-rendering:geometricPrecision; font-family:sans-serif; stroke-linejoin:round; stroke-miterlimit:0;">
      <rect x="0" y="0" width="8" style="clip-path:url(#clipPath3); fill:none;" height="70" />
    </g>
    <g transform="translate(343,134)" style="font-size:11; fill:white; text-rendering:geometricPrecision; font-family:sans-serif; stroke:white;">
      <rect x="0" y="0" width="99" style="clip-path:url(#clipPath4); stroke:none;" height="35" />
    </g>
    <g transform="translate(343,134)" style="font-size:11; stroke-linecap:butt; text-rendering:geometricPrecision; font-family:sans-serif; stroke-linejoin:round; stroke-miterlimit:0;">
      <rect x="0" y="0" width="99" style="clip-path:url(#clipPath4); fill:none;" height="35" />
      <line x1="49" x2="49" y1="35" style="clip-path:url(#clipPath4); fill:none; stroke-linejoin:bevel; stroke-dasharray:8,3;" y2="370" />
    </g>
    <g transform="translate(463,54)" style="font-size:11; fill:white; text-rendering:geometricPrecision; font-family:sans-serif; stroke:white;">
      <rect x="0" y="0" width="59" style="clip-path:url(#clipPath1); stroke:none;" height="35" />
    </g>
    <g transform="translate(463,54)" style="font-size:11; stroke-linecap:butt; text-rendering:geometricPrecision; font-family:sans-serif; stroke-linejoin:round; stroke-miterlimit:0;">
      <rect x="0" y="0" width="59" style="clip-path:url(#clipPath1); fill:none;" height="35" />
      <line x1="29" x2="29" y1="35" style="clip-path:url(#clipPath1); fill:none; stroke-linejoin:bevel; stroke-dasharray:8,3;" y2="450" />
    </g>
    <g transform="translate(390,190)" style="font-size:11; fill:white; text-rendering:geometricPrecision; font-family:sans-serif; stroke:white;">
      <rect x="0" y="0" width="8" style="clip-path:url(#clipPath5); stroke:none;" height="282" />
    </g>
    <g transform="translate(390,190)" style="font-size:11; stroke-linecap:butt; text-rendering:geometricPrecision; font-family:sans-serif; stroke-linejoin:round; stroke-miterlimit:0;">
      <rect x="0" y="0" width="8" style="clip-path:url(#clipPath5); fill:none;" height="282" />
    </g>
    <g transform="translate(540,54)" style="font-size:11; fill:white; text-rendering:geometricPrecision; font-family:sans-serif; stroke:white;">
      <rect x="0" y="0" width="89" style="clip-path:url(#clipPath6); stroke:none;" height="35" />
    </g>
    <g transform="translate(540,54)" style="font-size:11; stroke-linecap:butt; text-rendering:geometricPrecision; font-family:sans-serif; stroke-linejoin:round; stroke-miterlimit:0;">
      <rect x="0" y="0" width="89" style="clip-path:url(#clipPath6); fill:none;" height="35" />
      <line x1="44" x2="44" y1="35" style="clip-path:url(#clipPath6); fill:none; stroke-linejoin:bevel; stroke-dasharray:8,3;" y2="450" />
    </g>
    <g transform="translate(680,54)" style="font-size:11; fill:white; text-rendering:geometricPrecision; font-family:sans-serif; stroke:white;">
      <rect x="0" y="0" width="59" style="clip-path:url(#clipPath1); stroke:none;" height="35" />
    </g>
    <g transform="translate(680,54)" style="font-size:11; stroke-linecap:butt; text-rendering:geometricPrecision; font-family:sans-serif; stroke-linejoin:round; stroke-miterlimit:0;">
      <rect x="0" y="0" width="59" style="clip-path:url(#clipPath1); fill:none;" height="35" />
      <line x1="29" x2="29" y1="35" style="clip-path:url(#clipPath1); fill:none; stroke-linejoin:bevel; stroke-dasharray:8,3;" y2="450" />
    </g>
    <g transform="translate(580,208)" style="font-size:11; fill:white; text-rendering:geometricPrecision; font-family:sans-serif; stroke:white;">
      <rect x="0" y="0" width="8" style="clip-path:url(#clipPath7); stroke:none;" height="270" />
    </g>
    <g transform="translate(580,208)" style="font-size:11; stroke-linecap:butt; text-rendering:geometricPrecision; font-family:sans-serif; stroke-linejoin:round; stroke-miterlimit:0;">
      <rect x="0" y="0" width="8" style="clip-path:url(#clipPath7); fill:none;" height="270" />
    </g>
    <g transform="translate(490,240)" style="font-size:11; fill:white; text-rendering:geometricPrecision; font-family:sans-serif; stroke:white;">
      <rect x="0" y="0" width="8" style="clip-path:url(#clipPath8); stroke:none;" height="40" />
    </g>
    <g transform="translate(490,240)" style="font-size:11; stroke-linecap:butt; text-rendering:geometricPrecision; font-family:sans-serif; stroke-linejoin:round; stroke-miterlimit:0;">
      <rect x="0" y="0" width="8" style="clip-path:url(#clipPath8); fill:none;" height="40" />
    </g>
    <g transform="translate(534,334)" style="font-size:11; stroke-linecap:butt; text-rendering:geometricPrecision; font-family:sans-serif; stroke-linejoin:round; font-weight:bold; stroke-miterlimit:0;">
      <rect x="0" y="0" width="206" style="clip-path:url(#clipPath9); fill:none;" height="131" />
    </g>
    <g transform="translate(534,334)" style="font-size:11; fill:white; text-rendering:geometricPrecision; font-family:sans-serif; stroke:white; font-weight:bold;">
      <path d="M32 0 L32 9 L26 17 L0 17 L0 0 Z" style="clip-path:url(#clipPath9); stroke:none;" />
    </g>
    <g transform="translate(534,334)" style="font-size:11; stroke-linecap:butt; text-rendering:geometricPrecision; font-family:sans-serif; stroke-linejoin:round; font-weight:bold; stroke-miterlimit:0;">
      <path d="M32 0 L32 9 L26 17 L0 17 L0 0 Z" style="fill:none; clip-path:url(#clipPath9);" />
    </g>
    <g transform="translate(534,334)" style="text-rendering:geometricPrecision; font-size:11; font-weight:bold; font-family:sans-serif;">
      <text x="4" y="12" style="clip-path:url(#clipPath10); stroke:none;" xml:space="preserve">loop</text>
    </g>
    <g transform="translate(534,353)" style="font-size:11; fill:white; text-rendering:geometricPrecision; font-family:sans-serif; stroke:white;">
      <rect x="28" y="5" width="147" style="clip-path:url(#clipPath11); stroke:none;" height="15" />
    </g>
    <g style="text-rendering:geometricPrecision; font-size:11; font-family:sans-serif;" transform="translate(562,358)">
      <text x="11" y="12" style="clip-path:url(#clipPath12); stroke:none;" xml:space="preserve">[sources minden elemére]</text>
    </g>
    <g transform="translate(706,428)" style="font-size:11; fill:white; text-rendering:geometricPrecision; font-family:sans-serif; stroke:white;">
      <rect x="0" y="0" width="8" style="clip-path:url(#clipPath14); stroke:none;" height="12" />
    </g>
    <g transform="translate(706,428)" style="font-size:11; stroke-linecap:butt; text-rendering:geometricPrecision; font-family:sans-serif; stroke-linejoin:round; stroke-miterlimit:0;">
      <rect x="0" y="0" width="8" style="clip-path:url(#clipPath14); fill:none;" height="12" />
    </g>
    <g transform="translate(240,34)" style="font-size:11; fill:white; text-rendering:geometricPrecision; font-family:sans-serif; stroke:white;">
      <polygon style="clip-path:url(#clipPath15); stroke:none;" points=" 0 0 174 0 189 15 174 15 174 0 189 15 189 59 0 59" />
    </g>
    <g transform="translate(240,34)" style="font-size:11; stroke-linecap:butt; text-rendering:geometricPrecision; font-family:sans-serif; stroke-linejoin:round; stroke-miterlimit:0;">
      <polygon style="fill:none; clip-path:url(#clipPath15);" points=" 0 0 174 0 189 15 174 15 174 0 189 15 189 59 0 59" />
    </g>
    <g style="text-rendering:geometricPrecision; font-size:11; font-family:&apos;Tahoma&apos;;" transform="translate(240,34)">
      <path d="M3.8906 14.9704 L3.8906 6.3767 L5.6094 6.3767 L7.6406 12.4548 Q7.9219 13.3142 8.0469 13.7361 Q8.1875 13.2673 8.5 12.3611 L10.5625 6.3767 L12.0938 6.3767 L12.0938 14.9704 L11 14.9704 L11 7.7829 L8.5 14.9704 L7.4688 14.9704 L4.9844 7.6579 L4.9844 14.9704 L3.8906 14.9704 ZM12.7969 7.5954 L12.7969 6.3767 L13.8594 6.3767 L13.8594 7.5954 L12.7969 7.5954 ZM12.7969 14.9704 L12.7969 8.7517 L13.8594 8.7517 L13.8594 14.9704 L12.7969 14.9704 ZM17.5156 14.9704 L15.1562 8.7517 L16.2656 8.7517 L17.6094 12.4704 Q17.8125 13.0798 18 13.7204 Q18.1406 13.2361 18.3906 12.5486 L19.7812 8.7517 L20.8594 8.7517 L18.5 14.9704 L17.5156 14.9704 ZM25.0469 12.9704 L26.1406 13.0954 Q25.8906 14.0486 25.1875 14.5798 Q24.4844 15.1111 23.4062 15.1111 Q22.0469 15.1111 21.2422 14.2673 Q20.4375 13.4236 20.4375 11.9079 Q20.4375 10.3454 21.25 9.4782 Q22.0625 8.6111 23.3438 8.6111 Q24.5938 8.6111 25.3828 9.4548 Q26.1719 10.2986 26.1719 11.8454 Q26.1719 11.9392 26.1719 12.1267 L21.5312 12.1267 Q21.5938 13.1579 22.1094 13.697 Q22.625 14.2361 23.4062 14.2361 Q23.9844 14.2361 24.3984 13.9314 Q24.8125 13.6267 25.0469 12.9704 ZM21.5938 11.2673 L25.0625 11.2673 Q25 10.4704 24.6719 10.0798 Q24.1562 9.4704 23.3594 9.4704 Q22.625 9.4704 22.1328 9.9548 Q21.6406 10.4392 21.5938 11.2673 ZM27.7656 14.9704 L27.7656 6.3767 L28.8281 6.3767 L28.8281 14.9704 L27.7656 14.9704 ZM37.8594 14.2048 Q37.2656 14.7048 36.7266 14.9079 Q36.1875 15.1111 35.5625 15.1111 Q34.5312 15.1111 33.9844 14.6111 Q33.4375 14.1111 33.4375 13.3298 Q33.4375 12.8767 33.6406 12.4939 Q33.8438 12.1111 34.1875 11.8845 Q34.5312 11.6579 34.9531 11.5486 Q35.25 11.4548 35.8906 11.3767 Q37.1562 11.2361 37.7656 11.0173 Q37.7656 10.7986 37.7656 10.7517 Q37.7656 10.0954 37.4688 9.8298 Q37.0625 9.4861 36.2656 9.4861 Q35.5312 9.4861 35.1719 9.7439 Q34.8125 10.0017 34.6406 10.6579 L33.6094 10.5173 Q33.75 9.8611 34.0781 9.4548 Q34.4062 9.0486 35.0156 8.8298 Q35.625 8.6111 36.4219 8.6111 Q37.2188 8.6111 37.7188 8.7986 Q38.2188 8.9861 38.4531 9.2673 Q38.6875 9.5486 38.7812 9.9861 Q38.8281 10.2517 38.8281 10.9548 L38.8281 12.3611 Q38.8281 13.8298 38.8984 14.2204 Q38.9688 14.6111 39.1719 14.9704 L38.0625 14.9704 Q37.9062 14.6423 37.8594 14.2048 ZM37.7656 11.8454 Q37.1875 12.0798 36.0469 12.2517 Q35.3906 12.3454 35.125 12.4626 Q34.8594 12.5798 34.7109 12.7986 Q34.5625 13.0173 34.5625 13.2986 Q34.5625 13.7204 34.8828 14.0017 Q35.2031 14.2829 35.8125 14.2829 Q36.4219 14.2829 36.8984 14.0173 Q37.375 13.7517 37.5938 13.2829 Q37.7656 12.9236 37.7656 12.2361 L37.7656 11.8454 ZM40.2344 14.9704 L40.2344 14.1111 L44.2031 9.5642 Q43.5156 9.5954 43 9.5954 L40.4688 9.5954 L40.4688 8.7517 L45.5625 8.7517 L45.5625 9.4392 L42.1875 13.3923 L41.5312 14.1111 Q42.25 14.0642 42.8594 14.0642 L45.75 14.0642 L45.75 14.9704 L40.2344 14.9704 ZM53.0469 12.9704 L54.1406 13.0954 Q53.8906 14.0486 53.1875 14.5798 Q52.4844 15.1111 51.4062 15.1111 Q50.0469 15.1111 49.2422 14.2673 Q48.4375 13.4236 48.4375 11.9079 Q48.4375 10.3454 49.25 9.4782 Q50.0625 8.6111 51.3438 8.6111 Q52.5938 8.6111 53.3828 9.4548 Q54.1719 10.2986 54.1719 11.8454 Q54.1719 11.9392 54.1719 12.1267 L49.5312 12.1267 Q49.5938 13.1579 50.1094 13.697 Q50.625 14.2361 51.4062 14.2361 Q51.9844 14.2361 52.3984 13.9314 Q52.8125 13.6267 53.0469 12.9704 ZM49.5938 11.2673 L53.0625 11.2673 Q53 10.4704 52.6719 10.0798 Q52.1562 9.4704 51.3594 9.4704 Q50.625 9.4704 50.1328 9.9548 Q49.6406 10.4392 49.5938 11.2673 ZM55.7656 14.9704 L55.7656 6.3767 L56.8281 6.3767 L56.8281 14.9704 L55.7656 14.9704 ZM58.4062 11.8611 Q58.4062 10.1267 59.3594 9.2986 Q60.1562 8.6111 61.3125 8.6111 Q62.5938 8.6111 63.4141 9.447 Q64.2344 10.2829 64.2344 11.7673 Q64.2344 12.9704 63.875 13.6579 Q63.5156 14.3454 62.8203 14.7282 Q62.125 15.1111 61.3125 15.1111 Q60.0156 15.1111 59.2109 14.2751 Q58.4062 13.4392 58.4062 11.8611 ZM59.4844 11.8611 Q59.4844 13.0486 60.0078 13.6423 Q60.5312 14.2361 61.3125 14.2361 Q62.1094 14.2361 62.625 13.6423 Q63.1406 13.0486 63.1406 11.8298 Q63.1406 10.6736 62.6172 10.0798 Q62.0938 9.4861 61.3125 9.4861 Q60.5312 9.4861 60.0078 10.072 Q59.4844 10.6579 59.4844 11.8611 ZM59.9688 6.9704 L60.6719 5.3298 L62.0469 5.3298 L60.8125 6.9704 L59.9688 6.9704 ZM62 6.9704 L62.75 5.3298 L64.0938 5.3298 L62.8906 6.9704 L62 6.9704 ZM65.2344 14.9704 L65.2344 14.1111 L69.2031 9.5642 Q68.5156 9.5954 68 9.5954 L65.4688 9.5954 L65.4688 8.7517 L70.5625 8.7517 L70.5625 9.4392 L67.1875 13.3923 L66.5312 14.1111 Q67.25 14.0642 67.8594 14.0642 L70.75 14.0642 L70.75 14.9704 L65.2344 14.9704 ZM70.4062 11.8611 Q70.4062 10.1267 71.3594 9.2986 Q72.1562 8.6111 73.3125 8.6111 Q74.5938 8.6111 75.4141 9.447 Q76.2344 10.2829 76.2344 11.7673 Q76.2344 12.9704 75.875 13.6579 Q75.5156 14.3454 74.8203 14.7282 Q74.125 15.1111 73.3125 15.1111 Q72.0156 15.1111 71.2109 14.2751 Q70.4062 13.4392 70.4062 11.8611 ZM71.4844 11.8611 Q71.4844 13.0486 72.0078 13.6423 Q72.5312 14.2361 73.3125 14.2361 Q74.1094 14.2361 74.625 13.6423 Q75.1406 13.0486 75.1406 11.8298 Q75.1406 10.6736 74.6172 10.0798 Q74.0938 9.4861 73.3125 9.4861 Q72.5312 9.4861 72.0078 10.072 Q71.4844 10.6579 71.4844 11.8611 ZM71.9688 6.9704 L72.6719 5.3298 L74.0469 5.3298 L72.8125 6.9704 L71.9688 6.9704 ZM74 6.9704 L74.75 5.3298 L76.0938 5.3298 L74.8906 6.9704 L74 6.9704 ZM80.375 13.1111 L81.4062 12.9548 Q81.5 13.5798 81.8984 13.9079 Q82.2969 14.2361 83.0312 14.2361 Q83.75 14.2361 84.1016 13.947 Q84.4531 13.6579 84.4531 13.2517 Q84.4531 12.8923 84.1406 12.6892 Q83.9219 12.5486 83.0625 12.3298 Q81.9062 12.0329 81.4609 11.822 Q81.0156 11.6111 80.7812 11.2361 Q80.5469 10.8611 80.5469 10.3923 Q80.5469 9.9861 80.7344 9.6267 Q80.9219 9.2673 81.25 9.0329 Q81.5 8.8611 81.9219 8.7361 Q82.3438 8.6111 82.8438 8.6111 Q83.5625 8.6111 84.1172 8.822 Q84.6719 9.0329 84.9375 9.3923 Q85.2031 9.7517 85.2969 10.3454 L84.2656 10.4861 Q84.2031 10.0173 83.8672 9.7439 Q83.5312 9.4704 82.9062 9.4704 Q82.1875 9.4704 81.875 9.7126 Q81.5625 9.9548 81.5625 10.2829 Q81.5625 10.4861 81.6875 10.6423 Q81.8281 10.8142 82.0938 10.9236 Q82.25 10.9861 83.0312 11.1892 Q84.1562 11.5017 84.5938 11.6892 Q85.0312 11.8767 85.2812 12.2361 Q85.5312 12.5954 85.5312 13.1423 Q85.5312 13.6736 85.2266 14.1345 Q84.9219 14.5954 84.3438 14.8532 Q83.7656 15.1111 83.0312 15.1111 Q81.8125 15.1111 81.1797 14.6032 Q80.5469 14.0954 80.375 13.1111 ZM87.2344 14.9704 L87.2344 14.1111 L91.2031 9.5642 Q90.5156 9.5954 90 9.5954 L87.4688 9.5954 L87.4688 8.7517 L92.5625 8.7517 L92.5625 9.4392 L89.1875 13.3923 L88.5312 14.1111 Q89.25 14.0642 89.8594 14.0642 L92.75 14.0642 L92.75 14.9704 L87.2344 14.9704 ZM92.7969 7.5954 L92.7969 6.3767 L93.8594 6.3767 L93.8594 7.5954 L92.7969 7.5954 ZM92.7969 14.9704 L92.7969 8.7517 L93.8594 8.7517 L93.8594 14.9704 L92.7969 14.9704 ZM95.7969 14.9704 L95.7969 8.7517 L96.7344 8.7517 L96.7344 9.6267 Q97.0312 9.1579 97.5156 8.8845 Q98 8.6111 98.625 8.6111 Q99.3125 8.6111 99.7578 8.8923 Q100.2031 9.1736 100.375 9.6892 Q101.125 8.6111 102.2969 8.6111 Q103.2344 8.6111 103.7266 9.1189 Q104.2188 9.6267 104.2188 10.7048 L104.2188 14.9704 L103.1719 14.9704 L103.1719 11.0486 Q103.1719 10.4236 103.0703 10.1423 Q102.9688 9.8611 102.7031 9.6892 Q102.4375 9.5173 102.0625 9.5173 Q101.4062 9.5173 100.9766 9.9548 Q100.5469 10.3923 100.5469 11.3611 L100.5469 14.9704 L99.4844 14.9704 L99.4844 10.9236 Q99.4844 10.2204 99.2266 9.8689 Q98.9688 9.5173 98.3906 9.5173 Q97.9375 9.5173 97.5625 9.7517 Q97.1875 9.9861 97.0156 10.4392 Q96.8438 10.8923 96.8438 11.7361 L96.8438 14.9704 L95.7969 14.9704 ZM110.875 14.9704 L110.875 14.0486 Q110.1406 15.1111 108.8906 15.1111 Q108.3438 15.1111 107.8672 14.9001 Q107.3906 14.6892 107.1562 14.3689 Q106.9219 14.0486 106.8281 13.5798 Q106.7656 13.2829 106.7656 12.5954 L106.7656 8.7517 L107.8281 8.7517 L107.8281 12.2048 Q107.8281 13.0173 107.8906 13.3142 Q107.9844 13.7204 108.3047 13.9626 Q108.625 14.2048 109.1094 14.2048 Q109.5781 14.2048 109.9922 13.9626 Q110.4062 13.7204 110.5859 13.2986 Q110.7656 12.8767 110.7656 12.0798 L110.7656 8.7517 L111.8125 8.7517 L111.8125 14.9704 L110.875 14.9704 ZM113.7656 14.9704 L113.7656 6.3767 L114.8281 6.3767 L114.8281 14.9704 L113.7656 14.9704 ZM120.8594 14.2048 Q120.2656 14.7048 119.7266 14.9079 Q119.1875 15.1111 118.5625 15.1111 Q117.5312 15.1111 116.9844 14.6111 Q116.4375 14.1111 116.4375 13.3298 Q116.4375 12.8767 116.6406 12.4939 Q116.8438 12.1111 117.1875 11.8845 Q117.5312 11.6579 117.9531 11.5486 Q118.25 11.4548 118.8906 11.3767 Q120.1562 11.2361 120.7656 11.0173 Q120.7656 10.7986 120.7656 10.7517 Q120.7656 10.0954 120.4688 9.8298 Q120.0625 9.4861 119.2656 9.4861 Q118.5312 9.4861 118.1719 9.7439 Q117.8125 10.0017 117.6406 10.6579 L116.6094 10.5173 Q116.75 9.8611 117.0781 9.4548 Q117.4062 9.0486 118.0156 8.8298 Q118.625 8.6111 119.4219 8.6111 Q120.2188 8.6111 120.7188 8.7986 Q121.2188 8.9861 121.4531 9.2673 Q121.6875 9.5486 121.7812 9.9861 Q121.8281 10.2517 121.8281 10.9548 L121.8281 12.3611 Q121.8281 13.8298 121.8984 14.2204 Q121.9688 14.6111 122.1719 14.9704 L121.0625 14.9704 Q120.9062 14.6423 120.8594 14.2048 ZM120.7656 11.8454 Q120.1875 12.0798 119.0469 12.2517 Q118.3906 12.3454 118.125 12.4626 Q117.8594 12.5798 117.7109 12.7986 Q117.5625 13.0173 117.5625 13.2986 Q117.5625 13.7204 117.8828 14.0017 Q118.2031 14.2829 118.8125 14.2829 Q119.4219 14.2829 119.8984 14.0173 Q120.375 13.7517 120.5938 13.2829 Q120.7656 12.9236 120.7656 12.2361 L120.7656 11.8454 ZM118.125 6.9704 L118.9062 5.3298 L120.2969 5.3298 L119 6.9704 L118.125 6.9704 ZM127.8594 12.6892 L128.8906 12.8298 Q128.7188 13.8923 128.0156 14.5017 Q127.3125 15.1111 126.2969 15.1111 Q125.0156 15.1111 124.2422 14.2751 Q123.4688 13.4392 123.4688 11.8767 Q123.4688 10.8767 123.8047 10.1189 Q124.1406 9.3611 124.8203 8.9861 Q125.5 8.6111 126.3125 8.6111 Q127.3125 8.6111 127.9609 9.1189 Q128.6094 9.6267 128.7969 10.5798 L127.7656 10.7361 Q127.625 10.1111 127.25 9.7907 Q126.875 9.4704 126.3438 9.4704 Q125.5469 9.4704 125.0469 10.0407 Q124.5469 10.6111 124.5469 11.8454 Q124.5469 13.1111 125.0312 13.6736 Q125.5156 14.2361 126.2812 14.2361 Q126.9062 14.2361 127.3203 13.8611 Q127.7344 13.4861 127.8594 12.6892 ZM129.7969 7.5954 L129.7969 6.3767 L130.8594 6.3767 L130.8594 7.5954 L129.7969 7.5954 ZM129.7969 14.9704 L129.7969 8.7517 L130.8594 8.7517 L130.8594 14.9704 L129.7969 14.9704 ZM132.4062 11.8611 Q132.4062 10.1267 133.3594 9.2986 Q134.1562 8.6111 135.3125 8.6111 Q136.5938 8.6111 137.4141 9.447 Q138.2344 10.2829 138.2344 11.7673 Q138.2344 12.9704 137.875 13.6579 Q137.5156 14.3454 136.8203 14.7282 Q136.125 15.1111 135.3125 15.1111 Q134.0156 15.1111 133.2109 14.2751 Q132.4062 13.4392 132.4062 11.8611 ZM133.4844 11.8611 Q133.4844 13.0486 134.0078 13.6423 Q134.5312 14.2361 135.3125 14.2361 Q136.1094 14.2361 136.625 13.6423 Q137.1406 13.0486 137.1406 11.8298 Q137.1406 10.6736 136.6172 10.0798 Q136.0938 9.4861 135.3125 9.4861 Q134.5312 9.4861 134.0078 10.072 Q133.4844 10.6579 133.4844 11.8611 ZM134.125 6.9704 L134.9062 5.3298 L136.2969 5.3298 L135 6.9704 L134.125 6.9704 ZM142.7656 14.9704 L142.7656 6.3767 L143.8281 6.3767 L143.8281 14.9704 L142.7656 14.9704 ZM150.0469 12.9704 L151.1406 13.0954 Q150.8906 14.0486 150.1875 14.5798 Q149.4844 15.1111 148.4062 15.1111 Q147.0469 15.1111 146.2422 14.2673 Q145.4375 13.4236 145.4375 11.9079 Q145.4375 10.3454 146.25 9.4782 Q147.0625 8.6111 148.3438 8.6111 Q149.5938 8.6111 150.3828 9.4548 Q151.1719 10.2986 151.1719 11.8454 Q151.1719 11.9392 151.1719 12.1267 L146.5312 12.1267 Q146.5938 13.1579 147.1094 13.697 Q147.625 14.2361 148.4062 14.2361 Q148.9844 14.2361 149.3984 13.9314 Q149.8125 13.6267 150.0469 12.9704 ZM146.5938 11.2673 L150.0625 11.2673 Q150 10.4704 149.6719 10.0798 Q149.1562 9.4704 148.3594 9.4704 Q147.625 9.4704 147.1328 9.9548 Q146.6406 10.4392 146.5938 11.2673 ZM156.0469 14.9704 L156.0469 9.5642 L155.1094 9.5642 L155.1094 8.7517 L156.0469 8.7517 L156.0469 8.0798 Q156.0469 7.4548 156.1562 7.1579 Q156.3125 6.7361 156.6953 6.4861 Q157.0781 6.2361 157.7656 6.2361 Q158.2188 6.2361 158.75 6.3454 L158.5938 7.2517 Q158.2656 7.2048 157.9688 7.2048 Q157.4844 7.2048 157.2891 7.4079 Q157.0938 7.6111 157.0938 8.1736 L157.0938 8.7517 L158.3125 8.7517 L158.3125 9.5642 L157.0938 9.5642 L157.0938 14.9704 L156.0469 14.9704 ZM158.4062 11.8611 Q158.4062 10.1267 159.3594 9.2986 Q160.1562 8.6111 161.3125 8.6111 Q162.5938 8.6111 163.4141 9.447 Q164.2344 10.2829 164.2344 11.7673 Q164.2344 12.9704 163.875 13.6579 Q163.5156 14.3454 162.8203 14.7282 Q162.125 15.1111 161.3125 15.1111 Q160.0156 15.1111 159.2109 14.2751 Q158.4062 13.4392 158.4062 11.8611 ZM159.4844 11.8611 Q159.4844 13.0486 160.0078 13.6423 Q160.5312 14.2361 161.3125 14.2361 Q162.1094 14.2361 162.625 13.6423 Q163.1406 13.0486 163.1406 11.8298 Q163.1406 10.6736 162.6172 10.0798 Q162.0938 9.4861 161.3125 9.4861 Q160.5312 9.4861 160.0078 10.072 Q159.4844 10.6579 159.4844 11.8611 ZM165.5938 15.4861 L166.625 15.6423 Q166.6875 16.1111 166.9844 16.3298 Q167.375 16.6267 168.0469 16.6267 Q168.7812 16.6267 169.1797 16.3298 Q169.5781 16.0329 169.7188 15.5173 Q169.8125 15.1892 169.7969 14.1579 Q169.1094 14.9704 168.0781 14.9704 Q166.7969 14.9704 166.0938 14.0407 Q165.3906 13.1111 165.3906 11.8298 Q165.3906 10.9392 165.7109 10.1814 Q166.0312 9.4236 166.6406 9.0173 Q167.25 8.6111 168.0781 8.6111 Q169.1875 8.6111 169.9062 9.5017 L169.9062 8.7517 L170.875 8.7517 L170.875 14.1267 Q170.875 15.5798 170.5781 16.1892 Q170.2812 16.7986 169.6406 17.1501 Q169 17.5017 168.0625 17.5017 Q166.9531 17.5017 166.2656 17.0017 Q165.5781 16.5017 165.5938 15.4861 ZM166.4688 11.7517 Q166.4688 12.9704 166.9531 13.5329 Q167.4375 14.0954 168.1719 14.0954 Q168.9062 14.0954 169.3984 13.5329 Q169.8906 12.9704 169.8906 11.7829 Q169.8906 10.6423 169.3828 10.0642 Q168.875 9.4861 168.1562 9.4861 Q167.4531 9.4861 166.9609 10.0564 Q166.4688 10.6267 166.4688 11.7517 Z" style="clip-path:url(#clipPath16); stroke:none;" />
      <path d="M7.8594 28.2048 Q7.2656 28.7048 6.7266 28.9079 Q6.1875 29.1111 5.5625 29.1111 Q4.5312 29.1111 3.9844 28.6111 Q3.4375 28.1111 3.4375 27.3298 Q3.4375 26.8767 3.6406 26.4939 Q3.8438 26.1111 4.1875 25.8845 Q4.5312 25.6579 4.9531 25.5486 Q5.25 25.4548 5.8906 25.3767 Q7.1562 25.2361 7.7656 25.0173 Q7.7656 24.7986 7.7656 24.7517 Q7.7656 24.0954 7.4688 23.8298 Q7.0625 23.4861 6.2656 23.4861 Q5.5312 23.4861 5.1719 23.7439 Q4.8125 24.0017 4.6406 24.6579 L3.6094 24.5173 Q3.75 23.8611 4.0781 23.4548 Q4.4062 23.0486 5.0156 22.8298 Q5.625 22.6111 6.4219 22.6111 Q7.2188 22.6111 7.7188 22.7986 Q8.2188 22.9861 8.4531 23.2673 Q8.6875 23.5486 8.7812 23.9861 Q8.8281 24.2517 8.8281 24.9548 L8.8281 26.3611 Q8.8281 27.8298 8.8984 28.2204 Q8.9688 28.6111 9.1719 28.9704 L8.0625 28.9704 Q7.9062 28.6423 7.8594 28.2048 ZM7.7656 25.8454 Q7.1875 26.0798 6.0469 26.2517 Q5.3906 26.3454 5.125 26.4626 Q4.8594 26.5798 4.7109 26.7986 Q4.5625 27.0173 4.5625 27.2986 Q4.5625 27.7204 4.8828 28.0017 Q5.2031 28.2829 5.8125 28.2829 Q6.4219 28.2829 6.8984 28.0173 Q7.375 27.7517 7.5938 27.2829 Q7.7656 26.9236 7.7656 26.2361 L7.7656 25.8454 ZM5.125 20.9704 L5.9062 19.3298 L7.2969 19.3298 L6 20.9704 L5.125 20.9704 ZM10.7656 28.9704 L10.7656 20.3767 L11.8281 20.3767 L11.8281 28.9704 L10.7656 28.9704 ZM13.7656 28.9704 L13.7656 20.3767 L14.8281 20.3767 L14.8281 28.9704 L13.7656 28.9704 ZM16.7969 28.9704 L16.7969 22.7517 L17.7344 22.7517 L17.7344 23.6267 Q18.4219 22.6111 19.7188 22.6111 Q20.2812 22.6111 20.7578 22.8142 Q21.2344 23.0173 21.4688 23.3454 Q21.7031 23.6736 21.7969 24.1111 Q21.8438 24.4079 21.8438 25.1423 L21.8438 28.9704 L20.7969 28.9704 L20.7969 25.1892 Q20.7969 24.5329 20.6719 24.2204 Q20.5469 23.9079 20.2344 23.7126 Q19.9219 23.5173 19.5 23.5173 Q18.8281 23.5173 18.3359 23.947 Q17.8438 24.3767 17.8438 25.5642 L17.8438 28.9704 L16.7969 28.9704 ZM23.7969 21.5954 L23.7969 20.3767 L24.8594 20.3767 L24.8594 21.5954 L23.7969 21.5954 ZM23.7969 28.9704 L23.7969 22.7517 L24.8594 22.7517 L24.8594 28.9704 L23.7969 28.9704 ZM27.0625 28.9704 L27.0625 27.7673 L28.2656 27.7673 L28.2656 28.9704 Q28.2656 29.6267 28.0312 30.0407 Q27.7969 30.4548 27.2969 30.6736 L27 30.2204 Q27.3281 30.0798 27.4844 29.7907 Q27.6406 29.5017 27.6719 28.9704 L27.0625 28.9704 ZM37.0469 26.9704 L38.1406 27.0954 Q37.8906 28.0486 37.1875 28.5798 Q36.4844 29.1111 35.4062 29.1111 Q34.0469 29.1111 33.2422 28.2673 Q32.4375 27.4236 32.4375 25.9079 Q32.4375 24.3454 33.25 23.4782 Q34.0625 22.6111 35.3438 22.6111 Q36.5938 22.6111 37.3828 23.4548 Q38.1719 24.2986 38.1719 25.8454 Q38.1719 25.9392 38.1719 26.1267 L33.5312 26.1267 Q33.5938 27.1579 34.1094 27.697 Q34.625 28.2361 35.4062 28.2361 Q35.9844 28.2361 36.3984 27.9314 Q36.8125 27.6267 37.0469 26.9704 ZM33.5938 25.2673 L37.0625 25.2673 Q37 24.4704 36.6719 24.0798 Q36.1562 23.4704 35.3594 23.4704 Q34.625 23.4704 34.1328 23.9548 Q33.6406 24.4392 33.5938 25.2673 ZM39.2344 28.9704 L39.2344 28.1111 L43.2031 23.5642 Q42.5156 23.5954 42 23.5954 L39.4688 23.5954 L39.4688 22.7517 L44.5625 22.7517 L44.5625 23.4392 L41.1875 27.3923 L40.5312 28.1111 Q41.25 28.0642 41.8594 28.0642 L44.75 28.0642 L44.75 28.9704 L39.2344 28.9704 ZM49.0469 26.9704 L50.1406 27.0954 Q49.8906 28.0486 49.1875 28.5798 Q48.4844 29.1111 47.4062 29.1111 Q46.0469 29.1111 45.2422 28.2673 Q44.4375 27.4236 44.4375 25.9079 Q44.4375 24.3454 45.25 23.4782 Q46.0625 22.6111 47.3438 22.6111 Q48.5938 22.6111 49.3828 23.4548 Q50.1719 24.2986 50.1719 25.8454 Q50.1719 25.9392 50.1719 26.1267 L45.5312 26.1267 Q45.5938 27.1579 46.1094 27.697 Q46.625 28.2361 47.4062 28.2361 Q47.9844 28.2361 48.3984 27.9314 Q48.8125 27.6267 49.0469 26.9704 ZM45.5938 25.2673 L49.0625 25.2673 Q49 24.4704 48.6719 24.0798 Q48.1562 23.4704 47.3594 23.4704 Q46.625 23.4704 46.1328 23.9548 Q45.6406 24.4392 45.5938 25.2673 ZM46.125 20.9704 L46.9062 19.3298 L48.2969 19.3298 L47 20.9704 L46.125 20.9704 ZM51.7812 28.9704 L51.7812 22.7517 L52.7344 22.7517 L52.7344 23.6892 Q53.0938 23.0329 53.3984 22.822 Q53.7031 22.6111 54.0781 22.6111 Q54.6094 22.6111 55.1562 22.9392 L54.7969 23.9236 Q54.4062 23.6892 54.0312 23.6892 Q53.6719 23.6892 53.3984 23.9001 Q53.125 24.1111 53.0156 24.4861 Q52.8281 25.0486 52.8281 25.7048 L52.8281 28.9704 L51.7812 28.9704 ZM58.0938 28.0329 L58.25 28.9548 Q57.7969 29.0486 57.4531 29.0486 Q56.875 29.0486 56.5625 28.8689 Q56.25 28.6892 56.1172 28.3923 Q55.9844 28.0954 55.9844 27.1423 L55.9844 23.5642 L55.2188 23.5642 L55.2188 22.7517 L55.9844 22.7517 L55.9844 21.2048 L57.0312 20.5798 L57.0312 22.7517 L58.0938 22.7517 L58.0938 23.5642 L57.0312 23.5642 L57.0312 27.2048 Q57.0312 27.6579 57.0859 27.7829 Q57.1406 27.9079 57.2656 27.9861 Q57.3906 28.0642 57.625 28.0642 Q57.8125 28.0642 58.0938 28.0329 ZM61.7656 28.9704 L61.7656 20.3767 L62.8281 20.3767 L62.8281 28.9704 L61.7656 28.9704 ZM69.0469 26.9704 L70.1406 27.0954 Q69.8906 28.0486 69.1875 28.5798 Q68.4844 29.1111 67.4062 29.1111 Q66.0469 29.1111 65.2422 28.2673 Q64.4375 27.4236 64.4375 25.9079 Q64.4375 24.3454 65.25 23.4782 Q66.0625 22.6111 67.3438 22.6111 Q68.5938 22.6111 69.3828 23.4548 Q70.1719 24.2986 70.1719 25.8454 Q70.1719 25.9392 70.1719 26.1267 L65.5312 26.1267 Q65.5938 27.1579 66.1094 27.697 Q66.625 28.2361 67.4062 28.2361 Q67.9844 28.2361 68.3984 27.9314 Q68.8125 27.6267 69.0469 26.9704 ZM65.5938 25.2673 L69.0625 25.2673 Q69 24.4704 68.6719 24.0798 Q68.1562 23.4704 67.3594 23.4704 Q66.625 23.4704 66.1328 23.9548 Q65.6406 24.4392 65.5938 25.2673 ZM66.125 20.9704 L66.9062 19.3298 L68.2969 19.3298 L67 20.9704 L66.125 20.9704 ZM74.0938 28.0329 L74.25 28.9548 Q73.7969 29.0486 73.4531 29.0486 Q72.875 29.0486 72.5625 28.8689 Q72.25 28.6892 72.1172 28.3923 Q71.9844 28.0954 71.9844 27.1423 L71.9844 23.5642 L71.2188 23.5642 L71.2188 22.7517 L71.9844 22.7517 L71.9844 21.2048 L73.0312 20.5798 L73.0312 22.7517 L74.0938 22.7517 L74.0938 23.5642 L73.0312 23.5642 L73.0312 27.2048 Q73.0312 27.6579 73.0859 27.7829 Q73.1406 27.9079 73.2656 27.9861 Q73.3906 28.0642 73.625 28.0642 Q73.8125 28.0642 74.0938 28.0329 ZM74.7812 28.9704 L74.7812 22.7517 L75.7344 22.7517 L75.7344 23.6892 Q76.0938 23.0329 76.3984 22.822 Q76.7031 22.6111 77.0781 22.6111 Q77.6094 22.6111 78.1562 22.9392 L77.7969 23.9236 Q77.4062 23.6892 77.0312 23.6892 Q76.6719 23.6892 76.3984 23.9001 Q76.125 24.1111 76.0156 24.4861 Q75.8281 25.0486 75.8281 25.7048 L75.8281 28.9704 L74.7812 28.9704 ZM83.0469 26.9704 L84.1406 27.0954 Q83.8906 28.0486 83.1875 28.5798 Q82.4844 29.1111 81.4062 29.1111 Q80.0469 29.1111 79.2422 28.2673 Q78.4375 27.4236 78.4375 25.9079 Q78.4375 24.3454 79.25 23.4782 Q80.0625 22.6111 81.3438 22.6111 Q82.5938 22.6111 83.3828 23.4548 Q84.1719 24.2986 84.1719 25.8454 Q84.1719 25.9392 84.1719 26.1267 L79.5312 26.1267 Q79.5938 27.1579 80.1094 27.697 Q80.625 28.2361 81.4062 28.2361 Q81.9844 28.2361 82.3984 27.9314 Q82.8125 27.6267 83.0469 26.9704 ZM79.5938 25.2673 L83.0625 25.2673 Q83 24.4704 82.6719 24.0798 Q82.1562 23.4704 81.3594 23.4704 Q80.625 23.4704 80.1328 23.9548 Q79.6406 24.4392 79.5938 25.2673 ZM85.7969 28.9704 L85.7969 20.3767 L86.8438 20.3767 L86.8438 23.4548 Q87.5781 22.6111 88.7031 22.6111 Q89.4062 22.6111 89.9141 22.8845 Q90.4219 23.1579 90.6406 23.6345 Q90.8594 24.1111 90.8594 25.0329 L90.8594 28.9704 L89.8125 28.9704 L89.8125 25.0329 Q89.8125 24.2361 89.4688 23.8767 Q89.125 23.5173 88.5 23.5173 Q88.0312 23.5173 87.6172 23.7595 Q87.2031 24.0017 87.0234 24.4157 Q86.8438 24.8298 86.8438 25.5642 L86.8438 28.9704 L85.7969 28.9704 ZM92.4062 25.8611 Q92.4062 24.1267 93.3594 23.2986 Q94.1562 22.6111 95.3125 22.6111 Q96.5938 22.6111 97.4141 23.447 Q98.2344 24.2829 98.2344 25.7673 Q98.2344 26.9704 97.875 27.6579 Q97.5156 28.3454 96.8203 28.7282 Q96.125 29.1111 95.3125 29.1111 Q94.0156 29.1111 93.2109 28.2751 Q92.4062 27.4392 92.4062 25.8611 ZM93.4844 25.8611 Q93.4844 27.0486 94.0078 27.6423 Q94.5312 28.2361 95.3125 28.2361 Q96.1094 28.2361 96.625 27.6423 Q97.1406 27.0486 97.1406 25.8298 Q97.1406 24.6736 96.6172 24.0798 Q96.0938 23.4861 95.3125 23.4861 Q94.5312 23.4861 94.0078 24.072 Q93.4844 24.6579 93.4844 25.8611 ZM99.2344 28.9704 L99.2344 28.1111 L103.2031 23.5642 Q102.5156 23.5954 102 23.5954 L99.4688 23.5954 L99.4688 22.7517 L104.5625 22.7517 L104.5625 23.4392 L101.1875 27.3923 L100.5312 28.1111 Q101.25 28.0642 101.8594 28.0642 L104.75 28.0642 L104.75 28.9704 L99.2344 28.9704 ZM108.875 28.9704 L108.875 28.0486 Q108.1406 29.1111 106.8906 29.1111 Q106.3438 29.1111 105.8672 28.9001 Q105.3906 28.6892 105.1562 28.3689 Q104.9219 28.0486 104.8281 27.5798 Q104.7656 27.2829 104.7656 26.5954 L104.7656 22.7517 L105.8281 22.7517 L105.8281 26.2048 Q105.8281 27.0173 105.8906 27.3142 Q105.9844 27.7204 106.3047 27.9626 Q106.625 28.2048 107.1094 28.2048 Q107.5781 28.2048 107.9922 27.9626 Q108.4062 27.7204 108.5859 27.2986 Q108.7656 26.8767 108.7656 26.0798 L108.7656 22.7517 L109.8125 22.7517 L109.8125 28.9704 L108.875 28.9704 ZM111.7969 28.9704 L111.7969 22.7517 L112.7344 22.7517 L112.7344 23.6267 Q113.4219 22.6111 114.7188 22.6111 Q115.2812 22.6111 115.7578 22.8142 Q116.2344 23.0173 116.4688 23.3454 Q116.7031 23.6736 116.7969 24.1111 Q116.8438 24.4079 116.8438 25.1423 L116.8438 28.9704 L115.7969 28.9704 L115.7969 25.1892 Q115.7969 24.5329 115.6719 24.2204 Q115.5469 23.9079 115.2344 23.7126 Q114.9219 23.5173 114.5 23.5173 Q113.8281 23.5173 113.3359 23.947 Q112.8438 24.3767 112.8438 25.5642 L112.8438 28.9704 L111.7969 28.9704 ZM118.7969 28.9704 L118.7969 20.3767 L119.8594 20.3767 L119.8594 25.2829 L122.3438 22.7517 L123.7188 22.7517 L121.3281 25.0486 L123.9531 28.9704 L122.6562 28.9704 L120.5938 25.7829 L119.8594 26.5017 L119.8594 28.9704 L118.7969 28.9704 ZM132.0469 26.9704 L133.1406 27.0954 Q132.8906 28.0486 132.1875 28.5798 Q131.4844 29.1111 130.4062 29.1111 Q129.0469 29.1111 128.2422 28.2673 Q127.4375 27.4236 127.4375 25.9079 Q127.4375 24.3454 128.25 23.4782 Q129.0625 22.6111 130.3438 22.6111 Q131.5938 22.6111 132.3828 23.4548 Q133.1719 24.2986 133.1719 25.8454 Q133.1719 25.9392 133.1719 26.1267 L128.5312 26.1267 Q128.5938 27.1579 129.1094 27.697 Q129.625 28.2361 130.4062 28.2361 Q130.9844 28.2361 131.3984 27.9314 Q131.8125 27.6267 132.0469 26.9704 ZM128.5938 25.2673 L132.0625 25.2673 Q132 24.4704 131.6719 24.0798 Q131.1562 23.4704 130.3594 23.4704 Q129.625 23.4704 129.1328 23.9548 Q128.6406 24.4392 128.5938 25.2673 ZM134.5938 29.4861 L135.625 29.6423 Q135.6875 30.1111 135.9844 30.3298 Q136.375 30.6267 137.0469 30.6267 Q137.7812 30.6267 138.1797 30.3298 Q138.5781 30.0329 138.7188 29.5173 Q138.8125 29.1892 138.7969 28.1579 Q138.1094 28.9704 137.0781 28.9704 Q135.7969 28.9704 135.0938 28.0407 Q134.3906 27.1111 134.3906 25.8298 Q134.3906 24.9392 134.7109 24.1814 Q135.0312 23.4236 135.6406 23.0173 Q136.25 22.6111 137.0781 22.6111 Q138.1875 22.6111 138.9062 23.5017 L138.9062 22.7517 L139.875 22.7517 L139.875 28.1267 Q139.875 29.5798 139.5781 30.1892 Q139.2812 30.7986 138.6406 31.1501 Q138 31.5017 137.0625 31.5017 Q135.9531 31.5017 135.2656 31.0017 Q134.5781 30.5017 134.5938 29.4861 ZM135.4688 25.7517 Q135.4688 26.9704 135.9531 27.5329 Q136.4375 28.0954 137.1719 28.0954 Q137.9062 28.0954 138.3984 27.5329 Q138.8906 26.9704 138.8906 25.7829 Q138.8906 24.6423 138.3828 24.0642 Q137.875 23.4861 137.1562 23.4861 Q136.4531 23.4861 135.9609 24.0564 Q135.4688 24.6267 135.4688 25.7517 ZM141.75 31.3611 L141.625 30.3767 Q141.9688 30.4704 142.2344 30.4704 Q142.5781 30.4704 142.7891 30.3532 Q143 30.2361 143.1406 30.0329 Q143.2344 29.8611 143.4688 29.2361 Q143.4844 29.1579 143.5625 28.9861 L141.1875 22.7517 L142.3281 22.7517 L143.625 26.3454 Q143.875 27.0329 144.0781 27.7986 Q144.2656 27.0642 144.5156 26.3767 L145.8438 22.7517 L146.8906 22.7517 L144.5312 29.0798 Q144.1406 30.0954 143.9375 30.4861 Q143.6562 31.0173 143.2891 31.2595 Q142.9219 31.5017 142.4219 31.5017 Q142.125 31.5017 141.75 31.3611 ZM153.875 28.9704 L153.875 28.0486 Q153.1406 29.1111 151.8906 29.1111 Q151.3438 29.1111 150.8672 28.9001 Q150.3906 28.6892 150.1562 28.3689 Q149.9219 28.0486 149.8281 27.5798 Q149.7656 27.2829 149.7656 26.5954 L149.7656 22.7517 L150.8281 22.7517 L150.8281 26.2048 Q150.8281 27.0173 150.8906 27.3142 Q150.9844 27.7204 151.3047 27.9626 Q151.625 28.2048 152.1094 28.2048 Q152.5781 28.2048 152.9922 27.9626 Q153.4062 27.7204 153.5859 27.2986 Q153.7656 26.8767 153.7656 26.0798 L153.7656 22.7517 L154.8125 22.7517 L154.8125 28.9704 L153.875 28.9704 ZM151.125 20.9704 L151.9062 19.3298 L153.2969 19.3298 L152 20.9704 L151.125 20.9704 ZM156.7812 21.6111 L156.7812 20.3767 L157.8438 20.3767 L157.8438 21.6111 L156.7812 21.6111 ZM155.4531 31.3923 L155.6406 30.4861 Q155.9688 30.5642 156.1406 30.5642 Q156.4688 30.5642 156.625 30.3532 Q156.7812 30.1423 156.7812 29.2829 L156.7812 22.7517 L157.8438 22.7517 L157.8438 29.3142 Q157.8438 30.4548 157.5469 30.9079 Q157.1562 31.5017 156.2812 31.5017 Q155.8438 31.5017 155.4531 31.3923 Z" style="clip-path:url(#clipPath16); stroke:none;" />
      <path d="M3.5469 40.2048 L4.6094 40.1111 Q4.6875 40.7673 4.9688 41.1736 Q5.25 41.5798 5.8359 41.8376 Q6.4219 42.0954 7.1562 42.0954 Q7.7969 42.0954 8.2969 41.9001 Q8.7969 41.7048 9.0391 41.3689 Q9.2812 41.0329 9.2812 40.6423 Q9.2812 40.2361 9.0469 39.9314 Q8.8125 39.6267 8.2812 39.4236 Q7.9219 39.2829 6.7422 39.0017 Q5.5625 38.7204 5.0938 38.4704 Q4.4688 38.1423 4.1719 37.6657 Q3.875 37.1892 3.875 36.5954 Q3.875 35.9548 4.2422 35.3845 Q4.6094 34.8142 5.3203 34.5251 Q6.0312 34.2361 6.8906 34.2361 Q7.8438 34.2361 8.5781 34.5407 Q9.3125 34.8454 9.7031 35.447 Q10.0938 36.0486 10.125 36.7986 L9.0312 36.8767 Q8.9375 36.0642 8.4297 35.6501 Q7.9219 35.2361 6.9375 35.2361 Q5.9062 35.2361 5.4375 35.6111 Q4.9688 35.9861 4.9688 36.5173 Q4.9688 36.9861 5.2969 37.2829 Q5.625 37.5798 7.0078 37.8923 Q8.3906 38.2048 8.9062 38.4392 Q9.6562 38.7986 10.0156 39.322 Q10.375 39.8454 10.375 40.5486 Q10.375 41.2361 9.9844 41.8376 Q9.5938 42.4392 8.8594 42.7751 Q8.125 43.1111 7.2031 43.1111 Q6.0312 43.1111 5.2422 42.7751 Q4.4531 42.4392 4.0078 41.7517 Q3.5625 41.0642 3.5469 40.2048 ZM11.7969 35.5954 L11.7969 34.3767 L12.8594 34.3767 L12.8594 35.5954 L11.7969 35.5954 ZM11.7969 42.9704 L11.7969 36.7517 L12.8594 36.7517 L12.8594 42.9704 L11.7969 42.9704 ZM14.7969 42.9704 L14.7969 36.7517 L15.7344 36.7517 L15.7344 37.6267 Q16.0312 37.1579 16.5156 36.8845 Q17 36.6111 17.625 36.6111 Q18.3125 36.6111 18.7578 36.8923 Q19.2031 37.1736 19.375 37.6892 Q20.125 36.6111 21.2969 36.6111 Q22.2344 36.6111 22.7266 37.1189 Q23.2188 37.6267 23.2188 38.7048 L23.2188 42.9704 L22.1719 42.9704 L22.1719 39.0486 Q22.1719 38.4236 22.0703 38.1423 Q21.9688 37.8611 21.7031 37.6892 Q21.4375 37.5173 21.0625 37.5173 Q20.4062 37.5173 19.9766 37.9548 Q19.5469 38.3923 19.5469 39.3611 L19.5469 42.9704 L18.4844 42.9704 L18.4844 38.9236 Q18.4844 38.2204 18.2266 37.8689 Q17.9688 37.5173 17.3906 37.5173 Q16.9375 37.5173 16.5625 37.7517 Q16.1875 37.9861 16.0156 38.4392 Q15.8438 38.8923 15.8438 39.7361 L15.8438 42.9704 L14.7969 42.9704 ZM29.875 42.9704 L29.875 42.0486 Q29.1406 43.1111 27.8906 43.1111 Q27.3438 43.1111 26.8672 42.9001 Q26.3906 42.6892 26.1562 42.3689 Q25.9219 42.0486 25.8281 41.5798 Q25.7656 41.2829 25.7656 40.5954 L25.7656 36.7517 L26.8281 36.7517 L26.8281 40.2048 Q26.8281 41.0173 26.8906 41.3142 Q26.9844 41.7204 27.3047 41.9626 Q27.625 42.2048 28.1094 42.2048 Q28.5781 42.2048 28.9922 41.9626 Q29.4062 41.7204 29.5859 41.2986 Q29.7656 40.8767 29.7656 40.0798 L29.7656 36.7517 L30.8125 36.7517 L30.8125 42.9704 L29.875 42.9704 ZM32.7656 42.9704 L32.7656 34.3767 L33.8281 34.3767 L33.8281 42.9704 L32.7656 42.9704 ZM39.8594 42.2048 Q39.2656 42.7048 38.7266 42.9079 Q38.1875 43.1111 37.5625 43.1111 Q36.5312 43.1111 35.9844 42.6111 Q35.4375 42.1111 35.4375 41.3298 Q35.4375 40.8767 35.6406 40.4939 Q35.8438 40.1111 36.1875 39.8845 Q36.5312 39.6579 36.9531 39.5486 Q37.25 39.4548 37.8906 39.3767 Q39.1562 39.2361 39.7656 39.0173 Q39.7656 38.7986 39.7656 38.7517 Q39.7656 38.0954 39.4688 37.8298 Q39.0625 37.4861 38.2656 37.4861 Q37.5312 37.4861 37.1719 37.7439 Q36.8125 38.0017 36.6406 38.6579 L35.6094 38.5173 Q35.75 37.8611 36.0781 37.4548 Q36.4062 37.0486 37.0156 36.8298 Q37.625 36.6111 38.4219 36.6111 Q39.2188 36.6111 39.7188 36.7986 Q40.2188 36.9861 40.4531 37.2673 Q40.6875 37.5486 40.7812 37.9861 Q40.8281 38.2517 40.8281 38.9548 L40.8281 40.3611 Q40.8281 41.8298 40.8984 42.2204 Q40.9688 42.6111 41.1719 42.9704 L40.0625 42.9704 Q39.9062 42.6423 39.8594 42.2048 ZM39.7656 39.8454 Q39.1875 40.0798 38.0469 40.2517 Q37.3906 40.3454 37.125 40.4626 Q36.8594 40.5798 36.7109 40.7986 Q36.5625 41.0173 36.5625 41.2986 Q36.5625 41.7204 36.8828 42.0017 Q37.2031 42.2829 37.8125 42.2829 Q38.4219 42.2829 38.8984 42.0173 Q39.375 41.7517 39.5938 41.2829 Q39.7656 40.9236 39.7656 40.2361 L39.7656 39.8454 ZM45.0938 42.0329 L45.25 42.9548 Q44.7969 43.0486 44.4531 43.0486 Q43.875 43.0486 43.5625 42.8689 Q43.25 42.6892 43.1172 42.3923 Q42.9844 42.0954 42.9844 41.1423 L42.9844 37.5642 L42.2188 37.5642 L42.2188 36.7517 L42.9844 36.7517 L42.9844 35.2048 L44.0312 34.5798 L44.0312 36.7517 L45.0938 36.7517 L45.0938 37.5642 L44.0312 37.5642 L44.0312 41.2048 Q44.0312 41.6579 44.0859 41.7829 Q44.1406 41.9079 44.2656 41.9861 Q44.3906 42.0642 44.625 42.0642 Q44.8125 42.0642 45.0938 42.0329 ZM45.7969 35.5954 L45.7969 34.3767 L46.8594 34.3767 L46.8594 35.5954 L45.7969 35.5954 ZM45.7969 42.9704 L45.7969 36.7517 L46.8594 36.7517 L46.8594 42.9704 L45.7969 42.9704 ZM48.4062 39.8611 Q48.4062 38.1267 49.3594 37.2986 Q50.1562 36.6111 51.3125 36.6111 Q52.5938 36.6111 53.4141 37.447 Q54.2344 38.2829 54.2344 39.7673 Q54.2344 40.9704 53.875 41.6579 Q53.5156 42.3454 52.8203 42.7282 Q52.125 43.1111 51.3125 43.1111 Q50.0156 43.1111 49.2109 42.2751 Q48.4062 41.4392 48.4062 39.8611 ZM49.4844 39.8611 Q49.4844 41.0486 50.0078 41.6423 Q50.5312 42.2361 51.3125 42.2361 Q52.1094 42.2361 52.625 41.6423 Q53.1406 41.0486 53.1406 39.8298 Q53.1406 38.6736 52.6172 38.0798 Q52.0938 37.4861 51.3125 37.4861 Q50.5312 37.4861 50.0078 38.072 Q49.4844 38.6579 49.4844 39.8611 ZM55.7969 42.9704 L55.7969 36.7517 L56.7344 36.7517 L56.7344 37.6267 Q57.4219 36.6111 58.7188 36.6111 Q59.2812 36.6111 59.7578 36.8142 Q60.2344 37.0173 60.4688 37.3454 Q60.7031 37.6736 60.7969 38.1111 Q60.8438 38.4079 60.8438 39.1423 L60.8438 42.9704 L59.7969 42.9704 L59.7969 39.1892 Q59.7969 38.5329 59.6719 38.2204 Q59.5469 37.9079 59.2344 37.7126 Q58.9219 37.5173 58.5 37.5173 Q57.8281 37.5173 57.3359 37.947 Q56.8438 38.3767 56.8438 39.5642 L56.8438 42.9704 L55.7969 42.9704 ZM65.0938 42.0329 L65.25 42.9548 Q64.7969 43.0486 64.4531 43.0486 Q63.875 43.0486 63.5625 42.8689 Q63.25 42.6892 63.1172 42.3923 Q62.9844 42.0954 62.9844 41.1423 L62.9844 37.5642 L62.2188 37.5642 L62.2188 36.7517 L62.9844 36.7517 L62.9844 35.2048 L64.0312 34.5798 L64.0312 36.7517 L65.0938 36.7517 L65.0938 37.5642 L64.0312 37.5642 L64.0312 41.2048 Q64.0312 41.6579 64.0859 41.7829 Q64.1406 41.9079 64.2656 41.9861 Q64.3906 42.0642 64.625 42.0642 Q64.8125 42.0642 65.0938 42.0329 ZM66.0938 42.9704 L66.0938 41.7673 L67.2969 41.7673 L67.2969 42.9704 L66.0938 42.9704 Z" style="clip-path:url(#clipPath16); stroke:none;" />
    </g>
    <g style="text-rendering:geometricPrecision; font-size:11; font-family:sans-serif;" transform="translate(680,54)">
      <text x="10" y="12" style="clip-path:url(#clipPath17); stroke:none;" xml:space="preserve">source :</text>
      <text x="8" y="27" style="clip-path:url(#clipPath17); stroke:none;" xml:space="preserve">IsSource</text>
    </g>
    <g style="text-rendering:geometricPrecision; font-size:11; font-family:sans-serif;" transform="translate(540,54)">
      <text x="6" y="12" style="clip-path:url(#clipPath18); stroke:none;" xml:space="preserve">sourceReader :</text>
      <text x="9" y="27" style="clip-path:url(#clipPath18); stroke:none;" xml:space="preserve">SourceReader</text>
    </g>
    <g style="text-rendering:geometricPrecision; font-size:11; font-family:sans-serif;" transform="translate(463,54)">
      <text x="12" y="12" style="clip-path:url(#clipPath17); stroke:none;" xml:space="preserve">circuit :</text>
      <text x="13" y="27" style="clip-path:url(#clipPath17); stroke:none;" xml:space="preserve">Circuit</text>
    </g>
    <g style="text-rendering:geometricPrecision; font-size:11; font-family:sans-serif;" transform="translate(343,134)">
      <text x="11" y="12" style="clip-path:url(#clipPath19); stroke:none;" xml:space="preserve">newSimulation :</text>
      <text x="24" y="27" style="clip-path:url(#clipPath19); stroke:none;" xml:space="preserve">Simulation</text>
    </g>
    <g style="text-rendering:geometricPrecision; font-size:11; font-family:sans-serif;" transform="translate(133,54)">
      <text x="8" y="12" style="clip-path:url(#clipPath18); stroke:none;" xml:space="preserve">oldSimulation :</text>
      <text x="19" y="27" style="clip-path:url(#clipPath18); stroke:none;" xml:space="preserve">Simulation</text>
    </g>
    <g style="text-rendering:geometricPrecision; font-size:11; font-family:sans-serif;" transform="translate(11,88)">
      <text x="10" y="12" style="clip-path:url(#clipPath20); stroke:none;" xml:space="preserve">Felhasználó</text>
    </g>
    <g transform="translate(-17,62)" style="font-size:11; stroke-linecap:butt; text-rendering:geometricPrecision; font-family:sans-serif; stroke-linejoin:round;">
      <line x1="71" x2="189" y1="72" style="clip-path:url(#clipPath21); fill:none;" y2="72" />
      <polygon style="clip-path:url(#clipPath21); stroke:none;" points=" 189 72 177 66 177 78" />
      <polygon style="fill:none; clip-path:url(#clipPath21);" points=" 189 72 177 66 177 78" />
    </g>
    <g transform="translate(13,-12)" style="font-size:11; stroke-linecap:butt; stroke-dashoffset:1; text-rendering:geometricPrecision; font-family:sans-serif; stroke-linejoin:round; stroke-dasharray:5;">
      <line x1="167" x2="330" y1="166" style="clip-path:url(#clipPath22); fill:none;" y2="166" />
      <line x1="330" x2="318" y1="166" style="stroke-dashoffset:0; clip-path:url(#clipPath22); fill:none; stroke-dasharray:none;" y2="160" />
      <line x1="330" x2="318" y1="166" style="stroke-dashoffset:0; clip-path:url(#clipPath22); fill:none; stroke-dasharray:none;" y2="172" />
    </g>
    <g transform="translate(13,8)" style="font-size:11; stroke-linecap:butt; text-rendering:geometricPrecision; font-family:sans-serif; stroke-linejoin:round;">
      <line x1="167" x2="200" y1="166" style="clip-path:url(#clipPath23); fill:none;" y2="166" />
      <line x1="200" x2="200" y1="166" style="clip-path:url(#clipPath23); fill:none;" y2="186" />
      <line x1="200" x2="167" y1="186" style="clip-path:url(#clipPath23); fill:none;" y2="186" />
      <polygon style="clip-path:url(#clipPath23); stroke:none;" points=" 167 186 179 192 179 180" />
      <polygon style="fill:none; clip-path:url(#clipPath23);" points=" 167 186 179 192 179 180" />
    </g>
    <g transform="translate(517,313)" style="font-size:11; stroke-linecap:butt; text-rendering:geometricPrecision; font-family:sans-serif; stroke-linejoin:round;">
      <line x1="71" x2="103" y1="71" style="clip-path:url(#clipPath24); fill:none;" y2="71" />
      <line x1="103" x2="103" y1="71" style="clip-path:url(#clipPath24); fill:none;" y2="91" />
      <line x1="103" x2="71" y1="91" style="clip-path:url(#clipPath24); fill:none;" y2="91" />
      <polygon style="clip-path:url(#clipPath24); stroke:none;" points=" 71 91 83 97 83 85" />
      <polygon style="fill:none; clip-path:url(#clipPath24);" points=" 71 91 83 97 83 85" />
    </g>
    <g transform="translate(-17,392)" style="font-size:11; stroke-linecap:butt; text-rendering:geometricPrecision; font-family:sans-serif; stroke-linejoin:round; stroke-dasharray:8,3; stroke-miterlimit:0;">
      <line x1="406" x2="71" y1="72" style="clip-path:url(#clipPath25); fill:none;" y2="72" />
      <line x1="71" x2="83" y1="72" style="clip-path:url(#clipPath25); fill:none; stroke-dasharray:none; stroke-miterlimit:10;" y2="78" />
      <line x1="71" x2="83" y1="72" style="clip-path:url(#clipPath25); fill:none; stroke-dasharray:none; stroke-miterlimit:10;" y2="66" />
    </g>
    <g transform="translate(327,143)" style="font-size:11; stroke-linecap:butt; text-rendering:geometricPrecision; font-family:sans-serif; stroke-linejoin:round;">
      <line x1="71" x2="253" y1="71" style="clip-path:url(#clipPath26); fill:none;" y2="71" />
      <polygon style="clip-path:url(#clipPath26); stroke:none;" points=" 253 71 241 65 241 77" />
      <polygon style="fill:none; clip-path:url(#clipPath26);" points=" 253 71 241 65 241 77" />
    </g>
    <g transform="translate(230,77)" style="font-size:11; stroke-linecap:butt; text-rendering:geometricPrecision; font-family:sans-serif; stroke-linejoin:round;">
      <line x1="166" x2="260" y1="167" style="clip-path:url(#clipPath27); fill:none;" y2="167" />
      <polygon style="clip-path:url(#clipPath27); stroke:none;" points=" 260 167 248 161 248 173" />
      <polygon style="fill:none; clip-path:url(#clipPath27);" points=" 260 167 248 161 248 173" />
    </g>
    <g transform="translate(230,107)" style="font-size:11; stroke-linecap:butt; text-rendering:geometricPrecision; font-family:sans-serif; stroke-linejoin:round; stroke-dasharray:8,3; stroke-miterlimit:0;">
      <line x1="260" x2="166" y1="167" style="clip-path:url(#clipPath27); fill:none;" y2="167" />
      <line x1="166" x2="178" y1="167" style="clip-path:url(#clipPath27); fill:none; stroke-dasharray:none; stroke-miterlimit:10;" y2="173" />
      <line x1="166" x2="178" y1="167" style="clip-path:url(#clipPath27); fill:none; stroke-dasharray:none; stroke-miterlimit:10;" y2="161" />
    </g>
    <g transform="translate(178,22)" style="font-size:11; stroke-linecap:butt; text-rendering:geometricPrecision; font-family:sans-serif; stroke-linejoin:round; stroke-dasharray:4;">
      <line x1="72" x2="72" y1="132" style="clip-path:url(#clipPath28); fill:none;" y2="72" />
    </g>
    <g transform="translate(327,243)" style="font-size:11; stroke-linecap:butt; text-rendering:geometricPrecision; font-family:sans-serif; stroke-linejoin:round;">
      <line x1="71" x2="253" y1="71" style="clip-path:url(#clipPath26); fill:none;" y2="71" />
      <polygon style="clip-path:url(#clipPath26); stroke:none;" points=" 253 71 241 65 241 77" />
      <polygon style="fill:none; clip-path:url(#clipPath26);" points=" 253 71 241 65 241 77" />
    </g>
    <g transform="translate(517,363)" style="font-size:11; stroke-linecap:butt; text-rendering:geometricPrecision; font-family:sans-serif; stroke-linejoin:round;">
      <line x1="71" x2="189" y1="71" style="clip-path:url(#clipPath29); fill:none;" y2="71" />
      <polygon style="clip-path:url(#clipPath29); stroke:none;" points=" 189 71 177 65 177 77" />
      <polygon style="fill:none; clip-path:url(#clipPath29);" points=" 189 71 177 65 177 77" />
    </g>
    <g style="text-rendering:geometricPrecision; font-size:11; font-family:sans-serif;" transform="translate(594,414)">
      <text x="9" y="10" style="clip-path:url(#clipPath30); stroke:none;" xml:space="preserve">5.2: setValues()</text>
    </g>
    <g style="text-rendering:geometricPrecision; font-size:11; font-family:sans-serif;" transform="translate(396,294)">
      <text x="9" y="10" style="clip-path:url(#clipPath31); stroke:none;" xml:space="preserve">5: loadValuesToSources(sources)</text>
    </g>
    <g style="text-rendering:geometricPrecision; font-size:11; font-family:sans-serif;" transform="translate(410,254)">
      <text x="8" y="10" style="clip-path:url(#clipPath32); stroke:none;" xml:space="preserve">4: sources</text>
    </g>
    <g style="text-rendering:geometricPrecision; font-size:11; font-family:sans-serif;" transform="translate(391,224)">
      <text x="7" y="10" style="clip-path:url(#clipPath33); stroke:none;" xml:space="preserve">3: getSources()</text>
    </g>
    <g style="text-rendering:geometricPrecision; font-size:11; font-family:sans-serif;" transform="translate(416,174)">
      <text x="50" y="12" style="clip-path:url(#clipPath34); stroke:none;" xml:space="preserve">&lt;&lt;create&gt;&gt;</text>
      <text x="11" y="27" style="clip-path:url(#clipPath34); stroke:none;" xml:space="preserve">2: SourceReader(FileName)</text>
    </g>
    <g style="text-rendering:geometricPrecision; font-size:11; font-family:sans-serif;" transform="translate(164,444)">
      <text x="9" y="10" style="clip-path:url(#clipPath35); stroke:none;" xml:space="preserve">6: newSimulation</text>
    </g>
    <g style="text-rendering:geometricPrecision; font-size:11; font-family:sans-serif;" transform="translate(620,384)">
      <text x="9" y="10" style="clip-path:url(#clipPath36); stroke:none;" xml:space="preserve">5.1: beolvasás</text>
    </g>
    <g style="text-rendering:geometricPrecision; font-size:11; font-family:sans-serif;" transform="translate(211,174)">
      <text x="12" y="10" style="clip-path:url(#clipPath37); stroke:none;" xml:space="preserve">1.2: setState(STOPPED)</text>
    </g>
    <g style="text-rendering:geometricPrecision; font-size:11; font-family:sans-serif;" transform="translate(170,124)">
      <text x="62" y="12" style="clip-path:url(#clipPath38); stroke:none;" xml:space="preserve">&lt;&lt;create&gt;&gt;</text>
      <text x="13" y="27" style="clip-path:url(#clipPath38); stroke:none;" xml:space="preserve">1.1: Simulation(circuit, fileName)</text>
    </g>
    <g style="text-rendering:geometricPrecision; font-size:11; font-family:sans-serif;" transform="translate(44,113)">
      <text x="12" y="13" style="clip-path:url(#clipPath39); stroke:none;" xml:space="preserve">1: loadSources(fileName)</text>
    </g>
  </g>
</svg>
