<?xml version="1.0" encoding="UTF-8"?>

<!DOCTYPE svg PUBLIC '-//W3C//DTD SVG 1.0//EN' 'http://www.w3.org/TR/2001/REC-SVG-20010904/DTD/svg10.dtd'>
<svg style="fill-opacity:1; color-rendering:auto; color-interpolation:auto; stroke:black; text-rendering:auto; stroke-linecap:square; stroke-miterlimit:10; stroke-opacity:1; shape-rendering:auto; fill:black; stroke-dasharray:none; font-weight:normal; stroke-width:1; font-family:&apos;Dialog&apos;; font-style:normal; stroke-linejoin:miter; font-size:12; stroke-dashoffset:0; image-rendering:auto;" xmlns="http://www.w3.org/2000/svg" width="654" xmlns:xlink="http://www.w3.org/1999/xlink" height="508">
  <!--Generated by the Batik Graphics2D SVG Generator-->
  <defs id="genericDefs" />
  <g>
    <defs id="defs1">
      <clipPath clipPathUnits="userSpaceOnUse" id="clipPath1">
        <path d="M-3 -3 L67 -3 L67 467 L-3 467 L-3 -3 Z" />
      </clipPath>
      <clipPath clipPathUnits="userSpaceOnUse" id="clipPath2">
        <path d="M-3 -3 L97 -3 L97 177 L-3 177 L-3 -3 Z" />
      </clipPath>
      <clipPath clipPathUnits="userSpaceOnUse" id="clipPath3">
        <path d="M-3 -3 L16 -3 L16 49 L-3 49 L-3 -3 Z" />
      </clipPath>
      <clipPath clipPathUnits="userSpaceOnUse" id="clipPath4">
        <path d="M-3 -3 L97 -3 L97 247 L-3 247 L-3 -3 Z" />
      </clipPath>
      <clipPath clipPathUnits="userSpaceOnUse" id="clipPath5">
        <path d="M-3 -3 L202 -3 L202 138 L-3 138 L-3 -3 Z" />
      </clipPath>
      <clipPath clipPathUnits="userSpaceOnUse" id="clipPath6">
        <path d="M0 0 L33 0 L33 18 L0 18 L0 0 Z" />
      </clipPath>
      <clipPath clipPathUnits="userSpaceOnUse" id="clipPath7">
        <path d="M-3 -3 L15 -3 L15 19 L-3 19 L-3 -3 Z" />
      </clipPath>
      <clipPath clipPathUnits="userSpaceOnUse" id="clipPath8">
        <path d="M-3 -3 L14 -3 L14 127 L-3 127 L-3 -3 Z" />
      </clipPath>
      <clipPath clipPathUnits="userSpaceOnUse" id="clipPath9">
        <path d="M-3 -3 L15 -3 L15 157 L-3 157 L-3 -3 Z" />
      </clipPath>
      <clipPath clipPathUnits="userSpaceOnUse" id="clipPath10">
        <path d="M-3 -3 L202 -3 L202 119 L-3 119 L-3 -3 Z" />
      </clipPath>
      <clipPath clipPathUnits="userSpaceOnUse" id="clipPath11">
        <path d="M0 0 L147 0 L147 15 L0 15 L0 0 Z" />
      </clipPath>
      <clipPath clipPathUnits="userSpaceOnUse" id="clipPath12">
        <path d="M0 0 L0 4 L195 4 L195 0 Z" />
      </clipPath>
      <clipPath clipPathUnits="userSpaceOnUse" id="clipPath13">
        <path d="M-3 -3 L197 -3 L197 127 L-3 127 L-3 -3 Z" />
      </clipPath>
      <clipPath clipPathUnits="userSpaceOnUse" id="clipPath14">
        <path d="M0 0 L27 0 L27 18 L0 18 L0 0 Z" />
      </clipPath>
      <clipPath clipPathUnits="userSpaceOnUse" id="clipPath15">
        <path d="M-3 -3 L197 -3 L197 108 L-3 108 L-3 -3 Z" />
      </clipPath>
      <clipPath clipPathUnits="userSpaceOnUse" id="clipPath16">
        <path d="M0 0 L125 0 L125 15 L0 15 L0 0 Z" />
      </clipPath>
      <clipPath clipPathUnits="userSpaceOnUse" id="clipPath17">
        <path d="M0 0 L0 4 L190 4 L190 0 Z" />
      </clipPath>
      <clipPath clipPathUnits="userSpaceOnUse" id="clipPath18">
        <path d="M-60 -30 L120 -30 L120 60 L-60 60 L-60 -30 Z" />
      </clipPath>
      <clipPath clipPathUnits="userSpaceOnUse" id="clipPath19">
        <path d="M-90 -30 L180 -30 L180 60 L-90 60 L-90 -30 Z" />
      </clipPath>
      <clipPath clipPathUnits="userSpaceOnUse" id="clipPath20">
        <path d="M-79 -14 L158 -14 L158 28 L-79 28 L-79 -14 Z" />
      </clipPath>
      <clipPath clipPathUnits="userSpaceOnUse" id="clipPath21">
        <path d="M0 0 L283 0 L283 147 L0 147 L0 0 Z" />
      </clipPath>
      <clipPath clipPathUnits="userSpaceOnUse" id="clipPath22">
        <path d="M0 0 L178 0 L178 167 L0 167 L0 0 Z" />
      </clipPath>
      <clipPath clipPathUnits="userSpaceOnUse" id="clipPath23">
        <path d="M0 0 L254 0 L254 147 L0 147 L0 0 Z" />
      </clipPath>
      <clipPath clipPathUnits="userSpaceOnUse" id="clipPath24">
        <path d="M0 0 L370 0 L370 147 L0 147 L0 0 Z" />
      </clipPath>
      <clipPath clipPathUnits="userSpaceOnUse" id="clipPath25">
        <path d="M0 0 L313 0 L313 147 L0 147 L0 0 Z" />
      </clipPath>
      <clipPath clipPathUnits="userSpaceOnUse" id="clipPath26">
        <path d="M0 0 L354 0 L354 147 L0 147 L0 0 Z" />
      </clipPath>
      <clipPath clipPathUnits="userSpaceOnUse" id="clipPath27">
        <path d="M-194 -14 L388 -14 L388 28 L-194 28 L-194 -14 Z" />
      </clipPath>
      <clipPath clipPathUnits="userSpaceOnUse" id="clipPath28">
        <path d="M-163 -31 L326 -31 L326 62 L-163 62 L-163 -31 Z" />
      </clipPath>
      <clipPath clipPathUnits="userSpaceOnUse" id="clipPath29">
        <path d="M-144 -14 L288 -14 L288 28 L-144 28 L-144 -14 Z" />
      </clipPath>
      <clipPath clipPathUnits="userSpaceOnUse" id="clipPath30">
        <path d="M-106 -14 L212 -14 L212 28 L-106 28 L-106 -14 Z" />
      </clipPath>
      <clipPath clipPathUnits="userSpaceOnUse" id="clipPath31">
        <path d="M-100 -14 L200 -14 L200 28 L-100 28 L-100 -14 Z" />
      </clipPath>
      <clipPath clipPathUnits="userSpaceOnUse" id="clipPath32">
        <path d="M-131 -14 L262 -14 L262 28 L-131 28 L-131 -14 Z" />
      </clipPath>
    </defs>
    <g style="fill:white; text-rendering:geometricPrecision; stroke:white;">
      <rect x="0" y="0" width="654" style="stroke:none;" height="508" />
      <rect x="0" y="38" transform="translate(0,-38)" width="653" style="fill:none; stroke:black;" height="507" />
      <text x="7" y="55" transform="translate(0,-38)" style="fill:black; stroke:none; font-weight:bold;" xml:space="preserve">sd</text>
      <text x="28" y="55" transform="translate(0,-38)" style="fill:black; stroke:none;" xml:space="preserve">Jelforrások betöltése</text>
      <line transform="translate(0,-38)" x1="0" x2="143" y1="62" style="fill:none; stroke:black;" y2="62" />
      <line transform="translate(0,-38)" x1="149" x2="149" y1="38" style="fill:none; stroke:black;" y2="52" />
      <line transform="translate(0,-38)" x1="149" x2="143" y1="52" style="fill:none; stroke:black;" y2="62" />
    </g>
    <g transform="translate(20,34)" style="font-size:11; fill:white; text-rendering:geometricPrecision; font-family:sans-serif; stroke:white;">
      <circle style="clip-path:url(#clipPath1); stroke:none;" r="5" cx="30" cy="5" />
      <rect x="26" y="48" width="8" style="clip-path:url(#clipPath1); stroke:none;" height="411" />
    </g>
    <g transform="translate(20,34)" style="font-size:11; stroke-linecap:butt; text-rendering:geometricPrecision; font-family:sans-serif; stroke-linejoin:round; stroke-miterlimit:0;">
      <circle style="fill:none; clip-path:url(#clipPath1);" r="5" cx="30" cy="5" />
      <rect x="26" y="48" width="8" style="clip-path:url(#clipPath1); fill:none;" height="411" />
      <line x1="30" x2="30" y1="10" style="clip-path:url(#clipPath1); fill:none;" y2="25" />
      <line x1="30" x2="21" y1="25" style="clip-path:url(#clipPath1); fill:none;" y2="36" />
      <line x1="30" x2="39" y1="25" style="clip-path:url(#clipPath1); fill:none;" y2="36" />
      <line x1="21" x2="39" y1="16" style="clip-path:url(#clipPath1); fill:none;" y2="16" />
    </g>
    <g transform="translate(150,34)" style="font-size:11; fill:white; text-rendering:geometricPrecision; font-family:sans-serif; stroke:white;">
      <rect x="0" y="0" width="89" style="clip-path:url(#clipPath2); stroke:none;" height="35" />
    </g>
    <g transform="translate(150,34)" style="font-size:11; stroke-linecap:butt; text-rendering:geometricPrecision; font-family:sans-serif; stroke-linejoin:round; stroke-miterlimit:0;">
      <line x1="35" x2="53" y1="152" style="clip-path:url(#clipPath2); fill:none;" y2="170" />
      <line x1="35" x2="53" y1="170" style="clip-path:url(#clipPath2); fill:none;" y2="152" />
      <rect x="0" y="0" width="89" style="clip-path:url(#clipPath2); fill:none;" height="35" />
      <line x1="44" x2="44" y1="35" style="clip-path:url(#clipPath2); fill:none; stroke-linejoin:bevel; stroke-dasharray:8,3;" y2="161" />
    </g>
    <g transform="translate(190,138)" style="font-size:11; fill:white; text-rendering:geometricPrecision; font-family:sans-serif; stroke:white;">
      <rect x="0" y="0" width="9" style="clip-path:url(#clipPath3); stroke:none;" height="42" />
    </g>
    <g transform="translate(190,138)" style="font-size:11; stroke-linecap:butt; text-rendering:geometricPrecision; font-family:sans-serif; stroke-linejoin:round; stroke-miterlimit:0;">
      <rect x="0" y="0" width="9" style="clip-path:url(#clipPath3); fill:none;" height="42" />
    </g>
    <g transform="translate(250,34)" style="font-size:11; fill:white; text-rendering:geometricPrecision; font-family:sans-serif; stroke:white;">
      <rect x="0" y="0" width="59" style="clip-path:url(#clipPath1); stroke:none;" height="35" />
    </g>
    <g transform="translate(250,34)" style="font-size:11; stroke-linecap:butt; text-rendering:geometricPrecision; font-family:sans-serif; stroke-linejoin:round; stroke-miterlimit:0;">
      <rect x="0" y="0" width="59" style="clip-path:url(#clipPath1); fill:none;" height="35" />
      <line x1="29" x2="29" y1="35" style="clip-path:url(#clipPath1); fill:none; stroke-linejoin:bevel; stroke-dasharray:8,3;" y2="460" />
    </g>
    <g transform="translate(450,254)" style="font-size:11; fill:white; text-rendering:geometricPrecision; font-family:sans-serif; stroke:white;">
      <rect x="0" y="0" width="89" style="clip-path:url(#clipPath4); stroke:none;" height="35" />
    </g>
    <g transform="translate(450,254)" style="font-size:11; stroke-linecap:butt; text-rendering:geometricPrecision; font-family:sans-serif; stroke-linejoin:round; stroke-miterlimit:0;">
      <rect x="0" y="0" width="89" style="clip-path:url(#clipPath4); fill:none;" height="35" />
      <line x1="44" x2="44" y1="35" style="clip-path:url(#clipPath4); fill:none; stroke-linejoin:bevel; stroke-dasharray:8,3;" y2="240" />
    </g>
    <g transform="translate(580,34)" style="font-size:11; fill:white; text-rendering:geometricPrecision; font-family:sans-serif; stroke:white;">
      <rect x="0" y="0" width="59" style="clip-path:url(#clipPath1); stroke:none;" height="35" />
    </g>
    <g transform="translate(580,34)" style="font-size:11; stroke-linecap:butt; text-rendering:geometricPrecision; font-family:sans-serif; stroke-linejoin:round; stroke-miterlimit:0;">
      <rect x="0" y="0" width="59" style="clip-path:url(#clipPath1); fill:none;" height="35" />
      <line x1="29" x2="29" y1="35" style="clip-path:url(#clipPath1); fill:none; stroke-linejoin:bevel; stroke-dasharray:8,3;" y2="460" />
    </g>
    <g transform="translate(444,334)" style="font-size:11; stroke-linecap:butt; text-rendering:geometricPrecision; font-family:sans-serif; stroke-linejoin:round; font-weight:bold; stroke-miterlimit:0;">
      <rect x="0" y="0" width="195" style="clip-path:url(#clipPath5); fill:none;" height="131" />
    </g>
    <g transform="translate(444,334)" style="font-size:11; fill:white; text-rendering:geometricPrecision; font-family:sans-serif; stroke:white; font-weight:bold;">
      <path d="M32 0 L32 9 L26 17 L0 17 L0 0 Z" style="clip-path:url(#clipPath5); stroke:none;" />
    </g>
    <g transform="translate(444,334)" style="font-size:11; stroke-linecap:butt; text-rendering:geometricPrecision; font-family:sans-serif; stroke-linejoin:round; font-weight:bold; stroke-miterlimit:0;">
      <path d="M32 0 L32 9 L26 17 L0 17 L0 0 Z" style="fill:none; clip-path:url(#clipPath5);" />
    </g>
    <g transform="translate(444,334)" style="text-rendering:geometricPrecision; font-size:11; font-weight:bold; font-family:sans-serif;">
      <text x="4" y="12" style="clip-path:url(#clipPath6); stroke:none;" xml:space="preserve">loop</text>
    </g>
    <g transform="translate(606,438)" style="font-size:11; fill:white; text-rendering:geometricPrecision; font-family:sans-serif; stroke:white;">
      <rect x="0" y="0" width="8" style="clip-path:url(#clipPath7); stroke:none;" height="12" />
    </g>
    <g transform="translate(606,438)" style="font-size:11; stroke-linecap:butt; text-rendering:geometricPrecision; font-family:sans-serif; stroke-linejoin:round; stroke-miterlimit:0;">
      <rect x="0" y="0" width="8" style="clip-path:url(#clipPath7); fill:none;" height="12" />
    </g>
    <g transform="translate(277,241)" style="font-size:11; fill:white; text-rendering:geometricPrecision; font-family:sans-serif; stroke:white;">
      <rect x="0" y="0" width="7" style="clip-path:url(#clipPath8); stroke:none;" height="120" />
    </g>
    <g transform="translate(277,241)" style="font-size:11; stroke-linecap:butt; text-rendering:geometricPrecision; font-family:sans-serif; stroke-linejoin:round; stroke-miterlimit:0;">
      <rect x="0" y="0" width="7" style="clip-path:url(#clipPath8); fill:none;" height="120" />
    </g>
    <g transform="translate(491,323)" style="font-size:11; fill:white; text-rendering:geometricPrecision; font-family:sans-serif; stroke:white;">
      <rect x="0" y="0" width="8" style="clip-path:url(#clipPath9); stroke:none;" height="150" />
    </g>
    <g transform="translate(491,323)" style="font-size:11; stroke-linecap:butt; text-rendering:geometricPrecision; font-family:sans-serif; stroke-linejoin:round; stroke-miterlimit:0;">
      <rect x="0" y="0" width="8" style="clip-path:url(#clipPath9); fill:none;" height="150" />
    </g>
    <g transform="translate(444,353)" style="font-size:11; fill:white; text-rendering:geometricPrecision; font-family:sans-serif; stroke:white;">
      <rect x="28" y="5" width="147" style="clip-path:url(#clipPath10); stroke:none;" height="15" />
    </g>
    <g style="text-rendering:geometricPrecision; font-size:11; font-family:sans-serif;" transform="translate(472,358)">
      <text x="11" y="12" style="clip-path:url(#clipPath11); stroke:none;" xml:space="preserve">[sources minden elemére]</text>
    </g>
    <g transform="translate(30,94)" style="font-size:11; stroke-linecap:butt; text-rendering:geometricPrecision; font-family:sans-serif; stroke-linejoin:round; font-weight:bold; stroke-miterlimit:0;">
      <rect x="0" y="0" width="190" style="clip-path:url(#clipPath13); fill:none;" height="120" />
    </g>
    <g transform="translate(30,94)" style="font-size:11; fill:white; text-rendering:geometricPrecision; font-family:sans-serif; stroke:white; font-weight:bold;">
      <path d="M26 0 L26 9 L20 17 L0 17 L0 0 Z" style="clip-path:url(#clipPath13); stroke:none;" />
    </g>
    <g transform="translate(30,94)" style="font-size:11; stroke-linecap:butt; text-rendering:geometricPrecision; font-family:sans-serif; stroke-linejoin:round; font-weight:bold; stroke-miterlimit:0;">
      <path d="M26 0 L26 9 L20 17 L0 17 L0 0 Z" style="fill:none; clip-path:url(#clipPath13);" />
    </g>
    <g transform="translate(30,94)" style="text-rendering:geometricPrecision; font-size:11; font-weight:bold; font-family:sans-serif;">
      <text x="4" y="12" style="clip-path:url(#clipPath14); stroke:none;" xml:space="preserve">opt</text>
    </g>
    <g transform="translate(30,110)" style="font-size:11; fill:white; text-rendering:geometricPrecision; font-family:sans-serif; stroke:white;">
      <rect x="28" y="5" width="125" style="clip-path:url(#clipPath15); stroke:none;" height="15" />
    </g>
    <g style="text-rendering:geometricPrecision; font-size:11; font-family:sans-serif;" transform="translate(58,115)">
      <text x="13" y="12" style="clip-path:url(#clipPath16); stroke:none;" xml:space="preserve">[oldSimulation != null]</text>
    </g>
    <g style="text-rendering:geometricPrecision; font-size:11; font-family:sans-serif;" transform="translate(580,34)">
      <text x="10" y="12" style="clip-path:url(#clipPath18); stroke:none;" xml:space="preserve">source :</text>
      <text x="8" y="27" style="clip-path:url(#clipPath18); stroke:none;" xml:space="preserve">IsSource</text>
    </g>
    <g style="text-rendering:geometricPrecision; font-size:11; font-family:sans-serif;" transform="translate(450,254)">
      <text x="6" y="12" style="clip-path:url(#clipPath19); stroke:none;" xml:space="preserve">sourceReader :</text>
      <text x="9" y="27" style="clip-path:url(#clipPath19); stroke:none;" xml:space="preserve">SourceReader</text>
    </g>
    <g style="text-rendering:geometricPrecision; font-size:11; font-family:sans-serif;" transform="translate(250,34)">
      <text x="12" y="12" style="clip-path:url(#clipPath18); stroke:none;" xml:space="preserve">circuit :</text>
      <text x="13" y="27" style="clip-path:url(#clipPath18); stroke:none;" xml:space="preserve">Circuit</text>
    </g>
    <g style="text-rendering:geometricPrecision; font-size:11; font-family:sans-serif;" transform="translate(150,34)">
      <text x="8" y="12" style="clip-path:url(#clipPath19); stroke:none;" xml:space="preserve">oldSimulation :</text>
      <text x="19" y="27" style="clip-path:url(#clipPath19); stroke:none;" xml:space="preserve">Simulation</text>
    </g>
    <g style="text-rendering:geometricPrecision; font-size:11; font-family:sans-serif;" transform="translate(11,68)">
      <text x="10" y="12" style="clip-path:url(#clipPath20); stroke:none;" xml:space="preserve">Felhasználó</text>
    </g>
    <g transform="translate(-17,83)" style="font-size:11; stroke-linecap:butt; text-rendering:geometricPrecision; font-family:sans-serif; stroke-linejoin:round;">
      <line x1="71" x2="207" y1="71" style="clip-path:url(#clipPath21); fill:none;" y2="71" />
      <polygon style="clip-path:url(#clipPath21); stroke:none;" points=" 207 71 195 65 195 77" />
      <polygon style="fill:none; clip-path:url(#clipPath21);" points=" 207 71 195 65 195 77" />
    </g>
    <g transform="translate(427,313)" style="font-size:11; stroke-linecap:butt; text-rendering:geometricPrecision; font-family:sans-serif; stroke-linejoin:round;">
      <line x1="71" x2="103" y1="71" style="clip-path:url(#clipPath22); fill:none;" y2="71" />
      <line x1="103" x2="103" y1="71" style="clip-path:url(#clipPath22); fill:none;" y2="91" />
      <line x1="103" x2="71" y1="91" style="clip-path:url(#clipPath22); fill:none;" y2="91" />
      <polygon style="clip-path:url(#clipPath22); stroke:none;" points=" 71 91 83 97 83 85" />
      <polygon style="fill:none; clip-path:url(#clipPath22);" points=" 71 91 83 97 83 85" />
    </g>
    <g transform="translate(427,373)" style="font-size:11; stroke-linecap:butt; text-rendering:geometricPrecision; font-family:sans-serif; stroke-linejoin:round;">
      <line x1="71" x2="179" y1="71" style="clip-path:url(#clipPath23); fill:none;" y2="71" />
      <polygon style="clip-path:url(#clipPath23); stroke:none;" points=" 179 71 167 65 167 77" />
      <polygon style="fill:none; clip-path:url(#clipPath23);" points=" 179 71 167 65 167 77" />
    </g>
    <g transform="translate(-17,173)" style="font-size:11; stroke-linecap:butt; text-rendering:geometricPrecision; font-family:sans-serif; stroke-linejoin:round;">
      <line x1="71" x2="294" y1="71" style="clip-path:url(#clipPath24); fill:none;" y2="71" />
      <polygon style="clip-path:url(#clipPath24); stroke:none;" points=" 294 71 282 65 282 77" />
      <polygon style="fill:none; clip-path:url(#clipPath24);" points=" 294 71 282 65 282 77" />
    </g>
    <g transform="translate(213,203)" style="font-size:11; stroke-linecap:butt; stroke-dashoffset:1; text-rendering:geometricPrecision; font-family:sans-serif; stroke-linejoin:round; stroke-dasharray:5;">
      <line x1="71" x2="237" y1="71" style="clip-path:url(#clipPath25); fill:none;" y2="71" />
      <line x1="237" x2="225" y1="71" style="stroke-dashoffset:0; clip-path:url(#clipPath25); fill:none; stroke-dasharray:none;" y2="65" />
      <line x1="237" x2="225" y1="71" style="stroke-dashoffset:0; clip-path:url(#clipPath25); fill:none; stroke-dasharray:none;" y2="77" />
    </g>
    <g transform="translate(213,253)" style="font-size:11; stroke-linecap:butt; text-rendering:geometricPrecision; font-family:sans-serif; stroke-linejoin:round;">
      <line x1="71" x2="279" y1="71" style="clip-path:url(#clipPath26); fill:none;" y2="71" />
      <polygon style="clip-path:url(#clipPath26); stroke:none;" points=" 279 71 267 65 267 77" />
      <polygon style="fill:none; clip-path:url(#clipPath26);" points=" 279 71 267 65 267 77" />
    </g>
    <g style="text-rendering:geometricPrecision; font-size:11; font-family:sans-serif;" transform="translate(290,304)">
      <text x="8" y="12" style="clip-path:url(#clipPath27); stroke:none;" xml:space="preserve">2.2: loadValuesToSources(sources)</text>
    </g>
    <g style="text-rendering:geometricPrecision; font-size:11; font-family:sans-serif;" transform="translate(286,244)">
      <text x="53" y="12" style="clip-path:url(#clipPath28); stroke:none;" xml:space="preserve">&lt;&lt;create&gt;&gt;</text>
      <text x="11" y="27" style="clip-path:url(#clipPath28); stroke:none;" xml:space="preserve">2.1: SourceReader(fileName)</text>
    </g>
    <g style="text-rendering:geometricPrecision; font-size:11; font-family:sans-serif;" transform="translate(94,224)">
      <text x="11" y="12" style="clip-path:url(#clipPath29); stroke:none;" xml:space="preserve">2: loadSources(fileName)</text>
    </g>
    <g style="text-rendering:geometricPrecision; font-size:11; font-family:sans-serif;" transform="translate(500,424)">
      <text x="9" y="12" style="clip-path:url(#clipPath30); stroke:none;" xml:space="preserve">2.2.2: setValues()</text>
    </g>
    <g style="text-rendering:geometricPrecision; font-size:11; font-family:sans-serif;" transform="translate(530,384)">
      <text x="10" y="12" style="clip-path:url(#clipPath31); stroke:none;" xml:space="preserve">2.2.1: beolvasás</text>
    </g>
    <g style="text-rendering:geometricPrecision; font-size:11; font-family:sans-serif;" transform="translate(51,134)">
      <text x="12" y="12" style="clip-path:url(#clipPath32); stroke:none;" xml:space="preserve">1: setState(STOPPED)</text>
    </g>
  </g>
</svg>
