<?xml version="1.0" encoding="UTF-8"?>

<!DOCTYPE svg PUBLIC '-//W3C//DTD SVG 1.0//EN' 'http://www.w3.org/TR/2001/REC-SVG-20010904/DTD/svg10.dtd'>
<svg style="fill-opacity:1; color-rendering:auto; color-interpolation:auto; stroke:black; text-rendering:auto; stroke-linecap:square; stroke-miterlimit:10; stroke-opacity:1; shape-rendering:auto; fill:black; stroke-dasharray:none; font-weight:normal; stroke-width:1; font-family:&apos;Dialog&apos;; font-style:normal; stroke-linejoin:miter; font-size:12; stroke-dashoffset:0; image-rendering:auto;" xmlns="http://www.w3.org/2000/svg" width="606" xmlns:xlink="http://www.w3.org/1999/xlink" height="276">
  <!--Generated by the Batik Graphics2D SVG Generator-->
  <defs id="genericDefs" />
  <g>
    <defs id="defs1">
      <clipPath clipPathUnits="userSpaceOnUse" id="clipPath1">
        <path d="M-3 -3 L67 -3 L67 277 L-3 277 L-3 -3 Z" />
      </clipPath>
      <clipPath clipPathUnits="userSpaceOnUse" id="clipPath2">
        <path d="M-3 -3 L77 -3 L77 277 L-3 277 L-3 -3 Z" />
      </clipPath>
      <clipPath clipPathUnits="userSpaceOnUse" id="clipPath3">
        <path d="M-3 -3 L15 -3 L15 57 L-3 57 L-3 -3 Z" />
      </clipPath>
      <clipPath clipPathUnits="userSpaceOnUse" id="clipPath4">
        <path d="M-3 -3 L87 -3 L87 277 L-3 277 L-3 -3 Z" />
      </clipPath>
      <clipPath clipPathUnits="userSpaceOnUse" id="clipPath5">
        <path d="M-3 -3 L15 -3 L15 49 L-3 49 L-3 -3 Z" />
      </clipPath>
      <clipPath clipPathUnits="userSpaceOnUse" id="clipPath6">
        <path d="M-3 -3 L15 -3 L15 41 L-3 41 L-3 -3 Z" />
      </clipPath>
      <clipPath clipPathUnits="userSpaceOnUse" id="clipPath7">
        <path d="M-3 -3 L137 -3 L137 47 L-3 47 L-3 -3 Z" />
      </clipPath>
      <clipPath clipPathUnits="userSpaceOnUse" id="clipPath8">
        <path d="M0 0 L0 40 L130 40 L130 0 Z" />
      </clipPath>
      <clipPath clipPathUnits="userSpaceOnUse" id="clipPath9">
        <path d="M-3 -3 L167 -3 L167 57 L-3 57 L-3 -3 Z" />
      </clipPath>
      <clipPath clipPathUnits="userSpaceOnUse" id="clipPath10">
        <path d="M0 0 L0 50 L160 50 L160 0 Z" />
      </clipPath>
      <clipPath clipPathUnits="userSpaceOnUse" id="clipPath11">
        <path d="M-3 -3 L167 -3 L167 47 L-3 47 L-3 -3 Z" />
      </clipPath>
      <clipPath clipPathUnits="userSpaceOnUse" id="clipPath12">
        <path d="M0 0 L0 40 L160 40 L160 0 Z" />
      </clipPath>
      <clipPath clipPathUnits="userSpaceOnUse" id="clipPath13">
        <path d="M-80 -15 L160 -15 L160 30 L-80 30 L-80 -15 Z" />
      </clipPath>
      <clipPath clipPathUnits="userSpaceOnUse" id="clipPath14">
        <path d="M-70 -15 L140 -15 L140 30 L-70 30 L-70 -15 Z" />
      </clipPath>
      <clipPath clipPathUnits="userSpaceOnUse" id="clipPath15">
        <path d="M-43 -15 L86 -15 L86 30 L-43 30 L-43 -15 Z" />
      </clipPath>
      <clipPath clipPathUnits="userSpaceOnUse" id="clipPath16">
        <path d="M0 0 L241 0 L241 104 L0 104 L0 0 Z" />
      </clipPath>
      <clipPath clipPathUnits="userSpaceOnUse" id="clipPath17">
        <path d="M0 0 L291 0 L291 104 L0 104 L0 0 Z" />
      </clipPath>
      <clipPath clipPathUnits="userSpaceOnUse" id="clipPath18">
        <path d="M0 0 L286 0 L286 104 L0 104 L0 0 Z" />
      </clipPath>
      <clipPath clipPathUnits="userSpaceOnUse" id="clipPath19">
        <path d="M0 0 L104 0 L104 153 L0 153 L0 0 Z" />
      </clipPath>
      <clipPath clipPathUnits="userSpaceOnUse" id="clipPath20">
        <path d="M0 0 L104 0 L104 163 L0 163 L0 0 Z" />
      </clipPath>
      <clipPath clipPathUnits="userSpaceOnUse" id="clipPath21">
        <path d="M-152 -16 L304 -16 L304 32 L-152 32 L-152 -16 Z" />
      </clipPath>
      <clipPath clipPathUnits="userSpaceOnUse" id="clipPath22">
        <path d="M-187 -15 L374 -15 L374 30 L-187 30 L-187 -15 Z" />
      </clipPath>
      <clipPath clipPathUnits="userSpaceOnUse" id="clipPath23">
        <path d="M-88 -15 L176 -15 L176 30 L-88 30 L-88 -15 Z" />
      </clipPath>
    </defs>
    <g style="fill:white; text-rendering:geometricPrecision; stroke:white;">
      <rect x="0" y="0" width="606" style="stroke:none;" height="276" />
    </g>
    <g transform="translate(2,2)" style="font-size:11; stroke-linecap:butt; text-rendering:geometricPrecision; font-family:sans-serif; stroke-linejoin:round; stroke-miterlimit:0;">
      <circle style="fill:none; clip-path:url(#clipPath1);" r="5" cx="30" cy="5" />
      <rect x="26" y="50" width="8" style="clip-path:url(#clipPath1); fill:none;" height="219" />
      <line x1="30" x2="30" y1="10" style="clip-path:url(#clipPath1); fill:none;" y2="25" />
      <line x1="30" x2="21" y1="25" style="clip-path:url(#clipPath1); fill:none;" y2="36" />
      <line x1="30" x2="39" y1="25" style="clip-path:url(#clipPath1); fill:none;" y2="36" />
      <line x1="21" x2="39" y1="16" style="clip-path:url(#clipPath1); fill:none;" y2="16" />
    </g>
    <g transform="translate(142,2)" style="font-size:11; stroke-linecap:butt; text-rendering:geometricPrecision; font-family:sans-serif; stroke-linejoin:round; stroke-miterlimit:0;">
      <rect x="0" y="0" width="69" style="clip-path:url(#clipPath2); fill:none;" height="35" />
      <line x1="34" x2="34" y1="35" style="clip-path:url(#clipPath2); fill:none; stroke-linejoin:bevel; stroke-dasharray:8,3;" y2="270" />
    </g>
    <g transform="translate(173,92)" style="font-size:11; stroke-linecap:butt; text-rendering:geometricPrecision; font-family:sans-serif; stroke-linejoin:round; stroke-miterlimit:0;">
      <rect x="0" y="0" width="8" style="clip-path:url(#clipPath3); fill:none;" height="50" />
    </g>
    <g transform="translate(332,2)" style="font-size:11; stroke-linecap:butt; text-rendering:geometricPrecision; font-family:sans-serif; stroke-linejoin:round; stroke-miterlimit:0;">
      <rect x="0" y="0" width="79" style="clip-path:url(#clipPath4); fill:none;" height="35" />
      <line x1="39" x2="39" y1="35" style="clip-path:url(#clipPath4); fill:none; stroke-linejoin:bevel; stroke-dasharray:8,3;" y2="270" />
    </g>
    <g transform="translate(368,122)" style="font-size:11; stroke-linecap:butt; text-rendering:geometricPrecision; font-family:sans-serif; stroke-linejoin:round; stroke-miterlimit:0;">
      <rect x="0" y="0" width="8" style="clip-path:url(#clipPath5); fill:none;" height="42" />
    </g>
    <g transform="translate(522,2)" style="font-size:11; stroke-linecap:butt; text-rendering:geometricPrecision; font-family:sans-serif; stroke-linejoin:round; stroke-miterlimit:0;">
      <rect x="0" y="0" width="79" style="clip-path:url(#clipPath4); fill:none;" height="35" />
      <line x1="39" x2="39" y1="35" style="clip-path:url(#clipPath4); fill:none; stroke-linejoin:bevel; stroke-dasharray:8,3;" y2="270" />
    </g>
    <g transform="translate(558,142)" style="font-size:11; stroke-linecap:butt; text-rendering:geometricPrecision; font-family:sans-serif; stroke-linejoin:round; stroke-miterlimit:0;">
      <rect x="0" y="0" width="8" style="clip-path:url(#clipPath6); fill:none;" height="34" />
    </g>
    <g transform="translate(42,142)" style="font-size:11; stroke-linecap:butt; text-rendering:geometricPrecision; font-family:sans-serif; stroke-linejoin:round; stroke-miterlimit:0;">
      <polygon style="fill:none; clip-path:url(#clipPath7);" points=" 0 0 114 0 129 15 114 15 114 0 129 15 129 39 0 39" />
    </g>
    <g style="text-rendering:geometricPrecision; font-size:11; font-family:&apos;Tahoma&apos;;" transform="translate(42,142)">
      <path d="M3.875 14.9704 L3.875 6.3767 L7.1094 6.3767 Q8.0938 6.3767 8.6875 6.6423 Q9.2812 6.9079 9.6172 7.447 Q9.9531 7.9861 9.9531 8.5798 Q9.9531 9.1267 9.6562 9.6111 Q9.3594 10.0954 8.75 10.3923 Q9.5312 10.6267 9.9453 11.1814 Q10.3594 11.7361 10.3594 12.4861 Q10.3594 13.0798 10.1094 13.6032 Q9.8594 14.1267 9.4844 14.4079 Q9.1094 14.6892 8.5391 14.8298 Q7.9688 14.9704 7.1562 14.9704 L3.875 14.9704 ZM5.0156 9.9861 L6.875 9.9861 Q7.625 9.9861 7.9531 9.8923 Q8.3906 9.7673 8.6094 9.4626 Q8.8281 9.1579 8.8281 8.7048 Q8.8281 8.2829 8.625 7.9548 Q8.4219 7.6267 8.0391 7.5095 Q7.6562 7.3923 6.7344 7.3923 L5.0156 7.3923 L5.0156 9.9861 ZM5.0156 13.9548 L7.1562 13.9548 Q7.7031 13.9548 7.9219 13.9079 Q8.3281 13.8454 8.5859 13.6814 Q8.8438 13.5173 9.0156 13.2048 Q9.1875 12.8923 9.1875 12.4861 Q9.1875 12.0017 8.9453 11.6423 Q8.7031 11.2829 8.2656 11.1423 Q7.8281 11.0017 7 11.0017 L5.0156 11.0017 L5.0156 13.9548 ZM16.0469 12.9704 L17.1406 13.0954 Q16.8906 14.0486 16.1875 14.5798 Q15.4844 15.1111 14.4062 15.1111 Q13.0469 15.1111 12.2422 14.2673 Q11.4375 13.4236 11.4375 11.9079 Q11.4375 10.3454 12.25 9.4782 Q13.0625 8.6111 14.3438 8.6111 Q15.5938 8.6111 16.3828 9.4548 Q17.1719 10.2986 17.1719 11.8454 Q17.1719 11.9392 17.1719 12.1267 L12.5312 12.1267 Q12.5938 13.1579 13.1094 13.697 Q13.625 14.2361 14.4062 14.2361 Q14.9844 14.2361 15.3984 13.9314 Q15.8125 13.6267 16.0469 12.9704 ZM12.5938 11.2673 L16.0625 11.2673 Q16 10.4704 15.6719 10.0798 Q15.1562 9.4704 14.3594 9.4704 Q13.625 9.4704 13.1328 9.9548 Q12.6406 10.4392 12.5938 11.2673 ZM22.8594 14.2048 Q22.2656 14.7048 21.7266 14.9079 Q21.1875 15.1111 20.5625 15.1111 Q19.5312 15.1111 18.9844 14.6111 Q18.4375 14.1111 18.4375 13.3298 Q18.4375 12.8767 18.6406 12.4939 Q18.8438 12.1111 19.1875 11.8845 Q19.5312 11.6579 19.9531 11.5486 Q20.25 11.4548 20.8906 11.3767 Q22.1562 11.2361 22.7656 11.0173 Q22.7656 10.7986 22.7656 10.7517 Q22.7656 10.0954 22.4688 9.8298 Q22.0625 9.4861 21.2656 9.4861 Q20.5312 9.4861 20.1719 9.7439 Q19.8125 10.0017 19.6406 10.6579 L18.6094 10.5173 Q18.75 9.8611 19.0781 9.4548 Q19.4062 9.0486 20.0156 8.8298 Q20.625 8.6111 21.4219 8.6111 Q22.2188 8.6111 22.7188 8.7986 Q23.2188 8.9861 23.4531 9.2673 Q23.6875 9.5486 23.7812 9.9861 Q23.8281 10.2517 23.8281 10.9548 L23.8281 12.3611 Q23.8281 13.8298 23.8984 14.2204 Q23.9688 14.6111 24.1719 14.9704 L23.0625 14.9704 Q22.9062 14.6423 22.8594 14.2048 ZM22.7656 11.8454 Q22.1875 12.0798 21.0469 12.2517 Q20.3906 12.3454 20.125 12.4626 Q19.8594 12.5798 19.7109 12.7986 Q19.5625 13.0173 19.5625 13.2986 Q19.5625 13.7204 19.8828 14.0017 Q20.2031 14.2829 20.8125 14.2829 Q21.4219 14.2829 21.8984 14.0173 Q22.375 13.7517 22.5938 13.2829 Q22.7656 12.9236 22.7656 12.2361 L22.7656 11.8454 ZM20.125 6.9704 L20.9062 5.3298 L22.2969 5.3298 L21 6.9704 L20.125 6.9704 ZM25.7656 14.9704 L25.7656 6.3767 L26.8281 6.3767 L26.8281 14.9704 L25.7656 14.9704 ZM28.7656 14.9704 L28.7656 6.3767 L29.8281 6.3767 L29.8281 14.9704 L28.7656 14.9704 ZM32.1562 14.9704 L32.1562 8.7517 L33.2188 8.7517 L33.2188 14.9704 L32.1562 14.9704 ZM32.125 6.9704 L32.9062 5.3298 L34.2969 5.3298 L33 6.9704 L32.125 6.9704 ZM37.0938 14.0329 L37.25 14.9548 Q36.7969 15.0486 36.4531 15.0486 Q35.875 15.0486 35.5625 14.8689 Q35.25 14.6892 35.1172 14.3923 Q34.9844 14.0954 34.9844 13.1423 L34.9844 9.5642 L34.2188 9.5642 L34.2188 8.7517 L34.9844 8.7517 L34.9844 7.2048 L36.0312 6.5798 L36.0312 8.7517 L37.0938 8.7517 L37.0938 9.5642 L36.0312 9.5642 L36.0312 13.2048 Q36.0312 13.6579 36.0859 13.7829 Q36.1406 13.9079 36.2656 13.9861 Q36.3906 14.0642 36.625 14.0642 Q36.8125 14.0642 37.0938 14.0329 ZM37.7812 7.6111 L37.7812 6.3767 L38.8438 6.3767 L38.8438 7.6111 L37.7812 7.6111 ZM36.4531 17.3923 L36.6406 16.4861 Q36.9688 16.5642 37.1406 16.5642 Q37.4688 16.5642 37.625 16.3532 Q37.7812 16.1423 37.7812 15.2829 L37.7812 8.7517 L38.8438 8.7517 L38.8438 15.3142 Q38.8438 16.4548 38.5469 16.9079 Q38.1562 17.5017 37.2812 17.5017 Q36.8438 17.5017 36.4531 17.3923 ZM44.875 14.9704 L44.875 14.0486 Q44.1406 15.1111 42.8906 15.1111 Q42.3438 15.1111 41.8672 14.9001 Q41.3906 14.6892 41.1562 14.3689 Q40.9219 14.0486 40.8281 13.5798 Q40.7656 13.2829 40.7656 12.5954 L40.7656 8.7517 L41.8281 8.7517 L41.8281 12.2048 Q41.8281 13.0173 41.8906 13.3142 Q41.9844 13.7204 42.3047 13.9626 Q42.625 14.2048 43.1094 14.2048 Q43.5781 14.2048 43.9922 13.9626 Q44.4062 13.7204 44.5859 13.2986 Q44.7656 12.8767 44.7656 12.0798 L44.7656 8.7517 L45.8125 8.7517 L45.8125 14.9704 L44.875 14.9704 ZM47.7969 14.9704 L47.7969 6.3767 L48.8594 6.3767 L48.8594 11.2829 L51.3438 8.7517 L52.7188 8.7517 L50.3281 11.0486 L52.9531 14.9704 L51.6562 14.9704 L49.5938 11.7829 L48.8594 12.5017 L48.8594 14.9704 L47.7969 14.9704 ZM60.8594 14.2048 Q60.2656 14.7048 59.7266 14.9079 Q59.1875 15.1111 58.5625 15.1111 Q57.5312 15.1111 56.9844 14.6111 Q56.4375 14.1111 56.4375 13.3298 Q56.4375 12.8767 56.6406 12.4939 Q56.8438 12.1111 57.1875 11.8845 Q57.5312 11.6579 57.9531 11.5486 Q58.25 11.4548 58.8906 11.3767 Q60.1562 11.2361 60.7656 11.0173 Q60.7656 10.7986 60.7656 10.7517 Q60.7656 10.0954 60.4688 9.8298 Q60.0625 9.4861 59.2656 9.4861 Q58.5312 9.4861 58.1719 9.7439 Q57.8125 10.0017 57.6406 10.6579 L56.6094 10.5173 Q56.75 9.8611 57.0781 9.4548 Q57.4062 9.0486 58.0156 8.8298 Q58.625 8.6111 59.4219 8.6111 Q60.2188 8.6111 60.7188 8.7986 Q61.2188 8.9861 61.4531 9.2673 Q61.6875 9.5486 61.7812 9.9861 Q61.8281 10.2517 61.8281 10.9548 L61.8281 12.3611 Q61.8281 13.8298 61.8984 14.2204 Q61.9688 14.6111 62.1719 14.9704 L61.0625 14.9704 Q60.9062 14.6423 60.8594 14.2048 ZM60.7656 11.8454 Q60.1875 12.0798 59.0469 12.2517 Q58.3906 12.3454 58.125 12.4626 Q57.8594 12.5798 57.7109 12.7986 Q57.5625 13.0173 57.5625 13.2986 Q57.5625 13.7204 57.8828 14.0017 Q58.2031 14.2829 58.8125 14.2829 Q59.4219 14.2829 59.8984 14.0173 Q60.375 13.7517 60.5938 13.2829 Q60.7656 12.9236 60.7656 12.2361 L60.7656 11.8454 ZM63.2344 14.9704 L63.2344 14.1111 L67.2031 9.5642 Q66.5156 9.5954 66 9.5954 L63.4688 9.5954 L63.4688 8.7517 L68.5625 8.7517 L68.5625 9.4392 L65.1875 13.3923 L64.5312 14.1111 Q65.25 14.0642 65.8594 14.0642 L68.75 14.0642 L68.75 14.9704 L63.2344 14.9704 ZM76.0469 12.9704 L77.1406 13.0954 Q76.8906 14.0486 76.1875 14.5798 Q75.4844 15.1111 74.4062 15.1111 Q73.0469 15.1111 72.2422 14.2673 Q71.4375 13.4236 71.4375 11.9079 Q71.4375 10.3454 72.25 9.4782 Q73.0625 8.6111 74.3438 8.6111 Q75.5938 8.6111 76.3828 9.4548 Q77.1719 10.2986 77.1719 11.8454 Q77.1719 11.9392 77.1719 12.1267 L72.5312 12.1267 Q72.5938 13.1579 73.1094 13.697 Q73.625 14.2361 74.4062 14.2361 Q74.9844 14.2361 75.3984 13.9314 Q75.8125 13.6267 76.0469 12.9704 ZM72.5938 11.2673 L76.0625 11.2673 Q76 10.4704 75.6719 10.0798 Q75.1562 9.4704 74.3594 9.4704 Q73.625 9.4704 73.1328 9.9548 Q72.6406 10.4392 72.5938 11.2673 ZM73.125 6.9704 L73.9062 5.3298 L75.2969 5.3298 L74 6.9704 L73.125 6.9704 ZM78.7812 14.9704 L78.7812 8.7517 L79.7344 8.7517 L79.7344 9.6892 Q80.0938 9.0329 80.3984 8.822 Q80.7031 8.6111 81.0781 8.6111 Q81.6094 8.6111 82.1562 8.9392 L81.7969 9.9236 Q81.4062 9.6892 81.0312 9.6892 Q80.6719 9.6892 80.3984 9.9001 Q80.125 10.1111 80.0156 10.4861 Q79.8281 11.0486 79.8281 11.7048 L79.8281 14.9704 L78.7812 14.9704 ZM85.0938 14.0329 L85.25 14.9548 Q84.7969 15.0486 84.4531 15.0486 Q83.875 15.0486 83.5625 14.8689 Q83.25 14.6892 83.1172 14.3923 Q82.9844 14.0954 82.9844 13.1423 L82.9844 9.5642 L82.2188 9.5642 L82.2188 8.7517 L82.9844 8.7517 L82.9844 7.2048 L84.0312 6.5798 L84.0312 8.7517 L85.0938 8.7517 L85.0938 9.5642 L84.0312 9.5642 L84.0312 13.2048 Q84.0312 13.6579 84.0859 13.7829 Q84.1406 13.9079 84.2656 13.9861 Q84.3906 14.0642 84.625 14.0642 Q84.8125 14.0642 85.0938 14.0329 ZM90.0469 12.9704 L91.1406 13.0954 Q90.8906 14.0486 90.1875 14.5798 Q89.4844 15.1111 88.4062 15.1111 Q87.0469 15.1111 86.2422 14.2673 Q85.4375 13.4236 85.4375 11.9079 Q85.4375 10.3454 86.25 9.4782 Q87.0625 8.6111 88.3438 8.6111 Q89.5938 8.6111 90.3828 9.4548 Q91.1719 10.2986 91.1719 11.8454 Q91.1719 11.9392 91.1719 12.1267 L86.5312 12.1267 Q86.5938 13.1579 87.1094 13.697 Q87.625 14.2361 88.4062 14.2361 Q88.9844 14.2361 89.3984 13.9314 Q89.8125 13.6267 90.0469 12.9704 ZM86.5938 11.2673 L90.0625 11.2673 Q90 10.4704 89.6719 10.0798 Q89.1562 9.4704 88.3594 9.4704 Q87.625 9.4704 87.1328 9.9548 Q86.6406 10.4392 86.5938 11.2673 ZM87.125 6.9704 L87.9062 5.3298 L89.2969 5.3298 L88 6.9704 L87.125 6.9704 ZM92.7969 14.9704 L92.7969 6.3767 L93.8594 6.3767 L93.8594 11.2829 L96.3438 8.7517 L97.7188 8.7517 L95.3281 11.0486 L97.9531 14.9704 L96.6562 14.9704 L94.5938 11.7829 L93.8594 12.5017 L93.8594 14.9704 L92.7969 14.9704 ZM103.0469 12.9704 L104.1406 13.0954 Q103.8906 14.0486 103.1875 14.5798 Q102.4844 15.1111 101.4062 15.1111 Q100.0469 15.1111 99.2422 14.2673 Q98.4375 13.4236 98.4375 11.9079 Q98.4375 10.3454 99.25 9.4782 Q100.0625 8.6111 101.3438 8.6111 Q102.5938 8.6111 103.3828 9.4548 Q104.1719 10.2986 104.1719 11.8454 Q104.1719 11.9392 104.1719 12.1267 L99.5312 12.1267 Q99.5938 13.1579 100.1094 13.697 Q100.625 14.2361 101.4062 14.2361 Q101.9844 14.2361 102.3984 13.9314 Q102.8125 13.6267 103.0469 12.9704 ZM99.5938 11.2673 L103.0625 11.2673 Q103 10.4704 102.6719 10.0798 Q102.1562 9.4704 101.3594 9.4704 Q100.625 9.4704 100.1328 9.9548 Q99.6406 10.4392 99.5938 11.2673 ZM108.0938 14.0329 L108.25 14.9548 Q107.7969 15.0486 107.4531 15.0486 Q106.875 15.0486 106.5625 14.8689 Q106.25 14.6892 106.1172 14.3923 Q105.9844 14.0954 105.9844 13.1423 L105.9844 9.5642 L105.2188 9.5642 L105.2188 8.7517 L105.9844 8.7517 L105.9844 7.2048 L107.0312 6.5798 L107.0312 8.7517 L108.0938 8.7517 L108.0938 9.5642 L107.0312 9.5642 L107.0312 13.2048 Q107.0312 13.6579 107.0859 13.7829 Q107.1406 13.9079 107.2656 13.9861 Q107.3906 14.0642 107.625 14.0642 Q107.8125 14.0642 108.0938 14.0329 Z" style="clip-path:url(#clipPath8); stroke:none;" />
    </g>
    <g transform="translate(202,172)" style="font-size:11; stroke-linecap:butt; text-rendering:geometricPrecision; font-family:sans-serif; stroke-linejoin:round; stroke-miterlimit:0;">
      <polygon style="fill:none; clip-path:url(#clipPath9);" points=" 0 0 144 0 159 15 144 15 144 0 159 15 159 49 0 49" />
    </g>
    <g style="text-rendering:geometricPrecision; font-size:11; font-family:&apos;Tahoma&apos;;" transform="translate(202,172)">
      <path d="M3.3438 12.5329 L4.375 12.3923 Q4.4062 13.3767 4.7344 13.7361 Q5.0625 14.0954 5.6562 14.0954 Q6.0781 14.0954 6.3906 13.9001 Q6.7031 13.7048 6.8203 13.3689 Q6.9375 13.0329 6.9375 12.2986 L6.9375 6.3767 L8.0625 6.3767 L8.0625 12.2361 Q8.0625 13.3142 7.8047 13.9079 Q7.5469 14.5017 6.9844 14.8064 Q6.4219 15.1111 5.6562 15.1111 Q4.5312 15.1111 3.9297 14.4626 Q3.3281 13.8142 3.3438 12.5329 ZM14.0469 12.9704 L15.1406 13.0954 Q14.8906 14.0486 14.1875 14.5798 Q13.4844 15.1111 12.4062 15.1111 Q11.0469 15.1111 10.2422 14.2673 Q9.4375 13.4236 9.4375 11.9079 Q9.4375 10.3454 10.25 9.4782 Q11.0625 8.6111 12.3438 8.6111 Q13.5938 8.6111 14.3828 9.4548 Q15.1719 10.2986 15.1719 11.8454 Q15.1719 11.9392 15.1719 12.1267 L10.5312 12.1267 Q10.5938 13.1579 11.1094 13.697 Q11.625 14.2361 12.4062 14.2361 Q12.9844 14.2361 13.3984 13.9314 Q13.8125 13.6267 14.0469 12.9704 ZM10.5938 11.2673 L14.0625 11.2673 Q14 10.4704 13.6719 10.0798 Q13.1562 9.4704 12.3594 9.4704 Q11.625 9.4704 11.1328 9.9548 Q10.6406 10.4392 10.5938 11.2673 ZM16.7656 14.9704 L16.7656 6.3767 L17.8281 6.3767 L17.8281 14.9704 L16.7656 14.9704 ZM19.7656 14.9704 L19.7656 6.3767 L20.8281 6.3767 L20.8281 14.9704 L19.7656 14.9704 ZM27.0469 12.9704 L28.1406 13.0954 Q27.8906 14.0486 27.1875 14.5798 Q26.4844 15.1111 25.4062 15.1111 Q24.0469 15.1111 23.2422 14.2673 Q22.4375 13.4236 22.4375 11.9079 Q22.4375 10.3454 23.25 9.4782 Q24.0625 8.6111 25.3438 8.6111 Q26.5938 8.6111 27.3828 9.4548 Q28.1719 10.2986 28.1719 11.8454 Q28.1719 11.9392 28.1719 12.1267 L23.5312 12.1267 Q23.5938 13.1579 24.1094 13.697 Q24.625 14.2361 25.4062 14.2361 Q25.9844 14.2361 26.3984 13.9314 Q26.8125 13.6267 27.0469 12.9704 ZM23.5938 11.2673 L27.0625 11.2673 Q27 10.4704 26.6719 10.0798 Q26.1562 9.4704 25.3594 9.4704 Q24.625 9.4704 24.1328 9.9548 Q23.6406 10.4392 23.5938 11.2673 ZM29.2344 14.9704 L29.2344 14.1111 L33.2031 9.5642 Q32.5156 9.5954 32 9.5954 L29.4688 9.5954 L29.4688 8.7517 L34.5625 8.7517 L34.5625 9.4392 L31.1875 13.3923 L30.5312 14.1111 Q31.25 14.0642 31.8594 14.0642 L34.75 14.0642 L34.75 14.9704 L29.2344 14.9704 ZM34.2344 14.9704 L34.2344 14.1111 L38.2031 9.5642 Q37.5156 9.5954 37 9.5954 L34.4688 9.5954 L34.4688 8.7517 L39.5625 8.7517 L39.5625 9.4392 L36.1875 13.3923 L35.5312 14.1111 Q36.25 14.0642 36.8594 14.0642 L39.75 14.0642 L39.75 14.9704 L34.2344 14.9704 ZM43.875 14.9704 L43.875 14.0486 Q43.1406 15.1111 41.8906 15.1111 Q41.3438 15.1111 40.8672 14.9001 Q40.3906 14.6892 40.1562 14.3689 Q39.9219 14.0486 39.8281 13.5798 Q39.7656 13.2829 39.7656 12.5954 L39.7656 8.7517 L40.8281 8.7517 L40.8281 12.2048 Q40.8281 13.0173 40.8906 13.3142 Q40.9844 13.7204 41.3047 13.9626 Q41.625 14.2048 42.1094 14.2048 Q42.5781 14.2048 42.9922 13.9626 Q43.4062 13.7204 43.5859 13.2986 Q43.7656 12.8767 43.7656 12.0798 L43.7656 8.7517 L44.8125 8.7517 L44.8125 14.9704 L43.875 14.9704 ZM40.3594 6.9704 L40.3594 5.7673 L41.4531 5.7673 L41.4531 6.9704 L40.3594 6.9704 ZM42.5469 6.9704 L42.5469 5.7673 L43.6406 5.7673 L43.6406 6.9704 L42.5469 6.9704 ZM46.7969 14.9704 L46.7969 6.3767 L47.8594 6.3767 L47.8594 11.2829 L50.3438 8.7517 L51.7188 8.7517 L49.3281 11.0486 L51.9531 14.9704 L50.6562 14.9704 L48.5938 11.7829 L47.8594 12.5017 L47.8594 14.9704 L46.7969 14.9704 ZM53.0625 14.9704 L53.0625 13.7673 L54.2656 13.7673 L54.2656 14.9704 Q54.2656 15.6267 54.0312 16.0407 Q53.7969 16.4548 53.2969 16.6736 L53 16.2204 Q53.3281 16.0798 53.4844 15.7907 Q53.6406 15.5017 53.6719 14.9704 L53.0625 14.9704 ZM58.7969 14.9704 L58.7969 6.3767 L59.8438 6.3767 L59.8438 9.4548 Q60.5781 8.6111 61.7031 8.6111 Q62.4062 8.6111 62.9141 8.8845 Q63.4219 9.1579 63.6406 9.6345 Q63.8594 10.1111 63.8594 11.0329 L63.8594 14.9704 L62.8125 14.9704 L62.8125 11.0329 Q62.8125 10.2361 62.4688 9.8767 Q62.125 9.5173 61.5 9.5173 Q61.0312 9.5173 60.6172 9.7595 Q60.2031 10.0017 60.0234 10.4157 Q59.8438 10.8298 59.8438 11.5642 L59.8438 14.9704 L58.7969 14.9704 ZM65.4062 11.8611 Q65.4062 10.1267 66.3594 9.2986 Q67.1562 8.6111 68.3125 8.6111 Q69.5938 8.6111 70.4141 9.447 Q71.2344 10.2829 71.2344 11.7673 Q71.2344 12.9704 70.875 13.6579 Q70.5156 14.3454 69.8203 14.7282 Q69.125 15.1111 68.3125 15.1111 Q67.0156 15.1111 66.2109 14.2751 Q65.4062 13.4392 65.4062 11.8611 ZM66.4844 11.8611 Q66.4844 13.0486 67.0078 13.6423 Q67.5312 14.2361 68.3125 14.2361 Q69.1094 14.2361 69.625 13.6423 Q70.1406 13.0486 70.1406 11.8298 Q70.1406 10.6736 69.6172 10.0798 Q69.0938 9.4861 68.3125 9.4861 Q67.5312 9.4861 67.0078 10.072 Q66.4844 10.6579 66.4844 11.8611 ZM72.5938 15.4861 L73.625 15.6423 Q73.6875 16.1111 73.9844 16.3298 Q74.375 16.6267 75.0469 16.6267 Q75.7812 16.6267 76.1797 16.3298 Q76.5781 16.0329 76.7188 15.5173 Q76.8125 15.1892 76.7969 14.1579 Q76.1094 14.9704 75.0781 14.9704 Q73.7969 14.9704 73.0938 14.0407 Q72.3906 13.1111 72.3906 11.8298 Q72.3906 10.9392 72.7109 10.1814 Q73.0312 9.4236 73.6406 9.0173 Q74.25 8.6111 75.0781 8.6111 Q76.1875 8.6111 76.9062 9.5017 L76.9062 8.7517 L77.875 8.7517 L77.875 14.1267 Q77.875 15.5798 77.5781 16.1892 Q77.2812 16.7986 76.6406 17.1501 Q76 17.5017 75.0625 17.5017 Q73.9531 17.5017 73.2656 17.0017 Q72.5781 16.5017 72.5938 15.4861 ZM73.4688 11.7517 Q73.4688 12.9704 73.9531 13.5329 Q74.4375 14.0954 75.1719 14.0954 Q75.9062 14.0954 76.3984 13.5329 Q76.8906 12.9704 76.8906 11.7829 Q76.8906 10.6423 76.3828 10.0642 Q75.875 9.4861 75.1562 9.4861 Q74.4531 9.4861 73.9609 10.0564 Q73.4688 10.6267 73.4688 11.7517 ZM79.75 17.3611 L79.625 16.3767 Q79.9688 16.4704 80.2344 16.4704 Q80.5781 16.4704 80.7891 16.3532 Q81 16.2361 81.1406 16.0329 Q81.2344 15.8611 81.4688 15.2361 Q81.4844 15.1579 81.5625 14.9861 L79.1875 8.7517 L80.3281 8.7517 L81.625 12.3454 Q81.875 13.0329 82.0781 13.7986 Q82.2656 13.0642 82.5156 12.3767 L83.8438 8.7517 L84.8906 8.7517 L82.5312 15.0798 Q82.1406 16.0954 81.9375 16.4861 Q81.6562 17.0173 81.2891 17.2595 Q80.9219 17.5017 80.4219 17.5017 Q80.125 17.5017 79.75 17.3611 ZM87.375 13.1111 L88.4062 12.9548 Q88.5 13.5798 88.8984 13.9079 Q89.2969 14.2361 90.0312 14.2361 Q90.75 14.2361 91.1016 13.947 Q91.4531 13.6579 91.4531 13.2517 Q91.4531 12.8923 91.1406 12.6892 Q90.9219 12.5486 90.0625 12.3298 Q88.9062 12.0329 88.4609 11.822 Q88.0156 11.6111 87.7812 11.2361 Q87.5469 10.8611 87.5469 10.3923 Q87.5469 9.9861 87.7344 9.6267 Q87.9219 9.2673 88.25 9.0329 Q88.5 8.8611 88.9219 8.7361 Q89.3438 8.6111 89.8438 8.6111 Q90.5625 8.6111 91.1172 8.822 Q91.6719 9.0329 91.9375 9.3923 Q92.2031 9.7517 92.2969 10.3454 L91.2656 10.4861 Q91.2031 10.0173 90.8672 9.7439 Q90.5312 9.4704 89.9062 9.4704 Q89.1875 9.4704 88.875 9.7126 Q88.5625 9.9548 88.5625 10.2829 Q88.5625 10.4861 88.6875 10.6423 Q88.8281 10.8142 89.0938 10.9236 Q89.25 10.9861 90.0312 11.1892 Q91.1562 11.5017 91.5938 11.6892 Q92.0312 11.8767 92.2812 12.2361 Q92.5312 12.5954 92.5312 13.1423 Q92.5312 13.6736 92.2266 14.1345 Q91.9219 14.5954 91.3438 14.8532 Q90.7656 15.1111 90.0312 15.1111 Q88.8125 15.1111 88.1797 14.6032 Q87.5469 14.0954 87.375 13.1111 ZM94.2344 14.9704 L94.2344 14.1111 L98.2031 9.5642 Q97.5156 9.5954 97 9.5954 L94.4688 9.5954 L94.4688 8.7517 L99.5625 8.7517 L99.5625 9.4392 L96.1875 13.3923 L95.5312 14.1111 Q96.25 14.0642 96.8594 14.0642 L99.75 14.0642 L99.75 14.9704 L94.2344 14.9704 ZM103.875 14.9704 L103.875 14.0486 Q103.1406 15.1111 101.8906 15.1111 Q101.3438 15.1111 100.8672 14.9001 Q100.3906 14.6892 100.1562 14.3689 Q99.9219 14.0486 99.8281 13.5798 Q99.7656 13.2829 99.7656 12.5954 L99.7656 8.7517 L100.8281 8.7517 L100.8281 12.2048 Q100.8281 13.0173 100.8906 13.3142 Q100.9844 13.7204 101.3047 13.9626 Q101.625 14.2048 102.1094 14.2048 Q102.5781 14.2048 102.9922 13.9626 Q103.4062 13.7204 103.5859 13.2986 Q103.7656 12.8767 103.7656 12.0798 L103.7656 8.7517 L104.8125 8.7517 L104.8125 14.9704 L103.875 14.9704 ZM100.3594 6.9704 L100.3594 5.7673 L101.4531 5.7673 L101.4531 6.9704 L100.3594 6.9704 ZM102.5469 6.9704 L102.5469 5.7673 L103.6406 5.7673 L103.6406 6.9704 L102.5469 6.9704 ZM106.7969 14.9704 L106.7969 6.3767 L107.8594 6.3767 L107.8594 11.2829 L110.3438 8.7517 L111.7188 8.7517 L109.3281 11.0486 L111.9531 14.9704 L110.6562 14.9704 L108.5938 11.7829 L107.8594 12.5017 L107.8594 14.9704 L106.7969 14.9704 ZM112.375 13.1111 L113.4062 12.9548 Q113.5 13.5798 113.8984 13.9079 Q114.2969 14.2361 115.0312 14.2361 Q115.75 14.2361 116.1016 13.947 Q116.4531 13.6579 116.4531 13.2517 Q116.4531 12.8923 116.1406 12.6892 Q115.9219 12.5486 115.0625 12.3298 Q113.9062 12.0329 113.4609 11.822 Q113.0156 11.6111 112.7812 11.2361 Q112.5469 10.8611 112.5469 10.3923 Q112.5469 9.9861 112.7344 9.6267 Q112.9219 9.2673 113.25 9.0329 Q113.5 8.8611 113.9219 8.7361 Q114.3438 8.6111 114.8438 8.6111 Q115.5625 8.6111 116.1172 8.822 Q116.6719 9.0329 116.9375 9.3923 Q117.2031 9.7517 117.2969 10.3454 L116.2656 10.4861 Q116.2031 10.0173 115.8672 9.7439 Q115.5312 9.4704 114.9062 9.4704 Q114.1875 9.4704 113.875 9.7126 Q113.5625 9.9548 113.5625 10.2829 Q113.5625 10.4861 113.6875 10.6423 Q113.8281 10.8142 114.0938 10.9236 Q114.25 10.9861 115.0312 11.1892 Q116.1562 11.5017 116.5938 11.6892 Q117.0312 11.8767 117.2812 12.2361 Q117.5312 12.5954 117.5312 13.1423 Q117.5312 13.6736 117.2266 14.1345 Q116.9219 14.5954 116.3438 14.8532 Q115.7656 15.1111 115.0312 15.1111 Q113.8125 15.1111 113.1797 14.6032 Q112.5469 14.0954 112.375 13.1111 ZM124.0469 12.9704 L125.1406 13.0954 Q124.8906 14.0486 124.1875 14.5798 Q123.4844 15.1111 122.4062 15.1111 Q121.0469 15.1111 120.2422 14.2673 Q119.4375 13.4236 119.4375 11.9079 Q119.4375 10.3454 120.25 9.4782 Q121.0625 8.6111 122.3438 8.6111 Q123.5938 8.6111 124.3828 9.4548 Q125.1719 10.2986 125.1719 11.8454 Q125.1719 11.9392 125.1719 12.1267 L120.5312 12.1267 Q120.5938 13.1579 121.1094 13.697 Q121.625 14.2361 122.4062 14.2361 Q122.9844 14.2361 123.3984 13.9314 Q123.8125 13.6267 124.0469 12.9704 ZM120.5938 11.2673 L124.0625 11.2673 Q124 10.4704 123.6719 10.0798 Q123.1562 9.4704 122.3594 9.4704 Q121.625 9.4704 121.1328 9.9548 Q120.6406 10.4392 120.5938 11.2673 ZM121.125 6.9704 L121.9062 5.3298 L123.2969 5.3298 L122 6.9704 L121.125 6.9704 ZM126.5938 15.4861 L127.625 15.6423 Q127.6875 16.1111 127.9844 16.3298 Q128.375 16.6267 129.0469 16.6267 Q129.7812 16.6267 130.1797 16.3298 Q130.5781 16.0329 130.7188 15.5173 Q130.8125 15.1892 130.7969 14.1579 Q130.1094 14.9704 129.0781 14.9704 Q127.7969 14.9704 127.0938 14.0407 Q126.3906 13.1111 126.3906 11.8298 Q126.3906 10.9392 126.7109 10.1814 Q127.0312 9.4236 127.6406 9.0173 Q128.25 8.6111 129.0781 8.6111 Q130.1875 8.6111 130.9062 9.5017 L130.9062 8.7517 L131.875 8.7517 L131.875 14.1267 Q131.875 15.5798 131.5781 16.1892 Q131.2812 16.7986 130.6406 17.1501 Q130 17.5017 129.0625 17.5017 Q127.9531 17.5017 127.2656 17.0017 Q126.5781 16.5017 126.5938 15.4861 ZM127.4688 11.7517 Q127.4688 12.9704 127.9531 13.5329 Q128.4375 14.0954 129.1719 14.0954 Q129.9062 14.0954 130.3984 13.5329 Q130.8906 12.9704 130.8906 11.7829 Q130.8906 10.6423 130.3828 10.0642 Q129.875 9.4861 129.1562 9.4861 Q128.4531 9.4861 127.9609 10.0564 Q127.4688 10.6267 127.4688 11.7517 ZM138.0469 12.9704 L139.1406 13.0954 Q138.8906 14.0486 138.1875 14.5798 Q137.4844 15.1111 136.4062 15.1111 Q135.0469 15.1111 134.2422 14.2673 Q133.4375 13.4236 133.4375 11.9079 Q133.4375 10.3454 134.25 9.4782 Q135.0625 8.6111 136.3438 8.6111 Q137.5938 8.6111 138.3828 9.4548 Q139.1719 10.2986 139.1719 11.8454 Q139.1719 11.9392 139.1719 12.1267 L134.5312 12.1267 Q134.5938 13.1579 135.1094 13.697 Q135.625 14.2361 136.4062 14.2361 Q136.9844 14.2361 137.3984 13.9314 Q137.8125 13.6267 138.0469 12.9704 ZM134.5938 11.2673 L138.0625 11.2673 Q138 10.4704 137.6719 10.0798 Q137.1562 9.4704 136.3594 9.4704 Q135.625 9.4704 135.1328 9.9548 Q134.6406 10.4392 134.5938 11.2673 ZM140.375 13.1111 L141.4062 12.9548 Q141.5 13.5798 141.8984 13.9079 Q142.2969 14.2361 143.0312 14.2361 Q143.75 14.2361 144.1016 13.947 Q144.4531 13.6579 144.4531 13.2517 Q144.4531 12.8923 144.1406 12.6892 Q143.9219 12.5486 143.0625 12.3298 Q141.9062 12.0329 141.4609 11.822 Q141.0156 11.6111 140.7812 11.2361 Q140.5469 10.8611 140.5469 10.3923 Q140.5469 9.9861 140.7344 9.6267 Q140.9219 9.2673 141.25 9.0329 Q141.5 8.8611 141.9219 8.7361 Q142.3438 8.6111 142.8438 8.6111 Q143.5625 8.6111 144.1172 8.822 Q144.6719 9.0329 144.9375 9.3923 Q145.2031 9.7517 145.2969 10.3454 L144.2656 10.4861 Q144.2031 10.0173 143.8672 9.7439 Q143.5312 9.4704 142.9062 9.4704 Q142.1875 9.4704 141.875 9.7126 Q141.5625 9.9548 141.5625 10.2829 Q141.5625 10.4861 141.6875 10.6423 Q141.8281 10.8142 142.0938 10.9236 Q142.25 10.9861 143.0312 11.1892 Q144.1562 11.5017 144.5938 11.6892 Q145.0312 11.8767 145.2812 12.2361 Q145.5312 12.5954 145.5312 13.1423 Q145.5312 13.6736 145.2266 14.1345 Q144.9219 14.5954 144.3438 14.8532 Q143.7656 15.1111 143.0312 15.1111 Q141.8125 15.1111 141.1797 14.6032 Q140.5469 14.0954 140.375 13.1111 Z" style="clip-path:url(#clipPath10); stroke:none;" />
      <path d="M7.8594 28.2048 Q7.2656 28.7048 6.7266 28.9079 Q6.1875 29.1111 5.5625 29.1111 Q4.5312 29.1111 3.9844 28.6111 Q3.4375 28.1111 3.4375 27.3298 Q3.4375 26.8767 3.6406 26.4939 Q3.8438 26.1111 4.1875 25.8845 Q4.5312 25.6579 4.9531 25.5486 Q5.25 25.4548 5.8906 25.3767 Q7.1562 25.2361 7.7656 25.0173 Q7.7656 24.7986 7.7656 24.7517 Q7.7656 24.0954 7.4688 23.8298 Q7.0625 23.4861 6.2656 23.4861 Q5.5312 23.4861 5.1719 23.7439 Q4.8125 24.0017 4.6406 24.6579 L3.6094 24.5173 Q3.75 23.8611 4.0781 23.4548 Q4.4062 23.0486 5.0156 22.8298 Q5.625 22.6111 6.4219 22.6111 Q7.2188 22.6111 7.7188 22.7986 Q8.2188 22.9861 8.4531 23.2673 Q8.6875 23.5486 8.7812 23.9861 Q8.8281 24.2517 8.8281 24.9548 L8.8281 26.3611 Q8.8281 27.8298 8.8984 28.2204 Q8.9688 28.6111 9.1719 28.9704 L8.0625 28.9704 Q7.9062 28.6423 7.8594 28.2048 ZM7.7656 25.8454 Q7.1875 26.0798 6.0469 26.2517 Q5.3906 26.3454 5.125 26.4626 Q4.8594 26.5798 4.7109 26.7986 Q4.5625 27.0173 4.5625 27.2986 Q4.5625 27.7204 4.8828 28.0017 Q5.2031 28.2829 5.8125 28.2829 Q6.4219 28.2829 6.8984 28.0173 Q7.375 27.7517 7.5938 27.2829 Q7.7656 26.9236 7.7656 26.2361 L7.7656 25.8454 ZM10.2344 28.9704 L10.2344 28.1111 L14.2031 23.5642 Q13.5156 23.5954 13 23.5954 L10.4688 23.5954 L10.4688 22.7517 L15.5625 22.7517 L15.5625 23.4392 L12.1875 27.3923 L11.5312 28.1111 Q12.25 28.0642 12.8594 28.0642 L15.75 28.0642 L15.75 28.9704 L10.2344 28.9704 ZM22.8594 28.2048 Q22.2656 28.7048 21.7266 28.9079 Q21.1875 29.1111 20.5625 29.1111 Q19.5312 29.1111 18.9844 28.6111 Q18.4375 28.1111 18.4375 27.3298 Q18.4375 26.8767 18.6406 26.4939 Q18.8438 26.1111 19.1875 25.8845 Q19.5312 25.6579 19.9531 25.5486 Q20.25 25.4548 20.8906 25.3767 Q22.1562 25.2361 22.7656 25.0173 Q22.7656 24.7986 22.7656 24.7517 Q22.7656 24.0954 22.4688 23.8298 Q22.0625 23.4861 21.2656 23.4861 Q20.5312 23.4861 20.1719 23.7439 Q19.8125 24.0017 19.6406 24.6579 L18.6094 24.5173 Q18.75 23.8611 19.0781 23.4548 Q19.4062 23.0486 20.0156 22.8298 Q20.625 22.6111 21.4219 22.6111 Q22.2188 22.6111 22.7188 22.7986 Q23.2188 22.9861 23.4531 23.2673 Q23.6875 23.5486 23.7812 23.9861 Q23.8281 24.2517 23.8281 24.9548 L23.8281 26.3611 Q23.8281 27.8298 23.8984 28.2204 Q23.9688 28.6111 24.1719 28.9704 L23.0625 28.9704 Q22.9062 28.6423 22.8594 28.2048 ZM22.7656 25.8454 Q22.1875 26.0798 21.0469 26.2517 Q20.3906 26.3454 20.125 26.4626 Q19.8594 26.5798 19.7109 26.7986 Q19.5625 27.0173 19.5625 27.2986 Q19.5625 27.7204 19.8828 28.0017 Q20.2031 28.2829 20.8125 28.2829 Q21.4219 28.2829 21.8984 28.0173 Q22.375 27.7517 22.5938 27.2829 Q22.7656 26.9236 22.7656 26.2361 L22.7656 25.8454 ZM20.125 20.9704 L20.9062 19.3298 L22.2969 19.3298 L21 20.9704 L20.125 20.9704 ZM25.7812 28.9704 L25.7812 22.7517 L26.7344 22.7517 L26.7344 23.6892 Q27.0938 23.0329 27.3984 22.822 Q27.7031 22.6111 28.0781 22.6111 Q28.6094 22.6111 29.1562 22.9392 L28.7969 23.9236 Q28.4062 23.6892 28.0312 23.6892 Q27.6719 23.6892 27.3984 23.9001 Q27.125 24.1111 27.0156 24.4861 Q26.8281 25.0486 26.8281 25.7048 L26.8281 28.9704 L25.7812 28.9704 ZM33.8594 28.2048 Q33.2656 28.7048 32.7266 28.9079 Q32.1875 29.1111 31.5625 29.1111 Q30.5312 29.1111 29.9844 28.6111 Q29.4375 28.1111 29.4375 27.3298 Q29.4375 26.8767 29.6406 26.4939 Q29.8438 26.1111 30.1875 25.8845 Q30.5312 25.6579 30.9531 25.5486 Q31.25 25.4548 31.8906 25.3767 Q33.1562 25.2361 33.7656 25.0173 Q33.7656 24.7986 33.7656 24.7517 Q33.7656 24.0954 33.4688 23.8298 Q33.0625 23.4861 32.2656 23.4861 Q31.5312 23.4861 31.1719 23.7439 Q30.8125 24.0017 30.6406 24.6579 L29.6094 24.5173 Q29.75 23.8611 30.0781 23.4548 Q30.4062 23.0486 31.0156 22.8298 Q31.625 22.6111 32.4219 22.6111 Q33.2188 22.6111 33.7188 22.7986 Q34.2188 22.9861 34.4531 23.2673 Q34.6875 23.5486 34.7812 23.9861 Q34.8281 24.2517 34.8281 24.9548 L34.8281 26.3611 Q34.8281 27.8298 34.8984 28.2204 Q34.9688 28.6111 35.1719 28.9704 L34.0625 28.9704 Q33.9062 28.6423 33.8594 28.2048 ZM33.7656 25.8454 Q33.1875 26.0798 32.0469 26.2517 Q31.3906 26.3454 31.125 26.4626 Q30.8594 26.5798 30.7109 26.7986 Q30.5625 27.0173 30.5625 27.2986 Q30.5625 27.7204 30.8828 28.0017 Q31.2031 28.2829 31.8125 28.2829 Q32.4219 28.2829 32.8984 28.0173 Q33.375 27.7517 33.5938 27.2829 Q33.7656 26.9236 33.7656 26.2361 L33.7656 25.8454 ZM36.7969 28.9704 L36.7969 22.7517 L37.7344 22.7517 L37.7344 23.6267 Q38.0312 23.1579 38.5156 22.8845 Q39 22.6111 39.625 22.6111 Q40.3125 22.6111 40.7578 22.8923 Q41.2031 23.1736 41.375 23.6892 Q42.125 22.6111 43.2969 22.6111 Q44.2344 22.6111 44.7266 23.1189 Q45.2188 23.6267 45.2188 24.7048 L45.2188 28.9704 L44.1719 28.9704 L44.1719 25.0486 Q44.1719 24.4236 44.0703 24.1423 Q43.9688 23.8611 43.7031 23.6892 Q43.4375 23.5173 43.0625 23.5173 Q42.4062 23.5173 41.9766 23.9548 Q41.5469 24.3923 41.5469 25.3611 L41.5469 28.9704 L40.4844 28.9704 L40.4844 24.9236 Q40.4844 24.2204 40.2266 23.8689 Q39.9688 23.5173 39.3906 23.5173 Q38.9375 23.5173 38.5625 23.7517 Q38.1875 23.9861 38.0156 24.4392 Q37.8438 24.8923 37.8438 25.7361 L37.8438 28.9704 L36.7969 28.9704 ZM47.7969 28.9704 L47.7969 20.3767 L48.8594 20.3767 L48.8594 25.2829 L51.3438 22.7517 L52.7188 22.7517 L50.3281 25.0486 L52.9531 28.9704 L51.6562 28.9704 L49.5938 25.7829 L48.8594 26.5017 L48.8594 28.9704 L47.7969 28.9704 ZM53.4062 25.8611 Q53.4062 24.1267 54.3594 23.2986 Q55.1562 22.6111 56.3125 22.6111 Q57.5938 22.6111 58.4141 23.447 Q59.2344 24.2829 59.2344 25.7673 Q59.2344 26.9704 58.875 27.6579 Q58.5156 28.3454 57.8203 28.7282 Q57.125 29.1111 56.3125 29.1111 Q55.0156 29.1111 54.2109 28.2751 Q53.4062 27.4392 53.4062 25.8611 ZM54.4844 25.8611 Q54.4844 27.0486 55.0078 27.6423 Q55.5312 28.2361 56.3125 28.2361 Q57.1094 28.2361 57.625 27.6423 Q58.1406 27.0486 58.1406 25.8298 Q58.1406 24.6736 57.6172 24.0798 Q57.0938 23.4861 56.3125 23.4861 Q55.5312 23.4861 55.0078 24.072 Q54.4844 24.6579 54.4844 25.8611 ZM54.8125 20.9704 L54.8125 19.7673 L55.9062 19.7673 L55.9062 20.9704 L54.8125 20.9704 ZM57 20.9704 L57 19.7673 L58.0938 19.7673 L58.0938 20.9704 L57 20.9704 ZM60.7812 28.9704 L60.7812 22.7517 L61.7344 22.7517 L61.7344 23.6892 Q62.0938 23.0329 62.3984 22.822 Q62.7031 22.6111 63.0781 22.6111 Q63.6094 22.6111 64.1562 22.9392 L63.7969 23.9236 Q63.4062 23.6892 63.0312 23.6892 Q62.6719 23.6892 62.3984 23.9001 Q62.125 24.1111 62.0156 24.4861 Q61.8281 25.0486 61.8281 25.7048 L61.8281 28.9704 L60.7812 28.9704 ZM67.7969 28.9704 L67.7969 20.3767 L68.8594 20.3767 L68.8594 25.2829 L71.3438 22.7517 L72.7188 22.7517 L70.3281 25.0486 L72.9531 28.9704 L71.6562 28.9704 L69.5938 25.7829 L68.8594 26.5017 L68.8594 28.9704 L67.7969 28.9704 ZM73.7969 21.5954 L73.7969 20.3767 L74.8594 20.3767 L74.8594 21.5954 L73.7969 21.5954 ZM73.7969 28.9704 L73.7969 22.7517 L74.8594 22.7517 L74.8594 28.9704 L73.7969 28.9704 ZM76.375 27.1111 L77.4062 26.9548 Q77.5 27.5798 77.8984 27.9079 Q78.2969 28.2361 79.0312 28.2361 Q79.75 28.2361 80.1016 27.947 Q80.4531 27.6579 80.4531 27.2517 Q80.4531 26.8923 80.1406 26.6892 Q79.9219 26.5486 79.0625 26.3298 Q77.9062 26.0329 77.4609 25.822 Q77.0156 25.6111 76.7812 25.2361 Q76.5469 24.8611 76.5469 24.3923 Q76.5469 23.9861 76.7344 23.6267 Q76.9219 23.2673 77.25 23.0329 Q77.5 22.8611 77.9219 22.7361 Q78.3438 22.6111 78.8438 22.6111 Q79.5625 22.6111 80.1172 22.822 Q80.6719 23.0329 80.9375 23.3923 Q81.2031 23.7517 81.2969 24.3454 L80.2656 24.4861 Q80.2031 24.0173 79.8672 23.7439 Q79.5312 23.4704 78.9062 23.4704 Q78.1875 23.4704 77.875 23.7126 Q77.5625 23.9548 77.5625 24.2829 Q77.5625 24.4861 77.6875 24.6423 Q77.8281 24.8142 78.0938 24.9236 Q78.25 24.9861 79.0312 25.1892 Q80.1562 25.5017 80.5938 25.6892 Q81.0312 25.8767 81.2812 26.2361 Q81.5312 26.5954 81.5312 27.1423 Q81.5312 27.6736 81.2266 28.1345 Q80.9219 28.5954 80.3438 28.8532 Q79.7656 29.1111 79.0312 29.1111 Q77.8125 29.1111 77.1797 28.6032 Q76.5469 28.0954 76.375 27.1111 ZM83.2344 28.9704 L83.2344 28.1111 L87.2031 23.5642 Q86.5156 23.5954 86 23.5954 L83.4688 23.5954 L83.4688 22.7517 L88.5625 22.7517 L88.5625 23.4392 L85.1875 27.3923 L84.5312 28.1111 Q85.25 28.0642 85.8594 28.0642 L88.75 28.0642 L88.75 28.9704 L83.2344 28.9704 ZM92.8594 28.2048 Q92.2656 28.7048 91.7266 28.9079 Q91.1875 29.1111 90.5625 29.1111 Q89.5312 29.1111 88.9844 28.6111 Q88.4375 28.1111 88.4375 27.3298 Q88.4375 26.8767 88.6406 26.4939 Q88.8438 26.1111 89.1875 25.8845 Q89.5312 25.6579 89.9531 25.5486 Q90.25 25.4548 90.8906 25.3767 Q92.1562 25.2361 92.7656 25.0173 Q92.7656 24.7986 92.7656 24.7517 Q92.7656 24.0954 92.4688 23.8298 Q92.0625 23.4861 91.2656 23.4861 Q90.5312 23.4861 90.1719 23.7439 Q89.8125 24.0017 89.6406 24.6579 L88.6094 24.5173 Q88.75 23.8611 89.0781 23.4548 Q89.4062 23.0486 90.0156 22.8298 Q90.625 22.6111 91.4219 22.6111 Q92.2188 22.6111 92.7188 22.7986 Q93.2188 22.9861 93.4531 23.2673 Q93.6875 23.5486 93.7812 23.9861 Q93.8281 24.2517 93.8281 24.9548 L93.8281 26.3611 Q93.8281 27.8298 93.8984 28.2204 Q93.9688 28.6111 94.1719 28.9704 L93.0625 28.9704 Q92.9062 28.6423 92.8594 28.2048 ZM92.7656 25.8454 Q92.1875 26.0798 91.0469 26.2517 Q90.3906 26.3454 90.125 26.4626 Q89.8594 26.5798 89.7109 26.7986 Q89.5625 27.0173 89.5625 27.2986 Q89.5625 27.7204 89.8828 28.0017 Q90.2031 28.2829 90.8125 28.2829 Q91.4219 28.2829 91.8984 28.0173 Q92.375 27.7517 92.5938 27.2829 Q92.7656 26.9236 92.7656 26.2361 L92.7656 25.8454 ZM90.125 20.9704 L90.9062 19.3298 L92.2969 19.3298 L91 20.9704 L90.125 20.9704 ZM95.7969 28.9704 L95.7969 22.7517 L96.7344 22.7517 L96.7344 23.6267 Q97.0312 23.1579 97.5156 22.8845 Q98 22.6111 98.625 22.6111 Q99.3125 22.6111 99.7578 22.8923 Q100.2031 23.1736 100.375 23.6892 Q101.125 22.6111 102.2969 22.6111 Q103.2344 22.6111 103.7266 23.1189 Q104.2188 23.6267 104.2188 24.7048 L104.2188 28.9704 L103.1719 28.9704 L103.1719 25.0486 Q103.1719 24.4236 103.0703 24.1423 Q102.9688 23.8611 102.7031 23.6892 Q102.4375 23.5173 102.0625 23.5173 Q101.4062 23.5173 100.9766 23.9548 Q100.5469 24.3923 100.5469 25.3611 L100.5469 28.9704 L99.4844 28.9704 L99.4844 24.9236 Q99.4844 24.2204 99.2266 23.8689 Q98.9688 23.5173 98.3906 23.5173 Q97.9375 23.5173 97.5625 23.7517 Q97.1875 23.9861 97.0156 24.4392 Q96.8438 24.8923 96.8438 25.7361 L96.8438 28.9704 L95.7969 28.9704 ZM106.4062 25.8611 Q106.4062 24.1267 107.3594 23.2986 Q108.1562 22.6111 109.3125 22.6111 Q110.5938 22.6111 111.4141 23.447 Q112.2344 24.2829 112.2344 25.7673 Q112.2344 26.9704 111.875 27.6579 Q111.5156 28.3454 110.8203 28.7282 Q110.125 29.1111 109.3125 29.1111 Q108.0156 29.1111 107.2109 28.2751 Q106.4062 27.4392 106.4062 25.8611 ZM107.4844 25.8611 Q107.4844 27.0486 108.0078 27.6423 Q108.5312 28.2361 109.3125 28.2361 Q110.1094 28.2361 110.625 27.6423 Q111.1406 27.0486 111.1406 25.8298 Q111.1406 24.6736 110.6172 24.0798 Q110.0938 23.4861 109.3125 23.4861 Q108.5312 23.4861 108.0078 24.072 Q107.4844 24.6579 107.4844 25.8611 ZM113.7656 28.9704 L113.7656 20.3767 L114.8281 20.3767 L114.8281 28.9704 L113.7656 28.9704 ZM120.8594 28.2048 Q120.2656 28.7048 119.7266 28.9079 Q119.1875 29.1111 118.5625 29.1111 Q117.5312 29.1111 116.9844 28.6111 Q116.4375 28.1111 116.4375 27.3298 Q116.4375 26.8767 116.6406 26.4939 Q116.8438 26.1111 117.1875 25.8845 Q117.5312 25.6579 117.9531 25.5486 Q118.25 25.4548 118.8906 25.3767 Q120.1562 25.2361 120.7656 25.0173 Q120.7656 24.7986 120.7656 24.7517 Q120.7656 24.0954 120.4688 23.8298 Q120.0625 23.4861 119.2656 23.4861 Q118.5312 23.4861 118.1719 23.7439 Q117.8125 24.0017 117.6406 24.6579 L116.6094 24.5173 Q116.75 23.8611 117.0781 23.4548 Q117.4062 23.0486 118.0156 22.8298 Q118.625 22.6111 119.4219 22.6111 Q120.2188 22.6111 120.7188 22.7986 Q121.2188 22.9861 121.4531 23.2673 Q121.6875 23.5486 121.7812 23.9861 Q121.8281 24.2517 121.8281 24.9548 L121.8281 26.3611 Q121.8281 27.8298 121.8984 28.2204 Q121.9688 28.6111 122.1719 28.9704 L121.0625 28.9704 Q120.9062 28.6423 120.8594 28.2048 ZM120.7656 25.8454 Q120.1875 26.0798 119.0469 26.2517 Q118.3906 26.3454 118.125 26.4626 Q117.8594 26.5798 117.7109 26.7986 Q117.5625 27.0173 117.5625 27.2986 Q117.5625 27.7204 117.8828 28.0017 Q118.2031 28.2829 118.8125 28.2829 Q119.4219 28.2829 119.8984 28.0173 Q120.375 27.7517 120.5938 27.2829 Q120.7656 26.9236 120.7656 26.2361 L120.7656 25.8454 ZM118.125 20.9704 L118.9062 19.3298 L120.2969 19.3298 L119 20.9704 L118.125 20.9704 ZM123.375 27.1111 L124.4062 26.9548 Q124.5 27.5798 124.8984 27.9079 Q125.2969 28.2361 126.0312 28.2361 Q126.75 28.2361 127.1016 27.947 Q127.4531 27.6579 127.4531 27.2517 Q127.4531 26.8923 127.1406 26.6892 Q126.9219 26.5486 126.0625 26.3298 Q124.9062 26.0329 124.4609 25.822 Q124.0156 25.6111 123.7812 25.2361 Q123.5469 24.8611 123.5469 24.3923 Q123.5469 23.9861 123.7344 23.6267 Q123.9219 23.2673 124.25 23.0329 Q124.5 22.8611 124.9219 22.7361 Q125.3438 22.6111 125.8438 22.6111 Q126.5625 22.6111 127.1172 22.822 Q127.6719 23.0329 127.9375 23.3923 Q128.2031 23.7517 128.2969 24.3454 L127.2656 24.4861 Q127.2031 24.0173 126.8672 23.7439 Q126.5312 23.4704 125.9062 23.4704 Q125.1875 23.4704 124.875 23.7126 Q124.5625 23.9548 124.5625 24.2829 Q124.5625 24.4861 124.6875 24.6423 Q124.8281 24.8142 125.0938 24.9236 Q125.25 24.9861 126.0312 25.1892 Q127.1562 25.5017 127.5938 25.6892 Q128.0312 25.8767 128.2812 26.2361 Q128.5312 26.5954 128.5312 27.1423 Q128.5312 27.6736 128.2266 28.1345 Q127.9219 28.5954 127.3438 28.8532 Q126.7656 29.1111 126.0312 29.1111 Q124.8125 29.1111 124.1797 28.6032 Q123.5469 28.0954 123.375 27.1111 ZM134.8594 28.2048 Q134.2656 28.7048 133.7266 28.9079 Q133.1875 29.1111 132.5625 29.1111 Q131.5312 29.1111 130.9844 28.6111 Q130.4375 28.1111 130.4375 27.3298 Q130.4375 26.8767 130.6406 26.4939 Q130.8438 26.1111 131.1875 25.8845 Q131.5312 25.6579 131.9531 25.5486 Q132.25 25.4548 132.8906 25.3767 Q134.1562 25.2361 134.7656 25.0173 Q134.7656 24.7986 134.7656 24.7517 Q134.7656 24.0954 134.4688 23.8298 Q134.0625 23.4861 133.2656 23.4861 Q132.5312 23.4861 132.1719 23.7439 Q131.8125 24.0017 131.6406 24.6579 L130.6094 24.5173 Q130.75 23.8611 131.0781 23.4548 Q131.4062 23.0486 132.0156 22.8298 Q132.625 22.6111 133.4219 22.6111 Q134.2188 22.6111 134.7188 22.7986 Q135.2188 22.9861 135.4531 23.2673 Q135.6875 23.5486 135.7812 23.9861 Q135.8281 24.2517 135.8281 24.9548 L135.8281 26.3611 Q135.8281 27.8298 135.8984 28.2204 Q135.9688 28.6111 136.1719 28.9704 L135.0625 28.9704 Q134.9062 28.6423 134.8594 28.2048 ZM134.7656 25.8454 Q134.1875 26.0798 133.0469 26.2517 Q132.3906 26.3454 132.125 26.4626 Q131.8594 26.5798 131.7109 26.7986 Q131.5625 27.0173 131.5625 27.2986 Q131.5625 27.7204 131.8828 28.0017 Q132.2031 28.2829 132.8125 28.2829 Q133.4219 28.2829 133.8984 28.0173 Q134.375 27.7517 134.5938 27.2829 Q134.7656 26.9236 134.7656 26.2361 L134.7656 25.8454 Z" style="clip-path:url(#clipPath10); stroke:none;" />
    </g>
    <g transform="translate(392,212)" style="font-size:11; stroke-linecap:butt; text-rendering:geometricPrecision; font-family:sans-serif; stroke-linejoin:round; stroke-miterlimit:0;">
      <polygon style="fill:none; clip-path:url(#clipPath11);" points=" 0 0 144 0 159 15 144 15 144 0 159 15 159 39 0 39" />
    </g>
    <g style="text-rendering:geometricPrecision; font-size:11; font-family:&apos;Tahoma&apos;;" transform="translate(392,212)">
      <path d="M3.875 14.9704 L3.875 6.3767 L7.1094 6.3767 Q8.0938 6.3767 8.6875 6.6423 Q9.2812 6.9079 9.6172 7.447 Q9.9531 7.9861 9.9531 8.5798 Q9.9531 9.1267 9.6562 9.6111 Q9.3594 10.0954 8.75 10.3923 Q9.5312 10.6267 9.9453 11.1814 Q10.3594 11.7361 10.3594 12.4861 Q10.3594 13.0798 10.1094 13.6032 Q9.8594 14.1267 9.4844 14.4079 Q9.1094 14.6892 8.5391 14.8298 Q7.9688 14.9704 7.1562 14.9704 L3.875 14.9704 ZM5.0156 9.9861 L6.875 9.9861 Q7.625 9.9861 7.9531 9.8923 Q8.3906 9.7673 8.6094 9.4626 Q8.8281 9.1579 8.8281 8.7048 Q8.8281 8.2829 8.625 7.9548 Q8.4219 7.6267 8.0391 7.5095 Q7.6562 7.3923 6.7344 7.3923 L5.0156 7.3923 L5.0156 9.9861 ZM5.0156 13.9548 L7.1562 13.9548 Q7.7031 13.9548 7.9219 13.9079 Q8.3281 13.8454 8.5859 13.6814 Q8.8438 13.5173 9.0156 13.2048 Q9.1875 12.8923 9.1875 12.4861 Q9.1875 12.0017 8.9453 11.6423 Q8.7031 11.2829 8.2656 11.1423 Q7.8281 11.0017 7 11.0017 L5.0156 11.0017 L5.0156 13.9548 ZM16.0469 12.9704 L17.1406 13.0954 Q16.8906 14.0486 16.1875 14.5798 Q15.4844 15.1111 14.4062 15.1111 Q13.0469 15.1111 12.2422 14.2673 Q11.4375 13.4236 11.4375 11.9079 Q11.4375 10.3454 12.25 9.4782 Q13.0625 8.6111 14.3438 8.6111 Q15.5938 8.6111 16.3828 9.4548 Q17.1719 10.2986 17.1719 11.8454 Q17.1719 11.9392 17.1719 12.1267 L12.5312 12.1267 Q12.5938 13.1579 13.1094 13.697 Q13.625 14.2361 14.4062 14.2361 Q14.9844 14.2361 15.3984 13.9314 Q15.8125 13.6267 16.0469 12.9704 ZM12.5938 11.2673 L16.0625 11.2673 Q16 10.4704 15.6719 10.0798 Q15.1562 9.4704 14.3594 9.4704 Q13.625 9.4704 13.1328 9.9548 Q12.6406 10.4392 12.5938 11.2673 ZM22.8594 14.2048 Q22.2656 14.7048 21.7266 14.9079 Q21.1875 15.1111 20.5625 15.1111 Q19.5312 15.1111 18.9844 14.6111 Q18.4375 14.1111 18.4375 13.3298 Q18.4375 12.8767 18.6406 12.4939 Q18.8438 12.1111 19.1875 11.8845 Q19.5312 11.6579 19.9531 11.5486 Q20.25 11.4548 20.8906 11.3767 Q22.1562 11.2361 22.7656 11.0173 Q22.7656 10.7986 22.7656 10.7517 Q22.7656 10.0954 22.4688 9.8298 Q22.0625 9.4861 21.2656 9.4861 Q20.5312 9.4861 20.1719 9.7439 Q19.8125 10.0017 19.6406 10.6579 L18.6094 10.5173 Q18.75 9.8611 19.0781 9.4548 Q19.4062 9.0486 20.0156 8.8298 Q20.625 8.6111 21.4219 8.6111 Q22.2188 8.6111 22.7188 8.7986 Q23.2188 8.9861 23.4531 9.2673 Q23.6875 9.5486 23.7812 9.9861 Q23.8281 10.2517 23.8281 10.9548 L23.8281 12.3611 Q23.8281 13.8298 23.8984 14.2204 Q23.9688 14.6111 24.1719 14.9704 L23.0625 14.9704 Q22.9062 14.6423 22.8594 14.2048 ZM22.7656 11.8454 Q22.1875 12.0798 21.0469 12.2517 Q20.3906 12.3454 20.125 12.4626 Q19.8594 12.5798 19.7109 12.7986 Q19.5625 13.0173 19.5625 13.2986 Q19.5625 13.7204 19.8828 14.0017 Q20.2031 14.2829 20.8125 14.2829 Q21.4219 14.2829 21.8984 14.0173 Q22.375 13.7517 22.5938 13.2829 Q22.7656 12.9236 22.7656 12.2361 L22.7656 11.8454 ZM20.125 6.9704 L20.9062 5.3298 L22.2969 5.3298 L21 6.9704 L20.125 6.9704 ZM25.7656 14.9704 L25.7656 6.3767 L26.8281 6.3767 L26.8281 14.9704 L25.7656 14.9704 ZM28.7656 14.9704 L28.7656 6.3767 L29.8281 6.3767 L29.8281 14.9704 L28.7656 14.9704 ZM32.1562 14.9704 L32.1562 8.7517 L33.2188 8.7517 L33.2188 14.9704 L32.1562 14.9704 ZM32.125 6.9704 L32.9062 5.3298 L34.2969 5.3298 L33 6.9704 L32.125 6.9704 ZM37.0938 14.0329 L37.25 14.9548 Q36.7969 15.0486 36.4531 15.0486 Q35.875 15.0486 35.5625 14.8689 Q35.25 14.6892 35.1172 14.3923 Q34.9844 14.0954 34.9844 13.1423 L34.9844 9.5642 L34.2188 9.5642 L34.2188 8.7517 L34.9844 8.7517 L34.9844 7.2048 L36.0312 6.5798 L36.0312 8.7517 L37.0938 8.7517 L37.0938 9.5642 L36.0312 9.5642 L36.0312 13.2048 Q36.0312 13.6579 36.0859 13.7829 Q36.1406 13.9079 36.2656 13.9861 Q36.3906 14.0642 36.625 14.0642 Q36.8125 14.0642 37.0938 14.0329 ZM37.7812 7.6111 L37.7812 6.3767 L38.8438 6.3767 L38.8438 7.6111 L37.7812 7.6111 ZM36.4531 17.3923 L36.6406 16.4861 Q36.9688 16.5642 37.1406 16.5642 Q37.4688 16.5642 37.625 16.3532 Q37.7812 16.1423 37.7812 15.2829 L37.7812 8.7517 L38.8438 8.7517 L38.8438 15.3142 Q38.8438 16.4548 38.5469 16.9079 Q38.1562 17.5017 37.2812 17.5017 Q36.8438 17.5017 36.4531 17.3923 ZM44.8594 14.2048 Q44.2656 14.7048 43.7266 14.9079 Q43.1875 15.1111 42.5625 15.1111 Q41.5312 15.1111 40.9844 14.6111 Q40.4375 14.1111 40.4375 13.3298 Q40.4375 12.8767 40.6406 12.4939 Q40.8438 12.1111 41.1875 11.8845 Q41.5312 11.6579 41.9531 11.5486 Q42.25 11.4548 42.8906 11.3767 Q44.1562 11.2361 44.7656 11.0173 Q44.7656 10.7986 44.7656 10.7517 Q44.7656 10.0954 44.4688 9.8298 Q44.0625 9.4861 43.2656 9.4861 Q42.5312 9.4861 42.1719 9.7439 Q41.8125 10.0017 41.6406 10.6579 L40.6094 10.5173 Q40.75 9.8611 41.0781 9.4548 Q41.4062 9.0486 42.0156 8.8298 Q42.625 8.6111 43.4219 8.6111 Q44.2188 8.6111 44.7188 8.7986 Q45.2188 8.9861 45.4531 9.2673 Q45.6875 9.5486 45.7812 9.9861 Q45.8281 10.2517 45.8281 10.9548 L45.8281 12.3611 Q45.8281 13.8298 45.8984 14.2204 Q45.9688 14.6111 46.1719 14.9704 L45.0625 14.9704 Q44.9062 14.6423 44.8594 14.2048 ZM44.7656 11.8454 Q44.1875 12.0798 43.0469 12.2517 Q42.3906 12.3454 42.125 12.4626 Q41.8594 12.5798 41.7109 12.7986 Q41.5625 13.0173 41.5625 13.2986 Q41.5625 13.7204 41.8828 14.0017 Q42.2031 14.2829 42.8125 14.2829 Q43.4219 14.2829 43.8984 14.0173 Q44.375 13.7517 44.5938 13.2829 Q44.7656 12.9236 44.7656 12.2361 L44.7656 11.8454 ZM54.8594 14.2048 Q54.2656 14.7048 53.7266 14.9079 Q53.1875 15.1111 52.5625 15.1111 Q51.5312 15.1111 50.9844 14.6111 Q50.4375 14.1111 50.4375 13.3298 Q50.4375 12.8767 50.6406 12.4939 Q50.8438 12.1111 51.1875 11.8845 Q51.5312 11.6579 51.9531 11.5486 Q52.25 11.4548 52.8906 11.3767 Q54.1562 11.2361 54.7656 11.0173 Q54.7656 10.7986 54.7656 10.7517 Q54.7656 10.0954 54.4688 9.8298 Q54.0625 9.4861 53.2656 9.4861 Q52.5312 9.4861 52.1719 9.7439 Q51.8125 10.0017 51.6406 10.6579 L50.6094 10.5173 Q50.75 9.8611 51.0781 9.4548 Q51.4062 9.0486 52.0156 8.8298 Q52.625 8.6111 53.4219 8.6111 Q54.2188 8.6111 54.7188 8.7986 Q55.2188 8.9861 55.4531 9.2673 Q55.6875 9.5486 55.7812 9.9861 Q55.8281 10.2517 55.8281 10.9548 L55.8281 12.3611 Q55.8281 13.8298 55.8984 14.2204 Q55.9688 14.6111 56.1719 14.9704 L55.0625 14.9704 Q54.9062 14.6423 54.8594 14.2048 ZM54.7656 11.8454 Q54.1875 12.0798 53.0469 12.2517 Q52.3906 12.3454 52.125 12.4626 Q51.8594 12.5798 51.7109 12.7986 Q51.5625 13.0173 51.5625 13.2986 Q51.5625 13.7204 51.8828 14.0017 Q52.2031 14.2829 52.8125 14.2829 Q53.4219 14.2829 53.8984 14.0173 Q54.375 13.7517 54.5938 13.2829 Q54.7656 12.9236 54.7656 12.2361 L54.7656 11.8454 ZM60.375 13.1111 L61.4062 12.9548 Q61.5 13.5798 61.8984 13.9079 Q62.2969 14.2361 63.0312 14.2361 Q63.75 14.2361 64.1016 13.947 Q64.4531 13.6579 64.4531 13.2517 Q64.4531 12.8923 64.1406 12.6892 Q63.9219 12.5486 63.0625 12.3298 Q61.9062 12.0329 61.4609 11.822 Q61.0156 11.6111 60.7812 11.2361 Q60.5469 10.8611 60.5469 10.3923 Q60.5469 9.9861 60.7344 9.6267 Q60.9219 9.2673 61.25 9.0329 Q61.5 8.8611 61.9219 8.7361 Q62.3438 8.6111 62.8438 8.6111 Q63.5625 8.6111 64.1172 8.822 Q64.6719 9.0329 64.9375 9.3923 Q65.2031 9.7517 65.2969 10.3454 L64.2656 10.4861 Q64.2031 10.0173 63.8672 9.7439 Q63.5312 9.4704 62.9062 9.4704 Q62.1875 9.4704 61.875 9.7126 Q61.5625 9.9548 61.5625 10.2829 Q61.5625 10.4861 61.6875 10.6423 Q61.8281 10.8142 62.0938 10.9236 Q62.25 10.9861 63.0312 11.1892 Q64.1562 11.5017 64.5938 11.6892 Q65.0312 11.8767 65.2812 12.2361 Q65.5312 12.5954 65.5312 13.1423 Q65.5312 13.6736 65.2266 14.1345 Q64.9219 14.5954 64.3438 14.8532 Q63.7656 15.1111 63.0312 15.1111 Q61.8125 15.1111 61.1797 14.6032 Q60.5469 14.0954 60.375 13.1111 ZM67.2344 14.9704 L67.2344 14.1111 L71.2031 9.5642 Q70.5156 9.5954 70 9.5954 L67.4688 9.5954 L67.4688 8.7517 L72.5625 8.7517 L72.5625 9.4392 L69.1875 13.3923 L68.5312 14.1111 Q69.25 14.0642 69.8594 14.0642 L72.75 14.0642 L72.75 14.9704 L67.2344 14.9704 ZM72.7969 7.5954 L72.7969 6.3767 L73.8594 6.3767 L73.8594 7.5954 L72.7969 7.5954 ZM72.7969 14.9704 L72.7969 8.7517 L73.8594 8.7517 L73.8594 14.9704 L72.7969 14.9704 ZM75.7969 14.9704 L75.7969 8.7517 L76.7344 8.7517 L76.7344 9.6267 Q77.0312 9.1579 77.5156 8.8845 Q78 8.6111 78.625 8.6111 Q79.3125 8.6111 79.7578 8.8923 Q80.2031 9.1736 80.375 9.6892 Q81.125 8.6111 82.2969 8.6111 Q83.2344 8.6111 83.7266 9.1189 Q84.2188 9.6267 84.2188 10.7048 L84.2188 14.9704 L83.1719 14.9704 L83.1719 11.0486 Q83.1719 10.4236 83.0703 10.1423 Q82.9688 9.8611 82.7031 9.6892 Q82.4375 9.5173 82.0625 9.5173 Q81.4062 9.5173 80.9766 9.9548 Q80.5469 10.3923 80.5469 11.3611 L80.5469 14.9704 L79.4844 14.9704 L79.4844 10.9236 Q79.4844 10.2204 79.2266 9.8689 Q78.9688 9.5173 78.3906 9.5173 Q77.9375 9.5173 77.5625 9.7517 Q77.1875 9.9861 77.0156 10.4392 Q76.8438 10.8923 76.8438 11.7361 L76.8438 14.9704 L75.7969 14.9704 ZM90.875 14.9704 L90.875 14.0486 Q90.1406 15.1111 88.8906 15.1111 Q88.3438 15.1111 87.8672 14.9001 Q87.3906 14.6892 87.1562 14.3689 Q86.9219 14.0486 86.8281 13.5798 Q86.7656 13.2829 86.7656 12.5954 L86.7656 8.7517 L87.8281 8.7517 L87.8281 12.2048 Q87.8281 13.0173 87.8906 13.3142 Q87.9844 13.7204 88.3047 13.9626 Q88.625 14.2048 89.1094 14.2048 Q89.5781 14.2048 89.9922 13.9626 Q90.4062 13.7204 90.5859 13.2986 Q90.7656 12.8767 90.7656 12.0798 L90.7656 8.7517 L91.8125 8.7517 L91.8125 14.9704 L90.875 14.9704 ZM93.7656 14.9704 L93.7656 6.3767 L94.8281 6.3767 L94.8281 14.9704 L93.7656 14.9704 ZM100.8594 14.2048 Q100.2656 14.7048 99.7266 14.9079 Q99.1875 15.1111 98.5625 15.1111 Q97.5312 15.1111 96.9844 14.6111 Q96.4375 14.1111 96.4375 13.3298 Q96.4375 12.8767 96.6406 12.4939 Q96.8438 12.1111 97.1875 11.8845 Q97.5312 11.6579 97.9531 11.5486 Q98.25 11.4548 98.8906 11.3767 Q100.1562 11.2361 100.7656 11.0173 Q100.7656 10.7986 100.7656 10.7517 Q100.7656 10.0954 100.4688 9.8298 Q100.0625 9.4861 99.2656 9.4861 Q98.5312 9.4861 98.1719 9.7439 Q97.8125 10.0017 97.6406 10.6579 L96.6094 10.5173 Q96.75 9.8611 97.0781 9.4548 Q97.4062 9.0486 98.0156 8.8298 Q98.625 8.6111 99.4219 8.6111 Q100.2188 8.6111 100.7188 8.7986 Q101.2188 8.9861 101.4531 9.2673 Q101.6875 9.5486 101.7812 9.9861 Q101.8281 10.2517 101.8281 10.9548 L101.8281 12.3611 Q101.8281 13.8298 101.8984 14.2204 Q101.9688 14.6111 102.1719 14.9704 L101.0625 14.9704 Q100.9062 14.6423 100.8594 14.2048 ZM100.7656 11.8454 Q100.1875 12.0798 99.0469 12.2517 Q98.3906 12.3454 98.125 12.4626 Q97.8594 12.5798 97.7109 12.7986 Q97.5625 13.0173 97.5625 13.2986 Q97.5625 13.7204 97.8828 14.0017 Q98.2031 14.2829 98.8125 14.2829 Q99.4219 14.2829 99.8984 14.0173 Q100.375 13.7517 100.5938 13.2829 Q100.7656 12.9236 100.7656 12.2361 L100.7656 11.8454 ZM98.125 6.9704 L98.9062 5.3298 L100.2969 5.3298 L99 6.9704 L98.125 6.9704 ZM107.8594 12.6892 L108.8906 12.8298 Q108.7188 13.8923 108.0156 14.5017 Q107.3125 15.1111 106.2969 15.1111 Q105.0156 15.1111 104.2422 14.2751 Q103.4688 13.4392 103.4688 11.8767 Q103.4688 10.8767 103.8047 10.1189 Q104.1406 9.3611 104.8203 8.9861 Q105.5 8.6111 106.3125 8.6111 Q107.3125 8.6111 107.9609 9.1189 Q108.6094 9.6267 108.7969 10.5798 L107.7656 10.7361 Q107.625 10.1111 107.25 9.7907 Q106.875 9.4704 106.3438 9.4704 Q105.5469 9.4704 105.0469 10.0407 Q104.5469 10.6111 104.5469 11.8454 Q104.5469 13.1111 105.0312 13.6736 Q105.5156 14.2361 106.2812 14.2361 Q106.9062 14.2361 107.3203 13.8611 Q107.7344 13.4861 107.8594 12.6892 ZM109.7969 7.5954 L109.7969 6.3767 L110.8594 6.3767 L110.8594 7.5954 L109.7969 7.5954 ZM109.7969 14.9704 L109.7969 8.7517 L110.8594 8.7517 L110.8594 14.9704 L109.7969 14.9704 ZM112.4062 11.8611 Q112.4062 10.1267 113.3594 9.2986 Q114.1562 8.6111 115.3125 8.6111 Q116.5938 8.6111 117.4141 9.447 Q118.2344 10.2829 118.2344 11.7673 Q118.2344 12.9704 117.875 13.6579 Q117.5156 14.3454 116.8203 14.7282 Q116.125 15.1111 115.3125 15.1111 Q114.0156 15.1111 113.2109 14.2751 Q112.4062 13.4392 112.4062 11.8611 ZM113.4844 11.8611 Q113.4844 13.0486 114.0078 13.6423 Q114.5312 14.2361 115.3125 14.2361 Q116.1094 14.2361 116.625 13.6423 Q117.1406 13.0486 117.1406 11.8298 Q117.1406 10.6736 116.6172 10.0798 Q116.0938 9.4861 115.3125 9.4861 Q114.5312 9.4861 114.0078 10.072 Q113.4844 10.6579 113.4844 11.8611 ZM114.125 6.9704 L114.9062 5.3298 L116.2969 5.3298 L115 6.9704 L114.125 6.9704 Z" style="clip-path:url(#clipPath12); stroke:none;" />
      <path d="M7.8594 28.2048 Q7.2656 28.7048 6.7266 28.9079 Q6.1875 29.1111 5.5625 29.1111 Q4.5312 29.1111 3.9844 28.6111 Q3.4375 28.1111 3.4375 27.3298 Q3.4375 26.8767 3.6406 26.4939 Q3.8438 26.1111 4.1875 25.8845 Q4.5312 25.6579 4.9531 25.5486 Q5.25 25.4548 5.8906 25.3767 Q7.1562 25.2361 7.7656 25.0173 Q7.7656 24.7986 7.7656 24.7517 Q7.7656 24.0954 7.4688 23.8298 Q7.0625 23.4861 6.2656 23.4861 Q5.5312 23.4861 5.1719 23.7439 Q4.8125 24.0017 4.6406 24.6579 L3.6094 24.5173 Q3.75 23.8611 4.0781 23.4548 Q4.4062 23.0486 5.0156 22.8298 Q5.625 22.6111 6.4219 22.6111 Q7.2188 22.6111 7.7188 22.7986 Q8.2188 22.9861 8.4531 23.2673 Q8.6875 23.5486 8.7812 23.9861 Q8.8281 24.2517 8.8281 24.9548 L8.8281 26.3611 Q8.8281 27.8298 8.8984 28.2204 Q8.9688 28.6111 9.1719 28.9704 L8.0625 28.9704 Q7.9062 28.6423 7.8594 28.2048 ZM7.7656 25.8454 Q7.1875 26.0798 6.0469 26.2517 Q5.3906 26.3454 5.125 26.4626 Q4.8594 26.5798 4.7109 26.7986 Q4.5625 27.0173 4.5625 27.2986 Q4.5625 27.7204 4.8828 28.0017 Q5.2031 28.2829 5.8125 28.2829 Q6.4219 28.2829 6.8984 28.0173 Q7.375 27.7517 7.5938 27.2829 Q7.7656 26.9236 7.7656 26.2361 L7.7656 25.8454 ZM5.125 20.9704 L5.9062 19.3298 L7.2969 19.3298 L6 20.9704 L5.125 20.9704 ZM10.7656 28.9704 L10.7656 20.3767 L11.8281 20.3767 L11.8281 28.9704 L10.7656 28.9704 ZM13.7656 28.9704 L13.7656 20.3767 L14.8281 20.3767 L14.8281 28.9704 L13.7656 28.9704 ZM20.8594 28.2048 Q20.2656 28.7048 19.7266 28.9079 Q19.1875 29.1111 18.5625 29.1111 Q17.5312 29.1111 16.9844 28.6111 Q16.4375 28.1111 16.4375 27.3298 Q16.4375 26.8767 16.6406 26.4939 Q16.8438 26.1111 17.1875 25.8845 Q17.5312 25.6579 17.9531 25.5486 Q18.25 25.4548 18.8906 25.3767 Q20.1562 25.2361 20.7656 25.0173 Q20.7656 24.7986 20.7656 24.7517 Q20.7656 24.0954 20.4688 23.8298 Q20.0625 23.4861 19.2656 23.4861 Q18.5312 23.4861 18.1719 23.7439 Q17.8125 24.0017 17.6406 24.6579 L16.6094 24.5173 Q16.75 23.8611 17.0781 23.4548 Q17.4062 23.0486 18.0156 22.8298 Q18.625 22.6111 19.4219 22.6111 Q20.2188 22.6111 20.7188 22.7986 Q21.2188 22.9861 21.4531 23.2673 Q21.6875 23.5486 21.7812 23.9861 Q21.8281 24.2517 21.8281 24.9548 L21.8281 26.3611 Q21.8281 27.8298 21.8984 28.2204 Q21.9688 28.6111 22.1719 28.9704 L21.0625 28.9704 Q20.9062 28.6423 20.8594 28.2048 ZM20.7656 25.8454 Q20.1875 26.0798 19.0469 26.2517 Q18.3906 26.3454 18.125 26.4626 Q17.8594 26.5798 17.7109 26.7986 Q17.5625 27.0173 17.5625 27.2986 Q17.5625 27.7204 17.8828 28.0017 Q18.2031 28.2829 18.8125 28.2829 Q19.4219 28.2829 19.8984 28.0173 Q20.375 27.7517 20.5938 27.2829 Q20.7656 26.9236 20.7656 26.2361 L20.7656 25.8454 ZM23.7969 31.3611 L23.7969 22.7517 L24.75 22.7517 L24.75 23.5486 Q25.0938 23.0798 25.5234 22.8454 Q25.9531 22.6111 26.5625 22.6111 Q27.3594 22.6111 27.9688 23.0173 Q28.5781 23.4236 28.8828 24.1736 Q29.1875 24.9236 29.1875 25.8142 Q29.1875 26.7673 28.8516 27.5329 Q28.5156 28.2986 27.8594 28.7048 Q27.2031 29.1111 26.4844 29.1111 Q25.9531 29.1111 25.5312 28.8845 Q25.1094 28.6579 24.8438 28.3298 L24.8438 31.3611 L23.7969 31.3611 ZM24.75 25.8923 Q24.75 27.0954 25.2344 27.6657 Q25.7188 28.2361 26.4062 28.2361 Q27.1094 28.2361 27.6094 27.6423 Q28.1094 27.0486 28.1094 25.7986 Q28.1094 24.6111 27.625 24.0251 Q27.1406 23.4392 26.4531 23.4392 Q25.7812 23.4392 25.2656 24.0642 Q24.75 24.6892 24.75 25.8923 ZM30.4062 25.8611 Q30.4062 24.1267 31.3594 23.2986 Q32.1562 22.6111 33.3125 22.6111 Q34.5938 22.6111 35.4141 23.447 Q36.2344 24.2829 36.2344 25.7673 Q36.2344 26.9704 35.875 27.6579 Q35.5156 28.3454 34.8203 28.7282 Q34.125 29.1111 33.3125 29.1111 Q32.0156 29.1111 31.2109 28.2751 Q30.4062 27.4392 30.4062 25.8611 ZM31.4844 25.8611 Q31.4844 27.0486 32.0078 27.6423 Q32.5312 28.2361 33.3125 28.2361 Q34.1094 28.2361 34.625 27.6423 Q35.1406 27.0486 35.1406 25.8298 Q35.1406 24.6736 34.6172 24.0798 Q34.0938 23.4861 33.3125 23.4861 Q32.5312 23.4861 32.0078 24.072 Q31.4844 24.6579 31.4844 25.8611 ZM40.0938 28.0329 L40.25 28.9548 Q39.7969 29.0486 39.4531 29.0486 Q38.875 29.0486 38.5625 28.8689 Q38.25 28.6892 38.1172 28.3923 Q37.9844 28.0954 37.9844 27.1423 L37.9844 23.5642 L37.2188 23.5642 L37.2188 22.7517 L37.9844 22.7517 L37.9844 21.2048 L39.0312 20.5798 L39.0312 22.7517 L40.0938 22.7517 L40.0938 23.5642 L39.0312 23.5642 L39.0312 27.2048 Q39.0312 27.6579 39.0859 27.7829 Q39.1406 27.9079 39.2656 27.9861 Q39.3906 28.0642 39.625 28.0642 Q39.8125 28.0642 40.0938 28.0329 ZM40.5938 29.4861 L41.625 29.6423 Q41.6875 30.1111 41.9844 30.3298 Q42.375 30.6267 43.0469 30.6267 Q43.7812 30.6267 44.1797 30.3298 Q44.5781 30.0329 44.7188 29.5173 Q44.8125 29.1892 44.7969 28.1579 Q44.1094 28.9704 43.0781 28.9704 Q41.7969 28.9704 41.0938 28.0407 Q40.3906 27.1111 40.3906 25.8298 Q40.3906 24.9392 40.7109 24.1814 Q41.0312 23.4236 41.6406 23.0173 Q42.25 22.6111 43.0781 22.6111 Q44.1875 22.6111 44.9062 23.5017 L44.9062 22.7517 L45.875 22.7517 L45.875 28.1267 Q45.875 29.5798 45.5781 30.1892 Q45.2812 30.7986 44.6406 31.1501 Q44 31.5017 43.0625 31.5017 Q41.9531 31.5017 41.2656 31.0017 Q40.5781 30.5017 40.5938 29.4861 ZM41.4688 25.7517 Q41.4688 26.9704 41.9531 27.5329 Q42.4375 28.0954 43.1719 28.0954 Q43.9062 28.0954 44.3984 27.5329 Q44.8906 26.9704 44.8906 25.7829 Q44.8906 24.6423 44.3828 24.0642 Q43.875 23.4861 43.1562 23.4861 Q42.4531 23.4861 41.9609 24.0564 Q41.4688 24.6267 41.4688 25.7517 ZM52.0469 26.9704 L53.1406 27.0954 Q52.8906 28.0486 52.1875 28.5798 Q51.4844 29.1111 50.4062 29.1111 Q49.0469 29.1111 48.2422 28.2673 Q47.4375 27.4236 47.4375 25.9079 Q47.4375 24.3454 48.25 23.4782 Q49.0625 22.6111 50.3438 22.6111 Q51.5938 22.6111 52.3828 23.4548 Q53.1719 24.2986 53.1719 25.8454 Q53.1719 25.9392 53.1719 26.1267 L48.5312 26.1267 Q48.5938 27.1579 49.1094 27.697 Q49.625 28.2361 50.4062 28.2361 Q50.9844 28.2361 51.3984 27.9314 Q51.8125 27.6267 52.0469 26.9704 ZM48.5938 25.2673 L52.0625 25.2673 Q52 24.4704 51.6719 24.0798 Q51.1562 23.4704 50.3594 23.4704 Q49.625 23.4704 49.1328 23.9548 Q48.6406 24.4392 48.5938 25.2673 ZM49.125 20.9704 L49.9062 19.3298 L51.2969 19.3298 L50 20.9704 L49.125 20.9704 ZM54.7969 31.3611 L54.7969 22.7517 L55.75 22.7517 L55.75 23.5486 Q56.0938 23.0798 56.5234 22.8454 Q56.9531 22.6111 57.5625 22.6111 Q58.3594 22.6111 58.9688 23.0173 Q59.5781 23.4236 59.8828 24.1736 Q60.1875 24.9236 60.1875 25.8142 Q60.1875 26.7673 59.8516 27.5329 Q59.5156 28.2986 58.8594 28.7048 Q58.2031 29.1111 57.4844 29.1111 Q56.9531 29.1111 56.5312 28.8845 Q56.1094 28.6579 55.8438 28.3298 L55.8438 31.3611 L54.7969 31.3611 ZM55.75 25.8923 Q55.75 27.0954 56.2344 27.6657 Q56.7188 28.2361 57.4062 28.2361 Q58.1094 28.2361 58.6094 27.6423 Q59.1094 27.0486 59.1094 25.7986 Q59.1094 24.6111 58.625 24.0251 Q58.1406 23.4392 57.4531 23.4392 Q56.7812 23.4392 56.2656 24.0642 Q55.75 24.6892 55.75 25.8923 ZM66.0469 26.9704 L67.1406 27.0954 Q66.8906 28.0486 66.1875 28.5798 Q65.4844 29.1111 64.4062 29.1111 Q63.0469 29.1111 62.2422 28.2673 Q61.4375 27.4236 61.4375 25.9079 Q61.4375 24.3454 62.25 23.4782 Q63.0625 22.6111 64.3438 22.6111 Q65.5938 22.6111 66.3828 23.4548 Q67.1719 24.2986 67.1719 25.8454 Q67.1719 25.9392 67.1719 26.1267 L62.5312 26.1267 Q62.5938 27.1579 63.1094 27.697 Q63.625 28.2361 64.4062 28.2361 Q64.9844 28.2361 65.3984 27.9314 Q65.8125 27.6267 66.0469 26.9704 ZM62.5938 25.2673 L66.0625 25.2673 Q66 24.4704 65.6719 24.0798 Q65.1562 23.4704 64.3594 23.4704 Q63.625 23.4704 63.1328 23.9548 Q62.6406 24.4392 62.5938 25.2673 ZM63.125 20.9704 L63.9062 19.3298 L65.2969 19.3298 L64 20.9704 L63.125 20.9704 ZM71.0938 28.0329 L71.25 28.9548 Q70.7969 29.0486 70.4531 29.0486 Q69.875 29.0486 69.5625 28.8689 Q69.25 28.6892 69.1172 28.3923 Q68.9844 28.0954 68.9844 27.1423 L68.9844 23.5642 L68.2188 23.5642 L68.2188 22.7517 L68.9844 22.7517 L68.9844 21.2048 L70.0312 20.5798 L70.0312 22.7517 L71.0938 22.7517 L71.0938 23.5642 L70.0312 23.5642 L70.0312 27.2048 Q70.0312 27.6579 70.0859 27.7829 Q70.1406 27.9079 70.2656 27.9861 Q70.3906 28.0642 70.625 28.0642 Q70.8125 28.0642 71.0938 28.0329 Z" style="clip-path:url(#clipPath12); stroke:none;" />
    </g>
    <g style="text-rendering:geometricPrecision; font-size:11; font-family:sans-serif;" transform="translate(522,2)">
      <text x="10" y="12" style="clip-path:url(#clipPath13); stroke:none;" xml:space="preserve">: Simulation</text>
    </g>
    <g style="text-rendering:geometricPrecision; font-size:11; font-family:sans-serif;" transform="translate(332,2)">
      <text x="21" y="12" style="clip-path:url(#clipPath13); stroke:none;" xml:space="preserve">: Circuit</text>
    </g>
    <g style="text-rendering:geometricPrecision; font-size:11; font-family:sans-serif;" transform="translate(142,2)">
      <text x="9" y="12" style="clip-path:url(#clipPath14); stroke:none;" xml:space="preserve">: IsSource</text>
    </g>
    <g style="text-rendering:geometricPrecision; font-size:11; font-family:sans-serif;" transform="translate(11,37)">
      <text x="10" y="12" style="clip-path:url(#clipPath15); stroke:none;" xml:space="preserve">User</text>
    </g>
    <g transform="translate(-14,42)" style="font-size:11; stroke-linecap:butt; text-rendering:geometricPrecision; font-family:sans-serif; stroke-linejoin:round;">
      <line x1="50" x2="187" y1="50" style="clip-path:url(#clipPath16); fill:none;" y2="50" />
      <polygon style="clip-path:url(#clipPath16); stroke:none;" points=" 187 50 175 44 175 56" />
      <polygon style="fill:none; clip-path:url(#clipPath16);" points=" 187 50 175 44 175 56" />
    </g>
    <g transform="translate(131,72)" style="font-size:11; stroke-linecap:butt; text-rendering:geometricPrecision; font-family:sans-serif; stroke-linejoin:round;">
      <line x1="50" x2="237" y1="50" style="clip-path:url(#clipPath17); fill:none;" y2="50" />
      <polygon style="clip-path:url(#clipPath17); stroke:none;" points=" 237 50 225 44 225 56" />
      <polygon style="fill:none; clip-path:url(#clipPath17);" points=" 237 50 225 44 225 56" />
    </g>
    <g transform="translate(326,102)" style="font-size:11; stroke-linecap:butt; text-rendering:geometricPrecision; font-family:sans-serif; stroke-linejoin:round;">
      <line x1="50" x2="232" y1="50" style="clip-path:url(#clipPath18); fill:none;" y2="50" />
      <polygon style="clip-path:url(#clipPath18); stroke:none;" points=" 232 50 220 44 220 56" />
      <polygon style="fill:none; clip-path:url(#clipPath18);" points=" 232 50 220 44 220 56" />
    </g>
    <g transform="translate(52,42)" style="font-size:11; stroke-linecap:butt; text-rendering:geometricPrecision; font-family:sans-serif; stroke-linejoin:round; stroke-dasharray:4;">
      <line x1="50" x2="50" y1="50" style="clip-path:url(#clipPath19); fill:none;" y2="99" />
    </g>
    <g transform="translate(222,72)" style="font-size:11; stroke-linecap:butt; text-rendering:geometricPrecision; font-family:sans-serif; stroke-linejoin:round; stroke-dasharray:4;">
      <line x1="50" x2="50" y1="50" style="clip-path:url(#clipPath19); fill:none;" y2="99" />
    </g>
    <g transform="translate(412,102)" style="font-size:11; stroke-linecap:butt; text-rendering:geometricPrecision; font-family:sans-serif; stroke-linejoin:round; stroke-dasharray:4;">
      <line x1="50" x2="50" y1="50" style="clip-path:url(#clipPath20); fill:none;" y2="109" />
    </g>
    <g style="text-rendering:geometricPrecision; font-size:11; font-family:sans-serif;" transform="translate(382,132)">
      <text x="12" y="12" style="clip-path:url(#clipPath21); stroke:none;" xml:space="preserve">1.1.1: setState(WORKING)</text>
    </g>
    <g style="text-rendering:geometricPrecision; font-size:11; font-family:sans-serif;" transform="translate(182,102)">
      <text x="13" y="12" style="clip-path:url(#clipPath22); stroke:none;" xml:space="preserve">1.1: simulationShouldBeRunning()</text>
    </g>
    <g style="text-rendering:geometricPrecision; font-size:11; font-family:sans-serif;" transform="translate(62,72)">
      <text x="9" y="12" style="clip-path:url(#clipPath23); stroke:none;" xml:space="preserve">1: setValues()</text>
    </g>
  </g>
</svg>
