<?xml version="1.0" encoding="UTF-8"?>

<!DOCTYPE svg PUBLIC '-//W3C//DTD SVG 1.0//EN' 'http://www.w3.org/TR/2001/REC-SVG-20010904/DTD/svg10.dtd'>
<svg style="fill-opacity:1; color-rendering:auto; color-interpolation:auto; stroke:black; text-rendering:auto; stroke-linecap:square; stroke-miterlimit:10; stroke-opacity:1; shape-rendering:auto; fill:black; stroke-dasharray:none; font-weight:normal; stroke-width:1; font-family:&apos;Dialog&apos;; font-style:normal; stroke-linejoin:miter; font-size:12; stroke-dashoffset:0; image-rendering:auto;" xmlns="http://www.w3.org/2000/svg" width="696" xmlns:xlink="http://www.w3.org/1999/xlink" height="356">
  <!--Generated by the Batik Graphics2D SVG Generator-->
  <defs id="genericDefs" />
  <g>
    <defs id="defs1">
      <clipPath clipPathUnits="userSpaceOnUse" id="clipPath1">
        <path d="M-3 -3 L27 -3 L27 27 L-3 27 L-3 -3 Z" />
      </clipPath>
      <clipPath clipPathUnits="userSpaceOnUse" id="clipPath2">
        <path d="M-3 -3 L87 -3 L87 47 L-3 47 L-3 -3 Z" />
      </clipPath>
      <clipPath clipPathUnits="userSpaceOnUse" id="clipPath3">
        <path d="M-3 -3 L327 -3 L327 217 L-3 217 L-3 -3 Z" />
      </clipPath>
      <clipPath clipPathUnits="userSpaceOnUse" id="clipPath4">
        <path d="M-3 -3 L327 -3 L327 202 L-3 202 L-3 -3 Z" />
      </clipPath>
      <clipPath clipPathUnits="userSpaceOnUse" id="clipPath5">
        <path d="M-3 -3 L157 -3 L157 47 L-3 47 L-3 -3 Z" />
      </clipPath>
      <clipPath clipPathUnits="userSpaceOnUse" id="clipPath6">
        <path d="M0 0 L0 40 L150 40 L150 0 Z" />
      </clipPath>
      <clipPath clipPathUnits="userSpaceOnUse" id="clipPath7">
        <path d="M-3 -3 L147 -3 L147 53 L-3 53 L-3 -3 Z" />
      </clipPath>
      <clipPath clipPathUnits="userSpaceOnUse" id="clipPath8">
        <path d="M0 0 L0 46 L140 46 L140 0 Z" />
      </clipPath>
      <clipPath clipPathUnits="userSpaceOnUse" id="clipPath9">
        <path d="M-80 -15 L160 -15 L160 30 L-80 30 L-80 -15 Z" />
      </clipPath>
      <clipPath clipPathUnits="userSpaceOnUse" id="clipPath10">
        <path d="M-320 -15 L640 -15 L640 30 L-320 30 L-320 -15 Z" />
      </clipPath>
      <clipPath clipPathUnits="userSpaceOnUse" id="clipPath11">
        <path d="M0 0 L104 0 L104 165 L0 165 L0 0 Z" />
      </clipPath>
      <clipPath clipPathUnits="userSpaceOnUse" id="clipPath12">
        <path d="M0 0 L273 0 L273 104 L0 104 L0 0 Z" />
      </clipPath>
      <clipPath clipPathUnits="userSpaceOnUse" id="clipPath13">
        <path d="M0 0 L307 0 L307 239 L0 239 L0 0 Z" />
      </clipPath>
      <clipPath clipPathUnits="userSpaceOnUse" id="clipPath14">
        <path d="M0 0 L104 0 L104 225 L0 225 L0 0 Z" />
      </clipPath>
      <clipPath clipPathUnits="userSpaceOnUse" id="clipPath15">
        <path d="M0 0 L203 0 L203 104 L0 104 L0 0 Z" />
      </clipPath>
      <clipPath clipPathUnits="userSpaceOnUse" id="clipPath16">
        <path d="M0 0 L174 0 L174 154 L0 154 L0 0 Z" />
      </clipPath>
      <clipPath clipPathUnits="userSpaceOnUse" id="clipPath17">
        <path d="M0 0 L154 0 L154 110 L0 110 L0 0 Z" />
      </clipPath>
      <clipPath clipPathUnits="userSpaceOnUse" id="clipPath18">
        <path d="M0 0 L104 0 L104 254 L0 254 L0 0 Z" />
      </clipPath>
      <clipPath clipPathUnits="userSpaceOnUse" id="clipPath19">
        <path d="M-100 -16 L200 -16 L200 32 L-100 32 L-100 -16 Z" />
      </clipPath>
      <clipPath clipPathUnits="userSpaceOnUse" id="clipPath20">
        <path d="M-94 -16 L188 -16 L188 32 L-94 32 L-94 -16 Z" />
      </clipPath>
      <clipPath clipPathUnits="userSpaceOnUse" id="clipPath21">
        <path d="M-37 -15 L74 -15 L74 30 L-37 30 L-37 -15 Z" />
      </clipPath>
      <clipPath clipPathUnits="userSpaceOnUse" id="clipPath22">
        <path d="M-91 -16 L182 -16 L182 32 L-91 32 L-91 -16 Z" />
      </clipPath>
      <clipPath clipPathUnits="userSpaceOnUse" id="clipPath23">
        <path d="M-88 -16 L176 -16 L176 32 L-88 32 L-88 -16 Z" />
      </clipPath>
    </defs>
    <g style="fill:white; text-rendering:geometricPrecision; stroke:white;">
      <rect x="0" y="0" width="696" style="stroke:none;" height="356" />
    </g>
    <g style="text-rendering:geometricPrecision; font-size:11; font-family:sans-serif;" transform="translate(122,262)">
      <circle style="clip-path:url(#clipPath1); stroke:none;" r="9.5" cx="9.5" cy="9.5" />
    </g>
    <g transform="translate(122,162)" style="font-size:11; stroke-linecap:butt; text-rendering:geometricPrecision; font-family:sans-serif; stroke-linejoin:round; stroke-miterlimit:0;">
      <rect x="0" y="0" width="80" style="clip-path:url(#clipPath2); fill:none;" rx="10" ry="10" height="40" />
    </g>
    <g transform="translate(372,2)" style="font-size:11; stroke-linecap:butt; text-rendering:geometricPrecision; font-family:sans-serif; stroke-linejoin:round; stroke-miterlimit:0;">
      <rect x="0" y="0" width="320" style="clip-path:url(#clipPath3); fill:none;" rx="10" ry="10" height="210" />
    </g>
    <g style="text-rendering:geometricPrecision; font-size:11; font-family:sans-serif;" transform="translate(402,332)">
      <circle style="clip-path:url(#clipPath1); stroke:none;" r="7" cx="10" cy="10" />
      <circle style="stroke-linecap:butt; clip-path:url(#clipPath1); fill:none; stroke-linejoin:round; stroke-miterlimit:0;" r="10" cx="10" cy="10" />
    </g>
    <g style="text-rendering:geometricPrecision; font-size:11; font-family:sans-serif;" transform="translate(592,162)">
      <circle style="clip-path:url(#clipPath1); stroke:none;" r="9.5" cx="9.5" cy="9.5" />
    </g>
    <g transform="translate(582,62)" style="font-size:11; stroke-linecap:butt; text-rendering:geometricPrecision; font-family:sans-serif; stroke-linejoin:round; stroke-miterlimit:0;">
      <rect x="0" y="0" width="80" style="clip-path:url(#clipPath2); fill:none;" rx="10" ry="10" height="40" />
    </g>
    <g transform="translate(402,62)" style="font-size:11; stroke-linecap:butt; text-rendering:geometricPrecision; font-family:sans-serif; stroke-linejoin:round; stroke-miterlimit:0;">
      <rect x="0" y="0" width="80" style="clip-path:url(#clipPath2); fill:none;" rx="10" ry="10" height="40" />
    </g>
    <g transform="translate(2,72)" style="font-size:11; stroke-linecap:butt; text-rendering:geometricPrecision; font-family:sans-serif; stroke-linejoin:round; stroke-miterlimit:0;">
      <polygon style="fill:none; clip-path:url(#clipPath5);" points=" 0 0 134 0 149 15 134 15 134 0 149 15 149 39 0 39" />
    </g>
    <g style="text-rendering:geometricPrecision; font-size:11; font-family:&apos;Tahoma&apos;;" transform="translate(2,72)">
      <path d="M2.9844 14.9704 L6.2812 6.3767 L7.5 6.3767 L11.0156 14.9704 L9.7344 14.9704 L8.7188 12.3611 L5.1406 12.3611 L4.1875 14.9704 L2.9844 14.9704 ZM5.4688 11.4392 L8.375 11.4392 L7.4844 9.0642 Q7.0625 7.9861 6.875 7.2829 Q6.7031 8.1111 6.4062 8.9236 L5.4688 11.4392 ZM13.375 13.1111 L14.4062 12.9548 Q14.5 13.5798 14.8984 13.9079 Q15.2969 14.2361 16.0312 14.2361 Q16.75 14.2361 17.1016 13.947 Q17.4531 13.6579 17.4531 13.2517 Q17.4531 12.8923 17.1406 12.6892 Q16.9219 12.5486 16.0625 12.3298 Q14.9062 12.0329 14.4609 11.822 Q14.0156 11.6111 13.7812 11.2361 Q13.5469 10.8611 13.5469 10.3923 Q13.5469 9.9861 13.7344 9.6267 Q13.9219 9.2673 14.25 9.0329 Q14.5 8.8611 14.9219 8.7361 Q15.3438 8.6111 15.8438 8.6111 Q16.5625 8.6111 17.1172 8.822 Q17.6719 9.0329 17.9375 9.3923 Q18.2031 9.7517 18.2969 10.3454 L17.2656 10.4861 Q17.2031 10.0173 16.8672 9.7439 Q16.5312 9.4704 15.9062 9.4704 Q15.1875 9.4704 14.875 9.7126 Q14.5625 9.9548 14.5625 10.2829 Q14.5625 10.4861 14.6875 10.6423 Q14.8281 10.8142 15.0938 10.9236 Q15.25 10.9861 16.0312 11.1892 Q17.1562 11.5017 17.5938 11.6892 Q18.0312 11.8767 18.2812 12.2361 Q18.5312 12.5954 18.5312 13.1423 Q18.5312 13.6736 18.2266 14.1345 Q17.9219 14.5954 17.3438 14.8532 Q16.7656 15.1111 16.0312 15.1111 Q14.8125 15.1111 14.1797 14.6032 Q13.5469 14.0954 13.375 13.1111 ZM20.2344 14.9704 L20.2344 14.1111 L24.2031 9.5642 Q23.5156 9.5954 23 9.5954 L20.4688 9.5954 L20.4688 8.7517 L25.5625 8.7517 L25.5625 9.4392 L22.1875 13.3923 L21.5312 14.1111 Q22.25 14.0642 22.8594 14.0642 L25.75 14.0642 L25.75 14.9704 L20.2344 14.9704 ZM25.7969 7.5954 L25.7969 6.3767 L26.8594 6.3767 L26.8594 7.5954 L25.7969 7.5954 ZM25.7969 14.9704 L25.7969 8.7517 L26.8594 8.7517 L26.8594 14.9704 L25.7969 14.9704 ZM28.7969 14.9704 L28.7969 8.7517 L29.7344 8.7517 L29.7344 9.6267 Q30.0312 9.1579 30.5156 8.8845 Q31 8.6111 31.625 8.6111 Q32.3125 8.6111 32.7578 8.8923 Q33.2031 9.1736 33.375 9.6892 Q34.125 8.6111 35.2969 8.6111 Q36.2344 8.6111 36.7266 9.1189 Q37.2188 9.6267 37.2188 10.7048 L37.2188 14.9704 L36.1719 14.9704 L36.1719 11.0486 Q36.1719 10.4236 36.0703 10.1423 Q35.9688 9.8611 35.7031 9.6892 Q35.4375 9.5173 35.0625 9.5173 Q34.4062 9.5173 33.9766 9.9548 Q33.5469 10.3923 33.5469 11.3611 L33.5469 14.9704 L32.4844 14.9704 L32.4844 10.9236 Q32.4844 10.2204 32.2266 9.8689 Q31.9688 9.5173 31.3906 9.5173 Q30.9375 9.5173 30.5625 9.7517 Q30.1875 9.9861 30.0156 10.4392 Q29.8438 10.8923 29.8438 11.7361 L29.8438 14.9704 L28.7969 14.9704 ZM43.875 14.9704 L43.875 14.0486 Q43.1406 15.1111 41.8906 15.1111 Q41.3438 15.1111 40.8672 14.9001 Q40.3906 14.6892 40.1562 14.3689 Q39.9219 14.0486 39.8281 13.5798 Q39.7656 13.2829 39.7656 12.5954 L39.7656 8.7517 L40.8281 8.7517 L40.8281 12.2048 Q40.8281 13.0173 40.8906 13.3142 Q40.9844 13.7204 41.3047 13.9626 Q41.625 14.2048 42.1094 14.2048 Q42.5781 14.2048 42.9922 13.9626 Q43.4062 13.7204 43.5859 13.2986 Q43.7656 12.8767 43.7656 12.0798 L43.7656 8.7517 L44.8125 8.7517 L44.8125 14.9704 L43.875 14.9704 ZM46.7656 14.9704 L46.7656 6.3767 L47.8281 6.3767 L47.8281 14.9704 L46.7656 14.9704 ZM53.8594 14.2048 Q53.2656 14.7048 52.7266 14.9079 Q52.1875 15.1111 51.5625 15.1111 Q50.5312 15.1111 49.9844 14.6111 Q49.4375 14.1111 49.4375 13.3298 Q49.4375 12.8767 49.6406 12.4939 Q49.8438 12.1111 50.1875 11.8845 Q50.5312 11.6579 50.9531 11.5486 Q51.25 11.4548 51.8906 11.3767 Q53.1562 11.2361 53.7656 11.0173 Q53.7656 10.7986 53.7656 10.7517 Q53.7656 10.0954 53.4688 9.8298 Q53.0625 9.4861 52.2656 9.4861 Q51.5312 9.4861 51.1719 9.7439 Q50.8125 10.0017 50.6406 10.6579 L49.6094 10.5173 Q49.75 9.8611 50.0781 9.4548 Q50.4062 9.0486 51.0156 8.8298 Q51.625 8.6111 52.4219 8.6111 Q53.2188 8.6111 53.7188 8.7986 Q54.2188 8.9861 54.4531 9.2673 Q54.6875 9.5486 54.7812 9.9861 Q54.8281 10.2517 54.8281 10.9548 L54.8281 12.3611 Q54.8281 13.8298 54.8984 14.2204 Q54.9688 14.6111 55.1719 14.9704 L54.0625 14.9704 Q53.9062 14.6423 53.8594 14.2048 ZM53.7656 11.8454 Q53.1875 12.0798 52.0469 12.2517 Q51.3906 12.3454 51.125 12.4626 Q50.8594 12.5798 50.7109 12.7986 Q50.5625 13.0173 50.5625 13.2986 Q50.5625 13.7204 50.8828 14.0017 Q51.2031 14.2829 51.8125 14.2829 Q52.4219 14.2829 52.8984 14.0173 Q53.375 13.7517 53.5938 13.2829 Q53.7656 12.9236 53.7656 12.2361 L53.7656 11.8454 ZM51.125 6.9704 L51.9062 5.3298 L53.2969 5.3298 L52 6.9704 L51.125 6.9704 ZM60.8594 12.6892 L61.8906 12.8298 Q61.7188 13.8923 61.0156 14.5017 Q60.3125 15.1111 59.2969 15.1111 Q58.0156 15.1111 57.2422 14.2751 Q56.4688 13.4392 56.4688 11.8767 Q56.4688 10.8767 56.8047 10.1189 Q57.1406 9.3611 57.8203 8.9861 Q58.5 8.6111 59.3125 8.6111 Q60.3125 8.6111 60.9609 9.1189 Q61.6094 9.6267 61.7969 10.5798 L60.7656 10.7361 Q60.625 10.1111 60.25 9.7907 Q59.875 9.4704 59.3438 9.4704 Q58.5469 9.4704 58.0469 10.0407 Q57.5469 10.6111 57.5469 11.8454 Q57.5469 13.1111 58.0312 13.6736 Q58.5156 14.2361 59.2812 14.2361 Q59.9062 14.2361 60.3203 13.8611 Q60.7344 13.4861 60.8594 12.6892 ZM62.7969 7.5954 L62.7969 6.3767 L63.8594 6.3767 L63.8594 7.5954 L62.7969 7.5954 ZM62.7969 14.9704 L62.7969 8.7517 L63.8594 8.7517 L63.8594 14.9704 L62.7969 14.9704 ZM65.4062 11.8611 Q65.4062 10.1267 66.3594 9.2986 Q67.1562 8.6111 68.3125 8.6111 Q69.5938 8.6111 70.4141 9.447 Q71.2344 10.2829 71.2344 11.7673 Q71.2344 12.9704 70.875 13.6579 Q70.5156 14.3454 69.8203 14.7282 Q69.125 15.1111 68.3125 15.1111 Q67.0156 15.1111 66.2109 14.2751 Q65.4062 13.4392 65.4062 11.8611 ZM66.4844 11.8611 Q66.4844 13.0486 67.0078 13.6423 Q67.5312 14.2361 68.3125 14.2361 Q69.1094 14.2361 69.625 13.6423 Q70.1406 13.0486 70.1406 11.8298 Q70.1406 10.6736 69.6172 10.0798 Q69.0938 9.4861 68.3125 9.4861 Q67.5312 9.4861 67.0078 10.072 Q66.4844 10.6579 66.4844 11.8611 ZM67.125 6.9704 L67.9062 5.3298 L69.2969 5.3298 L68 6.9704 L67.125 6.9704 ZM75.7656 14.9704 L75.7656 6.3767 L76.8281 6.3767 L76.8281 14.9704 L75.7656 14.9704 ZM83.0469 12.9704 L84.1406 13.0954 Q83.8906 14.0486 83.1875 14.5798 Q82.4844 15.1111 81.4062 15.1111 Q80.0469 15.1111 79.2422 14.2673 Q78.4375 13.4236 78.4375 11.9079 Q78.4375 10.3454 79.25 9.4782 Q80.0625 8.6111 81.3438 8.6111 Q82.5938 8.6111 83.3828 9.4548 Q84.1719 10.2986 84.1719 11.8454 Q84.1719 11.9392 84.1719 12.1267 L79.5312 12.1267 Q79.5938 13.1579 80.1094 13.697 Q80.625 14.2361 81.4062 14.2361 Q81.9844 14.2361 82.3984 13.9314 Q82.8125 13.6267 83.0469 12.9704 ZM79.5938 11.2673 L83.0625 11.2673 Q83 10.4704 82.6719 10.0798 Q82.1562 9.4704 81.3594 9.4704 Q80.625 9.4704 80.1328 9.9548 Q79.6406 10.4392 79.5938 11.2673 ZM89.8594 14.2048 Q89.2656 14.7048 88.7266 14.9079 Q88.1875 15.1111 87.5625 15.1111 Q86.5312 15.1111 85.9844 14.6111 Q85.4375 14.1111 85.4375 13.3298 Q85.4375 12.8767 85.6406 12.4939 Q85.8438 12.1111 86.1875 11.8845 Q86.5312 11.6579 86.9531 11.5486 Q87.25 11.4548 87.8906 11.3767 Q89.1562 11.2361 89.7656 11.0173 Q89.7656 10.7986 89.7656 10.7517 Q89.7656 10.0954 89.4688 9.8298 Q89.0625 9.4861 88.2656 9.4861 Q87.5312 9.4861 87.1719 9.7439 Q86.8125 10.0017 86.6406 10.6579 L85.6094 10.5173 Q85.75 9.8611 86.0781 9.4548 Q86.4062 9.0486 87.0156 8.8298 Q87.625 8.6111 88.4219 8.6111 Q89.2188 8.6111 89.7188 8.7986 Q90.2188 8.9861 90.4531 9.2673 Q90.6875 9.5486 90.7812 9.9861 Q90.8281 10.2517 90.8281 10.9548 L90.8281 12.3611 Q90.8281 13.8298 90.8984 14.2204 Q90.9688 14.6111 91.1719 14.9704 L90.0625 14.9704 Q89.9062 14.6423 89.8594 14.2048 ZM89.7656 11.8454 Q89.1875 12.0798 88.0469 12.2517 Q87.3906 12.3454 87.125 12.4626 Q86.8594 12.5798 86.7109 12.7986 Q86.5625 13.0173 86.5625 13.2986 Q86.5625 13.7204 86.8828 14.0017 Q87.2031 14.2829 87.8125 14.2829 Q88.4219 14.2829 88.8984 14.0173 Q89.375 13.7517 89.5938 13.2829 Q89.7656 12.9236 89.7656 12.2361 L89.7656 11.8454 ZM87.125 6.9704 L87.9062 5.3298 L89.2969 5.3298 L88 6.9704 L87.125 6.9704 ZM92.7656 14.9704 L92.7656 6.3767 L93.8281 6.3767 L93.8281 14.9704 L92.7656 14.9704 ZM95.7656 14.9704 L95.7656 6.3767 L96.8281 6.3767 L96.8281 14.9704 L95.7656 14.9704 ZM99.1562 14.9704 L99.1562 8.7517 L100.2188 8.7517 L100.2188 14.9704 L99.1562 14.9704 ZM99.125 6.9704 L99.9062 5.3298 L101.2969 5.3298 L100 6.9704 L99.125 6.9704 ZM104.0938 14.0329 L104.25 14.9548 Q103.7969 15.0486 103.4531 15.0486 Q102.875 15.0486 102.5625 14.8689 Q102.25 14.6892 102.1172 14.3923 Q101.9844 14.0954 101.9844 13.1423 L101.9844 9.5642 L101.2188 9.5642 L101.2188 8.7517 L101.9844 8.7517 L101.9844 7.2048 L103.0312 6.5798 L103.0312 8.7517 L104.0938 8.7517 L104.0938 9.5642 L103.0312 9.5642 L103.0312 13.2048 Q103.0312 13.6579 103.0859 13.7829 Q103.1406 13.9079 103.2656 13.9861 Q103.3906 14.0642 103.625 14.0642 Q103.8125 14.0642 104.0938 14.0329 ZM106.5156 14.9704 L104.1562 8.7517 L105.2656 8.7517 L106.6094 12.4704 Q106.8125 13.0798 107 13.7204 Q107.1406 13.2361 107.3906 12.5486 L108.7812 8.7517 L109.8594 8.7517 L107.5 14.9704 L106.5156 14.9704 ZM113.8594 14.2048 Q113.2656 14.7048 112.7266 14.9079 Q112.1875 15.1111 111.5625 15.1111 Q110.5312 15.1111 109.9844 14.6111 Q109.4375 14.1111 109.4375 13.3298 Q109.4375 12.8767 109.6406 12.4939 Q109.8438 12.1111 110.1875 11.8845 Q110.5312 11.6579 110.9531 11.5486 Q111.25 11.4548 111.8906 11.3767 Q113.1562 11.2361 113.7656 11.0173 Q113.7656 10.7986 113.7656 10.7517 Q113.7656 10.0954 113.4688 9.8298 Q113.0625 9.4861 112.2656 9.4861 Q111.5312 9.4861 111.1719 9.7439 Q110.8125 10.0017 110.6406 10.6579 L109.6094 10.5173 Q109.75 9.8611 110.0781 9.4548 Q110.4062 9.0486 111.0156 8.8298 Q111.625 8.6111 112.4219 8.6111 Q113.2188 8.6111 113.7188 8.7986 Q114.2188 8.9861 114.4531 9.2673 Q114.6875 9.5486 114.7812 9.9861 Q114.8281 10.2517 114.8281 10.9548 L114.8281 12.3611 Q114.8281 13.8298 114.8984 14.2204 Q114.9688 14.6111 115.1719 14.9704 L114.0625 14.9704 Q113.9062 14.6423 113.8594 14.2048 ZM113.7656 11.8454 Q113.1875 12.0798 112.0469 12.2517 Q111.3906 12.3454 111.125 12.4626 Q110.8594 12.5798 110.7109 12.7986 Q110.5625 13.0173 110.5625 13.2986 Q110.5625 13.7204 110.8828 14.0017 Q111.2031 14.2829 111.8125 14.2829 Q112.4219 14.2829 112.8984 14.0173 Q113.375 13.7517 113.5938 13.2829 Q113.7656 12.9236 113.7656 12.2361 L113.7656 11.8454 Z" style="clip-path:url(#clipPath6); stroke:none;" />
    </g>
    <g transform="translate(212,12)" style="font-size:11; stroke-linecap:butt; text-rendering:geometricPrecision; font-family:sans-serif; stroke-linejoin:round; stroke-miterlimit:0;">
      <polygon style="fill:none; clip-path:url(#clipPath7);" points=" 0 0 124 0 139 15 124 15 124 0 139 15 139 45 0 45" />
    </g>
    <g style="text-rendering:geometricPrecision; font-size:11; font-family:&apos;Tahoma&apos;;" transform="translate(212,12)">
      <path d="M2.9844 14.9704 L6.2812 6.3767 L7.5 6.3767 L11.0156 14.9704 L9.7344 14.9704 L8.7188 12.3611 L5.1406 12.3611 L4.1875 14.9704 L2.9844 14.9704 ZM5.4688 11.4392 L8.375 11.4392 L7.4844 9.0642 Q7.0625 7.9861 6.875 7.2829 Q6.7031 8.1111 6.4062 8.9236 L5.4688 11.4392 ZM13.375 13.1111 L14.4062 12.9548 Q14.5 13.5798 14.8984 13.9079 Q15.2969 14.2361 16.0312 14.2361 Q16.75 14.2361 17.1016 13.947 Q17.4531 13.6579 17.4531 13.2517 Q17.4531 12.8923 17.1406 12.6892 Q16.9219 12.5486 16.0625 12.3298 Q14.9062 12.0329 14.4609 11.822 Q14.0156 11.6111 13.7812 11.2361 Q13.5469 10.8611 13.5469 10.3923 Q13.5469 9.9861 13.7344 9.6267 Q13.9219 9.2673 14.25 9.0329 Q14.5 8.8611 14.9219 8.7361 Q15.3438 8.6111 15.8438 8.6111 Q16.5625 8.6111 17.1172 8.822 Q17.6719 9.0329 17.9375 9.3923 Q18.2031 9.7517 18.2969 10.3454 L17.2656 10.4861 Q17.2031 10.0173 16.8672 9.7439 Q16.5312 9.4704 15.9062 9.4704 Q15.1875 9.4704 14.875 9.7126 Q14.5625 9.9548 14.5625 10.2829 Q14.5625 10.4861 14.6875 10.6423 Q14.8281 10.8142 15.0938 10.9236 Q15.25 10.9861 16.0312 11.1892 Q17.1562 11.5017 17.5938 11.6892 Q18.0312 11.8767 18.2812 12.2361 Q18.5312 12.5954 18.5312 13.1423 Q18.5312 13.6736 18.2266 14.1345 Q17.9219 14.5954 17.3438 14.8532 Q16.7656 15.1111 16.0312 15.1111 Q14.8125 15.1111 14.1797 14.6032 Q13.5469 14.0954 13.375 13.1111 ZM20.2344 14.9704 L20.2344 14.1111 L24.2031 9.5642 Q23.5156 9.5954 23 9.5954 L20.4688 9.5954 L20.4688 8.7517 L25.5625 8.7517 L25.5625 9.4392 L22.1875 13.3923 L21.5312 14.1111 Q22.25 14.0642 22.8594 14.0642 L25.75 14.0642 L25.75 14.9704 L20.2344 14.9704 ZM25.7969 7.5954 L25.7969 6.3767 L26.8594 6.3767 L26.8594 7.5954 L25.7969 7.5954 ZM25.7969 14.9704 L25.7969 8.7517 L26.8594 8.7517 L26.8594 14.9704 L25.7969 14.9704 ZM28.7969 14.9704 L28.7969 8.7517 L29.7344 8.7517 L29.7344 9.6267 Q30.0312 9.1579 30.5156 8.8845 Q31 8.6111 31.625 8.6111 Q32.3125 8.6111 32.7578 8.8923 Q33.2031 9.1736 33.375 9.6892 Q34.125 8.6111 35.2969 8.6111 Q36.2344 8.6111 36.7266 9.1189 Q37.2188 9.6267 37.2188 10.7048 L37.2188 14.9704 L36.1719 14.9704 L36.1719 11.0486 Q36.1719 10.4236 36.0703 10.1423 Q35.9688 9.8611 35.7031 9.6892 Q35.4375 9.5173 35.0625 9.5173 Q34.4062 9.5173 33.9766 9.9548 Q33.5469 10.3923 33.5469 11.3611 L33.5469 14.9704 L32.4844 14.9704 L32.4844 10.9236 Q32.4844 10.2204 32.2266 9.8689 Q31.9688 9.5173 31.3906 9.5173 Q30.9375 9.5173 30.5625 9.7517 Q30.1875 9.9861 30.0156 10.4392 Q29.8438 10.8923 29.8438 11.7361 L29.8438 14.9704 L28.7969 14.9704 ZM43.875 14.9704 L43.875 14.0486 Q43.1406 15.1111 41.8906 15.1111 Q41.3438 15.1111 40.8672 14.9001 Q40.3906 14.6892 40.1562 14.3689 Q39.9219 14.0486 39.8281 13.5798 Q39.7656 13.2829 39.7656 12.5954 L39.7656 8.7517 L40.8281 8.7517 L40.8281 12.2048 Q40.8281 13.0173 40.8906 13.3142 Q40.9844 13.7204 41.3047 13.9626 Q41.625 14.2048 42.1094 14.2048 Q42.5781 14.2048 42.9922 13.9626 Q43.4062 13.7204 43.5859 13.2986 Q43.7656 12.8767 43.7656 12.0798 L43.7656 8.7517 L44.8125 8.7517 L44.8125 14.9704 L43.875 14.9704 ZM46.7656 14.9704 L46.7656 6.3767 L47.8281 6.3767 L47.8281 14.9704 L46.7656 14.9704 ZM53.8594 14.2048 Q53.2656 14.7048 52.7266 14.9079 Q52.1875 15.1111 51.5625 15.1111 Q50.5312 15.1111 49.9844 14.6111 Q49.4375 14.1111 49.4375 13.3298 Q49.4375 12.8767 49.6406 12.4939 Q49.8438 12.1111 50.1875 11.8845 Q50.5312 11.6579 50.9531 11.5486 Q51.25 11.4548 51.8906 11.3767 Q53.1562 11.2361 53.7656 11.0173 Q53.7656 10.7986 53.7656 10.7517 Q53.7656 10.0954 53.4688 9.8298 Q53.0625 9.4861 52.2656 9.4861 Q51.5312 9.4861 51.1719 9.7439 Q50.8125 10.0017 50.6406 10.6579 L49.6094 10.5173 Q49.75 9.8611 50.0781 9.4548 Q50.4062 9.0486 51.0156 8.8298 Q51.625 8.6111 52.4219 8.6111 Q53.2188 8.6111 53.7188 8.7986 Q54.2188 8.9861 54.4531 9.2673 Q54.6875 9.5486 54.7812 9.9861 Q54.8281 10.2517 54.8281 10.9548 L54.8281 12.3611 Q54.8281 13.8298 54.8984 14.2204 Q54.9688 14.6111 55.1719 14.9704 L54.0625 14.9704 Q53.9062 14.6423 53.8594 14.2048 ZM53.7656 11.8454 Q53.1875 12.0798 52.0469 12.2517 Q51.3906 12.3454 51.125 12.4626 Q50.8594 12.5798 50.7109 12.7986 Q50.5625 13.0173 50.5625 13.2986 Q50.5625 13.7204 50.8828 14.0017 Q51.2031 14.2829 51.8125 14.2829 Q52.4219 14.2829 52.8984 14.0173 Q53.375 13.7517 53.5938 13.2829 Q53.7656 12.9236 53.7656 12.2361 L53.7656 11.8454 ZM51.125 6.9704 L51.9062 5.3298 L53.2969 5.3298 L52 6.9704 L51.125 6.9704 ZM60.8594 12.6892 L61.8906 12.8298 Q61.7188 13.8923 61.0156 14.5017 Q60.3125 15.1111 59.2969 15.1111 Q58.0156 15.1111 57.2422 14.2751 Q56.4688 13.4392 56.4688 11.8767 Q56.4688 10.8767 56.8047 10.1189 Q57.1406 9.3611 57.8203 8.9861 Q58.5 8.6111 59.3125 8.6111 Q60.3125 8.6111 60.9609 9.1189 Q61.6094 9.6267 61.7969 10.5798 L60.7656 10.7361 Q60.625 10.1111 60.25 9.7907 Q59.875 9.4704 59.3438 9.4704 Q58.5469 9.4704 58.0469 10.0407 Q57.5469 10.6111 57.5469 11.8454 Q57.5469 13.1111 58.0312 13.6736 Q58.5156 14.2361 59.2812 14.2361 Q59.9062 14.2361 60.3203 13.8611 Q60.7344 13.4861 60.8594 12.6892 ZM62.4062 11.8611 Q62.4062 10.1267 63.3594 9.2986 Q64.1562 8.6111 65.3125 8.6111 Q66.5938 8.6111 67.4141 9.447 Q68.2344 10.2829 68.2344 11.7673 Q68.2344 12.9704 67.875 13.6579 Q67.5156 14.3454 66.8203 14.7282 Q66.125 15.1111 65.3125 15.1111 Q64.0156 15.1111 63.2109 14.2751 Q62.4062 13.4392 62.4062 11.8611 ZM63.4844 11.8611 Q63.4844 13.0486 64.0078 13.6423 Q64.5312 14.2361 65.3125 14.2361 Q66.1094 14.2361 66.625 13.6423 Q67.1406 13.0486 67.1406 11.8298 Q67.1406 10.6736 66.6172 10.0798 Q66.0938 9.4861 65.3125 9.4861 Q64.5312 9.4861 64.0078 10.072 Q63.4844 10.6579 63.4844 11.8611 ZM64.125 6.9704 L64.9062 5.3298 L66.2969 5.3298 L65 6.9704 L64.125 6.9704 ZM72.7812 7.6111 L72.7812 6.3767 L73.8438 6.3767 L73.8438 7.6111 L72.7812 7.6111 ZM71.4531 17.3923 L71.6406 16.4861 Q71.9688 16.5642 72.1406 16.5642 Q72.4688 16.5642 72.625 16.3532 Q72.7812 16.1423 72.7812 15.2829 L72.7812 8.7517 L73.8438 8.7517 L73.8438 15.3142 Q73.8438 16.4548 73.5469 16.9079 Q73.1562 17.5017 72.2812 17.5017 Q71.8438 17.5017 71.4531 17.3923 ZM80.0469 12.9704 L81.1406 13.0954 Q80.8906 14.0486 80.1875 14.5798 Q79.4844 15.1111 78.4062 15.1111 Q77.0469 15.1111 76.2422 14.2673 Q75.4375 13.4236 75.4375 11.9079 Q75.4375 10.3454 76.25 9.4782 Q77.0625 8.6111 78.3438 8.6111 Q79.5938 8.6111 80.3828 9.4548 Q81.1719 10.2986 81.1719 11.8454 Q81.1719 11.9392 81.1719 12.1267 L76.5312 12.1267 Q76.5938 13.1579 77.1094 13.697 Q77.625 14.2361 78.4062 14.2361 Q78.9844 14.2361 79.3984 13.9314 Q79.8125 13.6267 80.0469 12.9704 ZM76.5938 11.2673 L80.0625 11.2673 Q80 10.4704 79.6719 10.0798 Q79.1562 9.4704 78.3594 9.4704 Q77.625 9.4704 77.1328 9.9548 Q76.6406 10.4392 76.5938 11.2673 ZM82.7656 14.9704 L82.7656 6.3767 L83.8281 6.3767 L83.8281 14.9704 L82.7656 14.9704 ZM86.0469 14.9704 L86.0469 9.5642 L85.1094 9.5642 L85.1094 8.7517 L86.0469 8.7517 L86.0469 8.0798 Q86.0469 7.4548 86.1562 7.1579 Q86.3125 6.7361 86.6953 6.4861 Q87.0781 6.2361 87.7656 6.2361 Q88.2188 6.2361 88.75 6.3454 L88.5938 7.2517 Q88.2656 7.2048 87.9688 7.2048 Q87.4844 7.2048 87.2891 7.4079 Q87.0938 7.6111 87.0938 8.1736 L87.0938 8.7517 L88.3125 8.7517 L88.3125 9.5642 L87.0938 9.5642 L87.0938 14.9704 L86.0469 14.9704 ZM88.4062 11.8611 Q88.4062 10.1267 89.3594 9.2986 Q90.1562 8.6111 91.3125 8.6111 Q92.5938 8.6111 93.4141 9.447 Q94.2344 10.2829 94.2344 11.7673 Q94.2344 12.9704 93.875 13.6579 Q93.5156 14.3454 92.8203 14.7282 Q92.125 15.1111 91.3125 15.1111 Q90.0156 15.1111 89.2109 14.2751 Q88.4062 13.4392 88.4062 11.8611 ZM89.4844 11.8611 Q89.4844 13.0486 90.0078 13.6423 Q90.5312 14.2361 91.3125 14.2361 Q92.1094 14.2361 92.625 13.6423 Q93.1406 13.0486 93.1406 11.8298 Q93.1406 10.6736 92.6172 10.0798 Q92.0938 9.4861 91.3125 9.4861 Q90.5312 9.4861 90.0078 10.072 Q89.4844 10.6579 89.4844 11.8611 ZM95.7812 14.9704 L95.7812 8.7517 L96.7344 8.7517 L96.7344 9.6892 Q97.0938 9.0329 97.3984 8.822 Q97.7031 8.6111 98.0781 8.6111 Q98.6094 8.6111 99.1562 8.9392 L98.7969 9.9236 Q98.4062 9.6892 98.0312 9.6892 Q97.6719 9.6892 97.3984 9.9001 Q97.125 10.1111 97.0156 10.4861 Q96.8281 11.0486 96.8281 11.7048 L96.8281 14.9704 L95.7812 14.9704 ZM99.7812 14.9704 L99.7812 8.7517 L100.7344 8.7517 L100.7344 9.6892 Q101.0938 9.0329 101.3984 8.822 Q101.7031 8.6111 102.0781 8.6111 Q102.6094 8.6111 103.1562 8.9392 L102.7969 9.9236 Q102.4062 9.6892 102.0312 9.6892 Q101.6719 9.6892 101.3984 9.9001 Q101.125 10.1111 101.0156 10.4861 Q100.8281 11.0486 100.8281 11.7048 L100.8281 14.9704 L99.7812 14.9704 ZM107.8594 14.2048 Q107.2656 14.7048 106.7266 14.9079 Q106.1875 15.1111 105.5625 15.1111 Q104.5312 15.1111 103.9844 14.6111 Q103.4375 14.1111 103.4375 13.3298 Q103.4375 12.8767 103.6406 12.4939 Q103.8438 12.1111 104.1875 11.8845 Q104.5312 11.6579 104.9531 11.5486 Q105.25 11.4548 105.8906 11.3767 Q107.1562 11.2361 107.7656 11.0173 Q107.7656 10.7986 107.7656 10.7517 Q107.7656 10.0954 107.4688 9.8298 Q107.0625 9.4861 106.2656 9.4861 Q105.5312 9.4861 105.1719 9.7439 Q104.8125 10.0017 104.6406 10.6579 L103.6094 10.5173 Q103.75 9.8611 104.0781 9.4548 Q104.4062 9.0486 105.0156 8.8298 Q105.625 8.6111 106.4219 8.6111 Q107.2188 8.6111 107.7188 8.7986 Q108.2188 8.9861 108.4531 9.2673 Q108.6875 9.5486 108.7812 9.9861 Q108.8281 10.2517 108.8281 10.9548 L108.8281 12.3611 Q108.8281 13.8298 108.8984 14.2204 Q108.9688 14.6111 109.1719 14.9704 L108.0625 14.9704 Q107.9062 14.6423 107.8594 14.2048 ZM107.7656 11.8454 Q107.1875 12.0798 106.0469 12.2517 Q105.3906 12.3454 105.125 12.4626 Q104.8594 12.5798 104.7109 12.7986 Q104.5625 13.0173 104.5625 13.2986 Q104.5625 13.7204 104.8828 14.0017 Q105.2031 14.2829 105.8125 14.2829 Q106.4219 14.2829 106.8984 14.0173 Q107.375 13.7517 107.5938 13.2829 Q107.7656 12.9236 107.7656 12.2361 L107.7656 11.8454 ZM105.125 6.9704 L105.9062 5.3298 L107.2969 5.3298 L106 6.9704 L105.125 6.9704 ZM110.375 13.1111 L111.4062 12.9548 Q111.5 13.5798 111.8984 13.9079 Q112.2969 14.2361 113.0312 14.2361 Q113.75 14.2361 114.1016 13.947 Q114.4531 13.6579 114.4531 13.2517 Q114.4531 12.8923 114.1406 12.6892 Q113.9219 12.5486 113.0625 12.3298 Q111.9062 12.0329 111.4609 11.822 Q111.0156 11.6111 110.7812 11.2361 Q110.5469 10.8611 110.5469 10.3923 Q110.5469 9.9861 110.7344 9.6267 Q110.9219 9.2673 111.25 9.0329 Q111.5 8.8611 111.9219 8.7361 Q112.3438 8.6111 112.8438 8.6111 Q113.5625 8.6111 114.1172 8.822 Q114.6719 9.0329 114.9375 9.3923 Q115.2031 9.7517 115.2969 10.3454 L114.2656 10.4861 Q114.2031 10.0173 113.8672 9.7439 Q113.5312 9.4704 112.9062 9.4704 Q112.1875 9.4704 111.875 9.7126 Q111.5625 9.9548 111.5625 10.2829 Q111.5625 10.4861 111.6875 10.6423 Q111.8281 10.8142 112.0938 10.9236 Q112.25 10.9861 113.0312 11.1892 Q114.1562 11.5017 114.5938 11.6892 Q115.0312 11.8767 115.2812 12.2361 Q115.5312 12.5954 115.5312 13.1423 Q115.5312 13.6736 115.2266 14.1345 Q114.9219 14.5954 114.3438 14.8532 Q113.7656 15.1111 113.0312 15.1111 Q111.8125 15.1111 111.1797 14.6032 Q110.5469 14.0954 110.375 13.1111 Z" style="clip-path:url(#clipPath8); stroke:none;" />
      <path d="M5.5156 28.9704 L3.1562 22.7517 L4.2656 22.7517 L5.6094 26.4704 Q5.8125 27.0798 6 27.7204 Q6.1406 27.2361 6.3906 26.5486 L7.7812 22.7517 L8.8594 22.7517 L6.5 28.9704 L5.5156 28.9704 ZM12.8594 28.2048 Q12.2656 28.7048 11.7266 28.9079 Q11.1875 29.1111 10.5625 29.1111 Q9.5312 29.1111 8.9844 28.6111 Q8.4375 28.1111 8.4375 27.3298 Q8.4375 26.8767 8.6406 26.4939 Q8.8438 26.1111 9.1875 25.8845 Q9.5312 25.6579 9.9531 25.5486 Q10.25 25.4548 10.8906 25.3767 Q12.1562 25.2361 12.7656 25.0173 Q12.7656 24.7986 12.7656 24.7517 Q12.7656 24.0954 12.4688 23.8298 Q12.0625 23.4861 11.2656 23.4861 Q10.5312 23.4861 10.1719 23.7439 Q9.8125 24.0017 9.6406 24.6579 L8.6094 24.5173 Q8.75 23.8611 9.0781 23.4548 Q9.4062 23.0486 10.0156 22.8298 Q10.625 22.6111 11.4219 22.6111 Q12.2188 22.6111 12.7188 22.7986 Q13.2188 22.9861 13.4531 23.2673 Q13.6875 23.5486 13.7812 23.9861 Q13.8281 24.2517 13.8281 24.9548 L13.8281 26.3611 Q13.8281 27.8298 13.8984 28.2204 Q13.9688 28.6111 14.1719 28.9704 L13.0625 28.9704 Q12.9062 28.6423 12.8594 28.2048 ZM12.7656 25.8454 Q12.1875 26.0798 11.0469 26.2517 Q10.3906 26.3454 10.125 26.4626 Q9.8594 26.5798 9.7109 26.7986 Q9.5625 27.0173 9.5625 27.2986 Q9.5625 27.7204 9.8828 28.0017 Q10.2031 28.2829 10.8125 28.2829 Q11.4219 28.2829 11.8984 28.0173 Q12.375 27.7517 12.5938 27.2829 Q12.7656 26.9236 12.7656 26.2361 L12.7656 25.8454 ZM10.125 20.9704 L10.9062 19.3298 L12.2969 19.3298 L11 20.9704 L10.125 20.9704 ZM15.7656 28.9704 L15.7656 20.3767 L16.8281 20.3767 L16.8281 28.9704 L15.7656 28.9704 ZM21.0938 28.0329 L21.25 28.9548 Q20.7969 29.0486 20.4531 29.0486 Q19.875 29.0486 19.5625 28.8689 Q19.25 28.6892 19.1172 28.3923 Q18.9844 28.0954 18.9844 27.1423 L18.9844 23.5642 L18.2188 23.5642 L18.2188 22.7517 L18.9844 22.7517 L18.9844 21.2048 L20.0312 20.5798 L20.0312 22.7517 L21.0938 22.7517 L21.0938 23.5642 L20.0312 23.5642 L20.0312 27.2048 Q20.0312 27.6579 20.0859 27.7829 Q20.1406 27.9079 20.2656 27.9861 Q20.3906 28.0642 20.625 28.0642 Q20.8125 28.0642 21.0938 28.0329 ZM21.4062 25.8611 Q21.4062 24.1267 22.3594 23.2986 Q23.1562 22.6111 24.3125 22.6111 Q25.5938 22.6111 26.4141 23.447 Q27.2344 24.2829 27.2344 25.7673 Q27.2344 26.9704 26.875 27.6579 Q26.5156 28.3454 25.8203 28.7282 Q25.125 29.1111 24.3125 29.1111 Q23.0156 29.1111 22.2109 28.2751 Q21.4062 27.4392 21.4062 25.8611 ZM22.4844 25.8611 Q22.4844 27.0486 23.0078 27.6423 Q23.5312 28.2361 24.3125 28.2361 Q25.1094 28.2361 25.625 27.6423 Q26.1406 27.0486 26.1406 25.8298 Q26.1406 24.6736 25.6172 24.0798 Q25.0938 23.4861 24.3125 23.4861 Q23.5312 23.4861 23.0078 24.072 Q22.4844 24.6579 22.4844 25.8611 ZM28.2344 28.9704 L28.2344 28.1111 L32.2031 23.5642 Q31.5156 23.5954 31 23.5954 L28.4688 23.5954 L28.4688 22.7517 L33.5625 22.7517 L33.5625 23.4392 L30.1875 27.3923 L29.5312 28.1111 Q30.25 28.0642 30.8594 28.0642 L33.75 28.0642 L33.75 28.9704 L28.2344 28.9704 ZM37.8594 28.2048 Q37.2656 28.7048 36.7266 28.9079 Q36.1875 29.1111 35.5625 29.1111 Q34.5312 29.1111 33.9844 28.6111 Q33.4375 28.1111 33.4375 27.3298 Q33.4375 26.8767 33.6406 26.4939 Q33.8438 26.1111 34.1875 25.8845 Q34.5312 25.6579 34.9531 25.5486 Q35.25 25.4548 35.8906 25.3767 Q37.1562 25.2361 37.7656 25.0173 Q37.7656 24.7986 37.7656 24.7517 Q37.7656 24.0954 37.4688 23.8298 Q37.0625 23.4861 36.2656 23.4861 Q35.5312 23.4861 35.1719 23.7439 Q34.8125 24.0017 34.6406 24.6579 L33.6094 24.5173 Q33.75 23.8611 34.0781 23.4548 Q34.4062 23.0486 35.0156 22.8298 Q35.625 22.6111 36.4219 22.6111 Q37.2188 22.6111 37.7188 22.7986 Q38.2188 22.9861 38.4531 23.2673 Q38.6875 23.5486 38.7812 23.9861 Q38.8281 24.2517 38.8281 24.9548 L38.8281 26.3611 Q38.8281 27.8298 38.8984 28.2204 Q38.9688 28.6111 39.1719 28.9704 L38.0625 28.9704 Q37.9062 28.6423 37.8594 28.2048 ZM37.7656 25.8454 Q37.1875 26.0798 36.0469 26.2517 Q35.3906 26.3454 35.125 26.4626 Q34.8594 26.5798 34.7109 26.7986 Q34.5625 27.0173 34.5625 27.2986 Q34.5625 27.7204 34.8828 28.0017 Q35.2031 28.2829 35.8125 28.2829 Q36.4219 28.2829 36.8984 28.0173 Q37.375 27.7517 37.5938 27.2829 Q37.7656 26.9236 37.7656 26.2361 L37.7656 25.8454 ZM35.125 20.9704 L35.9062 19.3298 L37.2969 19.3298 L36 20.9704 L35.125 20.9704 ZM40.375 27.1111 L41.4062 26.9548 Q41.5 27.5798 41.8984 27.9079 Q42.2969 28.2361 43.0312 28.2361 Q43.75 28.2361 44.1016 27.947 Q44.4531 27.6579 44.4531 27.2517 Q44.4531 26.8923 44.1406 26.6892 Q43.9219 26.5486 43.0625 26.3298 Q41.9062 26.0329 41.4609 25.822 Q41.0156 25.6111 40.7812 25.2361 Q40.5469 24.8611 40.5469 24.3923 Q40.5469 23.9861 40.7344 23.6267 Q40.9219 23.2673 41.25 23.0329 Q41.5 22.8611 41.9219 22.7361 Q42.3438 22.6111 42.8438 22.6111 Q43.5625 22.6111 44.1172 22.822 Q44.6719 23.0329 44.9375 23.3923 Q45.2031 23.7517 45.2969 24.3454 L44.2656 24.4861 Q44.2031 24.0173 43.8672 23.7439 Q43.5312 23.4704 42.9062 23.4704 Q42.1875 23.4704 41.875 23.7126 Q41.5625 23.9548 41.5625 24.2829 Q41.5625 24.4861 41.6875 24.6423 Q41.8281 24.8142 42.0938 24.9236 Q42.25 24.9861 43.0312 25.1892 Q44.1562 25.5017 44.5938 25.6892 Q45.0312 25.8767 45.2812 26.2361 Q45.5312 26.5954 45.5312 27.1423 Q45.5312 27.6736 45.2266 28.1345 Q44.9219 28.5954 44.3438 28.8532 Q43.7656 29.1111 43.0312 29.1111 Q41.8125 29.1111 41.1797 28.6032 Q40.5469 28.0954 40.375 27.1111 ZM47.7812 28.9704 L47.7812 22.7517 L48.7344 22.7517 L48.7344 23.6892 Q49.0938 23.0329 49.3984 22.822 Q49.7031 22.6111 50.0781 22.6111 Q50.6094 22.6111 51.1562 22.9392 L50.7969 23.9236 Q50.4062 23.6892 50.0312 23.6892 Q49.6719 23.6892 49.3984 23.9001 Q49.125 24.1111 49.0156 24.4861 Q48.8281 25.0486 48.8281 25.7048 L48.8281 28.9704 L47.7812 28.9704 ZM55.8594 28.2048 Q55.2656 28.7048 54.7266 28.9079 Q54.1875 29.1111 53.5625 29.1111 Q52.5312 29.1111 51.9844 28.6111 Q51.4375 28.1111 51.4375 27.3298 Q51.4375 26.8767 51.6406 26.4939 Q51.8438 26.1111 52.1875 25.8845 Q52.5312 25.6579 52.9531 25.5486 Q53.25 25.4548 53.8906 25.3767 Q55.1562 25.2361 55.7656 25.0173 Q55.7656 24.7986 55.7656 24.7517 Q55.7656 24.0954 55.4688 23.8298 Q55.0625 23.4861 54.2656 23.4861 Q53.5312 23.4861 53.1719 23.7439 Q52.8125 24.0017 52.6406 24.6579 L51.6094 24.5173 Q51.75 23.8611 52.0781 23.4548 Q52.4062 23.0486 53.0156 22.8298 Q53.625 22.6111 54.4219 22.6111 Q55.2188 22.6111 55.7188 22.7986 Q56.2188 22.9861 56.4531 23.2673 Q56.6875 23.5486 56.7812 23.9861 Q56.8281 24.2517 56.8281 24.9548 L56.8281 26.3611 Q56.8281 27.8298 56.8984 28.2204 Q56.9688 28.6111 57.1719 28.9704 L56.0625 28.9704 Q55.9062 28.6423 55.8594 28.2048 ZM55.7656 25.8454 Q55.1875 26.0798 54.0469 26.2517 Q53.3906 26.3454 53.125 26.4626 Q52.8594 26.5798 52.7109 26.7986 Q52.5625 27.0173 52.5625 27.2986 Q52.5625 27.7204 52.8828 28.0017 Q53.2031 28.2829 53.8125 28.2829 Q54.4219 28.2829 54.8984 28.0173 Q55.375 27.7517 55.5938 27.2829 Q55.7656 26.9236 55.7656 26.2361 L55.7656 25.8454 ZM63.5156 28.9704 L61.1562 22.7517 L62.2656 22.7517 L63.6094 26.4704 Q63.8125 27.0798 64 27.7204 Q64.1406 27.2361 64.3906 26.5486 L65.7812 22.7517 L66.8594 22.7517 L64.5 28.9704 L63.5156 28.9704 ZM70.8594 28.2048 Q70.2656 28.7048 69.7266 28.9079 Q69.1875 29.1111 68.5625 29.1111 Q67.5312 29.1111 66.9844 28.6111 Q66.4375 28.1111 66.4375 27.3298 Q66.4375 26.8767 66.6406 26.4939 Q66.8438 26.1111 67.1875 25.8845 Q67.5312 25.6579 67.9531 25.5486 Q68.25 25.4548 68.8906 25.3767 Q70.1562 25.2361 70.7656 25.0173 Q70.7656 24.7986 70.7656 24.7517 Q70.7656 24.0954 70.4688 23.8298 Q70.0625 23.4861 69.2656 23.4861 Q68.5312 23.4861 68.1719 23.7439 Q67.8125 24.0017 67.6406 24.6579 L66.6094 24.5173 Q66.75 23.8611 67.0781 23.4548 Q67.4062 23.0486 68.0156 22.8298 Q68.625 22.6111 69.4219 22.6111 Q70.2188 22.6111 70.7188 22.7986 Q71.2188 22.9861 71.4531 23.2673 Q71.6875 23.5486 71.7812 23.9861 Q71.8281 24.2517 71.8281 24.9548 L71.8281 26.3611 Q71.8281 27.8298 71.8984 28.2204 Q71.9688 28.6111 72.1719 28.9704 L71.0625 28.9704 Q70.9062 28.6423 70.8594 28.2048 ZM70.7656 25.8454 Q70.1875 26.0798 69.0469 26.2517 Q68.3906 26.3454 68.125 26.4626 Q67.8594 26.5798 67.7109 26.7986 Q67.5625 27.0173 67.5625 27.2986 Q67.5625 27.7204 67.8828 28.0017 Q68.2031 28.2829 68.8125 28.2829 Q69.4219 28.2829 69.8984 28.0173 Q70.375 27.7517 70.5938 27.2829 Q70.7656 26.9236 70.7656 26.2361 L70.7656 25.8454 ZM68.125 20.9704 L68.9062 19.3298 L70.2969 19.3298 L69 20.9704 L68.125 20.9704 ZM73.7812 28.9704 L73.7812 22.7517 L74.7344 22.7517 L74.7344 23.6892 Q75.0938 23.0329 75.3984 22.822 Q75.7031 22.6111 76.0781 22.6111 Q76.6094 22.6111 77.1562 22.9392 L76.7969 23.9236 Q76.4062 23.6892 76.0312 23.6892 Q75.6719 23.6892 75.3984 23.9001 Q75.125 24.1111 75.0156 24.4861 Q74.8281 25.0486 74.8281 25.7048 L74.8281 28.9704 L73.7812 28.9704 ZM81.8594 28.2048 Q81.2656 28.7048 80.7266 28.9079 Q80.1875 29.1111 79.5625 29.1111 Q78.5312 29.1111 77.9844 28.6111 Q77.4375 28.1111 77.4375 27.3298 Q77.4375 26.8767 77.6406 26.4939 Q77.8438 26.1111 78.1875 25.8845 Q78.5312 25.6579 78.9531 25.5486 Q79.25 25.4548 79.8906 25.3767 Q81.1562 25.2361 81.7656 25.0173 Q81.7656 24.7986 81.7656 24.7517 Q81.7656 24.0954 81.4688 23.8298 Q81.0625 23.4861 80.2656 23.4861 Q79.5312 23.4861 79.1719 23.7439 Q78.8125 24.0017 78.6406 24.6579 L77.6094 24.5173 Q77.75 23.8611 78.0781 23.4548 Q78.4062 23.0486 79.0156 22.8298 Q79.625 22.6111 80.4219 22.6111 Q81.2188 22.6111 81.7188 22.7986 Q82.2188 22.9861 82.4531 23.2673 Q82.6875 23.5486 82.7812 23.9861 Q82.8281 24.2517 82.8281 24.9548 L82.8281 26.3611 Q82.8281 27.8298 82.8984 28.2204 Q82.9688 28.6111 83.1719 28.9704 L82.0625 28.9704 Q81.9062 28.6423 81.8594 28.2048 ZM81.7656 25.8454 Q81.1875 26.0798 80.0469 26.2517 Q79.3906 26.3454 79.125 26.4626 Q78.8594 26.5798 78.7109 26.7986 Q78.5625 27.0173 78.5625 27.2986 Q78.5625 27.7204 78.8828 28.0017 Q79.2031 28.2829 79.8125 28.2829 Q80.4219 28.2829 80.8984 28.0173 Q81.375 27.7517 81.5938 27.2829 Q81.7656 26.9236 81.7656 26.2361 L81.7656 25.8454 ZM84.7969 28.9704 L84.7969 20.3767 L85.8594 20.3767 L85.8594 25.2829 L88.3438 22.7517 L89.7188 22.7517 L87.3281 25.0486 L89.9531 28.9704 L88.6562 28.9704 L86.5938 25.7829 L85.8594 26.5017 L85.8594 28.9704 L84.7969 28.9704 ZM90.4062 25.8611 Q90.4062 24.1267 91.3594 23.2986 Q92.1562 22.6111 93.3125 22.6111 Q94.5938 22.6111 95.4141 23.447 Q96.2344 24.2829 96.2344 25.7673 Q96.2344 26.9704 95.875 27.6579 Q95.5156 28.3454 94.8203 28.7282 Q94.125 29.1111 93.3125 29.1111 Q92.0156 29.1111 91.2109 28.2751 Q90.4062 27.4392 90.4062 25.8611 ZM91.4844 25.8611 Q91.4844 27.0486 92.0078 27.6423 Q92.5312 28.2361 93.3125 28.2361 Q94.1094 28.2361 94.625 27.6423 Q95.1406 27.0486 95.1406 25.8298 Q95.1406 24.6736 94.6172 24.0798 Q94.0938 23.4861 93.3125 23.4861 Q92.5312 23.4861 92.0078 24.072 Q91.4844 24.6579 91.4844 25.8611 ZM97.2344 28.9704 L97.2344 28.1111 L101.2031 23.5642 Q100.5156 23.5954 100 23.5954 L97.4688 23.5954 L97.4688 22.7517 L102.5625 22.7517 L102.5625 23.4392 L99.1875 27.3923 L98.5312 28.1111 Q99.25 28.0642 99.8594 28.0642 L102.75 28.0642 L102.75 28.9704 L97.2344 28.9704 ZM102.7969 21.5954 L102.7969 20.3767 L103.8594 20.3767 L103.8594 21.5954 L102.7969 21.5954 ZM102.7969 28.9704 L102.7969 22.7517 L103.8594 22.7517 L103.8594 28.9704 L102.7969 28.9704 ZM105.7969 28.9704 L105.7969 20.3767 L106.8594 20.3767 L106.8594 25.2829 L109.3438 22.7517 L110.7188 22.7517 L108.3281 25.0486 L110.9531 28.9704 L109.6562 28.9704 L107.5938 25.7829 L106.8594 26.5017 L106.8594 28.9704 L105.7969 28.9704 Z" style="clip-path:url(#clipPath8); stroke:none;" />
    </g>
    <g transform="translate(492,252)" style="font-size:11; stroke-linecap:butt; text-rendering:geometricPrecision; font-family:sans-serif; stroke-linejoin:round; stroke-miterlimit:0;">
      <polygon style="fill:none; clip-path:url(#clipPath7);" points=" 0 0 124 0 139 15 124 15 124 0 139 15 139 45 0 45" />
    </g>
    <g style="text-rendering:geometricPrecision; font-size:11; font-family:&apos;Tahoma&apos;;" transform="translate(492,252)">
      <path d="M2.9844 14.9704 L6.2812 6.3767 L7.5 6.3767 L11.0156 14.9704 L9.7344 14.9704 L8.7188 12.3611 L5.1406 12.3611 L4.1875 14.9704 L2.9844 14.9704 ZM5.4688 11.4392 L8.375 11.4392 L7.4844 9.0642 Q7.0625 7.9861 6.875 7.2829 Q6.7031 8.1111 6.4062 8.9236 L5.4688 11.4392 ZM6.125 4.9704 L6.9062 3.3298 L8.2969 3.3298 L7 4.9704 L6.125 4.9704 ZM10.7812 14.9704 L10.7812 8.7517 L11.7344 8.7517 L11.7344 9.6892 Q12.0938 9.0329 12.3984 8.822 Q12.7031 8.6111 13.0781 8.6111 Q13.6094 8.6111 14.1562 8.9392 L13.7969 9.9236 Q13.4062 9.6892 13.0312 9.6892 Q12.6719 9.6892 12.3984 9.9001 Q12.125 10.1111 12.0156 10.4861 Q11.8281 11.0486 11.8281 11.7048 L11.8281 14.9704 L10.7812 14.9704 ZM18.8594 14.2048 Q18.2656 14.7048 17.7266 14.9079 Q17.1875 15.1111 16.5625 15.1111 Q15.5312 15.1111 14.9844 14.6111 Q14.4375 14.1111 14.4375 13.3298 Q14.4375 12.8767 14.6406 12.4939 Q14.8438 12.1111 15.1875 11.8845 Q15.5312 11.6579 15.9531 11.5486 Q16.25 11.4548 16.8906 11.3767 Q18.1562 11.2361 18.7656 11.0173 Q18.7656 10.7986 18.7656 10.7517 Q18.7656 10.0954 18.4688 9.8298 Q18.0625 9.4861 17.2656 9.4861 Q16.5312 9.4861 16.1719 9.7439 Q15.8125 10.0017 15.6406 10.6579 L14.6094 10.5173 Q14.75 9.8611 15.0781 9.4548 Q15.4062 9.0486 16.0156 8.8298 Q16.625 8.6111 17.4219 8.6111 Q18.2188 8.6111 18.7188 8.7986 Q19.2188 8.9861 19.4531 9.2673 Q19.6875 9.5486 19.7812 9.9861 Q19.8281 10.2517 19.8281 10.9548 L19.8281 12.3611 Q19.8281 13.8298 19.8984 14.2204 Q19.9688 14.6111 20.1719 14.9704 L19.0625 14.9704 Q18.9062 14.6423 18.8594 14.2048 ZM18.7656 11.8454 Q18.1875 12.0798 17.0469 12.2517 Q16.3906 12.3454 16.125 12.4626 Q15.8594 12.5798 15.7109 12.7986 Q15.5625 13.0173 15.5625 13.2986 Q15.5625 13.7204 15.8828 14.0017 Q16.2031 14.2829 16.8125 14.2829 Q17.4219 14.2829 17.8984 14.0173 Q18.375 13.7517 18.5938 13.2829 Q18.7656 12.9236 18.7656 12.2361 L18.7656 11.8454 ZM21.7969 14.9704 L21.7969 8.7517 L22.7344 8.7517 L22.7344 9.6267 Q23.0312 9.1579 23.5156 8.8845 Q24 8.6111 24.625 8.6111 Q25.3125 8.6111 25.7578 8.8923 Q26.2031 9.1736 26.375 9.6892 Q27.125 8.6111 28.2969 8.6111 Q29.2344 8.6111 29.7266 9.1189 Q30.2188 9.6267 30.2188 10.7048 L30.2188 14.9704 L29.1719 14.9704 L29.1719 11.0486 Q29.1719 10.4236 29.0703 10.1423 Q28.9688 9.8611 28.7031 9.6892 Q28.4375 9.5173 28.0625 9.5173 Q27.4062 9.5173 26.9766 9.9548 Q26.5469 10.3923 26.5469 11.3611 L26.5469 14.9704 L25.4844 14.9704 L25.4844 10.9236 Q25.4844 10.2204 25.2266 9.8689 Q24.9688 9.5173 24.3906 9.5173 Q23.9375 9.5173 23.5625 9.7517 Q23.1875 9.9861 23.0156 10.4392 Q22.8438 10.8923 22.8438 11.7361 L22.8438 14.9704 L21.7969 14.9704 ZM32.7969 14.9704 L32.7969 6.3767 L33.8594 6.3767 L33.8594 11.2829 L36.3438 8.7517 L37.7188 8.7517 L35.3281 11.0486 L37.9531 14.9704 L36.6562 14.9704 L34.5938 11.7829 L33.8594 12.5017 L33.8594 14.9704 L32.7969 14.9704 ZM38.4062 11.8611 Q38.4062 10.1267 39.3594 9.2986 Q40.1562 8.6111 41.3125 8.6111 Q42.5938 8.6111 43.4141 9.447 Q44.2344 10.2829 44.2344 11.7673 Q44.2344 12.9704 43.875 13.6579 Q43.5156 14.3454 42.8203 14.7282 Q42.125 15.1111 41.3125 15.1111 Q40.0156 15.1111 39.2109 14.2751 Q38.4062 13.4392 38.4062 11.8611 ZM39.4844 11.8611 Q39.4844 13.0486 40.0078 13.6423 Q40.5312 14.2361 41.3125 14.2361 Q42.1094 14.2361 42.625 13.6423 Q43.1406 13.0486 43.1406 11.8298 Q43.1406 10.6736 42.6172 10.0798 Q42.0938 9.4861 41.3125 9.4861 Q40.5312 9.4861 40.0078 10.072 Q39.4844 10.6579 39.4844 11.8611 ZM39.8125 6.9704 L39.8125 5.7673 L40.9062 5.7673 L40.9062 6.9704 L39.8125 6.9704 ZM42 6.9704 L42 5.7673 L43.0938 5.7673 L43.0938 6.9704 L42 6.9704 ZM45.7812 14.9704 L45.7812 8.7517 L46.7344 8.7517 L46.7344 9.6892 Q47.0938 9.0329 47.3984 8.822 Q47.7031 8.6111 48.0781 8.6111 Q48.6094 8.6111 49.1562 8.9392 L48.7969 9.9236 Q48.4062 9.6892 48.0312 9.6892 Q47.6719 9.6892 47.3984 9.9001 Q47.125 10.1111 47.0156 10.4861 Q46.8281 11.0486 46.8281 11.7048 L46.8281 14.9704 L45.7812 14.9704 ZM52.7969 14.9704 L52.7969 6.3767 L53.8594 6.3767 L53.8594 11.2829 L56.3438 8.7517 L57.7188 8.7517 L55.3281 11.0486 L57.9531 14.9704 L56.6562 14.9704 L54.5938 11.7829 L53.8594 12.5017 L53.8594 14.9704 L52.7969 14.9704 ZM58.7969 7.5954 L58.7969 6.3767 L59.8594 6.3767 L59.8594 7.5954 L58.7969 7.5954 ZM58.7969 14.9704 L58.7969 8.7517 L59.8594 8.7517 L59.8594 14.9704 L58.7969 14.9704 ZM66.0469 12.9704 L67.1406 13.0954 Q66.8906 14.0486 66.1875 14.5798 Q65.4844 15.1111 64.4062 15.1111 Q63.0469 15.1111 62.2422 14.2673 Q61.4375 13.4236 61.4375 11.9079 Q61.4375 10.3454 62.25 9.4782 Q63.0625 8.6111 64.3438 8.6111 Q65.5938 8.6111 66.3828 9.4548 Q67.1719 10.2986 67.1719 11.8454 Q67.1719 11.9392 67.1719 12.1267 L62.5312 12.1267 Q62.5938 13.1579 63.1094 13.697 Q63.625 14.2361 64.4062 14.2361 Q64.9844 14.2361 65.3984 13.9314 Q65.8125 13.6267 66.0469 12.9704 ZM62.5938 11.2673 L66.0625 11.2673 Q66 10.4704 65.6719 10.0798 Q65.1562 9.4704 64.3594 9.4704 Q63.625 9.4704 63.1328 9.9548 Q62.6406 10.4392 62.5938 11.2673 ZM63.125 6.9704 L63.9062 5.3298 L65.2969 5.3298 L64 6.9704 L63.125 6.9704 ZM68.7812 14.9704 L68.7812 8.7517 L69.7344 8.7517 L69.7344 9.6892 Q70.0938 9.0329 70.3984 8.822 Q70.7031 8.6111 71.0781 8.6111 Q71.6094 8.6111 72.1562 8.9392 L71.7969 9.9236 Q71.4062 9.6892 71.0312 9.6892 Q70.6719 9.6892 70.3984 9.9001 Q70.125 10.1111 70.0156 10.4861 Q69.8281 11.0486 69.8281 11.7048 L69.8281 14.9704 L68.7812 14.9704 ZM75.0938 14.0329 L75.25 14.9548 Q74.7969 15.0486 74.4531 15.0486 Q73.875 15.0486 73.5625 14.8689 Q73.25 14.6892 73.1172 14.3923 Q72.9844 14.0954 72.9844 13.1423 L72.9844 9.5642 L72.2188 9.5642 L72.2188 8.7517 L72.9844 8.7517 L72.9844 7.2048 L74.0312 6.5798 L74.0312 8.7517 L75.0938 8.7517 L75.0938 9.5642 L74.0312 9.5642 L74.0312 13.2048 Q74.0312 13.6579 74.0859 13.7829 Q74.1406 13.9079 74.2656 13.9861 Q74.3906 14.0642 74.625 14.0642 Q74.8125 14.0642 75.0938 14.0329 ZM80.0469 12.9704 L81.1406 13.0954 Q80.8906 14.0486 80.1875 14.5798 Q79.4844 15.1111 78.4062 15.1111 Q77.0469 15.1111 76.2422 14.2673 Q75.4375 13.4236 75.4375 11.9079 Q75.4375 10.3454 76.25 9.4782 Q77.0625 8.6111 78.3438 8.6111 Q79.5938 8.6111 80.3828 9.4548 Q81.1719 10.2986 81.1719 11.8454 Q81.1719 11.9392 81.1719 12.1267 L76.5312 12.1267 Q76.5938 13.1579 77.1094 13.697 Q77.625 14.2361 78.4062 14.2361 Q78.9844 14.2361 79.3984 13.9314 Q79.8125 13.6267 80.0469 12.9704 ZM76.5938 11.2673 L80.0625 11.2673 Q80 10.4704 79.6719 10.0798 Q79.1562 9.4704 78.3594 9.4704 Q77.625 9.4704 77.1328 9.9548 Q76.6406 10.4392 76.5938 11.2673 ZM77.125 6.9704 L77.9062 5.3298 L79.2969 5.3298 L78 6.9704 L77.125 6.9704 ZM82.7969 14.9704 L82.7969 6.3767 L83.8594 6.3767 L83.8594 11.2829 L86.3438 8.7517 L87.7188 8.7517 L85.3281 11.0486 L87.9531 14.9704 L86.6562 14.9704 L84.5938 11.7829 L83.8594 12.5017 L83.8594 14.9704 L82.7969 14.9704 ZM93.0469 12.9704 L94.1406 13.0954 Q93.8906 14.0486 93.1875 14.5798 Q92.4844 15.1111 91.4062 15.1111 Q90.0469 15.1111 89.2422 14.2673 Q88.4375 13.4236 88.4375 11.9079 Q88.4375 10.3454 89.25 9.4782 Q90.0625 8.6111 91.3438 8.6111 Q92.5938 8.6111 93.3828 9.4548 Q94.1719 10.2986 94.1719 11.8454 Q94.1719 11.9392 94.1719 12.1267 L89.5312 12.1267 Q89.5938 13.1579 90.1094 13.697 Q90.625 14.2361 91.4062 14.2361 Q91.9844 14.2361 92.3984 13.9314 Q92.8125 13.6267 93.0469 12.9704 ZM89.5938 11.2673 L93.0625 11.2673 Q93 10.4704 92.6719 10.0798 Q92.1562 9.4704 91.3594 9.4704 Q90.625 9.4704 90.1328 9.9548 Q89.6406 10.4392 89.5938 11.2673 ZM95.7656 14.9704 L95.7656 6.3767 L96.8281 6.3767 L96.8281 14.9704 L95.7656 14.9704 ZM103.0469 12.9704 L104.1406 13.0954 Q103.8906 14.0486 103.1875 14.5798 Q102.4844 15.1111 101.4062 15.1111 Q100.0469 15.1111 99.2422 14.2673 Q98.4375 13.4236 98.4375 11.9079 Q98.4375 10.3454 99.25 9.4782 Q100.0625 8.6111 101.3438 8.6111 Q102.5938 8.6111 103.3828 9.4548 Q104.1719 10.2986 104.1719 11.8454 Q104.1719 11.9392 104.1719 12.1267 L99.5312 12.1267 Q99.5938 13.1579 100.1094 13.697 Q100.625 14.2361 101.4062 14.2361 Q101.9844 14.2361 102.3984 13.9314 Q102.8125 13.6267 103.0469 12.9704 ZM99.5938 11.2673 L103.0625 11.2673 Q103 10.4704 102.6719 10.0798 Q102.1562 9.4704 101.3594 9.4704 Q100.625 9.4704 100.1328 9.9548 Q99.6406 10.4392 99.5938 11.2673 ZM100.125 6.9704 L100.9062 5.3298 L102.2969 5.3298 L101 6.9704 L100.125 6.9704 ZM105.375 13.1111 L106.4062 12.9548 Q106.5 13.5798 106.8984 13.9079 Q107.2969 14.2361 108.0312 14.2361 Q108.75 14.2361 109.1016 13.947 Q109.4531 13.6579 109.4531 13.2517 Q109.4531 12.8923 109.1406 12.6892 Q108.9219 12.5486 108.0625 12.3298 Q106.9062 12.0329 106.4609 11.822 Q106.0156 11.6111 105.7812 11.2361 Q105.5469 10.8611 105.5469 10.3923 Q105.5469 9.9861 105.7344 9.6267 Q105.9219 9.2673 106.25 9.0329 Q106.5 8.8611 106.9219 8.7361 Q107.3438 8.6111 107.8438 8.6111 Q108.5625 8.6111 109.1172 8.822 Q109.6719 9.0329 109.9375 9.3923 Q110.2031 9.7517 110.2969 10.3454 L109.2656 10.4861 Q109.2031 10.0173 108.8672 9.7439 Q108.5312 9.4704 107.9062 9.4704 Q107.1875 9.4704 106.875 9.7126 Q106.5625 9.9548 106.5625 10.2829 Q106.5625 10.4861 106.6875 10.6423 Q106.8281 10.8142 107.0938 10.9236 Q107.25 10.9861 108.0312 11.1892 Q109.1562 11.5017 109.5938 11.6892 Q110.0312 11.8767 110.2812 12.2361 Q110.5312 12.5954 110.5312 13.1423 Q110.5312 13.6736 110.2266 14.1345 Q109.9219 14.5954 109.3438 14.8532 Q108.7656 15.1111 108.0312 15.1111 Q106.8125 15.1111 106.1797 14.6032 Q105.5469 14.0954 105.375 13.1111 ZM117.0469 12.9704 L118.1406 13.0954 Q117.8906 14.0486 117.1875 14.5798 Q116.4844 15.1111 115.4062 15.1111 Q114.0469 15.1111 113.2422 14.2673 Q112.4375 13.4236 112.4375 11.9079 Q112.4375 10.3454 113.25 9.4782 Q114.0625 8.6111 115.3438 8.6111 Q116.5938 8.6111 117.3828 9.4548 Q118.1719 10.2986 118.1719 11.8454 Q118.1719 11.9392 118.1719 12.1267 L113.5312 12.1267 Q113.5938 13.1579 114.1094 13.697 Q114.625 14.2361 115.4062 14.2361 Q115.9844 14.2361 116.3984 13.9314 Q116.8125 13.6267 117.0469 12.9704 ZM113.5938 11.2673 L117.0625 11.2673 Q117 10.4704 116.6719 10.0798 Q116.1562 9.4704 115.3594 9.4704 Q114.625 9.4704 114.1328 9.9548 Q113.6406 10.4392 113.5938 11.2673 Z" style="clip-path:url(#clipPath8); stroke:none;" />
    </g>
    <g style="text-rendering:geometricPrecision; font-size:11; font-family:sans-serif;" transform="translate(402,62)">
      <text x="20" y="12" style="clip-path:url(#clipPath9); stroke:none;" xml:space="preserve">Paused</text>
    </g>
    <g style="text-rendering:geometricPrecision; font-size:11; font-family:sans-serif;" transform="translate(582,62)">
      <text x="19" y="12" style="clip-path:url(#clipPath9); stroke:none;" xml:space="preserve">Working</text>
    </g>
    <g style="text-rendering:geometricPrecision; font-size:11; font-family:sans-serif;" transform="translate(372,2)">
      <text x="139" y="12" style="clip-path:url(#clipPath10); stroke:none;" xml:space="preserve">Running</text>
    </g>
    <g style="text-rendering:geometricPrecision; font-size:11; font-family:sans-serif;" transform="translate(122,162)">
      <text x="19" y="12" style="clip-path:url(#clipPath9); stroke:none;" xml:space="preserve">Stopped</text>
    </g>
    <g transform="translate(82,152)" style="font-size:11; stroke-linecap:butt; text-rendering:geometricPrecision; font-family:sans-serif; stroke-linejoin:round;">
      <line x1="50" x2="50" y1="111" style="clip-path:url(#clipPath11); fill:none;" y2="50" />
      <line x1="50" x2="44" y1="50" style="clip-path:url(#clipPath11); fill:none;" y2="62" />
      <line x1="50" x2="56" y1="50" style="clip-path:url(#clipPath11); fill:none;" y2="62" />
    </g>
    <g transform="translate(152,142)" style="font-size:11; stroke-linecap:butt; text-rendering:geometricPrecision; font-family:sans-serif; stroke-linejoin:round;">
      <line x1="50" x2="219" y1="50" style="clip-path:url(#clipPath12); fill:none;" y2="50" />
      <line x1="219" x2="207" y1="50" style="clip-path:url(#clipPath12); fill:none;" y2="44" />
      <line x1="219" x2="207" y1="50" style="clip-path:url(#clipPath12); fill:none;" y2="56" />
    </g>
    <g transform="translate(152,122)" style="font-size:11; stroke-linecap:butt; text-rendering:geometricPrecision; font-family:sans-serif; stroke-linejoin:round;">
      <line x1="219" x2="50" y1="50" style="clip-path:url(#clipPath12); fill:none;" y2="50" />
      <line x1="50" x2="62" y1="50" style="clip-path:url(#clipPath12); fill:none;" y2="56" />
      <line x1="50" x2="62" y1="50" style="clip-path:url(#clipPath12); fill:none;" y2="44" />
    </g>
    <g transform="translate(152,152)" style="font-size:11; stroke-linecap:butt; text-rendering:geometricPrecision; font-family:sans-serif; stroke-linejoin:round;">
      <line x1="50" x2="253" y1="50" style="clip-path:url(#clipPath13); fill:none;" y2="185" />
      <line x1="253" x2="246" y1="185" style="clip-path:url(#clipPath13); fill:none;" y2="173" />
      <line x1="253" x2="240" y1="185" style="clip-path:url(#clipPath13); fill:none;" y2="184" />
    </g>
    <g transform="translate(362,162)" style="font-size:11; stroke-linecap:butt; text-rendering:geometricPrecision; font-family:sans-serif; stroke-linejoin:round;">
      <line x1="50" x2="50" y1="50" style="clip-path:url(#clipPath14); fill:none;" y2="171" />
      <line x1="50" x2="56" y1="171" style="clip-path:url(#clipPath14); fill:none;" y2="159" />
      <line x1="50" x2="44" y1="171" style="clip-path:url(#clipPath14); fill:none;" y2="159" />
    </g>
    <g transform="translate(442,22)" style="font-size:11; stroke-linecap:butt; text-rendering:geometricPrecision; font-family:sans-serif; stroke-linejoin:round;">
      <line x1="50" x2="149" y1="50" style="clip-path:url(#clipPath15); fill:none;" y2="50" />
      <line x1="149" x2="137" y1="50" style="clip-path:url(#clipPath15); fill:none;" y2="44" />
      <line x1="149" x2="137" y1="50" style="clip-path:url(#clipPath15); fill:none;" y2="56" />
    </g>
    <g transform="translate(442,32)" style="font-size:11; stroke-linecap:butt; text-rendering:geometricPrecision; font-family:sans-serif; stroke-linejoin:round;">
      <line x1="149" x2="50" y1="50" style="clip-path:url(#clipPath15); fill:none;" y2="50" />
      <line x1="50" x2="62" y1="50" style="clip-path:url(#clipPath15); fill:none;" y2="56" />
      <line x1="50" x2="62" y1="50" style="clip-path:url(#clipPath15); fill:none;" y2="44" />
    </g>
    <g transform="translate(552,52)" style="font-size:11; stroke-linecap:butt; text-rendering:geometricPrecision; font-family:sans-serif; stroke-linejoin:round;">
      <line x1="50" x2="50" y1="111" style="clip-path:url(#clipPath11); fill:none;" y2="50" />
      <line x1="50" x2="44" y1="50" style="clip-path:url(#clipPath11); fill:none;" y2="62" />
      <line x1="50" x2="56" y1="50" style="clip-path:url(#clipPath11); fill:none;" y2="62" />
    </g>
    <g transform="translate(2,62)" style="font-size:11; stroke-linecap:butt; text-rendering:geometricPrecision; font-family:sans-serif; stroke-linejoin:round; stroke-dasharray:4;">
      <line x1="50" x2="120" y1="50" style="clip-path:url(#clipPath16); fill:none;" y2="100" />
    </g>
    <g transform="translate(302,7)" style="font-size:11; stroke-linecap:butt; text-rendering:geometricPrecision; font-family:sans-serif; stroke-linejoin:round; stroke-dasharray:4;">
      <line x1="50" x2="100" y1="50" style="clip-path:url(#clipPath17); fill:none;" y2="56" />
    </g>
    <g transform="translate(582,52)" style="font-size:11; stroke-linecap:butt; text-rendering:geometricPrecision; font-family:sans-serif; stroke-linejoin:round; stroke-dasharray:4;">
      <line x1="50" x2="50" y1="50" style="clip-path:url(#clipPath18); fill:none;" y2="200" />
    </g>
    <g style="text-rendering:geometricPrecision; font-size:11; font-family:sans-serif;" transform="translate(492,92)">
      <text x="10" y="12" style="clip-path:url(#clipPath19); stroke:none;" xml:space="preserve">setState(Pause)</text>
    </g>
    <g style="text-rendering:geometricPrecision; font-size:11; font-family:sans-serif;" transform="translate(492,52)">
      <text x="10" y="12" style="clip-path:url(#clipPath20); stroke:none;" xml:space="preserve">setState(Work)</text>
    </g>
    <g style="text-rendering:geometricPrecision; font-size:11; font-family:sans-serif;" transform="translate(412,261)">
      <text x="10" y="12" style="clip-path:url(#clipPath21); stroke:none;" xml:space="preserve">exit</text>
    </g>
    <g style="text-rendering:geometricPrecision; font-size:11; font-family:sans-serif;" transform="translate(271,277)">
      <text x="10" y="12" style="clip-path:url(#clipPath21); stroke:none;" xml:space="preserve">exit</text>
    </g>
    <g style="text-rendering:geometricPrecision; font-size:11; font-family:sans-serif;" transform="translate(212,152)">
      <text x="10" y="12" style="clip-path:url(#clipPath22); stroke:none;" xml:space="preserve">setState(Stop)</text>
    </g>
    <g style="text-rendering:geometricPrecision; font-size:11; font-family:sans-serif;" transform="translate(252,202)">
      <text x="10" y="12" style="clip-path:url(#clipPath23); stroke:none;" xml:space="preserve">setState(Run)</text>
    </g>
  </g>
</svg>
