<?xml version="1.0" encoding="UTF-8" standalone="no"?>
<svg
   xmlns:dc="http://purl.org/dc/elements/1.1/"
   xmlns:cc="http://creativecommons.org/ns#"
   xmlns:rdf="http://www.w3.org/1999/02/22-rdf-syntax-ns#"
   xmlns:svg="http://www.w3.org/2000/svg"
   xmlns="http://www.w3.org/2000/svg"
   xmlns:sodipodi="http://sodipodi.sourceforge.net/DTD/sodipodi-0.dtd"
   xmlns:inkscape="http://www.inkscape.org/namespaces/inkscape"
   fill-opacity="1"
   color-rendering="auto"
   color-interpolation="auto"
   stroke="black"
   text-rendering="auto"
   stroke-linecap="square"
   width="306"
   stroke-miterlimit="10"
   stroke-opacity="1"
   shape-rendering="auto"
   fill="black"
   stroke-dasharray="none"
   font-weight="normal"
   stroke-width="1"
   height="256"
   font-family="'Dialog'"
   font-style="normal"
   stroke-linejoin="miter"
   font-size="12"
   stroke-dashoffset="0"
   image-rendering="auto"
   id="svg2"
   version="1.1"
   inkscape:version="0.47 r22583"
   sodipodi:docname="uc-uj.svg">
  <metadata
     id="metadata164">
    <rdf:RDF>
      <cc:Work
         rdf:about="">
        <dc:format>image/svg+xml</dc:format>
        <dc:type
           rdf:resource="http://purl.org/dc/dcmitype/StillImage" />
      </cc:Work>
    </rdf:RDF>
  </metadata>
  <sodipodi:namedview
     pagecolor="#ffffff"
     bordercolor="#666666"
     borderopacity="1"
     objecttolerance="10"
     gridtolerance="10"
     guidetolerance="10"
     inkscape:pageopacity="0"
     inkscape:pageshadow="2"
     inkscape:window-width="1024"
     inkscape:window-height="694"
     id="namedview162"
     showgrid="false"
     inkscape:zoom="0.921875"
     inkscape:cx="153.28684"
     inkscape:cy="128.18971"
     inkscape:window-x="0"
     inkscape:window-y="25"
     inkscape:window-maximized="1"
     inkscape:current-layer="svg2" />
  <!--Generated by the Batik Graphics2D SVG Generator-->
  <defs
     id="genericDefs">
    <inkscape:perspective
       sodipodi:type="inkscape:persp3d"
       inkscape:vp_x="0 : 128 : 1"
       inkscape:vp_y="0 : 1000 : 0"
       inkscape:vp_z="306 : 128 : 1"
       inkscape:persp3d-origin="153 : 85.333333 : 1"
       id="perspective166" />
    <defs
       id="defs1">
      <clipPath
         id="clipPath1"
         clipPathUnits="userSpaceOnUse">
        <path
           id="path9"
           d="M-3 -3 L37 -3 L37 67 L-3 67 L-3 -3 Z" />
      </clipPath>
      <clipPath
         id="clipPath2"
         clipPathUnits="userSpaceOnUse">
        <path
           id="path12"
           d="M-3 -3 L107 -3 L107 47 L-3 47 L-3 -3 Z" />
      </clipPath>
      <clipPath
         id="clipPath3"
         clipPathUnits="userSpaceOnUse">
        <path
           id="path15"
           d="M-3 -3 L117 -3 L117 47 L-3 47 L-3 -3 Z" />
      </clipPath>
      <clipPath
         id="clipPath4"
         clipPathUnits="userSpaceOnUse">
        <path
           id="path18"
           d="M-3 -3 L127 -3 L127 47 L-3 47 L-3 -3 Z" />
      </clipPath>
      <clipPath
         id="clipPath5"
         clipPathUnits="userSpaceOnUse">
        <path
           id="path21"
           d="M-120 -40 L240 -40 L240 80 L-120 80 L-120 -40 Z" />
      </clipPath>
      <clipPath
         id="clipPath6"
         clipPathUnits="userSpaceOnUse">
        <path
           id="path24"
           d="M-110 -40 L220 -40 L220 80 L-110 80 L-110 -40 Z" />
      </clipPath>
      <clipPath
         id="clipPath7"
         clipPathUnits="userSpaceOnUse">
        <path
           id="path27"
           d="M-100 -40 L200 -40 L200 80 L-100 80 L-100 -40 Z" />
      </clipPath>
      <clipPath
         id="clipPath8"
         clipPathUnits="userSpaceOnUse">
        <path
           id="path30"
           d="M-85 -14 L170 -14 L170 28 L-85 28 L-85 -14 Z" />
      </clipPath>
      <clipPath
         id="clipPath9"
         clipPathUnits="userSpaceOnUse">
        <path
           id="path33"
           d="M0 0 L104 0 L104 164 L0 164 L0 0 Z" />
      </clipPath>
      <clipPath
         id="clipPath10"
         clipPathUnits="userSpaceOnUse">
        <path
           id="path36"
           d="M0 0 L184 0 L184 104 L0 104 L0 0 Z" />
      </clipPath>
      <clipPath
         id="clipPath11"
         clipPathUnits="userSpaceOnUse">
        <path
           id="path39"
           d="M0 0 L104 0 L104 153 L0 153 L0 0 Z" />
      </clipPath>
      <clipPath
         id="clipPath12"
         clipPathUnits="userSpaceOnUse">
        <path
           id="path42"
           d="M0 0 L234 0 L234 104 L0 104 L0 0 Z" />
      </clipPath>
      <clipPath
         id="clipPath13"
         clipPathUnits="userSpaceOnUse">
        <path
           id="path45"
           d="M0 0 L247 0 L247 161 L0 161 L0 0 Z" />
      </clipPath>
      <clipPath
         id="clipPath14"
         clipPathUnits="userSpaceOnUse">
        <path
           id="path48"
           d="M0 0 L104 0 L104 150 L0 150 L0 0 Z" />
      </clipPath>
      <clipPath
         id="clipPath15"
         clipPathUnits="userSpaceOnUse">
        <path
           id="path51"
           d="M0 0 L211 0 L211 158 L0 158 L0 0 Z" />
      </clipPath>
      <clipPath
         id="clipPath16"
         clipPathUnits="userSpaceOnUse">
        <path
           id="path54"
           d="M-81 -15 L162 -15 L162 30 L-81 30 L-81 -15 Z" />
      </clipPath>
    </defs>
  </defs>
  <g
     style="fill:#ffffff;stroke:#ffffff"
     id="g56"
     text-rendering="geometricPrecision">
    <rect
       style="stroke:none"
       id="rect58"
       y="0"
       height="256"
       width="306"
       x="0" />
  </g>
  <g
     style="font-size:11px;stroke-linecap:butt;stroke-linejoin:round;stroke-miterlimit:0;font-family:sans-serif"
     id="g60"
     stroke-miterlimit="0"
     text-rendering="geometricPrecision"
     transform="translate(32,92)"
     font-size="11">
    <circle
       style="fill:none"
       sodipodi:ry="7.5"
       sodipodi:rx="7.5"
       sodipodi:cy="7.5"
       sodipodi:cx="14.5"
       d="M 22,7.5 C 22,11.642136 18.642136,15 14.5,15 10.357864,15 7,11.642136 7,7.5 7,3.3578644 10.357864,0 14.5,0 18.642136,0 22,3.3578644 22,7.5 z"
       id="circle62"
       cy="7.5"
       cx="14.5"
       clip-path="url(#clipPath1)"
       r="7.5" />
    <line
       style="fill:none"
       id="line64"
       y1="15"
       x2="15"
       clip-path="url(#clipPath1)"
       x1="15"
       y2="40" />
    <line
       style="fill:none"
       id="line66"
       y1="24"
       x2="30"
       clip-path="url(#clipPath1)"
       x1="0"
       y2="24" />
    <line
       style="fill:none"
       id="line68"
       y1="40"
       x2="0"
       clip-path="url(#clipPath1)"
       x1="15"
       y2="60" />
    <line
       style="fill:none"
       id="line70"
       y1="40"
       x2="30"
       clip-path="url(#clipPath1)"
       x1="15"
       y2="60" />
  </g>
  <g
     style="font-size:11px;stroke-linecap:butt;stroke-linejoin:round;stroke-miterlimit:0;font-family:sans-serif"
     id="g72"
     stroke-miterlimit="0"
     text-rendering="geometricPrecision"
     transform="matrix(1.0539743,0,0,0.99934262,2.0131475,212.01315)"
     font-size="11">
    <ellipse
       style="fill:none"
       sodipodi:ry="20"
       sodipodi:rx="50"
       sodipodi:cy="20"
       sodipodi:cx="50"
       d="M 100,20 C 100,31.045695 77.614237,40 50,40 22.385763,40 0,31.045695 0,20 0,8.954305 22.385763,0 50,0 c 27.614237,0 50,8.954305 50,20 z"
       id="ellipse74"
       cy="20"
       cx="50"
       clip-path="url(#clipPath2)"
       ry="20"
       rx="50" />
  </g>
  <g
     style="font-size:11px;stroke-linecap:butt;stroke-linejoin:round;stroke-miterlimit:0;font-family:sans-serif"
     id="g76"
     stroke-miterlimit="0"
     text-rendering="geometricPrecision"
     transform="matrix(1.0196349,0,0,0.9997588,192.00482,2.004824)"
     font-size="11">
    <ellipse
       style="fill:none"
       sodipodi:ry="20"
       sodipodi:rx="55"
       sodipodi:cy="20"
       sodipodi:cx="55"
       d="M 110,20 C 110,31.045695 85.375661,40 55,40 24.624339,40 0,31.045695 0,20 0,8.954305 24.624339,0 55,0 c 30.375661,0 55,8.954305 55,20 z"
       id="ellipse78"
       cy="20"
       cx="55"
       clip-path="url(#clipPath3)"
       ry="20"
       rx="55" />
  </g>
  <g
     style="font-size:11px;stroke-linecap:butt;stroke-linejoin:round;stroke-miterlimit:0;font-family:sans-serif"
     id="g80"
     stroke-miterlimit="0"
     text-rendering="geometricPrecision"
     transform="matrix(1.0863622,0,0,0.99895642,192.02087,102.02087)"
     font-size="11">
    <ellipse
       style="fill:none"
       sodipodi:ry="20"
       sodipodi:rx="50"
       sodipodi:cy="20"
       sodipodi:cx="50"
       d="M 100,20 C 100,31.045695 77.614237,40 50,40 22.385763,40 0,31.045695 0,20 0,8.954305 22.385763,0 50,0 c 27.614237,0 50,8.954305 50,20 z"
       id="ellipse82"
       cy="20"
       cx="50"
       clip-path="url(#clipPath2)"
       ry="20"
       rx="50" />
  </g>
  <g
     style="font-size:11px;stroke-linecap:butt;stroke-linejoin:round;stroke-miterlimit:0;font-family:sans-serif"
     id="g84"
     stroke-miterlimit="0"
     text-rendering="geometricPrecision"
     transform="translate(2,2)"
     font-size="11">
    <ellipse
       style="fill:none"
       sodipodi:ry="20"
       sodipodi:rx="55"
       sodipodi:cy="20"
       sodipodi:cx="55"
       d="M 110,20 C 110,31.045695 85.375661,40 55,40 24.624339,40 0,31.045695 0,20 0,8.954305 24.624339,0 55,0 c 30.375661,0 55,8.954305 55,20 z"
       id="ellipse86"
       cy="20"
       cx="55"
       clip-path="url(#clipPath3)"
       ry="20"
       rx="55" />
  </g>
  <g
     style="font-size:11px;stroke-linecap:butt;stroke-linejoin:round;stroke-miterlimit:0;font-family:sans-serif"
     id="g88"
     stroke-miterlimit="0"
     text-rendering="geometricPrecision"
     transform="translate(182,212)"
     font-size="11">
    <ellipse
       style="fill:none"
       sodipodi:ry="20"
       sodipodi:rx="60"
       sodipodi:cy="20"
       sodipodi:cx="60"
       d="M 120,20 C 120,31.045695 93.137085,40 60,40 26.862915,40 0,31.045695 0,20 0,8.954305 26.862915,0 60,0 c 33.137085,0 60,8.954305 60,20 z"
       id="ellipse90"
       cy="20"
       cx="60"
       clip-path="url(#clipPath4)"
       ry="20"
       rx="60" />
  </g>
  <g
     style="font-size:11px;font-family:sans-serif"
     id="g92"
     transform="translate(180,212)"
     font-size="11"
     text-rendering="geometricPrecision">
    <text
       style="stroke:none"
       id="text94"
       clip-path="url(#clipPath5)"
       y="24"
       xml:space="preserve"
       x="9">Jelforrások mentése</text>
  </g>
  <g
     style="font-size:11px;font-family:sans-serif"
     id="g96"
     transform="translate(2,2)"
     font-size="11"
     text-rendering="geometricPrecision">
    <text
       style="stroke:none"
       id="text98"
       clip-path="url(#clipPath6)"
       y="17"
       xml:space="preserve"
       x="28">Jelforrások</text>
    <text
       style="stroke:none"
       id="text100"
       clip-path="url(#clipPath6)"
       y="32"
       xml:space="preserve"
       x="32">betöltése</text>
  </g>
  <g
     style="font-size:11px;font-family:sans-serif"
     id="g102"
     transform="translate(192,102)"
     font-size="11"
     text-rendering="geometricPrecision">
    <text
       style="stroke:none"
       id="text104"
       clip-path="url(#clipPath7)"
       y="24"
       xml:space="preserve"
       x="4">Áramkör választás</text>
  </g>
  <text
     x="8"
     xml:space="preserve"
     y="24"
     clip-path="url(#clipPath6)"
     id="text108"
     style="font-size:11px;stroke:none;font-family:sans-serif"
     transform="translate(188,2)">Szimuláció leállítás</text>
  <g
     style="font-size:11px;font-family:sans-serif"
     id="g110"
     transform="translate(0,212)"
     font-size="11"
     text-rendering="geometricPrecision">
    <text
       style="stroke:none"
       id="text112"
       clip-path="url(#clipPath7)"
       y="24"
       xml:space="preserve"
       x="5">Szimuláció indítás</text>
  </g>
  <g
     style="font-size:11px;font-family:sans-serif"
     id="g114"
     transform="translate(5,152)"
     font-size="11"
     text-rendering="geometricPrecision">
    <text
       style="stroke:none"
       id="text116"
       clip-path="url(#clipPath8)"
       y="12"
       xml:space="preserve"
       x="13">Felhasználó</text>
  </g>
  <g
     style="font-size:11px;stroke-linecap:butt;stroke-linejoin:round;stroke-dasharray:4;font-family:sans-serif"
     id="g118"
     text-rendering="geometricPrecision"
     transform="translate(192,-8)"
     font-size="11">
    <line
       style="fill:none"
       id="line120"
       y1="110"
       x2="50"
       clip-path="url(#clipPath9)"
       x1="50"
       y2="50" />
    <line
       style="fill:none;stroke-dasharray:none"
       id="line122"
       y2="62"
       y1="50"
       x2="44"
       x1="50"
       clip-path="url(#clipPath9)" />
    <line
       style="fill:none;stroke-dasharray:none"
       id="line124"
       y2="62"
       y1="50"
       x2="56"
       x1="50"
       clip-path="url(#clipPath9)" />
  </g>
  <g
     style="font-size:11px;stroke-linecap:butt;stroke-linejoin:round;stroke-dasharray:4;font-family:sans-serif"
     id="g126"
     text-rendering="geometricPrecision"
     transform="translate(62,-28)"
     font-size="11">
    <line
       style="fill:none"
       id="line128"
       y1="50"
       x2="130"
       clip-path="url(#clipPath10)"
       x1="50"
       y2="50" />
    <line
       style="fill:none;stroke-dasharray:none"
       id="line130"
       y2="44"
       y1="50"
       x2="118"
       x1="130"
       clip-path="url(#clipPath10)" />
    <line
       style="fill:none;stroke-dasharray:none"
       id="line132"
       y2="56"
       y1="50"
       x2="118"
       x1="130"
       clip-path="url(#clipPath10)" />
  </g>
  <g
     style="font-size:11px;stroke-linecap:butt;stroke-linejoin:round;font-family:sans-serif"
     id="g134"
     transform="translate(-8,-8)"
     font-size="11"
     text-rendering="geometricPrecision">
    <line
       style="fill:none"
       id="line136"
       y1="50"
       x2="50"
       clip-path="url(#clipPath11)"
       x1="50"
       y2="99" />
  </g>
  <g
     style="font-size:11px;stroke-linecap:butt;stroke-linejoin:round;font-family:sans-serif"
     id="g138"
     transform="translate(12,72)"
     font-size="11"
     text-rendering="geometricPrecision">
    <line
       style="fill:none"
       id="line140"
       y1="50"
       x2="180"
       clip-path="url(#clipPath12)"
       x1="50"
       y2="50" />
  </g>
  <g
     style="font-size:11px;stroke-linecap:butt;stroke-linejoin:round;font-family:sans-serif"
     id="g142"
     transform="translate(12,-14)"
     font-size="11"
     text-rendering="geometricPrecision">
    <line
       style="fill:none"
       id="line144"
       y1="107"
       x2="193"
       clip-path="url(#clipPath13)"
       x1="50"
       y2="50" />
  </g>
  <g
     style="font-size:11px;stroke-linecap:butt;stroke-linejoin:round;font-family:sans-serif"
     id="g146"
     transform="translate(-8,116)"
     font-size="11"
     text-rendering="geometricPrecision">
    <line
       style="fill:none"
       id="line148"
       y1="50"
       x2="50"
       clip-path="url(#clipPath14)"
       x1="50"
       y2="96" />
  </g>
  <g
     style="font-size:11px;stroke-linecap:butt;stroke-linejoin:round;font-family:sans-serif"
     id="g150"
     transform="translate(39,116)"
     font-size="11"
     text-rendering="geometricPrecision">
    <line
       style="fill:none"
       id="line152"
       y1="50"
       x2="157"
       clip-path="url(#clipPath15)"
       x1="50"
       y2="104" />
  </g>
  <g
     style="font-size:11px;font-family:sans-serif"
     id="g154"
     transform="translate(101,0)"
     font-size="11"
     text-rendering="geometricPrecision">
    <text
       style="stroke:none"
       id="text156"
       clip-path="url(#clipPath16)"
       y="12"
       xml:space="preserve"
       x="9">&lt;&lt;include&gt;&gt;</text>
  </g>
  <g
     style="font-size:11px;font-family:sans-serif"
     id="g158"
     transform="translate(203,58)"
     font-size="11"
     text-rendering="geometricPrecision">
    <text
       style="stroke:none"
       id="text160"
       clip-path="url(#clipPath16)"
       y="12"
       xml:space="preserve"
       x="9">&lt;&lt;include&gt;&gt;</text>
  </g>
</svg>
