<?xml version="1.0" encoding="UTF-8"?>

<!DOCTYPE svg PUBLIC '-//W3C//DTD SVG 1.0//EN' 'http://www.w3.org/TR/2001/REC-SVG-20010904/DTD/svg10.dtd'>
<svg style="fill-opacity:1; color-rendering:auto; color-interpolation:auto; stroke:black; text-rendering:auto; stroke-linecap:square; stroke-miterlimit:10; stroke-opacity:1; shape-rendering:auto; fill:black; stroke-dasharray:none; font-weight:normal; stroke-width:1; font-family:&apos;Dialog&apos;; font-style:normal; stroke-linejoin:miter; font-size:12; stroke-dashoffset:0; image-rendering:auto;" xmlns="http://www.w3.org/2000/svg" width="534" xmlns:xlink="http://www.w3.org/1999/xlink" height="298">
  <!--Generated by the Batik Graphics2D SVG Generator-->
  <defs id="genericDefs" />
  <g>
    <defs id="defs1">
      <clipPath clipPathUnits="userSpaceOnUse" id="clipPath1">
        <path d="M-3 -3 L27 -3 L27 27 L-3 27 L-3 -3 Z" />
      </clipPath>
      <clipPath clipPathUnits="userSpaceOnUse" id="clipPath2">
        <path d="M-3 -3 L67 -3 L67 257 L-3 257 L-3 -3 Z" />
      </clipPath>
      <clipPath clipPathUnits="userSpaceOnUse" id="clipPath3">
        <path d="M-3 -3 L15 -3 L15 186 L-3 186 L-3 -3 Z" />
      </clipPath>
      <clipPath clipPathUnits="userSpaceOnUse" id="clipPath4">
        <path d="M-3 -3 L137 -3 L137 257 L-3 257 L-3 -3 Z" />
      </clipPath>
      <clipPath clipPathUnits="userSpaceOnUse" id="clipPath5">
        <path d="M-3 -3 L287 -3 L287 127 L-3 127 L-3 -3 Z" />
      </clipPath>
      <clipPath clipPathUnits="userSpaceOnUse" id="clipPath6">
        <path d="M0 0 L27 0 L27 18 L0 18 L0 0 Z" />
      </clipPath>
      <clipPath clipPathUnits="userSpaceOnUse" id="clipPath7">
        <path d="M-3 -3 L15 -3 L15 19 L-3 19 L-3 -3 Z" />
      </clipPath>
      <clipPath clipPathUnits="userSpaceOnUse" id="clipPath8">
        <path d="M-3 -3 L287 -3 L287 109 L-3 109 L-3 -3 Z" />
      </clipPath>
      <clipPath clipPathUnits="userSpaceOnUse" id="clipPath9">
        <path d="M0 0 L240 0 L240 30 L0 30 L0 0 Z" />
      </clipPath>
      <clipPath clipPathUnits="userSpaceOnUse" id="clipPath10">
        <path d="M0 0 L0 4 L280 4 L280 0 Z" />
      </clipPath>
      <clipPath clipPathUnits="userSpaceOnUse" id="clipPath11">
        <path d="M-3 -3 L197 -3 L197 117 L-3 117 L-3 -3 Z" />
      </clipPath>
      <clipPath clipPathUnits="userSpaceOnUse" id="clipPath12">
        <path d="M0 0 L0 110 L190 110 L190 0 Z" />
      </clipPath>
      <clipPath clipPathUnits="userSpaceOnUse" id="clipPath13">
        <path d="M-130 -30 L260 -30 L260 60 L-130 60 L-130 -30 Z" />
      </clipPath>
      <clipPath clipPathUnits="userSpaceOnUse" id="clipPath14">
        <path d="M-60 -30 L120 -30 L120 60 L-60 60 L-60 -30 Z" />
      </clipPath>
      <clipPath clipPathUnits="userSpaceOnUse" id="clipPath15">
        <path d="M-59 -15 L118 -15 L118 30 L-59 30 L-59 -15 Z" />
      </clipPath>
      <clipPath clipPathUnits="userSpaceOnUse" id="clipPath16">
        <path d="M0 0 L320 0 L320 104 L0 104 L0 0 Z" />
      </clipPath>
      <clipPath clipPathUnits="userSpaceOnUse" id="clipPath17">
        <path d="M0 0 L130 0 L130 124 L0 124 L0 0 Z" />
      </clipPath>
      <clipPath clipPathUnits="userSpaceOnUse" id="clipPath18">
        <path d="M0 0 L271 0 L271 104 L0 104 L0 0 Z" />
      </clipPath>
      <clipPath clipPathUnits="userSpaceOnUse" id="clipPath19">
        <path d="M0 0 L123 0 L123 104 L0 104 L0 0 Z" />
      </clipPath>
      <clipPath clipPathUnits="userSpaceOnUse" id="clipPath20">
        <path d="M-112 -15 L224 -15 L224 30 L-112 30 L-112 -15 Z" />
      </clipPath>
      <clipPath clipPathUnits="userSpaceOnUse" id="clipPath21">
        <path d="M-128 -15 L256 -15 L256 30 L-128 30 L-128 -15 Z" />
      </clipPath>
      <clipPath clipPathUnits="userSpaceOnUse" id="clipPath22">
        <path d="M-232 -15 L464 -15 L464 30 L-232 30 L-232 -15 Z" />
      </clipPath>
    </defs>
    <g style="fill:white; text-rendering:geometricPrecision; stroke:white;">
      <rect x="0" y="0" width="534" style="stroke:none;" height="298" />
      <rect x="0" y="38" transform="translate(0,-38)" width="533" style="fill:none; stroke:black;" height="297" />
      <text x="7" y="55" transform="translate(0,-38)" style="fill:black; stroke:none; font-weight:bold;" xml:space="preserve">sd</text>
      <text x="28" y="55" transform="translate(0,-38)" style="fill:black; stroke:none;" xml:space="preserve">Flip-flopok órajel bemenetére jelgenerátor kötése</text>
      <line transform="translate(0,-38)" x1="0" x2="298" y1="62" style="fill:none; stroke:black;" y2="62" />
      <line transform="translate(0,-38)" x1="304" x2="304" y1="38" style="fill:none; stroke:black;" y2="52" />
      <line transform="translate(0,-38)" x1="304" x2="298" y1="52" style="fill:none; stroke:black;" y2="62" />
    </g>
    <g transform="translate(30,84)" style="font-size:11; fill:silver; text-rendering:geometricPrecision; font-family:sans-serif; stroke:silver;">
      <rect x="0" y="0" width="19" style="clip-path:url(#clipPath1); fill:none;" height="19" />
    </g>
    <g transform="translate(230,34)" style="font-size:11; fill:white; text-rendering:geometricPrecision; font-family:sans-serif; stroke:white;">
      <rect x="0" y="0" width="59" style="clip-path:url(#clipPath2); stroke:none;" height="35" />
    </g>
    <g transform="translate(230,34)" style="font-size:11; stroke-linecap:butt; text-rendering:geometricPrecision; font-family:sans-serif; stroke-linejoin:round; stroke-miterlimit:0;">
      <rect x="0" y="0" width="59" style="clip-path:url(#clipPath2); fill:none;" height="35" />
      <line x1="29" x2="29" y1="35" style="clip-path:url(#clipPath2); fill:none; stroke-linejoin:bevel; stroke-dasharray:8,3;" y2="250" />
    </g>
    <g transform="translate(256,84)" style="font-size:11; fill:white; text-rendering:geometricPrecision; font-family:sans-serif; stroke:white;">
      <rect x="0" y="0" width="8" style="clip-path:url(#clipPath3); stroke:none;" height="179" />
    </g>
    <g transform="translate(256,84)" style="font-size:11; stroke-linecap:butt; text-rendering:geometricPrecision; font-family:sans-serif; stroke-linejoin:round; stroke-miterlimit:0;">
      <rect x="0" y="0" width="8" style="clip-path:url(#clipPath3); fill:none;" height="179" />
    </g>
    <g transform="translate(370,34)" style="font-size:11; fill:white; text-rendering:geometricPrecision; font-family:sans-serif; stroke:white;">
      <rect x="0" y="0" width="129" style="clip-path:url(#clipPath4); stroke:none;" height="35" />
    </g>
    <g transform="translate(370,34)" style="font-size:11; stroke-linecap:butt; text-rendering:geometricPrecision; font-family:sans-serif; stroke-linejoin:round; stroke-miterlimit:0;">
      <rect x="0" y="0" width="129" style="clip-path:url(#clipPath4); fill:none;" height="35" />
      <line x1="64" x2="64" y1="35" style="clip-path:url(#clipPath4); fill:none; stroke-linejoin:bevel; stroke-dasharray:8,3;" y2="250" />
    </g>
    <g transform="translate(240,134)" style="font-size:11; stroke-linecap:butt; text-rendering:geometricPrecision; font-family:sans-serif; stroke-linejoin:round; font-weight:bold; stroke-miterlimit:0;">
      <rect x="0" y="0" width="280" style="clip-path:url(#clipPath5); fill:none;" height="120" />
    </g>
    <g transform="translate(240,134)" style="font-size:11; fill:white; text-rendering:geometricPrecision; font-family:sans-serif; stroke:white; font-weight:bold;">
      <path d="M26 0 L26 9 L20 17 L0 17 L0 0 Z" style="clip-path:url(#clipPath5); stroke:none;" />
    </g>
    <g transform="translate(240,134)" style="font-size:11; stroke-linecap:butt; text-rendering:geometricPrecision; font-family:sans-serif; stroke-linejoin:round; font-weight:bold; stroke-miterlimit:0;">
      <path d="M26 0 L26 9 L20 17 L0 17 L0 0 Z" style="fill:none; clip-path:url(#clipPath5);" />
    </g>
    <g transform="translate(240,134)" style="text-rendering:geometricPrecision; font-size:11; font-weight:bold; font-family:sans-serif;">
      <text x="4" y="12" style="clip-path:url(#clipPath6); stroke:none;" xml:space="preserve">opt</text>
    </g>
    <g transform="translate(431,224)" style="font-size:11; fill:white; text-rendering:geometricPrecision; font-family:sans-serif; stroke:white;">
      <rect x="0" y="0" width="8" style="clip-path:url(#clipPath7); stroke:none;" height="12" />
    </g>
    <g transform="translate(431,224)" style="font-size:11; stroke-linecap:butt; text-rendering:geometricPrecision; font-family:sans-serif; stroke-linejoin:round; stroke-miterlimit:0;">
      <rect x="0" y="0" width="8" style="clip-path:url(#clipPath7); fill:none;" height="12" />
    </g>
    <g transform="translate(240,152)" style="font-size:11; fill:white; text-rendering:geometricPrecision; font-family:sans-serif; stroke:white;">
      <rect x="28" y="5" width="240" style="clip-path:url(#clipPath8); stroke:none;" height="30" />
    </g>
    <g style="text-rendering:geometricPrecision; font-size:11; font-family:sans-serif;" transform="translate(268,157)">
      <text x="68" y="12" style="clip-path:url(#clipPath9); stroke:none;" xml:space="preserve">[(inputPin == CLK) &amp;&amp;</text>
      <text x="10" y="27" style="clip-path:url(#clipPath9); stroke:none;" xml:space="preserve">(component instanceof SequenceGenerator)]</text>
    </g>
    <g transform="translate(30,134)" style="font-size:11; fill:white; text-rendering:geometricPrecision; font-family:sans-serif; stroke:white;">
      <polygon style="clip-path:url(#clipPath11); stroke:none;" points=" 0 0 174 0 189 15 174 15 174 0 189 15 189 109 0 109" />
    </g>
    <g transform="translate(30,134)" style="font-size:11; stroke-linecap:butt; text-rendering:geometricPrecision; font-family:sans-serif; stroke-linejoin:round; stroke-miterlimit:0;">
      <polygon style="fill:none; clip-path:url(#clipPath11);" points=" 0 0 174 0 189 15 174 15 174 0 189 15 189 109 0 109" />
    </g>
    <g style="text-rendering:geometricPrecision; font-size:11; font-family:&apos;Tahoma&apos;;" transform="translate(30,134)">
      <path d="M3.9688 14.9704 L3.9688 6.3767 L5.0938 6.3767 L5.0938 9.9079 L9.5625 9.9079 L9.5625 6.3767 L10.7031 6.3767 L10.7031 14.9704 L9.5625 14.9704 L9.5625 10.9236 L5.0938 10.9236 L5.0938 14.9704 L3.9688 14.9704 ZM16.8594 14.2048 Q16.2656 14.7048 15.7266 14.9079 Q15.1875 15.1111 14.5625 15.1111 Q13.5312 15.1111 12.9844 14.6111 Q12.4375 14.1111 12.4375 13.3298 Q12.4375 12.8767 12.6406 12.4939 Q12.8438 12.1111 13.1875 11.8845 Q13.5312 11.6579 13.9531 11.5486 Q14.25 11.4548 14.8906 11.3767 Q16.1562 11.2361 16.7656 11.0173 Q16.7656 10.7986 16.7656 10.7517 Q16.7656 10.0954 16.4688 9.8298 Q16.0625 9.4861 15.2656 9.4861 Q14.5312 9.4861 14.1719 9.7439 Q13.8125 10.0017 13.6406 10.6579 L12.6094 10.5173 Q12.75 9.8611 13.0781 9.4548 Q13.4062 9.0486 14.0156 8.8298 Q14.625 8.6111 15.4219 8.6111 Q16.2188 8.6111 16.7188 8.7986 Q17.2188 8.9861 17.4531 9.2673 Q17.6875 9.5486 17.7812 9.9861 Q17.8281 10.2517 17.8281 10.9548 L17.8281 12.3611 Q17.8281 13.8298 17.8984 14.2204 Q17.9688 14.6111 18.1719 14.9704 L17.0625 14.9704 Q16.9062 14.6423 16.8594 14.2048 ZM16.7656 11.8454 Q16.1875 12.0798 15.0469 12.2517 Q14.3906 12.3454 14.125 12.4626 Q13.8594 12.5798 13.7109 12.7986 Q13.5625 13.0173 13.5625 13.2986 Q13.5625 13.7204 13.8828 14.0017 Q14.2031 14.2829 14.8125 14.2829 Q15.4219 14.2829 15.8984 14.0173 Q16.375 13.7517 16.5938 13.2829 Q16.7656 12.9236 16.7656 12.2361 L16.7656 11.8454 ZM26.8594 14.2048 Q26.2656 14.7048 25.7266 14.9079 Q25.1875 15.1111 24.5625 15.1111 Q23.5312 15.1111 22.9844 14.6111 Q22.4375 14.1111 22.4375 13.3298 Q22.4375 12.8767 22.6406 12.4939 Q22.8438 12.1111 23.1875 11.8845 Q23.5312 11.6579 23.9531 11.5486 Q24.25 11.4548 24.8906 11.3767 Q26.1562 11.2361 26.7656 11.0173 Q26.7656 10.7986 26.7656 10.7517 Q26.7656 10.0954 26.4688 9.8298 Q26.0625 9.4861 25.2656 9.4861 Q24.5312 9.4861 24.1719 9.7439 Q23.8125 10.0017 23.6406 10.6579 L22.6094 10.5173 Q22.75 9.8611 23.0781 9.4548 Q23.4062 9.0486 24.0156 8.8298 Q24.625 8.6111 25.4219 8.6111 Q26.2188 8.6111 26.7188 8.7986 Q27.2188 8.9861 27.4531 9.2673 Q27.6875 9.5486 27.7812 9.9861 Q27.8281 10.2517 27.8281 10.9548 L27.8281 12.3611 Q27.8281 13.8298 27.8984 14.2204 Q27.9688 14.6111 28.1719 14.9704 L27.0625 14.9704 Q26.9062 14.6423 26.8594 14.2048 ZM26.7656 11.8454 Q26.1875 12.0798 25.0469 12.2517 Q24.3906 12.3454 24.125 12.4626 Q23.8594 12.5798 23.7109 12.7986 Q23.5625 13.0173 23.5625 13.2986 Q23.5625 13.7204 23.8828 14.0017 Q24.2031 14.2829 24.8125 14.2829 Q25.4219 14.2829 25.8984 14.0173 Q26.375 13.7517 26.5938 13.2829 Q26.7656 12.9236 26.7656 12.2361 L26.7656 11.8454 ZM29.2344 14.9704 L29.2344 14.1111 L33.2031 9.5642 Q32.5156 9.5954 32 9.5954 L29.4688 9.5954 L29.4688 8.7517 L34.5625 8.7517 L34.5625 9.4392 L31.1875 13.3923 L30.5312 14.1111 Q31.25 14.0642 31.8594 14.0642 L34.75 14.0642 L34.75 14.9704 L29.2344 14.9704 ZM37.9844 14.9704 L37.9844 6.3767 L43.7812 6.3767 L43.7812 7.3923 L39.125 7.3923 L39.125 10.0486 L43.1562 10.0486 L43.1562 11.0642 L39.125 11.0642 L39.125 14.9704 L37.9844 14.9704 ZM44.9844 14.9704 L44.9844 6.3767 L50.7812 6.3767 L50.7812 7.3923 L46.125 7.3923 L46.125 10.0486 L50.1562 10.0486 L50.1562 11.0642 L46.125 11.0642 L46.125 14.9704 L44.9844 14.9704 ZM61.0625 11.9548 L62.1875 12.2517 Q61.8281 13.6423 60.9062 14.3767 Q59.9844 15.1111 58.6406 15.1111 Q57.25 15.1111 56.375 14.5486 Q55.5 13.9861 55.0469 12.9157 Q54.5938 11.8454 54.5938 10.6111 Q54.5938 9.2673 55.1094 8.2673 Q55.625 7.2673 56.5703 6.7517 Q57.5156 6.2361 58.6562 6.2361 Q59.9375 6.2361 60.8203 6.8923 Q61.7031 7.5486 62.0469 8.7361 L60.9219 9.0017 Q60.625 8.0642 60.0547 7.6345 Q59.4844 7.2048 58.625 7.2048 Q57.6406 7.2048 56.9766 7.6814 Q56.3125 8.1579 56.0391 8.9548 Q55.7656 9.7517 55.7656 10.6111 Q55.7656 11.7048 56.0859 12.5173 Q56.4062 13.3298 57.0781 13.7361 Q57.75 14.1423 58.5469 14.1423 Q59.5 14.1423 60.1641 13.5954 Q60.8281 13.0486 61.0625 11.9548 ZM63.875 14.9704 L63.875 6.3767 L65.0156 6.3767 L65.0156 13.9548 L69.25 13.9548 L69.25 14.9704 L63.875 14.9704 ZM70.875 14.9704 L70.875 6.3767 L72.0156 6.3767 L72.0156 10.6423 L76.2812 6.3767 L77.8281 6.3767 L74.2188 9.8611 L77.9844 14.9704 L76.4844 14.9704 L73.4219 10.6267 L72.0156 11.9861 L72.0156 14.9704 L70.875 14.9704 ZM82.7656 14.9704 L81.7812 14.9704 L81.7812 6.3767 L82.8438 6.3767 L82.8438 9.4392 Q83.5156 8.6111 84.5469 8.6111 Q85.125 8.6111 85.6328 8.8376 Q86.1406 9.0642 86.4766 9.4861 Q86.8125 9.9079 87 10.5017 Q87.1875 11.0954 87.1875 11.7673 Q87.1875 13.3611 86.3906 14.2361 Q85.5938 15.1111 84.5 15.1111 Q83.3906 15.1111 82.7656 14.1892 L82.7656 14.9704 ZM82.75 11.8142 Q82.75 12.9236 83.0625 13.4236 Q83.5625 14.2361 84.4062 14.2361 Q85.0938 14.2361 85.6016 13.6423 Q86.1094 13.0486 86.1094 11.8454 Q86.1094 10.6267 85.625 10.0486 Q85.1406 9.4704 84.4531 9.4704 Q83.7656 9.4704 83.2578 10.072 Q82.75 10.6736 82.75 11.8142 ZM93.0469 12.9704 L94.1406 13.0954 Q93.8906 14.0486 93.1875 14.5798 Q92.4844 15.1111 91.4062 15.1111 Q90.0469 15.1111 89.2422 14.2673 Q88.4375 13.4236 88.4375 11.9079 Q88.4375 10.3454 89.25 9.4782 Q90.0625 8.6111 91.3438 8.6111 Q92.5938 8.6111 93.3828 9.4548 Q94.1719 10.2986 94.1719 11.8454 Q94.1719 11.9392 94.1719 12.1267 L89.5312 12.1267 Q89.5938 13.1579 90.1094 13.697 Q90.625 14.2361 91.4062 14.2361 Q91.9844 14.2361 92.3984 13.9314 Q92.8125 13.6267 93.0469 12.9704 ZM89.5938 11.2673 L93.0625 11.2673 Q93 10.4704 92.6719 10.0798 Q92.1562 9.4704 91.3594 9.4704 Q90.625 9.4704 90.1328 9.9548 Q89.6406 10.4392 89.5938 11.2673 ZM95.7969 14.9704 L95.7969 8.7517 L96.7344 8.7517 L96.7344 9.6267 Q97.0312 9.1579 97.5156 8.8845 Q98 8.6111 98.625 8.6111 Q99.3125 8.6111 99.7578 8.8923 Q100.2031 9.1736 100.375 9.6892 Q101.125 8.6111 102.2969 8.6111 Q103.2344 8.6111 103.7266 9.1189 Q104.2188 9.6267 104.2188 10.7048 L104.2188 14.9704 L103.1719 14.9704 L103.1719 11.0486 Q103.1719 10.4236 103.0703 10.1423 Q102.9688 9.8611 102.7031 9.6892 Q102.4375 9.5173 102.0625 9.5173 Q101.4062 9.5173 100.9766 9.9548 Q100.5469 10.3923 100.5469 11.3611 L100.5469 14.9704 L99.4844 14.9704 L99.4844 10.9236 Q99.4844 10.2204 99.2266 9.8689 Q98.9688 9.5173 98.3906 9.5173 Q97.9375 9.5173 97.5625 9.7517 Q97.1875 9.9861 97.0156 10.4392 Q96.8438 10.8923 96.8438 11.7361 L96.8438 14.9704 L95.7969 14.9704 ZM111.0469 12.9704 L112.1406 13.0954 Q111.8906 14.0486 111.1875 14.5798 Q110.4844 15.1111 109.4062 15.1111 Q108.0469 15.1111 107.2422 14.2673 Q106.4375 13.4236 106.4375 11.9079 Q106.4375 10.3454 107.25 9.4782 Q108.0625 8.6111 109.3438 8.6111 Q110.5938 8.6111 111.3828 9.4548 Q112.1719 10.2986 112.1719 11.8454 Q112.1719 11.9392 112.1719 12.1267 L107.5312 12.1267 Q107.5938 13.1579 108.1094 13.697 Q108.625 14.2361 109.4062 14.2361 Q109.9844 14.2361 110.3984 13.9314 Q110.8125 13.6267 111.0469 12.9704 ZM107.5938 11.2673 L111.0625 11.2673 Q111 10.4704 110.6719 10.0798 Q110.1562 9.4704 109.3594 9.4704 Q108.625 9.4704 108.1328 9.9548 Q107.6406 10.4392 107.5938 11.2673 ZM113.7969 14.9704 L113.7969 8.7517 L114.7344 8.7517 L114.7344 9.6267 Q115.4219 8.6111 116.7188 8.6111 Q117.2812 8.6111 117.7578 8.8142 Q118.2344 9.0173 118.4688 9.3454 Q118.7031 9.6736 118.7969 10.1111 Q118.8438 10.4079 118.8438 11.1423 L118.8438 14.9704 L117.7969 14.9704 L117.7969 11.1892 Q117.7969 10.5329 117.6719 10.2204 Q117.5469 9.9079 117.2344 9.7126 Q116.9219 9.5173 116.5 9.5173 Q115.8281 9.5173 115.3359 9.947 Q114.8438 10.3767 114.8438 11.5642 L114.8438 14.9704 L113.7969 14.9704 ZM125.0469 12.9704 L126.1406 13.0954 Q125.8906 14.0486 125.1875 14.5798 Q124.4844 15.1111 123.4062 15.1111 Q122.0469 15.1111 121.2422 14.2673 Q120.4375 13.4236 120.4375 11.9079 Q120.4375 10.3454 121.25 9.4782 Q122.0625 8.6111 123.3438 8.6111 Q124.5938 8.6111 125.3828 9.4548 Q126.1719 10.2986 126.1719 11.8454 Q126.1719 11.9392 126.1719 12.1267 L121.5312 12.1267 Q121.5938 13.1579 122.1094 13.697 Q122.625 14.2361 123.4062 14.2361 Q123.9844 14.2361 124.3984 13.9314 Q124.8125 13.6267 125.0469 12.9704 ZM121.5938 11.2673 L125.0625 11.2673 Q125 10.4704 124.6719 10.0798 Q124.1562 9.4704 123.3594 9.4704 Q122.625 9.4704 122.1328 9.9548 Q121.6406 10.4392 121.5938 11.2673 ZM130.0938 14.0329 L130.25 14.9548 Q129.7969 15.0486 129.4531 15.0486 Q128.875 15.0486 128.5625 14.8689 Q128.25 14.6892 128.1172 14.3923 Q127.9844 14.0954 127.9844 13.1423 L127.9844 9.5642 L127.2188 9.5642 L127.2188 8.7517 L127.9844 8.7517 L127.9844 7.2048 L129.0312 6.5798 L129.0312 8.7517 L130.0938 8.7517 L130.0938 9.5642 L129.0312 9.5642 L129.0312 13.2048 Q129.0312 13.6579 129.0859 13.7829 Q129.1406 13.9079 129.2656 13.9861 Q129.3906 14.0642 129.625 14.0642 Q129.8125 14.0642 130.0938 14.0329 ZM135.0469 12.9704 L136.1406 13.0954 Q135.8906 14.0486 135.1875 14.5798 Q134.4844 15.1111 133.4062 15.1111 Q132.0469 15.1111 131.2422 14.2673 Q130.4375 13.4236 130.4375 11.9079 Q130.4375 10.3454 131.25 9.4782 Q132.0625 8.6111 133.3438 8.6111 Q134.5938 8.6111 135.3828 9.4548 Q136.1719 10.2986 136.1719 11.8454 Q136.1719 11.9392 136.1719 12.1267 L131.5312 12.1267 Q131.5938 13.1579 132.1094 13.697 Q132.625 14.2361 133.4062 14.2361 Q133.9844 14.2361 134.3984 13.9314 Q134.8125 13.6267 135.0469 12.9704 ZM131.5938 11.2673 L135.0625 11.2673 Q135 10.4704 134.6719 10.0798 Q134.1562 9.4704 133.3594 9.4704 Q132.625 9.4704 132.1328 9.9548 Q131.6406 10.4392 131.5938 11.2673 ZM132.125 6.9704 L132.9062 5.3298 L134.2969 5.3298 L133 6.9704 L132.125 6.9704 ZM137.7812 14.9704 L137.7812 8.7517 L138.7344 8.7517 L138.7344 9.6892 Q139.0938 9.0329 139.3984 8.822 Q139.7031 8.6111 140.0781 8.6111 Q140.6094 8.6111 141.1562 8.9392 L140.7969 9.9236 Q140.4062 9.6892 140.0312 9.6892 Q139.6719 9.6892 139.3984 9.9001 Q139.125 10.1111 139.0156 10.4861 Q138.8281 11.0486 138.8281 11.7048 L138.8281 14.9704 L137.7812 14.9704 ZM146.0469 12.9704 L147.1406 13.0954 Q146.8906 14.0486 146.1875 14.5798 Q145.4844 15.1111 144.4062 15.1111 Q143.0469 15.1111 142.2422 14.2673 Q141.4375 13.4236 141.4375 11.9079 Q141.4375 10.3454 142.25 9.4782 Q143.0625 8.6111 144.3438 8.6111 Q145.5938 8.6111 146.3828 9.4548 Q147.1719 10.2986 147.1719 11.8454 Q147.1719 11.9392 147.1719 12.1267 L142.5312 12.1267 Q142.5938 13.1579 143.1094 13.697 Q143.625 14.2361 144.4062 14.2361 Q144.9844 14.2361 145.3984 13.9314 Q145.8125 13.6267 146.0469 12.9704 ZM142.5938 11.2673 L146.0625 11.2673 Q146 10.4704 145.6719 10.0798 Q145.1562 9.4704 144.3594 9.4704 Q143.625 9.4704 143.1328 9.9548 Q142.6406 10.4392 142.5938 11.2673 Z" style="clip-path:url(#clipPath12); stroke:none;" />
      <path d="M3.5469 26.2048 L4.6094 26.1111 Q4.6875 26.7673 4.9688 27.1736 Q5.25 27.5798 5.8359 27.8376 Q6.4219 28.0954 7.1562 28.0954 Q7.7969 28.0954 8.2969 27.9001 Q8.7969 27.7048 9.0391 27.3689 Q9.2812 27.0329 9.2812 26.6423 Q9.2812 26.2361 9.0469 25.9314 Q8.8125 25.6267 8.2812 25.4236 Q7.9219 25.2829 6.7422 25.0017 Q5.5625 24.7204 5.0938 24.4704 Q4.4688 24.1423 4.1719 23.6657 Q3.875 23.1892 3.875 22.5954 Q3.875 21.9548 4.2422 21.3845 Q4.6094 20.8142 5.3203 20.5251 Q6.0312 20.2361 6.8906 20.2361 Q7.8438 20.2361 8.5781 20.5407 Q9.3125 20.8454 9.7031 21.447 Q10.0938 22.0486 10.125 22.7986 L9.0312 22.8767 Q8.9375 22.0642 8.4297 21.6501 Q7.9219 21.2361 6.9375 21.2361 Q5.9062 21.2361 5.4375 21.6111 Q4.9688 21.9861 4.9688 22.5173 Q4.9688 22.9861 5.2969 23.2829 Q5.625 23.5798 7.0078 23.8923 Q8.3906 24.2048 8.9062 24.4392 Q9.6562 24.7986 10.0156 25.322 Q10.375 25.8454 10.375 26.5486 Q10.375 27.2361 9.9844 27.8376 Q9.5938 28.4392 8.8594 28.7751 Q8.125 29.1111 7.2031 29.1111 Q6.0312 29.1111 5.2422 28.7751 Q4.4531 28.4392 4.0078 27.7517 Q3.5625 27.0642 3.5469 26.2048 ZM16.0469 26.9704 L17.1406 27.0954 Q16.8906 28.0486 16.1875 28.5798 Q15.4844 29.1111 14.4062 29.1111 Q13.0469 29.1111 12.2422 28.2673 Q11.4375 27.4236 11.4375 25.9079 Q11.4375 24.3454 12.25 23.4782 Q13.0625 22.6111 14.3438 22.6111 Q15.5938 22.6111 16.3828 23.4548 Q17.1719 24.2986 17.1719 25.8454 Q17.1719 25.9392 17.1719 26.1267 L12.5312 26.1267 Q12.5938 27.1579 13.1094 27.697 Q13.625 28.2361 14.4062 28.2361 Q14.9844 28.2361 15.3984 27.9314 Q15.8125 27.6267 16.0469 26.9704 ZM12.5938 25.2673 L16.0625 25.2673 Q16 24.4704 15.6719 24.0798 Q15.1562 23.4704 14.3594 23.4704 Q13.625 23.4704 13.1328 23.9548 Q12.6406 24.4392 12.5938 25.2673 ZM22.7656 31.3611 L22.7656 28.3142 Q22.5156 28.6579 22.0703 28.8845 Q21.625 29.1111 21.125 29.1111 Q20.0156 29.1111 19.2188 28.2282 Q18.4219 27.3454 18.4219 25.7986 Q18.4219 24.8611 18.75 24.1189 Q19.0781 23.3767 19.6953 22.9939 Q20.3125 22.6111 21.0469 22.6111 Q22.2031 22.6111 22.8594 23.5798 L22.8594 22.7517 L23.8125 22.7517 L23.8125 31.3611 L22.7656 31.3611 ZM19.5 25.8454 Q19.5 27.0486 20.0078 27.6423 Q20.5156 28.2361 21.2188 28.2361 Q21.8906 28.2361 22.375 27.6657 Q22.8594 27.0954 22.8594 25.9392 Q22.8594 24.6892 22.3516 24.0642 Q21.8438 23.4392 21.1406 23.4392 Q20.4688 23.4392 19.9844 24.0251 Q19.5 24.6111 19.5 25.8454 ZM29.875 28.9704 L29.875 28.0486 Q29.1406 29.1111 27.8906 29.1111 Q27.3438 29.1111 26.8672 28.9001 Q26.3906 28.6892 26.1562 28.3689 Q25.9219 28.0486 25.8281 27.5798 Q25.7656 27.2829 25.7656 26.5954 L25.7656 22.7517 L26.8281 22.7517 L26.8281 26.2048 Q26.8281 27.0173 26.8906 27.3142 Q26.9844 27.7204 27.3047 27.9626 Q27.625 28.2048 28.1094 28.2048 Q28.5781 28.2048 28.9922 27.9626 Q29.4062 27.7204 29.5859 27.2986 Q29.7656 26.8767 29.7656 26.0798 L29.7656 22.7517 L30.8125 22.7517 L30.8125 28.9704 L29.875 28.9704 ZM37.0469 26.9704 L38.1406 27.0954 Q37.8906 28.0486 37.1875 28.5798 Q36.4844 29.1111 35.4062 29.1111 Q34.0469 29.1111 33.2422 28.2673 Q32.4375 27.4236 32.4375 25.9079 Q32.4375 24.3454 33.25 23.4782 Q34.0625 22.6111 35.3438 22.6111 Q36.5938 22.6111 37.3828 23.4548 Q38.1719 24.2986 38.1719 25.8454 Q38.1719 25.9392 38.1719 26.1267 L33.5312 26.1267 Q33.5938 27.1579 34.1094 27.697 Q34.625 28.2361 35.4062 28.2361 Q35.9844 28.2361 36.3984 27.9314 Q36.8125 27.6267 37.0469 26.9704 ZM33.5938 25.2673 L37.0625 25.2673 Q37 24.4704 36.6719 24.0798 Q36.1562 23.4704 35.3594 23.4704 Q34.625 23.4704 34.1328 23.9548 Q33.6406 24.4392 33.5938 25.2673 ZM39.7969 28.9704 L39.7969 22.7517 L40.7344 22.7517 L40.7344 23.6267 Q41.4219 22.6111 42.7188 22.6111 Q43.2812 22.6111 43.7578 22.8142 Q44.2344 23.0173 44.4688 23.3454 Q44.7031 23.6736 44.7969 24.1111 Q44.8438 24.4079 44.8438 25.1423 L44.8438 28.9704 L43.7969 28.9704 L43.7969 25.1892 Q43.7969 24.5329 43.6719 24.2204 Q43.5469 23.9079 43.2344 23.7126 Q42.9219 23.5173 42.5 23.5173 Q41.8281 23.5173 41.3359 23.947 Q40.8438 24.3767 40.8438 25.5642 L40.8438 28.9704 L39.7969 28.9704 ZM50.8594 26.6892 L51.8906 26.8298 Q51.7188 27.8923 51.0156 28.5017 Q50.3125 29.1111 49.2969 29.1111 Q48.0156 29.1111 47.2422 28.2751 Q46.4688 27.4392 46.4688 25.8767 Q46.4688 24.8767 46.8047 24.1189 Q47.1406 23.3611 47.8203 22.9861 Q48.5 22.6111 49.3125 22.6111 Q50.3125 22.6111 50.9609 23.1189 Q51.6094 23.6267 51.7969 24.5798 L50.7656 24.7361 Q50.625 24.1111 50.25 23.7907 Q49.875 23.4704 49.3438 23.4704 Q48.5469 23.4704 48.0469 24.0407 Q47.5469 24.6111 47.5469 25.8454 Q47.5469 27.1111 48.0312 27.6736 Q48.5156 28.2361 49.2812 28.2361 Q49.9062 28.2361 50.3203 27.8611 Q50.7344 27.4861 50.8594 26.6892 ZM57.0469 26.9704 L58.1406 27.0954 Q57.8906 28.0486 57.1875 28.5798 Q56.4844 29.1111 55.4062 29.1111 Q54.0469 29.1111 53.2422 28.2673 Q52.4375 27.4236 52.4375 25.9079 Q52.4375 24.3454 53.25 23.4782 Q54.0625 22.6111 55.3438 22.6111 Q56.5938 22.6111 57.3828 23.4548 Q58.1719 24.2986 58.1719 25.8454 Q58.1719 25.9392 58.1719 26.1267 L53.5312 26.1267 Q53.5938 27.1579 54.1094 27.697 Q54.625 28.2361 55.4062 28.2361 Q55.9844 28.2361 56.3984 27.9314 Q56.8125 27.6267 57.0469 26.9704 ZM53.5938 25.2673 L57.0625 25.2673 Q57 24.4704 56.6719 24.0798 Q56.1562 23.4704 55.3594 23.4704 Q54.625 23.4704 54.1328 23.9548 Q53.6406 24.4392 53.5938 25.2673 ZM63.9531 25.5954 L63.9531 24.5954 L67.5781 24.5798 L67.5781 27.7673 Q66.75 28.4392 65.8594 28.7751 Q64.9688 29.1111 64.0312 29.1111 Q62.7656 29.1111 61.7266 28.572 Q60.6875 28.0329 60.1641 27.0095 Q59.6406 25.9861 59.6406 24.7204 Q59.6406 23.4548 60.1641 22.3689 Q60.6875 21.2829 61.6719 20.7595 Q62.6562 20.2361 63.9375 20.2361 Q64.875 20.2361 65.625 20.5329 Q66.375 20.8298 66.8047 21.3689 Q67.2344 21.9079 67.4531 22.7829 L66.4375 23.0642 Q66.2344 22.4079 65.9453 22.0329 Q65.6562 21.6579 65.125 21.4314 Q64.5938 21.2048 63.9531 21.2048 Q63.1719 21.2048 62.6016 21.4392 Q62.0312 21.6736 61.6797 22.0642 Q61.3281 22.4548 61.1406 22.9236 Q60.8125 23.7204 60.8125 24.6423 Q60.8125 25.7986 61.2109 26.572 Q61.6094 27.3454 62.3594 27.7204 Q63.1094 28.0954 63.9688 28.0954 Q64.7031 28.0954 65.4062 27.8064 Q66.1094 27.5173 66.4688 27.2048 L66.4688 25.5954 L63.9531 25.5954 ZM73.0469 26.9704 L74.1406 27.0954 Q73.8906 28.0486 73.1875 28.5798 Q72.4844 29.1111 71.4062 29.1111 Q70.0469 29.1111 69.2422 28.2673 Q68.4375 27.4236 68.4375 25.9079 Q68.4375 24.3454 69.25 23.4782 Q70.0625 22.6111 71.3438 22.6111 Q72.5938 22.6111 73.3828 23.4548 Q74.1719 24.2986 74.1719 25.8454 Q74.1719 25.9392 74.1719 26.1267 L69.5312 26.1267 Q69.5938 27.1579 70.1094 27.697 Q70.625 28.2361 71.4062 28.2361 Q71.9844 28.2361 72.3984 27.9314 Q72.8125 27.6267 73.0469 26.9704 ZM69.5938 25.2673 L73.0625 25.2673 Q73 24.4704 72.6719 24.0798 Q72.1562 23.4704 71.3594 23.4704 Q70.625 23.4704 70.1328 23.9548 Q69.6406 24.4392 69.5938 25.2673 ZM75.7969 28.9704 L75.7969 22.7517 L76.7344 22.7517 L76.7344 23.6267 Q77.4219 22.6111 78.7188 22.6111 Q79.2812 22.6111 79.7578 22.8142 Q80.2344 23.0173 80.4688 23.3454 Q80.7031 23.6736 80.7969 24.1111 Q80.8438 24.4079 80.8438 25.1423 L80.8438 28.9704 L79.7969 28.9704 L79.7969 25.1892 Q79.7969 24.5329 79.6719 24.2204 Q79.5469 23.9079 79.2344 23.7126 Q78.9219 23.5173 78.5 23.5173 Q77.8281 23.5173 77.3359 23.947 Q76.8438 24.3767 76.8438 25.5642 L76.8438 28.9704 L75.7969 28.9704 ZM87.0469 26.9704 L88.1406 27.0954 Q87.8906 28.0486 87.1875 28.5798 Q86.4844 29.1111 85.4062 29.1111 Q84.0469 29.1111 83.2422 28.2673 Q82.4375 27.4236 82.4375 25.9079 Q82.4375 24.3454 83.25 23.4782 Q84.0625 22.6111 85.3438 22.6111 Q86.5938 22.6111 87.3828 23.4548 Q88.1719 24.2986 88.1719 25.8454 Q88.1719 25.9392 88.1719 26.1267 L83.5312 26.1267 Q83.5938 27.1579 84.1094 27.697 Q84.625 28.2361 85.4062 28.2361 Q85.9844 28.2361 86.3984 27.9314 Q86.8125 27.6267 87.0469 26.9704 ZM83.5938 25.2673 L87.0625 25.2673 Q87 24.4704 86.6719 24.0798 Q86.1562 23.4704 85.3594 23.4704 Q84.625 23.4704 84.1328 23.9548 Q83.6406 24.4392 83.5938 25.2673 ZM89.7812 28.9704 L89.7812 22.7517 L90.7344 22.7517 L90.7344 23.6892 Q91.0938 23.0329 91.3984 22.822 Q91.7031 22.6111 92.0781 22.6111 Q92.6094 22.6111 93.1562 22.9392 L92.7969 23.9236 Q92.4062 23.6892 92.0312 23.6892 Q91.6719 23.6892 91.3984 23.9001 Q91.125 24.1111 91.0156 24.4861 Q90.8281 25.0486 90.8281 25.7048 L90.8281 28.9704 L89.7812 28.9704 ZM97.8594 28.2048 Q97.2656 28.7048 96.7266 28.9079 Q96.1875 29.1111 95.5625 29.1111 Q94.5312 29.1111 93.9844 28.6111 Q93.4375 28.1111 93.4375 27.3298 Q93.4375 26.8767 93.6406 26.4939 Q93.8438 26.1111 94.1875 25.8845 Q94.5312 25.6579 94.9531 25.5486 Q95.25 25.4548 95.8906 25.3767 Q97.1562 25.2361 97.7656 25.0173 Q97.7656 24.7986 97.7656 24.7517 Q97.7656 24.0954 97.4688 23.8298 Q97.0625 23.4861 96.2656 23.4861 Q95.5312 23.4861 95.1719 23.7439 Q94.8125 24.0017 94.6406 24.6579 L93.6094 24.5173 Q93.75 23.8611 94.0781 23.4548 Q94.4062 23.0486 95.0156 22.8298 Q95.625 22.6111 96.4219 22.6111 Q97.2188 22.6111 97.7188 22.7986 Q98.2188 22.9861 98.4531 23.2673 Q98.6875 23.5486 98.7812 23.9861 Q98.8281 24.2517 98.8281 24.9548 L98.8281 26.3611 Q98.8281 27.8298 98.8984 28.2204 Q98.9688 28.6111 99.1719 28.9704 L98.0625 28.9704 Q97.9062 28.6423 97.8594 28.2048 ZM97.7656 25.8454 Q97.1875 26.0798 96.0469 26.2517 Q95.3906 26.3454 95.125 26.4626 Q94.8594 26.5798 94.7109 26.7986 Q94.5625 27.0173 94.5625 27.2986 Q94.5625 27.7204 94.8828 28.0017 Q95.2031 28.2829 95.8125 28.2829 Q96.4219 28.2829 96.8984 28.0173 Q97.375 27.7517 97.5938 27.2829 Q97.7656 26.9236 97.7656 26.2361 L97.7656 25.8454 ZM103.0938 28.0329 L103.25 28.9548 Q102.7969 29.0486 102.4531 29.0486 Q101.875 29.0486 101.5625 28.8689 Q101.25 28.6892 101.1172 28.3923 Q100.9844 28.0954 100.9844 27.1423 L100.9844 23.5642 L100.2188 23.5642 L100.2188 22.7517 L100.9844 22.7517 L100.9844 21.2048 L102.0312 20.5798 L102.0312 22.7517 L103.0938 22.7517 L103.0938 23.5642 L102.0312 23.5642 L102.0312 27.2048 Q102.0312 27.6579 102.0859 27.7829 Q102.1406 27.9079 102.2656 27.9861 Q102.3906 28.0642 102.625 28.0642 Q102.8125 28.0642 103.0938 28.0329 ZM103.4062 25.8611 Q103.4062 24.1267 104.3594 23.2986 Q105.1562 22.6111 106.3125 22.6111 Q107.5938 22.6111 108.4141 23.447 Q109.2344 24.2829 109.2344 25.7673 Q109.2344 26.9704 108.875 27.6579 Q108.5156 28.3454 107.8203 28.7282 Q107.125 29.1111 106.3125 29.1111 Q105.0156 29.1111 104.2109 28.2751 Q103.4062 27.4392 103.4062 25.8611 ZM104.4844 25.8611 Q104.4844 27.0486 105.0078 27.6423 Q105.5312 28.2361 106.3125 28.2361 Q107.1094 28.2361 107.625 27.6423 Q108.1406 27.0486 108.1406 25.8298 Q108.1406 24.6736 107.6172 24.0798 Q107.0938 23.4861 106.3125 23.4861 Q105.5312 23.4861 105.0078 24.072 Q104.4844 24.6579 104.4844 25.8611 ZM110.7812 28.9704 L110.7812 22.7517 L111.7344 22.7517 L111.7344 23.6892 Q112.0938 23.0329 112.3984 22.822 Q112.7031 22.6111 113.0781 22.6111 Q113.6094 22.6111 114.1562 22.9392 L113.7969 23.9236 Q113.4062 23.6892 113.0312 23.6892 Q112.6719 23.6892 112.3984 23.9001 Q112.125 24.1111 112.0156 24.4861 Q111.8281 25.0486 111.8281 25.7048 L111.8281 28.9704 L110.7812 28.9704 ZM114.375 26.3923 L114.375 25.3298 L117.625 25.3298 L117.625 26.3923 L114.375 26.3923 ZM121.0938 28.0329 L121.25 28.9548 Q120.7969 29.0486 120.4531 29.0486 Q119.875 29.0486 119.5625 28.8689 Q119.25 28.6892 119.1172 28.3923 Q118.9844 28.0954 118.9844 27.1423 L118.9844 23.5642 L118.2188 23.5642 L118.2188 22.7517 L118.9844 22.7517 L118.9844 21.2048 L120.0312 20.5798 L120.0312 22.7517 L121.0938 22.7517 L121.0938 23.5642 L120.0312 23.5642 L120.0312 27.2048 Q120.0312 27.6579 120.0859 27.7829 Q120.1406 27.9079 120.2656 27.9861 Q120.3906 28.0642 120.625 28.0642 Q120.8125 28.0642 121.0938 28.0329 ZM124.7969 28.9704 L124.7969 20.3767 L125.8594 20.3767 L125.8594 25.2829 L128.3438 22.7517 L129.7188 22.7517 L127.3281 25.0486 L129.9531 28.9704 L128.6562 28.9704 L126.5938 25.7829 L125.8594 26.5017 L125.8594 28.9704 L124.7969 28.9704 ZM130.4062 25.8611 Q130.4062 24.1267 131.3594 23.2986 Q132.1562 22.6111 133.3125 22.6111 Q134.5938 22.6111 135.4141 23.447 Q136.2344 24.2829 136.2344 25.7673 Q136.2344 26.9704 135.875 27.6579 Q135.5156 28.3454 134.8203 28.7282 Q134.125 29.1111 133.3125 29.1111 Q132.0156 29.1111 131.2109 28.2751 Q130.4062 27.4392 130.4062 25.8611 ZM131.4844 25.8611 Q131.4844 27.0486 132.0078 27.6423 Q132.5312 28.2361 133.3125 28.2361 Q134.1094 28.2361 134.625 27.6423 Q135.1406 27.0486 135.1406 25.8298 Q135.1406 24.6736 134.6172 24.0798 Q134.0938 23.4861 133.3125 23.4861 Q132.5312 23.4861 132.0078 24.072 Q131.4844 24.6579 131.4844 25.8611 ZM131.8125 20.9704 L131.8125 19.7673 L132.9062 19.7673 L132.9062 20.9704 L131.8125 20.9704 ZM134 20.9704 L134 19.7673 L135.0938 19.7673 L135.0938 20.9704 L134 20.9704 ZM140.0938 28.0329 L140.25 28.9548 Q139.7969 29.0486 139.4531 29.0486 Q138.875 29.0486 138.5625 28.8689 Q138.25 28.6892 138.1172 28.3923 Q137.9844 28.0954 137.9844 27.1423 L137.9844 23.5642 L137.2188 23.5642 L137.2188 22.7517 L137.9844 22.7517 L137.9844 21.2048 L139.0312 20.5798 L139.0312 22.7517 L140.0938 22.7517 L140.0938 23.5642 L139.0312 23.5642 L139.0312 27.2048 Q139.0312 27.6579 139.0859 27.7829 Q139.1406 27.9079 139.2656 27.9861 Q139.3906 28.0642 139.625 28.0642 Q139.8125 28.0642 140.0938 28.0329 ZM144.875 28.9704 L144.875 28.0486 Q144.1406 29.1111 142.8906 29.1111 Q142.3438 29.1111 141.8672 28.9001 Q141.3906 28.6892 141.1562 28.3689 Q140.9219 28.0486 140.8281 27.5798 Q140.7656 27.2829 140.7656 26.5954 L140.7656 22.7517 L141.8281 22.7517 L141.8281 26.2048 Q141.8281 27.0173 141.8906 27.3142 Q141.9844 27.7204 142.3047 27.9626 Q142.625 28.2048 143.1094 28.2048 Q143.5781 28.2048 143.9922 27.9626 Q144.4062 27.7204 144.5859 27.2986 Q144.7656 26.8767 144.7656 26.0798 L144.7656 22.7517 L145.8125 22.7517 L145.8125 28.9704 L144.875 28.9704 ZM141.3594 20.9704 L141.3594 19.7673 L142.4531 19.7673 L142.4531 20.9704 L141.3594 20.9704 ZM143.5469 20.9704 L143.5469 19.7673 L144.6406 19.7673 L144.6406 20.9704 L143.5469 20.9704 ZM147.7969 28.9704 L147.7969 22.7517 L148.7344 22.7517 L148.7344 23.6267 Q149.4219 22.6111 150.7188 22.6111 Q151.2812 22.6111 151.7578 22.8142 Q152.2344 23.0173 152.4688 23.3454 Q152.7031 23.6736 152.7969 24.1111 Q152.8438 24.4079 152.8438 25.1423 L152.8438 28.9704 L151.7969 28.9704 L151.7969 25.1892 Q151.7969 24.5329 151.6719 24.2204 Q151.5469 23.9079 151.2344 23.7126 Q150.9219 23.5173 150.5 23.5173 Q149.8281 23.5173 149.3359 23.947 Q148.8438 24.3767 148.8438 25.5642 L148.8438 28.9704 L147.7969 28.9704 ZM154.7969 28.9704 L154.7969 20.3767 L155.8594 20.3767 L155.8594 25.2829 L158.3438 22.7517 L159.7188 22.7517 L157.3281 25.0486 L159.9531 28.9704 L158.6562 28.9704 L156.5938 25.7829 L155.8594 26.5017 L155.8594 28.9704 L154.7969 28.9704 ZM161.0625 28.9704 L161.0625 27.7673 L162.2656 27.7673 L162.2656 28.9704 Q162.2656 29.6267 162.0312 30.0407 Q161.7969 30.4548 161.2969 30.6736 L161 30.2204 Q161.3281 30.0798 161.4844 29.7907 Q161.6406 29.5017 161.6719 28.9704 L161.0625 28.9704 Z" style="clip-path:url(#clipPath12); stroke:none;" />
      <path d="M7.8594 42.2048 Q7.2656 42.7048 6.7266 42.9079 Q6.1875 43.1111 5.5625 43.1111 Q4.5312 43.1111 3.9844 42.6111 Q3.4375 42.1111 3.4375 41.3298 Q3.4375 40.8767 3.6406 40.4939 Q3.8438 40.1111 4.1875 39.8845 Q4.5312 39.6579 4.9531 39.5486 Q5.25 39.4548 5.8906 39.3767 Q7.1562 39.2361 7.7656 39.0173 Q7.7656 38.7986 7.7656 38.7517 Q7.7656 38.0954 7.4688 37.8298 Q7.0625 37.4861 6.2656 37.4861 Q5.5312 37.4861 5.1719 37.7439 Q4.8125 38.0017 4.6406 38.6579 L3.6094 38.5173 Q3.75 37.8611 4.0781 37.4548 Q4.4062 37.0486 5.0156 36.8298 Q5.625 36.6111 6.4219 36.6111 Q7.2188 36.6111 7.7188 36.7986 Q8.2188 36.9861 8.4531 37.2673 Q8.6875 37.5486 8.7812 37.9861 Q8.8281 38.2517 8.8281 38.9548 L8.8281 40.3611 Q8.8281 41.8298 8.8984 42.2204 Q8.9688 42.6111 9.1719 42.9704 L8.0625 42.9704 Q7.9062 42.6423 7.8594 42.2048 ZM7.7656 39.8454 Q7.1875 40.0798 6.0469 40.2517 Q5.3906 40.3454 5.125 40.4626 Q4.8594 40.5798 4.7109 40.7986 Q4.5625 41.0173 4.5625 41.2986 Q4.5625 41.7204 4.8828 42.0017 Q5.2031 42.2829 5.8125 42.2829 Q6.4219 42.2829 6.8984 42.0173 Q7.375 41.7517 7.5938 41.2829 Q7.7656 40.9236 7.7656 40.2361 L7.7656 39.8454 ZM10.7969 42.9704 L10.7969 34.3767 L11.8594 34.3767 L11.8594 39.2829 L14.3438 36.7517 L15.7188 36.7517 L13.3281 39.0486 L15.9531 42.9704 L14.6562 42.9704 L12.5938 39.7829 L11.8594 40.5017 L11.8594 42.9704 L10.7969 42.9704 ZM16.7969 42.9704 L16.7969 34.3767 L17.8594 34.3767 L17.8594 39.2829 L20.3438 36.7517 L21.7188 36.7517 L19.3281 39.0486 L21.9531 42.9704 L20.6562 42.9704 L18.5938 39.7829 L17.8594 40.5017 L17.8594 42.9704 L16.7969 42.9704 ZM22.4062 39.8611 Q22.4062 38.1267 23.3594 37.2986 Q24.1562 36.6111 25.3125 36.6111 Q26.5938 36.6111 27.4141 37.447 Q28.2344 38.2829 28.2344 39.7673 Q28.2344 40.9704 27.875 41.6579 Q27.5156 42.3454 26.8203 42.7282 Q26.125 43.1111 25.3125 43.1111 Q24.0156 43.1111 23.2109 42.2751 Q22.4062 41.4392 22.4062 39.8611 ZM23.4844 39.8611 Q23.4844 41.0486 24.0078 41.6423 Q24.5312 42.2361 25.3125 42.2361 Q26.1094 42.2361 26.625 41.6423 Q27.1406 41.0486 27.1406 39.8298 Q27.1406 38.6736 26.6172 38.0798 Q26.0938 37.4861 25.3125 37.4861 Q24.5312 37.4861 24.0078 38.072 Q23.4844 38.6579 23.4844 39.8611 ZM29.7812 42.9704 L29.7812 36.7517 L30.7344 36.7517 L30.7344 37.6892 Q31.0938 37.0329 31.3984 36.822 Q31.7031 36.6111 32.0781 36.6111 Q32.6094 36.6111 33.1562 36.9392 L32.7969 37.9236 Q32.4062 37.6892 32.0312 37.6892 Q31.6719 37.6892 31.3984 37.9001 Q31.125 38.1111 31.0156 38.4861 Q30.8281 39.0486 30.8281 39.7048 L30.8281 42.9704 L29.7812 42.9704 ZM37.0469 42.9704 L37.0469 37.5642 L36.1094 37.5642 L36.1094 36.7517 L37.0469 36.7517 L37.0469 36.0798 Q37.0469 35.4548 37.1562 35.1579 Q37.3125 34.7361 37.6953 34.4861 Q38.0781 34.2361 38.7656 34.2361 Q39.2188 34.2361 39.75 34.3454 L39.5938 35.2517 Q39.2656 35.2048 38.9688 35.2048 Q38.4844 35.2048 38.2891 35.4079 Q38.0938 35.6111 38.0938 36.1736 L38.0938 36.7517 L39.3125 36.7517 L39.3125 37.5642 L38.0938 37.5642 L38.0938 42.9704 L37.0469 42.9704 ZM44.0469 40.9704 L45.1406 41.0954 Q44.8906 42.0486 44.1875 42.5798 Q43.4844 43.1111 42.4062 43.1111 Q41.0469 43.1111 40.2422 42.2673 Q39.4375 41.4236 39.4375 39.9079 Q39.4375 38.3454 40.25 37.4782 Q41.0625 36.6111 42.3438 36.6111 Q43.5938 36.6111 44.3828 37.4548 Q45.1719 38.2986 45.1719 39.8454 Q45.1719 39.9392 45.1719 40.1267 L40.5312 40.1267 Q40.5938 41.1579 41.1094 41.697 Q41.625 42.2361 42.4062 42.2361 Q42.9844 42.2361 43.3984 41.9314 Q43.8125 41.6267 44.0469 40.9704 ZM40.5938 39.2673 L44.0625 39.2673 Q44 38.4704 43.6719 38.0798 Q43.1562 37.4704 42.3594 37.4704 Q41.625 37.4704 41.1328 37.9548 Q40.6406 38.4392 40.5938 39.2673 ZM46.7656 42.9704 L46.7656 34.3767 L47.8281 34.3767 L47.8281 42.9704 L46.7656 42.9704 ZM50.1562 42.9704 L50.1562 36.7517 L51.2188 36.7517 L51.2188 42.9704 L50.1562 42.9704 ZM50.125 34.9704 L50.9062 33.3298 L52.2969 33.3298 L51 34.9704 L50.125 34.9704 ZM52.7812 42.9704 L52.7812 36.7517 L53.7344 36.7517 L53.7344 37.6892 Q54.0938 37.0329 54.3984 36.822 Q54.7031 36.6111 55.0781 36.6111 Q55.6094 36.6111 56.1562 36.9392 L55.7969 37.9236 Q55.4062 37.6892 55.0312 37.6892 Q54.6719 37.6892 54.3984 37.9001 Q54.125 38.1111 54.0156 38.4861 Q53.8281 39.0486 53.8281 39.7048 L53.8281 42.9704 L52.7812 42.9704 ZM56.7812 35.6111 L56.7812 34.3767 L57.8438 34.3767 L57.8438 35.6111 L56.7812 35.6111 ZM55.4531 45.3923 L55.6406 44.4861 Q55.9688 44.5642 56.1406 44.5642 Q56.4688 44.5642 56.625 44.3532 Q56.7812 44.1423 56.7812 43.2829 L56.7812 36.7517 L57.8438 36.7517 L57.8438 43.3142 Q57.8438 44.4548 57.5469 44.9079 Q57.1562 45.5017 56.2812 45.5017 Q55.8438 45.5017 55.4531 45.3923 ZM63.875 42.9704 L63.875 42.0486 Q63.1406 43.1111 61.8906 43.1111 Q61.3438 43.1111 60.8672 42.9001 Q60.3906 42.6892 60.1562 42.3689 Q59.9219 42.0486 59.8281 41.5798 Q59.7656 41.2829 59.7656 40.5954 L59.7656 36.7517 L60.8281 36.7517 L60.8281 40.2048 Q60.8281 41.0173 60.8906 41.3142 Q60.9844 41.7204 61.3047 41.9626 Q61.625 42.2048 62.1094 42.2048 Q62.5781 42.2048 62.9922 41.9626 Q63.4062 41.7204 63.5859 41.2986 Q63.7656 40.8767 63.7656 40.0798 L63.7656 36.7517 L64.8125 36.7517 L64.8125 42.9704 L63.875 42.9704 ZM66.7969 42.9704 L66.7969 34.3767 L67.8594 34.3767 L67.8594 39.2829 L70.3438 36.7517 L71.7188 36.7517 L69.3281 39.0486 L71.9531 42.9704 L70.6562 42.9704 L68.5938 39.7829 L67.8594 40.5017 L67.8594 42.9704 L66.7969 42.9704 ZM79.8594 42.2048 Q79.2656 42.7048 78.7266 42.9079 Q78.1875 43.1111 77.5625 43.1111 Q76.5312 43.1111 75.9844 42.6111 Q75.4375 42.1111 75.4375 41.3298 Q75.4375 40.8767 75.6406 40.4939 Q75.8438 40.1111 76.1875 39.8845 Q76.5312 39.6579 76.9531 39.5486 Q77.25 39.4548 77.8906 39.3767 Q79.1562 39.2361 79.7656 39.0173 Q79.7656 38.7986 79.7656 38.7517 Q79.7656 38.0954 79.4688 37.8298 Q79.0625 37.4861 78.2656 37.4861 Q77.5312 37.4861 77.1719 37.7439 Q76.8125 38.0017 76.6406 38.6579 L75.6094 38.5173 Q75.75 37.8611 76.0781 37.4548 Q76.4062 37.0486 77.0156 36.8298 Q77.625 36.6111 78.4219 36.6111 Q79.2188 36.6111 79.7188 36.7986 Q80.2188 36.9861 80.4531 37.2673 Q80.6875 37.5486 80.7812 37.9861 Q80.8281 38.2517 80.8281 38.9548 L80.8281 40.3611 Q80.8281 41.8298 80.8984 42.2204 Q80.9688 42.6111 81.1719 42.9704 L80.0625 42.9704 Q79.9062 42.6423 79.8594 42.2048 ZM79.7656 39.8454 Q79.1875 40.0798 78.0469 40.2517 Q77.3906 40.3454 77.125 40.4626 Q76.8594 40.5798 76.7109 40.7986 Q76.5625 41.0173 76.5625 41.2986 Q76.5625 41.7204 76.8828 42.0017 Q77.2031 42.2829 77.8125 42.2829 Q78.4219 42.2829 78.8984 42.0173 Q79.375 41.7517 79.5938 41.2829 Q79.7656 40.9236 79.7656 40.2361 L79.7656 39.8454 Z" style="clip-path:url(#clipPath12); stroke:none;" />
      <path d="M3.5469 54.2048 L4.6094 54.1111 Q4.6875 54.7673 4.9688 55.1736 Q5.25 55.5798 5.8359 55.8376 Q6.4219 56.0954 7.1562 56.0954 Q7.7969 56.0954 8.2969 55.9001 Q8.7969 55.7048 9.0391 55.3689 Q9.2812 55.0329 9.2812 54.6423 Q9.2812 54.2361 9.0469 53.9314 Q8.8125 53.6267 8.2812 53.4236 Q7.9219 53.2829 6.7422 53.0017 Q5.5625 52.7204 5.0938 52.4704 Q4.4688 52.1423 4.1719 51.6657 Q3.875 51.1892 3.875 50.5954 Q3.875 49.9548 4.2422 49.3845 Q4.6094 48.8142 5.3203 48.5251 Q6.0312 48.2361 6.8906 48.2361 Q7.8438 48.2361 8.5781 48.5407 Q9.3125 48.8454 9.7031 49.447 Q10.0938 50.0486 10.125 50.7986 L9.0312 50.8767 Q8.9375 50.0642 8.4297 49.6501 Q7.9219 49.2361 6.9375 49.2361 Q5.9062 49.2361 5.4375 49.6111 Q4.9688 49.9861 4.9688 50.5173 Q4.9688 50.9861 5.2969 51.2829 Q5.625 51.5798 7.0078 51.8923 Q8.3906 52.2048 8.9062 52.4392 Q9.6562 52.7986 10.0156 53.322 Q10.375 53.8454 10.375 54.5486 Q10.375 55.2361 9.9844 55.8376 Q9.5938 56.4392 8.8594 56.7751 Q8.125 57.1111 7.2031 57.1111 Q6.0312 57.1111 5.2422 56.7751 Q4.4531 56.4392 4.0078 55.7517 Q3.5625 55.0642 3.5469 54.2048 ZM16.0469 54.9704 L17.1406 55.0954 Q16.8906 56.0486 16.1875 56.5798 Q15.4844 57.1111 14.4062 57.1111 Q13.0469 57.1111 12.2422 56.2673 Q11.4375 55.4236 11.4375 53.9079 Q11.4375 52.3454 12.25 51.4782 Q13.0625 50.6111 14.3438 50.6111 Q15.5938 50.6111 16.3828 51.4548 Q17.1719 52.2986 17.1719 53.8454 Q17.1719 53.9392 17.1719 54.1267 L12.5312 54.1267 Q12.5938 55.1579 13.1094 55.697 Q13.625 56.2361 14.4062 56.2361 Q14.9844 56.2361 15.3984 55.9314 Q15.8125 55.6267 16.0469 54.9704 ZM12.5938 53.2673 L16.0625 53.2673 Q16 52.4704 15.6719 52.0798 Q15.1562 51.4704 14.3594 51.4704 Q13.625 51.4704 13.1328 51.9548 Q12.6406 52.4392 12.5938 53.2673 ZM22.7656 59.3611 L22.7656 56.3142 Q22.5156 56.6579 22.0703 56.8845 Q21.625 57.1111 21.125 57.1111 Q20.0156 57.1111 19.2188 56.2282 Q18.4219 55.3454 18.4219 53.7986 Q18.4219 52.8611 18.75 52.1189 Q19.0781 51.3767 19.6953 50.9939 Q20.3125 50.6111 21.0469 50.6111 Q22.2031 50.6111 22.8594 51.5798 L22.8594 50.7517 L23.8125 50.7517 L23.8125 59.3611 L22.7656 59.3611 ZM19.5 53.8454 Q19.5 55.0486 20.0078 55.6423 Q20.5156 56.2361 21.2188 56.2361 Q21.8906 56.2361 22.375 55.6657 Q22.8594 55.0954 22.8594 53.9392 Q22.8594 52.6892 22.3516 52.0642 Q21.8438 51.4392 21.1406 51.4392 Q20.4688 51.4392 19.9844 52.0251 Q19.5 52.6111 19.5 53.8454 ZM29.875 56.9704 L29.875 56.0486 Q29.1406 57.1111 27.8906 57.1111 Q27.3438 57.1111 26.8672 56.9001 Q26.3906 56.6892 26.1562 56.3689 Q25.9219 56.0486 25.8281 55.5798 Q25.7656 55.2829 25.7656 54.5954 L25.7656 50.7517 L26.8281 50.7517 L26.8281 54.2048 Q26.8281 55.0173 26.8906 55.3142 Q26.9844 55.7204 27.3047 55.9626 Q27.625 56.2048 28.1094 56.2048 Q28.5781 56.2048 28.9922 55.9626 Q29.4062 55.7204 29.5859 55.2986 Q29.7656 54.8767 29.7656 54.0798 L29.7656 50.7517 L30.8125 50.7517 L30.8125 56.9704 L29.875 56.9704 ZM37.0469 54.9704 L38.1406 55.0954 Q37.8906 56.0486 37.1875 56.5798 Q36.4844 57.1111 35.4062 57.1111 Q34.0469 57.1111 33.2422 56.2673 Q32.4375 55.4236 32.4375 53.9079 Q32.4375 52.3454 33.25 51.4782 Q34.0625 50.6111 35.3438 50.6111 Q36.5938 50.6111 37.3828 51.4548 Q38.1719 52.2986 38.1719 53.8454 Q38.1719 53.9392 38.1719 54.1267 L33.5312 54.1267 Q33.5938 55.1579 34.1094 55.697 Q34.625 56.2361 35.4062 56.2361 Q35.9844 56.2361 36.3984 55.9314 Q36.8125 55.6267 37.0469 54.9704 ZM33.5938 53.2673 L37.0625 53.2673 Q37 52.4704 36.6719 52.0798 Q36.1562 51.4704 35.3594 51.4704 Q34.625 51.4704 34.1328 51.9548 Q33.6406 52.4392 33.5938 53.2673 ZM39.7969 56.9704 L39.7969 50.7517 L40.7344 50.7517 L40.7344 51.6267 Q41.4219 50.6111 42.7188 50.6111 Q43.2812 50.6111 43.7578 50.8142 Q44.2344 51.0173 44.4688 51.3454 Q44.7031 51.6736 44.7969 52.1111 Q44.8438 52.4079 44.8438 53.1423 L44.8438 56.9704 L43.7969 56.9704 L43.7969 53.1892 Q43.7969 52.5329 43.6719 52.2204 Q43.5469 51.9079 43.2344 51.7126 Q42.9219 51.5173 42.5 51.5173 Q41.8281 51.5173 41.3359 51.947 Q40.8438 52.3767 40.8438 53.5642 L40.8438 56.9704 L39.7969 56.9704 ZM50.8594 54.6892 L51.8906 54.8298 Q51.7188 55.8923 51.0156 56.5017 Q50.3125 57.1111 49.2969 57.1111 Q48.0156 57.1111 47.2422 56.2751 Q46.4688 55.4392 46.4688 53.8767 Q46.4688 52.8767 46.8047 52.1189 Q47.1406 51.3611 47.8203 50.9861 Q48.5 50.6111 49.3125 50.6111 Q50.3125 50.6111 50.9609 51.1189 Q51.6094 51.6267 51.7969 52.5798 L50.7656 52.7361 Q50.625 52.1111 50.25 51.7907 Q49.875 51.4704 49.3438 51.4704 Q48.5469 51.4704 48.0469 52.0407 Q47.5469 52.6111 47.5469 53.8454 Q47.5469 55.1111 48.0312 55.6736 Q48.5156 56.2361 49.2812 56.2361 Q49.9062 56.2361 50.3203 55.8611 Q50.7344 55.4861 50.8594 54.6892 ZM57.0469 54.9704 L58.1406 55.0954 Q57.8906 56.0486 57.1875 56.5798 Q56.4844 57.1111 55.4062 57.1111 Q54.0469 57.1111 53.2422 56.2673 Q52.4375 55.4236 52.4375 53.9079 Q52.4375 52.3454 53.25 51.4782 Q54.0625 50.6111 55.3438 50.6111 Q56.5938 50.6111 57.3828 51.4548 Q58.1719 52.2986 58.1719 53.8454 Q58.1719 53.9392 58.1719 54.1267 L53.5312 54.1267 Q53.5938 55.1579 54.1094 55.697 Q54.625 56.2361 55.4062 56.2361 Q55.9844 56.2361 56.3984 55.9314 Q56.8125 55.6267 57.0469 54.9704 ZM53.5938 53.2673 L57.0625 53.2673 Q57 52.4704 56.6719 52.0798 Q56.1562 51.4704 55.3594 51.4704 Q54.625 51.4704 54.1328 51.9548 Q53.6406 52.4392 53.5938 53.2673 ZM63.9531 53.5954 L63.9531 52.5954 L67.5781 52.5798 L67.5781 55.7673 Q66.75 56.4392 65.8594 56.7751 Q64.9688 57.1111 64.0312 57.1111 Q62.7656 57.1111 61.7266 56.572 Q60.6875 56.0329 60.1641 55.0095 Q59.6406 53.9861 59.6406 52.7204 Q59.6406 51.4548 60.1641 50.3689 Q60.6875 49.2829 61.6719 48.7595 Q62.6562 48.2361 63.9375 48.2361 Q64.875 48.2361 65.625 48.5329 Q66.375 48.8298 66.8047 49.3689 Q67.2344 49.9079 67.4531 50.7829 L66.4375 51.0642 Q66.2344 50.4079 65.9453 50.0329 Q65.6562 49.6579 65.125 49.4314 Q64.5938 49.2048 63.9531 49.2048 Q63.1719 49.2048 62.6016 49.4392 Q62.0312 49.6736 61.6797 50.0642 Q61.3281 50.4548 61.1406 50.9236 Q60.8125 51.7204 60.8125 52.6423 Q60.8125 53.7986 61.2109 54.572 Q61.6094 55.3454 62.3594 55.7204 Q63.1094 56.0954 63.9688 56.0954 Q64.7031 56.0954 65.4062 55.8064 Q66.1094 55.5173 66.4688 55.2048 L66.4688 53.5954 L63.9531 53.5954 ZM73.0469 54.9704 L74.1406 55.0954 Q73.8906 56.0486 73.1875 56.5798 Q72.4844 57.1111 71.4062 57.1111 Q70.0469 57.1111 69.2422 56.2673 Q68.4375 55.4236 68.4375 53.9079 Q68.4375 52.3454 69.25 51.4782 Q70.0625 50.6111 71.3438 50.6111 Q72.5938 50.6111 73.3828 51.4548 Q74.1719 52.2986 74.1719 53.8454 Q74.1719 53.9392 74.1719 54.1267 L69.5312 54.1267 Q69.5938 55.1579 70.1094 55.697 Q70.625 56.2361 71.4062 56.2361 Q71.9844 56.2361 72.3984 55.9314 Q72.8125 55.6267 73.0469 54.9704 ZM69.5938 53.2673 L73.0625 53.2673 Q73 52.4704 72.6719 52.0798 Q72.1562 51.4704 71.3594 51.4704 Q70.625 51.4704 70.1328 51.9548 Q69.6406 52.4392 69.5938 53.2673 ZM75.7969 56.9704 L75.7969 50.7517 L76.7344 50.7517 L76.7344 51.6267 Q77.4219 50.6111 78.7188 50.6111 Q79.2812 50.6111 79.7578 50.8142 Q80.2344 51.0173 80.4688 51.3454 Q80.7031 51.6736 80.7969 52.1111 Q80.8438 52.4079 80.8438 53.1423 L80.8438 56.9704 L79.7969 56.9704 L79.7969 53.1892 Q79.7969 52.5329 79.6719 52.2204 Q79.5469 51.9079 79.2344 51.7126 Q78.9219 51.5173 78.5 51.5173 Q77.8281 51.5173 77.3359 51.947 Q76.8438 52.3767 76.8438 53.5642 L76.8438 56.9704 L75.7969 56.9704 ZM87.0469 54.9704 L88.1406 55.0954 Q87.8906 56.0486 87.1875 56.5798 Q86.4844 57.1111 85.4062 57.1111 Q84.0469 57.1111 83.2422 56.2673 Q82.4375 55.4236 82.4375 53.9079 Q82.4375 52.3454 83.25 51.4782 Q84.0625 50.6111 85.3438 50.6111 Q86.5938 50.6111 87.3828 51.4548 Q88.1719 52.2986 88.1719 53.8454 Q88.1719 53.9392 88.1719 54.1267 L83.5312 54.1267 Q83.5938 55.1579 84.1094 55.697 Q84.625 56.2361 85.4062 56.2361 Q85.9844 56.2361 86.3984 55.9314 Q86.8125 55.6267 87.0469 54.9704 ZM83.5938 53.2673 L87.0625 53.2673 Q87 52.4704 86.6719 52.0798 Q86.1562 51.4704 85.3594 51.4704 Q84.625 51.4704 84.1328 51.9548 Q83.6406 52.4392 83.5938 53.2673 ZM89.7812 56.9704 L89.7812 50.7517 L90.7344 50.7517 L90.7344 51.6892 Q91.0938 51.0329 91.3984 50.822 Q91.7031 50.6111 92.0781 50.6111 Q92.6094 50.6111 93.1562 50.9392 L92.7969 51.9236 Q92.4062 51.6892 92.0312 51.6892 Q91.6719 51.6892 91.3984 51.9001 Q91.125 52.1111 91.0156 52.4861 Q90.8281 53.0486 90.8281 53.7048 L90.8281 56.9704 L89.7812 56.9704 ZM97.8594 56.2048 Q97.2656 56.7048 96.7266 56.9079 Q96.1875 57.1111 95.5625 57.1111 Q94.5312 57.1111 93.9844 56.6111 Q93.4375 56.1111 93.4375 55.3298 Q93.4375 54.8767 93.6406 54.4939 Q93.8438 54.1111 94.1875 53.8845 Q94.5312 53.6579 94.9531 53.5486 Q95.25 53.4548 95.8906 53.3767 Q97.1562 53.2361 97.7656 53.0173 Q97.7656 52.7986 97.7656 52.7517 Q97.7656 52.0954 97.4688 51.8298 Q97.0625 51.4861 96.2656 51.4861 Q95.5312 51.4861 95.1719 51.7439 Q94.8125 52.0017 94.6406 52.6579 L93.6094 52.5173 Q93.75 51.8611 94.0781 51.4548 Q94.4062 51.0486 95.0156 50.8298 Q95.625 50.6111 96.4219 50.6111 Q97.2188 50.6111 97.7188 50.7986 Q98.2188 50.9861 98.4531 51.2673 Q98.6875 51.5486 98.7812 51.9861 Q98.8281 52.2517 98.8281 52.9548 L98.8281 54.3611 Q98.8281 55.8298 98.8984 56.2204 Q98.9688 56.6111 99.1719 56.9704 L98.0625 56.9704 Q97.9062 56.6423 97.8594 56.2048 ZM97.7656 53.8454 Q97.1875 54.0798 96.0469 54.2517 Q95.3906 54.3454 95.125 54.4626 Q94.8594 54.5798 94.7109 54.7986 Q94.5625 55.0173 94.5625 55.2986 Q94.5625 55.7204 94.8828 56.0017 Q95.2031 56.2829 95.8125 56.2829 Q96.4219 56.2829 96.8984 56.0173 Q97.375 55.7517 97.5938 55.2829 Q97.7656 54.9236 97.7656 54.2361 L97.7656 53.8454 ZM103.0938 56.0329 L103.25 56.9548 Q102.7969 57.0486 102.4531 57.0486 Q101.875 57.0486 101.5625 56.8689 Q101.25 56.6892 101.1172 56.3923 Q100.9844 56.0954 100.9844 55.1423 L100.9844 51.5642 L100.2188 51.5642 L100.2188 50.7517 L100.9844 50.7517 L100.9844 49.2048 L102.0312 48.5798 L102.0312 50.7517 L103.0938 50.7517 L103.0938 51.5642 L102.0312 51.5642 L102.0312 55.2048 Q102.0312 55.6579 102.0859 55.7829 Q102.1406 55.9079 102.2656 55.9861 Q102.3906 56.0642 102.625 56.0642 Q102.8125 56.0642 103.0938 56.0329 ZM103.4062 53.8611 Q103.4062 52.1267 104.3594 51.2986 Q105.1562 50.6111 106.3125 50.6111 Q107.5938 50.6111 108.4141 51.447 Q109.2344 52.2829 109.2344 53.7673 Q109.2344 54.9704 108.875 55.6579 Q108.5156 56.3454 107.8203 56.7282 Q107.125 57.1111 106.3125 57.1111 Q105.0156 57.1111 104.2109 56.2751 Q103.4062 55.4392 103.4062 53.8611 ZM104.4844 53.8611 Q104.4844 55.0486 105.0078 55.6423 Q105.5312 56.2361 106.3125 56.2361 Q107.1094 56.2361 107.625 55.6423 Q108.1406 55.0486 108.1406 53.8298 Q108.1406 52.6736 107.6172 52.0798 Q107.0938 51.4861 106.3125 51.4861 Q105.5312 51.4861 105.0078 52.072 Q104.4844 52.6579 104.4844 53.8611 ZM110.7812 56.9704 L110.7812 50.7517 L111.7344 50.7517 L111.7344 51.6892 Q112.0938 51.0329 112.3984 50.822 Q112.7031 50.6111 113.0781 50.6111 Q113.6094 50.6111 114.1562 50.9392 L113.7969 51.9236 Q113.4062 51.6892 113.0312 51.6892 Q112.6719 51.6892 112.3984 51.9001 Q112.125 52.1111 112.0156 52.4861 Q111.8281 53.0486 111.8281 53.7048 L111.8281 56.9704 L110.7812 56.9704 ZM114.7969 56.9704 L114.7969 50.7517 L115.7344 50.7517 L115.7344 51.6267 Q116.4219 50.6111 117.7188 50.6111 Q118.2812 50.6111 118.7578 50.8142 Q119.2344 51.0173 119.4688 51.3454 Q119.7031 51.6736 119.7969 52.1111 Q119.8438 52.4079 119.8438 53.1423 L119.8438 56.9704 L118.7969 56.9704 L118.7969 53.1892 Q118.7969 52.5329 118.6719 52.2204 Q118.5469 51.9079 118.2344 51.7126 Q117.9219 51.5173 117.5 51.5173 Q116.8281 51.5173 116.3359 51.947 Q115.8438 52.3767 115.8438 53.5642 L115.8438 56.9704 L114.7969 56.9704 ZM125.8594 56.2048 Q125.2656 56.7048 124.7266 56.9079 Q124.1875 57.1111 123.5625 57.1111 Q122.5312 57.1111 121.9844 56.6111 Q121.4375 56.1111 121.4375 55.3298 Q121.4375 54.8767 121.6406 54.4939 Q121.8438 54.1111 122.1875 53.8845 Q122.5312 53.6579 122.9531 53.5486 Q123.25 53.4548 123.8906 53.3767 Q125.1562 53.2361 125.7656 53.0173 Q125.7656 52.7986 125.7656 52.7517 Q125.7656 52.0954 125.4688 51.8298 Q125.0625 51.4861 124.2656 51.4861 Q123.5312 51.4861 123.1719 51.7439 Q122.8125 52.0017 122.6406 52.6579 L121.6094 52.5173 Q121.75 51.8611 122.0781 51.4548 Q122.4062 51.0486 123.0156 50.8298 Q123.625 50.6111 124.4219 50.6111 Q125.2188 50.6111 125.7188 50.7986 Q126.2188 50.9861 126.4531 51.2673 Q126.6875 51.5486 126.7812 51.9861 Q126.8281 52.2517 126.8281 52.9548 L126.8281 54.3611 Q126.8281 55.8298 126.8984 56.2204 Q126.9688 56.6111 127.1719 56.9704 L126.0625 56.9704 Q125.9062 56.6423 125.8594 56.2048 ZM125.7656 53.8454 Q125.1875 54.0798 124.0469 54.2517 Q123.3906 54.3454 123.125 54.4626 Q122.8594 54.5798 122.7109 54.7986 Q122.5625 55.0173 122.5625 55.2986 Q122.5625 55.7204 122.8828 56.0017 Q123.2031 56.2829 123.8125 56.2829 Q124.4219 56.2829 124.8984 56.0173 Q125.375 55.7517 125.5938 55.2829 Q125.7656 54.9236 125.7656 54.2361 L125.7656 53.8454 ZM123.125 48.9704 L123.9062 47.3298 L125.2969 47.3298 L124 48.9704 L123.125 48.9704 ZM128.7656 56.9704 L128.7656 48.3767 L129.8281 48.3767 L129.8281 56.9704 L128.7656 56.9704 ZM132.0625 56.9704 L132.0625 55.7673 L133.2656 55.7673 L133.2656 56.9704 Q133.2656 57.6267 133.0312 58.0407 Q132.7969 58.4548 132.2969 58.6736 L132 58.2204 Q132.3281 58.0798 132.4844 57.7907 Q132.6406 57.5017 132.6719 56.9704 L132.0625 56.9704 ZM137.7969 56.9704 L137.7969 48.3767 L138.8438 48.3767 L138.8438 51.4548 Q139.5781 50.6111 140.7031 50.6111 Q141.4062 50.6111 141.9141 50.8845 Q142.4219 51.1579 142.6406 51.6345 Q142.8594 52.1111 142.8594 53.0329 L142.8594 56.9704 L141.8125 56.9704 L141.8125 53.0329 Q141.8125 52.2361 141.4688 51.8767 Q141.125 51.5173 140.5 51.5173 Q140.0312 51.5173 139.6172 51.7595 Q139.2031 52.0017 139.0234 52.4157 Q138.8438 52.8298 138.8438 53.5642 L138.8438 56.9704 L137.7969 56.9704 ZM144.4062 53.8611 Q144.4062 52.1267 145.3594 51.2986 Q146.1562 50.6111 147.3125 50.6111 Q148.5938 50.6111 149.4141 51.447 Q150.2344 52.2829 150.2344 53.7673 Q150.2344 54.9704 149.875 55.6579 Q149.5156 56.3454 148.8203 56.7282 Q148.125 57.1111 147.3125 57.1111 Q146.0156 57.1111 145.2109 56.2751 Q144.4062 55.4392 144.4062 53.8611 ZM145.4844 53.8611 Q145.4844 55.0486 146.0078 55.6423 Q146.5312 56.2361 147.3125 56.2361 Q148.1094 56.2361 148.625 55.6423 Q149.1406 55.0486 149.1406 53.8298 Q149.1406 52.6736 148.6172 52.0798 Q148.0938 51.4861 147.3125 51.4861 Q146.5312 51.4861 146.0078 52.072 Q145.4844 52.6579 145.4844 53.8611 ZM151.5938 57.4861 L152.625 57.6423 Q152.6875 58.1111 152.9844 58.3298 Q153.375 58.6267 154.0469 58.6267 Q154.7812 58.6267 155.1797 58.3298 Q155.5781 58.0329 155.7188 57.5173 Q155.8125 57.1892 155.7969 56.1579 Q155.1094 56.9704 154.0781 56.9704 Q152.7969 56.9704 152.0938 56.0407 Q151.3906 55.1111 151.3906 53.8298 Q151.3906 52.9392 151.7109 52.1814 Q152.0312 51.4236 152.6406 51.0173 Q153.25 50.6111 154.0781 50.6111 Q155.1875 50.6111 155.9062 51.5017 L155.9062 50.7517 L156.875 50.7517 L156.875 56.1267 Q156.875 57.5798 156.5781 58.1892 Q156.2812 58.7986 155.6406 59.1501 Q155 59.5017 154.0625 59.5017 Q152.9531 59.5017 152.2656 59.0017 Q151.5781 58.5017 151.5938 57.4861 ZM152.4688 53.7517 Q152.4688 54.9704 152.9531 55.5329 Q153.4375 56.0954 154.1719 56.0954 Q154.9062 56.0954 155.3984 55.5329 Q155.8906 54.9704 155.8906 53.7829 Q155.8906 52.6423 155.3828 52.0642 Q154.875 51.4861 154.1562 51.4861 Q153.4531 51.4861 152.9609 52.0564 Q152.4688 52.6267 152.4688 53.7517 ZM158.75 59.3611 L158.625 58.3767 Q158.9688 58.4704 159.2344 58.4704 Q159.5781 58.4704 159.7891 58.3532 Q160 58.2361 160.1406 58.0329 Q160.2344 57.8611 160.4688 57.2361 Q160.4844 57.1579 160.5625 56.9861 L158.1875 50.7517 L159.3281 50.7517 L160.625 54.3454 Q160.875 55.0329 161.0781 55.7986 Q161.2656 55.0642 161.5156 54.3767 L162.8438 50.7517 L163.8906 50.7517 L161.5312 57.0798 Q161.1406 58.0954 160.9375 58.4861 Q160.6562 59.0173 160.2891 59.2595 Q159.9219 59.5017 159.4219 59.5017 Q159.125 59.5017 158.75 59.3611 ZM166.7969 56.9704 L166.7969 48.3767 L167.8438 48.3767 L167.8438 51.4548 Q168.5781 50.6111 169.7031 50.6111 Q170.4062 50.6111 170.9141 50.8845 Q171.4219 51.1579 171.6406 51.6345 Q171.8594 52.1111 171.8594 53.0329 L171.8594 56.9704 L170.8125 56.9704 L170.8125 53.0329 Q170.8125 52.2361 170.4688 51.8767 Q170.125 51.5173 169.5 51.5173 Q169.0312 51.5173 168.6172 51.7595 Q168.2031 52.0017 168.0234 52.4157 Q167.8438 52.8298 167.8438 53.5642 L167.8438 56.9704 L166.7969 56.9704 ZM177.8594 56.2048 Q177.2656 56.7048 176.7266 56.9079 Q176.1875 57.1111 175.5625 57.1111 Q174.5312 57.1111 173.9844 56.6111 Q173.4375 56.1111 173.4375 55.3298 Q173.4375 54.8767 173.6406 54.4939 Q173.8438 54.1111 174.1875 53.8845 Q174.5312 53.6579 174.9531 53.5486 Q175.25 53.4548 175.8906 53.3767 Q177.1562 53.2361 177.7656 53.0173 Q177.7656 52.7986 177.7656 52.7517 Q177.7656 52.0954 177.4688 51.8298 Q177.0625 51.4861 176.2656 51.4861 Q175.5312 51.4861 175.1719 51.7439 Q174.8125 52.0017 174.6406 52.6579 L173.6094 52.5173 Q173.75 51.8611 174.0781 51.4548 Q174.4062 51.0486 175.0156 50.8298 Q175.625 50.6111 176.4219 50.6111 Q177.2188 50.6111 177.7188 50.7986 Q178.2188 50.9861 178.4531 51.2673 Q178.6875 51.5486 178.7812 51.9861 Q178.8281 52.2517 178.8281 52.9548 L178.8281 54.3611 Q178.8281 55.8298 178.8984 56.2204 Q178.9688 56.6111 179.1719 56.9704 L178.0625 56.9704 Q177.9062 56.6423 177.8594 56.2048 ZM177.7656 53.8454 Q177.1875 54.0798 176.0469 54.2517 Q175.3906 54.3454 175.125 54.4626 Q174.8594 54.5798 174.7109 54.7986 Q174.5625 55.0173 174.5625 55.2986 Q174.5625 55.7204 174.8828 56.0017 Q175.2031 56.2829 175.8125 56.2829 Q176.4219 56.2829 176.8984 56.0173 Q177.375 55.7517 177.5938 55.2829 Q177.7656 54.9236 177.7656 54.2361 L177.7656 53.8454 Z" style="clip-path:url(#clipPath12); stroke:none;" />
      <path d="M3.7656 70.9704 L3.7656 62.3767 L4.8281 62.3767 L4.8281 70.9704 L3.7656 70.9704 ZM11.0469 68.9704 L12.1406 69.0954 Q11.8906 70.0486 11.1875 70.5798 Q10.4844 71.1111 9.4062 71.1111 Q8.0469 71.1111 7.2422 70.2673 Q6.4375 69.4236 6.4375 67.9079 Q6.4375 66.3454 7.25 65.4782 Q8.0625 64.6111 9.3438 64.6111 Q10.5938 64.6111 11.3828 65.4548 Q12.1719 66.2986 12.1719 67.8454 Q12.1719 67.9392 12.1719 68.1267 L7.5312 68.1267 Q7.5938 69.1579 8.1094 69.697 Q8.625 70.2361 9.4062 70.2361 Q9.9844 70.2361 10.3984 69.9314 Q10.8125 69.6267 11.0469 68.9704 ZM7.5938 67.2673 L11.0625 67.2673 Q11 66.4704 10.6719 66.0798 Q10.1562 65.4704 9.3594 65.4704 Q8.625 65.4704 8.1328 65.9548 Q7.6406 66.4392 7.5938 67.2673 ZM8.125 62.9704 L8.9062 61.3298 L10.2969 61.3298 L9 62.9704 L8.125 62.9704 ZM13.7969 73.3611 L13.7969 64.7517 L14.75 64.7517 L14.75 65.5486 Q15.0938 65.0798 15.5234 64.8454 Q15.9531 64.6111 16.5625 64.6111 Q17.3594 64.6111 17.9688 65.0173 Q18.5781 65.4236 18.8828 66.1736 Q19.1875 66.9236 19.1875 67.8142 Q19.1875 68.7673 18.8516 69.5329 Q18.5156 70.2986 17.8594 70.7048 Q17.2031 71.1111 16.4844 71.1111 Q15.9531 71.1111 15.5312 70.8845 Q15.1094 70.6579 14.8438 70.3298 L14.8438 73.3611 L13.7969 73.3611 ZM14.75 67.8923 Q14.75 69.0954 15.2344 69.6657 Q15.7188 70.2361 16.4062 70.2361 Q17.1094 70.2361 17.6094 69.6423 Q18.1094 69.0486 18.1094 67.7986 Q18.1094 66.6111 17.625 66.0251 Q17.1406 65.4392 16.4531 65.4392 Q15.7812 65.4392 15.2656 66.0642 Q14.75 66.6892 14.75 67.8923 ZM28.0469 68.9704 L29.1406 69.0954 Q28.8906 70.0486 28.1875 70.5798 Q27.4844 71.1111 26.4062 71.1111 Q25.0469 71.1111 24.2422 70.2673 Q23.4375 69.4236 23.4375 67.9079 Q23.4375 66.3454 24.25 65.4782 Q25.0625 64.6111 26.3438 64.6111 Q27.5938 64.6111 28.3828 65.4548 Q29.1719 66.2986 29.1719 67.8454 Q29.1719 67.9392 29.1719 68.1267 L24.5312 68.1267 Q24.5938 69.1579 25.1094 69.697 Q25.625 70.2361 26.4062 70.2361 Q26.9844 70.2361 27.3984 69.9314 Q27.8125 69.6267 28.0469 68.9704 ZM24.5938 67.2673 L28.0625 67.2673 Q28 66.4704 27.6719 66.0798 Q27.1562 65.4704 26.3594 65.4704 Q25.625 65.4704 25.1328 65.9548 Q24.6406 66.4392 24.5938 67.2673 ZM25.125 62.9704 L25.9062 61.3298 L27.2969 61.3298 L26 62.9704 L25.125 62.9704 ZM30.375 69.1111 L31.4062 68.9548 Q31.5 69.5798 31.8984 69.9079 Q32.2969 70.2361 33.0312 70.2361 Q33.75 70.2361 34.1016 69.947 Q34.4531 69.6579 34.4531 69.2517 Q34.4531 68.8923 34.1406 68.6892 Q33.9219 68.5486 33.0625 68.3298 Q31.9062 68.0329 31.4609 67.822 Q31.0156 67.6111 30.7812 67.2361 Q30.5469 66.8611 30.5469 66.3923 Q30.5469 65.9861 30.7344 65.6267 Q30.9219 65.2673 31.25 65.0329 Q31.5 64.8611 31.9219 64.7361 Q32.3438 64.6111 32.8438 64.6111 Q33.5625 64.6111 34.1172 64.822 Q34.6719 65.0329 34.9375 65.3923 Q35.2031 65.7517 35.2969 66.3454 L34.2656 66.4861 Q34.2031 66.0173 33.8672 65.7439 Q33.5312 65.4704 32.9062 65.4704 Q32.1875 65.4704 31.875 65.7126 Q31.5625 65.9548 31.5625 66.2829 Q31.5625 66.4861 31.6875 66.6423 Q31.8281 66.8142 32.0938 66.9236 Q32.25 66.9861 33.0312 67.1892 Q34.1562 67.5017 34.5938 67.6892 Q35.0312 67.8767 35.2812 68.2361 Q35.5312 68.5954 35.5312 69.1423 Q35.5312 69.6736 35.2266 70.1345 Q34.9219 70.5954 34.3438 70.8532 Q33.7656 71.1111 33.0312 71.1111 Q31.8125 71.1111 31.1797 70.6032 Q30.5469 70.0954 30.375 69.1111 ZM45.0469 68.9704 L46.1406 69.0954 Q45.8906 70.0486 45.1875 70.5798 Q44.4844 71.1111 43.4062 71.1111 Q42.0469 71.1111 41.2422 70.2673 Q40.4375 69.4236 40.4375 67.9079 Q40.4375 66.3454 41.25 65.4782 Q42.0625 64.6111 43.3438 64.6111 Q44.5938 64.6111 45.3828 65.4548 Q46.1719 66.2986 46.1719 67.8454 Q46.1719 67.9392 46.1719 68.1267 L41.5312 68.1267 Q41.5938 69.1579 42.1094 69.697 Q42.625 70.2361 43.4062 70.2361 Q43.9844 70.2361 44.3984 69.9314 Q44.8125 69.6267 45.0469 68.9704 ZM41.5938 67.2673 L45.0625 67.2673 Q45 66.4704 44.6719 66.0798 Q44.1562 65.4704 43.3594 65.4704 Q42.625 65.4704 42.1328 65.9548 Q41.6406 66.4392 41.5938 67.2673 ZM42.125 62.9704 L42.9062 61.3298 L44.2969 61.3298 L43 62.9704 L42.125 62.9704 ZM47.7969 73.3611 L47.7969 64.7517 L48.75 64.7517 L48.75 65.5486 Q49.0938 65.0798 49.5234 64.8454 Q49.9531 64.6111 50.5625 64.6111 Q51.3594 64.6111 51.9688 65.0173 Q52.5781 65.4236 52.8828 66.1736 Q53.1875 66.9236 53.1875 67.8142 Q53.1875 68.7673 52.8516 69.5329 Q52.5156 70.2986 51.8594 70.7048 Q51.2031 71.1111 50.4844 71.1111 Q49.9531 71.1111 49.5312 70.8845 Q49.1094 70.6579 48.8438 70.3298 L48.8438 73.3611 L47.7969 73.3611 ZM48.75 67.8923 Q48.75 69.0954 49.2344 69.6657 Q49.7188 70.2361 50.4062 70.2361 Q51.1094 70.2361 51.6094 69.6423 Q52.1094 69.0486 52.1094 67.7986 Q52.1094 66.6111 51.625 66.0251 Q51.1406 65.4392 50.4531 65.4392 Q49.7812 65.4392 49.2656 66.0642 Q48.75 66.6892 48.75 67.8923 ZM54.7969 73.3611 L54.7969 64.7517 L55.75 64.7517 L55.75 65.5486 Q56.0938 65.0798 56.5234 64.8454 Q56.9531 64.6111 57.5625 64.6111 Q58.3594 64.6111 58.9688 65.0173 Q59.5781 65.4236 59.8828 66.1736 Q60.1875 66.9236 60.1875 67.8142 Q60.1875 68.7673 59.8516 69.5329 Q59.5156 70.2986 58.8594 70.7048 Q58.2031 71.1111 57.4844 71.1111 Q56.9531 71.1111 56.5312 70.8845 Q56.1094 70.6579 55.8438 70.3298 L55.8438 73.3611 L54.7969 73.3611 ZM55.75 67.8923 Q55.75 69.0954 56.2344 69.6657 Q56.7188 70.2361 57.4062 70.2361 Q58.1094 70.2361 58.6094 69.6423 Q59.1094 69.0486 59.1094 67.7986 Q59.1094 66.6111 58.625 66.0251 Q58.1406 65.4392 57.4531 65.4392 Q56.7812 65.4392 56.2656 66.0642 Q55.75 66.6892 55.75 67.8923 ZM66.0469 68.9704 L67.1406 69.0954 Q66.8906 70.0486 66.1875 70.5798 Q65.4844 71.1111 64.4062 71.1111 Q63.0469 71.1111 62.2422 70.2673 Q61.4375 69.4236 61.4375 67.9079 Q61.4375 66.3454 62.25 65.4782 Q63.0625 64.6111 64.3438 64.6111 Q65.5938 64.6111 66.3828 65.4548 Q67.1719 66.2986 67.1719 67.8454 Q67.1719 67.9392 67.1719 68.1267 L62.5312 68.1267 Q62.5938 69.1579 63.1094 69.697 Q63.625 70.2361 64.4062 70.2361 Q64.9844 70.2361 65.3984 69.9314 Q65.8125 69.6267 66.0469 68.9704 ZM62.5938 67.2673 L66.0625 67.2673 Q66 66.4704 65.6719 66.0798 Q65.1562 65.4704 64.3594 65.4704 Q63.625 65.4704 63.1328 65.9548 Q62.6406 66.4392 62.5938 67.2673 ZM68.7969 70.9704 L68.7969 64.7517 L69.7344 64.7517 L69.7344 65.6267 Q70.4219 64.6111 71.7188 64.6111 Q72.2812 64.6111 72.7578 64.8142 Q73.2344 65.0173 73.4688 65.3454 Q73.7031 65.6736 73.7969 66.1111 Q73.8438 66.4079 73.8438 67.1423 L73.8438 70.9704 L72.7969 70.9704 L72.7969 67.1892 Q72.7969 66.5329 72.6719 66.2204 Q72.5469 65.9079 72.2344 65.7126 Q71.9219 65.5173 71.5 65.5173 Q70.8281 65.5173 70.3359 65.947 Q69.8438 66.3767 69.8438 67.5642 L69.8438 70.9704 L68.7969 70.9704 ZM79.0469 70.9704 L79.0469 65.5642 L78.1094 65.5642 L78.1094 64.7517 L79.0469 64.7517 L79.0469 64.0798 Q79.0469 63.4548 79.1562 63.1579 Q79.3125 62.7361 79.6953 62.4861 Q80.0781 62.2361 80.7656 62.2361 Q81.2188 62.2361 81.75 62.3454 L81.5938 63.2517 Q81.2656 63.2048 80.9688 63.2048 Q80.4844 63.2048 80.2891 63.4079 Q80.0938 63.6111 80.0938 64.1736 L80.0938 64.7517 L81.3125 64.7517 L81.3125 65.5642 L80.0938 65.5642 L80.0938 70.9704 L79.0469 70.9704 ZM86.0469 68.9704 L87.1406 69.0954 Q86.8906 70.0486 86.1875 70.5798 Q85.4844 71.1111 84.4062 71.1111 Q83.0469 71.1111 82.2422 70.2673 Q81.4375 69.4236 81.4375 67.9079 Q81.4375 66.3454 82.25 65.4782 Q83.0625 64.6111 84.3438 64.6111 Q85.5938 64.6111 86.3828 65.4548 Q87.1719 66.2986 87.1719 67.8454 Q87.1719 67.9392 87.1719 68.1267 L82.5312 68.1267 Q82.5938 69.1579 83.1094 69.697 Q83.625 70.2361 84.4062 70.2361 Q84.9844 70.2361 85.3984 69.9314 Q85.8125 69.6267 86.0469 68.9704 ZM82.5938 67.2673 L86.0625 67.2673 Q86 66.4704 85.6719 66.0798 Q85.1562 65.4704 84.3594 65.4704 Q83.625 65.4704 83.1328 65.9548 Q82.6406 66.4392 82.5938 67.2673 ZM88.7656 70.9704 L88.7656 62.3767 L89.8281 62.3767 L89.8281 70.9704 L88.7656 70.9704 ZM92.0469 70.9704 L92.0469 65.5642 L91.1094 65.5642 L91.1094 64.7517 L92.0469 64.7517 L92.0469 64.0798 Q92.0469 63.4548 92.1562 63.1579 Q92.3125 62.7361 92.6953 62.4861 Q93.0781 62.2361 93.7656 62.2361 Q94.2188 62.2361 94.75 62.3454 L94.5938 63.2517 Q94.2656 63.2048 93.9688 63.2048 Q93.4844 63.2048 93.2891 63.4079 Q93.0938 63.6111 93.0938 64.1736 L93.0938 64.7517 L94.3125 64.7517 L94.3125 65.5642 L93.0938 65.5642 L93.0938 70.9704 L92.0469 70.9704 ZM98.875 70.9704 L98.875 70.0486 Q98.1406 71.1111 96.8906 71.1111 Q96.3438 71.1111 95.8672 70.9001 Q95.3906 70.6892 95.1562 70.3689 Q94.9219 70.0486 94.8281 69.5798 Q94.7656 69.2829 94.7656 68.5954 L94.7656 64.7517 L95.8281 64.7517 L95.8281 68.2048 Q95.8281 69.0173 95.8906 69.3142 Q95.9844 69.7204 96.3047 69.9626 Q96.625 70.2048 97.1094 70.2048 Q97.5781 70.2048 97.9922 69.9626 Q98.4062 69.7204 98.5859 69.2986 Q98.7656 68.8767 98.7656 68.0798 L98.7656 64.7517 L99.8125 64.7517 L99.8125 70.9704 L98.875 70.9704 ZM104.0938 70.0329 L104.25 70.9548 Q103.7969 71.0486 103.4531 71.0486 Q102.875 71.0486 102.5625 70.8689 Q102.25 70.6892 102.1172 70.3923 Q101.9844 70.0954 101.9844 69.1423 L101.9844 65.5642 L101.2188 65.5642 L101.2188 64.7517 L101.9844 64.7517 L101.9844 63.2048 L103.0312 62.5798 L103.0312 64.7517 L104.0938 64.7517 L104.0938 65.5642 L103.0312 65.5642 L103.0312 69.2048 Q103.0312 69.6579 103.0859 69.7829 Q103.1406 69.9079 103.2656 69.9861 Q103.3906 70.0642 103.625 70.0642 Q103.8125 70.0642 104.0938 70.0329 ZM104.4062 67.8611 Q104.4062 66.1267 105.3594 65.2986 Q106.1562 64.6111 107.3125 64.6111 Q108.5938 64.6111 109.4141 65.447 Q110.2344 66.2829 110.2344 67.7673 Q110.2344 68.9704 109.875 69.6579 Q109.5156 70.3454 108.8203 70.7282 Q108.125 71.1111 107.3125 71.1111 Q106.0156 71.1111 105.2109 70.2751 Q104.4062 69.4392 104.4062 67.8611 ZM105.4844 67.8611 Q105.4844 69.0486 106.0078 69.6423 Q106.5312 70.2361 107.3125 70.2361 Q108.1094 70.2361 108.625 69.6423 Q109.1406 69.0486 109.1406 67.8298 Q109.1406 66.6736 108.6172 66.0798 Q108.0938 65.4861 107.3125 65.4861 Q106.5312 65.4861 106.0078 66.072 Q105.4844 66.6579 105.4844 67.8611 ZM106.125 62.9704 L106.9062 61.3298 L108.2969 61.3298 L107 62.9704 L106.125 62.9704 ZM119.0469 68.9704 L120.1406 69.0954 Q119.8906 70.0486 119.1875 70.5798 Q118.4844 71.1111 117.4062 71.1111 Q116.0469 71.1111 115.2422 70.2673 Q114.4375 69.4236 114.4375 67.9079 Q114.4375 66.3454 115.25 65.4782 Q116.0625 64.6111 117.3438 64.6111 Q118.5938 64.6111 119.3828 65.4548 Q120.1719 66.2986 120.1719 67.8454 Q120.1719 67.9392 120.1719 68.1267 L115.5312 68.1267 Q115.5938 69.1579 116.1094 69.697 Q116.625 70.2361 117.4062 70.2361 Q117.9844 70.2361 118.3984 69.9314 Q118.8125 69.6267 119.0469 68.9704 ZM115.5938 67.2673 L119.0625 67.2673 Q119 66.4704 118.6719 66.0798 Q118.1562 65.4704 117.3594 65.4704 Q116.625 65.4704 116.1328 65.9548 Q115.6406 66.4392 115.5938 67.2673 ZM116.125 62.9704 L116.9062 61.3298 L118.2969 61.3298 L117 62.9704 L116.125 62.9704 ZM121.7656 70.9704 L121.7656 62.3767 L122.8281 62.3767 L122.8281 70.9704 L121.7656 70.9704 ZM127.0938 70.0329 L127.25 70.9548 Q126.7969 71.0486 126.4531 71.0486 Q125.875 71.0486 125.5625 70.8689 Q125.25 70.6892 125.1172 70.3923 Q124.9844 70.0954 124.9844 69.1423 L124.9844 65.5642 L124.2188 65.5642 L124.2188 64.7517 L124.9844 64.7517 L124.9844 63.2048 L126.0312 62.5798 L126.0312 64.7517 L127.0938 64.7517 L127.0938 65.5642 L126.0312 65.5642 L126.0312 69.2048 Q126.0312 69.6579 126.0859 69.7829 Q126.1406 69.9079 126.2656 69.9861 Q126.3906 70.0642 126.625 70.0642 Q126.8125 70.0642 127.0938 70.0329 ZM130.5938 71.4861 L131.625 71.6423 Q131.6875 72.1111 131.9844 72.3298 Q132.375 72.6267 133.0469 72.6267 Q133.7812 72.6267 134.1797 72.3298 Q134.5781 72.0329 134.7188 71.5173 Q134.8125 71.1892 134.7969 70.1579 Q134.1094 70.9704 133.0781 70.9704 Q131.7969 70.9704 131.0938 70.0407 Q130.3906 69.1111 130.3906 67.8298 Q130.3906 66.9392 130.7109 66.1814 Q131.0312 65.4236 131.6406 65.0173 Q132.25 64.6111 133.0781 64.6111 Q134.1875 64.6111 134.9062 65.5017 L134.9062 64.7517 L135.875 64.7517 L135.875 70.1267 Q135.875 71.5798 135.5781 72.1892 Q135.2812 72.7986 134.6406 73.1501 Q134 73.5017 133.0625 73.5017 Q131.9531 73.5017 131.2656 73.0017 Q130.5781 72.5017 130.5938 71.4861 ZM131.4688 67.7517 Q131.4688 68.9704 131.9531 69.5329 Q132.4375 70.0954 133.1719 70.0954 Q133.9062 70.0954 134.3984 69.5329 Q134.8906 68.9704 134.8906 67.7829 Q134.8906 66.6423 134.3828 66.0642 Q133.875 65.4861 133.1562 65.4861 Q132.4531 65.4861 131.9609 66.0564 Q131.4688 66.6267 131.4688 67.7517 ZM142.0469 68.9704 L143.1406 69.0954 Q142.8906 70.0486 142.1875 70.5798 Q141.4844 71.1111 140.4062 71.1111 Q139.0469 71.1111 138.2422 70.2673 Q137.4375 69.4236 137.4375 67.9079 Q137.4375 66.3454 138.25 65.4782 Q139.0625 64.6111 140.3438 64.6111 Q141.5938 64.6111 142.3828 65.4548 Q143.1719 66.2986 143.1719 67.8454 Q143.1719 67.9392 143.1719 68.1267 L138.5312 68.1267 Q138.5938 69.1579 139.1094 69.697 Q139.625 70.2361 140.4062 70.2361 Q140.9844 70.2361 141.3984 69.9314 Q141.8125 69.6267 142.0469 68.9704 ZM138.5938 67.2673 L142.0625 67.2673 Q142 66.4704 141.6719 66.0798 Q141.1562 65.4704 140.3594 65.4704 Q139.625 65.4704 139.1328 65.9548 Q138.6406 66.4392 138.5938 67.2673 ZM144.7969 70.9704 L144.7969 64.7517 L145.7344 64.7517 L145.7344 65.6267 Q146.4219 64.6111 147.7188 64.6111 Q148.2812 64.6111 148.7578 64.8142 Q149.2344 65.0173 149.4688 65.3454 Q149.7031 65.6736 149.7969 66.1111 Q149.8438 66.4079 149.8438 67.1423 L149.8438 70.9704 L148.7969 70.9704 L148.7969 67.1892 Q148.7969 66.5329 148.6719 66.2204 Q148.5469 65.9079 148.2344 65.7126 Q147.9219 65.5173 147.5 65.5173 Q146.8281 65.5173 146.3359 65.947 Q145.8438 66.3767 145.8438 67.5642 L145.8438 70.9704 L144.7969 70.9704 ZM156.0469 68.9704 L157.1406 69.0954 Q156.8906 70.0486 156.1875 70.5798 Q155.4844 71.1111 154.4062 71.1111 Q153.0469 71.1111 152.2422 70.2673 Q151.4375 69.4236 151.4375 67.9079 Q151.4375 66.3454 152.25 65.4782 Q153.0625 64.6111 154.3438 64.6111 Q155.5938 64.6111 156.3828 65.4548 Q157.1719 66.2986 157.1719 67.8454 Q157.1719 67.9392 157.1719 68.1267 L152.5312 68.1267 Q152.5938 69.1579 153.1094 69.697 Q153.625 70.2361 154.4062 70.2361 Q154.9844 70.2361 155.3984 69.9314 Q155.8125 69.6267 156.0469 68.9704 ZM152.5938 67.2673 L156.0625 67.2673 Q156 66.4704 155.6719 66.0798 Q155.1562 65.4704 154.3594 65.4704 Q153.625 65.4704 153.1328 65.9548 Q152.6406 66.4392 152.5938 67.2673 ZM158.7812 70.9704 L158.7812 64.7517 L159.7344 64.7517 L159.7344 65.6892 Q160.0938 65.0329 160.3984 64.822 Q160.7031 64.6111 161.0781 64.6111 Q161.6094 64.6111 162.1562 64.9392 L161.7969 65.9236 Q161.4062 65.6892 161.0312 65.6892 Q160.6719 65.6892 160.3984 65.9001 Q160.125 66.1111 160.0156 66.4861 Q159.8281 67.0486 159.8281 67.7048 L159.8281 70.9704 L158.7812 70.9704 ZM166.8594 70.2048 Q166.2656 70.7048 165.7266 70.9079 Q165.1875 71.1111 164.5625 71.1111 Q163.5312 71.1111 162.9844 70.6111 Q162.4375 70.1111 162.4375 69.3298 Q162.4375 68.8767 162.6406 68.4939 Q162.8438 68.1111 163.1875 67.8845 Q163.5312 67.6579 163.9531 67.5486 Q164.25 67.4548 164.8906 67.3767 Q166.1562 67.2361 166.7656 67.0173 Q166.7656 66.7986 166.7656 66.7517 Q166.7656 66.0954 166.4688 65.8298 Q166.0625 65.4861 165.2656 65.4861 Q164.5312 65.4861 164.1719 65.7439 Q163.8125 66.0017 163.6406 66.6579 L162.6094 66.5173 Q162.75 65.8611 163.0781 65.4548 Q163.4062 65.0486 164.0156 64.8298 Q164.625 64.6111 165.4219 64.6111 Q166.2188 64.6111 166.7188 64.7986 Q167.2188 64.9861 167.4531 65.2673 Q167.6875 65.5486 167.7812 65.9861 Q167.8281 66.2517 167.8281 66.9548 L167.8281 68.3611 Q167.8281 69.8298 167.8984 70.2204 Q167.9688 70.6111 168.1719 70.9704 L167.0625 70.9704 Q166.9062 70.6423 166.8594 70.2048 ZM166.7656 67.8454 Q166.1875 68.0798 165.0469 68.2517 Q164.3906 68.3454 164.125 68.4626 Q163.8594 68.5798 163.7109 68.7986 Q163.5625 69.0173 163.5625 69.2986 Q163.5625 69.7204 163.8828 70.0017 Q164.2031 70.2829 164.8125 70.2829 Q165.4219 70.2829 165.8984 70.0173 Q166.375 69.7517 166.5938 69.2829 Q166.7656 68.9236 166.7656 68.2361 L166.7656 67.8454 ZM164.125 62.9704 L164.9062 61.3298 L166.2969 61.3298 L165 62.9704 L164.125 62.9704 ZM169.7656 70.9704 L169.7656 62.3767 L170.8281 62.3767 L170.8281 70.9704 L169.7656 70.9704 ZM173.0625 70.9704 L173.0625 69.7673 L174.2656 69.7673 L174.2656 70.9704 Q174.2656 71.6267 174.0312 72.0407 Q173.7969 72.4548 173.2969 72.6736 L173 72.2204 Q173.3281 72.0798 173.4844 71.7907 Q173.6406 71.5017 173.6719 70.9704 L173.0625 70.9704 Z" style="clip-path:url(#clipPath12); stroke:none;" />
      <path d="M7.8594 84.2048 Q7.2656 84.7048 6.7266 84.9079 Q6.1875 85.1111 5.5625 85.1111 Q4.5312 85.1111 3.9844 84.6111 Q3.4375 84.1111 3.4375 83.3298 Q3.4375 82.8767 3.6406 82.4939 Q3.8438 82.1111 4.1875 81.8845 Q4.5312 81.6579 4.9531 81.5486 Q5.25 81.4548 5.8906 81.3767 Q7.1562 81.2361 7.7656 81.0173 Q7.7656 80.7986 7.7656 80.7517 Q7.7656 80.0954 7.4688 79.8298 Q7.0625 79.4861 6.2656 79.4861 Q5.5312 79.4861 5.1719 79.7439 Q4.8125 80.0017 4.6406 80.6579 L3.6094 80.5173 Q3.75 79.8611 4.0781 79.4548 Q4.4062 79.0486 5.0156 78.8298 Q5.625 78.6111 6.4219 78.6111 Q7.2188 78.6111 7.7188 78.7986 Q8.2188 78.9861 8.4531 79.2673 Q8.6875 79.5486 8.7812 79.9861 Q8.8281 80.2517 8.8281 80.9548 L8.8281 82.3611 Q8.8281 83.8298 8.8984 84.2204 Q8.9688 84.6111 9.1719 84.9704 L8.0625 84.9704 Q7.9062 84.6423 7.8594 84.2048 ZM7.7656 81.8454 Q7.1875 82.0798 6.0469 82.2517 Q5.3906 82.3454 5.125 82.4626 Q4.8594 82.5798 4.7109 82.7986 Q4.5625 83.0173 4.5625 83.2986 Q4.5625 83.7204 4.8828 84.0017 Q5.2031 84.2829 5.8125 84.2829 Q6.4219 84.2829 6.8984 84.0173 Q7.375 83.7517 7.5938 83.2829 Q7.7656 82.9236 7.7656 82.2361 L7.7656 81.8454 ZM10.7969 84.9704 L10.7969 76.3767 L11.8594 76.3767 L11.8594 81.2829 L14.3438 78.7517 L15.7188 78.7517 L13.3281 81.0486 L15.9531 84.9704 L14.6562 84.9704 L12.5938 81.7829 L11.8594 82.5017 L11.8594 84.9704 L10.7969 84.9704 ZM16.7969 84.9704 L16.7969 76.3767 L17.8594 76.3767 L17.8594 81.2829 L20.3438 78.7517 L21.7188 78.7517 L19.3281 81.0486 L21.9531 84.9704 L20.6562 84.9704 L18.5938 81.7829 L17.8594 82.5017 L17.8594 84.9704 L16.7969 84.9704 ZM22.4062 81.8611 Q22.4062 80.1267 23.3594 79.2986 Q24.1562 78.6111 25.3125 78.6111 Q26.5938 78.6111 27.4141 79.447 Q28.2344 80.2829 28.2344 81.7673 Q28.2344 82.9704 27.875 83.6579 Q27.5156 84.3454 26.8203 84.7282 Q26.125 85.1111 25.3125 85.1111 Q24.0156 85.1111 23.2109 84.2751 Q22.4062 83.4392 22.4062 81.8611 ZM23.4844 81.8611 Q23.4844 83.0486 24.0078 83.6423 Q24.5312 84.2361 25.3125 84.2361 Q26.1094 84.2361 26.625 83.6423 Q27.1406 83.0486 27.1406 81.8298 Q27.1406 80.6736 26.6172 80.0798 Q26.0938 79.4861 25.3125 79.4861 Q24.5312 79.4861 24.0078 80.072 Q23.4844 80.6579 23.4844 81.8611 ZM29.7812 84.9704 L29.7812 78.7517 L30.7344 78.7517 L30.7344 79.6892 Q31.0938 79.0329 31.3984 78.822 Q31.7031 78.6111 32.0781 78.6111 Q32.6094 78.6111 33.1562 78.9392 L32.7969 79.9236 Q32.4062 79.6892 32.0312 79.6892 Q31.6719 79.6892 31.3984 79.9001 Q31.125 80.1111 31.0156 80.4861 Q30.8281 81.0486 30.8281 81.7048 L30.8281 84.9704 L29.7812 84.9704 ZM37.0469 84.9704 L37.0469 79.5642 L36.1094 79.5642 L36.1094 78.7517 L37.0469 78.7517 L37.0469 78.0798 Q37.0469 77.4548 37.1562 77.1579 Q37.3125 76.7361 37.6953 76.4861 Q38.0781 76.2361 38.7656 76.2361 Q39.2188 76.2361 39.75 76.3454 L39.5938 77.2517 Q39.2656 77.2048 38.9688 77.2048 Q38.4844 77.2048 38.2891 77.4079 Q38.0938 77.6111 38.0938 78.1736 L38.0938 78.7517 L39.3125 78.7517 L39.3125 79.5642 L38.0938 79.5642 L38.0938 84.9704 L37.0469 84.9704 ZM39.7969 77.5954 L39.7969 76.3767 L40.8594 76.3767 L40.8594 77.5954 L39.7969 77.5954 ZM39.7969 84.9704 L39.7969 78.7517 L40.8594 78.7517 L40.8594 84.9704 L39.7969 84.9704 ZM42.5938 85.4861 L43.625 85.6423 Q43.6875 86.1111 43.9844 86.3298 Q44.375 86.6267 45.0469 86.6267 Q45.7812 86.6267 46.1797 86.3298 Q46.5781 86.0329 46.7188 85.5173 Q46.8125 85.1892 46.7969 84.1579 Q46.1094 84.9704 45.0781 84.9704 Q43.7969 84.9704 43.0938 84.0407 Q42.3906 83.1111 42.3906 81.8298 Q42.3906 80.9392 42.7109 80.1814 Q43.0312 79.4236 43.6406 79.0173 Q44.25 78.6111 45.0781 78.6111 Q46.1875 78.6111 46.9062 79.5017 L46.9062 78.7517 L47.875 78.7517 L47.875 84.1267 Q47.875 85.5798 47.5781 86.1892 Q47.2812 86.7986 46.6406 87.1501 Q46 87.5017 45.0625 87.5017 Q43.9531 87.5017 43.2656 87.0017 Q42.5781 86.5017 42.5938 85.4861 ZM43.4688 81.7517 Q43.4688 82.9704 43.9531 83.5329 Q44.4375 84.0954 45.1719 84.0954 Q45.9062 84.0954 46.3984 83.5329 Q46.8906 82.9704 46.8906 81.7829 Q46.8906 80.6423 46.3828 80.0642 Q45.875 79.4861 45.1562 79.4861 Q44.4531 79.4861 43.9609 80.0564 Q43.4688 80.6267 43.4688 81.7517 ZM49.75 87.3611 L49.625 86.3767 Q49.9688 86.4704 50.2344 86.4704 Q50.5781 86.4704 50.7891 86.3532 Q51 86.2361 51.1406 86.0329 Q51.2344 85.8611 51.4688 85.2361 Q51.4844 85.1579 51.5625 84.9861 L49.1875 78.7517 L50.3281 78.7517 L51.625 82.3454 Q51.875 83.0329 52.0781 83.7986 Q52.2656 83.0642 52.5156 82.3767 L53.8438 78.7517 L54.8906 78.7517 L52.5312 85.0798 Q52.1406 86.0954 51.9375 86.4861 Q51.6562 87.0173 51.2891 87.2595 Q50.9219 87.5017 50.4219 87.5017 Q50.125 87.5017 49.75 87.3611 ZM59.0469 82.9704 L60.1406 83.0954 Q59.8906 84.0486 59.1875 84.5798 Q58.4844 85.1111 57.4062 85.1111 Q56.0469 85.1111 55.2422 84.2673 Q54.4375 83.4236 54.4375 81.9079 Q54.4375 80.3454 55.25 79.4782 Q56.0625 78.6111 57.3438 78.6111 Q58.5938 78.6111 59.3828 79.4548 Q60.1719 80.2986 60.1719 81.8454 Q60.1719 81.9392 60.1719 82.1267 L55.5312 82.1267 Q55.5938 83.1579 56.1094 83.697 Q56.625 84.2361 57.4062 84.2361 Q57.9844 84.2361 58.3984 83.9314 Q58.8125 83.6267 59.0469 82.9704 ZM55.5938 81.2673 L59.0625 81.2673 Q59 80.4704 58.6719 80.0798 Q58.1562 79.4704 57.3594 79.4704 Q56.625 79.4704 56.1328 79.9548 Q55.6406 80.4392 55.5938 81.2673 ZM61.7656 84.9704 L61.7656 76.3767 L62.8281 76.3767 L62.8281 84.9704 L61.7656 84.9704 ZM64.7969 84.9704 L64.7969 78.7517 L65.7344 78.7517 L65.7344 79.6267 Q66.0312 79.1579 66.5156 78.8845 Q67 78.6111 67.625 78.6111 Q68.3125 78.6111 68.7578 78.8923 Q69.2031 79.1736 69.375 79.6892 Q70.125 78.6111 71.2969 78.6111 Q72.2344 78.6111 72.7266 79.1189 Q73.2188 79.6267 73.2188 80.7048 L73.2188 84.9704 L72.1719 84.9704 L72.1719 81.0486 Q72.1719 80.4236 72.0703 80.1423 Q71.9688 79.8611 71.7031 79.6892 Q71.4375 79.5173 71.0625 79.5173 Q70.4062 79.5173 69.9766 79.9548 Q69.5469 80.3923 69.5469 81.3611 L69.5469 84.9704 L68.4844 84.9704 L68.4844 80.9236 Q68.4844 80.2204 68.2266 79.8689 Q67.9688 79.5173 67.3906 79.5173 Q66.9375 79.5173 66.5625 79.7517 Q66.1875 79.9861 66.0156 80.4392 Q65.8438 80.8923 65.8438 81.7361 L65.8438 84.9704 L64.7969 84.9704 ZM80.0469 82.9704 L81.1406 83.0954 Q80.8906 84.0486 80.1875 84.5798 Q79.4844 85.1111 78.4062 85.1111 Q77.0469 85.1111 76.2422 84.2673 Q75.4375 83.4236 75.4375 81.9079 Q75.4375 80.3454 76.25 79.4782 Q77.0625 78.6111 78.3438 78.6111 Q79.5938 78.6111 80.3828 79.4548 Q81.1719 80.2986 81.1719 81.8454 Q81.1719 81.9392 81.1719 82.1267 L76.5312 82.1267 Q76.5938 83.1579 77.1094 83.697 Q77.625 84.2361 78.4062 84.2361 Q78.9844 84.2361 79.3984 83.9314 Q79.8125 83.6267 80.0469 82.9704 ZM76.5938 81.2673 L80.0625 81.2673 Q80 80.4704 79.6719 80.0798 Q79.1562 79.4704 78.3594 79.4704 Q77.625 79.4704 77.1328 79.9548 Q76.6406 80.4392 76.5938 81.2673 ZM82.2344 84.9704 L82.2344 84.1111 L86.2031 79.5642 Q85.5156 79.5954 85 79.5954 L82.4688 79.5954 L82.4688 78.7517 L87.5625 78.7517 L87.5625 79.4392 L84.1875 83.3923 L83.5312 84.1111 Q84.25 84.0642 84.8594 84.0642 L87.75 84.0642 L87.75 84.9704 L82.2344 84.9704 ZM90.0938 84.0329 L90.25 84.9548 Q89.7969 85.0486 89.4531 85.0486 Q88.875 85.0486 88.5625 84.8689 Q88.25 84.6892 88.1172 84.3923 Q87.9844 84.0954 87.9844 83.1423 L87.9844 79.5642 L87.2188 79.5642 L87.2188 78.7517 L87.9844 78.7517 L87.9844 77.2048 L89.0312 76.5798 L89.0312 78.7517 L90.0938 78.7517 L90.0938 79.5642 L89.0312 79.5642 L89.0312 83.2048 Q89.0312 83.6579 89.0859 83.7829 Q89.1406 83.9079 89.2656 83.9861 Q89.3906 84.0642 89.625 84.0642 Q89.8125 84.0642 90.0938 84.0329 ZM95.0469 82.9704 L96.1406 83.0954 Q95.8906 84.0486 95.1875 84.5798 Q94.4844 85.1111 93.4062 85.1111 Q92.0469 85.1111 91.2422 84.2673 Q90.4375 83.4236 90.4375 81.9079 Q90.4375 80.3454 91.25 79.4782 Q92.0625 78.6111 93.3438 78.6111 Q94.5938 78.6111 95.3828 79.4548 Q96.1719 80.2986 96.1719 81.8454 Q96.1719 81.9392 96.1719 82.1267 L91.5312 82.1267 Q91.5938 83.1579 92.1094 83.697 Q92.625 84.2361 93.4062 84.2361 Q93.9844 84.2361 94.3984 83.9314 Q94.8125 83.6267 95.0469 82.9704 ZM91.5938 81.2673 L95.0625 81.2673 Q95 80.4704 94.6719 80.0798 Q94.1562 79.4704 93.3594 79.4704 Q92.625 79.4704 92.1328 79.9548 Q91.6406 80.4392 91.5938 81.2673 ZM97.375 83.1111 L98.4062 82.9548 Q98.5 83.5798 98.8984 83.9079 Q99.2969 84.2361 100.0312 84.2361 Q100.75 84.2361 101.1016 83.947 Q101.4531 83.6579 101.4531 83.2517 Q101.4531 82.8923 101.1406 82.6892 Q100.9219 82.5486 100.0625 82.3298 Q98.9062 82.0329 98.4609 81.822 Q98.0156 81.6111 97.7812 81.2361 Q97.5469 80.8611 97.5469 80.3923 Q97.5469 79.9861 97.7344 79.6267 Q97.9219 79.2673 98.25 79.0329 Q98.5 78.8611 98.9219 78.7361 Q99.3438 78.6111 99.8438 78.6111 Q100.5625 78.6111 101.1172 78.822 Q101.6719 79.0329 101.9375 79.3923 Q102.2031 79.7517 102.2969 80.3454 L101.2656 80.4861 Q101.2031 80.0173 100.8672 79.7439 Q100.5312 79.4704 99.9062 79.4704 Q99.1875 79.4704 98.875 79.7126 Q98.5625 79.9548 98.5625 80.2829 Q98.5625 80.4861 98.6875 80.6423 Q98.8281 80.8142 99.0938 80.9236 Q99.25 80.9861 100.0312 81.1892 Q101.1562 81.5017 101.5938 81.6892 Q102.0312 81.8767 102.2812 82.2361 Q102.5312 82.5954 102.5312 83.1423 Q102.5312 83.6736 102.2266 84.1345 Q101.9219 84.5954 101.3438 84.8532 Q100.7656 85.1111 100.0312 85.1111 Q98.8125 85.1111 98.1797 84.6032 Q97.5469 84.0954 97.375 83.1111 ZM104.375 83.1111 L105.4062 82.9548 Q105.5 83.5798 105.8984 83.9079 Q106.2969 84.2361 107.0312 84.2361 Q107.75 84.2361 108.1016 83.947 Q108.4531 83.6579 108.4531 83.2517 Q108.4531 82.8923 108.1406 82.6892 Q107.9219 82.5486 107.0625 82.3298 Q105.9062 82.0329 105.4609 81.822 Q105.0156 81.6111 104.7812 81.2361 Q104.5469 80.8611 104.5469 80.3923 Q104.5469 79.9861 104.7344 79.6267 Q104.9219 79.2673 105.25 79.0329 Q105.5 78.8611 105.9219 78.7361 Q106.3438 78.6111 106.8438 78.6111 Q107.5625 78.6111 108.1172 78.822 Q108.6719 79.0329 108.9375 79.3923 Q109.2031 79.7517 109.2969 80.3454 L108.2656 80.4861 Q108.2031 80.0173 107.8672 79.7439 Q107.5312 79.4704 106.9062 79.4704 Q106.1875 79.4704 105.875 79.7126 Q105.5625 79.9548 105.5625 80.2829 Q105.5625 80.4861 105.6875 80.6423 Q105.8281 80.8142 106.0938 80.9236 Q106.25 80.9861 107.0312 81.1892 Q108.1562 81.5017 108.5938 81.6892 Q109.0312 81.8767 109.2812 82.2361 Q109.5312 82.5954 109.5312 83.1423 Q109.5312 83.6736 109.2266 84.1345 Q108.9219 84.5954 108.3438 84.8532 Q107.7656 85.1111 107.0312 85.1111 Q105.8125 85.1111 105.1797 84.6032 Q104.5469 84.0954 104.375 83.1111 ZM116.0469 82.9704 L117.1406 83.0954 Q116.8906 84.0486 116.1875 84.5798 Q115.4844 85.1111 114.4062 85.1111 Q113.0469 85.1111 112.2422 84.2673 Q111.4375 83.4236 111.4375 81.9079 Q111.4375 80.3454 112.25 79.4782 Q113.0625 78.6111 114.3438 78.6111 Q115.5938 78.6111 116.3828 79.4548 Q117.1719 80.2986 117.1719 81.8454 Q117.1719 81.9392 117.1719 82.1267 L112.5312 82.1267 Q112.5938 83.1579 113.1094 83.697 Q113.625 84.2361 114.4062 84.2361 Q114.9844 84.2361 115.3984 83.9314 Q115.8125 83.6267 116.0469 82.9704 ZM112.5938 81.2673 L116.0625 81.2673 Q116 80.4704 115.6719 80.0798 Q115.1562 79.4704 114.3594 79.4704 Q113.625 79.4704 113.1328 79.9548 Q112.6406 80.4392 112.5938 81.2673 ZM125.8594 84.2048 Q125.2656 84.7048 124.7266 84.9079 Q124.1875 85.1111 123.5625 85.1111 Q122.5312 85.1111 121.9844 84.6111 Q121.4375 84.1111 121.4375 83.3298 Q121.4375 82.8767 121.6406 82.4939 Q121.8438 82.1111 122.1875 81.8845 Q122.5312 81.6579 122.9531 81.5486 Q123.25 81.4548 123.8906 81.3767 Q125.1562 81.2361 125.7656 81.0173 Q125.7656 80.7986 125.7656 80.7517 Q125.7656 80.0954 125.4688 79.8298 Q125.0625 79.4861 124.2656 79.4861 Q123.5312 79.4861 123.1719 79.7439 Q122.8125 80.0017 122.6406 80.6579 L121.6094 80.5173 Q121.75 79.8611 122.0781 79.4548 Q122.4062 79.0486 123.0156 78.8298 Q123.625 78.6111 124.4219 78.6111 Q125.2188 78.6111 125.7188 78.7986 Q126.2188 78.9861 126.4531 79.2673 Q126.6875 79.5486 126.7812 79.9861 Q126.8281 80.2517 126.8281 80.9548 L126.8281 82.3611 Q126.8281 83.8298 126.8984 84.2204 Q126.9688 84.6111 127.1719 84.9704 L126.0625 84.9704 Q125.9062 84.6423 125.8594 84.2048 ZM125.7656 81.8454 Q125.1875 82.0798 124.0469 82.2517 Q123.3906 82.3454 123.125 82.4626 Q122.8594 82.5798 122.7109 82.7986 Q122.5625 83.0173 122.5625 83.2986 Q122.5625 83.7204 122.8828 84.0017 Q123.2031 84.2829 123.8125 84.2829 Q124.4219 84.2829 124.8984 84.0173 Q125.375 83.7517 125.5938 83.2829 Q125.7656 82.9236 125.7656 82.2361 L125.7656 81.8454 ZM128.2344 84.9704 L128.2344 84.1111 L132.2031 79.5642 Q131.5156 79.5954 131 79.5954 L128.4688 79.5954 L128.4688 78.7517 L133.5625 78.7517 L133.5625 79.4392 L130.1875 83.3923 L129.5312 84.1111 Q130.25 84.0642 130.8594 84.0642 L133.75 84.0642 L133.75 84.9704 L128.2344 84.9704 ZM136.9844 84.9704 L136.9844 76.3767 L142.7812 76.3767 L142.7812 77.3923 L138.125 77.3923 L138.125 80.0486 L142.1562 80.0486 L142.1562 81.0642 L138.125 81.0642 L138.125 84.9704 L136.9844 84.9704 ZM143.9844 84.9704 L143.9844 76.3767 L149.7812 76.3767 L149.7812 77.3923 L145.125 77.3923 L145.125 80.0486 L149.1562 80.0486 L149.1562 81.0642 L145.125 81.0642 L145.125 84.9704 L143.9844 84.9704 ZM150.375 82.3923 L150.375 81.3298 L153.625 81.3298 L153.625 82.3923 L150.375 82.3923 ZM157.0938 84.0329 L157.25 84.9548 Q156.7969 85.0486 156.4531 85.0486 Q155.875 85.0486 155.5625 84.8689 Q155.25 84.6892 155.1172 84.3923 Q154.9844 84.0954 154.9844 83.1423 L154.9844 79.5642 L154.2188 79.5642 L154.2188 78.7517 L154.9844 78.7517 L154.9844 77.2048 L156.0312 76.5798 L156.0312 78.7517 L157.0938 78.7517 L157.0938 79.5642 L156.0312 79.5642 L156.0312 83.2048 Q156.0312 83.6579 156.0859 83.7829 Q156.1406 83.9079 156.2656 83.9861 Q156.3906 84.0642 156.625 84.0642 Q156.8125 84.0642 157.0938 84.0329 ZM158.0938 84.9704 L158.0938 83.7673 L159.2969 83.7673 L159.2969 84.9704 L158.0938 84.9704 Z" style="clip-path:url(#clipPath12); stroke:none;" />
    </g>
    <g style="text-rendering:geometricPrecision; font-size:11; font-family:sans-serif;" transform="translate(370,34)">
      <text x="34" y="12" style="clip-path:url(#clipPath13); stroke:none;" xml:space="preserve">component :</text>
      <text x="15" y="27" style="clip-path:url(#clipPath13); stroke:none;" xml:space="preserve">SequenceGenerator</text>
    </g>
    <g style="text-rendering:geometricPrecision; font-size:11; font-family:sans-serif;" transform="translate(230,34)">
      <text x="23" y="12" style="clip-path:url(#clipPath14); stroke:none;" xml:space="preserve">ff :</text>
      <text x="10" y="27" style="clip-path:url(#clipPath14); stroke:none;" xml:space="preserve">FlipFlop</text>
    </g>
    <g style="text-rendering:geometricPrecision; font-size:11; font-family:sans-serif;" transform="translate(11,104)">
      <text x="10" y="12" style="clip-path:url(#clipPath15); stroke:none;" xml:space="preserve">bekötés</text>
    </g>
    <g transform="translate(-10,44)" style="font-size:11; stroke-linecap:butt; text-rendering:geometricPrecision; font-family:sans-serif; stroke-linejoin:round;">
      <line x1="50" x2="266" y1="50" style="clip-path:url(#clipPath16); fill:none;" y2="50" />
      <polygon style="clip-path:url(#clipPath16); stroke:none;" points=" 266 50 254 44 254 56" />
      <polygon style="fill:none; clip-path:url(#clipPath16);" points=" 266 50 254 44 254 56" />
    </g>
    <g transform="translate(214,54)" style="font-size:11; stroke-linecap:butt; text-rendering:geometricPrecision; font-family:sans-serif; stroke-linejoin:round;">
      <line x1="50" x2="76" y1="50" style="clip-path:url(#clipPath17); fill:none;" y2="50" />
      <line x1="76" x2="76" y1="50" style="clip-path:url(#clipPath17); fill:none;" y2="70" />
      <line x1="76" x2="50" y1="70" style="clip-path:url(#clipPath17); fill:none;" y2="70" />
      <polygon style="clip-path:url(#clipPath17); stroke:none;" points=" 50 70 62 76 62 64" />
      <polygon style="fill:none; clip-path:url(#clipPath17);" points=" 50 70 62 76 62 64" />
    </g>
    <g transform="translate(214,174)" style="font-size:11; stroke-linecap:butt; text-rendering:geometricPrecision; font-family:sans-serif; stroke-linejoin:round;">
      <line x1="50" x2="217" y1="50" style="clip-path:url(#clipPath18); fill:none;" y2="50" />
      <polygon style="clip-path:url(#clipPath18); stroke:none;" points=" 217 50 205 44 205 56" />
      <polygon style="fill:none; clip-path:url(#clipPath18);" points=" 217 50 205 44 205 56" />
    </g>
    <g transform="translate(170,94)" style="font-size:11; stroke-linecap:butt; text-rendering:geometricPrecision; font-family:sans-serif; stroke-linejoin:round; stroke-dasharray:4;">
      <line x1="69" x2="50" y1="50" style="clip-path:url(#clipPath19); fill:none;" y2="50" />
    </g>
    <g style="text-rendering:geometricPrecision; font-size:11; font-family:sans-serif;" transform="translate(287,204)">
      <text x="10" y="12" style="clip-path:url(#clipPath20); stroke:none;" xml:space="preserve">1.2: addFlipFlop(ff)</text>
    </g>
    <g style="text-rendering:geometricPrecision; font-size:11; font-family:sans-serif;" transform="translate(290,104)">
      <text x="10" y="12" style="clip-path:url(#clipPath21); stroke:none;" xml:space="preserve">1.1: super.setInput(...)</text>
    </g>
    <g style="text-rendering:geometricPrecision; font-size:11; font-family:sans-serif;" transform="translate(35,74)">
      <text x="14" y="12" style="clip-path:url(#clipPath22); stroke:none;" xml:space="preserve">1: setInput(inputPin, component, outputPin)</text>
    </g>
  </g>
</svg>
