<?xml version="1.0" encoding="UTF-8"?>

<!DOCTYPE svg PUBLIC '-//W3C//DTD SVG 1.0//EN' 'http://www.w3.org/TR/2001/REC-SVG-20010904/DTD/svg10.dtd'>
<svg style="fill-opacity:1; color-rendering:auto; color-interpolation:auto; stroke:black; text-rendering:auto; stroke-linecap:square; stroke-miterlimit:10; stroke-opacity:1; shape-rendering:auto; fill:black; stroke-dasharray:none; font-weight:normal; stroke-width:1; font-family:&apos;Dialog&apos;; font-style:normal; stroke-linejoin:miter; font-size:12; stroke-dashoffset:0; image-rendering:auto;" xmlns="http://www.w3.org/2000/svg" width="244" xmlns:xlink="http://www.w3.org/1999/xlink" height="208">
  <!--Generated by the Batik Graphics2D SVG Generator-->
  <defs id="genericDefs" />
  <g>
    <defs id="defs1">
      <clipPath clipPathUnits="userSpaceOnUse" id="clipPath1">
        <path d="M-3 -3 L67 -3 L67 167 L-3 167 L-3 -3 Z" />
      </clipPath>
      <clipPath clipPathUnits="userSpaceOnUse" id="clipPath2">
        <path d="M-3 -3 L97 -3 L97 167 L-3 167 L-3 -3 Z" />
      </clipPath>
      <clipPath clipPathUnits="userSpaceOnUse" id="clipPath3">
        <path d="M-3 -3 L15 -3 L15 29 L-3 29 L-3 -3 Z" />
      </clipPath>
      <clipPath clipPathUnits="userSpaceOnUse" id="clipPath4">
        <path d="M-90 -15 L180 -15 L180 30 L-90 30 L-90 -15 Z" />
      </clipPath>
      <clipPath clipPathUnits="userSpaceOnUse" id="clipPath5">
        <path d="M-79 -15 L158 -15 L158 30 L-79 30 L-79 -15 Z" />
      </clipPath>
      <clipPath clipPathUnits="userSpaceOnUse" id="clipPath6">
        <path d="M0 0 L231 0 L231 104 L0 104 L0 0 Z" />
      </clipPath>
      <clipPath clipPathUnits="userSpaceOnUse" id="clipPath7">
        <path d="M-132 -15 L264 -15 L264 30 L-132 30 L-132 -15 Z" />
      </clipPath>
    </defs>
    <g style="fill:white; text-rendering:geometricPrecision; stroke:white;">
      <rect x="0" y="0" width="244" style="stroke:none;" height="208" />
      <rect x="0" y="38" transform="translate(0,-38)" width="243" style="fill:none; stroke:black;" height="207" />
      <text x="7" y="55" transform="translate(0,-38)" style="fill:black; stroke:none; font-weight:bold;" xml:space="preserve">sd</text>
      <text x="28" y="55" transform="translate(0,-38)" style="fill:black; stroke:none;" xml:space="preserve">Szimuláció leállítása</text>
      <line transform="translate(0,-38)" x1="0" x2="141" y1="62" style="fill:none; stroke:black;" y2="62" />
      <line transform="translate(0,-38)" x1="147" x2="147" y1="38" style="fill:none; stroke:black;" y2="52" />
      <line transform="translate(0,-38)" x1="147" x2="141" y1="52" style="fill:none; stroke:black;" y2="62" />
    </g>
    <g transform="translate(20,34)" style="font-size:11; fill:white; text-rendering:geometricPrecision; font-family:sans-serif; stroke:white;">
      <circle style="clip-path:url(#clipPath1); stroke:none;" r="5" cx="30" cy="5" />
      <rect x="26" y="50" width="8" style="clip-path:url(#clipPath1); stroke:none;" height="109" />
    </g>
    <g transform="translate(20,34)" style="font-size:11; stroke-linecap:butt; text-rendering:geometricPrecision; font-family:sans-serif; stroke-linejoin:round; stroke-miterlimit:0;">
      <circle style="fill:none; clip-path:url(#clipPath1);" r="5" cx="30" cy="5" />
      <rect x="26" y="50" width="8" style="clip-path:url(#clipPath1); fill:none;" height="109" />
      <line x1="30" x2="30" y1="10" style="clip-path:url(#clipPath1); fill:none;" y2="25" />
      <line x1="30" x2="21" y1="25" style="clip-path:url(#clipPath1); fill:none;" y2="36" />
      <line x1="30" x2="39" y1="25" style="clip-path:url(#clipPath1); fill:none;" y2="36" />
      <line x1="21" x2="39" y1="16" style="clip-path:url(#clipPath1); fill:none;" y2="16" />
    </g>
    <g transform="translate(140,34)" style="font-size:11; fill:white; text-rendering:geometricPrecision; font-family:sans-serif; stroke:white;">
      <rect x="0" y="0" width="89" style="clip-path:url(#clipPath2); stroke:none;" height="35" />
    </g>
    <g transform="translate(140,34)" style="font-size:11; stroke-linecap:butt; text-rendering:geometricPrecision; font-family:sans-serif; stroke-linejoin:round; stroke-miterlimit:0;">
      <line x1="35" x2="53" y1="142" style="clip-path:url(#clipPath2); fill:none;" y2="160" />
      <line x1="35" x2="53" y1="160" style="clip-path:url(#clipPath2); fill:none;" y2="142" />
      <rect x="0" y="0" width="89" style="clip-path:url(#clipPath2); fill:none;" height="35" />
      <line x1="44" x2="44" y1="35" style="clip-path:url(#clipPath2); fill:none; stroke-linejoin:bevel; stroke-dasharray:8,3;" y2="151" />
    </g>
    <g transform="translate(181,144)" style="font-size:11; fill:white; text-rendering:geometricPrecision; font-family:sans-serif; stroke:white;">
      <rect x="0" y="0" width="8" style="clip-path:url(#clipPath3); stroke:none;" height="22" />
    </g>
    <g transform="translate(181,144)" style="font-size:11; stroke-linecap:butt; text-rendering:geometricPrecision; font-family:sans-serif; stroke-linejoin:round; stroke-miterlimit:0;">
      <rect x="0" y="0" width="8" style="clip-path:url(#clipPath3); fill:none;" height="22" />
    </g>
    <g style="text-rendering:geometricPrecision; font-size:11; font-family:sans-serif;" transform="translate(140,34)">
      <text x="11" y="12" style="clip-path:url(#clipPath4); stroke:none;" xml:space="preserve">s : Simulation</text>
    </g>
    <g style="text-rendering:geometricPrecision; font-size:11; font-family:sans-serif;" transform="translate(11,69)">
      <text x="10" y="12" style="clip-path:url(#clipPath5); stroke:none;" xml:space="preserve">Felhasználó</text>
    </g>
    <g transform="translate(4,94)" style="font-size:11; stroke-linecap:butt; text-rendering:geometricPrecision; font-family:sans-serif; stroke-linejoin:round;">
      <line x1="50" x2="177" y1="50" style="clip-path:url(#clipPath6); fill:none;" y2="50" />
      <polygon style="clip-path:url(#clipPath6); stroke:none;" points=" 177 50 165 44 165 56" />
      <polygon style="fill:none; clip-path:url(#clipPath6);" points=" 177 50 165 44 165 56" />
    </g>
    <g style="text-rendering:geometricPrecision; font-size:11; font-family:sans-serif;" transform="translate(50,124)">
      <text x="13" y="12" style="clip-path:url(#clipPath7); stroke:none;" xml:space="preserve">1: setState(STOPPED)</text>
    </g>
  </g>
</svg>
