<?xml version="1.0" encoding="UTF-8"?>

<!DOCTYPE svg PUBLIC '-//W3C//DTD SVG 1.0//EN' 'http://www.w3.org/TR/2001/REC-SVG-20010904/DTD/svg10.dtd'>
<svg style="fill-opacity:1; color-rendering:auto; color-interpolation:auto; stroke:black; text-rendering:auto; stroke-linecap:square; stroke-miterlimit:10; stroke-opacity:1; shape-rendering:auto; fill:black; stroke-dasharray:none; font-weight:normal; stroke-width:1; font-family:&apos;Dialog&apos;; font-style:normal; stroke-linejoin:miter; font-size:12; stroke-dashoffset:0; image-rendering:auto;" xmlns="http://www.w3.org/2000/svg" width="546" xmlns:xlink="http://www.w3.org/1999/xlink" height="368">
  <!--Generated by the Batik Graphics2D SVG Generator-->
  <defs id="genericDefs" />
  <g>
    <defs id="defs1">
      <clipPath clipPathUnits="userSpaceOnUse" id="clipPath1">
        <path d="M-3 -3 L377 -3 L377 177 L-3 177 L-3 -3 Z" />
      </clipPath>
      <clipPath clipPathUnits="userSpaceOnUse" id="clipPath2">
        <path d="M-3 -3 L107 -3 L107 47 L-3 47 L-3 -3 Z" />
      </clipPath>
      <clipPath clipPathUnits="userSpaceOnUse" id="clipPath3">
        <path d="M0 0 L0 40 L100 40 L100 0 Z" />
      </clipPath>
      <clipPath clipPathUnits="userSpaceOnUse" id="clipPath4">
        <path d="M-3 -3 L27 -3 L27 27 L-3 27 L-3 -3 Z" />
      </clipPath>
      <clipPath clipPathUnits="userSpaceOnUse" id="clipPath5">
        <path d="M-3 -3 L137 -3 L137 77 L-3 77 L-3 -3 Z" />
      </clipPath>
      <clipPath clipPathUnits="userSpaceOnUse" id="clipPath6">
        <path d="M0 0 L0 70 L130 70 L130 0 Z" />
      </clipPath>
      <clipPath clipPathUnits="userSpaceOnUse" id="clipPath7">
        <path d="M-3 -3 L106 -3 L106 67 L-3 67 L-3 -3 Z" />
      </clipPath>
      <clipPath clipPathUnits="userSpaceOnUse" id="clipPath8">
        <path d="M0 0 L0 60 L99 60 L99 0 Z" />
      </clipPath>
      <clipPath clipPathUnits="userSpaceOnUse" id="clipPath9">
        <path d="M-3 -3 L87 -3 L87 47 L-3 47 L-3 -3 Z" />
      </clipPath>
      <clipPath clipPathUnits="userSpaceOnUse" id="clipPath10">
        <path d="M-3 -3 L97 -3 L97 47 L-3 47 L-3 -3 Z" />
      </clipPath>
      <clipPath clipPathUnits="userSpaceOnUse" id="clipPath11">
        <path d="M-90 -15 L180 -15 L180 30 L-90 30 L-90 -15 Z" />
      </clipPath>
      <clipPath clipPathUnits="userSpaceOnUse" id="clipPath12">
        <path d="M-80 -15 L160 -15 L160 30 L-80 30 L-80 -15 Z" />
      </clipPath>
      <clipPath clipPathUnits="userSpaceOnUse" id="clipPath13">
        <path d="M0 0 L147 0 L147 147 L0 147 L0 0 Z" />
      </clipPath>
      <clipPath clipPathUnits="userSpaceOnUse" id="clipPath14">
        <path d="M0 0 L87 0 L87 116 L0 116 L0 0 Z" />
      </clipPath>
      <clipPath clipPathUnits="userSpaceOnUse" id="clipPath15">
        <path d="M0 0 L127 0 L127 146 L0 146 L0 0 Z" />
      </clipPath>
      <clipPath clipPathUnits="userSpaceOnUse" id="clipPath16">
        <path d="M0 0 L126 0 L126 147 L0 147 L0 0 Z" />
      </clipPath>
      <clipPath clipPathUnits="userSpaceOnUse" id="clipPath17">
        <path d="M0 0 L146 0 L146 146 L0 146 L0 0 Z" />
      </clipPath>
      <clipPath clipPathUnits="userSpaceOnUse" id="clipPath18">
        <path d="M0 0 L87 0 L87 147 L0 147 L0 0 Z" />
      </clipPath>
      <clipPath clipPathUnits="userSpaceOnUse" id="clipPath19">
        <path d="M0 0 L87 0 L87 146 L0 146 L0 0 Z" />
      </clipPath>
      <clipPath clipPathUnits="userSpaceOnUse" id="clipPath20">
        <path d="M0 0 L149 0 L149 115 L0 115 L0 0 Z" />
      </clipPath>
      <clipPath clipPathUnits="userSpaceOnUse" id="clipPath21">
        <path d="M0 0 L158 0 L158 87 L0 87 L0 0 Z" />
      </clipPath>
      <clipPath clipPathUnits="userSpaceOnUse" id="clipPath22">
        <path d="M-49 -15 L98 -15 L98 30 L-49 30 L-49 -15 Z" />
      </clipPath>
    </defs>
    <g style="fill:white; text-rendering:geometricPrecision; stroke:white;">
      <rect x="0" y="0" width="546" style="stroke:none;" height="368" />
      <rect x="18" y="8" transform="translate(-18,-8)" width="545" style="fill:none; stroke:black;" height="367" />
      <text x="25" y="25" transform="translate(-18,-8)" style="fill:black; stroke:none;" xml:space="preserve">Szimuláció állapotai</text>
      <line transform="translate(-18,-8)" x1="18" x2="135" y1="32" style="fill:none; stroke:black;" y2="32" />
      <line transform="translate(-18,-8)" x1="141" x2="141" y1="8" style="fill:none; stroke:black;" y2="22" />
      <line transform="translate(-18,-8)" x1="141" x2="135" y1="22" style="fill:none; stroke:black;" y2="32" />
    </g>
    <g transform="translate(72,104)" style="font-size:11; stroke-linecap:butt; text-rendering:geometricPrecision; font-family:sans-serif; stroke-linejoin:round; stroke-miterlimit:0;">
      <rect x="0" y="0" width="370" style="clip-path:url(#clipPath1); fill:none;" rx="10" ry="10" height="170" />
    </g>
    <g transform="translate(172,284)" style="font-size:11; fill:white; text-rendering:geometricPrecision; font-family:sans-serif; stroke:white;">
      <polygon style="clip-path:url(#clipPath2); stroke:none;" points=" 0 0 84 0 99 15 84 15 84 0 99 15 99 39 0 39" />
    </g>
    <g transform="translate(172,284)" style="font-size:11; stroke-linecap:butt; text-rendering:geometricPrecision; font-family:sans-serif; stroke-linejoin:round; stroke-miterlimit:0;">
      <polygon style="fill:none; clip-path:url(#clipPath2);" points=" 0 0 84 0 99 15 84 15 84 0 99 15 99 39 0 39" />
    </g>
    <g style="text-rendering:geometricPrecision; font-size:11; font-family:&apos;Tahoma&apos;;" transform="translate(172,284)">
      <path d="M2.9844 14.9704 L6.2812 6.3767 L7.5 6.3767 L11.0156 14.9704 L9.7344 14.9704 L8.7188 12.3611 L5.1406 12.3611 L4.1875 14.9704 L2.9844 14.9704 ZM5.4688 11.4392 L8.375 11.4392 L7.4844 9.0642 Q7.0625 7.9861 6.875 7.2829 Q6.7031 8.1111 6.4062 8.9236 L5.4688 11.4392 ZM10.2344 14.9704 L10.2344 14.1111 L14.2031 9.5642 Q13.5156 9.5954 13 9.5954 L10.4688 9.5954 L10.4688 8.7517 L15.5625 8.7517 L15.5625 9.4392 L12.1875 13.3923 L11.5312 14.1111 Q12.25 14.0642 12.8594 14.0642 L15.75 14.0642 L15.75 14.9704 L10.2344 14.9704 ZM22.8594 14.2048 Q22.2656 14.7048 21.7266 14.9079 Q21.1875 15.1111 20.5625 15.1111 Q19.5312 15.1111 18.9844 14.6111 Q18.4375 14.1111 18.4375 13.3298 Q18.4375 12.8767 18.6406 12.4939 Q18.8438 12.1111 19.1875 11.8845 Q19.5312 11.6579 19.9531 11.5486 Q20.25 11.4548 20.8906 11.3767 Q22.1562 11.2361 22.7656 11.0173 Q22.7656 10.7986 22.7656 10.7517 Q22.7656 10.0954 22.4688 9.8298 Q22.0625 9.4861 21.2656 9.4861 Q20.5312 9.4861 20.1719 9.7439 Q19.8125 10.0017 19.6406 10.6579 L18.6094 10.5173 Q18.75 9.8611 19.0781 9.4548 Q19.4062 9.0486 20.0156 8.8298 Q20.625 8.6111 21.4219 8.6111 Q22.2188 8.6111 22.7188 8.7986 Q23.2188 8.9861 23.4531 9.2673 Q23.6875 9.5486 23.7812 9.9861 Q23.8281 10.2517 23.8281 10.9548 L23.8281 12.3611 Q23.8281 13.8298 23.8984 14.2204 Q23.9688 14.6111 24.1719 14.9704 L23.0625 14.9704 Q22.9062 14.6423 22.8594 14.2048 ZM22.7656 11.8454 Q22.1875 12.0798 21.0469 12.2517 Q20.3906 12.3454 20.125 12.4626 Q19.8594 12.5798 19.7109 12.7986 Q19.5625 13.0173 19.5625 13.2986 Q19.5625 13.7204 19.8828 14.0017 Q20.2031 14.2829 20.8125 14.2829 Q21.4219 14.2829 21.8984 14.0173 Q22.375 13.7517 22.5938 13.2829 Q22.7656 12.9236 22.7656 12.2361 L22.7656 11.8454 ZM20.125 6.9704 L20.9062 5.3298 L22.2969 5.3298 L21 6.9704 L20.125 6.9704 ZM25.7812 14.9704 L25.7812 8.7517 L26.7344 8.7517 L26.7344 9.6892 Q27.0938 9.0329 27.3984 8.822 Q27.7031 8.6111 28.0781 8.6111 Q28.6094 8.6111 29.1562 8.9392 L28.7969 9.9236 Q28.4062 9.6892 28.0312 9.6892 Q27.6719 9.6892 27.3984 9.9001 Q27.125 10.1111 27.0156 10.4861 Q26.8281 11.0486 26.8281 11.7048 L26.8281 14.9704 L25.7812 14.9704 ZM33.8594 14.2048 Q33.2656 14.7048 32.7266 14.9079 Q32.1875 15.1111 31.5625 15.1111 Q30.5312 15.1111 29.9844 14.6111 Q29.4375 14.1111 29.4375 13.3298 Q29.4375 12.8767 29.6406 12.4939 Q29.8438 12.1111 30.1875 11.8845 Q30.5312 11.6579 30.9531 11.5486 Q31.25 11.4548 31.8906 11.3767 Q33.1562 11.2361 33.7656 11.0173 Q33.7656 10.7986 33.7656 10.7517 Q33.7656 10.0954 33.4688 9.8298 Q33.0625 9.4861 32.2656 9.4861 Q31.5312 9.4861 31.1719 9.7439 Q30.8125 10.0017 30.6406 10.6579 L29.6094 10.5173 Q29.75 9.8611 30.0781 9.4548 Q30.4062 9.0486 31.0156 8.8298 Q31.625 8.6111 32.4219 8.6111 Q33.2188 8.6111 33.7188 8.7986 Q34.2188 8.9861 34.4531 9.2673 Q34.6875 9.5486 34.7812 9.9861 Q34.8281 10.2517 34.8281 10.9548 L34.8281 12.3611 Q34.8281 13.8298 34.8984 14.2204 Q34.9688 14.6111 35.1719 14.9704 L34.0625 14.9704 Q33.9062 14.6423 33.8594 14.2048 ZM33.7656 11.8454 Q33.1875 12.0798 32.0469 12.2517 Q31.3906 12.3454 31.125 12.4626 Q30.8594 12.5798 30.7109 12.7986 Q30.5625 13.0173 30.5625 13.2986 Q30.5625 13.7204 30.8828 14.0017 Q31.2031 14.2829 31.8125 14.2829 Q32.4219 14.2829 32.8984 14.0173 Q33.375 13.7517 33.5938 13.2829 Q33.7656 12.9236 33.7656 12.2361 L33.7656 11.8454 ZM36.7969 14.9704 L36.7969 8.7517 L37.7344 8.7517 L37.7344 9.6267 Q38.0312 9.1579 38.5156 8.8845 Q39 8.6111 39.625 8.6111 Q40.3125 8.6111 40.7578 8.8923 Q41.2031 9.1736 41.375 9.6892 Q42.125 8.6111 43.2969 8.6111 Q44.2344 8.6111 44.7266 9.1189 Q45.2188 9.6267 45.2188 10.7048 L45.2188 14.9704 L44.1719 14.9704 L44.1719 11.0486 Q44.1719 10.4236 44.0703 10.1423 Q43.9688 9.8611 43.7031 9.6892 Q43.4375 9.5173 43.0625 9.5173 Q42.4062 9.5173 41.9766 9.9548 Q41.5469 10.3923 41.5469 11.3611 L41.5469 14.9704 L40.4844 14.9704 L40.4844 10.9236 Q40.4844 10.2204 40.2266 9.8689 Q39.9688 9.5173 39.3906 9.5173 Q38.9375 9.5173 38.5625 9.7517 Q38.1875 9.9861 38.0156 10.4392 Q37.8438 10.8923 37.8438 11.7361 L37.8438 14.9704 L36.7969 14.9704 ZM47.7969 14.9704 L47.7969 6.3767 L48.8594 6.3767 L48.8594 11.2829 L51.3438 8.7517 L52.7188 8.7517 L50.3281 11.0486 L52.9531 14.9704 L51.6562 14.9704 L49.5938 11.7829 L48.8594 12.5017 L48.8594 14.9704 L47.7969 14.9704 ZM53.4062 11.8611 Q53.4062 10.1267 54.3594 9.2986 Q55.1562 8.6111 56.3125 8.6111 Q57.5938 8.6111 58.4141 9.447 Q59.2344 10.2829 59.2344 11.7673 Q59.2344 12.9704 58.875 13.6579 Q58.5156 14.3454 57.8203 14.7282 Q57.125 15.1111 56.3125 15.1111 Q55.0156 15.1111 54.2109 14.2751 Q53.4062 13.4392 53.4062 11.8611 ZM54.4844 11.8611 Q54.4844 13.0486 55.0078 13.6423 Q55.5312 14.2361 56.3125 14.2361 Q57.1094 14.2361 57.625 13.6423 Q58.1406 13.0486 58.1406 11.8298 Q58.1406 10.6736 57.6172 10.0798 Q57.0938 9.4861 56.3125 9.4861 Q55.5312 9.4861 55.0078 10.072 Q54.4844 10.6579 54.4844 11.8611 ZM54.8125 6.9704 L54.8125 5.7673 L55.9062 5.7673 L55.9062 6.9704 L54.8125 6.9704 ZM57 6.9704 L57 5.7673 L58.0938 5.7673 L58.0938 6.9704 L57 6.9704 ZM60.7812 14.9704 L60.7812 8.7517 L61.7344 8.7517 L61.7344 9.6892 Q62.0938 9.0329 62.3984 8.822 Q62.7031 8.6111 63.0781 8.6111 Q63.6094 8.6111 64.1562 8.9392 L63.7969 9.9236 Q63.4062 9.6892 63.0312 9.6892 Q62.6719 9.6892 62.3984 9.9001 Q62.125 10.1111 62.0156 10.4861 Q61.8281 11.0486 61.8281 11.7048 L61.8281 14.9704 L60.7812 14.9704 Z" style="clip-path:url(#clipPath3); stroke:none;" />
      <path d="M3.7969 28.9704 L3.7969 20.3767 L4.8594 20.3767 L4.8594 25.2829 L7.3438 22.7517 L8.7188 22.7517 L6.3281 25.0486 L8.9531 28.9704 L7.6562 28.9704 L5.5938 25.7829 L4.8594 26.5017 L4.8594 28.9704 L3.7969 28.9704 ZM9.7969 21.5954 L9.7969 20.3767 L10.8594 20.3767 L10.8594 21.5954 L9.7969 21.5954 ZM9.7969 28.9704 L9.7969 22.7517 L10.8594 22.7517 L10.8594 28.9704 L9.7969 28.9704 ZM17.0469 26.9704 L18.1406 27.0954 Q17.8906 28.0486 17.1875 28.5798 Q16.4844 29.1111 15.4062 29.1111 Q14.0469 29.1111 13.2422 28.2673 Q12.4375 27.4236 12.4375 25.9079 Q12.4375 24.3454 13.25 23.4782 Q14.0625 22.6111 15.3438 22.6111 Q16.5938 22.6111 17.3828 23.4548 Q18.1719 24.2986 18.1719 25.8454 Q18.1719 25.9392 18.1719 26.1267 L13.5312 26.1267 Q13.5938 27.1579 14.1094 27.697 Q14.625 28.2361 15.4062 28.2361 Q15.9844 28.2361 16.3984 27.9314 Q16.8125 27.6267 17.0469 26.9704 ZM13.5938 25.2673 L17.0625 25.2673 Q17 24.4704 16.6719 24.0798 Q16.1562 23.4704 15.3594 23.4704 Q14.625 23.4704 14.1328 23.9548 Q13.6406 24.4392 13.5938 25.2673 ZM14.125 20.9704 L14.9062 19.3298 L16.2969 19.3298 L15 20.9704 L14.125 20.9704 ZM19.7812 28.9704 L19.7812 22.7517 L20.7344 22.7517 L20.7344 23.6892 Q21.0938 23.0329 21.3984 22.822 Q21.7031 22.6111 22.0781 22.6111 Q22.6094 22.6111 23.1562 22.9392 L22.7969 23.9236 Q22.4062 23.6892 22.0312 23.6892 Q21.6719 23.6892 21.3984 23.9001 Q21.125 24.1111 21.0156 24.4861 Q20.8281 25.0486 20.8281 25.7048 L20.8281 28.9704 L19.7812 28.9704 ZM26.0938 28.0329 L26.25 28.9548 Q25.7969 29.0486 25.4531 29.0486 Q24.875 29.0486 24.5625 28.8689 Q24.25 28.6892 24.1172 28.3923 Q23.9844 28.0954 23.9844 27.1423 L23.9844 23.5642 L23.2188 23.5642 L23.2188 22.7517 L23.9844 22.7517 L23.9844 21.2048 L25.0312 20.5798 L25.0312 22.7517 L26.0938 22.7517 L26.0938 23.5642 L25.0312 23.5642 L25.0312 27.2048 Q25.0312 27.6579 25.0859 27.7829 Q25.1406 27.9079 25.2656 27.9861 Q25.3906 28.0642 25.625 28.0642 Q25.8125 28.0642 26.0938 28.0329 ZM31.0469 26.9704 L32.1406 27.0954 Q31.8906 28.0486 31.1875 28.5798 Q30.4844 29.1111 29.4062 29.1111 Q28.0469 29.1111 27.2422 28.2673 Q26.4375 27.4236 26.4375 25.9079 Q26.4375 24.3454 27.25 23.4782 Q28.0625 22.6111 29.3438 22.6111 Q30.5938 22.6111 31.3828 23.4548 Q32.1719 24.2986 32.1719 25.8454 Q32.1719 25.9392 32.1719 26.1267 L27.5312 26.1267 Q27.5938 27.1579 28.1094 27.697 Q28.625 28.2361 29.4062 28.2361 Q29.9844 28.2361 30.3984 27.9314 Q30.8125 27.6267 31.0469 26.9704 ZM27.5938 25.2673 L31.0625 25.2673 Q31 24.4704 30.6719 24.0798 Q30.1562 23.4704 29.3594 23.4704 Q28.625 23.4704 28.1328 23.9548 Q27.6406 24.4392 27.5938 25.2673 ZM28.125 20.9704 L28.9062 19.3298 L30.2969 19.3298 L29 20.9704 L28.125 20.9704 ZM33.7969 28.9704 L33.7969 20.3767 L34.8594 20.3767 L34.8594 25.2829 L37.3438 22.7517 L38.7188 22.7517 L36.3281 25.0486 L38.9531 28.9704 L37.6562 28.9704 L35.5938 25.7829 L34.8594 26.5017 L34.8594 28.9704 L33.7969 28.9704 ZM44.0469 26.9704 L45.1406 27.0954 Q44.8906 28.0486 44.1875 28.5798 Q43.4844 29.1111 42.4062 29.1111 Q41.0469 29.1111 40.2422 28.2673 Q39.4375 27.4236 39.4375 25.9079 Q39.4375 24.3454 40.25 23.4782 Q41.0625 22.6111 42.3438 22.6111 Q43.5938 22.6111 44.3828 23.4548 Q45.1719 24.2986 45.1719 25.8454 Q45.1719 25.9392 45.1719 26.1267 L40.5312 26.1267 Q40.5938 27.1579 41.1094 27.697 Q41.625 28.2361 42.4062 28.2361 Q42.9844 28.2361 43.3984 27.9314 Q43.8125 27.6267 44.0469 26.9704 ZM40.5938 25.2673 L44.0625 25.2673 Q44 24.4704 43.6719 24.0798 Q43.1562 23.4704 42.3594 23.4704 Q41.625 23.4704 41.1328 23.9548 Q40.6406 24.4392 40.5938 25.2673 ZM46.7656 28.9704 L46.7656 20.3767 L47.8281 20.3767 L47.8281 28.9704 L46.7656 28.9704 ZM54.0469 26.9704 L55.1406 27.0954 Q54.8906 28.0486 54.1875 28.5798 Q53.4844 29.1111 52.4062 29.1111 Q51.0469 29.1111 50.2422 28.2673 Q49.4375 27.4236 49.4375 25.9079 Q49.4375 24.3454 50.25 23.4782 Q51.0625 22.6111 52.3438 22.6111 Q53.5938 22.6111 54.3828 23.4548 Q55.1719 24.2986 55.1719 25.8454 Q55.1719 25.9392 55.1719 26.1267 L50.5312 26.1267 Q50.5938 27.1579 51.1094 27.697 Q51.625 28.2361 52.4062 28.2361 Q52.9844 28.2361 53.3984 27.9314 Q53.8125 27.6267 54.0469 26.9704 ZM50.5938 25.2673 L54.0625 25.2673 Q54 24.4704 53.6719 24.0798 Q53.1562 23.4704 52.3594 23.4704 Q51.625 23.4704 51.1328 23.9548 Q50.6406 24.4392 50.5938 25.2673 ZM51.125 20.9704 L51.9062 19.3298 L53.2969 19.3298 L52 20.9704 L51.125 20.9704 ZM56.375 27.1111 L57.4062 26.9548 Q57.5 27.5798 57.8984 27.9079 Q58.2969 28.2361 59.0312 28.2361 Q59.75 28.2361 60.1016 27.947 Q60.4531 27.6579 60.4531 27.2517 Q60.4531 26.8923 60.1406 26.6892 Q59.9219 26.5486 59.0625 26.3298 Q57.9062 26.0329 57.4609 25.822 Q57.0156 25.6111 56.7812 25.2361 Q56.5469 24.8611 56.5469 24.3923 Q56.5469 23.9861 56.7344 23.6267 Q56.9219 23.2673 57.25 23.0329 Q57.5 22.8611 57.9219 22.7361 Q58.3438 22.6111 58.8438 22.6111 Q59.5625 22.6111 60.1172 22.822 Q60.6719 23.0329 60.9375 23.3923 Q61.2031 23.7517 61.2969 24.3454 L60.2656 24.4861 Q60.2031 24.0173 59.8672 23.7439 Q59.5312 23.4704 58.9062 23.4704 Q58.1875 23.4704 57.875 23.7126 Q57.5625 23.9548 57.5625 24.2829 Q57.5625 24.4861 57.6875 24.6423 Q57.8281 24.8142 58.0938 24.9236 Q58.25 24.9861 59.0312 25.1892 Q60.1562 25.5017 60.5938 25.6892 Q61.0312 25.8767 61.2812 26.2361 Q61.5312 26.5954 61.5312 27.1423 Q61.5312 27.6736 61.2266 28.1345 Q60.9219 28.5954 60.3438 28.8532 Q59.7656 29.1111 59.0312 29.1111 Q57.8125 29.1111 57.1797 28.6032 Q56.5469 28.0954 56.375 27.1111 ZM70.8594 28.2048 Q70.2656 28.7048 69.7266 28.9079 Q69.1875 29.1111 68.5625 29.1111 Q67.5312 29.1111 66.9844 28.6111 Q66.4375 28.1111 66.4375 27.3298 Q66.4375 26.8767 66.6406 26.4939 Q66.8438 26.1111 67.1875 25.8845 Q67.5312 25.6579 67.9531 25.5486 Q68.25 25.4548 68.8906 25.3767 Q70.1562 25.2361 70.7656 25.0173 Q70.7656 24.7986 70.7656 24.7517 Q70.7656 24.0954 70.4688 23.8298 Q70.0625 23.4861 69.2656 23.4861 Q68.5312 23.4861 68.1719 23.7439 Q67.8125 24.0017 67.6406 24.6579 L66.6094 24.5173 Q66.75 23.8611 67.0781 23.4548 Q67.4062 23.0486 68.0156 22.8298 Q68.625 22.6111 69.4219 22.6111 Q70.2188 22.6111 70.7188 22.7986 Q71.2188 22.9861 71.4531 23.2673 Q71.6875 23.5486 71.7812 23.9861 Q71.8281 24.2517 71.8281 24.9548 L71.8281 26.3611 Q71.8281 27.8298 71.8984 28.2204 Q71.9688 28.6111 72.1719 28.9704 L71.0625 28.9704 Q70.9062 28.6423 70.8594 28.2048 ZM70.7656 25.8454 Q70.1875 26.0798 69.0469 26.2517 Q68.3906 26.3454 68.125 26.4626 Q67.8594 26.5798 67.7109 26.7986 Q67.5625 27.0173 67.5625 27.2986 Q67.5625 27.7204 67.8828 28.0017 Q68.2031 28.2829 68.8125 28.2829 Q69.4219 28.2829 69.8984 28.0173 Q70.375 27.7517 70.5938 27.2829 Q70.7656 26.9236 70.7656 26.2361 L70.7656 25.8454 ZM73.7656 28.9704 L73.7656 20.3767 L74.8281 20.3767 L74.8281 28.9704 L73.7656 28.9704 ZM80.8594 28.2048 Q80.2656 28.7048 79.7266 28.9079 Q79.1875 29.1111 78.5625 29.1111 Q77.5312 29.1111 76.9844 28.6111 Q76.4375 28.1111 76.4375 27.3298 Q76.4375 26.8767 76.6406 26.4939 Q76.8438 26.1111 77.1875 25.8845 Q77.5312 25.6579 77.9531 25.5486 Q78.25 25.4548 78.8906 25.3767 Q80.1562 25.2361 80.7656 25.0173 Q80.7656 24.7986 80.7656 24.7517 Q80.7656 24.0954 80.4688 23.8298 Q80.0625 23.4861 79.2656 23.4861 Q78.5312 23.4861 78.1719 23.7439 Q77.8125 24.0017 77.6406 24.6579 L76.6094 24.5173 Q76.75 23.8611 77.0781 23.4548 Q77.4062 23.0486 78.0156 22.8298 Q78.625 22.6111 79.4219 22.6111 Q80.2188 22.6111 80.7188 22.7986 Q81.2188 22.9861 81.4531 23.2673 Q81.6875 23.5486 81.7812 23.9861 Q81.8281 24.2517 81.8281 24.9548 L81.8281 26.3611 Q81.8281 27.8298 81.8984 28.2204 Q81.9688 28.6111 82.1719 28.9704 L81.0625 28.9704 Q80.9062 28.6423 80.8594 28.2048 ZM80.7656 25.8454 Q80.1875 26.0798 79.0469 26.2517 Q78.3906 26.3454 78.125 26.4626 Q77.8594 26.5798 77.7109 26.7986 Q77.5625 27.0173 77.5625 27.2986 Q77.5625 27.7204 77.8828 28.0017 Q78.2031 28.2829 78.8125 28.2829 Q79.4219 28.2829 79.8984 28.0173 Q80.375 27.7517 80.5938 27.2829 Q80.7656 26.9236 80.7656 26.2361 L80.7656 25.8454 ZM86.0938 28.0329 L86.25 28.9548 Q85.7969 29.0486 85.4531 29.0486 Q84.875 29.0486 84.5625 28.8689 Q84.25 28.6892 84.1172 28.3923 Q83.9844 28.0954 83.9844 27.1423 L83.9844 23.5642 L83.2188 23.5642 L83.2188 22.7517 L83.9844 22.7517 L83.9844 21.2048 L85.0312 20.5798 L85.0312 22.7517 L86.0938 22.7517 L86.0938 23.5642 L85.0312 23.5642 L85.0312 27.2048 Q85.0312 27.6579 85.0859 27.7829 Q85.1406 27.9079 85.2656 27.9861 Q85.3906 28.0642 85.625 28.0642 Q85.8125 28.0642 86.0938 28.0329 ZM89.0938 28.0329 L89.25 28.9548 Q88.7969 29.0486 88.4531 29.0486 Q87.875 29.0486 87.5625 28.8689 Q87.25 28.6892 87.1172 28.3923 Q86.9844 28.0954 86.9844 27.1423 L86.9844 23.5642 L86.2188 23.5642 L86.2188 22.7517 L86.9844 22.7517 L86.9844 21.2048 L88.0312 20.5798 L88.0312 22.7517 L89.0938 22.7517 L89.0938 23.5642 L88.0312 23.5642 L88.0312 27.2048 Q88.0312 27.6579 88.0859 27.7829 Q88.1406 27.9079 88.2656 27.9861 Q88.3906 28.0642 88.625 28.0642 Q88.8125 28.0642 89.0938 28.0329 Z" style="clip-path:url(#clipPath3); stroke:none;" />
    </g>
    <g style="text-rendering:geometricPrecision; font-size:11; font-family:sans-serif;" transform="translate(12,184)">
      <circle style="clip-path:url(#clipPath4); stroke:none;" r="9.5" cx="9.5" cy="9.5" />
    </g>
    <g style="text-rendering:geometricPrecision; font-size:11; font-family:sans-serif;" transform="translate(512,184)">
      <circle style="clip-path:url(#clipPath4); stroke:none;" r="7" cx="10" cy="10" />
      <circle style="stroke-linecap:butt; clip-path:url(#clipPath4); fill:none; stroke-linejoin:round; stroke-miterlimit:0;" r="10" cx="10" cy="10" />
    </g>
    <g transform="translate(292,284)" style="font-size:11; fill:white; text-rendering:geometricPrecision; font-family:sans-serif; stroke:white;">
      <polygon style="clip-path:url(#clipPath5); stroke:none;" points=" 0 0 114 0 129 15 114 15 114 0 129 15 129 69 0 69" />
    </g>
    <g transform="translate(292,284)" style="font-size:11; stroke-linecap:butt; text-rendering:geometricPrecision; font-family:sans-serif; stroke-linejoin:round; stroke-miterlimit:0;">
      <polygon style="fill:none; clip-path:url(#clipPath5);" points=" 0 0 114 0 129 15 114 15 114 0 129 15 129 69 0 69" />
    </g>
    <g style="text-rendering:geometricPrecision; font-size:11; font-family:&apos;Tahoma&apos;;" transform="translate(292,284)">
      <path d="M2.9844 14.9704 L6.2812 6.3767 L7.5 6.3767 L11.0156 14.9704 L9.7344 14.9704 L8.7188 12.3611 L5.1406 12.3611 L4.1875 14.9704 L2.9844 14.9704 ZM5.4688 11.4392 L8.375 11.4392 L7.4844 9.0642 Q7.0625 7.9861 6.875 7.2829 Q6.7031 8.1111 6.4062 8.9236 L5.4688 11.4392 ZM10.2344 14.9704 L10.2344 14.1111 L14.2031 9.5642 Q13.5156 9.5954 13 9.5954 L10.4688 9.5954 L10.4688 8.7517 L15.5625 8.7517 L15.5625 9.4392 L12.1875 13.3923 L11.5312 14.1111 Q12.25 14.0642 12.8594 14.0642 L15.75 14.0642 L15.75 14.9704 L10.2344 14.9704 ZM22.8594 14.2048 Q22.2656 14.7048 21.7266 14.9079 Q21.1875 15.1111 20.5625 15.1111 Q19.5312 15.1111 18.9844 14.6111 Q18.4375 14.1111 18.4375 13.3298 Q18.4375 12.8767 18.6406 12.4939 Q18.8438 12.1111 19.1875 11.8845 Q19.5312 11.6579 19.9531 11.5486 Q20.25 11.4548 20.8906 11.3767 Q22.1562 11.2361 22.7656 11.0173 Q22.7656 10.7986 22.7656 10.7517 Q22.7656 10.0954 22.4688 9.8298 Q22.0625 9.4861 21.2656 9.4861 Q20.5312 9.4861 20.1719 9.7439 Q19.8125 10.0017 19.6406 10.6579 L18.6094 10.5173 Q18.75 9.8611 19.0781 9.4548 Q19.4062 9.0486 20.0156 8.8298 Q20.625 8.6111 21.4219 8.6111 Q22.2188 8.6111 22.7188 8.7986 Q23.2188 8.9861 23.4531 9.2673 Q23.6875 9.5486 23.7812 9.9861 Q23.8281 10.2517 23.8281 10.9548 L23.8281 12.3611 Q23.8281 13.8298 23.8984 14.2204 Q23.9688 14.6111 24.1719 14.9704 L23.0625 14.9704 Q22.9062 14.6423 22.8594 14.2048 ZM22.7656 11.8454 Q22.1875 12.0798 21.0469 12.2517 Q20.3906 12.3454 20.125 12.4626 Q19.8594 12.5798 19.7109 12.7986 Q19.5625 13.0173 19.5625 13.2986 Q19.5625 13.7204 19.8828 14.0017 Q20.2031 14.2829 20.8125 14.2829 Q21.4219 14.2829 21.8984 14.0173 Q22.375 13.7517 22.5938 13.2829 Q22.7656 12.9236 22.7656 12.2361 L22.7656 11.8454 ZM20.125 6.9704 L20.9062 5.3298 L22.2969 5.3298 L21 6.9704 L20.125 6.9704 ZM25.7812 14.9704 L25.7812 8.7517 L26.7344 8.7517 L26.7344 9.6892 Q27.0938 9.0329 27.3984 8.822 Q27.7031 8.6111 28.0781 8.6111 Q28.6094 8.6111 29.1562 8.9392 L28.7969 9.9236 Q28.4062 9.6892 28.0312 9.6892 Q27.6719 9.6892 27.3984 9.9001 Q27.125 10.1111 27.0156 10.4861 Q26.8281 11.0486 26.8281 11.7048 L26.8281 14.9704 L25.7812 14.9704 ZM33.8594 14.2048 Q33.2656 14.7048 32.7266 14.9079 Q32.1875 15.1111 31.5625 15.1111 Q30.5312 15.1111 29.9844 14.6111 Q29.4375 14.1111 29.4375 13.3298 Q29.4375 12.8767 29.6406 12.4939 Q29.8438 12.1111 30.1875 11.8845 Q30.5312 11.6579 30.9531 11.5486 Q31.25 11.4548 31.8906 11.3767 Q33.1562 11.2361 33.7656 11.0173 Q33.7656 10.7986 33.7656 10.7517 Q33.7656 10.0954 33.4688 9.8298 Q33.0625 9.4861 32.2656 9.4861 Q31.5312 9.4861 31.1719 9.7439 Q30.8125 10.0017 30.6406 10.6579 L29.6094 10.5173 Q29.75 9.8611 30.0781 9.4548 Q30.4062 9.0486 31.0156 8.8298 Q31.625 8.6111 32.4219 8.6111 Q33.2188 8.6111 33.7188 8.7986 Q34.2188 8.9861 34.4531 9.2673 Q34.6875 9.5486 34.7812 9.9861 Q34.8281 10.2517 34.8281 10.9548 L34.8281 12.3611 Q34.8281 13.8298 34.8984 14.2204 Q34.9688 14.6111 35.1719 14.9704 L34.0625 14.9704 Q33.9062 14.6423 33.8594 14.2048 ZM33.7656 11.8454 Q33.1875 12.0798 32.0469 12.2517 Q31.3906 12.3454 31.125 12.4626 Q30.8594 12.5798 30.7109 12.7986 Q30.5625 13.0173 30.5625 13.2986 Q30.5625 13.7204 30.8828 14.0017 Q31.2031 14.2829 31.8125 14.2829 Q32.4219 14.2829 32.8984 14.0173 Q33.375 13.7517 33.5938 13.2829 Q33.7656 12.9236 33.7656 12.2361 L33.7656 11.8454 ZM36.7969 14.9704 L36.7969 8.7517 L37.7344 8.7517 L37.7344 9.6267 Q38.0312 9.1579 38.5156 8.8845 Q39 8.6111 39.625 8.6111 Q40.3125 8.6111 40.7578 8.8923 Q41.2031 9.1736 41.375 9.6892 Q42.125 8.6111 43.2969 8.6111 Q44.2344 8.6111 44.7266 9.1189 Q45.2188 9.6267 45.2188 10.7048 L45.2188 14.9704 L44.1719 14.9704 L44.1719 11.0486 Q44.1719 10.4236 44.0703 10.1423 Q43.9688 9.8611 43.7031 9.6892 Q43.4375 9.5173 43.0625 9.5173 Q42.4062 9.5173 41.9766 9.9548 Q41.5469 10.3923 41.5469 11.3611 L41.5469 14.9704 L40.4844 14.9704 L40.4844 10.9236 Q40.4844 10.2204 40.2266 9.8689 Q39.9688 9.5173 39.3906 9.5173 Q38.9375 9.5173 38.5625 9.7517 Q38.1875 9.9861 38.0156 10.4392 Q37.8438 10.8923 37.8438 11.7361 L37.8438 14.9704 L36.7969 14.9704 ZM47.7969 14.9704 L47.7969 6.3767 L48.8594 6.3767 L48.8594 11.2829 L51.3438 8.7517 L52.7188 8.7517 L50.3281 11.0486 L52.9531 14.9704 L51.6562 14.9704 L49.5938 11.7829 L48.8594 12.5017 L48.8594 14.9704 L47.7969 14.9704 ZM53.4062 11.8611 Q53.4062 10.1267 54.3594 9.2986 Q55.1562 8.6111 56.3125 8.6111 Q57.5938 8.6111 58.4141 9.447 Q59.2344 10.2829 59.2344 11.7673 Q59.2344 12.9704 58.875 13.6579 Q58.5156 14.3454 57.8203 14.7282 Q57.125 15.1111 56.3125 15.1111 Q55.0156 15.1111 54.2109 14.2751 Q53.4062 13.4392 53.4062 11.8611 ZM54.4844 11.8611 Q54.4844 13.0486 55.0078 13.6423 Q55.5312 14.2361 56.3125 14.2361 Q57.1094 14.2361 57.625 13.6423 Q58.1406 13.0486 58.1406 11.8298 Q58.1406 10.6736 57.6172 10.0798 Q57.0938 9.4861 56.3125 9.4861 Q55.5312 9.4861 55.0078 10.072 Q54.4844 10.6579 54.4844 11.8611 ZM54.8125 6.9704 L54.8125 5.7673 L55.9062 5.7673 L55.9062 6.9704 L54.8125 6.9704 ZM57 6.9704 L57 5.7673 L58.0938 5.7673 L58.0938 6.9704 L57 6.9704 ZM60.7812 14.9704 L60.7812 8.7517 L61.7344 8.7517 L61.7344 9.6892 Q62.0938 9.0329 62.3984 8.822 Q62.7031 8.6111 63.0781 8.6111 Q63.6094 8.6111 64.1562 8.9392 L63.7969 9.9236 Q63.4062 9.6892 63.0312 9.6892 Q62.6719 9.6892 62.3984 9.9001 Q62.125 10.1111 62.0156 10.4861 Q61.8281 11.0486 61.8281 11.7048 L61.8281 14.9704 L60.7812 14.9704 Z" style="clip-path:url(#clipPath6); stroke:none;" />
      <path d="M3.7969 28.9704 L3.7969 20.3767 L4.8594 20.3767 L4.8594 25.2829 L7.3438 22.7517 L8.7188 22.7517 L6.3281 25.0486 L8.9531 28.9704 L7.6562 28.9704 L5.5938 25.7829 L4.8594 26.5017 L4.8594 28.9704 L3.7969 28.9704 ZM9.7969 21.5954 L9.7969 20.3767 L10.8594 20.3767 L10.8594 21.5954 L9.7969 21.5954 ZM9.7969 28.9704 L9.7969 22.7517 L10.8594 22.7517 L10.8594 28.9704 L9.7969 28.9704 ZM17.0469 26.9704 L18.1406 27.0954 Q17.8906 28.0486 17.1875 28.5798 Q16.4844 29.1111 15.4062 29.1111 Q14.0469 29.1111 13.2422 28.2673 Q12.4375 27.4236 12.4375 25.9079 Q12.4375 24.3454 13.25 23.4782 Q14.0625 22.6111 15.3438 22.6111 Q16.5938 22.6111 17.3828 23.4548 Q18.1719 24.2986 18.1719 25.8454 Q18.1719 25.9392 18.1719 26.1267 L13.5312 26.1267 Q13.5938 27.1579 14.1094 27.697 Q14.625 28.2361 15.4062 28.2361 Q15.9844 28.2361 16.3984 27.9314 Q16.8125 27.6267 17.0469 26.9704 ZM13.5938 25.2673 L17.0625 25.2673 Q17 24.4704 16.6719 24.0798 Q16.1562 23.4704 15.3594 23.4704 Q14.625 23.4704 14.1328 23.9548 Q13.6406 24.4392 13.5938 25.2673 ZM14.125 20.9704 L14.9062 19.3298 L16.2969 19.3298 L15 20.9704 L14.125 20.9704 ZM19.7812 28.9704 L19.7812 22.7517 L20.7344 22.7517 L20.7344 23.6892 Q21.0938 23.0329 21.3984 22.822 Q21.7031 22.6111 22.0781 22.6111 Q22.6094 22.6111 23.1562 22.9392 L22.7969 23.9236 Q22.4062 23.6892 22.0312 23.6892 Q21.6719 23.6892 21.3984 23.9001 Q21.125 24.1111 21.0156 24.4861 Q20.8281 25.0486 20.8281 25.7048 L20.8281 28.9704 L19.7812 28.9704 ZM26.0938 28.0329 L26.25 28.9548 Q25.7969 29.0486 25.4531 29.0486 Q24.875 29.0486 24.5625 28.8689 Q24.25 28.6892 24.1172 28.3923 Q23.9844 28.0954 23.9844 27.1423 L23.9844 23.5642 L23.2188 23.5642 L23.2188 22.7517 L23.9844 22.7517 L23.9844 21.2048 L25.0312 20.5798 L25.0312 22.7517 L26.0938 22.7517 L26.0938 23.5642 L25.0312 23.5642 L25.0312 27.2048 Q25.0312 27.6579 25.0859 27.7829 Q25.1406 27.9079 25.2656 27.9861 Q25.3906 28.0642 25.625 28.0642 Q25.8125 28.0642 26.0938 28.0329 ZM31.0469 26.9704 L32.1406 27.0954 Q31.8906 28.0486 31.1875 28.5798 Q30.4844 29.1111 29.4062 29.1111 Q28.0469 29.1111 27.2422 28.2673 Q26.4375 27.4236 26.4375 25.9079 Q26.4375 24.3454 27.25 23.4782 Q28.0625 22.6111 29.3438 22.6111 Q30.5938 22.6111 31.3828 23.4548 Q32.1719 24.2986 32.1719 25.8454 Q32.1719 25.9392 32.1719 26.1267 L27.5312 26.1267 Q27.5938 27.1579 28.1094 27.697 Q28.625 28.2361 29.4062 28.2361 Q29.9844 28.2361 30.3984 27.9314 Q30.8125 27.6267 31.0469 26.9704 ZM27.5938 25.2673 L31.0625 25.2673 Q31 24.4704 30.6719 24.0798 Q30.1562 23.4704 29.3594 23.4704 Q28.625 23.4704 28.1328 23.9548 Q27.6406 24.4392 27.5938 25.2673 ZM28.125 20.9704 L28.9062 19.3298 L30.2969 19.3298 L29 20.9704 L28.125 20.9704 ZM33.7969 28.9704 L33.7969 20.3767 L34.8594 20.3767 L34.8594 25.2829 L37.3438 22.7517 L38.7188 22.7517 L36.3281 25.0486 L38.9531 28.9704 L37.6562 28.9704 L35.5938 25.7829 L34.8594 26.5017 L34.8594 28.9704 L33.7969 28.9704 ZM44.0469 26.9704 L45.1406 27.0954 Q44.8906 28.0486 44.1875 28.5798 Q43.4844 29.1111 42.4062 29.1111 Q41.0469 29.1111 40.2422 28.2673 Q39.4375 27.4236 39.4375 25.9079 Q39.4375 24.3454 40.25 23.4782 Q41.0625 22.6111 42.3438 22.6111 Q43.5938 22.6111 44.3828 23.4548 Q45.1719 24.2986 45.1719 25.8454 Q45.1719 25.9392 45.1719 26.1267 L40.5312 26.1267 Q40.5938 27.1579 41.1094 27.697 Q41.625 28.2361 42.4062 28.2361 Q42.9844 28.2361 43.3984 27.9314 Q43.8125 27.6267 44.0469 26.9704 ZM40.5938 25.2673 L44.0625 25.2673 Q44 24.4704 43.6719 24.0798 Q43.1562 23.4704 42.3594 23.4704 Q41.625 23.4704 41.1328 23.9548 Q40.6406 24.4392 40.5938 25.2673 ZM46.7656 28.9704 L46.7656 20.3767 L47.8281 20.3767 L47.8281 28.9704 L46.7656 28.9704 ZM54.0469 26.9704 L55.1406 27.0954 Q54.8906 28.0486 54.1875 28.5798 Q53.4844 29.1111 52.4062 29.1111 Q51.0469 29.1111 50.2422 28.2673 Q49.4375 27.4236 49.4375 25.9079 Q49.4375 24.3454 50.25 23.4782 Q51.0625 22.6111 52.3438 22.6111 Q53.5938 22.6111 54.3828 23.4548 Q55.1719 24.2986 55.1719 25.8454 Q55.1719 25.9392 55.1719 26.1267 L50.5312 26.1267 Q50.5938 27.1579 51.1094 27.697 Q51.625 28.2361 52.4062 28.2361 Q52.9844 28.2361 53.3984 27.9314 Q53.8125 27.6267 54.0469 26.9704 ZM50.5938 25.2673 L54.0625 25.2673 Q54 24.4704 53.6719 24.0798 Q53.1562 23.4704 52.3594 23.4704 Q51.625 23.4704 51.1328 23.9548 Q50.6406 24.4392 50.5938 25.2673 ZM51.125 20.9704 L51.9062 19.3298 L53.2969 19.3298 L52 20.9704 L51.125 20.9704 ZM56.375 27.1111 L57.4062 26.9548 Q57.5 27.5798 57.8984 27.9079 Q58.2969 28.2361 59.0312 28.2361 Q59.75 28.2361 60.1016 27.947 Q60.4531 27.6579 60.4531 27.2517 Q60.4531 26.8923 60.1406 26.6892 Q59.9219 26.5486 59.0625 26.3298 Q57.9062 26.0329 57.4609 25.822 Q57.0156 25.6111 56.7812 25.2361 Q56.5469 24.8611 56.5469 24.3923 Q56.5469 23.9861 56.7344 23.6267 Q56.9219 23.2673 57.25 23.0329 Q57.5 22.8611 57.9219 22.7361 Q58.3438 22.6111 58.8438 22.6111 Q59.5625 22.6111 60.1172 22.822 Q60.6719 23.0329 60.9375 23.3923 Q61.2031 23.7517 61.2969 24.3454 L60.2656 24.4861 Q60.2031 24.0173 59.8672 23.7439 Q59.5312 23.4704 58.9062 23.4704 Q58.1875 23.4704 57.875 23.7126 Q57.5625 23.9548 57.5625 24.2829 Q57.5625 24.4861 57.6875 24.6423 Q57.8281 24.8142 58.0938 24.9236 Q58.25 24.9861 59.0312 25.1892 Q60.1562 25.5017 60.5938 25.6892 Q61.0312 25.8767 61.2812 26.2361 Q61.5312 26.5954 61.5312 27.1423 Q61.5312 27.6736 61.2266 28.1345 Q60.9219 28.5954 60.3438 28.8532 Q59.7656 29.1111 59.0312 29.1111 Q57.8125 29.1111 57.1797 28.6032 Q56.5469 28.0954 56.375 27.1111 ZM68.0469 26.9704 L69.1406 27.0954 Q68.8906 28.0486 68.1875 28.5798 Q67.4844 29.1111 66.4062 29.1111 Q65.0469 29.1111 64.2422 28.2673 Q63.4375 27.4236 63.4375 25.9079 Q63.4375 24.3454 64.25 23.4782 Q65.0625 22.6111 66.3438 22.6111 Q67.5938 22.6111 68.3828 23.4548 Q69.1719 24.2986 69.1719 25.8454 Q69.1719 25.9392 69.1719 26.1267 L64.5312 26.1267 Q64.5938 27.1579 65.1094 27.697 Q65.625 28.2361 66.4062 28.2361 Q66.9844 28.2361 67.3984 27.9314 Q67.8125 27.6267 68.0469 26.9704 ZM64.5938 25.2673 L68.0625 25.2673 Q68 24.4704 67.6719 24.0798 Q67.1562 23.4704 66.3594 23.4704 Q65.625 23.4704 65.1328 23.9548 Q64.6406 24.4392 64.5938 25.2673 ZM73.375 27.1111 L74.4062 26.9548 Q74.5 27.5798 74.8984 27.9079 Q75.2969 28.2361 76.0312 28.2361 Q76.75 28.2361 77.1016 27.947 Q77.4531 27.6579 77.4531 27.2517 Q77.4531 26.8923 77.1406 26.6892 Q76.9219 26.5486 76.0625 26.3298 Q74.9062 26.0329 74.4609 25.822 Q74.0156 25.6111 73.7812 25.2361 Q73.5469 24.8611 73.5469 24.3923 Q73.5469 23.9861 73.7344 23.6267 Q73.9219 23.2673 74.25 23.0329 Q74.5 22.8611 74.9219 22.7361 Q75.3438 22.6111 75.8438 22.6111 Q76.5625 22.6111 77.1172 22.822 Q77.6719 23.0329 77.9375 23.3923 Q78.2031 23.7517 78.2969 24.3454 L77.2656 24.4861 Q77.2031 24.0173 76.8672 23.7439 Q76.5312 23.4704 75.9062 23.4704 Q75.1875 23.4704 74.875 23.7126 Q74.5625 23.9548 74.5625 24.2829 Q74.5625 24.4861 74.6875 24.6423 Q74.8281 24.8142 75.0938 24.9236 Q75.25 24.9861 76.0312 25.1892 Q77.1562 25.5017 77.5938 25.6892 Q78.0312 25.8767 78.2812 26.2361 Q78.5312 26.5954 78.5312 27.1423 Q78.5312 27.6736 78.2266 28.1345 Q77.9219 28.5954 77.3438 28.8532 Q76.7656 29.1111 76.0312 29.1111 Q74.8125 29.1111 74.1797 28.6032 Q73.5469 28.0954 73.375 27.1111 ZM80.4062 25.8611 Q80.4062 24.1267 81.3594 23.2986 Q82.1562 22.6111 83.3125 22.6111 Q84.5938 22.6111 85.4141 23.447 Q86.2344 24.2829 86.2344 25.7673 Q86.2344 26.9704 85.875 27.6579 Q85.5156 28.3454 84.8203 28.7282 Q84.125 29.1111 83.3125 29.1111 Q82.0156 29.1111 81.2109 28.2751 Q80.4062 27.4392 80.4062 25.8611 ZM81.4844 25.8611 Q81.4844 27.0486 82.0078 27.6423 Q82.5312 28.2361 83.3125 28.2361 Q84.1094 28.2361 84.625 27.6423 Q85.1406 27.0486 85.1406 25.8298 Q85.1406 24.6736 84.6172 24.0798 Q84.0938 23.4861 83.3125 23.4861 Q82.5312 23.4861 82.0078 24.072 Q81.4844 24.6579 81.4844 25.8611 ZM87.7812 28.9704 L87.7812 22.7517 L88.7344 22.7517 L88.7344 23.6892 Q89.0938 23.0329 89.3984 22.822 Q89.7031 22.6111 90.0781 22.6111 Q90.6094 22.6111 91.1562 22.9392 L90.7969 23.9236 Q90.4062 23.6892 90.0312 23.6892 Q89.6719 23.6892 89.3984 23.9001 Q89.125 24.1111 89.0156 24.4861 Q88.8281 25.0486 88.8281 25.7048 L88.8281 28.9704 L87.7812 28.9704 ZM95.8594 28.2048 Q95.2656 28.7048 94.7266 28.9079 Q94.1875 29.1111 93.5625 29.1111 Q92.5312 29.1111 91.9844 28.6111 Q91.4375 28.1111 91.4375 27.3298 Q91.4375 26.8767 91.6406 26.4939 Q91.8438 26.1111 92.1875 25.8845 Q92.5312 25.6579 92.9531 25.5486 Q93.25 25.4548 93.8906 25.3767 Q95.1562 25.2361 95.7656 25.0173 Q95.7656 24.7986 95.7656 24.7517 Q95.7656 24.0954 95.4688 23.8298 Q95.0625 23.4861 94.2656 23.4861 Q93.5312 23.4861 93.1719 23.7439 Q92.8125 24.0017 92.6406 24.6579 L91.6094 24.5173 Q91.75 23.8611 92.0781 23.4548 Q92.4062 23.0486 93.0156 22.8298 Q93.625 22.6111 94.4219 22.6111 Q95.2188 22.6111 95.7188 22.7986 Q96.2188 22.9861 96.4531 23.2673 Q96.6875 23.5486 96.7812 23.9861 Q96.8281 24.2517 96.8281 24.9548 L96.8281 26.3611 Q96.8281 27.8298 96.8984 28.2204 Q96.9688 28.6111 97.1719 28.9704 L96.0625 28.9704 Q95.9062 28.6423 95.8594 28.2048 ZM95.7656 25.8454 Q95.1875 26.0798 94.0469 26.2517 Q93.3906 26.3454 93.125 26.4626 Q92.8594 26.5798 92.7109 26.7986 Q92.5625 27.0173 92.5625 27.2986 Q92.5625 27.7204 92.8828 28.0017 Q93.2031 28.2829 93.8125 28.2829 Q94.4219 28.2829 94.8984 28.0173 Q95.375 27.7517 95.5938 27.2829 Q95.7656 26.9236 95.7656 26.2361 L95.7656 25.8454 ZM93.125 20.9704 L93.9062 19.3298 L95.2969 19.3298 L94 20.9704 L93.125 20.9704 ZM98.7969 28.9704 L98.7969 22.7517 L99.7344 22.7517 L99.7344 23.6267 Q100.4219 22.6111 101.7188 22.6111 Q102.2812 22.6111 102.7578 22.8142 Q103.2344 23.0173 103.4688 23.3454 Q103.7031 23.6736 103.7969 24.1111 Q103.8438 24.4079 103.8438 25.1423 L103.8438 28.9704 L102.7969 28.9704 L102.7969 25.1892 Q102.7969 24.5329 102.6719 24.2204 Q102.5469 23.9079 102.2344 23.7126 Q101.9219 23.5173 101.5 23.5173 Q100.8281 23.5173 100.3359 23.947 Q99.8438 24.3767 99.8438 25.5642 L99.8438 28.9704 L98.7969 28.9704 Z" style="clip-path:url(#clipPath6); stroke:none;" />
      <path d="M3.7969 42.9704 L3.7969 36.7517 L4.7344 36.7517 L4.7344 37.6267 Q5.4219 36.6111 6.7188 36.6111 Q7.2812 36.6111 7.7578 36.8142 Q8.2344 37.0173 8.4688 37.3454 Q8.7031 37.6736 8.7969 38.1111 Q8.8438 38.4079 8.8438 39.1423 L8.8438 42.9704 L7.7969 42.9704 L7.7969 39.1892 Q7.7969 38.5329 7.6719 38.2204 Q7.5469 37.9079 7.2344 37.7126 Q6.9219 37.5173 6.5 37.5173 Q5.8281 37.5173 5.3359 37.947 Q4.8438 38.3767 4.8438 39.5642 L4.8438 42.9704 L3.7969 42.9704 ZM15.0469 40.9704 L16.1406 41.0954 Q15.8906 42.0486 15.1875 42.5798 Q14.4844 43.1111 13.4062 43.1111 Q12.0469 43.1111 11.2422 42.2673 Q10.4375 41.4236 10.4375 39.9079 Q10.4375 38.3454 11.25 37.4782 Q12.0625 36.6111 13.3438 36.6111 Q14.5938 36.6111 15.3828 37.4548 Q16.1719 38.2986 16.1719 39.8454 Q16.1719 39.9392 16.1719 40.1267 L11.5312 40.1267 Q11.5938 41.1579 12.1094 41.697 Q12.625 42.2361 13.4062 42.2361 Q13.9844 42.2361 14.3984 41.9314 Q14.8125 41.6267 15.0469 40.9704 ZM11.5938 39.2673 L15.0625 39.2673 Q15 38.4704 14.6719 38.0798 Q14.1562 37.4704 13.3594 37.4704 Q12.625 37.4704 12.1328 37.9548 Q11.6406 38.4392 11.5938 39.2673 ZM17.7969 42.9704 L17.7969 36.7517 L18.7344 36.7517 L18.7344 37.6267 Q19.0312 37.1579 19.5156 36.8845 Q20 36.6111 20.625 36.6111 Q21.3125 36.6111 21.7578 36.8923 Q22.2031 37.1736 22.375 37.6892 Q23.125 36.6111 24.2969 36.6111 Q25.2344 36.6111 25.7266 37.1189 Q26.2188 37.6267 26.2188 38.7048 L26.2188 42.9704 L25.1719 42.9704 L25.1719 39.0486 Q25.1719 38.4236 25.0703 38.1423 Q24.9688 37.8611 24.7031 37.6892 Q24.4375 37.5173 24.0625 37.5173 Q23.4062 37.5173 22.9766 37.9548 Q22.5469 38.3923 22.5469 39.3611 L22.5469 42.9704 L21.4844 42.9704 L21.4844 38.9236 Q21.4844 38.2204 21.2266 37.8689 Q20.9688 37.5173 20.3906 37.5173 Q19.9375 37.5173 19.5625 37.7517 Q19.1875 37.9861 19.0156 38.4392 Q18.8438 38.8923 18.8438 39.7361 L18.8438 42.9704 L17.7969 42.9704 ZM35.8594 42.2048 Q35.2656 42.7048 34.7266 42.9079 Q34.1875 43.1111 33.5625 43.1111 Q32.5312 43.1111 31.9844 42.6111 Q31.4375 42.1111 31.4375 41.3298 Q31.4375 40.8767 31.6406 40.4939 Q31.8438 40.1111 32.1875 39.8845 Q32.5312 39.6579 32.9531 39.5486 Q33.25 39.4548 33.8906 39.3767 Q35.1562 39.2361 35.7656 39.0173 Q35.7656 38.7986 35.7656 38.7517 Q35.7656 38.0954 35.4688 37.8298 Q35.0625 37.4861 34.2656 37.4861 Q33.5312 37.4861 33.1719 37.7439 Q32.8125 38.0017 32.6406 38.6579 L31.6094 38.5173 Q31.75 37.8611 32.0781 37.4548 Q32.4062 37.0486 33.0156 36.8298 Q33.625 36.6111 34.4219 36.6111 Q35.2188 36.6111 35.7188 36.7986 Q36.2188 36.9861 36.4531 37.2673 Q36.6875 37.5486 36.7812 37.9861 Q36.8281 38.2517 36.8281 38.9548 L36.8281 40.3611 Q36.8281 41.8298 36.8984 42.2204 Q36.9688 42.6111 37.1719 42.9704 L36.0625 42.9704 Q35.9062 42.6423 35.8594 42.2048 ZM35.7656 39.8454 Q35.1875 40.0798 34.0469 40.2517 Q33.3906 40.3454 33.125 40.4626 Q32.8594 40.5798 32.7109 40.7986 Q32.5625 41.0173 32.5625 41.2986 Q32.5625 41.7204 32.8828 42.0017 Q33.2031 42.2829 33.8125 42.2829 Q34.4219 42.2829 34.8984 42.0173 Q35.375 41.7517 35.5938 41.2829 Q35.7656 40.9236 35.7656 40.2361 L35.7656 39.8454 ZM33.125 34.9704 L33.9062 33.3298 L35.2969 33.3298 L34 34.9704 L33.125 34.9704 ZM38.7656 42.9704 L38.7656 34.3767 L39.8281 34.3767 L39.8281 42.9704 L38.7656 42.9704 ZM41.7656 42.9704 L41.7656 34.3767 L42.8281 34.3767 L42.8281 42.9704 L41.7656 42.9704 ZM47.0938 42.0329 L47.25 42.9548 Q46.7969 43.0486 46.4531 43.0486 Q45.875 43.0486 45.5625 42.8689 Q45.25 42.6892 45.1172 42.3923 Q44.9844 42.0954 44.9844 41.1423 L44.9844 37.5642 L44.2188 37.5642 L44.2188 36.7517 L44.9844 36.7517 L44.9844 35.2048 L46.0312 34.5798 L46.0312 36.7517 L47.0938 36.7517 L47.0938 37.5642 L46.0312 37.5642 L46.0312 41.2048 Q46.0312 41.6579 46.0859 41.7829 Q46.1406 41.9079 46.2656 41.9861 Q46.3906 42.0642 46.625 42.0642 Q46.8125 42.0642 47.0938 42.0329 ZM51.7656 42.9704 L50.7812 42.9704 L50.7812 34.3767 L51.8438 34.3767 L51.8438 37.4392 Q52.5156 36.6111 53.5469 36.6111 Q54.125 36.6111 54.6328 36.8376 Q55.1406 37.0642 55.4766 37.4861 Q55.8125 37.9079 56 38.5017 Q56.1875 39.0954 56.1875 39.7673 Q56.1875 41.3611 55.3906 42.2361 Q54.5938 43.1111 53.5 43.1111 Q52.3906 43.1111 51.7656 42.1892 L51.7656 42.9704 ZM51.75 39.8142 Q51.75 40.9236 52.0625 41.4236 Q52.5625 42.2361 53.4062 42.2361 Q54.0938 42.2361 54.6016 41.6423 Q55.1094 41.0486 55.1094 39.8454 Q55.1094 38.6267 54.625 38.0486 Q54.1406 37.4704 53.4531 37.4704 Q52.7656 37.4704 52.2578 38.072 Q51.75 38.6736 51.75 39.8142 ZM62.0469 40.9704 L63.1406 41.0954 Q62.8906 42.0486 62.1875 42.5798 Q61.4844 43.1111 60.4062 43.1111 Q59.0469 43.1111 58.2422 42.2673 Q57.4375 41.4236 57.4375 39.9079 Q57.4375 38.3454 58.25 37.4782 Q59.0625 36.6111 60.3438 36.6111 Q61.5938 36.6111 62.3828 37.4548 Q63.1719 38.2986 63.1719 39.8454 Q63.1719 39.9392 63.1719 40.1267 L58.5312 40.1267 Q58.5938 41.1579 59.1094 41.697 Q59.625 42.2361 60.4062 42.2361 Q60.9844 42.2361 61.3984 41.9314 Q61.8125 41.6267 62.0469 40.9704 ZM58.5938 39.2673 L62.0625 39.2673 Q62 38.4704 61.6719 38.0798 Q61.1562 37.4704 60.3594 37.4704 Q59.625 37.4704 59.1328 37.9548 Q58.6406 38.4392 58.5938 39.2673 Z" style="clip-path:url(#clipPath6); stroke:none;" />
      <path d="M3.375 55.1111 L4.4062 54.9548 Q4.5 55.5798 4.8984 55.9079 Q5.2969 56.2361 6.0312 56.2361 Q6.75 56.2361 7.1016 55.947 Q7.4531 55.6579 7.4531 55.2517 Q7.4531 54.8923 7.1406 54.6892 Q6.9219 54.5486 6.0625 54.3298 Q4.9062 54.0329 4.4609 53.822 Q4.0156 53.6111 3.7812 53.2361 Q3.5469 52.8611 3.5469 52.3923 Q3.5469 51.9861 3.7344 51.6267 Q3.9219 51.2673 4.25 51.0329 Q4.5 50.8611 4.9219 50.7361 Q5.3438 50.6111 5.8438 50.6111 Q6.5625 50.6111 7.1172 50.822 Q7.6719 51.0329 7.9375 51.3923 Q8.2031 51.7517 8.2969 52.3454 L7.2656 52.4861 Q7.2031 52.0173 6.8672 51.7439 Q6.5312 51.4704 5.9062 51.4704 Q5.1875 51.4704 4.875 51.7126 Q4.5625 51.9548 4.5625 52.2829 Q4.5625 52.4861 4.6875 52.6423 Q4.8281 52.8142 5.0938 52.9236 Q5.25 52.9861 6.0312 53.1892 Q7.1562 53.5017 7.5938 53.6892 Q8.0312 53.8767 8.2812 54.2361 Q8.5312 54.5954 8.5312 55.1423 Q8.5312 55.6736 8.2266 56.1345 Q7.9219 56.5954 7.3438 56.8532 Q6.7656 57.1111 6.0312 57.1111 Q4.8125 57.1111 4.1797 56.6032 Q3.5469 56.0954 3.375 55.1111 ZM13.0938 56.0329 L13.25 56.9548 Q12.7969 57.0486 12.4531 57.0486 Q11.875 57.0486 11.5625 56.8689 Q11.25 56.6892 11.1172 56.3923 Q10.9844 56.0954 10.9844 55.1423 L10.9844 51.5642 L10.2188 51.5642 L10.2188 50.7517 L10.9844 50.7517 L10.9844 49.2048 L12.0312 48.5798 L12.0312 50.7517 L13.0938 50.7517 L13.0938 51.5642 L12.0312 51.5642 L12.0312 55.2048 Q12.0312 55.6579 12.0859 55.7829 Q12.1406 55.9079 12.2656 55.9861 Q12.3906 56.0642 12.625 56.0642 Q12.8125 56.0642 13.0938 56.0329 ZM17.8594 56.2048 Q17.2656 56.7048 16.7266 56.9079 Q16.1875 57.1111 15.5625 57.1111 Q14.5312 57.1111 13.9844 56.6111 Q13.4375 56.1111 13.4375 55.3298 Q13.4375 54.8767 13.6406 54.4939 Q13.8438 54.1111 14.1875 53.8845 Q14.5312 53.6579 14.9531 53.5486 Q15.25 53.4548 15.8906 53.3767 Q17.1562 53.2361 17.7656 53.0173 Q17.7656 52.7986 17.7656 52.7517 Q17.7656 52.0954 17.4688 51.8298 Q17.0625 51.4861 16.2656 51.4861 Q15.5312 51.4861 15.1719 51.7439 Q14.8125 52.0017 14.6406 52.6579 L13.6094 52.5173 Q13.75 51.8611 14.0781 51.4548 Q14.4062 51.0486 15.0156 50.8298 Q15.625 50.6111 16.4219 50.6111 Q17.2188 50.6111 17.7188 50.7986 Q18.2188 50.9861 18.4531 51.2673 Q18.6875 51.5486 18.7812 51.9861 Q18.8281 52.2517 18.8281 52.9548 L18.8281 54.3611 Q18.8281 55.8298 18.8984 56.2204 Q18.9688 56.6111 19.1719 56.9704 L18.0625 56.9704 Q17.9062 56.6423 17.8594 56.2048 ZM17.7656 53.8454 Q17.1875 54.0798 16.0469 54.2517 Q15.3906 54.3454 15.125 54.4626 Q14.8594 54.5798 14.7109 54.7986 Q14.5625 55.0173 14.5625 55.2986 Q14.5625 55.7204 14.8828 56.0017 Q15.2031 56.2829 15.8125 56.2829 Q16.4219 56.2829 16.8984 56.0173 Q17.375 55.7517 17.5938 55.2829 Q17.7656 54.9236 17.7656 54.2361 L17.7656 53.8454 ZM24.8594 54.6892 L25.8906 54.8298 Q25.7188 55.8923 25.0156 56.5017 Q24.3125 57.1111 23.2969 57.1111 Q22.0156 57.1111 21.2422 56.2751 Q20.4688 55.4392 20.4688 53.8767 Q20.4688 52.8767 20.8047 52.1189 Q21.1406 51.3611 21.8203 50.9861 Q22.5 50.6111 23.3125 50.6111 Q24.3125 50.6111 24.9609 51.1189 Q25.6094 51.6267 25.7969 52.5798 L24.7656 52.7361 Q24.625 52.1111 24.25 51.7907 Q23.875 51.4704 23.3438 51.4704 Q22.5469 51.4704 22.0469 52.0407 Q21.5469 52.6111 21.5469 53.8454 Q21.5469 55.1111 22.0312 55.6736 Q22.5156 56.2361 23.2812 56.2361 Q23.9062 56.2361 24.3203 55.8611 Q24.7344 55.4861 24.8594 54.6892 ZM26.7969 49.5954 L26.7969 48.3767 L27.8594 48.3767 L27.8594 49.5954 L26.7969 49.5954 ZM26.7969 56.9704 L26.7969 50.7517 L27.8594 50.7517 L27.8594 56.9704 L26.7969 56.9704 ZM29.4062 53.8611 Q29.4062 52.1267 30.3594 51.2986 Q31.1562 50.6111 32.3125 50.6111 Q33.5938 50.6111 34.4141 51.447 Q35.2344 52.2829 35.2344 53.7673 Q35.2344 54.9704 34.875 55.6579 Q34.5156 56.3454 33.8203 56.7282 Q33.125 57.1111 32.3125 57.1111 Q31.0156 57.1111 30.2109 56.2751 Q29.4062 55.4392 29.4062 53.8611 ZM30.4844 53.8611 Q30.4844 55.0486 31.0078 55.6423 Q31.5312 56.2361 32.3125 56.2361 Q33.1094 56.2361 33.625 55.6423 Q34.1406 55.0486 34.1406 53.8298 Q34.1406 52.6736 33.6172 52.0798 Q33.0938 51.4861 32.3125 51.4861 Q31.5312 51.4861 31.0078 52.072 Q30.4844 52.6579 30.4844 53.8611 ZM36.7969 56.9704 L36.7969 50.7517 L37.7344 50.7517 L37.7344 51.6267 Q38.4219 50.6111 39.7188 50.6111 Q40.2812 50.6111 40.7578 50.8142 Q41.2344 51.0173 41.4688 51.3454 Q41.7031 51.6736 41.7969 52.1111 Q41.8438 52.4079 41.8438 53.1423 L41.8438 56.9704 L40.7969 56.9704 L40.7969 53.1892 Q40.7969 52.5329 40.6719 52.2204 Q40.5469 51.9079 40.2344 51.7126 Q39.9219 51.5173 39.5 51.5173 Q38.8281 51.5173 38.3359 51.947 Q37.8438 52.3767 37.8438 53.5642 L37.8438 56.9704 L36.7969 56.9704 ZM47.8594 56.2048 Q47.2656 56.7048 46.7266 56.9079 Q46.1875 57.1111 45.5625 57.1111 Q44.5312 57.1111 43.9844 56.6111 Q43.4375 56.1111 43.4375 55.3298 Q43.4375 54.8767 43.6406 54.4939 Q43.8438 54.1111 44.1875 53.8845 Q44.5312 53.6579 44.9531 53.5486 Q45.25 53.4548 45.8906 53.3767 Q47.1562 53.2361 47.7656 53.0173 Q47.7656 52.7986 47.7656 52.7517 Q47.7656 52.0954 47.4688 51.8298 Q47.0625 51.4861 46.2656 51.4861 Q45.5312 51.4861 45.1719 51.7439 Q44.8125 52.0017 44.6406 52.6579 L43.6094 52.5173 Q43.75 51.8611 44.0781 51.4548 Q44.4062 51.0486 45.0156 50.8298 Q45.625 50.6111 46.4219 50.6111 Q47.2188 50.6111 47.7188 50.7986 Q48.2188 50.9861 48.4531 51.2673 Q48.6875 51.5486 48.7812 51.9861 Q48.8281 52.2517 48.8281 52.9548 L48.8281 54.3611 Q48.8281 55.8298 48.8984 56.2204 Q48.9688 56.6111 49.1719 56.9704 L48.0625 56.9704 Q47.9062 56.6423 47.8594 56.2048 ZM47.7656 53.8454 Q47.1875 54.0798 46.0469 54.2517 Q45.3906 54.3454 45.125 54.4626 Q44.8594 54.5798 44.7109 54.7986 Q44.5625 55.0173 44.5625 55.2986 Q44.5625 55.7204 44.8828 56.0017 Q45.2031 56.2829 45.8125 56.2829 Q46.4219 56.2829 46.8984 56.0173 Q47.375 55.7517 47.5938 55.2829 Q47.7656 54.9236 47.7656 54.2361 L47.7656 53.8454 ZM45.125 48.9704 L45.9062 47.3298 L47.2969 47.3298 L46 48.9704 L45.125 48.9704 ZM50.7812 56.9704 L50.7812 50.7517 L51.7344 50.7517 L51.7344 51.6892 Q52.0938 51.0329 52.3984 50.822 Q52.7031 50.6111 53.0781 50.6111 Q53.6094 50.6111 54.1562 50.9392 L53.7969 51.9236 Q53.4062 51.6892 53.0312 51.6892 Q52.6719 51.6892 52.3984 51.9001 Q52.125 52.1111 52.0156 52.4861 Q51.8281 53.0486 51.8281 53.7048 L51.8281 56.9704 L50.7812 56.9704 ZM54.7969 49.5954 L54.7969 48.3767 L55.8594 48.3767 L55.8594 49.5954 L54.7969 49.5954 ZM54.7969 56.9704 L54.7969 50.7517 L55.8594 50.7517 L55.8594 56.9704 L54.7969 56.9704 ZM61.875 56.9704 L61.875 56.0486 Q61.1406 57.1111 59.8906 57.1111 Q59.3438 57.1111 58.8672 56.9001 Q58.3906 56.6892 58.1562 56.3689 Q57.9219 56.0486 57.8281 55.5798 Q57.7656 55.2829 57.7656 54.5954 L57.7656 50.7517 L58.8281 50.7517 L58.8281 54.2048 Q58.8281 55.0173 58.8906 55.3142 Q58.9844 55.7204 59.3047 55.9626 Q59.625 56.2048 60.1094 56.2048 Q60.5781 56.2048 60.9922 55.9626 Q61.4062 55.7204 61.5859 55.2986 Q61.7656 54.8767 61.7656 54.0798 L61.7656 50.7517 L62.8125 50.7517 L62.8125 56.9704 L61.875 56.9704 ZM64.375 55.1111 L65.4062 54.9548 Q65.5 55.5798 65.8984 55.9079 Q66.2969 56.2361 67.0312 56.2361 Q67.75 56.2361 68.1016 55.947 Q68.4531 55.6579 68.4531 55.2517 Q68.4531 54.8923 68.1406 54.6892 Q67.9219 54.5486 67.0625 54.3298 Q65.9062 54.0329 65.4609 53.822 Q65.0156 53.6111 64.7812 53.2361 Q64.5469 52.8611 64.5469 52.3923 Q64.5469 51.9861 64.7344 51.6267 Q64.9219 51.2673 65.25 51.0329 Q65.5 50.8611 65.9219 50.7361 Q66.3438 50.6111 66.8438 50.6111 Q67.5625 50.6111 68.1172 50.822 Q68.6719 51.0329 68.9375 51.3923 Q69.2031 51.7517 69.2969 52.3454 L68.2656 52.4861 Q68.2031 52.0173 67.8672 51.7439 Q67.5312 51.4704 66.9062 51.4704 Q66.1875 51.4704 65.875 51.7126 Q65.5625 51.9548 65.5625 52.2829 Q65.5625 52.4861 65.6875 52.6423 Q65.8281 52.8142 66.0938 52.9236 Q66.25 52.9861 67.0312 53.1892 Q68.1562 53.5017 68.5938 53.6892 Q69.0312 53.8767 69.2812 54.2361 Q69.5312 54.5954 69.5312 55.1423 Q69.5312 55.6736 69.2266 56.1345 Q68.9219 56.5954 68.3438 56.8532 Q67.7656 57.1111 67.0312 57.1111 Q65.8125 57.1111 65.1797 56.6032 Q64.5469 56.0954 64.375 55.1111 ZM78.8594 56.2048 Q78.2656 56.7048 77.7266 56.9079 Q77.1875 57.1111 76.5625 57.1111 Q75.5312 57.1111 74.9844 56.6111 Q74.4375 56.1111 74.4375 55.3298 Q74.4375 54.8767 74.6406 54.4939 Q74.8438 54.1111 75.1875 53.8845 Q75.5312 53.6579 75.9531 53.5486 Q76.25 53.4548 76.8906 53.3767 Q78.1562 53.2361 78.7656 53.0173 Q78.7656 52.7986 78.7656 52.7517 Q78.7656 52.0954 78.4688 51.8298 Q78.0625 51.4861 77.2656 51.4861 Q76.5312 51.4861 76.1719 51.7439 Q75.8125 52.0017 75.6406 52.6579 L74.6094 52.5173 Q74.75 51.8611 75.0781 51.4548 Q75.4062 51.0486 76.0156 50.8298 Q76.625 50.6111 77.4219 50.6111 Q78.2188 50.6111 78.7188 50.7986 Q79.2188 50.9861 79.4531 51.2673 Q79.6875 51.5486 79.7812 51.9861 Q79.8281 52.2517 79.8281 52.9548 L79.8281 54.3611 Q79.8281 55.8298 79.8984 56.2204 Q79.9688 56.6111 80.1719 56.9704 L79.0625 56.9704 Q78.9062 56.6423 78.8594 56.2048 ZM78.7656 53.8454 Q78.1875 54.0798 77.0469 54.2517 Q76.3906 54.3454 76.125 54.4626 Q75.8594 54.5798 75.7109 54.7986 Q75.5625 55.0173 75.5625 55.2986 Q75.5625 55.7204 75.8828 56.0017 Q76.2031 56.2829 76.8125 56.2829 Q77.4219 56.2829 77.8984 56.0173 Q78.375 55.7517 78.5938 55.2829 Q78.7656 54.9236 78.7656 54.2361 L78.7656 53.8454 ZM76.125 48.9704 L76.9062 47.3298 L78.2969 47.3298 L77 48.9704 L76.125 48.9704 ZM81.7656 56.9704 L81.7656 48.3767 L82.8281 48.3767 L82.8281 56.9704 L81.7656 56.9704 ZM84.7656 56.9704 L84.7656 48.3767 L85.8281 48.3767 L85.8281 56.9704 L84.7656 56.9704 ZM91.8594 56.2048 Q91.2656 56.7048 90.7266 56.9079 Q90.1875 57.1111 89.5625 57.1111 Q88.5312 57.1111 87.9844 56.6111 Q87.4375 56.1111 87.4375 55.3298 Q87.4375 54.8767 87.6406 54.4939 Q87.8438 54.1111 88.1875 53.8845 Q88.5312 53.6579 88.9531 53.5486 Q89.25 53.4548 89.8906 53.3767 Q91.1562 53.2361 91.7656 53.0173 Q91.7656 52.7986 91.7656 52.7517 Q91.7656 52.0954 91.4688 51.8298 Q91.0625 51.4861 90.2656 51.4861 Q89.5312 51.4861 89.1719 51.7439 Q88.8125 52.0017 88.6406 52.6579 L87.6094 52.5173 Q87.75 51.8611 88.0781 51.4548 Q88.4062 51.0486 89.0156 50.8298 Q89.625 50.6111 90.4219 50.6111 Q91.2188 50.6111 91.7188 50.7986 Q92.2188 50.9861 92.4531 51.2673 Q92.6875 51.5486 92.7812 51.9861 Q92.8281 52.2517 92.8281 52.9548 L92.8281 54.3611 Q92.8281 55.8298 92.8984 56.2204 Q92.9688 56.6111 93.1719 56.9704 L92.0625 56.9704 Q91.9062 56.6423 91.8594 56.2048 ZM91.7656 53.8454 Q91.1875 54.0798 90.0469 54.2517 Q89.3906 54.3454 89.125 54.4626 Q88.8594 54.5798 88.7109 54.7986 Q88.5625 55.0173 88.5625 55.2986 Q88.5625 55.7204 88.8828 56.0017 Q89.2031 56.2829 89.8125 56.2829 Q90.4219 56.2829 90.8984 56.0173 Q91.375 55.7517 91.5938 55.2829 Q91.7656 54.9236 91.7656 54.2361 L91.7656 53.8454 ZM94.7969 59.3611 L94.7969 50.7517 L95.75 50.7517 L95.75 51.5486 Q96.0938 51.0798 96.5234 50.8454 Q96.9531 50.6111 97.5625 50.6111 Q98.3594 50.6111 98.9688 51.0173 Q99.5781 51.4236 99.8828 52.1736 Q100.1875 52.9236 100.1875 53.8142 Q100.1875 54.7673 99.8516 55.5329 Q99.5156 56.2986 98.8594 56.7048 Q98.2031 57.1111 97.4844 57.1111 Q96.9531 57.1111 96.5312 56.8845 Q96.1094 56.6579 95.8438 56.3298 L95.8438 59.3611 L94.7969 59.3611 ZM95.75 53.8923 Q95.75 55.0954 96.2344 55.6657 Q96.7188 56.2361 97.4062 56.2361 Q98.1094 56.2361 98.6094 55.6423 Q99.1094 55.0486 99.1094 53.7986 Q99.1094 52.6111 98.625 52.0251 Q98.1406 51.4392 97.4531 51.4392 Q96.7812 51.4392 96.2656 52.0642 Q95.75 52.6892 95.75 53.8923 ZM101.4062 53.8611 Q101.4062 52.1267 102.3594 51.2986 Q103.1562 50.6111 104.3125 50.6111 Q105.5938 50.6111 106.4141 51.447 Q107.2344 52.2829 107.2344 53.7673 Q107.2344 54.9704 106.875 55.6579 Q106.5156 56.3454 105.8203 56.7282 Q105.125 57.1111 104.3125 57.1111 Q103.0156 57.1111 102.2109 56.2751 Q101.4062 55.4392 101.4062 53.8611 ZM102.4844 53.8611 Q102.4844 55.0486 103.0078 55.6423 Q103.5312 56.2361 104.3125 56.2361 Q105.1094 56.2361 105.625 55.6423 Q106.1406 55.0486 106.1406 53.8298 Q106.1406 52.6736 105.6172 52.0798 Q105.0938 51.4861 104.3125 51.4861 Q103.5312 51.4861 103.0078 52.072 Q102.4844 52.6579 102.4844 53.8611 ZM111.0938 56.0329 L111.25 56.9548 Q110.7969 57.0486 110.4531 57.0486 Q109.875 57.0486 109.5625 56.8689 Q109.25 56.6892 109.1172 56.3923 Q108.9844 56.0954 108.9844 55.1423 L108.9844 51.5642 L108.2188 51.5642 L108.2188 50.7517 L108.9844 50.7517 L108.9844 49.2048 L110.0312 48.5798 L110.0312 50.7517 L111.0938 50.7517 L111.0938 51.5642 L110.0312 51.5642 L110.0312 55.2048 Q110.0312 55.6579 110.0859 55.7829 Q110.1406 55.9079 110.2656 55.9861 Q110.3906 56.0642 110.625 56.0642 Q110.8125 56.0642 111.0938 56.0329 Z" style="clip-path:url(#clipPath6); stroke:none;" />
    </g>
    <g transform="translate(152,34)" style="font-size:11; fill:white; text-rendering:geometricPrecision; font-family:sans-serif; stroke:white;">
      <polygon style="clip-path:url(#clipPath7); stroke:none;" points=" 0 0 83 0 98 15 83 15 83 0 98 15 98 59 0 59" />
    </g>
    <g transform="translate(152,34)" style="font-size:11; stroke-linecap:butt; text-rendering:geometricPrecision; font-family:sans-serif; stroke-linejoin:round; stroke-miterlimit:0;">
      <polygon style="fill:none; clip-path:url(#clipPath7);" points=" 0 0 83 0 98 15 83 15 83 0 98 15 98 59 0 59" />
    </g>
    <g style="text-rendering:geometricPrecision; font-size:11; font-family:&apos;Tahoma&apos;;" transform="translate(152,34)">
      <path d="M2.9844 14.9704 L6.2812 6.3767 L7.5 6.3767 L11.0156 14.9704 L9.7344 14.9704 L8.7188 12.3611 L5.1406 12.3611 L4.1875 14.9704 L2.9844 14.9704 ZM5.4688 11.4392 L8.375 11.4392 L7.4844 9.0642 Q7.0625 7.9861 6.875 7.2829 Q6.7031 8.1111 6.4062 8.9236 L5.4688 11.4392 ZM10.2344 14.9704 L10.2344 14.1111 L14.2031 9.5642 Q13.5156 9.5954 13 9.5954 L10.4688 9.5954 L10.4688 8.7517 L15.5625 8.7517 L15.5625 9.4392 L12.1875 13.3923 L11.5312 14.1111 Q12.25 14.0642 12.8594 14.0642 L15.75 14.0642 L15.75 14.9704 L10.2344 14.9704 ZM22.8594 14.2048 Q22.2656 14.7048 21.7266 14.9079 Q21.1875 15.1111 20.5625 15.1111 Q19.5312 15.1111 18.9844 14.6111 Q18.4375 14.1111 18.4375 13.3298 Q18.4375 12.8767 18.6406 12.4939 Q18.8438 12.1111 19.1875 11.8845 Q19.5312 11.6579 19.9531 11.5486 Q20.25 11.4548 20.8906 11.3767 Q22.1562 11.2361 22.7656 11.0173 Q22.7656 10.7986 22.7656 10.7517 Q22.7656 10.0954 22.4688 9.8298 Q22.0625 9.4861 21.2656 9.4861 Q20.5312 9.4861 20.1719 9.7439 Q19.8125 10.0017 19.6406 10.6579 L18.6094 10.5173 Q18.75 9.8611 19.0781 9.4548 Q19.4062 9.0486 20.0156 8.8298 Q20.625 8.6111 21.4219 8.6111 Q22.2188 8.6111 22.7188 8.7986 Q23.2188 8.9861 23.4531 9.2673 Q23.6875 9.5486 23.7812 9.9861 Q23.8281 10.2517 23.8281 10.9548 L23.8281 12.3611 Q23.8281 13.8298 23.8984 14.2204 Q23.9688 14.6111 24.1719 14.9704 L23.0625 14.9704 Q22.9062 14.6423 22.8594 14.2048 ZM22.7656 11.8454 Q22.1875 12.0798 21.0469 12.2517 Q20.3906 12.3454 20.125 12.4626 Q19.8594 12.5798 19.7109 12.7986 Q19.5625 13.0173 19.5625 13.2986 Q19.5625 13.7204 19.8828 14.0017 Q20.2031 14.2829 20.8125 14.2829 Q21.4219 14.2829 21.8984 14.0173 Q22.375 13.7517 22.5938 13.2829 Q22.7656 12.9236 22.7656 12.2361 L22.7656 11.8454 ZM20.125 6.9704 L20.9062 5.3298 L22.2969 5.3298 L21 6.9704 L20.125 6.9704 ZM25.7812 14.9704 L25.7812 8.7517 L26.7344 8.7517 L26.7344 9.6892 Q27.0938 9.0329 27.3984 8.822 Q27.7031 8.6111 28.0781 8.6111 Q28.6094 8.6111 29.1562 8.9392 L28.7969 9.9236 Q28.4062 9.6892 28.0312 9.6892 Q27.6719 9.6892 27.3984 9.9001 Q27.125 10.1111 27.0156 10.4861 Q26.8281 11.0486 26.8281 11.7048 L26.8281 14.9704 L25.7812 14.9704 ZM33.8594 14.2048 Q33.2656 14.7048 32.7266 14.9079 Q32.1875 15.1111 31.5625 15.1111 Q30.5312 15.1111 29.9844 14.6111 Q29.4375 14.1111 29.4375 13.3298 Q29.4375 12.8767 29.6406 12.4939 Q29.8438 12.1111 30.1875 11.8845 Q30.5312 11.6579 30.9531 11.5486 Q31.25 11.4548 31.8906 11.3767 Q33.1562 11.2361 33.7656 11.0173 Q33.7656 10.7986 33.7656 10.7517 Q33.7656 10.0954 33.4688 9.8298 Q33.0625 9.4861 32.2656 9.4861 Q31.5312 9.4861 31.1719 9.7439 Q30.8125 10.0017 30.6406 10.6579 L29.6094 10.5173 Q29.75 9.8611 30.0781 9.4548 Q30.4062 9.0486 31.0156 8.8298 Q31.625 8.6111 32.4219 8.6111 Q33.2188 8.6111 33.7188 8.7986 Q34.2188 8.9861 34.4531 9.2673 Q34.6875 9.5486 34.7812 9.9861 Q34.8281 10.2517 34.8281 10.9548 L34.8281 12.3611 Q34.8281 13.8298 34.8984 14.2204 Q34.9688 14.6111 35.1719 14.9704 L34.0625 14.9704 Q33.9062 14.6423 33.8594 14.2048 ZM33.7656 11.8454 Q33.1875 12.0798 32.0469 12.2517 Q31.3906 12.3454 31.125 12.4626 Q30.8594 12.5798 30.7109 12.7986 Q30.5625 13.0173 30.5625 13.2986 Q30.5625 13.7204 30.8828 14.0017 Q31.2031 14.2829 31.8125 14.2829 Q32.4219 14.2829 32.8984 14.0173 Q33.375 13.7517 33.5938 13.2829 Q33.7656 12.9236 33.7656 12.2361 L33.7656 11.8454 ZM36.7969 14.9704 L36.7969 8.7517 L37.7344 8.7517 L37.7344 9.6267 Q38.0312 9.1579 38.5156 8.8845 Q39 8.6111 39.625 8.6111 Q40.3125 8.6111 40.7578 8.8923 Q41.2031 9.1736 41.375 9.6892 Q42.125 8.6111 43.2969 8.6111 Q44.2344 8.6111 44.7266 9.1189 Q45.2188 9.6267 45.2188 10.7048 L45.2188 14.9704 L44.1719 14.9704 L44.1719 11.0486 Q44.1719 10.4236 44.0703 10.1423 Q43.9688 9.8611 43.7031 9.6892 Q43.4375 9.5173 43.0625 9.5173 Q42.4062 9.5173 41.9766 9.9548 Q41.5469 10.3923 41.5469 11.3611 L41.5469 14.9704 L40.4844 14.9704 L40.4844 10.9236 Q40.4844 10.2204 40.2266 9.8689 Q39.9688 9.5173 39.3906 9.5173 Q38.9375 9.5173 38.5625 9.7517 Q38.1875 9.9861 38.0156 10.4392 Q37.8438 10.8923 37.8438 11.7361 L37.8438 14.9704 L36.7969 14.9704 ZM47.7969 14.9704 L47.7969 6.3767 L48.8594 6.3767 L48.8594 11.2829 L51.3438 8.7517 L52.7188 8.7517 L50.3281 11.0486 L52.9531 14.9704 L51.6562 14.9704 L49.5938 11.7829 L48.8594 12.5017 L48.8594 14.9704 L47.7969 14.9704 ZM53.4062 11.8611 Q53.4062 10.1267 54.3594 9.2986 Q55.1562 8.6111 56.3125 8.6111 Q57.5938 8.6111 58.4141 9.447 Q59.2344 10.2829 59.2344 11.7673 Q59.2344 12.9704 58.875 13.6579 Q58.5156 14.3454 57.8203 14.7282 Q57.125 15.1111 56.3125 15.1111 Q55.0156 15.1111 54.2109 14.2751 Q53.4062 13.4392 53.4062 11.8611 ZM54.4844 11.8611 Q54.4844 13.0486 55.0078 13.6423 Q55.5312 14.2361 56.3125 14.2361 Q57.1094 14.2361 57.625 13.6423 Q58.1406 13.0486 58.1406 11.8298 Q58.1406 10.6736 57.6172 10.0798 Q57.0938 9.4861 56.3125 9.4861 Q55.5312 9.4861 55.0078 10.072 Q54.4844 10.6579 54.4844 11.8611 ZM54.8125 6.9704 L54.8125 5.7673 L55.9062 5.7673 L55.9062 6.9704 L54.8125 6.9704 ZM57 6.9704 L57 5.7673 L58.0938 5.7673 L58.0938 6.9704 L57 6.9704 ZM60.7812 14.9704 L60.7812 8.7517 L61.7344 8.7517 L61.7344 9.6892 Q62.0938 9.0329 62.3984 8.822 Q62.7031 8.6111 63.0781 8.6111 Q63.6094 8.6111 64.1562 8.9392 L63.7969 9.9236 Q63.4062 9.6892 63.0312 9.6892 Q62.6719 9.6892 62.3984 9.9001 Q62.125 10.1111 62.0156 10.4861 Q61.8281 11.0486 61.8281 11.7048 L61.8281 14.9704 L60.7812 14.9704 Z" style="clip-path:url(#clipPath8); stroke:none;" />
      <path d="M3.375 27.1111 L4.4062 26.9548 Q4.5 27.5798 4.8984 27.9079 Q5.2969 28.2361 6.0312 28.2361 Q6.75 28.2361 7.1016 27.947 Q7.4531 27.6579 7.4531 27.2517 Q7.4531 26.8923 7.1406 26.6892 Q6.9219 26.5486 6.0625 26.3298 Q4.9062 26.0329 4.4609 25.822 Q4.0156 25.6111 3.7812 25.2361 Q3.5469 24.8611 3.5469 24.3923 Q3.5469 23.9861 3.7344 23.6267 Q3.9219 23.2673 4.25 23.0329 Q4.5 22.8611 4.9219 22.7361 Q5.3438 22.6111 5.8438 22.6111 Q6.5625 22.6111 7.1172 22.822 Q7.6719 23.0329 7.9375 23.3923 Q8.2031 23.7517 8.2969 24.3454 L7.2656 24.4861 Q7.2031 24.0173 6.8672 23.7439 Q6.5312 23.4704 5.9062 23.4704 Q5.1875 23.4704 4.875 23.7126 Q4.5625 23.9548 4.5625 24.2829 Q4.5625 24.4861 4.6875 24.6423 Q4.8281 24.8142 5.0938 24.9236 Q5.25 24.9861 6.0312 25.1892 Q7.1562 25.5017 7.5938 25.6892 Q8.0312 25.8767 8.2812 26.2361 Q8.5312 26.5954 8.5312 27.1423 Q8.5312 27.6736 8.2266 28.1345 Q7.9219 28.5954 7.3438 28.8532 Q6.7656 29.1111 6.0312 29.1111 Q4.8125 29.1111 4.1797 28.6032 Q3.5469 28.0954 3.375 27.1111 ZM10.7969 21.5954 L10.7969 20.3767 L11.8594 20.3767 L11.8594 21.5954 L10.7969 21.5954 ZM10.7969 28.9704 L10.7969 22.7517 L11.8594 22.7517 L11.8594 28.9704 L10.7969 28.9704 ZM13.7969 28.9704 L13.7969 20.3767 L14.8594 20.3767 L14.8594 25.2829 L17.3438 22.7517 L18.7188 22.7517 L16.3281 25.0486 L18.9531 28.9704 L17.6562 28.9704 L15.5938 25.7829 L14.8594 26.5017 L14.8594 28.9704 L13.7969 28.9704 ZM24.0469 26.9704 L25.1406 27.0954 Q24.8906 28.0486 24.1875 28.5798 Q23.4844 29.1111 22.4062 29.1111 Q21.0469 29.1111 20.2422 28.2673 Q19.4375 27.4236 19.4375 25.9079 Q19.4375 24.3454 20.25 23.4782 Q21.0625 22.6111 22.3438 22.6111 Q23.5938 22.6111 24.3828 23.4548 Q25.1719 24.2986 25.1719 25.8454 Q25.1719 25.9392 25.1719 26.1267 L20.5312 26.1267 Q20.5938 27.1579 21.1094 27.697 Q21.625 28.2361 22.4062 28.2361 Q22.9844 28.2361 23.3984 27.9314 Q23.8125 27.6267 24.0469 26.9704 ZM20.5938 25.2673 L24.0625 25.2673 Q24 24.4704 23.6719 24.0798 Q23.1562 23.4704 22.3594 23.4704 Q21.625 23.4704 21.1328 23.9548 Q20.6406 24.4392 20.5938 25.2673 ZM26.7812 28.9704 L26.7812 22.7517 L27.7344 22.7517 L27.7344 23.6892 Q28.0938 23.0329 28.3984 22.822 Q28.7031 22.6111 29.0781 22.6111 Q29.6094 22.6111 30.1562 22.9392 L29.7969 23.9236 Q29.4062 23.6892 29.0312 23.6892 Q28.6719 23.6892 28.3984 23.9001 Q28.125 24.1111 28.0156 24.4861 Q27.8281 25.0486 27.8281 25.7048 L27.8281 28.9704 L26.7812 28.9704 ZM35.0469 26.9704 L36.1406 27.0954 Q35.8906 28.0486 35.1875 28.5798 Q34.4844 29.1111 33.4062 29.1111 Q32.0469 29.1111 31.2422 28.2673 Q30.4375 27.4236 30.4375 25.9079 Q30.4375 24.3454 31.25 23.4782 Q32.0625 22.6111 33.3438 22.6111 Q34.5938 22.6111 35.3828 23.4548 Q36.1719 24.2986 36.1719 25.8454 Q36.1719 25.9392 36.1719 26.1267 L31.5312 26.1267 Q31.5938 27.1579 32.1094 27.697 Q32.625 28.2361 33.4062 28.2361 Q33.9844 28.2361 34.3984 27.9314 Q34.8125 27.6267 35.0469 26.9704 ZM31.5938 25.2673 L35.0625 25.2673 Q35 24.4704 34.6719 24.0798 Q34.1562 23.4704 33.3594 23.4704 Q32.625 23.4704 32.1328 23.9548 Q31.6406 24.4392 31.5938 25.2673 ZM37.375 27.1111 L38.4062 26.9548 Q38.5 27.5798 38.8984 27.9079 Q39.2969 28.2361 40.0312 28.2361 Q40.75 28.2361 41.1016 27.947 Q41.4531 27.6579 41.4531 27.2517 Q41.4531 26.8923 41.1406 26.6892 Q40.9219 26.5486 40.0625 26.3298 Q38.9062 26.0329 38.4609 25.822 Q38.0156 25.6111 37.7812 25.2361 Q37.5469 24.8611 37.5469 24.3923 Q37.5469 23.9861 37.7344 23.6267 Q37.9219 23.2673 38.25 23.0329 Q38.5 22.8611 38.9219 22.7361 Q39.3438 22.6111 39.8438 22.6111 Q40.5625 22.6111 41.1172 22.822 Q41.6719 23.0329 41.9375 23.3923 Q42.2031 23.7517 42.2969 24.3454 L41.2656 24.4861 Q41.2031 24.0173 40.8672 23.7439 Q40.5312 23.4704 39.9062 23.4704 Q39.1875 23.4704 38.875 23.7126 Q38.5625 23.9548 38.5625 24.2829 Q38.5625 24.4861 38.6875 24.6423 Q38.8281 24.8142 39.0938 24.9236 Q39.25 24.9861 40.0312 25.1892 Q41.1562 25.5017 41.5938 25.6892 Q42.0312 25.8767 42.2812 26.2361 Q42.5312 26.5954 42.5312 27.1423 Q42.5312 27.6736 42.2266 28.1345 Q41.9219 28.5954 41.3438 28.8532 Q40.7656 29.1111 40.0312 29.1111 Q38.8125 29.1111 38.1797 28.6032 Q37.5469 28.0954 37.375 27.1111 ZM49.0469 26.9704 L50.1406 27.0954 Q49.8906 28.0486 49.1875 28.5798 Q48.4844 29.1111 47.4062 29.1111 Q46.0469 29.1111 45.2422 28.2673 Q44.4375 27.4236 44.4375 25.9079 Q44.4375 24.3454 45.25 23.4782 Q46.0625 22.6111 47.3438 22.6111 Q48.5938 22.6111 49.3828 23.4548 Q50.1719 24.2986 50.1719 25.8454 Q50.1719 25.9392 50.1719 26.1267 L45.5312 26.1267 Q45.5938 27.1579 46.1094 27.697 Q46.625 28.2361 47.4062 28.2361 Q47.9844 28.2361 48.3984 27.9314 Q48.8125 27.6267 49.0469 26.9704 ZM45.5938 25.2673 L49.0625 25.2673 Q49 24.4704 48.6719 24.0798 Q48.1562 23.4704 47.3594 23.4704 Q46.625 23.4704 46.1328 23.9548 Q45.6406 24.4392 45.5938 25.2673 ZM51.7969 28.9704 L51.7969 22.7517 L52.7344 22.7517 L52.7344 23.6267 Q53.4219 22.6111 54.7188 22.6111 Q55.2812 22.6111 55.7578 22.8142 Q56.2344 23.0173 56.4688 23.3454 Q56.7031 23.6736 56.7969 24.1111 Q56.8438 24.4079 56.8438 25.1423 L56.8438 28.9704 L55.7969 28.9704 L55.7969 25.1892 Q55.7969 24.5329 55.6719 24.2204 Q55.5469 23.9079 55.2344 23.7126 Q54.9219 23.5173 54.5 23.5173 Q53.8281 23.5173 53.3359 23.947 Q52.8438 24.3767 52.8438 25.5642 L52.8438 28.9704 L51.7969 28.9704 Z" style="clip-path:url(#clipPath8); stroke:none;" />
      <path d="M3.7969 42.9704 L3.7969 34.3767 L4.8594 34.3767 L4.8594 39.2829 L7.3438 36.7517 L8.7188 36.7517 L6.3281 39.0486 L8.9531 42.9704 L7.6562 42.9704 L5.5938 39.7829 L4.8594 40.5017 L4.8594 42.9704 L3.7969 42.9704 ZM9.7969 35.5954 L9.7969 34.3767 L10.8594 34.3767 L10.8594 35.5954 L9.7969 35.5954 ZM9.7969 42.9704 L9.7969 36.7517 L10.8594 36.7517 L10.8594 42.9704 L9.7969 42.9704 ZM17.0469 40.9704 L18.1406 41.0954 Q17.8906 42.0486 17.1875 42.5798 Q16.4844 43.1111 15.4062 43.1111 Q14.0469 43.1111 13.2422 42.2673 Q12.4375 41.4236 12.4375 39.9079 Q12.4375 38.3454 13.25 37.4782 Q14.0625 36.6111 15.3438 36.6111 Q16.5938 36.6111 17.3828 37.4548 Q18.1719 38.2986 18.1719 39.8454 Q18.1719 39.9392 18.1719 40.1267 L13.5312 40.1267 Q13.5938 41.1579 14.1094 41.697 Q14.625 42.2361 15.4062 42.2361 Q15.9844 42.2361 16.3984 41.9314 Q16.8125 41.6267 17.0469 40.9704 ZM13.5938 39.2673 L17.0625 39.2673 Q17 38.4704 16.6719 38.0798 Q16.1562 37.4704 15.3594 37.4704 Q14.625 37.4704 14.1328 37.9548 Q13.6406 38.4392 13.5938 39.2673 ZM14.125 34.9704 L14.9062 33.3298 L16.2969 33.3298 L15 34.9704 L14.125 34.9704 ZM19.7812 42.9704 L19.7812 36.7517 L20.7344 36.7517 L20.7344 37.6892 Q21.0938 37.0329 21.3984 36.822 Q21.7031 36.6111 22.0781 36.6111 Q22.6094 36.6111 23.1562 36.9392 L22.7969 37.9236 Q22.4062 37.6892 22.0312 37.6892 Q21.6719 37.6892 21.3984 37.9001 Q21.125 38.1111 21.0156 38.4861 Q20.8281 39.0486 20.8281 39.7048 L20.8281 42.9704 L19.7812 42.9704 ZM26.0938 42.0329 L26.25 42.9548 Q25.7969 43.0486 25.4531 43.0486 Q24.875 43.0486 24.5625 42.8689 Q24.25 42.6892 24.1172 42.3923 Q23.9844 42.0954 23.9844 41.1423 L23.9844 37.5642 L23.2188 37.5642 L23.2188 36.7517 L23.9844 36.7517 L23.9844 35.2048 L25.0312 34.5798 L25.0312 36.7517 L26.0938 36.7517 L26.0938 37.5642 L25.0312 37.5642 L25.0312 41.2048 Q25.0312 41.6579 25.0859 41.7829 Q25.1406 41.9079 25.2656 41.9861 Q25.3906 42.0642 25.625 42.0642 Q25.8125 42.0642 26.0938 42.0329 ZM31.0469 40.9704 L32.1406 41.0954 Q31.8906 42.0486 31.1875 42.5798 Q30.4844 43.1111 29.4062 43.1111 Q28.0469 43.1111 27.2422 42.2673 Q26.4375 41.4236 26.4375 39.9079 Q26.4375 38.3454 27.25 37.4782 Q28.0625 36.6111 29.3438 36.6111 Q30.5938 36.6111 31.3828 37.4548 Q32.1719 38.2986 32.1719 39.8454 Q32.1719 39.9392 32.1719 40.1267 L27.5312 40.1267 Q27.5938 41.1579 28.1094 41.697 Q28.625 42.2361 29.4062 42.2361 Q29.9844 42.2361 30.3984 41.9314 Q30.8125 41.6267 31.0469 40.9704 ZM27.5938 39.2673 L31.0625 39.2673 Q31 38.4704 30.6719 38.0798 Q30.1562 37.4704 29.3594 37.4704 Q28.625 37.4704 28.1328 37.9548 Q27.6406 38.4392 27.5938 39.2673 ZM28.125 34.9704 L28.9062 33.3298 L30.2969 33.3298 L29 34.9704 L28.125 34.9704 ZM33.7969 42.9704 L33.7969 34.3767 L34.8594 34.3767 L34.8594 39.2829 L37.3438 36.7517 L38.7188 36.7517 L36.3281 39.0486 L38.9531 42.9704 L37.6562 42.9704 L35.5938 39.7829 L34.8594 40.5017 L34.8594 42.9704 L33.7969 42.9704 ZM44.0469 40.9704 L45.1406 41.0954 Q44.8906 42.0486 44.1875 42.5798 Q43.4844 43.1111 42.4062 43.1111 Q41.0469 43.1111 40.2422 42.2673 Q39.4375 41.4236 39.4375 39.9079 Q39.4375 38.3454 40.25 37.4782 Q41.0625 36.6111 42.3438 36.6111 Q43.5938 36.6111 44.3828 37.4548 Q45.1719 38.2986 45.1719 39.8454 Q45.1719 39.9392 45.1719 40.1267 L40.5312 40.1267 Q40.5938 41.1579 41.1094 41.697 Q41.625 42.2361 42.4062 42.2361 Q42.9844 42.2361 43.3984 41.9314 Q43.8125 41.6267 44.0469 40.9704 ZM40.5938 39.2673 L44.0625 39.2673 Q44 38.4704 43.6719 38.0798 Q43.1562 37.4704 42.3594 37.4704 Q41.625 37.4704 41.1328 37.9548 Q40.6406 38.4392 40.5938 39.2673 ZM46.7656 42.9704 L46.7656 34.3767 L47.8281 34.3767 L47.8281 42.9704 L46.7656 42.9704 ZM49.4062 39.8611 Q49.4062 38.1267 50.3594 37.2986 Q51.1562 36.6111 52.3125 36.6111 Q53.5938 36.6111 54.4141 37.447 Q55.2344 38.2829 55.2344 39.7673 Q55.2344 40.9704 54.875 41.6579 Q54.5156 42.3454 53.8203 42.7282 Q53.125 43.1111 52.3125 43.1111 Q51.0156 43.1111 50.2109 42.2751 Q49.4062 41.4392 49.4062 39.8611 ZM50.4844 39.8611 Q50.4844 41.0486 51.0078 41.6423 Q51.5312 42.2361 52.3125 42.2361 Q53.1094 42.2361 53.625 41.6423 Q54.1406 41.0486 54.1406 39.8298 Q54.1406 38.6736 53.6172 38.0798 Q53.0938 37.4861 52.3125 37.4861 Q51.5312 37.4861 51.0078 38.072 Q50.4844 38.6579 50.4844 39.8611 ZM50.9688 34.9704 L51.6719 33.3298 L53.0469 33.3298 L51.8125 34.9704 L50.9688 34.9704 ZM53 34.9704 L53.75 33.3298 L55.0938 33.3298 L53.8906 34.9704 L53 34.9704 ZM60.8281 42.9704 L60.8281 42.1892 Q60.2344 43.1111 59.0938 43.1111 Q58.3438 43.1111 57.7188 42.697 Q57.0938 42.2829 56.75 41.5486 Q56.4062 40.8142 56.4062 39.8611 Q56.4062 38.9392 56.7188 38.1736 Q57.0312 37.4079 57.6562 37.0095 Q58.2812 36.6111 59.0469 36.6111 Q59.6094 36.6111 60.0469 36.8454 Q60.4844 37.0798 60.7656 37.4548 L60.7656 34.3767 L61.8125 34.3767 L61.8125 42.9704 L60.8281 42.9704 ZM57.5 39.8611 Q57.5 41.0642 58 41.6501 Q58.5 42.2361 59.1875 42.2361 Q59.875 42.2361 60.3594 41.6736 Q60.8438 41.1111 60.8438 39.9548 Q60.8438 38.6736 60.3516 38.0798 Q59.8594 37.4861 59.1406 37.4861 Q58.4375 37.4861 57.9688 38.0564 Q57.5 38.6267 57.5 39.8611 ZM63.4062 39.8611 Q63.4062 38.1267 64.3594 37.2986 Q65.1562 36.6111 66.3125 36.6111 Q67.5938 36.6111 68.4141 37.447 Q69.2344 38.2829 69.2344 39.7673 Q69.2344 40.9704 68.875 41.6579 Q68.5156 42.3454 67.8203 42.7282 Q67.125 43.1111 66.3125 43.1111 Q65.0156 43.1111 64.2109 42.2751 Q63.4062 41.4392 63.4062 39.8611 ZM64.4844 39.8611 Q64.4844 41.0486 65.0078 41.6423 Q65.5312 42.2361 66.3125 42.2361 Q67.1094 42.2361 67.625 41.6423 Q68.1406 41.0486 68.1406 39.8298 Q68.1406 38.6736 67.6172 38.0798 Q67.0938 37.4861 66.3125 37.4861 Q65.5312 37.4861 65.0078 38.072 Q64.4844 38.6579 64.4844 39.8611 ZM64.8125 34.9704 L64.8125 33.7673 L65.9062 33.7673 L65.9062 34.9704 L64.8125 34.9704 ZM67 34.9704 L67 33.7673 L68.0938 33.7673 L68.0938 34.9704 L67 34.9704 ZM73.0938 42.0329 L73.25 42.9548 Q72.7969 43.0486 72.4531 43.0486 Q71.875 43.0486 71.5625 42.8689 Q71.25 42.6892 71.1172 42.3923 Q70.9844 42.0954 70.9844 41.1423 L70.9844 37.5642 L70.2188 37.5642 L70.2188 36.7517 L70.9844 36.7517 L70.9844 35.2048 L72.0312 34.5798 L72.0312 36.7517 L73.0938 36.7517 L73.0938 37.5642 L72.0312 37.5642 L72.0312 41.2048 Q72.0312 41.6579 72.0859 41.7829 Q72.1406 41.9079 72.2656 41.9861 Q72.3906 42.0642 72.625 42.0642 Q72.8125 42.0642 73.0938 42.0329 ZM76.0938 42.0329 L76.25 42.9548 Q75.7969 43.0486 75.4531 43.0486 Q74.875 43.0486 74.5625 42.8689 Q74.25 42.6892 74.1172 42.3923 Q73.9844 42.0954 73.9844 41.1423 L73.9844 37.5642 L73.2188 37.5642 L73.2188 36.7517 L73.9844 36.7517 L73.9844 35.2048 L75.0312 34.5798 L75.0312 36.7517 L76.0938 36.7517 L76.0938 37.5642 L75.0312 37.5642 L75.0312 41.2048 Q75.0312 41.6579 75.0859 41.7829 Q75.1406 41.9079 75.2656 41.9861 Q75.3906 42.0642 75.625 42.0642 Q75.8125 42.0642 76.0938 42.0329 Z" style="clip-path:url(#clipPath8); stroke:none;" />
    </g>
    <g transform="translate(92,124)" style="font-size:11; fill:white; text-rendering:geometricPrecision; font-family:sans-serif; stroke:white;">
      <rect x="0" y="0" width="80" style="clip-path:url(#clipPath9); stroke:none;" rx="10" ry="10" height="40" />
    </g>
    <g transform="translate(92,124)" style="font-size:11; stroke-linecap:butt; text-rendering:geometricPrecision; font-family:sans-serif; stroke-linejoin:round; stroke-miterlimit:0;">
      <rect x="0" y="0" width="80" style="clip-path:url(#clipPath9); fill:none;" rx="10" ry="10" height="40" />
    </g>
    <g transform="translate(312,124)" style="font-size:11; fill:white; text-rendering:geometricPrecision; font-family:sans-serif; stroke:white;">
      <rect x="0" y="0" width="80" style="clip-path:url(#clipPath9); stroke:none;" rx="10" ry="10" height="40" />
    </g>
    <g transform="translate(312,124)" style="font-size:11; stroke-linecap:butt; text-rendering:geometricPrecision; font-family:sans-serif; stroke-linejoin:round; stroke-miterlimit:0;">
      <rect x="0" y="0" width="80" style="clip-path:url(#clipPath9); fill:none;" rx="10" ry="10" height="40" />
    </g>
    <g transform="translate(182,214)" style="font-size:11; fill:white; text-rendering:geometricPrecision; font-family:sans-serif; stroke:white;">
      <rect x="0" y="0" width="90" style="clip-path:url(#clipPath10); stroke:none;" rx="10" ry="10" height="40" />
    </g>
    <g transform="translate(182,214)" style="font-size:11; stroke-linecap:butt; text-rendering:geometricPrecision; font-family:sans-serif; stroke-linejoin:round; stroke-miterlimit:0;">
      <rect x="0" y="0" width="90" style="clip-path:url(#clipPath10); fill:none;" rx="10" ry="10" height="40" />
    </g>
    <g style="text-rendering:geometricPrecision; font-size:11; font-family:sans-serif;" transform="translate(182,214)">
      <text x="24" y="12" style="clip-path:url(#clipPath11); stroke:none;" xml:space="preserve">Working</text>
    </g>
    <g style="text-rendering:geometricPrecision; font-size:11; font-family:sans-serif;" transform="translate(312,124)">
      <text x="25" y="12" style="clip-path:url(#clipPath12); stroke:none;" xml:space="preserve">Failed</text>
    </g>
    <g style="text-rendering:geometricPrecision; font-size:11; font-family:sans-serif;" transform="translate(92,124)">
      <text x="24" y="12" style="clip-path:url(#clipPath12); stroke:none;" xml:space="preserve">Ready</text>
    </g>
    <g transform="translate(230,122)" style="font-size:11; stroke-linecap:butt; text-rendering:geometricPrecision; font-family:sans-serif; stroke-linejoin:round;">
      <line x1="42" x2="102" y1="102" style="clip-path:url(#clipPath13); fill:none;" y2="102" />
      <line x1="102" x2="102" y1="102" style="clip-path:url(#clipPath13); fill:none;" y2="42" />
      <line x1="102" x2="96" y1="42" style="clip-path:url(#clipPath13); fill:none;" y2="54" />
      <line x1="102" x2="108" y1="42" style="clip-path:url(#clipPath13); fill:none;" y2="54" />
    </g>
    <g transform="translate(170,212)" style="font-size:11; stroke-linecap:butt; text-rendering:geometricPrecision; font-family:sans-serif; stroke-linejoin:round; stroke-dasharray:4;">
      <line x1="42" x2="42" y1="71" style="clip-path:url(#clipPath14); fill:none;" y2="42" />
    </g>
    <g transform="translate(130,112)" style="font-size:11; stroke-linecap:butt; text-rendering:geometricPrecision; font-family:sans-serif; stroke-linejoin:round;">
      <line x1="82" x2="82" y1="101" style="clip-path:url(#clipPath15); fill:none;" y2="42" />
      <line x1="82" x2="42" y1="42" style="clip-path:url(#clipPath15); fill:none;" y2="42" />
      <line x1="42" x2="54" y1="42" style="clip-path:url(#clipPath15); fill:none;" y2="48" />
      <line x1="42" x2="54" y1="42" style="clip-path:url(#clipPath15); fill:none;" y2="36" />
    </g>
    <g transform="translate(100,122)" style="font-size:11; stroke-linecap:butt; text-rendering:geometricPrecision; font-family:sans-serif; stroke-linejoin:round;">
      <line x1="42" x2="42" y1="42" style="clip-path:url(#clipPath16); fill:none;" y2="102" />
      <line x1="42" x2="81" y1="102" style="clip-path:url(#clipPath16); fill:none;" y2="102" />
      <line x1="81" x2="69" y1="102" style="clip-path:url(#clipPath16); fill:none;" y2="96" />
      <line x1="81" x2="69" y1="102" style="clip-path:url(#clipPath16); fill:none;" y2="108" />
    </g>
    <g transform="translate(210,112)" style="font-size:11; stroke-linecap:butt; text-rendering:geometricPrecision; font-family:sans-serif; stroke-linejoin:round;">
      <line x1="101" x2="42" y1="42" style="clip-path:url(#clipPath17); fill:none;" y2="42" />
      <line x1="42" x2="42" y1="42" style="clip-path:url(#clipPath17); fill:none;" y2="101" />
      <line x1="42" x2="48" y1="101" style="clip-path:url(#clipPath17); fill:none;" y2="89" />
      <line x1="42" x2="36" y1="101" style="clip-path:url(#clipPath17); fill:none;" y2="89" />
    </g>
    <g transform="translate(150,52)" style="font-size:11; stroke-linecap:butt; text-rendering:geometricPrecision; font-family:sans-serif; stroke-linejoin:round; stroke-dasharray:4;">
      <line x1="42" x2="42" y1="42" style="clip-path:url(#clipPath18); fill:none;" y2="102" />
      <line x1="42" x2="42" y1="102" style="clip-path:url(#clipPath18); fill:none;" y2="102" />
    </g>
    <g transform="translate(270,182)" style="font-size:11; stroke-linecap:butt; text-rendering:geometricPrecision; font-family:sans-serif; stroke-linejoin:round; stroke-dasharray:4;">
      <line x1="42" x2="42" y1="101" style="clip-path:url(#clipPath19); fill:none;" y2="42" />
      <line x1="42" x2="42" y1="42" style="clip-path:url(#clipPath19); fill:none;" y2="42" />
    </g>
    <g transform="translate(-11,122)" style="font-size:11; stroke-linecap:butt; text-rendering:geometricPrecision; font-family:sans-serif; stroke-linejoin:round;">
      <line x1="42" x2="103" y1="69" style="clip-path:url(#clipPath20); fill:none;" y2="42" />
      <line x1="103" x2="90" y1="42" style="clip-path:url(#clipPath20); fill:none;" y2="40" />
      <line x1="103" x2="95" y1="42" style="clip-path:url(#clipPath20); fill:none;" y2="51" />
    </g>
    <g transform="translate(400,152)" style="font-size:11; stroke-linecap:butt; text-rendering:geometricPrecision; font-family:sans-serif; stroke-linejoin:round;">
      <line x1="42" x2="113" y1="42" style="clip-path:url(#clipPath21); fill:none;" y2="42" />
      <line x1="113" x2="101" y1="42" style="clip-path:url(#clipPath21); fill:none;" y2="36" />
      <line x1="113" x2="101" y1="42" style="clip-path:url(#clipPath21); fill:none;" y2="48" />
    </g>
    <g style="text-rendering:geometricPrecision; font-size:11; font-family:sans-serif;" transform="translate(232,129)">
      <text x="10" y="12" style="clip-path:url(#clipPath22); stroke:none;" xml:space="preserve">start()</text>
    </g>
    <g style="text-rendering:geometricPrecision; font-size:11; font-family:sans-serif;" transform="translate(92,199)">
      <text x="10" y="12" style="clip-path:url(#clipPath22); stroke:none;" xml:space="preserve">start()</text>
    </g>
  </g>
</svg>
