<?xml version="1.0" encoding="UTF-8"?>

<!DOCTYPE svg PUBLIC '-//W3C//DTD SVG 1.0//EN' 'http://www.w3.org/TR/2001/REC-SVG-20010904/DTD/svg10.dtd'>
<svg style="fill-opacity:1; color-rendering:auto; color-interpolation:auto; stroke:black; text-rendering:auto; stroke-linecap:square; stroke-miterlimit:10; stroke-opacity:1; shape-rendering:auto; fill:black; stroke-dasharray:none; font-weight:normal; stroke-width:1; font-family:&apos;Dialog&apos;; font-style:normal; stroke-linejoin:miter; font-size:12; stroke-dashoffset:0; image-rendering:auto;" xmlns="http://www.w3.org/2000/svg" width="606" xmlns:xlink="http://www.w3.org/1999/xlink" height="448">
  <!--Generated by the Batik Graphics2D SVG Generator-->
  <defs id="genericDefs" />
  <g>
    <defs id="defs1">
      <clipPath clipPathUnits="userSpaceOnUse" id="clipPath1">
        <path d="M-3 -3 L187 -3 L187 237 L-3 237 L-3 -3 Z" />
      </clipPath>
      <clipPath clipPathUnits="userSpaceOnUse" id="clipPath2">
        <path d="M-3 -3 L67 -3 L67 407 L-3 407 L-3 -3 Z" />
      </clipPath>
      <clipPath clipPathUnits="userSpaceOnUse" id="clipPath3">
        <path d="M-3 -3 L67 -3 L67 347 L-3 347 L-3 -3 Z" />
      </clipPath>
      <clipPath clipPathUnits="userSpaceOnUse" id="clipPath4">
        <path d="M-3 -3 L87 -3 L87 407 L-3 407 L-3 -3 Z" />
      </clipPath>
      <clipPath clipPathUnits="userSpaceOnUse" id="clipPath5">
        <path d="M-3 -3 L14 -3 L14 329 L-3 329 L-3 -3 Z" />
      </clipPath>
      <clipPath clipPathUnits="userSpaceOnUse" id="clipPath6">
        <path d="M-3 -3 L14 -3 L14 24 L-3 24 L-3 -3 Z" />
      </clipPath>
      <clipPath clipPathUnits="userSpaceOnUse" id="clipPath7">
        <path d="M-3 -3 L14 -3 L14 317 L-3 317 L-3 -3 Z" />
      </clipPath>
      <clipPath clipPathUnits="userSpaceOnUse" id="clipPath8">
        <path d="M-3 -3 L457 -3 L457 167 L-3 167 L-3 -3 Z" />
      </clipPath>
      <clipPath clipPathUnits="userSpaceOnUse" id="clipPath9">
        <path d="M0 0 L33 0 L33 18 L0 18 L0 0 Z" />
      </clipPath>
      <clipPath clipPathUnits="userSpaceOnUse" id="clipPath10">
        <path d="M-3 -3 L457 -3 L457 57 L-3 57 L-3 -3 Z" />
      </clipPath>
      <clipPath clipPathUnits="userSpaceOnUse" id="clipPath11">
        <path d="M0 0 L24 0 L24 18 L0 18 L0 0 Z" />
      </clipPath>
      <clipPath clipPathUnits="userSpaceOnUse" id="clipPath12">
        <path d="M0 0 L450 0 L450 50 L0 50 L0 0 Z" />
      </clipPath>
      <clipPath clipPathUnits="userSpaceOnUse" id="clipPath13">
        <path d="M-3 -3 L457 -3 L457 149 L-3 149 L-3 -3 Z" />
      </clipPath>
      <clipPath clipPathUnits="userSpaceOnUse" id="clipPath14">
        <path d="M0 0 L170 0 L170 15 L0 15 L0 0 Z" />
      </clipPath>
      <clipPath clipPathUnits="userSpaceOnUse" id="clipPath15">
        <path d="M0 0 L0 4 L450 4 L450 0 Z" />
      </clipPath>
      <clipPath clipPathUnits="userSpaceOnUse" id="clipPath16">
        <path d="M-3 -3 L137 -3 L137 52 L-3 52 L-3 -3 Z" />
      </clipPath>
      <clipPath clipPathUnits="userSpaceOnUse" id="clipPath17">
        <path d="M0 0 L0 45 L130 45 L130 0 Z" />
      </clipPath>
      <clipPath clipPathUnits="userSpaceOnUse" id="clipPath18">
        <path d="M-80 -15 L160 -15 L160 30 L-80 30 L-80 -15 Z" />
      </clipPath>
      <clipPath clipPathUnits="userSpaceOnUse" id="clipPath19">
        <path d="M-180 -15 L360 -15 L360 30 L-180 30 L-180 -15 Z" />
      </clipPath>
      <clipPath clipPathUnits="userSpaceOnUse" id="clipPath20">
        <path d="M-60 -30 L120 -30 L120 60 L-60 60 L-60 -30 Z" />
      </clipPath>
      <clipPath clipPathUnits="userSpaceOnUse" id="clipPath21">
        <path d="M0 0 L237 0 L237 81 L0 81 L0 0 Z" />
      </clipPath>
      <clipPath clipPathUnits="userSpaceOnUse" id="clipPath22">
        <path d="M0 0 L287 0 L287 81 L0 81 L0 0 Z" />
      </clipPath>
      <clipPath clipPathUnits="userSpaceOnUse" id="clipPath23">
        <path d="M0 0 L263 0 L263 81 L0 81 L0 0 Z" />
      </clipPath>
      <clipPath clipPathUnits="userSpaceOnUse" id="clipPath24">
        <path d="M0 0 L214 0 L214 81 L0 81 L0 0 Z" />
      </clipPath>
      <clipPath clipPathUnits="userSpaceOnUse" id="clipPath25">
        <path d="M0 0 L107 0 L107 81 L0 81 L0 0 Z" />
      </clipPath>
      <clipPath clipPathUnits="userSpaceOnUse" id="clipPath26">
        <path d="M-70 -15 L140 -15 L140 30 L-70 30 L-70 -15 Z" />
      </clipPath>
      <clipPath clipPathUnits="userSpaceOnUse" id="clipPath27">
        <path d="M-110 -15 L220 -15 L220 30 L-110 30 L-110 -15 Z" />
      </clipPath>
      <clipPath clipPathUnits="userSpaceOnUse" id="clipPath28">
        <path d="M-178 -15 L356 -15 L356 30 L-178 30 L-178 -15 Z" />
      </clipPath>
      <clipPath clipPathUnits="userSpaceOnUse" id="clipPath29">
        <path d="M-98 -15 L196 -15 L196 30 L-98 30 L-98 -15 Z" />
      </clipPath>
      <clipPath clipPathUnits="userSpaceOnUse" id="clipPath30">
        <path d="M-95 -15 L190 -15 L190 30 L-95 30 L-95 -15 Z" />
      </clipPath>
    </defs>
    <g style="fill:white; text-rendering:geometricPrecision; stroke:white;">
      <rect x="0" y="0" width="606" style="stroke:none;" height="448" />
      <rect x="8" y="38" transform="translate(-8,-38)" width="605" style="fill:none; stroke:black;" height="447" />
      <text x="15" y="55" transform="translate(-8,-38)" style="fill:black; stroke:none; font-weight:bold;" xml:space="preserve">sd</text>
      <text x="36" y="55" transform="translate(-8,-38)" style="fill:black; stroke:none;" xml:space="preserve">Áramkör betöltése fájlból</text>
      <line transform="translate(-8,-38)" x1="8" x2="172" y1="62" style="fill:none; stroke:black;" y2="62" />
      <line transform="translate(-8,-38)" x1="178" x2="178" y1="38" style="fill:none; stroke:black;" y2="52" />
      <line transform="translate(-8,-38)" x1="178" x2="172" y1="52" style="fill:none; stroke:black;" y2="62" />
    </g>
    <g transform="translate(402,204)" style="font-size:11; fill:white; text-rendering:geometricPrecision; font-family:sans-serif; stroke:white;">
      <rect x="0" y="0" width="179" style="clip-path:url(#clipPath1); stroke:none;" height="35" />
    </g>
    <g transform="translate(402,204)" style="font-size:11; stroke-linecap:butt; text-rendering:geometricPrecision; font-family:sans-serif; stroke-linejoin:round; stroke-miterlimit:0;">
      <rect x="0" y="0" width="179" style="clip-path:url(#clipPath1); fill:none;" height="35" />
      <line x1="89" x2="89" y1="35" style="clip-path:url(#clipPath1); fill:none; stroke-linejoin:bevel; stroke-dasharray:8,3;" y2="230" />
    </g>
    <g transform="translate(162,34)" style="font-size:11; fill:white; text-rendering:geometricPrecision; font-family:sans-serif; stroke:white;">
      <rect x="0" y="0" width="59" style="clip-path:url(#clipPath2); stroke:none;" height="35" />
    </g>
    <g transform="translate(162,34)" style="font-size:11; stroke-linecap:butt; text-rendering:geometricPrecision; font-family:sans-serif; stroke-linejoin:round; stroke-miterlimit:0;">
      <rect x="0" y="0" width="59" style="clip-path:url(#clipPath2); fill:none;" height="35" />
      <line x1="29" x2="29" y1="35" style="clip-path:url(#clipPath2); fill:none; stroke-linejoin:bevel; stroke-dasharray:8,3;" y2="400" />
    </g>
    <g transform="translate(352,94)" style="font-size:11; fill:white; text-rendering:geometricPrecision; font-family:sans-serif; stroke:white;">
      <rect x="0" y="0" width="59" style="clip-path:url(#clipPath3); stroke:none;" height="35" />
    </g>
    <g transform="translate(352,94)" style="font-size:11; stroke-linecap:butt; text-rendering:geometricPrecision; font-family:sans-serif; stroke-linejoin:round; stroke-miterlimit:0;">
      <rect x="0" y="0" width="59" style="clip-path:url(#clipPath3); fill:none;" height="35" />
      <line x1="29" x2="29" y1="35" style="clip-path:url(#clipPath3); fill:none; stroke-linejoin:bevel; stroke-dasharray:8,3;" y2="340" />
    </g>
    <g transform="translate(12,34)" style="font-size:11; fill:white; text-rendering:geometricPrecision; font-family:sans-serif; stroke:white;">
      <rect x="0" y="0" width="79" style="clip-path:url(#clipPath4); stroke:none;" height="35" />
    </g>
    <g transform="translate(12,34)" style="font-size:11; stroke-linecap:butt; text-rendering:geometricPrecision; font-family:sans-serif; stroke-linejoin:round; stroke-miterlimit:0;">
      <rect x="0" y="0" width="79" style="clip-path:url(#clipPath4); fill:none;" height="35" />
      <line x1="39" x2="39" y1="35" style="clip-path:url(#clipPath4); fill:none; stroke-linejoin:bevel; stroke-dasharray:8,3;" y2="400" />
    </g>
    <g transform="translate(49,83)" style="font-size:11; fill:white; text-rendering:geometricPrecision; font-family:sans-serif; stroke:white;">
      <rect x="0" y="0" width="7" style="clip-path:url(#clipPath5); stroke:none;" height="322" />
    </g>
    <g transform="translate(49,83)" style="font-size:11; stroke-linecap:butt; text-rendering:geometricPrecision; font-family:sans-serif; stroke-linejoin:round; stroke-miterlimit:0;">
      <rect x="0" y="0" width="7" style="clip-path:url(#clipPath5); fill:none;" height="322" />
    </g>
    <g transform="translate(378,262)" style="font-size:11; fill:white; text-rendering:geometricPrecision; font-family:sans-serif; stroke:white;">
      <rect x="0" y="0" width="7" style="clip-path:url(#clipPath6); stroke:none;" height="17" />
    </g>
    <g transform="translate(378,262)" style="font-size:11; stroke-linecap:butt; text-rendering:geometricPrecision; font-family:sans-serif; stroke-linejoin:round; stroke-miterlimit:0;">
      <rect x="0" y="0" width="7" style="clip-path:url(#clipPath6); fill:none;" height="17" />
    </g>
    <g transform="translate(189,90)" style="font-size:11; fill:white; text-rendering:geometricPrecision; font-family:sans-serif; stroke:white;">
      <rect x="0" y="0" width="7" style="clip-path:url(#clipPath7); stroke:none;" height="310" />
    </g>
    <g transform="translate(189,90)" style="font-size:11; stroke-linecap:butt; text-rendering:geometricPrecision; font-family:sans-serif; stroke-linejoin:round; stroke-miterlimit:0;">
      <rect x="0" y="0" width="7" style="clip-path:url(#clipPath7); fill:none;" height="310" />
    </g>
    <g transform="translate(142,134)" style="font-size:11; stroke-linecap:butt; text-rendering:geometricPrecision; font-family:sans-serif; stroke-linejoin:round; font-weight:bold; stroke-miterlimit:0;">
      <rect x="0" y="0" width="450" style="clip-path:url(#clipPath8); fill:none;" height="160" />
    </g>
    <g transform="translate(142,134)" style="font-size:11; fill:white; text-rendering:geometricPrecision; font-family:sans-serif; stroke:white; font-weight:bold;">
      <path d="M32 0 L32 9 L26 17 L0 17 L0 0 Z" style="clip-path:url(#clipPath8); stroke:none;" />
    </g>
    <g transform="translate(142,134)" style="font-size:11; stroke-linecap:butt; text-rendering:geometricPrecision; font-family:sans-serif; stroke-linejoin:round; font-weight:bold; stroke-miterlimit:0;">
      <path d="M32 0 L32 9 L26 17 L0 17 L0 0 Z" style="fill:none; clip-path:url(#clipPath8);" />
    </g>
    <g transform="translate(142,134)" style="text-rendering:geometricPrecision; font-size:11; font-weight:bold; font-family:sans-serif;">
      <text x="4" y="12" style="clip-path:url(#clipPath9); stroke:none;" xml:space="preserve">loop</text>
    </g>
    <g transform="translate(142,304)" style="font-size:11; fill:white; text-rendering:geometricPrecision; font-family:sans-serif; stroke:white;">
      <rect x="0" y="0" width="450" style="clip-path:url(#clipPath10); stroke:none;" height="50" />
    </g>
    <g transform="translate(142,304)" style="font-size:11; stroke-linecap:butt; text-rendering:geometricPrecision; font-family:sans-serif; stroke-linejoin:round; stroke-miterlimit:0;">
      <rect x="0" y="0" width="450" style="clip-path:url(#clipPath10); fill:none;" height="50" />
      <path d="M23 0 L23 9 L17 17 L0 17" style="fill:none; clip-path:url(#clipPath10);" />
    </g>
    <g transform="translate(142,304)" style="text-rendering:geometricPrecision; font-size:11; font-weight:bold; font-family:sans-serif;">
      <text x="5" y="12" style="clip-path:url(#clipPath11); stroke:none;" xml:space="preserve">ref</text>
    </g>
    <g style="text-rendering:geometricPrecision; font-size:11; font-family:sans-serif;" transform="translate(142,304)">
      <text x="158" y="29" style="clip-path:url(#clipPath12); stroke:none;" xml:space="preserve">Komponensek összekötése</text>
    </g>
    <g transform="translate(142,151)" style="font-size:11; fill:white; text-rendering:geometricPrecision; font-family:sans-serif; stroke:white;">
      <rect x="28" y="5" width="170" style="clip-path:url(#clipPath13); stroke:none;" height="15" />
    </g>
    <g style="text-rendering:geometricPrecision; font-size:11; font-family:sans-serif;" transform="translate(170,156)">
      <text x="10" y="12" style="clip-path:url(#clipPath14); stroke:none;" xml:space="preserve">[fájl végéig olvassuk a sorokat]</text>
    </g>
    <g transform="translate(32,174)" style="font-size:11; fill:white; text-rendering:geometricPrecision; font-family:sans-serif; stroke:white;">
      <polygon style="clip-path:url(#clipPath16); stroke:none;" points=" 0 0 114 0 129 15 114 15 114 0 129 15 129 44 0 44" />
    </g>
    <g transform="translate(32,174)" style="font-size:11; stroke-linecap:butt; text-rendering:geometricPrecision; font-family:sans-serif; stroke-linejoin:round; stroke-miterlimit:0;">
      <polygon style="fill:none; clip-path:url(#clipPath16);" points=" 0 0 114 0 129 15 114 15 114 0 129 15 129 44 0 44" />
    </g>
    <g style="text-rendering:geometricPrecision; font-size:11; font-family:&apos;Tahoma&apos;;" transform="translate(32,174)">
      <path d="M3.9531 14.9704 L3.9531 6.3767 L10.1562 6.3767 L10.1562 7.3923 L5.0938 7.3923 L5.0938 10.0173 L9.8438 10.0173 L9.8438 11.0329 L5.0938 11.0329 L5.0938 13.9548 L10.3594 13.9548 L10.3594 14.9704 L3.9531 14.9704 ZM11.5938 15.4861 L12.625 15.6423 Q12.6875 16.1111 12.9844 16.3298 Q13.375 16.6267 14.0469 16.6267 Q14.7812 16.6267 15.1797 16.3298 Q15.5781 16.0329 15.7188 15.5173 Q15.8125 15.1892 15.7969 14.1579 Q15.1094 14.9704 14.0781 14.9704 Q12.7969 14.9704 12.0938 14.0407 Q11.3906 13.1111 11.3906 11.8298 Q11.3906 10.9392 11.7109 10.1814 Q12.0312 9.4236 12.6406 9.0173 Q13.25 8.6111 14.0781 8.6111 Q15.1875 8.6111 15.9062 9.5017 L15.9062 8.7517 L16.875 8.7517 L16.875 14.1267 Q16.875 15.5798 16.5781 16.1892 Q16.2812 16.7986 15.6406 17.1501 Q15 17.5017 14.0625 17.5017 Q12.9531 17.5017 12.2656 17.0017 Q11.5781 16.5017 11.5938 15.4861 ZM12.4688 11.7517 Q12.4688 12.9704 12.9531 13.5329 Q13.4375 14.0954 14.1719 14.0954 Q14.9062 14.0954 15.3984 13.5329 Q15.8906 12.9704 15.8906 11.7829 Q15.8906 10.6423 15.3828 10.0642 Q14.875 9.4861 14.1562 9.4861 Q13.4531 9.4861 12.9609 10.0564 Q12.4688 10.6267 12.4688 11.7517 ZM18.75 17.3611 L18.625 16.3767 Q18.9688 16.4704 19.2344 16.4704 Q19.5781 16.4704 19.7891 16.3532 Q20 16.2361 20.1406 16.0329 Q20.2344 15.8611 20.4688 15.2361 Q20.4844 15.1579 20.5625 14.9861 L18.1875 8.7517 L19.3281 8.7517 L20.625 12.3454 Q20.875 13.0329 21.0781 13.7986 Q21.2656 13.0642 21.5156 12.3767 L22.8438 8.7517 L23.8906 8.7517 L21.5312 15.0798 Q21.1406 16.0954 20.9375 16.4861 Q20.6562 17.0173 20.2891 17.2595 Q19.9219 17.5017 19.4219 17.5017 Q19.125 17.5017 18.75 17.3611 ZM26.375 13.1111 L27.4062 12.9548 Q27.5 13.5798 27.8984 13.9079 Q28.2969 14.2361 29.0312 14.2361 Q29.75 14.2361 30.1016 13.947 Q30.4531 13.6579 30.4531 13.2517 Q30.4531 12.8923 30.1406 12.6892 Q29.9219 12.5486 29.0625 12.3298 Q27.9062 12.0329 27.4609 11.822 Q27.0156 11.6111 26.7812 11.2361 Q26.5469 10.8611 26.5469 10.3923 Q26.5469 9.9861 26.7344 9.6267 Q26.9219 9.2673 27.25 9.0329 Q27.5 8.8611 27.9219 8.7361 Q28.3438 8.6111 28.8438 8.6111 Q29.5625 8.6111 30.1172 8.822 Q30.6719 9.0329 30.9375 9.3923 Q31.2031 9.7517 31.2969 10.3454 L30.2656 10.4861 Q30.2031 10.0173 29.8672 9.7439 Q29.5312 9.4704 28.9062 9.4704 Q28.1875 9.4704 27.875 9.7126 Q27.5625 9.9548 27.5625 10.2829 Q27.5625 10.4861 27.6875 10.6423 Q27.8281 10.8142 28.0938 10.9236 Q28.25 10.9861 29.0312 11.1892 Q30.1562 11.5017 30.5938 11.6892 Q31.0312 11.8767 31.2812 12.2361 Q31.5312 12.5954 31.5312 13.1423 Q31.5312 13.6736 31.2266 14.1345 Q30.9219 14.5954 30.3438 14.8532 Q29.7656 15.1111 29.0312 15.1111 Q27.8125 15.1111 27.1797 14.6032 Q26.5469 14.0954 26.375 13.1111 ZM33.4062 11.8611 Q33.4062 10.1267 34.3594 9.2986 Q35.1562 8.6111 36.3125 8.6111 Q37.5938 8.6111 38.4141 9.447 Q39.2344 10.2829 39.2344 11.7673 Q39.2344 12.9704 38.875 13.6579 Q38.5156 14.3454 37.8203 14.7282 Q37.125 15.1111 36.3125 15.1111 Q35.0156 15.1111 34.2109 14.2751 Q33.4062 13.4392 33.4062 11.8611 ZM34.4844 11.8611 Q34.4844 13.0486 35.0078 13.6423 Q35.5312 14.2361 36.3125 14.2361 Q37.1094 14.2361 37.625 13.6423 Q38.1406 13.0486 38.1406 11.8298 Q38.1406 10.6736 37.6172 10.0798 Q37.0938 9.4861 36.3125 9.4861 Q35.5312 9.4861 35.0078 10.072 Q34.4844 10.6579 34.4844 11.8611 ZM40.7812 14.9704 L40.7812 8.7517 L41.7344 8.7517 L41.7344 9.6892 Q42.0938 9.0329 42.3984 8.822 Q42.7031 8.6111 43.0781 8.6111 Q43.6094 8.6111 44.1562 8.9392 L43.7969 9.9236 Q43.4062 9.6892 43.0312 9.6892 Q42.6719 9.6892 42.3984 9.9001 Q42.125 10.1111 42.0156 10.4861 Q41.8281 11.0486 41.8281 11.7048 L41.8281 14.9704 L40.7812 14.9704 ZM48.7656 14.9704 L47.7812 14.9704 L47.7812 6.3767 L48.8438 6.3767 L48.8438 9.4392 Q49.5156 8.6111 50.5469 8.6111 Q51.125 8.6111 51.6328 8.8376 Q52.1406 9.0642 52.4766 9.4861 Q52.8125 9.9079 53 10.5017 Q53.1875 11.0954 53.1875 11.7673 Q53.1875 13.3611 52.3906 14.2361 Q51.5938 15.1111 50.5 15.1111 Q49.3906 15.1111 48.7656 14.1892 L48.7656 14.9704 ZM48.75 11.8142 Q48.75 12.9236 49.0625 13.4236 Q49.5625 14.2361 50.4062 14.2361 Q51.0938 14.2361 51.6016 13.6423 Q52.1094 13.0486 52.1094 11.8454 Q52.1094 10.6267 51.625 10.0486 Q51.1406 9.4704 50.4531 9.4704 Q49.7656 9.4704 49.2578 10.072 Q48.75 10.6736 48.75 11.8142 ZM59.0469 12.9704 L60.1406 13.0954 Q59.8906 14.0486 59.1875 14.5798 Q58.4844 15.1111 57.4062 15.1111 Q56.0469 15.1111 55.2422 14.2673 Q54.4375 13.4236 54.4375 11.9079 Q54.4375 10.3454 55.25 9.4782 Q56.0625 8.6111 57.3438 8.6111 Q58.5938 8.6111 59.3828 9.4548 Q60.1719 10.2986 60.1719 11.8454 Q60.1719 11.9392 60.1719 12.1267 L55.5312 12.1267 Q55.5938 13.1579 56.1094 13.697 Q56.625 14.2361 57.4062 14.2361 Q57.9844 14.2361 58.3984 13.9314 Q58.8125 13.6267 59.0469 12.9704 ZM55.5938 11.2673 L59.0625 11.2673 Q59 10.4704 58.6719 10.0798 Q58.1562 9.4704 57.3594 9.4704 Q56.625 9.4704 56.1328 9.9548 Q55.6406 10.4392 55.5938 11.2673 ZM61.4062 11.8611 Q61.4062 10.1267 62.3594 9.2986 Q63.1562 8.6111 64.3125 8.6111 Q65.5938 8.6111 66.4141 9.447 Q67.2344 10.2829 67.2344 11.7673 Q67.2344 12.9704 66.875 13.6579 Q66.5156 14.3454 65.8203 14.7282 Q65.125 15.1111 64.3125 15.1111 Q63.0156 15.1111 62.2109 14.2751 Q61.4062 13.4392 61.4062 11.8611 ZM62.4844 11.8611 Q62.4844 13.0486 63.0078 13.6423 Q63.5312 14.2361 64.3125 14.2361 Q65.1094 14.2361 65.625 13.6423 Q66.1406 13.0486 66.1406 11.8298 Q66.1406 10.6736 65.6172 10.0798 Q65.0938 9.4861 64.3125 9.4861 Q63.5312 9.4861 63.0078 10.072 Q62.4844 10.6579 62.4844 11.8611 ZM68.7656 14.9704 L68.7656 6.3767 L69.8281 6.3767 L69.8281 14.9704 L68.7656 14.9704 ZM73.5156 14.9704 L71.1562 8.7517 L72.2656 8.7517 L73.6094 12.4704 Q73.8125 13.0798 74 13.7204 Q74.1406 13.2361 74.3906 12.5486 L75.7812 8.7517 L76.8594 8.7517 L74.5 14.9704 L73.5156 14.9704 ZM80.8594 14.2048 Q80.2656 14.7048 79.7266 14.9079 Q79.1875 15.1111 78.5625 15.1111 Q77.5312 15.1111 76.9844 14.6111 Q76.4375 14.1111 76.4375 13.3298 Q76.4375 12.8767 76.6406 12.4939 Q76.8438 12.1111 77.1875 11.8845 Q77.5312 11.6579 77.9531 11.5486 Q78.25 11.4548 78.8906 11.3767 Q80.1562 11.2361 80.7656 11.0173 Q80.7656 10.7986 80.7656 10.7517 Q80.7656 10.0954 80.4688 9.8298 Q80.0625 9.4861 79.2656 9.4861 Q78.5312 9.4861 78.1719 9.7439 Q77.8125 10.0017 77.6406 10.6579 L76.6094 10.5173 Q76.75 9.8611 77.0781 9.4548 Q77.4062 9.0486 78.0156 8.8298 Q78.625 8.6111 79.4219 8.6111 Q80.2188 8.6111 80.7188 8.7986 Q81.2188 8.9861 81.4531 9.2673 Q81.6875 9.5486 81.7812 9.9861 Q81.8281 10.2517 81.8281 10.9548 L81.8281 12.3611 Q81.8281 13.8298 81.8984 14.2204 Q81.9688 14.6111 82.1719 14.9704 L81.0625 14.9704 Q80.9062 14.6423 80.8594 14.2048 ZM80.7656 11.8454 Q80.1875 12.0798 79.0469 12.2517 Q78.3906 12.3454 78.125 12.4626 Q77.8594 12.5798 77.7109 12.7986 Q77.5625 13.0173 77.5625 13.2986 Q77.5625 13.7204 77.8828 14.0017 Q78.2031 14.2829 78.8125 14.2829 Q79.4219 14.2829 79.8984 14.0173 Q80.375 13.7517 80.5938 13.2829 Q80.7656 12.9236 80.7656 12.2361 L80.7656 11.8454 ZM83.375 13.1111 L84.4062 12.9548 Q84.5 13.5798 84.8984 13.9079 Q85.2969 14.2361 86.0312 14.2361 Q86.75 14.2361 87.1016 13.947 Q87.4531 13.6579 87.4531 13.2517 Q87.4531 12.8923 87.1406 12.6892 Q86.9219 12.5486 86.0625 12.3298 Q84.9062 12.0329 84.4609 11.822 Q84.0156 11.6111 83.7812 11.2361 Q83.5469 10.8611 83.5469 10.3923 Q83.5469 9.9861 83.7344 9.6267 Q83.9219 9.2673 84.25 9.0329 Q84.5 8.8611 84.9219 8.7361 Q85.3438 8.6111 85.8438 8.6111 Q86.5625 8.6111 87.1172 8.822 Q87.6719 9.0329 87.9375 9.3923 Q88.2031 9.7517 88.2969 10.3454 L87.2656 10.4861 Q87.2031 10.0173 86.8672 9.7439 Q86.5312 9.4704 85.9062 9.4704 Q85.1875 9.4704 84.875 9.7126 Q84.5625 9.9548 84.5625 10.2829 Q84.5625 10.4861 84.6875 10.6423 Q84.8281 10.8142 85.0938 10.9236 Q85.25 10.9861 86.0312 11.1892 Q87.1562 11.5017 87.5938 11.6892 Q88.0312 11.8767 88.2812 12.2361 Q88.5312 12.5954 88.5312 13.1423 Q88.5312 13.6736 88.2266 14.1345 Q87.9219 14.5954 87.3438 14.8532 Q86.7656 15.1111 86.0312 15.1111 Q84.8125 15.1111 84.1797 14.6032 Q83.5469 14.0954 83.375 13.1111 ZM94.8594 14.2048 Q94.2656 14.7048 93.7266 14.9079 Q93.1875 15.1111 92.5625 15.1111 Q91.5312 15.1111 90.9844 14.6111 Q90.4375 14.1111 90.4375 13.3298 Q90.4375 12.8767 90.6406 12.4939 Q90.8438 12.1111 91.1875 11.8845 Q91.5312 11.6579 91.9531 11.5486 Q92.25 11.4548 92.8906 11.3767 Q94.1562 11.2361 94.7656 11.0173 Q94.7656 10.7986 94.7656 10.7517 Q94.7656 10.0954 94.4688 9.8298 Q94.0625 9.4861 93.2656 9.4861 Q92.5312 9.4861 92.1719 9.7439 Q91.8125 10.0017 91.6406 10.6579 L90.6094 10.5173 Q90.75 9.8611 91.0781 9.4548 Q91.4062 9.0486 92.0156 8.8298 Q92.625 8.6111 93.4219 8.6111 Q94.2188 8.6111 94.7188 8.7986 Q95.2188 8.9861 95.4531 9.2673 Q95.6875 9.5486 95.7812 9.9861 Q95.8281 10.2517 95.8281 10.9548 L95.8281 12.3611 Q95.8281 13.8298 95.8984 14.2204 Q95.9688 14.6111 96.1719 14.9704 L95.0625 14.9704 Q94.9062 14.6423 94.8594 14.2048 ZM94.7656 11.8454 Q94.1875 12.0798 93.0469 12.2517 Q92.3906 12.3454 92.125 12.4626 Q91.8594 12.5798 91.7109 12.7986 Q91.5625 13.0173 91.5625 13.2986 Q91.5625 13.7204 91.8828 14.0017 Q92.2031 14.2829 92.8125 14.2829 Q93.4219 14.2829 93.8984 14.0173 Q94.375 13.7517 94.5938 13.2829 Q94.7656 12.9236 94.7656 12.2361 L94.7656 11.8454 ZM92.125 6.9704 L92.9062 5.3298 L94.2969 5.3298 L93 6.9704 L92.125 6.9704 ZM97.375 13.1111 L98.4062 12.9548 Q98.5 13.5798 98.8984 13.9079 Q99.2969 14.2361 100.0312 14.2361 Q100.75 14.2361 101.1016 13.947 Q101.4531 13.6579 101.4531 13.2517 Q101.4531 12.8923 101.1406 12.6892 Q100.9219 12.5486 100.0625 12.3298 Q98.9062 12.0329 98.4609 11.822 Q98.0156 11.6111 97.7812 11.2361 Q97.5469 10.8611 97.5469 10.3923 Q97.5469 9.9861 97.7344 9.6267 Q97.9219 9.2673 98.25 9.0329 Q98.5 8.8611 98.9219 8.7361 Q99.3438 8.6111 99.8438 8.6111 Q100.5625 8.6111 101.1172 8.822 Q101.6719 9.0329 101.9375 9.3923 Q102.2031 9.7517 102.2969 10.3454 L101.2656 10.4861 Q101.2031 10.0173 100.8672 9.7439 Q100.5312 9.4704 99.9062 9.4704 Q99.1875 9.4704 98.875 9.7126 Q98.5625 9.9548 98.5625 10.2829 Q98.5625 10.4861 98.6875 10.6423 Q98.8281 10.8142 99.0938 10.9236 Q99.25 10.9861 100.0312 11.1892 Q101.1562 11.5017 101.5938 11.6892 Q102.0312 11.8767 102.2812 12.2361 Q102.5312 12.5954 102.5312 13.1423 Q102.5312 13.6736 102.2266 14.1345 Q101.9219 14.5954 101.3438 14.8532 Q100.7656 15.1111 100.0312 15.1111 Q98.8125 15.1111 98.1797 14.6032 Q97.5469 14.0954 97.375 13.1111 ZM108.8594 14.2048 Q108.2656 14.7048 107.7266 14.9079 Q107.1875 15.1111 106.5625 15.1111 Q105.5312 15.1111 104.9844 14.6111 Q104.4375 14.1111 104.4375 13.3298 Q104.4375 12.8767 104.6406 12.4939 Q104.8438 12.1111 105.1875 11.8845 Q105.5312 11.6579 105.9531 11.5486 Q106.25 11.4548 106.8906 11.3767 Q108.1562 11.2361 108.7656 11.0173 Q108.7656 10.7986 108.7656 10.7517 Q108.7656 10.0954 108.4688 9.8298 Q108.0625 9.4861 107.2656 9.4861 Q106.5312 9.4861 106.1719 9.7439 Q105.8125 10.0017 105.6406 10.6579 L104.6094 10.5173 Q104.75 9.8611 105.0781 9.4548 Q105.4062 9.0486 106.0156 8.8298 Q106.625 8.6111 107.4219 8.6111 Q108.2188 8.6111 108.7188 8.7986 Q109.2188 8.9861 109.4531 9.2673 Q109.6875 9.5486 109.7812 9.9861 Q109.8281 10.2517 109.8281 10.9548 L109.8281 12.3611 Q109.8281 13.8298 109.8984 14.2204 Q109.9688 14.6111 110.1719 14.9704 L109.0625 14.9704 Q108.9062 14.6423 108.8594 14.2048 ZM108.7656 11.8454 Q108.1875 12.0798 107.0469 12.2517 Q106.3906 12.3454 106.125 12.4626 Q105.8594 12.5798 105.7109 12.7986 Q105.5625 13.0173 105.5625 13.2986 Q105.5625 13.7204 105.8828 14.0017 Q106.2031 14.2829 106.8125 14.2829 Q107.4219 14.2829 107.8984 14.0173 Q108.375 13.7517 108.5938 13.2829 Q108.7656 12.9236 108.7656 12.2361 L108.7656 11.8454 Z" style="clip-path:url(#clipPath17); stroke:none;" />
    </g>
    <g style="text-rendering:geometricPrecision; font-size:11; font-family:sans-serif;" transform="translate(12,34)">
      <text x="6" y="12" style="clip-path:url(#clipPath18); stroke:none;" xml:space="preserve">s : Simulation</text>
    </g>
    <g style="text-rendering:geometricPrecision; font-size:11; font-family:sans-serif;" transform="translate(402,204)">
      <text x="9" y="12" style="clip-path:url(#clipPath19); stroke:none;" xml:space="preserve">component : AbstractComponent</text>
    </g>
    <g style="text-rendering:geometricPrecision; font-size:11; font-family:sans-serif;" transform="translate(352,94)">
      <text x="12" y="12" style="clip-path:url(#clipPath20); stroke:none;" xml:space="preserve">circuit :</text>
      <text x="13" y="27" style="clip-path:url(#clipPath20); stroke:none;" xml:space="preserve">Circuit</text>
    </g>
    <g style="text-rendering:geometricPrecision; font-size:11; font-family:sans-serif;" transform="translate(162,34)">
      <text x="10" y="12" style="clip-path:url(#clipPath20); stroke:none;" xml:space="preserve">parser :</text>
      <text x="13" y="27" style="clip-path:url(#clipPath20); stroke:none;" xml:space="preserve">Parser</text>
    </g>
    <g transform="translate(157,76)" style="font-size:11; stroke-linecap:butt; stroke-dashoffset:1; text-rendering:geometricPrecision; font-family:sans-serif; stroke-linejoin:round; stroke-dasharray:5;">
      <line x1="38" x2="195" y1="38" style="clip-path:url(#clipPath21); fill:none;" y2="38" />
      <line x1="195" x2="183" y1="38" style="stroke-dashoffset:0; clip-path:url(#clipPath21); fill:none; stroke-dasharray:none;" y2="32" />
      <line x1="195" x2="183" y1="38" style="stroke-dashoffset:0; clip-path:url(#clipPath21); fill:none; stroke-dasharray:none;" y2="44" />
    </g>
    <g transform="translate(157,186)" style="font-size:11; stroke-linecap:butt; stroke-dashoffset:1; text-rendering:geometricPrecision; font-family:sans-serif; stroke-linejoin:round; stroke-dasharray:5;">
      <line x1="38" x2="245" y1="38" style="clip-path:url(#clipPath22); fill:none;" y2="38" />
      <line x1="245" x2="233" y1="38" style="stroke-dashoffset:0; clip-path:url(#clipPath22); fill:none; stroke-dasharray:none;" y2="32" />
      <line x1="245" x2="233" y1="38" style="stroke-dashoffset:0; clip-path:url(#clipPath22); fill:none; stroke-dasharray:none;" y2="44" />
    </g>
    <g transform="translate(157,226)" style="font-size:11; stroke-linecap:butt; text-rendering:geometricPrecision; font-family:sans-serif; stroke-linejoin:round;">
      <line x1="38" x2="221" y1="38" style="clip-path:url(#clipPath23); fill:none;" y2="38" />
      <polygon style="clip-path:url(#clipPath23); stroke:none;" points=" 221 38 209 32 209 44" />
      <polygon style="fill:none; clip-path:url(#clipPath23);" points=" 221 38 209 32 209 44" />
    </g>
    <g transform="translate(17,56)" style="font-size:11; stroke-linecap:butt; text-rendering:geometricPrecision; font-family:sans-serif; stroke-linejoin:round;">
      <line x1="38" x2="172" y1="38" style="clip-path:url(#clipPath24); fill:none;" y2="38" />
      <polygon style="clip-path:url(#clipPath24); stroke:none;" points=" 172 38 160 32 160 44" />
      <polygon style="fill:none; clip-path:url(#clipPath24);" points=" 172 38 160 32 160 44" />
    </g>
    <g transform="translate(17,346)" style="font-size:11; stroke-linecap:butt; text-rendering:geometricPrecision; font-family:sans-serif; stroke-linejoin:round; stroke-dasharray:8,3; stroke-miterlimit:0;">
      <line x1="172" x2="38" y1="38" style="clip-path:url(#clipPath24); fill:none;" y2="38" />
      <line x1="38" x2="50" y1="38" style="clip-path:url(#clipPath24); fill:none; stroke-dasharray:none; stroke-miterlimit:10;" y2="44" />
      <line x1="38" x2="50" y1="38" style="clip-path:url(#clipPath24); fill:none; stroke-dasharray:none; stroke-miterlimit:10;" y2="32" />
    </g>
    <g transform="translate(124,156)" style="font-size:11; stroke-linecap:butt; text-rendering:geometricPrecision; font-family:sans-serif; stroke-linejoin:round; stroke-dasharray:4;">
      <line x1="38" x2="65" y1="38" style="clip-path:url(#clipPath25); fill:none;" y2="38" />
    </g>
    <g style="text-rendering:geometricPrecision; font-size:11; font-family:sans-serif;" transform="translate(93,359)">
      <text x="10" y="12" style="clip-path:url(#clipPath26); stroke:none;" xml:space="preserve">1.4: circuit</text>
    </g>
    <g style="text-rendering:geometricPrecision; font-size:11; font-family:sans-serif;" transform="translate(57,69)">
      <text x="10" y="12" style="clip-path:url(#clipPath27); stroke:none;" xml:space="preserve">1: parse(fileName)</text>
    </g>
    <g style="text-rendering:geometricPrecision; font-size:11; font-family:sans-serif;" transform="translate(197,239)">
      <text x="12" y="12" style="clip-path:url(#clipPath28); stroke:none;" xml:space="preserve">1.3: addComponent(component)</text>
    </g>
    <g style="text-rendering:geometricPrecision; font-size:11; font-family:sans-serif;" transform="translate(240,199)">
      <text x="11" y="12" style="clip-path:url(#clipPath29); stroke:none;" xml:space="preserve">1.2: &lt;&lt;create&gt;&gt;</text>
    </g>
    <g style="text-rendering:geometricPrecision; font-size:11; font-family:sans-serif;" transform="translate(222,91)">
      <text x="9" y="12" style="clip-path:url(#clipPath30); stroke:none;" xml:space="preserve">1.1: &lt;&lt;create&gt;&gt;</text>
    </g>
  </g>
</svg>
