<?xml version="1.0" encoding="UTF-8"?>

<!DOCTYPE svg PUBLIC '-//W3C//DTD SVG 1.0//EN' 'http://www.w3.org/TR/2001/REC-SVG-20010904/DTD/svg10.dtd'>
<svg style="fill-opacity:1; color-rendering:auto; color-interpolation:auto; stroke:black; text-rendering:auto; stroke-linecap:square; stroke-miterlimit:10; stroke-opacity:1; shape-rendering:auto; fill:black; stroke-dasharray:none; font-weight:normal; stroke-width:1; font-family:&apos;Dialog&apos;; font-style:normal; stroke-linejoin:miter; font-size:12; stroke-dashoffset:0; image-rendering:auto;" xmlns="http://www.w3.org/2000/svg" width="596" xmlns:xlink="http://www.w3.org/1999/xlink" height="428">
  <!--Generated by the Batik Graphics2D SVG Generator-->
  <defs id="genericDefs" />
  <g>
    <defs id="defs1">
      <clipPath clipPathUnits="userSpaceOnUse" id="clipPath1">
        <path d="M-3 -3 L187 -3 L187 207 L-3 207 L-3 -3 Z" />
      </clipPath>
      <clipPath clipPathUnits="userSpaceOnUse" id="clipPath2">
        <path d="M-3 -3 L67 -3 L67 387 L-3 387 L-3 -3 Z" />
      </clipPath>
      <clipPath clipPathUnits="userSpaceOnUse" id="clipPath3">
        <path d="M-3 -3 L67 -3 L67 327 L-3 327 L-3 -3 Z" />
      </clipPath>
      <clipPath clipPathUnits="userSpaceOnUse" id="clipPath4">
        <path d="M-3 -3 L87 -3 L87 387 L-3 387 L-3 -3 Z" />
      </clipPath>
      <clipPath clipPathUnits="userSpaceOnUse" id="clipPath5">
        <path d="M-3 -3 L14 -3 L14 312 L-3 312 L-3 -3 Z" />
      </clipPath>
      <clipPath clipPathUnits="userSpaceOnUse" id="clipPath6">
        <path d="M-3 -3 L14 -3 L14 25 L-3 25 L-3 -3 Z" />
      </clipPath>
      <clipPath clipPathUnits="userSpaceOnUse" id="clipPath7">
        <path d="M-3 -3 L14 -3 L14 287 L-3 287 L-3 -3 Z" />
      </clipPath>
      <clipPath clipPathUnits="userSpaceOnUse" id="clipPath8">
        <path d="M-3 -3 L447 -3 L447 177 L-3 177 L-3 -3 Z" />
      </clipPath>
      <clipPath clipPathUnits="userSpaceOnUse" id="clipPath9">
        <path d="M0 0 L33 0 L33 18 L0 18 L0 0 Z" />
      </clipPath>
      <clipPath clipPathUnits="userSpaceOnUse" id="clipPath10">
        <path d="M-3 -3 L447 -3 L447 159 L-3 159 L-3 -3 Z" />
      </clipPath>
      <clipPath clipPathUnits="userSpaceOnUse" id="clipPath11">
        <path d="M0 0 L170 0 L170 15 L0 15 L0 0 Z" />
      </clipPath>
      <clipPath clipPathUnits="userSpaceOnUse" id="clipPath12">
        <path d="M0 0 L0 4 L440 4 L440 0 Z" />
      </clipPath>
      <clipPath clipPathUnits="userSpaceOnUse" id="clipPath13">
        <path d="M-80 -15 L160 -15 L160 30 L-80 30 L-80 -15 Z" />
      </clipPath>
      <clipPath clipPathUnits="userSpaceOnUse" id="clipPath14">
        <path d="M-180 -15 L360 -15 L360 30 L-180 30 L-180 -15 Z" />
      </clipPath>
      <clipPath clipPathUnits="userSpaceOnUse" id="clipPath15">
        <path d="M-60 -30 L120 -30 L120 60 L-60 60 L-60 -30 Z" />
      </clipPath>
      <clipPath clipPathUnits="userSpaceOnUse" id="clipPath16">
        <path d="M0 0 L271 0 L271 115 L0 115 L0 0 Z" />
      </clipPath>
      <clipPath clipPathUnits="userSpaceOnUse" id="clipPath17">
        <path d="M0 0 L141 0 L141 135 L0 135 L0 0 Z" />
      </clipPath>
      <clipPath clipPathUnits="userSpaceOnUse" id="clipPath18">
        <path d="M0 0 L311 0 L311 115 L0 115 L0 0 Z" />
      </clipPath>
      <clipPath clipPathUnits="userSpaceOnUse" id="clipPath19">
        <path d="M0 0 L297 0 L297 115 L0 115 L0 0 Z" />
      </clipPath>
      <clipPath clipPathUnits="userSpaceOnUse" id="clipPath20">
        <path d="M0 0 L247 0 L247 115 L0 115 L0 0 Z" />
      </clipPath>
      <clipPath clipPathUnits="userSpaceOnUse" id="clipPath21">
        <path d="M-150 -16 L300 -16 L300 32 L-150 32 L-150 -16 Z" />
      </clipPath>
      <clipPath clipPathUnits="userSpaceOnUse" id="clipPath22">
        <path d="M-70 -16 L140 -16 L140 32 L-70 32 L-70 -16 Z" />
      </clipPath>
      <clipPath clipPathUnits="userSpaceOnUse" id="clipPath23">
        <path d="M-110 -16 L220 -16 L220 32 L-110 32 L-110 -16 Z" />
      </clipPath>
      <clipPath clipPathUnits="userSpaceOnUse" id="clipPath24">
        <path d="M-177 -16 L354 -16 L354 32 L-177 32 L-177 -16 Z" />
      </clipPath>
      <clipPath clipPathUnits="userSpaceOnUse" id="clipPath25">
        <path d="M-97 -16 L194 -16 L194 32 L-97 32 L-97 -16 Z" />
      </clipPath>
    </defs>
    <g style="fill:white; text-rendering:geometricPrecision; stroke:white;">
      <rect x="0" y="0" width="596" style="stroke:none;" height="428" />
      <rect x="8" y="38" transform="translate(-8,-38)" width="595" style="fill:none; stroke:black;" height="427" />
      <text x="15" y="55" transform="translate(-8,-38)" style="fill:black; stroke:none; font-weight:bold;" xml:space="preserve">sd</text>
      <text x="36" y="55" transform="translate(-8,-38)" style="fill:black; stroke:none;" xml:space="preserve">Áramkör betöltése fájlból</text>
      <line transform="translate(-8,-38)" x1="8" x2="172" y1="62" style="fill:none; stroke:black;" y2="62" />
      <line transform="translate(-8,-38)" x1="178" x2="178" y1="38" style="fill:none; stroke:black;" y2="52" />
      <line transform="translate(-8,-38)" x1="178" x2="172" y1="52" style="fill:none; stroke:black;" y2="62" />
    </g>
    <g transform="translate(392,214)" style="font-size:11; fill:white; text-rendering:geometricPrecision; font-family:sans-serif; stroke:white;">
      <rect x="0" y="0" width="179" style="clip-path:url(#clipPath1); stroke:none;" height="35" />
    </g>
    <g transform="translate(392,214)" style="font-size:11; stroke-linecap:butt; text-rendering:geometricPrecision; font-family:sans-serif; stroke-linejoin:round; stroke-miterlimit:0;">
      <rect x="0" y="0" width="179" style="clip-path:url(#clipPath1); fill:none;" height="35" />
      <line x1="89" x2="89" y1="35" style="clip-path:url(#clipPath1); fill:none; stroke-linejoin:bevel; stroke-dasharray:8,3;" y2="200" />
    </g>
    <g transform="translate(162,34)" style="font-size:11; fill:white; text-rendering:geometricPrecision; font-family:sans-serif; stroke:white;">
      <rect x="0" y="0" width="59" style="clip-path:url(#clipPath2); stroke:none;" height="35" />
    </g>
    <g transform="translate(162,34)" style="font-size:11; stroke-linecap:butt; text-rendering:geometricPrecision; font-family:sans-serif; stroke-linejoin:round; stroke-miterlimit:0;">
      <rect x="0" y="0" width="59" style="clip-path:url(#clipPath2); fill:none;" height="35" />
      <line x1="29" x2="29" y1="35" style="clip-path:url(#clipPath2); fill:none; stroke-linejoin:bevel; stroke-dasharray:8,3;" y2="380" />
    </g>
    <g transform="translate(352,94)" style="font-size:11; fill:white; text-rendering:geometricPrecision; font-family:sans-serif; stroke:white;">
      <rect x="0" y="0" width="59" style="clip-path:url(#clipPath3); stroke:none;" height="35" />
    </g>
    <g transform="translate(352,94)" style="font-size:11; stroke-linecap:butt; text-rendering:geometricPrecision; font-family:sans-serif; stroke-linejoin:round; stroke-miterlimit:0;">
      <rect x="0" y="0" width="59" style="clip-path:url(#clipPath3); fill:none;" height="35" />
      <line x1="29" x2="29" y1="35" style="clip-path:url(#clipPath3); fill:none; stroke-linejoin:bevel; stroke-dasharray:8,3;" y2="320" />
    </g>
    <g transform="translate(12,34)" style="font-size:11; fill:white; text-rendering:geometricPrecision; font-family:sans-serif; stroke:white;">
      <rect x="0" y="0" width="79" style="clip-path:url(#clipPath4); stroke:none;" height="35" />
    </g>
    <g transform="translate(12,34)" style="font-size:11; stroke-linecap:butt; text-rendering:geometricPrecision; font-family:sans-serif; stroke-linejoin:round; stroke-miterlimit:0;">
      <rect x="0" y="0" width="79" style="clip-path:url(#clipPath4); fill:none;" height="35" />
      <line x1="39" x2="39" y1="35" style="clip-path:url(#clipPath4); fill:none; stroke-linejoin:bevel; stroke-dasharray:8,3;" y2="380" />
    </g>
    <g transform="translate(49,85)" style="font-size:11; fill:white; text-rendering:geometricPrecision; font-family:sans-serif; stroke:white;">
      <rect x="0" y="0" width="7" style="clip-path:url(#clipPath5); stroke:none;" height="305" />
    </g>
    <g transform="translate(49,85)" style="font-size:11; stroke-linecap:butt; text-rendering:geometricPrecision; font-family:sans-serif; stroke-linejoin:round; stroke-miterlimit:0;">
      <rect x="0" y="0" width="7" style="clip-path:url(#clipPath5); fill:none;" height="305" />
    </g>
    <g transform="translate(379,273)" style="font-size:11; fill:white; text-rendering:geometricPrecision; font-family:sans-serif; stroke:white;">
      <rect x="0" y="0" width="7" style="clip-path:url(#clipPath6); stroke:none;" height="18" />
    </g>
    <g transform="translate(379,273)" style="font-size:11; stroke-linecap:butt; text-rendering:geometricPrecision; font-family:sans-serif; stroke-linejoin:round; stroke-miterlimit:0;">
      <rect x="0" y="0" width="7" style="clip-path:url(#clipPath6); fill:none;" height="18" />
    </g>
    <g transform="translate(189,93)" style="font-size:11; fill:white; text-rendering:geometricPrecision; font-family:sans-serif; stroke:white;">
      <rect x="0" y="0" width="7" style="clip-path:url(#clipPath7); stroke:none;" height="280" />
    </g>
    <g transform="translate(189,93)" style="font-size:11; stroke-linecap:butt; text-rendering:geometricPrecision; font-family:sans-serif; stroke-linejoin:round; stroke-miterlimit:0;">
      <rect x="0" y="0" width="7" style="clip-path:url(#clipPath7); fill:none;" height="280" />
    </g>
    <g transform="translate(142,134)" style="font-size:11; stroke-linecap:butt; text-rendering:geometricPrecision; font-family:sans-serif; stroke-linejoin:round; font-weight:bold; stroke-miterlimit:0;">
      <rect x="0" y="0" width="440" style="clip-path:url(#clipPath8); fill:none;" height="170" />
    </g>
    <g transform="translate(142,134)" style="font-size:11; fill:white; text-rendering:geometricPrecision; font-family:sans-serif; stroke:white; font-weight:bold;">
      <path d="M32 0 L32 9 L26 17 L0 17 L0 0 Z" style="clip-path:url(#clipPath8); stroke:none;" />
    </g>
    <g transform="translate(142,134)" style="font-size:11; stroke-linecap:butt; text-rendering:geometricPrecision; font-family:sans-serif; stroke-linejoin:round; font-weight:bold; stroke-miterlimit:0;">
      <path d="M32 0 L32 9 L26 17 L0 17 L0 0 Z" style="fill:none; clip-path:url(#clipPath8);" />
    </g>
    <g transform="translate(142,134)" style="text-rendering:geometricPrecision; font-size:11; font-weight:bold; font-family:sans-serif;">
      <text x="4" y="12" style="clip-path:url(#clipPath9); stroke:none;" xml:space="preserve">loop</text>
    </g>
    <g transform="translate(142,151)" style="font-size:11; fill:white; text-rendering:geometricPrecision; font-family:sans-serif; stroke:white;">
      <rect x="28" y="5" width="170" style="clip-path:url(#clipPath10); stroke:none;" height="15" />
    </g>
    <g style="text-rendering:geometricPrecision; font-size:11; font-family:sans-serif;" transform="translate(170,156)">
      <text x="10" y="12" style="clip-path:url(#clipPath11); stroke:none;" xml:space="preserve">[fájl végéig olvassuk a sorokat]</text>
    </g>
    <g style="text-rendering:geometricPrecision; font-size:11; font-family:sans-serif;" transform="translate(12,34)">
      <text x="6" y="12" style="clip-path:url(#clipPath13); stroke:none;" xml:space="preserve">s : Simulation</text>
    </g>
    <g style="text-rendering:geometricPrecision; font-size:11; font-family:sans-serif;" transform="translate(392,214)">
      <text x="9" y="12" style="clip-path:url(#clipPath14); stroke:none;" xml:space="preserve">component : AbstractComponent</text>
    </g>
    <g style="text-rendering:geometricPrecision; font-size:11; font-family:sans-serif;" transform="translate(352,94)">
      <text x="12" y="12" style="clip-path:url(#clipPath15); stroke:none;" xml:space="preserve">circuit :</text>
      <text x="13" y="27" style="clip-path:url(#clipPath15); stroke:none;" xml:space="preserve">Circuit</text>
    </g>
    <g style="text-rendering:geometricPrecision; font-size:11; font-family:sans-serif;" transform="translate(162,34)">
      <text x="10" y="12" style="clip-path:url(#clipPath15); stroke:none;" xml:space="preserve">parser :</text>
      <text x="13" y="27" style="clip-path:url(#clipPath15); stroke:none;" xml:space="preserve">Parser</text>
    </g>
    <g transform="translate(141,58)" style="font-size:11; stroke-linecap:butt; stroke-dashoffset:1; text-rendering:geometricPrecision; font-family:sans-serif; stroke-linejoin:round; stroke-dasharray:5;">
      <line x1="56" x2="211" y1="56" style="clip-path:url(#clipPath16); fill:none;" y2="56" />
      <line x1="211" x2="199" y1="56" style="stroke-dashoffset:0; clip-path:url(#clipPath16); fill:none; stroke-dasharray:none;" y2="50" />
      <line x1="211" x2="199" y1="56" style="stroke-dashoffset:0; clip-path:url(#clipPath16); fill:none; stroke-dasharray:none;" y2="62" />
    </g>
    <g transform="translate(141,128)" style="font-size:11; stroke-linecap:butt; text-rendering:geometricPrecision; font-family:sans-serif; stroke-linejoin:round;">
      <line x1="56" x2="81" y1="56" style="clip-path:url(#clipPath17); fill:none;" y2="56" />
      <line x1="81" x2="81" y1="56" style="clip-path:url(#clipPath17); fill:none;" y2="76" />
      <line x1="81" x2="56" y1="76" style="clip-path:url(#clipPath17); fill:none;" y2="76" />
      <polygon style="clip-path:url(#clipPath17); stroke:none;" points=" 56 76 68 82 68 70" />
      <polygon style="fill:none; clip-path:url(#clipPath17);" points=" 56 76 68 82 68 70" />
    </g>
    <g transform="translate(141,178)" style="font-size:11; stroke-linecap:butt; stroke-dashoffset:1; text-rendering:geometricPrecision; font-family:sans-serif; stroke-linejoin:round; stroke-dasharray:5;">
      <line x1="56" x2="251" y1="56" style="clip-path:url(#clipPath18); fill:none;" y2="56" />
      <line x1="251" x2="239" y1="56" style="stroke-dashoffset:0; clip-path:url(#clipPath18); fill:none; stroke-dasharray:none;" y2="50" />
      <line x1="251" x2="239" y1="56" style="stroke-dashoffset:0; clip-path:url(#clipPath18); fill:none; stroke-dasharray:none;" y2="62" />
    </g>
    <g transform="translate(141,218)" style="font-size:11; stroke-linecap:butt; text-rendering:geometricPrecision; font-family:sans-serif; stroke-linejoin:round;">
      <line x1="56" x2="238" y1="56" style="clip-path:url(#clipPath19); fill:none;" y2="56" />
      <polygon style="clip-path:url(#clipPath19); stroke:none;" points=" 238 56 226 50 226 62" />
      <polygon style="fill:none; clip-path:url(#clipPath19);" points=" 238 56 226 50 226 62" />
    </g>
    <g transform="translate(1,38)" style="font-size:11; stroke-linecap:butt; text-rendering:geometricPrecision; font-family:sans-serif; stroke-linejoin:round;">
      <line x1="56" x2="188" y1="56" style="clip-path:url(#clipPath20); fill:none;" y2="56" />
      <polygon style="clip-path:url(#clipPath20); stroke:none;" points=" 188 56 176 50 176 62" />
      <polygon style="fill:none; clip-path:url(#clipPath20);" points=" 188 56 176 50 176 62" />
    </g>
    <g transform="translate(1,308)" style="font-size:11; stroke-linecap:butt; text-rendering:geometricPrecision; font-family:sans-serif; stroke-linejoin:round; stroke-dasharray:8,3; stroke-miterlimit:0;">
      <line x1="188" x2="56" y1="56" style="clip-path:url(#clipPath20); fill:none;" y2="56" />
      <line x1="56" x2="68" y1="56" style="clip-path:url(#clipPath20); fill:none; stroke-dasharray:none; stroke-miterlimit:10;" y2="62" />
      <line x1="56" x2="68" y1="56" style="clip-path:url(#clipPath20); fill:none; stroke-dasharray:none; stroke-miterlimit:10;" y2="50" />
    </g>
    <g transform="translate(141,258)" style="font-size:11; stroke-linecap:butt; text-rendering:geometricPrecision; font-family:sans-serif; stroke-linejoin:round;">
      <line x1="56" x2="81" y1="56" style="clip-path:url(#clipPath17); fill:none;" y2="56" />
      <line x1="81" x2="81" y1="56" style="clip-path:url(#clipPath17); fill:none;" y2="76" />
      <line x1="81" x2="56" y1="76" style="clip-path:url(#clipPath17); fill:none;" y2="76" />
      <polygon style="clip-path:url(#clipPath17); stroke:none;" points=" 56 76 68 82 68 70" />
      <polygon style="fill:none; clip-path:url(#clipPath17);" points=" 56 76 68 82 68 70" />
    </g>
    <g style="text-rendering:geometricPrecision; font-size:11; font-family:sans-serif;" transform="translate(222,314)">
      <text x="11" y="12" style="clip-path:url(#clipPath21); stroke:none;" xml:space="preserve">1.5: connectComponents()</text>
    </g>
    <g style="text-rendering:geometricPrecision; font-size:11; font-family:sans-serif;" transform="translate(93,343)">
      <text x="10" y="12" style="clip-path:url(#clipPath22); stroke:none;" xml:space="preserve">1.6: circuit</text>
    </g>
    <g style="text-rendering:geometricPrecision; font-size:11; font-family:sans-serif;" transform="translate(61,73)">
      <text x="10" y="12" style="clip-path:url(#clipPath23); stroke:none;" xml:space="preserve">1: parse(fileName)</text>
    </g>
    <g style="text-rendering:geometricPrecision; font-size:11; font-family:sans-serif;" transform="translate(201,253)">
      <text x="11" y="12" style="clip-path:url(#clipPath24); stroke:none;" xml:space="preserve">1.4: addComponent(component)</text>
    </g>
    <g style="text-rendering:geometricPrecision; font-size:11; font-family:sans-serif;" transform="translate(238,213)">
      <text x="10" y="12" style="clip-path:url(#clipPath25); stroke:none;" xml:space="preserve">1.3: &lt;&lt;create&gt;&gt;</text>
    </g>
    <g style="text-rendering:geometricPrecision; font-size:11; font-family:sans-serif;" transform="translate(222,184)">
      <text x="10" y="12" style="clip-path:url(#clipPath25); stroke:none;" xml:space="preserve">1.2: parseLine()</text>
    </g>
    <g style="text-rendering:geometricPrecision; font-size:11; font-family:sans-serif;" transform="translate(223,93)">
      <text x="10" y="12" style="clip-path:url(#clipPath25); stroke:none;" xml:space="preserve">1.1: &lt;&lt;create&gt;&gt;</text>
    </g>
  </g>
</svg>
