<?xml version="1.0" encoding="UTF-8"?>

<!DOCTYPE svg PUBLIC '-//W3C//DTD SVG 1.0//EN' 'http://www.w3.org/TR/2001/REC-SVG-20010904/DTD/svg10.dtd'>
<svg style="fill-opacity:1; color-rendering:auto; color-interpolation:auto; stroke:black; text-rendering:auto; stroke-linecap:square; stroke-miterlimit:10; stroke-opacity:1; shape-rendering:auto; fill:black; stroke-dasharray:none; font-weight:normal; stroke-width:1; font-family:&apos;Dialog&apos;; font-style:normal; stroke-linejoin:miter; font-size:12; stroke-dashoffset:0; image-rendering:auto;" xmlns="http://www.w3.org/2000/svg" width="586" xmlns:xlink="http://www.w3.org/1999/xlink" height="468">
  <!--Generated by the Batik Graphics2D SVG Generator-->
  <defs id="genericDefs" />
  <g>
    <defs id="defs1">
      <clipPath clipPathUnits="userSpaceOnUse" id="clipPath1">
        <path d="M-3 -3 L87 -3 L87 427 L-3 427 L-3 -3 Z" />
      </clipPath>
      <clipPath clipPathUnits="userSpaceOnUse" id="clipPath2">
        <path d="M-3 -3 L97 -3 L97 427 L-3 427 L-3 -3 Z" />
      </clipPath>
      <clipPath clipPathUnits="userSpaceOnUse" id="clipPath3">
        <path d="M-3 -3 L15 -3 L15 362 L-3 362 L-3 -3 Z" />
      </clipPath>
      <clipPath clipPathUnits="userSpaceOnUse" id="clipPath4">
        <path d="M-3 -3 L157 -3 L157 427 L-3 427 L-3 -3 Z" />
      </clipPath>
      <clipPath clipPathUnits="userSpaceOnUse" id="clipPath5">
        <path d="M-3 -3 L387 -3 L387 287 L-3 287 L-3 -3 Z" />
      </clipPath>
      <clipPath clipPathUnits="userSpaceOnUse" id="clipPath6">
        <path d="M0 0 L33 0 L33 18 L0 18 L0 0 Z" />
      </clipPath>
      <clipPath clipPathUnits="userSpaceOnUse" id="clipPath7">
        <path d="M-3 -3 L387 -3 L387 269 L-3 269 L-3 -3 Z" />
      </clipPath>
      <clipPath clipPathUnits="userSpaceOnUse" id="clipPath8">
        <path d="M0 0 L268 0 L268 15 L0 15 L0 0 Z" />
      </clipPath>
      <clipPath clipPathUnits="userSpaceOnUse" id="clipPath9">
        <path d="M0 0 L0 4 L380 4 L380 0 Z" />
      </clipPath>
      <clipPath clipPathUnits="userSpaceOnUse" id="clipPath10">
        <path d="M-3 -3 L15 -3 L15 47 L-3 47 L-3 -3 Z" />
      </clipPath>
      <clipPath clipPathUnits="userSpaceOnUse" id="clipPath11">
        <path d="M-3 -3 L15 -3 L15 19 L-3 19 L-3 -3 Z" />
      </clipPath>
      <clipPath clipPathUnits="userSpaceOnUse" id="clipPath12">
        <path d="M-3 -3 L347 -3 L347 157 L-3 157 L-3 -3 Z" />
      </clipPath>
      <clipPath clipPathUnits="userSpaceOnUse" id="clipPath13">
        <path d="M-3 -3 L347 -3 L347 139 L-3 139 L-3 -3 Z" />
      </clipPath>
      <clipPath clipPathUnits="userSpaceOnUse" id="clipPath14">
        <path d="M0 0 L114 0 L114 15 L0 15 L0 0 Z" />
      </clipPath>
      <clipPath clipPathUnits="userSpaceOnUse" id="clipPath15">
        <path d="M0 0 L0 4 L340 4 L340 0 Z" />
      </clipPath>
      <clipPath clipPathUnits="userSpaceOnUse" id="clipPath16">
        <path d="M-3 -3 L217 -3 L217 77 L-3 77 L-3 -3 Z" />
      </clipPath>
      <clipPath clipPathUnits="userSpaceOnUse" id="clipPath17">
        <path d="M0 0 L0 70 L210 70 L210 0 Z" />
      </clipPath>
      <clipPath clipPathUnits="userSpaceOnUse" id="clipPath18">
        <path d="M-3 -3 L197 -3 L197 67 L-3 67 L-3 -3 Z" />
      </clipPath>
      <clipPath clipPathUnits="userSpaceOnUse" id="clipPath19">
        <path d="M0 0 L0 60 L190 60 L190 0 Z" />
      </clipPath>
      <clipPath clipPathUnits="userSpaceOnUse" id="clipPath20">
        <path d="M-150 -30 L300 -30 L300 60 L-150 60 L-150 -30 Z" />
      </clipPath>
      <clipPath clipPathUnits="userSpaceOnUse" id="clipPath21">
        <path d="M-80 -15 L160 -15 L160 30 L-80 30 L-80 -15 Z" />
      </clipPath>
      <clipPath clipPathUnits="userSpaceOnUse" id="clipPath22">
        <path d="M-90 -15 L180 -15 L180 30 L-90 30 L-90 -15 Z" />
      </clipPath>
      <clipPath clipPathUnits="userSpaceOnUse" id="clipPath23">
        <path d="M0 0 L114 0 L114 104 L0 104 L0 0 Z" />
      </clipPath>
      <clipPath clipPathUnits="userSpaceOnUse" id="clipPath24">
        <path d="M0 0 L271 0 L271 104 L0 104 L0 0 Z" />
      </clipPath>
      <clipPath clipPathUnits="userSpaceOnUse" id="clipPath25">
        <path d="M0 0 L104 0 L104 143 L0 143 L0 0 Z" />
      </clipPath>
      <clipPath clipPathUnits="userSpaceOnUse" id="clipPath26">
        <path d="M0 0 L396 0 L396 104 L0 104 L0 0 Z" />
      </clipPath>
      <clipPath clipPathUnits="userSpaceOnUse" id="clipPath27">
        <path d="M-88 -15 L176 -15 L176 30 L-88 30 L-88 -15 Z" />
      </clipPath>
      <clipPath clipPathUnits="userSpaceOnUse" id="clipPath28">
        <path d="M-87 -15 L174 -15 L174 30 L-87 30 L-87 -15 Z" />
      </clipPath>
      <clipPath clipPathUnits="userSpaceOnUse" id="clipPath29">
        <path d="M-113 -15 L226 -15 L226 30 L-113 30 L-113 -15 Z" />
      </clipPath>
      <clipPath clipPathUnits="userSpaceOnUse" id="clipPath30">
        <path d="M-154 -15 L308 -15 L308 30 L-154 30 L-154 -15 Z" />
      </clipPath>
    </defs>
    <g style="fill:white; text-rendering:geometricPrecision; stroke:white;">
      <rect x="0" y="0" width="586" style="stroke:none;" height="468" />
      <rect x="38" y="38" transform="translate(-38,-38)" width="585" style="fill:none; stroke:black;" height="467" />
      <text x="45" y="55" transform="translate(-38,-38)" style="fill:black; stroke:none; font-weight:bold;" xml:space="preserve">sd</text>
      <text x="66" y="55" transform="translate(-38,-38)" style="fill:black; stroke:none;" xml:space="preserve">Komponensek összekötése</text>
      <line transform="translate(-38,-38)" x1="38" x2="220" y1="62" style="fill:none; stroke:black;" y2="62" />
      <line transform="translate(-38,-38)" x1="226" x2="226" y1="38" style="fill:none; stroke:black;" y2="52" />
      <line transform="translate(-38,-38)" x1="226" x2="220" y1="52" style="fill:none; stroke:black;" y2="62" />
    </g>
    <g transform="translate(192,34)" style="font-size:11; fill:white; text-rendering:geometricPrecision; font-family:sans-serif; stroke:white;">
      <rect x="0" y="0" width="79" style="clip-path:url(#clipPath1); stroke:none;" height="35" />
    </g>
    <g transform="translate(192,34)" style="font-size:11; stroke-linecap:butt; text-rendering:geometricPrecision; font-family:sans-serif; stroke-linejoin:round; stroke-miterlimit:0;">
      <rect x="0" y="0" width="79" style="clip-path:url(#clipPath1); fill:none;" height="35" />
      <line x1="39" x2="39" y1="35" style="clip-path:url(#clipPath1); fill:none; stroke-linejoin:bevel; stroke-dasharray:8,3;" y2="420" />
    </g>
    <g transform="translate(12,34)" style="font-size:11; fill:white; text-rendering:geometricPrecision; font-family:sans-serif; stroke:white;">
      <rect x="0" y="0" width="89" style="clip-path:url(#clipPath2); stroke:none;" height="35" />
    </g>
    <g transform="translate(12,34)" style="font-size:11; stroke-linecap:butt; text-rendering:geometricPrecision; font-family:sans-serif; stroke-linejoin:round; stroke-miterlimit:0;">
      <rect x="0" y="0" width="89" style="clip-path:url(#clipPath2); fill:none;" height="35" />
      <line x1="44" x2="44" y1="35" style="clip-path:url(#clipPath2); fill:none; stroke-linejoin:bevel; stroke-dasharray:8,3;" y2="420" />
    </g>
    <g transform="translate(53,74)" style="font-size:11; fill:white; text-rendering:geometricPrecision; font-family:sans-serif; stroke:white;">
      <rect x="0" y="0" width="8" style="clip-path:url(#clipPath3); stroke:none;" height="355" />
    </g>
    <g transform="translate(53,74)" style="font-size:11; stroke-linecap:butt; text-rendering:geometricPrecision; font-family:sans-serif; stroke-linejoin:round; stroke-miterlimit:0;">
      <rect x="0" y="0" width="8" style="clip-path:url(#clipPath3); fill:none;" height="355" />
    </g>
    <g transform="translate(282,34)" style="font-size:11; fill:white; text-rendering:geometricPrecision; font-family:sans-serif; stroke:white;">
      <rect x="0" y="0" width="149" style="clip-path:url(#clipPath4); stroke:none;" height="35" />
    </g>
    <g transform="translate(282,34)" style="font-size:11; stroke-linecap:butt; text-rendering:geometricPrecision; font-family:sans-serif; stroke-linejoin:round; stroke-miterlimit:0;">
      <rect x="0" y="0" width="149" style="clip-path:url(#clipPath4); fill:none;" height="35" />
      <line x1="74" x2="74" y1="35" style="clip-path:url(#clipPath4); fill:none; stroke-linejoin:bevel; stroke-dasharray:8,3;" y2="420" />
    </g>
    <g transform="translate(12,94)" style="font-size:11; stroke-linecap:butt; text-rendering:geometricPrecision; font-family:sans-serif; stroke-linejoin:round; font-weight:bold; stroke-miterlimit:0;">
      <rect x="0" y="0" width="380" style="clip-path:url(#clipPath5); fill:none;" height="280" />
    </g>
    <g transform="translate(12,94)" style="font-size:11; fill:white; text-rendering:geometricPrecision; font-family:sans-serif; stroke:white; font-weight:bold;">
      <path d="M32 0 L32 9 L26 17 L0 17 L0 0 Z" style="clip-path:url(#clipPath5); stroke:none;" />
    </g>
    <g transform="translate(12,94)" style="font-size:11; stroke-linecap:butt; text-rendering:geometricPrecision; font-family:sans-serif; stroke-linejoin:round; font-weight:bold; stroke-miterlimit:0;">
      <path d="M32 0 L32 9 L26 17 L0 17 L0 0 Z" style="fill:none; clip-path:url(#clipPath5);" />
    </g>
    <g transform="translate(12,94)" style="text-rendering:geometricPrecision; font-size:11; font-weight:bold; font-family:sans-serif;">
      <text x="4" y="12" style="clip-path:url(#clipPath6); stroke:none;" xml:space="preserve">loop</text>
    </g>
    <g transform="translate(12,112)" style="font-size:11; fill:white; text-rendering:geometricPrecision; font-family:sans-serif; stroke:white;">
      <rect x="28" y="5" width="268" style="clip-path:url(#clipPath7); stroke:none;" height="15" />
    </g>
    <g style="text-rendering:geometricPrecision; font-size:11; font-family:sans-serif;" transform="translate(40,117)">
      <text x="10" y="12" style="clip-path:url(#clipPath8); stroke:none;" xml:space="preserve">[Áramkör minden komponensét lekérjük név alapján]</text>
    </g>
    <g transform="translate(228,274)" style="font-size:11; fill:white; text-rendering:geometricPrecision; font-family:sans-serif; stroke:white;">
      <rect x="0" y="0" width="8" style="clip-path:url(#clipPath10); stroke:none;" height="40" />
    </g>
    <g transform="translate(228,274)" style="font-size:11; stroke-linecap:butt; text-rendering:geometricPrecision; font-family:sans-serif; stroke-linejoin:round; stroke-miterlimit:0;">
      <rect x="0" y="0" width="8" style="clip-path:url(#clipPath10); fill:none;" height="40" />
    </g>
    <g transform="translate(353,344)" style="font-size:11; fill:white; text-rendering:geometricPrecision; font-family:sans-serif; stroke:white;">
      <rect x="0" y="0" width="8" style="clip-path:url(#clipPath11); stroke:none;" height="12" />
    </g>
    <g transform="translate(353,344)" style="font-size:11; stroke-linecap:butt; text-rendering:geometricPrecision; font-family:sans-serif; stroke-linejoin:round; stroke-miterlimit:0;">
      <rect x="0" y="0" width="8" style="clip-path:url(#clipPath11); fill:none;" height="12" />
    </g>
    <g transform="translate(228,164)" style="font-size:11; fill:white; text-rendering:geometricPrecision; font-family:sans-serif; stroke:white;">
      <rect x="0" y="0" width="8" style="clip-path:url(#clipPath10); stroke:none;" height="40" />
    </g>
    <g transform="translate(228,164)" style="font-size:11; stroke-linecap:butt; text-rendering:geometricPrecision; font-family:sans-serif; stroke-linejoin:round; stroke-miterlimit:0;">
      <rect x="0" y="0" width="8" style="clip-path:url(#clipPath10); fill:none;" height="40" />
    </g>
    <g transform="translate(32,214)" style="font-size:11; stroke-linecap:butt; text-rendering:geometricPrecision; font-family:sans-serif; stroke-linejoin:round; font-weight:bold; stroke-miterlimit:0;">
      <rect x="0" y="0" width="340" style="clip-path:url(#clipPath12); fill:none;" height="150" />
    </g>
    <g transform="translate(32,214)" style="font-size:11; fill:white; text-rendering:geometricPrecision; font-family:sans-serif; stroke:white; font-weight:bold;">
      <path d="M32 0 L32 9 L26 17 L0 17 L0 0 Z" style="clip-path:url(#clipPath12); stroke:none;" />
    </g>
    <g transform="translate(32,214)" style="font-size:11; stroke-linecap:butt; text-rendering:geometricPrecision; font-family:sans-serif; stroke-linejoin:round; font-weight:bold; stroke-miterlimit:0;">
      <path d="M32 0 L32 9 L26 17 L0 17 L0 0 Z" style="fill:none; clip-path:url(#clipPath12);" />
    </g>
    <g transform="translate(32,214)" style="text-rendering:geometricPrecision; font-size:11; font-weight:bold; font-family:sans-serif;">
      <text x="4" y="12" style="clip-path:url(#clipPath6); stroke:none;" xml:space="preserve">loop</text>
    </g>
    <g transform="translate(32,232)" style="font-size:11; fill:white; text-rendering:geometricPrecision; font-family:sans-serif; stroke:white;">
      <rect x="28" y="5" width="114" style="clip-path:url(#clipPath13); stroke:none;" height="15" />
    </g>
    <g style="text-rendering:geometricPrecision; font-size:11; font-family:sans-serif;" transform="translate(60,237)">
      <text x="10" y="12" style="clip-path:url(#clipPath14); stroke:none;" xml:space="preserve">[minden bemenetre]</text>
    </g>
    <g transform="translate(192,384)" style="font-size:11; fill:white; text-rendering:geometricPrecision; font-family:sans-serif; stroke:white;">
      <polygon style="clip-path:url(#clipPath16); stroke:none;" points=" 0 0 194 0 209 15 194 15 194 0 209 15 209 69 0 69" />
    </g>
    <g transform="translate(192,384)" style="font-size:11; stroke-linecap:butt; text-rendering:geometricPrecision; font-family:sans-serif; stroke-linejoin:round; stroke-miterlimit:0;">
      <polygon style="fill:none; clip-path:url(#clipPath16);" points=" 0 0 194 0 209 15 194 15 194 0 209 15 209 69 0 69" />
    </g>
    <g style="text-rendering:geometricPrecision; font-size:11; font-family:&apos;Tahoma&apos;;" transform="translate(192,384)">
      <path d="M3.9219 14.9704 L3.9219 6.3767 L7.1719 6.3767 Q8.0156 6.3767 8.4688 6.4548 Q9.1094 6.5642 9.5391 6.8611 Q9.9688 7.1579 10.2266 7.6892 Q10.4844 8.2204 10.4844 8.8611 Q10.4844 9.9548 9.7891 10.7126 Q9.0938 11.4704 7.2656 11.4704 L5.0625 11.4704 L5.0625 14.9704 L3.9219 14.9704 ZM5.0625 10.4704 L7.2812 10.4704 Q8.3906 10.4704 8.8516 10.0564 Q9.3125 9.6423 9.3125 8.8923 Q9.3125 8.3611 9.0391 7.9782 Q8.7656 7.5954 8.3281 7.4704 Q8.0312 7.3923 7.2656 7.3923 L5.0625 7.3923 L5.0625 10.4704 ZM15.8594 14.2048 Q15.2656 14.7048 14.7266 14.9079 Q14.1875 15.1111 13.5625 15.1111 Q12.5312 15.1111 11.9844 14.6111 Q11.4375 14.1111 11.4375 13.3298 Q11.4375 12.8767 11.6406 12.4939 Q11.8438 12.1111 12.1875 11.8845 Q12.5312 11.6579 12.9531 11.5486 Q13.25 11.4548 13.8906 11.3767 Q15.1562 11.2361 15.7656 11.0173 Q15.7656 10.7986 15.7656 10.7517 Q15.7656 10.0954 15.4688 9.8298 Q15.0625 9.4861 14.2656 9.4861 Q13.5312 9.4861 13.1719 9.7439 Q12.8125 10.0017 12.6406 10.6579 L11.6094 10.5173 Q11.75 9.8611 12.0781 9.4548 Q12.4062 9.0486 13.0156 8.8298 Q13.625 8.6111 14.4219 8.6111 Q15.2188 8.6111 15.7188 8.7986 Q16.2188 8.9861 16.4531 9.2673 Q16.6875 9.5486 16.7812 9.9861 Q16.8281 10.2517 16.8281 10.9548 L16.8281 12.3611 Q16.8281 13.8298 16.8984 14.2204 Q16.9688 14.6111 17.1719 14.9704 L16.0625 14.9704 Q15.9062 14.6423 15.8594 14.2048 ZM15.7656 11.8454 Q15.1875 12.0798 14.0469 12.2517 Q13.3906 12.3454 13.125 12.4626 Q12.8594 12.5798 12.7109 12.7986 Q12.5625 13.0173 12.5625 13.2986 Q12.5625 13.7204 12.8828 14.0017 Q13.2031 14.2829 13.8125 14.2829 Q14.4219 14.2829 14.8984 14.0173 Q15.375 13.7517 15.5938 13.2829 Q15.7656 12.9236 15.7656 12.2361 L15.7656 11.8454 ZM18.7812 14.9704 L18.7812 8.7517 L19.7344 8.7517 L19.7344 9.6892 Q20.0938 9.0329 20.3984 8.822 Q20.7031 8.6111 21.0781 8.6111 Q21.6094 8.6111 22.1562 8.9392 L21.7969 9.9236 Q21.4062 9.6892 21.0312 9.6892 Q20.6719 9.6892 20.3984 9.9001 Q20.125 10.1111 20.0156 10.4861 Q19.8281 11.0486 19.8281 11.7048 L19.8281 14.9704 L18.7812 14.9704 ZM26.8594 14.2048 Q26.2656 14.7048 25.7266 14.9079 Q25.1875 15.1111 24.5625 15.1111 Q23.5312 15.1111 22.9844 14.6111 Q22.4375 14.1111 22.4375 13.3298 Q22.4375 12.8767 22.6406 12.4939 Q22.8438 12.1111 23.1875 11.8845 Q23.5312 11.6579 23.9531 11.5486 Q24.25 11.4548 24.8906 11.3767 Q26.1562 11.2361 26.7656 11.0173 Q26.7656 10.7986 26.7656 10.7517 Q26.7656 10.0954 26.4688 9.8298 Q26.0625 9.4861 25.2656 9.4861 Q24.5312 9.4861 24.1719 9.7439 Q23.8125 10.0017 23.6406 10.6579 L22.6094 10.5173 Q22.75 9.8611 23.0781 9.4548 Q23.4062 9.0486 24.0156 8.8298 Q24.625 8.6111 25.4219 8.6111 Q26.2188 8.6111 26.7188 8.7986 Q27.2188 8.9861 27.4531 9.2673 Q27.6875 9.5486 27.7812 9.9861 Q27.8281 10.2517 27.8281 10.9548 L27.8281 12.3611 Q27.8281 13.8298 27.8984 14.2204 Q27.9688 14.6111 28.1719 14.9704 L27.0625 14.9704 Q26.9062 14.6423 26.8594 14.2048 ZM26.7656 11.8454 Q26.1875 12.0798 25.0469 12.2517 Q24.3906 12.3454 24.125 12.4626 Q23.8594 12.5798 23.7109 12.7986 Q23.5625 13.0173 23.5625 13.2986 Q23.5625 13.7204 23.8828 14.0017 Q24.2031 14.2829 24.8125 14.2829 Q25.4219 14.2829 25.8984 14.0173 Q26.375 13.7517 26.5938 13.2829 Q26.7656 12.9236 26.7656 12.2361 L26.7656 11.8454 ZM29.7969 14.9704 L29.7969 8.7517 L30.7344 8.7517 L30.7344 9.6267 Q31.0312 9.1579 31.5156 8.8845 Q32 8.6111 32.625 8.6111 Q33.3125 8.6111 33.7578 8.8923 Q34.2031 9.1736 34.375 9.6892 Q35.125 8.6111 36.2969 8.6111 Q37.2344 8.6111 37.7266 9.1189 Q38.2188 9.6267 38.2188 10.7048 L38.2188 14.9704 L37.1719 14.9704 L37.1719 11.0486 Q37.1719 10.4236 37.0703 10.1423 Q36.9688 9.8611 36.7031 9.6892 Q36.4375 9.5173 36.0625 9.5173 Q35.4062 9.5173 34.9766 9.9548 Q34.5469 10.3923 34.5469 11.3611 L34.5469 14.9704 L33.4844 14.9704 L33.4844 10.9236 Q33.4844 10.2204 33.2266 9.8689 Q32.9688 9.5173 32.3906 9.5173 Q31.9375 9.5173 31.5625 9.7517 Q31.1875 9.9861 31.0156 10.4392 Q30.8438 10.8923 30.8438 11.7361 L30.8438 14.9704 L29.7969 14.9704 ZM45.0469 12.9704 L46.1406 13.0954 Q45.8906 14.0486 45.1875 14.5798 Q44.4844 15.1111 43.4062 15.1111 Q42.0469 15.1111 41.2422 14.2673 Q40.4375 13.4236 40.4375 11.9079 Q40.4375 10.3454 41.25 9.4782 Q42.0625 8.6111 43.3438 8.6111 Q44.5938 8.6111 45.3828 9.4548 Q46.1719 10.2986 46.1719 11.8454 Q46.1719 11.9392 46.1719 12.1267 L41.5312 12.1267 Q41.5938 13.1579 42.1094 13.697 Q42.625 14.2361 43.4062 14.2361 Q43.9844 14.2361 44.3984 13.9314 Q44.8125 13.6267 45.0469 12.9704 ZM41.5938 11.2673 L45.0625 11.2673 Q45 10.4704 44.6719 10.0798 Q44.1562 9.4704 43.3594 9.4704 Q42.625 9.4704 42.1328 9.9548 Q41.6406 10.4392 41.5938 11.2673 ZM42.125 6.9704 L42.9062 5.3298 L44.2969 5.3298 L43 6.9704 L42.125 6.9704 ZM50.0938 14.0329 L50.25 14.9548 Q49.7969 15.0486 49.4531 15.0486 Q48.875 15.0486 48.5625 14.8689 Q48.25 14.6892 48.1172 14.3923 Q47.9844 14.0954 47.9844 13.1423 L47.9844 9.5642 L47.2188 9.5642 L47.2188 8.7517 L47.9844 8.7517 L47.9844 7.2048 L49.0312 6.5798 L49.0312 8.7517 L50.0938 8.7517 L50.0938 9.5642 L49.0312 9.5642 L49.0312 13.2048 Q49.0312 13.6579 49.0859 13.7829 Q49.1406 13.9079 49.2656 13.9861 Q49.3906 14.0642 49.625 14.0642 Q49.8125 14.0642 50.0938 14.0329 ZM55.0469 12.9704 L56.1406 13.0954 Q55.8906 14.0486 55.1875 14.5798 Q54.4844 15.1111 53.4062 15.1111 Q52.0469 15.1111 51.2422 14.2673 Q50.4375 13.4236 50.4375 11.9079 Q50.4375 10.3454 51.25 9.4782 Q52.0625 8.6111 53.3438 8.6111 Q54.5938 8.6111 55.3828 9.4548 Q56.1719 10.2986 56.1719 11.8454 Q56.1719 11.9392 56.1719 12.1267 L51.5312 12.1267 Q51.5938 13.1579 52.1094 13.697 Q52.625 14.2361 53.4062 14.2361 Q53.9844 14.2361 54.3984 13.9314 Q54.8125 13.6267 55.0469 12.9704 ZM51.5938 11.2673 L55.0625 11.2673 Q55 10.4704 54.6719 10.0798 Q54.1562 9.4704 53.3594 9.4704 Q52.625 9.4704 52.1328 9.9548 Q51.6406 10.4392 51.5938 11.2673 ZM57.7812 14.9704 L57.7812 8.7517 L58.7344 8.7517 L58.7344 9.6892 Q59.0938 9.0329 59.3984 8.822 Q59.7031 8.6111 60.0781 8.6111 Q60.6094 8.6111 61.1562 8.9392 L60.7969 9.9236 Q60.4062 9.6892 60.0312 9.6892 Q59.6719 9.6892 59.3984 9.9001 Q59.125 10.1111 59.0156 10.4861 Q58.8281 11.0486 58.8281 11.7048 L58.8281 14.9704 L57.7812 14.9704 ZM66.0469 12.9704 L67.1406 13.0954 Q66.8906 14.0486 66.1875 14.5798 Q65.4844 15.1111 64.4062 15.1111 Q63.0469 15.1111 62.2422 14.2673 Q61.4375 13.4236 61.4375 11.9079 Q61.4375 10.3454 62.25 9.4782 Q63.0625 8.6111 64.3438 8.6111 Q65.5938 8.6111 66.3828 9.4548 Q67.1719 10.2986 67.1719 11.8454 Q67.1719 11.9392 67.1719 12.1267 L62.5312 12.1267 Q62.5938 13.1579 63.1094 13.697 Q63.625 14.2361 64.4062 14.2361 Q64.9844 14.2361 65.3984 13.9314 Q65.8125 13.6267 66.0469 12.9704 ZM62.5938 11.2673 L66.0625 11.2673 Q66 10.4704 65.6719 10.0798 Q65.1562 9.4704 64.3594 9.4704 Q63.625 9.4704 63.1328 9.9548 Q62.6406 10.4392 62.5938 11.2673 ZM68.7969 14.9704 L68.7969 6.3767 L69.8594 6.3767 L69.8594 11.2829 L72.3438 8.7517 L73.7188 8.7517 L71.3281 11.0486 L73.9531 14.9704 L72.6562 14.9704 L70.5938 11.7829 L69.8594 12.5017 L69.8594 14.9704 L68.7969 14.9704 ZM75.0781 9.9548 L75.0781 8.7517 L76.2812 8.7517 L76.2812 9.9548 L75.0781 9.9548 ZM75.0781 14.9704 L75.0781 13.7673 L76.2812 13.7673 L76.2812 14.9704 L75.0781 14.9704 Z" style="clip-path:url(#clipPath17); stroke:none;" />
      <path d="M3.7969 28.9704 L3.7969 22.7517 L4.7344 22.7517 L4.7344 23.6267 Q5.0312 23.1579 5.5156 22.8845 Q6 22.6111 6.625 22.6111 Q7.3125 22.6111 7.7578 22.8923 Q8.2031 23.1736 8.375 23.6892 Q9.125 22.6111 10.2969 22.6111 Q11.2344 22.6111 11.7266 23.1189 Q12.2188 23.6267 12.2188 24.7048 L12.2188 28.9704 L11.1719 28.9704 L11.1719 25.0486 Q11.1719 24.4236 11.0703 24.1423 Q10.9688 23.8611 10.7031 23.6892 Q10.4375 23.5173 10.0625 23.5173 Q9.4062 23.5173 8.9766 23.9548 Q8.5469 24.3923 8.5469 25.3611 L8.5469 28.9704 L7.4844 28.9704 L7.4844 24.9236 Q7.4844 24.2204 7.2266 23.8689 Q6.9688 23.5173 6.3906 23.5173 Q5.9375 23.5173 5.5625 23.7517 Q5.1875 23.9861 5.0156 24.4392 Q4.8438 24.8923 4.8438 25.7361 L4.8438 28.9704 L3.7969 28.9704 ZM19.0469 26.9704 L20.1406 27.0954 Q19.8906 28.0486 19.1875 28.5798 Q18.4844 29.1111 17.4062 29.1111 Q16.0469 29.1111 15.2422 28.2673 Q14.4375 27.4236 14.4375 25.9079 Q14.4375 24.3454 15.25 23.4782 Q16.0625 22.6111 17.3438 22.6111 Q18.5938 22.6111 19.3828 23.4548 Q20.1719 24.2986 20.1719 25.8454 Q20.1719 25.9392 20.1719 26.1267 L15.5312 26.1267 Q15.5938 27.1579 16.1094 27.697 Q16.625 28.2361 17.4062 28.2361 Q17.9844 28.2361 18.3984 27.9314 Q18.8125 27.6267 19.0469 26.9704 ZM15.5938 25.2673 L19.0625 25.2673 Q19 24.4704 18.6719 24.0798 Q18.1562 23.4704 17.3594 23.4704 Q16.625 23.4704 16.1328 23.9548 Q15.6406 24.4392 15.5938 25.2673 ZM21.7656 28.9704 L21.7656 20.3767 L22.8281 20.3767 L22.8281 28.9704 L21.7656 28.9704 ZM24.75 31.3611 L24.625 30.3767 Q24.9688 30.4704 25.2344 30.4704 Q25.5781 30.4704 25.7891 30.3532 Q26 30.2361 26.1406 30.0329 Q26.2344 29.8611 26.4688 29.2361 Q26.4844 29.1579 26.5625 28.9861 L24.1875 22.7517 L25.3281 22.7517 L26.625 26.3454 Q26.875 27.0329 27.0781 27.7986 Q27.2656 27.0642 27.5156 26.3767 L28.8438 22.7517 L29.8906 22.7517 L27.5312 29.0798 Q27.1406 30.0954 26.9375 30.4861 Q26.6562 31.0173 26.2891 31.2595 Q25.9219 31.5017 25.4219 31.5017 Q25.125 31.5017 24.75 31.3611 ZM29.7969 21.5954 L29.7969 20.3767 L30.8594 20.3767 L30.8594 21.5954 L29.7969 21.5954 ZM29.7969 28.9704 L29.7969 22.7517 L30.8594 22.7517 L30.8594 28.9704 L29.7969 28.9704 ZM32.7969 28.9704 L32.7969 20.3767 L33.8594 20.3767 L33.8594 25.2829 L36.3438 22.7517 L37.7188 22.7517 L35.3281 25.0486 L37.9531 28.9704 L36.6562 28.9704 L34.5938 25.7829 L33.8594 26.5017 L33.8594 28.9704 L32.7969 28.9704 ZM42.7656 28.9704 L41.7812 28.9704 L41.7812 20.3767 L42.8438 20.3767 L42.8438 23.4392 Q43.5156 22.6111 44.5469 22.6111 Q45.125 22.6111 45.6328 22.8376 Q46.1406 23.0642 46.4766 23.4861 Q46.8125 23.9079 47 24.5017 Q47.1875 25.0954 47.1875 25.7673 Q47.1875 27.3611 46.3906 28.2361 Q45.5938 29.1111 44.5 29.1111 Q43.3906 29.1111 42.7656 28.1892 L42.7656 28.9704 ZM42.75 25.8142 Q42.75 26.9236 43.0625 27.4236 Q43.5625 28.2361 44.4062 28.2361 Q45.0938 28.2361 45.6016 27.6423 Q46.1094 27.0486 46.1094 25.8454 Q46.1094 24.6267 45.625 24.0486 Q45.1406 23.4704 44.4531 23.4704 Q43.7656 23.4704 43.2578 24.072 Q42.75 24.6736 42.75 25.8142 ZM53.0469 26.9704 L54.1406 27.0954 Q53.8906 28.0486 53.1875 28.5798 Q52.4844 29.1111 51.4062 29.1111 Q50.0469 29.1111 49.2422 28.2673 Q48.4375 27.4236 48.4375 25.9079 Q48.4375 24.3454 49.25 23.4782 Q50.0625 22.6111 51.3438 22.6111 Q52.5938 22.6111 53.3828 23.4548 Q54.1719 24.2986 54.1719 25.8454 Q54.1719 25.9392 54.1719 26.1267 L49.5312 26.1267 Q49.5938 27.1579 50.1094 27.697 Q50.625 28.2361 51.4062 28.2361 Q51.9844 28.2361 52.3984 27.9314 Q52.8125 27.6267 53.0469 26.9704 ZM49.5938 25.2673 L53.0625 25.2673 Q53 24.4704 52.6719 24.0798 Q52.1562 23.4704 51.3594 23.4704 Q50.625 23.4704 50.1328 23.9548 Q49.6406 24.4392 49.5938 25.2673 ZM55.7969 28.9704 L55.7969 22.7517 L56.7344 22.7517 L56.7344 23.6267 Q57.0312 23.1579 57.5156 22.8845 Q58 22.6111 58.625 22.6111 Q59.3125 22.6111 59.7578 22.8923 Q60.2031 23.1736 60.375 23.6892 Q61.125 22.6111 62.2969 22.6111 Q63.2344 22.6111 63.7266 23.1189 Q64.2188 23.6267 64.2188 24.7048 L64.2188 28.9704 L63.1719 28.9704 L63.1719 25.0486 Q63.1719 24.4236 63.0703 24.1423 Q62.9688 23.8611 62.7031 23.6892 Q62.4375 23.5173 62.0625 23.5173 Q61.4062 23.5173 60.9766 23.9548 Q60.5469 24.3923 60.5469 25.3611 L60.5469 28.9704 L59.4844 28.9704 L59.4844 24.9236 Q59.4844 24.2204 59.2266 23.8689 Q58.9688 23.5173 58.3906 23.5173 Q57.9375 23.5173 57.5625 23.7517 Q57.1875 23.9861 57.0156 24.4392 Q56.8438 24.8923 56.8438 25.7361 L56.8438 28.9704 L55.7969 28.9704 ZM71.0469 26.9704 L72.1406 27.0954 Q71.8906 28.0486 71.1875 28.5798 Q70.4844 29.1111 69.4062 29.1111 Q68.0469 29.1111 67.2422 28.2673 Q66.4375 27.4236 66.4375 25.9079 Q66.4375 24.3454 67.25 23.4782 Q68.0625 22.6111 69.3438 22.6111 Q70.5938 22.6111 71.3828 23.4548 Q72.1719 24.2986 72.1719 25.8454 Q72.1719 25.9392 72.1719 26.1267 L67.5312 26.1267 Q67.5938 27.1579 68.1094 27.697 Q68.625 28.2361 69.4062 28.2361 Q69.9844 28.2361 70.3984 27.9314 Q70.8125 27.6267 71.0469 26.9704 ZM67.5938 25.2673 L71.0625 25.2673 Q71 24.4704 70.6719 24.0798 Q70.1562 23.4704 69.3594 23.4704 Q68.625 23.4704 68.1328 23.9548 Q67.6406 24.4392 67.5938 25.2673 ZM73.7969 28.9704 L73.7969 22.7517 L74.7344 22.7517 L74.7344 23.6267 Q75.4219 22.6111 76.7188 22.6111 Q77.2812 22.6111 77.7578 22.8142 Q78.2344 23.0173 78.4688 23.3454 Q78.7031 23.6736 78.7969 24.1111 Q78.8438 24.4079 78.8438 25.1423 L78.8438 28.9704 L77.7969 28.9704 L77.7969 25.1892 Q77.7969 24.5329 77.6719 24.2204 Q77.5469 23.9079 77.2344 23.7126 Q76.9219 23.5173 76.5 23.5173 Q75.8281 23.5173 75.3359 23.947 Q74.8438 24.3767 74.8438 25.5642 L74.8438 28.9704 L73.7969 28.9704 ZM85.0469 26.9704 L86.1406 27.0954 Q85.8906 28.0486 85.1875 28.5798 Q84.4844 29.1111 83.4062 29.1111 Q82.0469 29.1111 81.2422 28.2673 Q80.4375 27.4236 80.4375 25.9079 Q80.4375 24.3454 81.25 23.4782 Q82.0625 22.6111 83.3438 22.6111 Q84.5938 22.6111 85.3828 23.4548 Q86.1719 24.2986 86.1719 25.8454 Q86.1719 25.9392 86.1719 26.1267 L81.5312 26.1267 Q81.5938 27.1579 82.1094 27.697 Q82.625 28.2361 83.4062 28.2361 Q83.9844 28.2361 84.3984 27.9314 Q84.8125 27.6267 85.0469 26.9704 ZM81.5938 25.2673 L85.0625 25.2673 Q85 24.4704 84.6719 24.0798 Q84.1562 23.4704 83.3594 23.4704 Q82.625 23.4704 82.1328 23.9548 Q81.6406 24.4392 81.5938 25.2673 ZM90.0938 28.0329 L90.25 28.9548 Q89.7969 29.0486 89.4531 29.0486 Q88.875 29.0486 88.5625 28.8689 Q88.25 28.6892 88.1172 28.3923 Q87.9844 28.0954 87.9844 27.1423 L87.9844 23.5642 L87.2188 23.5642 L87.2188 22.7517 L87.9844 22.7517 L87.9844 21.2048 L89.0312 20.5798 L89.0312 22.7517 L90.0938 22.7517 L90.0938 23.5642 L89.0312 23.5642 L89.0312 27.2048 Q89.0312 27.6579 89.0859 27.7829 Q89.1406 27.9079 89.2656 27.9861 Q89.3906 28.0642 89.625 28.0642 Q89.8125 28.0642 90.0938 28.0329 ZM90.7812 28.9704 L90.7812 22.7517 L91.7344 22.7517 L91.7344 23.6892 Q92.0938 23.0329 92.3984 22.822 Q92.7031 22.6111 93.0781 22.6111 Q93.6094 22.6111 94.1562 22.9392 L93.7969 23.9236 Q93.4062 23.6892 93.0312 23.6892 Q92.6719 23.6892 92.3984 23.9001 Q92.125 24.1111 92.0156 24.4861 Q91.8281 25.0486 91.8281 25.7048 L91.8281 28.9704 L90.7812 28.9704 ZM99.0469 26.9704 L100.1406 27.0954 Q99.8906 28.0486 99.1875 28.5798 Q98.4844 29.1111 97.4062 29.1111 Q96.0469 29.1111 95.2422 28.2673 Q94.4375 27.4236 94.4375 25.9079 Q94.4375 24.3454 95.25 23.4782 Q96.0625 22.6111 97.3438 22.6111 Q98.5938 22.6111 99.3828 23.4548 Q100.1719 24.2986 100.1719 25.8454 Q100.1719 25.9392 100.1719 26.1267 L95.5312 26.1267 Q95.5938 27.1579 96.1094 27.697 Q96.625 28.2361 97.4062 28.2361 Q97.9844 28.2361 98.3984 27.9314 Q98.8125 27.6267 99.0469 26.9704 ZM95.5938 25.2673 L99.0625 25.2673 Q99 24.4704 98.6719 24.0798 Q98.1562 23.4704 97.3594 23.4704 Q96.625 23.4704 96.1328 23.9548 Q95.6406 24.4392 95.5938 25.2673 ZM104.7969 28.9704 L104.7969 22.7517 L105.7344 22.7517 L105.7344 23.6267 Q106.0312 23.1579 106.5156 22.8845 Q107 22.6111 107.625 22.6111 Q108.3125 22.6111 108.7578 22.8923 Q109.2031 23.1736 109.375 23.6892 Q110.125 22.6111 111.2969 22.6111 Q112.2344 22.6111 112.7266 23.1189 Q113.2188 23.6267 113.2188 24.7048 L113.2188 28.9704 L112.1719 28.9704 L112.1719 25.0486 Q112.1719 24.4236 112.0703 24.1423 Q111.9688 23.8611 111.7031 23.6892 Q111.4375 23.5173 111.0625 23.5173 Q110.4062 23.5173 109.9766 23.9548 Q109.5469 24.3923 109.5469 25.3611 L109.5469 28.9704 L108.4844 28.9704 L108.4844 24.9236 Q108.4844 24.2204 108.2266 23.8689 Q107.9688 23.5173 107.3906 23.5173 Q106.9375 23.5173 106.5625 23.7517 Q106.1875 23.9861 106.0156 24.4392 Q105.8438 24.8923 105.8438 25.7361 L105.8438 28.9704 L104.7969 28.9704 ZM120.0469 26.9704 L121.1406 27.0954 Q120.8906 28.0486 120.1875 28.5798 Q119.4844 29.1111 118.4062 29.1111 Q117.0469 29.1111 116.2422 28.2673 Q115.4375 27.4236 115.4375 25.9079 Q115.4375 24.3454 116.25 23.4782 Q117.0625 22.6111 118.3438 22.6111 Q119.5938 22.6111 120.3828 23.4548 Q121.1719 24.2986 121.1719 25.8454 Q121.1719 25.9392 121.1719 26.1267 L116.5312 26.1267 Q116.5938 27.1579 117.1094 27.697 Q117.625 28.2361 118.4062 28.2361 Q118.9844 28.2361 119.3984 27.9314 Q119.8125 27.6267 120.0469 26.9704 ZM116.5938 25.2673 L120.0625 25.2673 Q120 24.4704 119.6719 24.0798 Q119.1562 23.4704 118.3594 23.4704 Q117.625 23.4704 117.1328 23.9548 Q116.6406 24.4392 116.5938 25.2673 ZM122.7656 28.9704 L122.7656 20.3767 L123.8281 20.3767 L123.8281 28.9704 L122.7656 28.9704 ZM125.75 31.3611 L125.625 30.3767 Q125.9688 30.4704 126.2344 30.4704 Q126.5781 30.4704 126.7891 30.3532 Q127 30.2361 127.1406 30.0329 Q127.2344 29.8611 127.4688 29.2361 Q127.4844 29.1579 127.5625 28.9861 L125.1875 22.7517 L126.3281 22.7517 L127.625 26.3454 Q127.875 27.0329 128.0781 27.7986 Q128.2656 27.0642 128.5156 26.3767 L129.8438 22.7517 L130.8906 22.7517 L128.5312 29.0798 Q128.1406 30.0954 127.9375 30.4861 Q127.6562 31.0173 127.2891 31.2595 Q126.9219 31.5017 126.4219 31.5017 Q126.125 31.5017 125.75 31.3611 ZM130.7969 21.5954 L130.7969 20.3767 L131.8594 20.3767 L131.8594 21.5954 L130.7969 21.5954 ZM130.7969 28.9704 L130.7969 22.7517 L131.8594 22.7517 L131.8594 28.9704 L130.7969 28.9704 ZM133.7969 28.9704 L133.7969 20.3767 L134.8594 20.3767 L134.8594 25.2829 L137.3438 22.7517 L138.7188 22.7517 L136.3281 25.0486 L138.9531 28.9704 L137.6562 28.9704 L135.5938 25.7829 L134.8594 26.5017 L134.8594 28.9704 L133.7969 28.9704 Z" style="clip-path:url(#clipPath17); stroke:none;" />
      <path d="M3.7969 42.9704 L3.7969 34.3767 L4.8594 34.3767 L4.8594 39.2829 L7.3438 36.7517 L8.7188 36.7517 L6.3281 39.0486 L8.9531 42.9704 L7.6562 42.9704 L5.5938 39.7829 L4.8594 40.5017 L4.8594 42.9704 L3.7969 42.9704 ZM9.4062 39.8611 Q9.4062 38.1267 10.3594 37.2986 Q11.1562 36.6111 12.3125 36.6111 Q13.5938 36.6111 14.4141 37.447 Q15.2344 38.2829 15.2344 39.7673 Q15.2344 40.9704 14.875 41.6579 Q14.5156 42.3454 13.8203 42.7282 Q13.125 43.1111 12.3125 43.1111 Q11.0156 43.1111 10.2109 42.2751 Q9.4062 41.4392 9.4062 39.8611 ZM10.4844 39.8611 Q10.4844 41.0486 11.0078 41.6423 Q11.5312 42.2361 12.3125 42.2361 Q13.1094 42.2361 13.625 41.6423 Q14.1406 41.0486 14.1406 39.8298 Q14.1406 38.6736 13.6172 38.0798 Q13.0938 37.4861 12.3125 37.4861 Q11.5312 37.4861 11.0078 38.072 Q10.4844 38.6579 10.4844 39.8611 ZM16.7969 42.9704 L16.7969 36.7517 L17.7344 36.7517 L17.7344 37.6267 Q18.0312 37.1579 18.5156 36.8845 Q19 36.6111 19.625 36.6111 Q20.3125 36.6111 20.7578 36.8923 Q21.2031 37.1736 21.375 37.6892 Q22.125 36.6111 23.2969 36.6111 Q24.2344 36.6111 24.7266 37.1189 Q25.2188 37.6267 25.2188 38.7048 L25.2188 42.9704 L24.1719 42.9704 L24.1719 39.0486 Q24.1719 38.4236 24.0703 38.1423 Q23.9688 37.8611 23.7031 37.6892 Q23.4375 37.5173 23.0625 37.5173 Q22.4062 37.5173 21.9766 37.9548 Q21.5469 38.3923 21.5469 39.3611 L21.5469 42.9704 L20.4844 42.9704 L20.4844 38.9236 Q20.4844 38.2204 20.2266 37.8689 Q19.9688 37.5173 19.3906 37.5173 Q18.9375 37.5173 18.5625 37.7517 Q18.1875 37.9861 18.0156 38.4392 Q17.8438 38.8923 17.8438 39.7361 L17.8438 42.9704 L16.7969 42.9704 ZM27.7969 45.3611 L27.7969 36.7517 L28.75 36.7517 L28.75 37.5486 Q29.0938 37.0798 29.5234 36.8454 Q29.9531 36.6111 30.5625 36.6111 Q31.3594 36.6111 31.9688 37.0173 Q32.5781 37.4236 32.8828 38.1736 Q33.1875 38.9236 33.1875 39.8142 Q33.1875 40.7673 32.8516 41.5329 Q32.5156 42.2986 31.8594 42.7048 Q31.2031 43.1111 30.4844 43.1111 Q29.9531 43.1111 29.5312 42.8845 Q29.1094 42.6579 28.8438 42.3298 L28.8438 45.3611 L27.7969 45.3611 ZM28.75 39.8923 Q28.75 41.0954 29.2344 41.6657 Q29.7188 42.2361 30.4062 42.2361 Q31.1094 42.2361 31.6094 41.6423 Q32.1094 41.0486 32.1094 39.7986 Q32.1094 38.6111 31.625 38.0251 Q31.1406 37.4392 30.4531 37.4392 Q29.7812 37.4392 29.2656 38.0642 Q28.75 38.6892 28.75 39.8923 ZM34.4062 39.8611 Q34.4062 38.1267 35.3594 37.2986 Q36.1562 36.6111 37.3125 36.6111 Q38.5938 36.6111 39.4141 37.447 Q40.2344 38.2829 40.2344 39.7673 Q40.2344 40.9704 39.875 41.6579 Q39.5156 42.3454 38.8203 42.7282 Q38.125 43.1111 37.3125 43.1111 Q36.0156 43.1111 35.2109 42.2751 Q34.4062 41.4392 34.4062 39.8611 ZM35.4844 39.8611 Q35.4844 41.0486 36.0078 41.6423 Q36.5312 42.2361 37.3125 42.2361 Q38.1094 42.2361 38.625 41.6423 Q39.1406 41.0486 39.1406 39.8298 Q39.1406 38.6736 38.6172 38.0798 Q38.0938 37.4861 37.3125 37.4861 Q36.5312 37.4861 36.0078 38.072 Q35.4844 38.6579 35.4844 39.8611 ZM41.7969 42.9704 L41.7969 36.7517 L42.7344 36.7517 L42.7344 37.6267 Q43.4219 36.6111 44.7188 36.6111 Q45.2812 36.6111 45.7578 36.8142 Q46.2344 37.0173 46.4688 37.3454 Q46.7031 37.6736 46.7969 38.1111 Q46.8438 38.4079 46.8438 39.1423 L46.8438 42.9704 L45.7969 42.9704 L45.7969 39.1892 Q45.7969 38.5329 45.6719 38.2204 Q45.5469 37.9079 45.2344 37.7126 Q44.9219 37.5173 44.5 37.5173 Q43.8281 37.5173 43.3359 37.947 Q42.8438 38.3767 42.8438 39.5642 L42.8438 42.9704 L41.7969 42.9704 ZM53.0469 40.9704 L54.1406 41.0954 Q53.8906 42.0486 53.1875 42.5798 Q52.4844 43.1111 51.4062 43.1111 Q50.0469 43.1111 49.2422 42.2673 Q48.4375 41.4236 48.4375 39.9079 Q48.4375 38.3454 49.25 37.4782 Q50.0625 36.6111 51.3438 36.6111 Q52.5938 36.6111 53.3828 37.4548 Q54.1719 38.2986 54.1719 39.8454 Q54.1719 39.9392 54.1719 40.1267 L49.5312 40.1267 Q49.5938 41.1579 50.1094 41.697 Q50.625 42.2361 51.4062 42.2361 Q51.9844 42.2361 52.3984 41.9314 Q52.8125 41.6267 53.0469 40.9704 ZM49.5938 39.2673 L53.0625 39.2673 Q53 38.4704 52.6719 38.0798 Q52.1562 37.4704 51.3594 37.4704 Q50.625 37.4704 50.1328 37.9548 Q49.6406 38.4392 49.5938 39.2673 ZM55.7969 42.9704 L55.7969 36.7517 L56.7344 36.7517 L56.7344 37.6267 Q57.4219 36.6111 58.7188 36.6111 Q59.2812 36.6111 59.7578 36.8142 Q60.2344 37.0173 60.4688 37.3454 Q60.7031 37.6736 60.7969 38.1111 Q60.8438 38.4079 60.8438 39.1423 L60.8438 42.9704 L59.7969 42.9704 L59.7969 39.1892 Q59.7969 38.5329 59.6719 38.2204 Q59.5469 37.9079 59.2344 37.7126 Q58.9219 37.5173 58.5 37.5173 Q57.8281 37.5173 57.3359 37.947 Q56.8438 38.3767 56.8438 39.5642 L56.8438 42.9704 L55.7969 42.9704 ZM62.375 41.1111 L63.4062 40.9548 Q63.5 41.5798 63.8984 41.9079 Q64.2969 42.2361 65.0312 42.2361 Q65.75 42.2361 66.1016 41.947 Q66.4531 41.6579 66.4531 41.2517 Q66.4531 40.8923 66.1406 40.6892 Q65.9219 40.5486 65.0625 40.3298 Q63.9062 40.0329 63.4609 39.822 Q63.0156 39.6111 62.7812 39.2361 Q62.5469 38.8611 62.5469 38.3923 Q62.5469 37.9861 62.7344 37.6267 Q62.9219 37.2673 63.25 37.0329 Q63.5 36.8611 63.9219 36.7361 Q64.3438 36.6111 64.8438 36.6111 Q65.5625 36.6111 66.1172 36.822 Q66.6719 37.0329 66.9375 37.3923 Q67.2031 37.7517 67.2969 38.3454 L66.2656 38.4861 Q66.2031 38.0173 65.8672 37.7439 Q65.5312 37.4704 64.9062 37.4704 Q64.1875 37.4704 63.875 37.7126 Q63.5625 37.9548 63.5625 38.2829 Q63.5625 38.4861 63.6875 38.6423 Q63.8281 38.8142 64.0938 38.9236 Q64.25 38.9861 65.0312 39.1892 Q66.1562 39.5017 66.5938 39.6892 Q67.0312 39.8767 67.2812 40.2361 Q67.5312 40.5954 67.5312 41.1423 Q67.5312 41.6736 67.2266 42.1345 Q66.9219 42.5954 66.3438 42.8532 Q65.7656 43.1111 65.0312 43.1111 Q63.8125 43.1111 63.1797 42.6032 Q62.5469 42.0954 62.375 41.1111 ZM72.7969 42.9704 L72.7969 36.7517 L73.7344 36.7517 L73.7344 37.6267 Q74.0312 37.1579 74.5156 36.8845 Q75 36.6111 75.625 36.6111 Q76.3125 36.6111 76.7578 36.8923 Q77.2031 37.1736 77.375 37.6892 Q78.125 36.6111 79.2969 36.6111 Q80.2344 36.6111 80.7266 37.1189 Q81.2188 37.6267 81.2188 38.7048 L81.2188 42.9704 L80.1719 42.9704 L80.1719 39.0486 Q80.1719 38.4236 80.0703 38.1423 Q79.9688 37.8611 79.7031 37.6892 Q79.4375 37.5173 79.0625 37.5173 Q78.4062 37.5173 77.9766 37.9548 Q77.5469 38.3923 77.5469 39.3611 L77.5469 42.9704 L76.4844 42.9704 L76.4844 38.9236 Q76.4844 38.2204 76.2266 37.8689 Q75.9688 37.5173 75.3906 37.5173 Q74.9375 37.5173 74.5625 37.7517 Q74.1875 37.9861 74.0156 38.4392 Q73.8438 38.8923 73.8438 39.7361 L73.8438 42.9704 L72.7969 42.9704 ZM88.0469 40.9704 L89.1406 41.0954 Q88.8906 42.0486 88.1875 42.5798 Q87.4844 43.1111 86.4062 43.1111 Q85.0469 43.1111 84.2422 42.2673 Q83.4375 41.4236 83.4375 39.9079 Q83.4375 38.3454 84.25 37.4782 Q85.0625 36.6111 86.3438 36.6111 Q87.5938 36.6111 88.3828 37.4548 Q89.1719 38.2986 89.1719 39.8454 Q89.1719 39.9392 89.1719 40.1267 L84.5312 40.1267 Q84.5938 41.1579 85.1094 41.697 Q85.625 42.2361 86.4062 42.2361 Q86.9844 42.2361 87.3984 41.9314 Q87.8125 41.6267 88.0469 40.9704 ZM84.5938 39.2673 L88.0625 39.2673 Q88 38.4704 87.6719 38.0798 Q87.1562 37.4704 86.3594 37.4704 Q85.625 37.4704 85.1328 37.9548 Q84.6406 38.4392 84.5938 39.2673 ZM90.7656 42.9704 L90.7656 34.3767 L91.8281 34.3767 L91.8281 42.9704 L90.7656 42.9704 ZM93.75 45.3611 L93.625 44.3767 Q93.9688 44.4704 94.2344 44.4704 Q94.5781 44.4704 94.7891 44.3532 Q95 44.2361 95.1406 44.0329 Q95.2344 43.8611 95.4688 43.2361 Q95.4844 43.1579 95.5625 42.9861 L93.1875 36.7517 L94.3281 36.7517 L95.625 40.3454 Q95.875 41.0329 96.0781 41.7986 Q96.2656 41.0642 96.5156 40.3767 L97.8438 36.7517 L98.8906 36.7517 L96.5312 43.0798 Q96.1406 44.0954 95.9375 44.4861 Q95.6562 45.0173 95.2891 45.2595 Q94.9219 45.5017 94.4219 45.5017 Q94.125 45.5017 93.75 45.3611 ZM98.7969 35.5954 L98.7969 34.3767 L99.8594 34.3767 L99.8594 35.5954 L98.7969 35.5954 ZM98.7969 42.9704 L98.7969 36.7517 L99.8594 36.7517 L99.8594 42.9704 L98.7969 42.9704 ZM101.7969 42.9704 L101.7969 34.3767 L102.8594 34.3767 L102.8594 39.2829 L105.3438 36.7517 L106.7188 36.7517 L104.3281 39.0486 L106.9531 42.9704 L105.6562 42.9704 L103.5938 39.7829 L102.8594 40.5017 L102.8594 42.9704 L101.7969 42.9704 ZM110.7969 42.9704 L110.7969 34.3767 L111.8594 34.3767 L111.8594 39.2829 L114.3438 36.7517 L115.7188 36.7517 L113.3281 39.0486 L115.9531 42.9704 L114.6562 42.9704 L112.5938 39.7829 L111.8594 40.5017 L111.8594 42.9704 L110.7969 42.9704 ZM116.7969 35.5954 L116.7969 34.3767 L117.8594 34.3767 L117.8594 35.5954 L116.7969 35.5954 ZM116.7969 42.9704 L116.7969 36.7517 L117.8594 36.7517 L117.8594 42.9704 L116.7969 42.9704 ZM119.7969 42.9704 L119.7969 36.7517 L120.7344 36.7517 L120.7344 37.6267 Q121.0312 37.1579 121.5156 36.8845 Q122 36.6111 122.625 36.6111 Q123.3125 36.6111 123.7578 36.8923 Q124.2031 37.1736 124.375 37.6892 Q125.125 36.6111 126.2969 36.6111 Q127.2344 36.6111 127.7266 37.1189 Q128.2188 37.6267 128.2188 38.7048 L128.2188 42.9704 L127.1719 42.9704 L127.1719 39.0486 Q127.1719 38.4236 127.0703 38.1423 Q126.9688 37.8611 126.7031 37.6892 Q126.4375 37.5173 126.0625 37.5173 Q125.4062 37.5173 124.9766 37.9548 Q124.5469 38.3923 124.5469 39.3611 L124.5469 42.9704 L123.4844 42.9704 L123.4844 38.9236 Q123.4844 38.2204 123.2266 37.8689 Q122.9688 37.5173 122.3906 37.5173 Q121.9375 37.5173 121.5625 37.7517 Q121.1875 37.9861 121.0156 38.4392 Q120.8438 38.8923 120.8438 39.7361 L120.8438 42.9704 L119.7969 42.9704 ZM135.0469 40.9704 L136.1406 41.0954 Q135.8906 42.0486 135.1875 42.5798 Q134.4844 43.1111 133.4062 43.1111 Q132.0469 43.1111 131.2422 42.2673 Q130.4375 41.4236 130.4375 39.9079 Q130.4375 38.3454 131.25 37.4782 Q132.0625 36.6111 133.3438 36.6111 Q134.5938 36.6111 135.3828 37.4548 Q136.1719 38.2986 136.1719 39.8454 Q136.1719 39.9392 136.1719 40.1267 L131.5312 40.1267 Q131.5938 41.1579 132.1094 41.697 Q132.625 42.2361 133.4062 42.2361 Q133.9844 42.2361 134.3984 41.9314 Q134.8125 41.6267 135.0469 40.9704 ZM131.5938 39.2673 L135.0625 39.2673 Q135 38.4704 134.6719 38.0798 Q134.1562 37.4704 133.3594 37.4704 Q132.625 37.4704 132.1328 37.9548 Q131.6406 38.4392 131.5938 39.2673 ZM137.7969 42.9704 L137.7969 36.7517 L138.7344 36.7517 L138.7344 37.6267 Q139.4219 36.6111 140.7188 36.6111 Q141.2812 36.6111 141.7578 36.8142 Q142.2344 37.0173 142.4688 37.3454 Q142.7031 37.6736 142.7969 38.1111 Q142.8438 38.4079 142.8438 39.1423 L142.8438 42.9704 L141.7969 42.9704 L141.7969 39.1892 Q141.7969 38.5329 141.6719 38.2204 Q141.5469 37.9079 141.2344 37.7126 Q140.9219 37.5173 140.5 37.5173 Q139.8281 37.5173 139.3359 37.947 Q138.8438 38.3767 138.8438 39.5642 L138.8438 42.9704 L137.7969 42.9704 ZM149.0469 40.9704 L150.1406 41.0954 Q149.8906 42.0486 149.1875 42.5798 Q148.4844 43.1111 147.4062 43.1111 Q146.0469 43.1111 145.2422 42.2673 Q144.4375 41.4236 144.4375 39.9079 Q144.4375 38.3454 145.25 37.4782 Q146.0625 36.6111 147.3438 36.6111 Q148.5938 36.6111 149.3828 37.4548 Q150.1719 38.2986 150.1719 39.8454 Q150.1719 39.9392 150.1719 40.1267 L145.5312 40.1267 Q145.5938 41.1579 146.1094 41.697 Q146.625 42.2361 147.4062 42.2361 Q147.9844 42.2361 148.3984 41.9314 Q148.8125 41.6267 149.0469 40.9704 ZM145.5938 39.2673 L149.0625 39.2673 Q149 38.4704 148.6719 38.0798 Q148.1562 37.4704 147.3594 37.4704 Q146.625 37.4704 146.1328 37.9548 Q145.6406 38.4392 145.5938 39.2673 ZM154.0938 42.0329 L154.25 42.9548 Q153.7969 43.0486 153.4531 43.0486 Q152.875 43.0486 152.5625 42.8689 Q152.25 42.6892 152.1172 42.3923 Q151.9844 42.0954 151.9844 41.1423 L151.9844 37.5642 L151.2188 37.5642 L151.2188 36.7517 L151.9844 36.7517 L151.9844 35.2048 L153.0312 34.5798 L153.0312 36.7517 L154.0938 36.7517 L154.0938 37.5642 L153.0312 37.5642 L153.0312 41.2048 Q153.0312 41.6579 153.0859 41.7829 Q153.1406 41.9079 153.2656 41.9861 Q153.3906 42.0642 153.625 42.0642 Q153.8125 42.0642 154.0938 42.0329 ZM159.0469 40.9704 L160.1406 41.0954 Q159.8906 42.0486 159.1875 42.5798 Q158.4844 43.1111 157.4062 43.1111 Q156.0469 43.1111 155.2422 42.2673 Q154.4375 41.4236 154.4375 39.9079 Q154.4375 38.3454 155.25 37.4782 Q156.0625 36.6111 157.3438 36.6111 Q158.5938 36.6111 159.3828 37.4548 Q160.1719 38.2986 160.1719 39.8454 Q160.1719 39.9392 160.1719 40.1267 L155.5312 40.1267 Q155.5938 41.1579 156.1094 41.697 Q156.625 42.2361 157.4062 42.2361 Q157.9844 42.2361 158.3984 41.9314 Q158.8125 41.6267 159.0469 40.9704 ZM155.5938 39.2673 L159.0625 39.2673 Q159 38.4704 158.6719 38.0798 Q158.1562 37.4704 157.3594 37.4704 Q156.625 37.4704 156.1328 37.9548 Q155.6406 38.4392 155.5938 39.2673 ZM156.125 34.9704 L156.9062 33.3298 L158.2969 33.3298 L157 34.9704 L156.125 34.9704 ZM164.0938 42.0329 L164.25 42.9548 Q163.7969 43.0486 163.4531 43.0486 Q162.875 43.0486 162.5625 42.8689 Q162.25 42.6892 162.1172 42.3923 Q161.9844 42.0954 161.9844 41.1423 L161.9844 37.5642 L161.2188 37.5642 L161.2188 36.7517 L161.9844 36.7517 L161.9844 35.2048 L163.0312 34.5798 L163.0312 36.7517 L164.0938 36.7517 L164.0938 37.5642 L163.0312 37.5642 L163.0312 41.2048 Q163.0312 41.6579 163.0859 41.7829 Q163.1406 41.9079 163.2656 41.9861 Q163.3906 42.0642 163.625 42.0642 Q163.8125 42.0642 164.0938 42.0329 ZM167.7969 42.9704 L167.7969 34.3767 L168.8594 34.3767 L168.8594 39.2829 L171.3438 36.7517 L172.7188 36.7517 L170.3281 39.0486 L172.9531 42.9704 L171.6562 42.9704 L169.5938 39.7829 L168.8594 40.5017 L168.8594 42.9704 L167.7969 42.9704 ZM173.4062 39.8611 Q173.4062 38.1267 174.3594 37.2986 Q175.1562 36.6111 176.3125 36.6111 Q177.5938 36.6111 178.4141 37.447 Q179.2344 38.2829 179.2344 39.7673 Q179.2344 40.9704 178.875 41.6579 Q178.5156 42.3454 177.8203 42.7282 Q177.125 43.1111 176.3125 43.1111 Q175.0156 43.1111 174.2109 42.2751 Q173.4062 41.4392 173.4062 39.8611 ZM174.4844 39.8611 Q174.4844 41.0486 175.0078 41.6423 Q175.5312 42.2361 176.3125 42.2361 Q177.1094 42.2361 177.625 41.6423 Q178.1406 41.0486 178.1406 39.8298 Q178.1406 38.6736 177.6172 38.0798 Q177.0938 37.4861 176.3125 37.4861 Q175.5312 37.4861 175.0078 38.072 Q174.4844 38.6579 174.4844 39.8611 ZM174.8125 34.9704 L174.8125 33.7673 L175.9062 33.7673 L175.9062 34.9704 L174.8125 34.9704 ZM177 34.9704 L177 33.7673 L178.0938 33.7673 L178.0938 34.9704 L177 34.9704 ZM183.0938 42.0329 L183.25 42.9548 Q182.7969 43.0486 182.4531 43.0486 Q181.875 43.0486 181.5625 42.8689 Q181.25 42.6892 181.1172 42.3923 Q180.9844 42.0954 180.9844 41.1423 L180.9844 37.5642 L180.2188 37.5642 L180.2188 36.7517 L180.9844 36.7517 L180.9844 35.2048 L182.0312 34.5798 L182.0312 36.7517 L183.0938 36.7517 L183.0938 37.5642 L182.0312 37.5642 L182.0312 41.2048 Q182.0312 41.6579 182.0859 41.7829 Q182.1406 41.9079 182.2656 41.9861 Q182.3906 42.0642 182.625 42.0642 Q182.8125 42.0642 183.0938 42.0329 ZM183.7812 35.6111 L183.7812 34.3767 L184.8438 34.3767 L184.8438 35.6111 L183.7812 35.6111 ZM182.4531 45.3923 L182.6406 44.4861 Q182.9688 44.5642 183.1406 44.5642 Q183.4688 44.5642 183.625 44.3532 Q183.7812 44.1423 183.7812 43.2829 L183.7812 36.7517 L184.8438 36.7517 L184.8438 43.3142 Q184.8438 44.4548 184.5469 44.9079 Q184.1562 45.5017 183.2812 45.5017 Q182.8438 45.5017 182.4531 45.3923 ZM190.875 42.9704 L190.875 42.0486 Q190.1406 43.1111 188.8906 43.1111 Q188.3438 43.1111 187.8672 42.9001 Q187.3906 42.6892 187.1562 42.3689 Q186.9219 42.0486 186.8281 41.5798 Q186.7656 41.2829 186.7656 40.5954 L186.7656 36.7517 L187.8281 36.7517 L187.8281 40.2048 Q187.8281 41.0173 187.8906 41.3142 Q187.9844 41.7204 188.3047 41.9626 Q188.625 42.2048 189.1094 42.2048 Q189.5781 42.2048 189.9922 41.9626 Q190.4062 41.7204 190.5859 41.2986 Q190.7656 40.8767 190.7656 40.0798 L190.7656 36.7517 L191.8125 36.7517 L191.8125 42.9704 L190.875 42.9704 ZM187.3594 34.9704 L187.3594 33.7673 L188.4531 33.7673 L188.4531 34.9704 L187.3594 34.9704 ZM189.5469 34.9704 L189.5469 33.7673 L190.6406 33.7673 L190.6406 34.9704 L189.5469 34.9704 ZM193.7969 42.9704 L193.7969 34.3767 L194.8594 34.3767 L194.8594 39.2829 L197.3438 36.7517 L198.7188 36.7517 L196.3281 39.0486 L198.9531 42.9704 L197.6562 42.9704 L195.5938 39.7829 L194.8594 40.5017 L194.8594 42.9704 L193.7969 42.9704 Z" style="clip-path:url(#clipPath17); stroke:none;" />
    </g>
    <g transform="translate(382,224)" style="font-size:11; fill:white; text-rendering:geometricPrecision; font-family:sans-serif; stroke:white;">
      <polygon style="clip-path:url(#clipPath18); stroke:none;" points=" 0 0 174 0 189 15 174 15 174 0 189 15 189 59 0 59" />
    </g>
    <g transform="translate(382,224)" style="font-size:11; stroke-linecap:butt; text-rendering:geometricPrecision; font-family:sans-serif; stroke-linejoin:round; stroke-miterlimit:0;">
      <polygon style="fill:none; clip-path:url(#clipPath18);" points=" 0 0 174 0 189 15 174 15 174 0 189 15 189 59 0 59" />
    </g>
    <g style="text-rendering:geometricPrecision; font-size:11; font-family:&apos;Tahoma&apos;;" transform="translate(382,224)">
      <path d="M2.9844 14.9704 L6.2812 6.3767 L7.5 6.3767 L11.0156 14.9704 L9.7344 14.9704 L8.7188 12.3611 L5.1406 12.3611 L4.1875 14.9704 L2.9844 14.9704 ZM5.4688 11.4392 L8.375 11.4392 L7.4844 9.0642 Q7.0625 7.9861 6.875 7.2829 Q6.7031 8.1111 6.4062 8.9236 L5.4688 11.4392 ZM13.7969 14.9704 L13.7969 6.3767 L14.8594 6.3767 L14.8594 11.2829 L17.3438 8.7517 L18.7188 8.7517 L16.3281 11.0486 L18.9531 14.9704 L17.6562 14.9704 L15.5938 11.7829 L14.8594 12.5017 L14.8594 14.9704 L13.7969 14.9704 ZM19.4062 11.8611 Q19.4062 10.1267 20.3594 9.2986 Q21.1562 8.6111 22.3125 8.6111 Q23.5938 8.6111 24.4141 9.447 Q25.2344 10.2829 25.2344 11.7673 Q25.2344 12.9704 24.875 13.6579 Q24.5156 14.3454 23.8203 14.7282 Q23.125 15.1111 22.3125 15.1111 Q21.0156 15.1111 20.2109 14.2751 Q19.4062 13.4392 19.4062 11.8611 ZM20.4844 11.8611 Q20.4844 13.0486 21.0078 13.6423 Q21.5312 14.2361 22.3125 14.2361 Q23.1094 14.2361 23.625 13.6423 Q24.1406 13.0486 24.1406 11.8298 Q24.1406 10.6736 23.6172 10.0798 Q23.0938 9.4861 22.3125 9.4861 Q21.5312 9.4861 21.0078 10.072 Q20.4844 10.6579 20.4844 11.8611 ZM26.7969 14.9704 L26.7969 8.7517 L27.7344 8.7517 L27.7344 9.6267 Q28.0312 9.1579 28.5156 8.8845 Q29 8.6111 29.625 8.6111 Q30.3125 8.6111 30.7578 8.8923 Q31.2031 9.1736 31.375 9.6892 Q32.125 8.6111 33.2969 8.6111 Q34.2344 8.6111 34.7266 9.1189 Q35.2188 9.6267 35.2188 10.7048 L35.2188 14.9704 L34.1719 14.9704 L34.1719 11.0486 Q34.1719 10.4236 34.0703 10.1423 Q33.9688 9.8611 33.7031 9.6892 Q33.4375 9.5173 33.0625 9.5173 Q32.4062 9.5173 31.9766 9.9548 Q31.5469 10.3923 31.5469 11.3611 L31.5469 14.9704 L30.4844 14.9704 L30.4844 10.9236 Q30.4844 10.2204 30.2266 9.8689 Q29.9688 9.5173 29.3906 9.5173 Q28.9375 9.5173 28.5625 9.7517 Q28.1875 9.9861 28.0156 10.4392 Q27.8438 10.8923 27.8438 11.7361 L27.8438 14.9704 L26.7969 14.9704 ZM37.7969 17.3611 L37.7969 8.7517 L38.75 8.7517 L38.75 9.5486 Q39.0938 9.0798 39.5234 8.8454 Q39.9531 8.6111 40.5625 8.6111 Q41.3594 8.6111 41.9688 9.0173 Q42.5781 9.4236 42.8828 10.1736 Q43.1875 10.9236 43.1875 11.8142 Q43.1875 12.7673 42.8516 13.5329 Q42.5156 14.2986 41.8594 14.7048 Q41.2031 15.1111 40.4844 15.1111 Q39.9531 15.1111 39.5312 14.8845 Q39.1094 14.6579 38.8438 14.3298 L38.8438 17.3611 L37.7969 17.3611 ZM38.75 11.8923 Q38.75 13.0954 39.2344 13.6657 Q39.7188 14.2361 40.4062 14.2361 Q41.1094 14.2361 41.6094 13.6423 Q42.1094 13.0486 42.1094 11.7986 Q42.1094 10.6111 41.625 10.0251 Q41.1406 9.4392 40.4531 9.4392 Q39.7812 9.4392 39.2656 10.0642 Q38.75 10.6892 38.75 11.8923 ZM44.4062 11.8611 Q44.4062 10.1267 45.3594 9.2986 Q46.1562 8.6111 47.3125 8.6111 Q48.5938 8.6111 49.4141 9.447 Q50.2344 10.2829 50.2344 11.7673 Q50.2344 12.9704 49.875 13.6579 Q49.5156 14.3454 48.8203 14.7282 Q48.125 15.1111 47.3125 15.1111 Q46.0156 15.1111 45.2109 14.2751 Q44.4062 13.4392 44.4062 11.8611 ZM45.4844 11.8611 Q45.4844 13.0486 46.0078 13.6423 Q46.5312 14.2361 47.3125 14.2361 Q48.1094 14.2361 48.625 13.6423 Q49.1406 13.0486 49.1406 11.8298 Q49.1406 10.6736 48.6172 10.0798 Q48.0938 9.4861 47.3125 9.4861 Q46.5312 9.4861 46.0078 10.072 Q45.4844 10.6579 45.4844 11.8611 ZM51.7969 14.9704 L51.7969 8.7517 L52.7344 8.7517 L52.7344 9.6267 Q53.4219 8.6111 54.7188 8.6111 Q55.2812 8.6111 55.7578 8.8142 Q56.2344 9.0173 56.4688 9.3454 Q56.7031 9.6736 56.7969 10.1111 Q56.8438 10.4079 56.8438 11.1423 L56.8438 14.9704 L55.7969 14.9704 L55.7969 11.1892 Q55.7969 10.5329 55.6719 10.2204 Q55.5469 9.9079 55.2344 9.7126 Q54.9219 9.5173 54.5 9.5173 Q53.8281 9.5173 53.3359 9.947 Q52.8438 10.3767 52.8438 11.5642 L52.8438 14.9704 L51.7969 14.9704 ZM63.0469 12.9704 L64.1406 13.0954 Q63.8906 14.0486 63.1875 14.5798 Q62.4844 15.1111 61.4062 15.1111 Q60.0469 15.1111 59.2422 14.2673 Q58.4375 13.4236 58.4375 11.9079 Q58.4375 10.3454 59.25 9.4782 Q60.0625 8.6111 61.3438 8.6111 Q62.5938 8.6111 63.3828 9.4548 Q64.1719 10.2986 64.1719 11.8454 Q64.1719 11.9392 64.1719 12.1267 L59.5312 12.1267 Q59.5938 13.1579 60.1094 13.697 Q60.625 14.2361 61.4062 14.2361 Q61.9844 14.2361 62.3984 13.9314 Q62.8125 13.6267 63.0469 12.9704 ZM59.5938 11.2673 L63.0625 11.2673 Q63 10.4704 62.6719 10.0798 Q62.1562 9.4704 61.3594 9.4704 Q60.625 9.4704 60.1328 9.9548 Q59.6406 10.4392 59.5938 11.2673 ZM65.7969 14.9704 L65.7969 8.7517 L66.7344 8.7517 L66.7344 9.6267 Q67.4219 8.6111 68.7188 8.6111 Q69.2812 8.6111 69.7578 8.8142 Q70.2344 9.0173 70.4688 9.3454 Q70.7031 9.6736 70.7969 10.1111 Q70.8438 10.4079 70.8438 11.1423 L70.8438 14.9704 L69.7969 14.9704 L69.7969 11.1892 Q69.7969 10.5329 69.6719 10.2204 Q69.5469 9.9079 69.2344 9.7126 Q68.9219 9.5173 68.5 9.5173 Q67.8281 9.5173 67.3359 9.947 Q66.8438 10.3767 66.8438 11.5642 L66.8438 14.9704 L65.7969 14.9704 ZM72.375 13.1111 L73.4062 12.9548 Q73.5 13.5798 73.8984 13.9079 Q74.2969 14.2361 75.0312 14.2361 Q75.75 14.2361 76.1016 13.947 Q76.4531 13.6579 76.4531 13.2517 Q76.4531 12.8923 76.1406 12.6892 Q75.9219 12.5486 75.0625 12.3298 Q73.9062 12.0329 73.4609 11.822 Q73.0156 11.6111 72.7812 11.2361 Q72.5469 10.8611 72.5469 10.3923 Q72.5469 9.9861 72.7344 9.6267 Q72.9219 9.2673 73.25 9.0329 Q73.5 8.8611 73.9219 8.7361 Q74.3438 8.6111 74.8438 8.6111 Q75.5625 8.6111 76.1172 8.822 Q76.6719 9.0329 76.9375 9.3923 Q77.2031 9.7517 77.2969 10.3454 L76.2656 10.4861 Q76.2031 10.0173 75.8672 9.7439 Q75.5312 9.4704 74.9062 9.4704 Q74.1875 9.4704 73.875 9.7126 Q73.5625 9.9548 73.5625 10.2829 Q73.5625 10.4861 73.6875 10.6423 Q73.8281 10.8142 74.0938 10.9236 Q74.25 10.9861 75.0312 11.1892 Q76.1562 11.5017 76.5938 11.6892 Q77.0312 11.8767 77.2812 12.2361 Q77.5312 12.5954 77.5312 13.1423 Q77.5312 13.6736 77.2266 14.1345 Q76.9219 14.5954 76.3438 14.8532 Q75.7656 15.1111 75.0312 15.1111 Q73.8125 15.1111 73.1797 14.6032 Q72.5469 14.0954 72.375 13.1111 ZM82.4062 11.8611 Q82.4062 10.1267 83.3594 9.2986 Q84.1562 8.6111 85.3125 8.6111 Q86.5938 8.6111 87.4141 9.447 Q88.2344 10.2829 88.2344 11.7673 Q88.2344 12.9704 87.875 13.6579 Q87.5156 14.3454 86.8203 14.7282 Q86.125 15.1111 85.3125 15.1111 Q84.0156 15.1111 83.2109 14.2751 Q82.4062 13.4392 82.4062 11.8611 ZM83.4844 11.8611 Q83.4844 13.0486 84.0078 13.6423 Q84.5312 14.2361 85.3125 14.2361 Q86.1094 14.2361 86.625 13.6423 Q87.1406 13.0486 87.1406 11.8298 Q87.1406 10.6736 86.6172 10.0798 Q86.0938 9.4861 85.3125 9.4861 Q84.5312 9.4861 84.0078 10.072 Q83.4844 10.6579 83.4844 11.8611 ZM83.8125 6.9704 L83.8125 5.7673 L84.9062 5.7673 L84.9062 6.9704 L83.8125 6.9704 ZM86 6.9704 L86 5.7673 L87.0938 5.7673 L87.0938 6.9704 L86 6.9704 ZM89.375 13.1111 L90.4062 12.9548 Q90.5 13.5798 90.8984 13.9079 Q91.2969 14.2361 92.0312 14.2361 Q92.75 14.2361 93.1016 13.947 Q93.4531 13.6579 93.4531 13.2517 Q93.4531 12.8923 93.1406 12.6892 Q92.9219 12.5486 92.0625 12.3298 Q90.9062 12.0329 90.4609 11.822 Q90.0156 11.6111 89.7812 11.2361 Q89.5469 10.8611 89.5469 10.3923 Q89.5469 9.9861 89.7344 9.6267 Q89.9219 9.2673 90.25 9.0329 Q90.5 8.8611 90.9219 8.7361 Q91.3438 8.6111 91.8438 8.6111 Q92.5625 8.6111 93.1172 8.822 Q93.6719 9.0329 93.9375 9.3923 Q94.2031 9.7517 94.2969 10.3454 L93.2656 10.4861 Q93.2031 10.0173 92.8672 9.7439 Q92.5312 9.4704 91.9062 9.4704 Q91.1875 9.4704 90.875 9.7126 Q90.5625 9.9548 90.5625 10.2829 Q90.5625 10.4861 90.6875 10.6423 Q90.8281 10.8142 91.0938 10.9236 Q91.25 10.9861 92.0312 11.1892 Q93.1562 11.5017 93.5938 11.6892 Q94.0312 11.8767 94.2812 12.2361 Q94.5312 12.5954 94.5312 13.1423 Q94.5312 13.6736 94.2266 14.1345 Q93.9219 14.5954 93.3438 14.8532 Q92.7656 15.1111 92.0312 15.1111 Q90.8125 15.1111 90.1797 14.6032 Q89.5469 14.0954 89.375 13.1111 ZM96.375 13.1111 L97.4062 12.9548 Q97.5 13.5798 97.8984 13.9079 Q98.2969 14.2361 99.0312 14.2361 Q99.75 14.2361 100.1016 13.947 Q100.4531 13.6579 100.4531 13.2517 Q100.4531 12.8923 100.1406 12.6892 Q99.9219 12.5486 99.0625 12.3298 Q97.9062 12.0329 97.4609 11.822 Q97.0156 11.6111 96.7812 11.2361 Q96.5469 10.8611 96.5469 10.3923 Q96.5469 9.9861 96.7344 9.6267 Q96.9219 9.2673 97.25 9.0329 Q97.5 8.8611 97.9219 8.7361 Q98.3438 8.6111 98.8438 8.6111 Q99.5625 8.6111 100.1172 8.822 Q100.6719 9.0329 100.9375 9.3923 Q101.2031 9.7517 101.2969 10.3454 L100.2656 10.4861 Q100.2031 10.0173 99.8672 9.7439 Q99.5312 9.4704 98.9062 9.4704 Q98.1875 9.4704 97.875 9.7126 Q97.5625 9.9548 97.5625 10.2829 Q97.5625 10.4861 97.6875 10.6423 Q97.8281 10.8142 98.0938 10.9236 Q98.25 10.9861 99.0312 11.1892 Q100.1562 11.5017 100.5938 11.6892 Q101.0312 11.8767 101.2812 12.2361 Q101.5312 12.5954 101.5312 13.1423 Q101.5312 13.6736 101.2266 14.1345 Q100.9219 14.5954 100.3438 14.8532 Q99.7656 15.1111 99.0312 15.1111 Q97.8125 15.1111 97.1797 14.6032 Q96.5469 14.0954 96.375 13.1111 ZM103.2344 14.9704 L103.2344 14.1111 L107.2031 9.5642 Q106.5156 9.5954 106 9.5954 L103.4688 9.5954 L103.4688 8.7517 L108.5625 8.7517 L108.5625 9.4392 L105.1875 13.3923 L104.5312 14.1111 Q105.25 14.0642 105.8594 14.0642 L108.75 14.0642 L108.75 14.9704 L103.2344 14.9704 ZM113.0469 12.9704 L114.1406 13.0954 Q113.8906 14.0486 113.1875 14.5798 Q112.4844 15.1111 111.4062 15.1111 Q110.0469 15.1111 109.2422 14.2673 Q108.4375 13.4236 108.4375 11.9079 Q108.4375 10.3454 109.25 9.4782 Q110.0625 8.6111 111.3438 8.6111 Q112.5938 8.6111 113.3828 9.4548 Q114.1719 10.2986 114.1719 11.8454 Q114.1719 11.9392 114.1719 12.1267 L109.5312 12.1267 Q109.5938 13.1579 110.1094 13.697 Q110.625 14.2361 111.4062 14.2361 Q111.9844 14.2361 112.3984 13.9314 Q112.8125 13.6267 113.0469 12.9704 ZM109.5938 11.2673 L113.0625 11.2673 Q113 10.4704 112.6719 10.0798 Q112.1562 9.4704 111.3594 9.4704 Q110.625 9.4704 110.1328 9.9548 Q109.6406 10.4392 109.5938 11.2673 ZM115.375 13.1111 L116.4062 12.9548 Q116.5 13.5798 116.8984 13.9079 Q117.2969 14.2361 118.0312 14.2361 Q118.75 14.2361 119.1016 13.947 Q119.4531 13.6579 119.4531 13.2517 Q119.4531 12.8923 119.1406 12.6892 Q118.9219 12.5486 118.0625 12.3298 Q116.9062 12.0329 116.4609 11.822 Q116.0156 11.6111 115.7812 11.2361 Q115.5469 10.8611 115.5469 10.3923 Q115.5469 9.9861 115.7344 9.6267 Q115.9219 9.2673 116.25 9.0329 Q116.5 8.8611 116.9219 8.7361 Q117.3438 8.6111 117.8438 8.6111 Q118.5625 8.6111 119.1172 8.822 Q119.6719 9.0329 119.9375 9.3923 Q120.2031 9.7517 120.2969 10.3454 L119.2656 10.4861 Q119.2031 10.0173 118.8672 9.7439 Q118.5312 9.4704 117.9062 9.4704 Q117.1875 9.4704 116.875 9.7126 Q116.5625 9.9548 116.5625 10.2829 Q116.5625 10.4861 116.6875 10.6423 Q116.8281 10.8142 117.0938 10.9236 Q117.25 10.9861 118.0312 11.1892 Q119.1562 11.5017 119.5938 11.6892 Q120.0312 11.8767 120.2812 12.2361 Q120.5312 12.5954 120.5312 13.1423 Q120.5312 13.6736 120.2266 14.1345 Q119.9219 14.5954 119.3438 14.8532 Q118.7656 15.1111 118.0312 15.1111 Q116.8125 15.1111 116.1797 14.6032 Q115.5469 14.0954 115.375 13.1111 Z" style="clip-path:url(#clipPath19); stroke:none;" />
      <path d="M4.7656 28.9704 L3.7812 28.9704 L3.7812 20.3767 L4.8438 20.3767 L4.8438 23.4392 Q5.5156 22.6111 6.5469 22.6111 Q7.125 22.6111 7.6328 22.8376 Q8.1406 23.0642 8.4766 23.4861 Q8.8125 23.9079 9 24.5017 Q9.1875 25.0954 9.1875 25.7673 Q9.1875 27.3611 8.3906 28.2361 Q7.5938 29.1111 6.5 29.1111 Q5.3906 29.1111 4.7656 28.1892 L4.7656 28.9704 ZM4.75 25.8142 Q4.75 26.9236 5.0625 27.4236 Q5.5625 28.2361 6.4062 28.2361 Q7.0938 28.2361 7.6016 27.6423 Q8.1094 27.0486 8.1094 25.8454 Q8.1094 24.6267 7.625 24.0486 Q7.1406 23.4704 6.4531 23.4704 Q5.7656 23.4704 5.2578 24.072 Q4.75 24.6736 4.75 25.8142 ZM15.0469 26.9704 L16.1406 27.0954 Q15.8906 28.0486 15.1875 28.5798 Q14.4844 29.1111 13.4062 29.1111 Q12.0469 29.1111 11.2422 28.2673 Q10.4375 27.4236 10.4375 25.9079 Q10.4375 24.3454 11.25 23.4782 Q12.0625 22.6111 13.3438 22.6111 Q14.5938 22.6111 15.3828 23.4548 Q16.1719 24.2986 16.1719 25.8454 Q16.1719 25.9392 16.1719 26.1267 L11.5312 26.1267 Q11.5938 27.1579 12.1094 27.697 Q12.625 28.2361 13.4062 28.2361 Q13.9844 28.2361 14.3984 27.9314 Q14.8125 27.6267 15.0469 26.9704 ZM11.5938 25.2673 L15.0625 25.2673 Q15 24.4704 14.6719 24.0798 Q14.1562 23.4704 13.3594 23.4704 Q12.625 23.4704 12.1328 23.9548 Q11.6406 24.4392 11.5938 25.2673 ZM17.7969 28.9704 L17.7969 22.7517 L18.7344 22.7517 L18.7344 23.6267 Q19.0312 23.1579 19.5156 22.8845 Q20 22.6111 20.625 22.6111 Q21.3125 22.6111 21.7578 22.8923 Q22.2031 23.1736 22.375 23.6892 Q23.125 22.6111 24.2969 22.6111 Q25.2344 22.6111 25.7266 23.1189 Q26.2188 23.6267 26.2188 24.7048 L26.2188 28.9704 L25.1719 28.9704 L25.1719 25.0486 Q25.1719 24.4236 25.0703 24.1423 Q24.9688 23.8611 24.7031 23.6892 Q24.4375 23.5173 24.0625 23.5173 Q23.4062 23.5173 22.9766 23.9548 Q22.5469 24.3923 22.5469 25.3611 L22.5469 28.9704 L21.4844 28.9704 L21.4844 24.9236 Q21.4844 24.2204 21.2266 23.8689 Q20.9688 23.5173 20.3906 23.5173 Q19.9375 23.5173 19.5625 23.7517 Q19.1875 23.9861 19.0156 24.4392 Q18.8438 24.8923 18.8438 25.7361 L18.8438 28.9704 L17.7969 28.9704 ZM33.0469 26.9704 L34.1406 27.0954 Q33.8906 28.0486 33.1875 28.5798 Q32.4844 29.1111 31.4062 29.1111 Q30.0469 29.1111 29.2422 28.2673 Q28.4375 27.4236 28.4375 25.9079 Q28.4375 24.3454 29.25 23.4782 Q30.0625 22.6111 31.3438 22.6111 Q32.5938 22.6111 33.3828 23.4548 Q34.1719 24.2986 34.1719 25.8454 Q34.1719 25.9392 34.1719 26.1267 L29.5312 26.1267 Q29.5938 27.1579 30.1094 27.697 Q30.625 28.2361 31.4062 28.2361 Q31.9844 28.2361 32.3984 27.9314 Q32.8125 27.6267 33.0469 26.9704 ZM29.5938 25.2673 L33.0625 25.2673 Q33 24.4704 32.6719 24.0798 Q32.1562 23.4704 31.3594 23.4704 Q30.625 23.4704 30.1328 23.9548 Q29.6406 24.4392 29.5938 25.2673 ZM35.7969 28.9704 L35.7969 22.7517 L36.7344 22.7517 L36.7344 23.6267 Q37.4219 22.6111 38.7188 22.6111 Q39.2812 22.6111 39.7578 22.8142 Q40.2344 23.0173 40.4688 23.3454 Q40.7031 23.6736 40.7969 24.1111 Q40.8438 24.4079 40.8438 25.1423 L40.8438 28.9704 L39.7969 28.9704 L39.7969 25.1892 Q39.7969 24.5329 39.6719 24.2204 Q39.5469 23.9079 39.2344 23.7126 Q38.9219 23.5173 38.5 23.5173 Q37.8281 23.5173 37.3359 23.947 Q36.8438 24.3767 36.8438 25.5642 L36.8438 28.9704 L35.7969 28.9704 ZM47.0469 26.9704 L48.1406 27.0954 Q47.8906 28.0486 47.1875 28.5798 Q46.4844 29.1111 45.4062 29.1111 Q44.0469 29.1111 43.2422 28.2673 Q42.4375 27.4236 42.4375 25.9079 Q42.4375 24.3454 43.25 23.4782 Q44.0625 22.6111 45.3438 22.6111 Q46.5938 22.6111 47.3828 23.4548 Q48.1719 24.2986 48.1719 25.8454 Q48.1719 25.9392 48.1719 26.1267 L43.5312 26.1267 Q43.5938 27.1579 44.1094 27.697 Q44.625 28.2361 45.4062 28.2361 Q45.9844 28.2361 46.3984 27.9314 Q46.8125 27.6267 47.0469 26.9704 ZM43.5938 25.2673 L47.0625 25.2673 Q47 24.4704 46.6719 24.0798 Q46.1562 23.4704 45.3594 23.4704 Q44.625 23.4704 44.1328 23.9548 Q43.6406 24.4392 43.5938 25.2673 ZM52.0938 28.0329 L52.25 28.9548 Q51.7969 29.0486 51.4531 29.0486 Q50.875 29.0486 50.5625 28.8689 Q50.25 28.6892 50.1172 28.3923 Q49.9844 28.0954 49.9844 27.1423 L49.9844 23.5642 L49.2188 23.5642 L49.2188 22.7517 L49.9844 22.7517 L49.9844 21.2048 L51.0312 20.5798 L51.0312 22.7517 L52.0938 22.7517 L52.0938 23.5642 L51.0312 23.5642 L51.0312 27.2048 Q51.0312 27.6579 51.0859 27.7829 Q51.1406 27.9079 51.2656 27.9861 Q51.3906 28.0642 51.625 28.0642 Q51.8125 28.0642 52.0938 28.0329 ZM57.0469 26.9704 L58.1406 27.0954 Q57.8906 28.0486 57.1875 28.5798 Q56.4844 29.1111 55.4062 29.1111 Q54.0469 29.1111 53.2422 28.2673 Q52.4375 27.4236 52.4375 25.9079 Q52.4375 24.3454 53.25 23.4782 Q54.0625 22.6111 55.3438 22.6111 Q56.5938 22.6111 57.3828 23.4548 Q58.1719 24.2986 58.1719 25.8454 Q58.1719 25.9392 58.1719 26.1267 L53.5312 26.1267 Q53.5938 27.1579 54.1094 27.697 Q54.625 28.2361 55.4062 28.2361 Q55.9844 28.2361 56.3984 27.9314 Q56.8125 27.6267 57.0469 26.9704 ZM53.5938 25.2673 L57.0625 25.2673 Q57 24.4704 56.6719 24.0798 Q56.1562 23.4704 55.3594 23.4704 Q54.625 23.4704 54.1328 23.9548 Q53.6406 24.4392 53.5938 25.2673 ZM54.125 20.9704 L54.9062 19.3298 L56.2969 19.3298 L55 20.9704 L54.125 20.9704 ZM59.7812 28.9704 L59.7812 22.7517 L60.7344 22.7517 L60.7344 23.6892 Q61.0938 23.0329 61.3984 22.822 Q61.7031 22.6111 62.0781 22.6111 Q62.6094 22.6111 63.1562 22.9392 L62.7969 23.9236 Q62.4062 23.6892 62.0312 23.6892 Q61.6719 23.6892 61.3984 23.9001 Q61.125 24.1111 61.0156 24.4861 Q60.8281 25.0486 60.8281 25.7048 L60.8281 28.9704 L59.7812 28.9704 ZM68.0469 26.9704 L69.1406 27.0954 Q68.8906 28.0486 68.1875 28.5798 Q67.4844 29.1111 66.4062 29.1111 Q65.0469 29.1111 64.2422 28.2673 Q63.4375 27.4236 63.4375 25.9079 Q63.4375 24.3454 64.25 23.4782 Q65.0625 22.6111 66.3438 22.6111 Q67.5938 22.6111 68.3828 23.4548 Q69.1719 24.2986 69.1719 25.8454 Q69.1719 25.9392 69.1719 26.1267 L64.5312 26.1267 Q64.5938 27.1579 65.1094 27.697 Q65.625 28.2361 66.4062 28.2361 Q66.9844 28.2361 67.3984 27.9314 Q67.8125 27.6267 68.0469 26.9704 ZM64.5938 25.2673 L68.0625 25.2673 Q68 24.4704 67.6719 24.0798 Q67.1562 23.4704 66.3594 23.4704 Q65.625 23.4704 65.1328 23.9548 Q64.6406 24.4392 64.5938 25.2673 ZM73.7812 28.9704 L73.7812 22.7517 L74.7344 22.7517 L74.7344 23.6892 Q75.0938 23.0329 75.3984 22.822 Q75.7031 22.6111 76.0781 22.6111 Q76.6094 22.6111 77.1562 22.9392 L76.7969 23.9236 Q76.4062 23.6892 76.0312 23.6892 Q75.6719 23.6892 75.3984 23.9001 Q75.125 24.1111 75.0156 24.4861 Q74.8281 25.0486 74.8281 25.7048 L74.8281 28.9704 L73.7812 28.9704 ZM81.8594 28.2048 Q81.2656 28.7048 80.7266 28.9079 Q80.1875 29.1111 79.5625 29.1111 Q78.5312 29.1111 77.9844 28.6111 Q77.4375 28.1111 77.4375 27.3298 Q77.4375 26.8767 77.6406 26.4939 Q77.8438 26.1111 78.1875 25.8845 Q78.5312 25.6579 78.9531 25.5486 Q79.25 25.4548 79.8906 25.3767 Q81.1562 25.2361 81.7656 25.0173 Q81.7656 24.7986 81.7656 24.7517 Q81.7656 24.0954 81.4688 23.8298 Q81.0625 23.4861 80.2656 23.4861 Q79.5312 23.4861 79.1719 23.7439 Q78.8125 24.0017 78.6406 24.6579 L77.6094 24.5173 Q77.75 23.8611 78.0781 23.4548 Q78.4062 23.0486 79.0156 22.8298 Q79.625 22.6111 80.4219 22.6111 Q81.2188 22.6111 81.7188 22.7986 Q82.2188 22.9861 82.4531 23.2673 Q82.6875 23.5486 82.7812 23.9861 Q82.8281 24.2517 82.8281 24.9548 L82.8281 26.3611 Q82.8281 27.8298 82.8984 28.2204 Q82.9688 28.6111 83.1719 28.9704 L82.0625 28.9704 Q81.9062 28.6423 81.8594 28.2048 ZM81.7656 25.8454 Q81.1875 26.0798 80.0469 26.2517 Q79.3906 26.3454 79.125 26.4626 Q78.8594 26.5798 78.7109 26.7986 Q78.5625 27.0173 78.5625 27.2986 Q78.5625 27.7204 78.8828 28.0017 Q79.2031 28.2829 79.8125 28.2829 Q80.4219 28.2829 80.8984 28.0173 Q81.375 27.7517 81.5938 27.2829 Q81.7656 26.9236 81.7656 26.2361 L81.7656 25.8454 ZM79.125 20.9704 L79.9062 19.3298 L81.2969 19.3298 L80 20.9704 L79.125 20.9704 ZM84.7969 28.9704 L84.7969 20.3767 L85.8594 20.3767 L85.8594 25.2829 L88.3438 22.7517 L89.7188 22.7517 L87.3281 25.0486 L89.9531 28.9704 L88.6562 28.9704 L86.5938 25.7829 L85.8594 26.5017 L85.8594 28.9704 L84.7969 28.9704 ZM90.4062 25.8611 Q90.4062 24.1267 91.3594 23.2986 Q92.1562 22.6111 93.3125 22.6111 Q94.5938 22.6111 95.4141 23.447 Q96.2344 24.2829 96.2344 25.7673 Q96.2344 26.9704 95.875 27.6579 Q95.5156 28.3454 94.8203 28.7282 Q94.125 29.1111 93.3125 29.1111 Q92.0156 29.1111 91.2109 28.2751 Q90.4062 27.4392 90.4062 25.8611 ZM91.4844 25.8611 Q91.4844 27.0486 92.0078 27.6423 Q92.5312 28.2361 93.3125 28.2361 Q94.1094 28.2361 94.625 27.6423 Q95.1406 27.0486 95.1406 25.8298 Q95.1406 24.6736 94.6172 24.0798 Q94.0938 23.4861 93.3125 23.4861 Q92.5312 23.4861 92.0078 24.072 Q91.4844 24.6579 91.4844 25.8611 ZM91.8125 20.9704 L91.8125 19.7673 L92.9062 19.7673 L92.9062 20.9704 L91.8125 20.9704 ZM94 20.9704 L94 19.7673 L95.0938 19.7673 L95.0938 20.9704 L94 20.9704 ZM100.0938 28.0329 L100.25 28.9548 Q99.7969 29.0486 99.4531 29.0486 Q98.875 29.0486 98.5625 28.8689 Q98.25 28.6892 98.1172 28.3923 Q97.9844 28.0954 97.9844 27.1423 L97.9844 23.5642 L97.2188 23.5642 L97.2188 22.7517 L97.9844 22.7517 L97.9844 21.2048 L99.0312 20.5798 L99.0312 22.7517 L100.0938 22.7517 L100.0938 23.5642 L99.0312 23.5642 L99.0312 27.2048 Q99.0312 27.6579 99.0859 27.7829 Q99.1406 27.9079 99.2656 27.9861 Q99.3906 28.0642 99.625 28.0642 Q99.8125 28.0642 100.0938 28.0329 ZM104.875 28.9704 L104.875 28.0486 Q104.1406 29.1111 102.8906 29.1111 Q102.3438 29.1111 101.8672 28.9001 Q101.3906 28.6892 101.1562 28.3689 Q100.9219 28.0486 100.8281 27.5798 Q100.7656 27.2829 100.7656 26.5954 L100.7656 22.7517 L101.8281 22.7517 L101.8281 26.2048 Q101.8281 27.0173 101.8906 27.3142 Q101.9844 27.7204 102.3047 27.9626 Q102.625 28.2048 103.1094 28.2048 Q103.5781 28.2048 103.9922 27.9626 Q104.4062 27.7204 104.5859 27.2986 Q104.7656 26.8767 104.7656 26.0798 L104.7656 22.7517 L105.8125 22.7517 L105.8125 28.9704 L104.875 28.9704 ZM101.3594 20.9704 L101.3594 19.7673 L102.4531 19.7673 L102.4531 20.9704 L101.3594 20.9704 ZM103.5469 20.9704 L103.5469 19.7673 L104.6406 19.7673 L104.6406 20.9704 L103.5469 20.9704 ZM107.7969 28.9704 L107.7969 22.7517 L108.7344 22.7517 L108.7344 23.6267 Q109.4219 22.6111 110.7188 22.6111 Q111.2812 22.6111 111.7578 22.8142 Q112.2344 23.0173 112.4688 23.3454 Q112.7031 23.6736 112.7969 24.1111 Q112.8438 24.4079 112.8438 25.1423 L112.8438 28.9704 L111.7969 28.9704 L111.7969 25.1892 Q111.7969 24.5329 111.6719 24.2204 Q111.5469 23.9079 111.2344 23.7126 Q110.9219 23.5173 110.5 23.5173 Q109.8281 23.5173 109.3359 23.947 Q108.8438 24.3767 108.8438 25.5642 L108.8438 28.9704 L107.7969 28.9704 ZM114.7969 28.9704 L114.7969 20.3767 L115.8594 20.3767 L115.8594 25.2829 L118.3438 22.7517 L119.7188 22.7517 L117.3281 25.0486 L119.9531 28.9704 L118.6562 28.9704 L116.5938 25.7829 L115.8594 26.5017 L115.8594 28.9704 L114.7969 28.9704 ZM128.0469 26.9704 L129.1406 27.0954 Q128.8906 28.0486 128.1875 28.5798 Q127.4844 29.1111 126.4062 29.1111 Q125.0469 29.1111 124.2422 28.2673 Q123.4375 27.4236 123.4375 25.9079 Q123.4375 24.3454 124.25 23.4782 Q125.0625 22.6111 126.3438 22.6111 Q127.5938 22.6111 128.3828 23.4548 Q129.1719 24.2986 129.1719 25.8454 Q129.1719 25.9392 129.1719 26.1267 L124.5312 26.1267 Q124.5938 27.1579 125.1094 27.697 Q125.625 28.2361 126.4062 28.2361 Q126.9844 28.2361 127.3984 27.9314 Q127.8125 27.6267 128.0469 26.9704 ZM124.5938 25.2673 L128.0625 25.2673 Q128 24.4704 127.6719 24.0798 Q127.1562 23.4704 126.3594 23.4704 Q125.625 23.4704 125.1328 23.9548 Q124.6406 24.4392 124.5938 25.2673 ZM130.5938 29.4861 L131.625 29.6423 Q131.6875 30.1111 131.9844 30.3298 Q132.375 30.6267 133.0469 30.6267 Q133.7812 30.6267 134.1797 30.3298 Q134.5781 30.0329 134.7188 29.5173 Q134.8125 29.1892 134.7969 28.1579 Q134.1094 28.9704 133.0781 28.9704 Q131.7969 28.9704 131.0938 28.0407 Q130.3906 27.1111 130.3906 25.8298 Q130.3906 24.9392 130.7109 24.1814 Q131.0312 23.4236 131.6406 23.0173 Q132.25 22.6111 133.0781 22.6111 Q134.1875 22.6111 134.9062 23.5017 L134.9062 22.7517 L135.875 22.7517 L135.875 28.1267 Q135.875 29.5798 135.5781 30.1892 Q135.2812 30.7986 134.6406 31.1501 Q134 31.5017 133.0625 31.5017 Q131.9531 31.5017 131.2656 31.0017 Q130.5781 30.5017 130.5938 29.4861 ZM131.4688 25.7517 Q131.4688 26.9704 131.9531 27.5329 Q132.4375 28.0954 133.1719 28.0954 Q133.9062 28.0954 134.3984 27.5329 Q134.8906 26.9704 134.8906 25.7829 Q134.8906 24.6423 134.3828 24.0642 Q133.875 23.4861 133.1562 23.4861 Q132.4531 23.4861 131.9609 24.0564 Q131.4688 24.6267 131.4688 25.7517 ZM137.75 31.3611 L137.625 30.3767 Q137.9688 30.4704 138.2344 30.4704 Q138.5781 30.4704 138.7891 30.3532 Q139 30.2361 139.1406 30.0329 Q139.2344 29.8611 139.4688 29.2361 Q139.4844 29.1579 139.5625 28.9861 L137.1875 22.7517 L138.3281 22.7517 L139.625 26.3454 Q139.875 27.0329 140.0781 27.7986 Q140.2656 27.0642 140.5156 26.3767 L141.8438 22.7517 L142.8906 22.7517 L140.5312 29.0798 Q140.1406 30.0954 139.9375 30.4861 Q139.6562 31.0173 139.2891 31.2595 Q138.9219 31.5017 138.4219 31.5017 Q138.125 31.5017 137.75 31.3611 ZM145.7969 28.9704 L145.7969 22.7517 L146.7344 22.7517 L146.7344 23.6267 Q147.0312 23.1579 147.5156 22.8845 Q148 22.6111 148.625 22.6111 Q149.3125 22.6111 149.7578 22.8923 Q150.2031 23.1736 150.375 23.6892 Q151.125 22.6111 152.2969 22.6111 Q153.2344 22.6111 153.7266 23.1189 Q154.2188 23.6267 154.2188 24.7048 L154.2188 28.9704 L153.1719 28.9704 L153.1719 25.0486 Q153.1719 24.4236 153.0703 24.1423 Q152.9688 23.8611 152.7031 23.6892 Q152.4375 23.5173 152.0625 23.5173 Q151.4062 23.5173 150.9766 23.9548 Q150.5469 24.3923 150.5469 25.3611 L150.5469 28.9704 L149.4844 28.9704 L149.4844 24.9236 Q149.4844 24.2204 149.2266 23.8689 Q148.9688 23.5173 148.3906 23.5173 Q147.9375 23.5173 147.5625 23.7517 Q147.1875 23.9861 147.0156 24.4392 Q146.8438 24.8923 146.8438 25.7361 L146.8438 28.9704 L145.7969 28.9704 ZM160.8594 28.2048 Q160.2656 28.7048 159.7266 28.9079 Q159.1875 29.1111 158.5625 29.1111 Q157.5312 29.1111 156.9844 28.6111 Q156.4375 28.1111 156.4375 27.3298 Q156.4375 26.8767 156.6406 26.4939 Q156.8438 26.1111 157.1875 25.8845 Q157.5312 25.6579 157.9531 25.5486 Q158.25 25.4548 158.8906 25.3767 Q160.1562 25.2361 160.7656 25.0173 Q160.7656 24.7986 160.7656 24.7517 Q160.7656 24.0954 160.4688 23.8298 Q160.0625 23.4861 159.2656 23.4861 Q158.5312 23.4861 158.1719 23.7439 Q157.8125 24.0017 157.6406 24.6579 L156.6094 24.5173 Q156.75 23.8611 157.0781 23.4548 Q157.4062 23.0486 158.0156 22.8298 Q158.625 22.6111 159.4219 22.6111 Q160.2188 22.6111 160.7188 22.7986 Q161.2188 22.9861 161.4531 23.2673 Q161.6875 23.5486 161.7812 23.9861 Q161.8281 24.2517 161.8281 24.9548 L161.8281 26.3611 Q161.8281 27.8298 161.8984 28.2204 Q161.9688 28.6111 162.1719 28.9704 L161.0625 28.9704 Q160.9062 28.6423 160.8594 28.2048 ZM160.7656 25.8454 Q160.1875 26.0798 159.0469 26.2517 Q158.3906 26.3454 158.125 26.4626 Q157.8594 26.5798 157.7109 26.7986 Q157.5625 27.0173 157.5625 27.2986 Q157.5625 27.7204 157.8828 28.0017 Q158.2031 28.2829 158.8125 28.2829 Q159.4219 28.2829 159.8984 28.0173 Q160.375 27.7517 160.5938 27.2829 Q160.7656 26.9236 160.7656 26.2361 L160.7656 25.8454 ZM158.125 20.9704 L158.9062 19.3298 L160.2969 19.3298 L159 20.9704 L158.125 20.9704 ZM163.375 27.1111 L164.4062 26.9548 Q164.5 27.5798 164.8984 27.9079 Q165.2969 28.2361 166.0312 28.2361 Q166.75 28.2361 167.1016 27.947 Q167.4531 27.6579 167.4531 27.2517 Q167.4531 26.8923 167.1406 26.6892 Q166.9219 26.5486 166.0625 26.3298 Q164.9062 26.0329 164.4609 25.822 Q164.0156 25.6111 163.7812 25.2361 Q163.5469 24.8611 163.5469 24.3923 Q163.5469 23.9861 163.7344 23.6267 Q163.9219 23.2673 164.25 23.0329 Q164.5 22.8611 164.9219 22.7361 Q165.3438 22.6111 165.8438 22.6111 Q166.5625 22.6111 167.1172 22.822 Q167.6719 23.0329 167.9375 23.3923 Q168.2031 23.7517 168.2969 24.3454 L167.2656 24.4861 Q167.2031 24.0173 166.8672 23.7439 Q166.5312 23.4704 165.9062 23.4704 Q165.1875 23.4704 164.875 23.7126 Q164.5625 23.9548 164.5625 24.2829 Q164.5625 24.4861 164.6875 24.6423 Q164.8281 24.8142 165.0938 24.9236 Q165.25 24.9861 166.0312 25.1892 Q167.1562 25.5017 167.5938 25.6892 Q168.0312 25.8767 168.2812 26.2361 Q168.5312 26.5954 168.5312 27.1423 Q168.5312 27.6736 168.2266 28.1345 Q167.9219 28.5954 167.3438 28.8532 Q166.7656 29.1111 166.0312 29.1111 Q164.8125 29.1111 164.1797 28.6032 Q163.5469 28.0954 163.375 27.1111 ZM170.7969 21.5954 L170.7969 20.3767 L171.8594 20.3767 L171.8594 21.5954 L170.7969 21.5954 ZM170.7969 28.9704 L170.7969 22.7517 L171.8594 22.7517 L171.8594 28.9704 L170.7969 28.9704 ZM173.7969 28.9704 L173.7969 20.3767 L174.8594 20.3767 L174.8594 25.2829 L177.3438 22.7517 L178.7188 22.7517 L176.3281 25.0486 L178.9531 28.9704 L177.6562 28.9704 L175.5938 25.7829 L174.8594 26.5017 L174.8594 28.9704 L173.7969 28.9704 Z" style="clip-path:url(#clipPath19); stroke:none;" />
      <path d="M3.7969 42.9704 L3.7969 34.3767 L4.8594 34.3767 L4.8594 39.2829 L7.3438 36.7517 L8.7188 36.7517 L6.3281 39.0486 L8.9531 42.9704 L7.6562 42.9704 L5.5938 39.7829 L4.8594 40.5017 L4.8594 42.9704 L3.7969 42.9704 ZM9.4062 39.8611 Q9.4062 38.1267 10.3594 37.2986 Q11.1562 36.6111 12.3125 36.6111 Q13.5938 36.6111 14.4141 37.447 Q15.2344 38.2829 15.2344 39.7673 Q15.2344 40.9704 14.875 41.6579 Q14.5156 42.3454 13.8203 42.7282 Q13.125 43.1111 12.3125 43.1111 Q11.0156 43.1111 10.2109 42.2751 Q9.4062 41.4392 9.4062 39.8611 ZM10.4844 39.8611 Q10.4844 41.0486 11.0078 41.6423 Q11.5312 42.2361 12.3125 42.2361 Q13.1094 42.2361 13.625 41.6423 Q14.1406 41.0486 14.1406 39.8298 Q14.1406 38.6736 13.6172 38.0798 Q13.0938 37.4861 12.3125 37.4861 Q11.5312 37.4861 11.0078 38.072 Q10.4844 38.6579 10.4844 39.8611 ZM16.7969 42.9704 L16.7969 36.7517 L17.7344 36.7517 L17.7344 37.6267 Q18.0312 37.1579 18.5156 36.8845 Q19 36.6111 19.625 36.6111 Q20.3125 36.6111 20.7578 36.8923 Q21.2031 37.1736 21.375 37.6892 Q22.125 36.6111 23.2969 36.6111 Q24.2344 36.6111 24.7266 37.1189 Q25.2188 37.6267 25.2188 38.7048 L25.2188 42.9704 L24.1719 42.9704 L24.1719 39.0486 Q24.1719 38.4236 24.0703 38.1423 Q23.9688 37.8611 23.7031 37.6892 Q23.4375 37.5173 23.0625 37.5173 Q22.4062 37.5173 21.9766 37.9548 Q21.5469 38.3923 21.5469 39.3611 L21.5469 42.9704 L20.4844 42.9704 L20.4844 38.9236 Q20.4844 38.2204 20.2266 37.8689 Q19.9688 37.5173 19.3906 37.5173 Q18.9375 37.5173 18.5625 37.7517 Q18.1875 37.9861 18.0156 38.4392 Q17.8438 38.8923 17.8438 39.7361 L17.8438 42.9704 L16.7969 42.9704 ZM27.7969 45.3611 L27.7969 36.7517 L28.75 36.7517 L28.75 37.5486 Q29.0938 37.0798 29.5234 36.8454 Q29.9531 36.6111 30.5625 36.6111 Q31.3594 36.6111 31.9688 37.0173 Q32.5781 37.4236 32.8828 38.1736 Q33.1875 38.9236 33.1875 39.8142 Q33.1875 40.7673 32.8516 41.5329 Q32.5156 42.2986 31.8594 42.7048 Q31.2031 43.1111 30.4844 43.1111 Q29.9531 43.1111 29.5312 42.8845 Q29.1094 42.6579 28.8438 42.3298 L28.8438 45.3611 L27.7969 45.3611 ZM28.75 39.8923 Q28.75 41.0954 29.2344 41.6657 Q29.7188 42.2361 30.4062 42.2361 Q31.1094 42.2361 31.6094 41.6423 Q32.1094 41.0486 32.1094 39.7986 Q32.1094 38.6111 31.625 38.0251 Q31.1406 37.4392 30.4531 37.4392 Q29.7812 37.4392 29.2656 38.0642 Q28.75 38.6892 28.75 39.8923 ZM34.4062 39.8611 Q34.4062 38.1267 35.3594 37.2986 Q36.1562 36.6111 37.3125 36.6111 Q38.5938 36.6111 39.4141 37.447 Q40.2344 38.2829 40.2344 39.7673 Q40.2344 40.9704 39.875 41.6579 Q39.5156 42.3454 38.8203 42.7282 Q38.125 43.1111 37.3125 43.1111 Q36.0156 43.1111 35.2109 42.2751 Q34.4062 41.4392 34.4062 39.8611 ZM35.4844 39.8611 Q35.4844 41.0486 36.0078 41.6423 Q36.5312 42.2361 37.3125 42.2361 Q38.1094 42.2361 38.625 41.6423 Q39.1406 41.0486 39.1406 39.8298 Q39.1406 38.6736 38.6172 38.0798 Q38.0938 37.4861 37.3125 37.4861 Q36.5312 37.4861 36.0078 38.072 Q35.4844 38.6579 35.4844 39.8611 ZM41.7969 42.9704 L41.7969 36.7517 L42.7344 36.7517 L42.7344 37.6267 Q43.4219 36.6111 44.7188 36.6111 Q45.2812 36.6111 45.7578 36.8142 Q46.2344 37.0173 46.4688 37.3454 Q46.7031 37.6736 46.7969 38.1111 Q46.8438 38.4079 46.8438 39.1423 L46.8438 42.9704 L45.7969 42.9704 L45.7969 39.1892 Q45.7969 38.5329 45.6719 38.2204 Q45.5469 37.9079 45.2344 37.7126 Q44.9219 37.5173 44.5 37.5173 Q43.8281 37.5173 43.3359 37.947 Q42.8438 38.3767 42.8438 39.5642 L42.8438 42.9704 L41.7969 42.9704 ZM53.0469 40.9704 L54.1406 41.0954 Q53.8906 42.0486 53.1875 42.5798 Q52.4844 43.1111 51.4062 43.1111 Q50.0469 43.1111 49.2422 42.2673 Q48.4375 41.4236 48.4375 39.9079 Q48.4375 38.3454 49.25 37.4782 Q50.0625 36.6111 51.3438 36.6111 Q52.5938 36.6111 53.3828 37.4548 Q54.1719 38.2986 54.1719 39.8454 Q54.1719 39.9392 54.1719 40.1267 L49.5312 40.1267 Q49.5938 41.1579 50.1094 41.697 Q50.625 42.2361 51.4062 42.2361 Q51.9844 42.2361 52.3984 41.9314 Q52.8125 41.6267 53.0469 40.9704 ZM49.5938 39.2673 L53.0625 39.2673 Q53 38.4704 52.6719 38.0798 Q52.1562 37.4704 51.3594 37.4704 Q50.625 37.4704 50.1328 37.9548 Q49.6406 38.4392 49.5938 39.2673 ZM55.7969 42.9704 L55.7969 36.7517 L56.7344 36.7517 L56.7344 37.6267 Q57.4219 36.6111 58.7188 36.6111 Q59.2812 36.6111 59.7578 36.8142 Q60.2344 37.0173 60.4688 37.3454 Q60.7031 37.6736 60.7969 38.1111 Q60.8438 38.4079 60.8438 39.1423 L60.8438 42.9704 L59.7969 42.9704 L59.7969 39.1892 Q59.7969 38.5329 59.6719 38.2204 Q59.5469 37.9079 59.2344 37.7126 Q58.9219 37.5173 58.5 37.5173 Q57.8281 37.5173 57.3359 37.947 Q56.8438 38.3767 56.8438 39.5642 L56.8438 42.9704 L55.7969 42.9704 ZM62.375 41.1111 L63.4062 40.9548 Q63.5 41.5798 63.8984 41.9079 Q64.2969 42.2361 65.0312 42.2361 Q65.75 42.2361 66.1016 41.947 Q66.4531 41.6579 66.4531 41.2517 Q66.4531 40.8923 66.1406 40.6892 Q65.9219 40.5486 65.0625 40.3298 Q63.9062 40.0329 63.4609 39.822 Q63.0156 39.6111 62.7812 39.2361 Q62.5469 38.8611 62.5469 38.3923 Q62.5469 37.9861 62.7344 37.6267 Q62.9219 37.2673 63.25 37.0329 Q63.5 36.8611 63.9219 36.7361 Q64.3438 36.6111 64.8438 36.6111 Q65.5625 36.6111 66.1172 36.822 Q66.6719 37.0329 66.9375 37.3923 Q67.2031 37.7517 67.2969 38.3454 L66.2656 38.4861 Q66.2031 38.0173 65.8672 37.7439 Q65.5312 37.4704 64.9062 37.4704 Q64.1875 37.4704 63.875 37.7126 Q63.5625 37.9548 63.5625 38.2829 Q63.5625 38.4861 63.6875 38.6423 Q63.8281 38.8142 64.0938 38.9236 Q64.25 38.9861 65.0312 39.1892 Q66.1562 39.5017 66.5938 39.6892 Q67.0312 39.8767 67.2812 40.2361 Q67.5312 40.5954 67.5312 41.1423 Q67.5312 41.6736 67.2266 42.1345 Q66.9219 42.5954 66.3438 42.8532 Q65.7656 43.1111 65.0312 43.1111 Q63.8125 43.1111 63.1797 42.6032 Q62.5469 42.0954 62.375 41.1111 ZM71.8125 45.5017 Q70.9375 44.3923 70.3359 42.9157 Q69.7344 41.4392 69.7344 39.8611 Q69.7344 38.4704 70.1719 37.1892 Q70.7031 35.7048 71.8125 34.2361 L72.5625 34.2361 Q71.8594 35.4548 71.625 35.9704 Q71.2656 36.7829 71.0625 37.6579 Q70.8125 38.7517 70.8125 39.8611 Q70.8125 42.6892 72.5625 45.5017 L71.8125 45.5017 ZM73.7969 35.5954 L73.7969 34.3767 L74.8594 34.3767 L74.8594 35.5954 L73.7969 35.5954 ZM73.7969 42.9704 L73.7969 36.7517 L74.8594 36.7517 L74.8594 42.9704 L73.7969 42.9704 ZM76.7969 42.9704 L76.7969 36.7517 L77.7344 36.7517 L77.7344 37.6267 Q78.4219 36.6111 79.7188 36.6111 Q80.2812 36.6111 80.7578 36.8142 Q81.2344 37.0173 81.4688 37.3454 Q81.7031 37.6736 81.7969 38.1111 Q81.8438 38.4079 81.8438 39.1423 L81.8438 42.9704 L80.7969 42.9704 L80.7969 39.1892 Q80.7969 38.5329 80.6719 38.2204 Q80.5469 37.9079 80.2344 37.7126 Q79.9219 37.5173 79.5 37.5173 Q78.8281 37.5173 78.3359 37.947 Q77.8438 38.3767 77.8438 39.5642 L77.8438 42.9704 L76.7969 42.9704 ZM83.7969 45.3611 L83.7969 36.7517 L84.75 36.7517 L84.75 37.5486 Q85.0938 37.0798 85.5234 36.8454 Q85.9531 36.6111 86.5625 36.6111 Q87.3594 36.6111 87.9688 37.0173 Q88.5781 37.4236 88.8828 38.1736 Q89.1875 38.9236 89.1875 39.8142 Q89.1875 40.7673 88.8516 41.5329 Q88.5156 42.2986 87.8594 42.7048 Q87.2031 43.1111 86.4844 43.1111 Q85.9531 43.1111 85.5312 42.8845 Q85.1094 42.6579 84.8438 42.3298 L84.8438 45.3611 L83.7969 45.3611 ZM84.75 39.8923 Q84.75 41.0954 85.2344 41.6657 Q85.7188 42.2361 86.4062 42.2361 Q87.1094 42.2361 87.6094 41.6423 Q88.1094 41.0486 88.1094 39.7986 Q88.1094 38.6111 87.625 38.0251 Q87.1406 37.4392 86.4531 37.4392 Q85.7812 37.4392 85.2656 38.0642 Q84.75 38.6892 84.75 39.8923 ZM94.875 42.9704 L94.875 42.0486 Q94.1406 43.1111 92.8906 43.1111 Q92.3438 43.1111 91.8672 42.9001 Q91.3906 42.6892 91.1562 42.3689 Q90.9219 42.0486 90.8281 41.5798 Q90.7656 41.2829 90.7656 40.5954 L90.7656 36.7517 L91.8281 36.7517 L91.8281 40.2048 Q91.8281 41.0173 91.8906 41.3142 Q91.9844 41.7204 92.3047 41.9626 Q92.625 42.2048 93.1094 42.2048 Q93.5781 42.2048 93.9922 41.9626 Q94.4062 41.7204 94.5859 41.2986 Q94.7656 40.8767 94.7656 40.0798 L94.7656 36.7517 L95.8125 36.7517 L95.8125 42.9704 L94.875 42.9704 ZM100.0938 42.0329 L100.25 42.9548 Q99.7969 43.0486 99.4531 43.0486 Q98.875 43.0486 98.5625 42.8689 Q98.25 42.6892 98.1172 42.3923 Q97.9844 42.0954 97.9844 41.1423 L97.9844 37.5642 L97.2188 37.5642 L97.2188 36.7517 L97.9844 36.7517 L97.9844 35.2048 L99.0312 34.5798 L99.0312 36.7517 L100.0938 36.7517 L100.0938 37.5642 L99.0312 37.5642 L99.0312 41.2048 Q99.0312 41.6579 99.0859 41.7829 Q99.1406 41.9079 99.2656 41.9861 Q99.3906 42.0642 99.625 42.0642 Q99.8125 42.0642 100.0938 42.0329 ZM107.0625 39.9548 L108.1875 40.2517 Q107.8281 41.6423 106.9062 42.3767 Q105.9844 43.1111 104.6406 43.1111 Q103.25 43.1111 102.375 42.5486 Q101.5 41.9861 101.0469 40.9157 Q100.5938 39.8454 100.5938 38.6111 Q100.5938 37.2673 101.1094 36.2673 Q101.625 35.2673 102.5703 34.7517 Q103.5156 34.2361 104.6562 34.2361 Q105.9375 34.2361 106.8203 34.8923 Q107.7031 35.5486 108.0469 36.7361 L106.9219 37.0017 Q106.625 36.0642 106.0547 35.6345 Q105.4844 35.2048 104.625 35.2048 Q103.6406 35.2048 102.9766 35.6814 Q102.3125 36.1579 102.0391 36.9548 Q101.7656 37.7517 101.7656 38.6111 Q101.7656 39.7048 102.0859 40.5173 Q102.4062 41.3298 103.0781 41.7361 Q103.75 42.1423 104.5469 42.1423 Q105.5 42.1423 106.1641 41.5954 Q106.8281 41.0486 107.0625 39.9548 ZM109.4062 39.8611 Q109.4062 38.1267 110.3594 37.2986 Q111.1562 36.6111 112.3125 36.6111 Q113.5938 36.6111 114.4141 37.447 Q115.2344 38.2829 115.2344 39.7673 Q115.2344 40.9704 114.875 41.6579 Q114.5156 42.3454 113.8203 42.7282 Q113.125 43.1111 112.3125 43.1111 Q111.0156 43.1111 110.2109 42.2751 Q109.4062 41.4392 109.4062 39.8611 ZM110.4844 39.8611 Q110.4844 41.0486 111.0078 41.6423 Q111.5312 42.2361 112.3125 42.2361 Q113.1094 42.2361 113.625 41.6423 Q114.1406 41.0486 114.1406 39.8298 Q114.1406 38.6736 113.6172 38.0798 Q113.0938 37.4861 112.3125 37.4861 Q111.5312 37.4861 111.0078 38.072 Q110.4844 38.6579 110.4844 39.8611 ZM116.7969 42.9704 L116.7969 36.7517 L117.7344 36.7517 L117.7344 37.6267 Q118.0312 37.1579 118.5156 36.8845 Q119 36.6111 119.625 36.6111 Q120.3125 36.6111 120.7578 36.8923 Q121.2031 37.1736 121.375 37.6892 Q122.125 36.6111 123.2969 36.6111 Q124.2344 36.6111 124.7266 37.1189 Q125.2188 37.6267 125.2188 38.7048 L125.2188 42.9704 L124.1719 42.9704 L124.1719 39.0486 Q124.1719 38.4236 124.0703 38.1423 Q123.9688 37.8611 123.7031 37.6892 Q123.4375 37.5173 123.0625 37.5173 Q122.4062 37.5173 121.9766 37.9548 Q121.5469 38.3923 121.5469 39.3611 L121.5469 42.9704 L120.4844 42.9704 L120.4844 38.9236 Q120.4844 38.2204 120.2266 37.8689 Q119.9688 37.5173 119.3906 37.5173 Q118.9375 37.5173 118.5625 37.7517 Q118.1875 37.9861 118.0156 38.4392 Q117.8438 38.8923 117.8438 39.7361 L117.8438 42.9704 L116.7969 42.9704 ZM127.7969 45.3611 L127.7969 36.7517 L128.75 36.7517 L128.75 37.5486 Q129.0938 37.0798 129.5234 36.8454 Q129.9531 36.6111 130.5625 36.6111 Q131.3594 36.6111 131.9688 37.0173 Q132.5781 37.4236 132.8828 38.1736 Q133.1875 38.9236 133.1875 39.8142 Q133.1875 40.7673 132.8516 41.5329 Q132.5156 42.2986 131.8594 42.7048 Q131.2031 43.1111 130.4844 43.1111 Q129.9531 43.1111 129.5312 42.8845 Q129.1094 42.6579 128.8438 42.3298 L128.8438 45.3611 L127.7969 45.3611 ZM128.75 39.8923 Q128.75 41.0954 129.2344 41.6657 Q129.7188 42.2361 130.4062 42.2361 Q131.1094 42.2361 131.6094 41.6423 Q132.1094 41.0486 132.1094 39.7986 Q132.1094 38.6111 131.625 38.0251 Q131.1406 37.4392 130.4531 37.4392 Q129.7812 37.4392 129.2656 38.0642 Q128.75 38.6892 128.75 39.8923 ZM134.4062 39.8611 Q134.4062 38.1267 135.3594 37.2986 Q136.1562 36.6111 137.3125 36.6111 Q138.5938 36.6111 139.4141 37.447 Q140.2344 38.2829 140.2344 39.7673 Q140.2344 40.9704 139.875 41.6579 Q139.5156 42.3454 138.8203 42.7282 Q138.125 43.1111 137.3125 43.1111 Q136.0156 43.1111 135.2109 42.2751 Q134.4062 41.4392 134.4062 39.8611 ZM135.4844 39.8611 Q135.4844 41.0486 136.0078 41.6423 Q136.5312 42.2361 137.3125 42.2361 Q138.1094 42.2361 138.625 41.6423 Q139.1406 41.0486 139.1406 39.8298 Q139.1406 38.6736 138.6172 38.0798 Q138.0938 37.4861 137.3125 37.4861 Q136.5312 37.4861 136.0078 38.072 Q135.4844 38.6579 135.4844 39.8611 ZM141.7969 42.9704 L141.7969 36.7517 L142.7344 36.7517 L142.7344 37.6267 Q143.4219 36.6111 144.7188 36.6111 Q145.2812 36.6111 145.7578 36.8142 Q146.2344 37.0173 146.4688 37.3454 Q146.7031 37.6736 146.7969 38.1111 Q146.8438 38.4079 146.8438 39.1423 L146.8438 42.9704 L145.7969 42.9704 L145.7969 39.1892 Q145.7969 38.5329 145.6719 38.2204 Q145.5469 37.9079 145.2344 37.7126 Q144.9219 37.5173 144.5 37.5173 Q143.8281 37.5173 143.3359 37.947 Q142.8438 38.3767 142.8438 39.5642 L142.8438 42.9704 L141.7969 42.9704 ZM153.0469 40.9704 L154.1406 41.0954 Q153.8906 42.0486 153.1875 42.5798 Q152.4844 43.1111 151.4062 43.1111 Q150.0469 43.1111 149.2422 42.2673 Q148.4375 41.4236 148.4375 39.9079 Q148.4375 38.3454 149.25 37.4782 Q150.0625 36.6111 151.3438 36.6111 Q152.5938 36.6111 153.3828 37.4548 Q154.1719 38.2986 154.1719 39.8454 Q154.1719 39.9392 154.1719 40.1267 L149.5312 40.1267 Q149.5938 41.1579 150.1094 41.697 Q150.625 42.2361 151.4062 42.2361 Q151.9844 42.2361 152.3984 41.9314 Q152.8125 41.6267 153.0469 40.9704 ZM149.5938 39.2673 L153.0625 39.2673 Q153 38.4704 152.6719 38.0798 Q152.1562 37.4704 151.3594 37.4704 Q150.625 37.4704 150.1328 37.9548 Q149.6406 38.4392 149.5938 39.2673 ZM155.7969 42.9704 L155.7969 36.7517 L156.7344 36.7517 L156.7344 37.6267 Q157.4219 36.6111 158.7188 36.6111 Q159.2812 36.6111 159.7578 36.8142 Q160.2344 37.0173 160.4688 37.3454 Q160.7031 37.6736 160.7969 38.1111 Q160.8438 38.4079 160.8438 39.1423 L160.8438 42.9704 L159.7969 42.9704 L159.7969 39.1892 Q159.7969 38.5329 159.6719 38.2204 Q159.5469 37.9079 159.2344 37.7126 Q158.9219 37.5173 158.5 37.5173 Q157.8281 37.5173 157.3359 37.947 Q156.8438 38.3767 156.8438 39.5642 L156.8438 42.9704 L155.7969 42.9704 ZM165.0938 42.0329 L165.25 42.9548 Q164.7969 43.0486 164.4531 43.0486 Q163.875 43.0486 163.5625 42.8689 Q163.25 42.6892 163.1172 42.3923 Q162.9844 42.0954 162.9844 41.1423 L162.9844 37.5642 L162.2188 37.5642 L162.2188 36.7517 L162.9844 36.7517 L162.9844 35.2048 L164.0312 34.5798 L164.0312 36.7517 L165.0938 36.7517 L165.0938 37.5642 L164.0312 37.5642 L164.0312 41.2048 Q164.0312 41.6579 164.0859 41.7829 Q164.1406 41.9079 164.2656 41.9861 Q164.3906 42.0642 164.625 42.0642 Q164.8125 42.0642 165.0938 42.0329 ZM166.4844 45.5017 L165.7344 45.5017 Q167.4844 42.6892 167.4844 39.8611 Q167.4844 38.7673 167.2344 37.6736 Q167.0312 36.7986 166.6719 35.9861 Q166.4375 35.4704 165.7344 34.2361 L166.4844 34.2361 Q167.5781 35.7048 168.1094 37.1892 Q168.5625 38.4704 168.5625 39.8611 Q168.5625 41.4392 167.9531 42.9157 Q167.3438 44.3923 166.4844 45.5017 Z" style="clip-path:url(#clipPath19); stroke:none;" />
      <path d="M3.7969 56.9704 L3.7969 48.3767 L4.8594 48.3767 L4.8594 53.2829 L7.3438 50.7517 L8.7188 50.7517 L6.3281 53.0486 L8.9531 56.9704 L7.6562 56.9704 L5.5938 53.7829 L4.8594 54.5017 L4.8594 56.9704 L3.7969 56.9704 ZM9.7969 49.5954 L9.7969 48.3767 L10.8594 48.3767 L10.8594 49.5954 L9.7969 49.5954 ZM9.7969 56.9704 L9.7969 50.7517 L10.8594 50.7517 L10.8594 56.9704 L9.7969 56.9704 ZM12.7969 56.9704 L12.7969 50.7517 L13.7344 50.7517 L13.7344 51.6267 Q14.0312 51.1579 14.5156 50.8845 Q15 50.6111 15.625 50.6111 Q16.3125 50.6111 16.7578 50.8923 Q17.2031 51.1736 17.375 51.6892 Q18.125 50.6111 19.2969 50.6111 Q20.2344 50.6111 20.7266 51.1189 Q21.2188 51.6267 21.2188 52.7048 L21.2188 56.9704 L20.1719 56.9704 L20.1719 53.0486 Q20.1719 52.4236 20.0703 52.1423 Q19.9688 51.8611 19.7031 51.6892 Q19.4375 51.5173 19.0625 51.5173 Q18.4062 51.5173 17.9766 51.9548 Q17.5469 52.3923 17.5469 53.3611 L17.5469 56.9704 L16.4844 56.9704 L16.4844 52.9236 Q16.4844 52.2204 16.2266 51.8689 Q15.9688 51.5173 15.3906 51.5173 Q14.9375 51.5173 14.5625 51.7517 Q14.1875 51.9861 14.0156 52.4392 Q13.8438 52.8923 13.8438 53.7361 L13.8438 56.9704 L12.7969 56.9704 ZM28.0469 54.9704 L29.1406 55.0954 Q28.8906 56.0486 28.1875 56.5798 Q27.4844 57.1111 26.4062 57.1111 Q25.0469 57.1111 24.2422 56.2673 Q23.4375 55.4236 23.4375 53.9079 Q23.4375 52.3454 24.25 51.4782 Q25.0625 50.6111 26.3438 50.6111 Q27.5938 50.6111 28.3828 51.4548 Q29.1719 52.2986 29.1719 53.8454 Q29.1719 53.9392 29.1719 54.1267 L24.5312 54.1267 Q24.5938 55.1579 25.1094 55.697 Q25.625 56.2361 26.4062 56.2361 Q26.9844 56.2361 27.3984 55.9314 Q27.8125 55.6267 28.0469 54.9704 ZM24.5938 53.2673 L28.0625 53.2673 Q28 52.4704 27.6719 52.0798 Q27.1562 51.4704 26.3594 51.4704 Q25.625 51.4704 25.1328 51.9548 Q24.6406 52.4392 24.5938 53.2673 ZM30.7969 56.9704 L30.7969 50.7517 L31.7344 50.7517 L31.7344 51.6267 Q32.4219 50.6111 33.7188 50.6111 Q34.2812 50.6111 34.7578 50.8142 Q35.2344 51.0173 35.4688 51.3454 Q35.7031 51.6736 35.7969 52.1111 Q35.8438 52.4079 35.8438 53.1423 L35.8438 56.9704 L34.7969 56.9704 L34.7969 53.1892 Q34.7969 52.5329 34.6719 52.2204 Q34.5469 51.9079 34.2344 51.7126 Q33.9219 51.5173 33.5 51.5173 Q32.8281 51.5173 32.3359 51.947 Q31.8438 52.3767 31.8438 53.5642 L31.8438 56.9704 L30.7969 56.9704 ZM42.0469 54.9704 L43.1406 55.0954 Q42.8906 56.0486 42.1875 56.5798 Q41.4844 57.1111 40.4062 57.1111 Q39.0469 57.1111 38.2422 56.2673 Q37.4375 55.4236 37.4375 53.9079 Q37.4375 52.3454 38.25 51.4782 Q39.0625 50.6111 40.3438 50.6111 Q41.5938 50.6111 42.3828 51.4548 Q43.1719 52.2986 43.1719 53.8454 Q43.1719 53.9392 43.1719 54.1267 L38.5312 54.1267 Q38.5938 55.1579 39.1094 55.697 Q39.625 56.2361 40.4062 56.2361 Q40.9844 56.2361 41.3984 55.9314 Q41.8125 55.6267 42.0469 54.9704 ZM38.5938 53.2673 L42.0625 53.2673 Q42 52.4704 41.6719 52.0798 Q41.1562 51.4704 40.3594 51.4704 Q39.625 51.4704 39.1328 51.9548 Q38.6406 52.4392 38.5938 53.2673 ZM47.0938 56.0329 L47.25 56.9548 Q46.7969 57.0486 46.4531 57.0486 Q45.875 57.0486 45.5625 56.8689 Q45.25 56.6892 45.1172 56.3923 Q44.9844 56.0954 44.9844 55.1423 L44.9844 51.5642 L44.2188 51.5642 L44.2188 50.7517 L44.9844 50.7517 L44.9844 49.2048 L46.0312 48.5798 L46.0312 50.7517 L47.0938 50.7517 L47.0938 51.5642 L46.0312 51.5642 L46.0312 55.2048 Q46.0312 55.6579 46.0859 55.7829 Q46.1406 55.9079 46.2656 55.9861 Q46.3906 56.0642 46.625 56.0642 Q46.8125 56.0642 47.0938 56.0329 ZM52.0469 54.9704 L53.1406 55.0954 Q52.8906 56.0486 52.1875 56.5798 Q51.4844 57.1111 50.4062 57.1111 Q49.0469 57.1111 48.2422 56.2673 Q47.4375 55.4236 47.4375 53.9079 Q47.4375 52.3454 48.25 51.4782 Q49.0625 50.6111 50.3438 50.6111 Q51.5938 50.6111 52.3828 51.4548 Q53.1719 52.2986 53.1719 53.8454 Q53.1719 53.9392 53.1719 54.1267 L48.5312 54.1267 Q48.5938 55.1579 49.1094 55.697 Q49.625 56.2361 50.4062 56.2361 Q50.9844 56.2361 51.3984 55.9314 Q51.8125 55.6267 52.0469 54.9704 ZM48.5938 53.2673 L52.0625 53.2673 Q52 52.4704 51.6719 52.0798 Q51.1562 51.4704 50.3594 51.4704 Q49.625 51.4704 49.1328 51.9548 Q48.6406 52.4392 48.5938 53.2673 ZM49.125 48.9704 L49.9062 47.3298 L51.2969 47.3298 L50 48.9704 L49.125 48.9704 ZM57.0938 56.0329 L57.25 56.9548 Q56.7969 57.0486 56.4531 57.0486 Q55.875 57.0486 55.5625 56.8689 Q55.25 56.6892 55.1172 56.3923 Q54.9844 56.0954 54.9844 55.1423 L54.9844 51.5642 L54.2188 51.5642 L54.2188 50.7517 L54.9844 50.7517 L54.9844 49.2048 L56.0312 48.5798 L56.0312 50.7517 L57.0938 50.7517 L57.0938 51.5642 L56.0312 51.5642 L56.0312 55.2048 Q56.0312 55.6579 56.0859 55.7829 Q56.1406 55.9079 56.2656 55.9861 Q56.3906 56.0642 56.625 56.0642 Q56.8125 56.0642 57.0938 56.0329 ZM58.0938 56.9704 L58.0938 55.7673 L59.2969 55.7673 L59.2969 56.9704 L58.0938 56.9704 Z" style="clip-path:url(#clipPath19); stroke:none;" />
    </g>
    <g style="text-rendering:geometricPrecision; font-size:11; font-family:sans-serif;" transform="translate(282,34)">
      <text x="44" y="12" style="clip-path:url(#clipPath20); stroke:none;" xml:space="preserve">component :</text>
      <text x="26" y="27" style="clip-path:url(#clipPath20); stroke:none;" xml:space="preserve">AbstractComponent</text>
    </g>
    <g style="text-rendering:geometricPrecision; font-size:11; font-family:sans-serif;" transform="translate(192,34)">
      <text x="4" y="12" style="clip-path:url(#clipPath21); stroke:none;" xml:space="preserve">circuit : Circuit</text>
    </g>
    <g style="text-rendering:geometricPrecision; font-size:11; font-family:sans-serif;" transform="translate(12,34)">
      <text x="8" y="12" style="clip-path:url(#clipPath22); stroke:none;" xml:space="preserve">parser : Parser</text>
    </g>
    <g transform="translate(322,234)" style="font-size:11; stroke-linecap:butt; text-rendering:geometricPrecision; font-family:sans-serif; stroke-linejoin:round; stroke-dasharray:4;">
      <line x1="60" x2="50" y1="50" style="clip-path:url(#clipPath23); fill:none;" y2="50" />
    </g>
    <g transform="translate(11,114)" style="font-size:11; stroke-linecap:butt; text-rendering:geometricPrecision; font-family:sans-serif; stroke-linejoin:round;">
      <line x1="50" x2="217" y1="50" style="clip-path:url(#clipPath24); fill:none;" y2="50" />
      <polygon style="clip-path:url(#clipPath24); stroke:none;" points=" 217 50 205 44 205 56" />
      <polygon style="fill:none; clip-path:url(#clipPath24);" points=" 217 50 205 44 205 56" />
    </g>
    <g transform="translate(11,224)" style="font-size:11; stroke-linecap:butt; text-rendering:geometricPrecision; font-family:sans-serif; stroke-linejoin:round;">
      <line x1="50" x2="217" y1="50" style="clip-path:url(#clipPath24); fill:none;" y2="50" />
      <polygon style="clip-path:url(#clipPath24); stroke:none;" points=" 217 50 205 44 205 56" />
      <polygon style="fill:none; clip-path:url(#clipPath24);" points=" 217 50 205 44 205 56" />
    </g>
    <g transform="translate(11,254)" style="font-size:11; stroke-linecap:butt; text-rendering:geometricPrecision; font-family:sans-serif; stroke-linejoin:round; stroke-dasharray:8,3; stroke-miterlimit:0;">
      <line x1="217" x2="50" y1="50" style="clip-path:url(#clipPath24); fill:none;" y2="50" />
      <line x1="50" x2="62" y1="50" style="clip-path:url(#clipPath24); fill:none; stroke-dasharray:none; stroke-miterlimit:10;" y2="56" />
      <line x1="50" x2="62" y1="50" style="clip-path:url(#clipPath24); fill:none; stroke-dasharray:none; stroke-miterlimit:10;" y2="44" />
    </g>
    <g transform="translate(11,144)" style="font-size:11; stroke-linecap:butt; text-rendering:geometricPrecision; font-family:sans-serif; stroke-linejoin:round; stroke-dasharray:8,3; stroke-miterlimit:0;">
      <line x1="217" x2="50" y1="50" style="clip-path:url(#clipPath24); fill:none;" y2="50" />
      <line x1="50" x2="62" y1="50" style="clip-path:url(#clipPath24); fill:none; stroke-dasharray:none; stroke-miterlimit:10;" y2="56" />
      <line x1="50" x2="62" y1="50" style="clip-path:url(#clipPath24); fill:none; stroke-dasharray:none; stroke-miterlimit:10;" y2="44" />
    </g>
    <g transform="translate(202,294)" style="font-size:11; stroke-linecap:butt; text-rendering:geometricPrecision; font-family:sans-serif; stroke-linejoin:round; stroke-dasharray:4;">
      <line x1="50" x2="50" y1="89" style="clip-path:url(#clipPath25); fill:none;" y2="50" />
    </g>
    <g transform="translate(11,294)" style="font-size:11; stroke-linecap:butt; text-rendering:geometricPrecision; font-family:sans-serif; stroke-linejoin:round;">
      <line x1="50" x2="342" y1="50" style="clip-path:url(#clipPath26); fill:none;" y2="50" />
      <polygon style="clip-path:url(#clipPath26); stroke:none;" points=" 342 50 330 44 330 56" />
      <polygon style="fill:none; clip-path:url(#clipPath26);" points=" 342 50 330 44 330 56" />
    </g>
    <g style="text-rendering:geometricPrecision; font-size:11; font-family:sans-serif;" transform="translate(155,324)">
      <text x="10" y="12" style="clip-path:url(#clipPath27); stroke:none;" xml:space="preserve">5: setInput(...)</text>
    </g>
    <g style="text-rendering:geometricPrecision; font-size:11; font-family:sans-serif;" transform="translate(94,174)">
      <text x="11" y="12" style="clip-path:url(#clipPath28); stroke:none;" xml:space="preserve">2: component</text>
    </g>
    <g style="text-rendering:geometricPrecision; font-size:11; font-family:sans-serif;" transform="translate(87,284)">
      <text x="12" y="12" style="clip-path:url(#clipPath29); stroke:none;" xml:space="preserve">4: inputComponent</text>
    </g>
    <g style="text-rendering:geometricPrecision; font-size:11; font-family:sans-serif;" transform="translate(64,254)">
      <text x="12" y="12" style="clip-path:url(#clipPath30); stroke:none;" xml:space="preserve">3: getComponentByName()</text>
    </g>
    <g style="text-rendering:geometricPrecision; font-size:11; font-family:sans-serif;" transform="translate(62,144)">
      <text x="12" y="12" style="clip-path:url(#clipPath30); stroke:none;" xml:space="preserve">1: getComponentByName()</text>
    </g>
  </g>
</svg>
