<?xml version="1.0" encoding="UTF-8"?>

<!DOCTYPE svg PUBLIC '-//W3C//DTD SVG 1.0//EN' 'http://www.w3.org/TR/2001/REC-SVG-20010904/DTD/svg10.dtd'>
<svg style="fill-opacity:1; color-rendering:auto; color-interpolation:auto; stroke:black; text-rendering:auto; stroke-linecap:square; stroke-miterlimit:10; stroke-opacity:1; shape-rendering:auto; fill:black; stroke-dasharray:none; font-weight:normal; stroke-width:1; font-family:&apos;Dialog&apos;; font-style:normal; stroke-linejoin:miter; font-size:12; stroke-dashoffset:0; image-rendering:auto;" xmlns="http://www.w3.org/2000/svg" width="514" xmlns:xlink="http://www.w3.org/1999/xlink" height="658">
  <!--Generated by the Batik Graphics2D SVG Generator-->
  <defs id="genericDefs" />
  <g>
    <defs id="defs1">
      <clipPath clipPathUnits="userSpaceOnUse" id="clipPath1">
        <path d="M-3 -3 L137 -3 L137 617 L-3 617 L-3 -3 Z" />
      </clipPath>
      <clipPath clipPathUnits="userSpaceOnUse" id="clipPath2">
        <path d="M-3 -3 L87 -3 L87 617 L-3 617 L-3 -3 Z" />
      </clipPath>
      <clipPath clipPathUnits="userSpaceOnUse" id="clipPath3">
        <path d="M-3 -3 L67 -3 L67 617 L-3 617 L-3 -3 Z" />
      </clipPath>
      <clipPath clipPathUnits="userSpaceOnUse" id="clipPath4">
        <path d="M-3 -3 L14 -3 L14 521 L-3 521 L-3 -3 Z" />
      </clipPath>
      <clipPath clipPathUnits="userSpaceOnUse" id="clipPath5">
        <path d="M-3 -3 L15 -3 L15 38 L-3 38 L-3 -3 Z" />
      </clipPath>
      <clipPath clipPathUnits="userSpaceOnUse" id="clipPath6">
        <path d="M-3 -3 L477 -3 L477 240 L-3 240 L-3 -3 Z" />
      </clipPath>
      <clipPath clipPathUnits="userSpaceOnUse" id="clipPath7">
        <path d="M0 0 L23 0 L23 18 L0 18 L0 0 Z" />
      </clipPath>
      <clipPath clipPathUnits="userSpaceOnUse" id="clipPath8">
        <path d="M-3 -3 L477 -3 L477 132 L-3 132 L-3 -3 Z" />
      </clipPath>
      <clipPath clipPathUnits="userSpaceOnUse" id="clipPath9">
        <path d="M0 0 L46 0 L46 15 L0 15 L0 0 Z" />
      </clipPath>
      <clipPath clipPathUnits="userSpaceOnUse" id="clipPath10">
        <path d="M0 0 L0 4 L470 4 L470 0 Z" />
      </clipPath>
      <clipPath clipPathUnits="userSpaceOnUse" id="clipPath11">
        <path d="M-3 -3 L15 -3 L15 19 L-3 19 L-3 -3 Z" />
      </clipPath>
      <clipPath clipPathUnits="userSpaceOnUse" id="clipPath12">
        <path d="M-3 -3 L237 -3 L237 157 L-3 157 L-3 -3 Z" />
      </clipPath>
      <clipPath clipPathUnits="userSpaceOnUse" id="clipPath13">
        <path d="M0 0 L33 0 L33 18 L0 18 L0 0 Z" />
      </clipPath>
      <clipPath clipPathUnits="userSpaceOnUse" id="clipPath14">
        <path d="M-3 -3 L477 -3 L477 97 L-3 97 L-3 -3 Z" />
      </clipPath>
      <clipPath clipPathUnits="userSpaceOnUse" id="clipPath15">
        <path d="M0 0 L100 0 L100 15 L0 15 L0 0 Z" />
      </clipPath>
      <clipPath clipPathUnits="userSpaceOnUse" id="clipPath16">
        <path d="M-3 -3 L237 -3 L237 139 L-3 139 L-3 -3 Z" />
      </clipPath>
      <clipPath clipPathUnits="userSpaceOnUse" id="clipPath17">
        <path d="M0 0 L193 0 L193 15 L0 15 L0 0 Z" />
      </clipPath>
      <clipPath clipPathUnits="userSpaceOnUse" id="clipPath18">
        <path d="M0 0 L0 4 L230 4 L230 0 Z" />
      </clipPath>
      <clipPath clipPathUnits="userSpaceOnUse" id="clipPath19">
        <path d="M-78 -15 L156 -15 L156 30 L-78 30 L-78 -15 Z" />
      </clipPath>
      <clipPath clipPathUnits="userSpaceOnUse" id="clipPath20">
        <path d="M-80 -15 L160 -15 L160 30 L-80 30 L-80 -15 Z" />
      </clipPath>
      <clipPath clipPathUnits="userSpaceOnUse" id="clipPath21">
        <path d="M-130 -15 L260 -15 L260 30 L-130 30 L-130 -15 Z" />
      </clipPath>
      <clipPath clipPathUnits="userSpaceOnUse" id="clipPath22">
        <path d="M0 0 L146 0 L146 135 L0 135 L0 0 Z" />
      </clipPath>
      <clipPath clipPathUnits="userSpaceOnUse" id="clipPath23">
        <path d="M0 0 L341 0 L341 115 L0 115 L0 0 Z" />
      </clipPath>
      <clipPath clipPathUnits="userSpaceOnUse" id="clipPath24">
        <path d="M0 0 L282 0 L282 115 L0 115 L0 0 Z" />
      </clipPath>
      <clipPath clipPathUnits="userSpaceOnUse" id="clipPath25">
        <path d="M-124 -15 L248 -15 L248 30 L-124 30 L-124 -15 Z" />
      </clipPath>
      <clipPath clipPathUnits="userSpaceOnUse" id="clipPath26">
        <path d="M-255 -15 L510 -15 L510 30 L-255 30 L-255 -15 Z" />
      </clipPath>
      <clipPath clipPathUnits="userSpaceOnUse" id="clipPath27">
        <path d="M-121 -15 L242 -15 L242 30 L-121 30 L-121 -15 Z" />
      </clipPath>
      <clipPath clipPathUnits="userSpaceOnUse" id="clipPath28">
        <path d="M-291 -15 L582 -15 L582 30 L-291 30 L-291 -15 Z" />
      </clipPath>
      <clipPath clipPathUnits="userSpaceOnUse" id="clipPath29">
        <path d="M-143 -15 L286 -15 L286 30 L-143 30 L-143 -15 Z" />
      </clipPath>
      <clipPath clipPathUnits="userSpaceOnUse" id="clipPath30">
        <path d="M-127 -15 L254 -15 L254 30 L-127 30 L-127 -15 Z" />
      </clipPath>
      <clipPath clipPathUnits="userSpaceOnUse" id="clipPath31">
        <path d="M-140 -15 L280 -15 L280 30 L-140 30 L-140 -15 Z" />
      </clipPath>
      <clipPath clipPathUnits="userSpaceOnUse" id="clipPath32">
        <path d="M-95 -15 L190 -15 L190 30 L-95 30 L-95 -15 Z" />
      </clipPath>
      <clipPath clipPathUnits="userSpaceOnUse" id="clipPath33">
        <path d="M-61 -15 L122 -15 L122 30 L-61 30 L-61 -15 Z" />
      </clipPath>
      <clipPath clipPathUnits="userSpaceOnUse" id="clipPath34">
        <path d="M-91 -15 L182 -15 L182 30 L-91 30 L-91 -15 Z" />
      </clipPath>
    </defs>
    <g style="fill:white; text-rendering:geometricPrecision; stroke:white;">
      <rect x="0" y="0" width="514" style="stroke:none;" height="658" />
      <rect x="0" y="38" transform="translate(0,-38)" width="513" style="fill:none; stroke:black;" height="657" />
      <text x="7" y="55" transform="translate(0,-38)" style="fill:black; stroke:none; font-weight:bold;" xml:space="preserve">sd</text>
      <text x="28" y="55" transform="translate(0,-38)" style="fill:black; stroke:none;" xml:space="preserve">Szimuláció</text>
      <line transform="translate(0,-38)" x1="0" x2="88" y1="62" style="fill:none; stroke:black;" y2="62" />
      <line transform="translate(0,-38)" x1="94" x2="94" y1="38" style="fill:none; stroke:black;" y2="52" />
      <line transform="translate(0,-38)" x1="94" x2="88" y1="52" style="fill:none; stroke:black;" y2="62" />
    </g>
    <g transform="translate(220,34)" style="font-size:11; fill:white; text-rendering:geometricPrecision; font-family:sans-serif; stroke:white;">
      <rect x="0" y="0" width="129" style="clip-path:url(#clipPath1); stroke:none;" height="35" />
    </g>
    <g transform="translate(220,34)" style="font-size:11; stroke-linecap:butt; text-rendering:geometricPrecision; font-family:sans-serif; stroke-linejoin:round; stroke-miterlimit:0;">
      <rect x="0" y="0" width="129" style="clip-path:url(#clipPath1); fill:none;" height="35" />
      <line x1="64" x2="64" y1="35" style="clip-path:url(#clipPath1); fill:none; stroke-linejoin:bevel; stroke-dasharray:8,3;" y2="610" />
    </g>
    <g transform="translate(420,34)" style="font-size:11; fill:white; text-rendering:geometricPrecision; font-family:sans-serif; stroke:white;">
      <rect x="0" y="0" width="79" style="clip-path:url(#clipPath2); stroke:none;" height="35" />
    </g>
    <g transform="translate(420,34)" style="font-size:11; stroke-linecap:butt; text-rendering:geometricPrecision; font-family:sans-serif; stroke-linejoin:round; stroke-miterlimit:0;">
      <rect x="0" y="0" width="79" style="clip-path:url(#clipPath2); fill:none;" height="35" />
      <line x1="39" x2="39" y1="35" style="clip-path:url(#clipPath2); fill:none; stroke-linejoin:bevel; stroke-dasharray:8,3;" y2="610" />
    </g>
    <g transform="translate(20,34)" style="font-size:11; stroke-linecap:butt; text-rendering:geometricPrecision; font-family:sans-serif; stroke-linejoin:round; stroke-miterlimit:0;">
      <circle style="fill:none; clip-path:url(#clipPath3);" r="5" cx="30" cy="5" />
      <rect x="26" y="49" width="8" style="clip-path:url(#clipPath3); fill:none;" height="560" />
      <line x1="30" x2="30" y1="10" style="clip-path:url(#clipPath3); fill:none;" y2="25" />
      <line x1="30" x2="21" y1="25" style="clip-path:url(#clipPath3); fill:none;" y2="36" />
      <line x1="30" x2="39" y1="25" style="clip-path:url(#clipPath3); fill:none;" y2="36" />
      <line x1="21" x2="39" y1="16" style="clip-path:url(#clipPath3); fill:none;" y2="16" />
    </g>
    <g transform="translate(281,108)" style="font-size:11; fill:white; text-rendering:geometricPrecision; font-family:sans-serif; stroke:white;">
      <rect x="0" y="0" width="7" style="clip-path:url(#clipPath4); stroke:none;" height="514" />
    </g>
    <g transform="translate(281,108)" style="font-size:11; stroke-linecap:butt; text-rendering:geometricPrecision; font-family:sans-serif; stroke-linejoin:round; stroke-miterlimit:0;">
      <rect x="0" y="0" width="7" style="clip-path:url(#clipPath4); fill:none;" height="514" />
    </g>
    <g transform="translate(456,268)" style="font-size:11; fill:white; text-rendering:geometricPrecision; font-family:sans-serif; stroke:white;">
      <rect x="0" y="0" width="8" style="clip-path:url(#clipPath5); stroke:none;" height="31" />
    </g>
    <g transform="translate(456,268)" style="font-size:11; stroke-linecap:butt; text-rendering:geometricPrecision; font-family:sans-serif; stroke-linejoin:round; stroke-miterlimit:0;">
      <rect x="0" y="0" width="8" style="clip-path:url(#clipPath5); fill:none;" height="31" />
    </g>
    <g transform="translate(30,374)" style="font-size:11; stroke-linecap:butt; text-rendering:geometricPrecision; font-family:sans-serif; stroke-linejoin:round; font-weight:bold; stroke-miterlimit:0;">
      <rect x="0" y="0" width="470" style="clip-path:url(#clipPath6); fill:none;" height="233" />
    </g>
    <g transform="translate(30,374)" style="font-size:11; fill:white; text-rendering:geometricPrecision; font-family:sans-serif; stroke:white; font-weight:bold;">
      <path d="M22 0 L22 9 L16 17 L0 17 L0 0 Z" style="clip-path:url(#clipPath6); stroke:none;" />
    </g>
    <g transform="translate(30,374)" style="font-size:11; stroke-linecap:butt; text-rendering:geometricPrecision; font-family:sans-serif; stroke-linejoin:round; font-weight:bold; stroke-miterlimit:0;">
      <path d="M22 0 L22 9 L16 17 L0 17 L0 0 Z" style="fill:none; clip-path:url(#clipPath6);" />
    </g>
    <g transform="translate(30,374)" style="text-rendering:geometricPrecision; font-size:11; font-weight:bold; font-family:sans-serif;">
      <text x="5" y="12" style="clip-path:url(#clipPath7); stroke:none;" xml:space="preserve">alt</text>
    </g>
    <g transform="translate(30,482)" style="font-size:11; fill:white; text-rendering:geometricPrecision; font-family:sans-serif; stroke:white;">
      <rect x="28" y="5" width="46" style="clip-path:url(#clipPath8); stroke:none;" height="15" />
    </g>
    <g style="text-rendering:geometricPrecision; font-size:11; font-family:sans-serif;" transform="translate(58,487)">
      <text x="10" y="12" style="clip-path:url(#clipPath9); stroke:none;" xml:space="preserve">[else]</text>
    </g>
    <g transform="translate(456,502)" style="font-size:11; fill:white; text-rendering:geometricPrecision; font-family:sans-serif; stroke:white;">
      <rect x="0" y="0" width="8" style="clip-path:url(#clipPath11); stroke:none;" height="12" />
    </g>
    <g transform="translate(456,502)" style="font-size:11; stroke-linecap:butt; text-rendering:geometricPrecision; font-family:sans-serif; stroke-linejoin:round; stroke-miterlimit:0;">
      <rect x="0" y="0" width="8" style="clip-path:url(#clipPath11); fill:none;" height="12" />
    </g>
    <g transform="translate(260,204)" style="font-size:11; stroke-linecap:butt; text-rendering:geometricPrecision; font-family:sans-serif; stroke-linejoin:round; font-weight:bold; stroke-miterlimit:0;">
      <rect x="0" y="0" width="230" style="clip-path:url(#clipPath12); fill:none;" height="150" />
    </g>
    <g transform="translate(260,204)" style="font-size:11; fill:white; text-rendering:geometricPrecision; font-family:sans-serif; stroke:white; font-weight:bold;">
      <path d="M32 0 L32 9 L26 17 L0 17 L0 0 Z" style="clip-path:url(#clipPath12); stroke:none;" />
    </g>
    <g transform="translate(260,204)" style="font-size:11; stroke-linecap:butt; text-rendering:geometricPrecision; font-family:sans-serif; stroke-linejoin:round; font-weight:bold; stroke-miterlimit:0;">
      <path d="M32 0 L32 9 L26 17 L0 17 L0 0 Z" style="fill:none; clip-path:url(#clipPath12);" />
    </g>
    <g transform="translate(260,204)" style="text-rendering:geometricPrecision; font-size:11; font-weight:bold; font-family:sans-serif;">
      <text x="4" y="12" style="clip-path:url(#clipPath13); stroke:none;" xml:space="preserve">loop</text>
    </g>
    <g transform="translate(30,392)" style="font-size:11; fill:white; text-rendering:geometricPrecision; font-family:sans-serif; stroke:white;">
      <rect x="28" y="5" width="100" style="clip-path:url(#clipPath14); stroke:none;" height="15" />
    </g>
    <g transform="translate(30,392)" style="font-size:11; stroke-linecap:butt; text-rendering:geometricPrecision; font-family:sans-serif; stroke-linejoin:bevel; stroke-dasharray:5,2; stroke-miterlimit:0;">
      <line x1="0" x2="469" y1="89" style="clip-path:url(#clipPath14); fill:none;" y2="89" />
    </g>
    <g style="text-rendering:geometricPrecision; font-size:11; font-family:sans-serif;" transform="translate(58,397)">
      <text x="10" y="12" style="clip-path:url(#clipPath15); stroke:none;" xml:space="preserve">[counter &gt;= 100]</text>
    </g>
    <g transform="translate(260,222)" style="font-size:11; fill:white; text-rendering:geometricPrecision; font-family:sans-serif; stroke:white;">
      <rect x="28" y="5" width="193" style="clip-path:url(#clipPath16); stroke:none;" height="15" />
    </g>
    <g style="text-rendering:geometricPrecision; font-size:11; font-family:sans-serif;" transform="translate(288,227)">
      <text x="11" y="12" style="clip-path:url(#clipPath17); stroke:none;" xml:space="preserve">[counter &lt; 100 és !circuit.isStable()]</text>
    </g>
    <g style="text-rendering:geometricPrecision; font-size:11; font-family:sans-serif;" transform="translate(11,68)">
      <text x="9" y="12" style="clip-path:url(#clipPath19); stroke:none;" xml:space="preserve">Felhasználó</text>
    </g>
    <g style="text-rendering:geometricPrecision; font-size:11; font-family:sans-serif;" transform="translate(420,34)">
      <text x="4" y="12" style="clip-path:url(#clipPath20); stroke:none;" xml:space="preserve">circuit : Circuit</text>
    </g>
    <g style="text-rendering:geometricPrecision; font-size:11; font-family:sans-serif;" transform="translate(220,34)">
      <text x="9" y="12" style="clip-path:url(#clipPath21); stroke:none;" xml:space="preserve">simulation : Simulation</text>
    </g>
    <g transform="translate(233,248)" style="font-size:11; stroke-linecap:butt; text-rendering:geometricPrecision; font-family:sans-serif; stroke-linejoin:round;">
      <line x1="55" x2="86" y1="56" style="clip-path:url(#clipPath22); fill:none;" y2="56" />
      <line x1="86" x2="86" y1="56" style="clip-path:url(#clipPath22); fill:none;" y2="76" />
      <line x1="86" x2="55" y1="76" style="clip-path:url(#clipPath22); fill:none;" y2="76" />
      <polygon style="clip-path:url(#clipPath22); stroke:none;" points=" 55 76 67 82 67 70" />
      <polygon style="fill:none; clip-path:url(#clipPath22);" points=" 55 76 67 82 67 70" />
    </g>
    <g transform="translate(-1,58)" style="font-size:11; stroke-linecap:butt; text-rendering:geometricPrecision; font-family:sans-serif; stroke-linejoin:round;">
      <line x1="55" x2="282" y1="56" style="clip-path:url(#clipPath23); fill:none;" y2="56" />
      <polygon style="clip-path:url(#clipPath23); stroke:none;" points=" 282 56 270 50 270 62" />
      <polygon style="fill:none; clip-path:url(#clipPath23);" points=" 282 56 270 50 270 62" />
    </g>
    <g transform="translate(233,108)" style="font-size:11; stroke-linecap:butt; text-rendering:geometricPrecision; font-family:sans-serif; stroke-linejoin:round;">
      <line x1="55" x2="86" y1="56" style="clip-path:url(#clipPath22); fill:none;" y2="56" />
      <line x1="86" x2="86" y1="56" style="clip-path:url(#clipPath22); fill:none;" y2="76" />
      <line x1="86" x2="55" y1="76" style="clip-path:url(#clipPath22); fill:none;" y2="76" />
      <polygon style="clip-path:url(#clipPath22); stroke:none;" points=" 55 76 67 82 67 70" />
      <polygon style="fill:none; clip-path:url(#clipPath22);" points=" 55 76 67 82 67 70" />
    </g>
    <g transform="translate(233,218)" style="font-size:11; stroke-linecap:butt; text-rendering:geometricPrecision; font-family:sans-serif; stroke-linejoin:round;">
      <line x1="55" x2="223" y1="56" style="clip-path:url(#clipPath24); fill:none;" y2="56" />
      <polygon style="clip-path:url(#clipPath24); stroke:none;" points=" 223 56 211 50 211 62" />
      <polygon style="fill:none; clip-path:url(#clipPath24);" points=" 223 56 211 50 211 62" />
    </g>
    <g transform="translate(233,338)" style="font-size:11; stroke-linecap:butt; text-rendering:geometricPrecision; font-family:sans-serif; stroke-linejoin:round;">
      <line x1="55" x2="86" y1="56" style="clip-path:url(#clipPath22); fill:none;" y2="56" />
      <line x1="86" x2="86" y1="56" style="clip-path:url(#clipPath22); fill:none;" y2="76" />
      <line x1="86" x2="55" y1="76" style="clip-path:url(#clipPath22); fill:none;" y2="76" />
      <polygon style="clip-path:url(#clipPath22); stroke:none;" points=" 55 76 67 82 67 70" />
      <polygon style="fill:none; clip-path:url(#clipPath22);" points=" 55 76 67 82 67 70" />
    </g>
    <g transform="translate(233,68)" style="font-size:11; stroke-linecap:butt; text-rendering:geometricPrecision; font-family:sans-serif; stroke-linejoin:round;">
      <line x1="55" x2="86" y1="56" style="clip-path:url(#clipPath22); fill:none;" y2="56" />
      <line x1="86" x2="86" y1="56" style="clip-path:url(#clipPath22); fill:none;" y2="76" />
      <line x1="86" x2="55" y1="76" style="clip-path:url(#clipPath22); fill:none;" y2="76" />
      <polygon style="clip-path:url(#clipPath22); stroke:none;" points=" 55 76 67 82 67 70" />
      <polygon style="fill:none; clip-path:url(#clipPath22);" points=" 55 76 67 82 67 70" />
    </g>
    <g transform="translate(-1,398)" style="font-size:11; stroke-linecap:butt; text-rendering:geometricPrecision; font-family:sans-serif; stroke-linejoin:round; stroke-dasharray:8,3; stroke-miterlimit:0;">
      <line x1="282" x2="55" y1="56" style="clip-path:url(#clipPath23); fill:none;" y2="56" />
      <line x1="55" x2="67" y1="56" style="clip-path:url(#clipPath23); fill:none; stroke-dasharray:none; stroke-miterlimit:10;" y2="62" />
      <line x1="55" x2="67" y1="56" style="clip-path:url(#clipPath23); fill:none; stroke-dasharray:none; stroke-miterlimit:10;" y2="50" />
    </g>
    <g transform="translate(233,468)" style="font-size:11; stroke-linecap:butt; text-rendering:geometricPrecision; font-family:sans-serif; stroke-linejoin:round;">
      <line x1="55" x2="86" y1="56" style="clip-path:url(#clipPath22); fill:none;" y2="56" />
      <line x1="86" x2="86" y1="56" style="clip-path:url(#clipPath22); fill:none;" y2="76" />
      <line x1="86" x2="55" y1="76" style="clip-path:url(#clipPath22); fill:none;" y2="76" />
      <polygon style="clip-path:url(#clipPath22); stroke:none;" points=" 55 76 67 82 67 70" />
      <polygon style="fill:none; clip-path:url(#clipPath22);" points=" 55 76 67 82 67 70" />
    </g>
    <g transform="translate(-1,528)" style="font-size:11; stroke-linecap:butt; text-rendering:geometricPrecision; font-family:sans-serif; stroke-linejoin:round; stroke-dasharray:8,3; stroke-miterlimit:0;">
      <line x1="282" x2="55" y1="56" style="clip-path:url(#clipPath23); fill:none;" y2="56" />
      <line x1="55" x2="67" y1="56" style="clip-path:url(#clipPath23); fill:none; stroke-dasharray:none; stroke-miterlimit:10;" y2="62" />
      <line x1="55" x2="67" y1="56" style="clip-path:url(#clipPath23); fill:none; stroke-dasharray:none; stroke-miterlimit:10;" y2="50" />
    </g>
    <g transform="translate(233,448)" style="font-size:11; stroke-linecap:butt; text-rendering:geometricPrecision; font-family:sans-serif; stroke-linejoin:round;">
      <line x1="55" x2="223" y1="56" style="clip-path:url(#clipPath24); fill:none;" y2="56" />
      <polygon style="clip-path:url(#clipPath24); stroke:none;" points=" 223 56 211 50 211 62" />
      <polygon style="fill:none; clip-path:url(#clipPath24);" points=" 223 56 211 50 211 62" />
    </g>
    <g style="text-rendering:geometricPrecision; font-size:11; font-family:sans-serif;" transform="translate(310,482)">
      <text x="9" y="12" style="clip-path:url(#clipPath25); stroke:none;" xml:space="preserve">1.7: stepGenerators()</text>
    </g>
    <g style="text-rendering:geometricPrecision; font-size:11; font-family:sans-serif;" transform="translate(50,562)">
      <text x="12" y="12" style="clip-path:url(#clipPath26); stroke:none;" xml:space="preserve">1.9: A szimuláció lefutott az adott kombinációkra</text>
    </g>
    <g style="text-rendering:geometricPrecision; font-size:11; font-family:sans-serif;" transform="translate(320,524)">
      <text x="12" y="12" style="clip-path:url(#clipPath27); stroke:none;" xml:space="preserve">1.8: setState(DONE)</text>
    </g>
    <g style="text-rendering:geometricPrecision; font-size:11; font-family:sans-serif;" transform="translate(50,432)">
      <text x="12" y="12" style="clip-path:url(#clipPath28); stroke:none;" xml:space="preserve">1.6: "A szimuláció leállt, mert nincs stacionárius állapot"</text>
    </g>
    <g style="text-rendering:geometricPrecision; font-size:11; font-family:sans-serif;" transform="translate(320,124)">
      <text x="12" y="12" style="clip-path:url(#clipPath29); stroke:none;" xml:space="preserve">1.1: setState(WORKING)</text>
    </g>
    <g style="text-rendering:geometricPrecision; font-size:11; font-family:sans-serif;" transform="translate(320,394)">
      <text x="11" y="12" style="clip-path:url(#clipPath30); stroke:none;" xml:space="preserve">1.5: setState(FAILED)</text>
    </g>
    <g style="text-rendering:geometricPrecision; font-size:11; font-family:sans-serif;" transform="translate(302,250)">
      <text x="11" y="12" style="clip-path:url(#clipPath31); stroke:none;" xml:space="preserve">1.3: doEvaluationCycle()</text>
    </g>
    <g style="text-rendering:geometricPrecision; font-size:11; font-family:sans-serif;" transform="translate(320,164)">
      <text x="9" y="12" style="clip-path:url(#clipPath32); stroke:none;" xml:space="preserve">1.2: counter = 0</text>
    </g>
    <g style="text-rendering:geometricPrecision; font-size:11; font-family:sans-serif;" transform="translate(135,90)">
      <text x="9" y="12" style="clip-path:url(#clipPath33); stroke:none;" xml:space="preserve">1: start()</text>
    </g>
    <g style="text-rendering:geometricPrecision; font-size:11; font-family:sans-serif;" transform="translate(320,304)">
      <text x="10" y="12" style="clip-path:url(#clipPath34); stroke:none;" xml:space="preserve">1.4: counter++</text>
    </g>
  </g>
</svg>
