<?xml version="1.0" encoding="UTF-8"?>

<!DOCTYPE svg PUBLIC '-//W3C//DTD SVG 1.0//EN' 'http://www.w3.org/TR/2001/REC-SVG-20010904/DTD/svg10.dtd'>
<svg style="fill-opacity:1; color-rendering:auto; color-interpolation:auto; stroke:black; text-rendering:auto; stroke-linecap:square; stroke-miterlimit:10; stroke-opacity:1; shape-rendering:auto; fill:black; stroke-dasharray:none; font-weight:normal; stroke-width:1; font-family:&apos;Dialog&apos;; font-style:normal; stroke-linejoin:miter; font-size:12; stroke-dashoffset:0; image-rendering:auto;" xmlns="http://www.w3.org/2000/svg" width="514" xmlns:xlink="http://www.w3.org/1999/xlink" height="658">
  <!--Generated by the Batik Graphics2D SVG Generator-->
  <defs id="genericDefs" />
  <g>
    <defs id="defs1">
      <clipPath clipPathUnits="userSpaceOnUse" id="clipPath1">
        <path d="M-3 -3 L137 -3 L137 617 L-3 617 L-3 -3 Z" />
      </clipPath>
      <clipPath clipPathUnits="userSpaceOnUse" id="clipPath2">
        <path d="M-3 -3 L87 -3 L87 617 L-3 617 L-3 -3 Z" />
      </clipPath>
      <clipPath clipPathUnits="userSpaceOnUse" id="clipPath3">
        <path d="M-3 -3 L67 -3 L67 617 L-3 617 L-3 -3 Z" />
      </clipPath>
      <clipPath clipPathUnits="userSpaceOnUse" id="clipPath4">
        <path d="M-3 -3 L13 -3 L13 510 L-3 510 L-3 -3 Z" />
      </clipPath>
      <clipPath clipPathUnits="userSpaceOnUse" id="clipPath5">
        <path d="M-3 -3 L237 -3 L237 157 L-3 157 L-3 -3 Z" />
      </clipPath>
      <clipPath clipPathUnits="userSpaceOnUse" id="clipPath6">
        <path d="M0 0 L33 0 L33 18 L0 18 L0 0 Z" />
      </clipPath>
      <clipPath clipPathUnits="userSpaceOnUse" id="clipPath7">
        <path d="M-3 -3 L237 -3 L237 139 L-3 139 L-3 -3 Z" />
      </clipPath>
      <clipPath clipPathUnits="userSpaceOnUse" id="clipPath8">
        <path d="M0 0 L202 0 L202 15 L0 15 L0 0 Z" />
      </clipPath>
      <clipPath clipPathUnits="userSpaceOnUse" id="clipPath9">
        <path d="M0 0 L0 4 L230 4 L230 0 Z" />
      </clipPath>
      <clipPath clipPathUnits="userSpaceOnUse" id="clipPath10">
        <path d="M-3 -3 L14 -3 L14 37 L-3 37 L-3 -3 Z" />
      </clipPath>
      <clipPath clipPathUnits="userSpaceOnUse" id="clipPath11">
        <path d="M-3 -3 L477 -3 L477 239 L-3 239 L-3 -3 Z" />
      </clipPath>
      <clipPath clipPathUnits="userSpaceOnUse" id="clipPath12">
        <path d="M0 0 L23 0 L23 18 L0 18 L0 0 Z" />
      </clipPath>
      <clipPath clipPathUnits="userSpaceOnUse" id="clipPath13">
        <path d="M-3 -3 L477 -3 L477 131 L-3 131 L-3 -3 Z" />
      </clipPath>
      <clipPath clipPathUnits="userSpaceOnUse" id="clipPath14">
        <path d="M0 0 L71 0 L71 15 L0 15 L0 0 Z" />
      </clipPath>
      <clipPath clipPathUnits="userSpaceOnUse" id="clipPath15">
        <path d="M0 0 L0 4 L470 4 L470 0 Z" />
      </clipPath>
      <clipPath clipPathUnits="userSpaceOnUse" id="clipPath16">
        <path d="M-3 -3 L14 -3 L14 18 L-3 18 L-3 -3 Z" />
      </clipPath>
      <clipPath clipPathUnits="userSpaceOnUse" id="clipPath17">
        <path d="M-3 -3 L477 -3 L477 97 L-3 97 L-3 -3 Z" />
      </clipPath>
      <clipPath clipPathUnits="userSpaceOnUse" id="clipPath18">
        <path d="M0 0 L100 0 L100 15 L0 15 L0 0 Z" />
      </clipPath>
      <clipPath clipPathUnits="userSpaceOnUse" id="clipPath19">
        <path d="M-3 -3 L127 -3 L127 67 L-3 67 L-3 -3 Z" />
      </clipPath>
      <clipPath clipPathUnits="userSpaceOnUse" id="clipPath20">
        <path d="M0 0 L0 60 L120 60 L120 0 Z" />
      </clipPath>
      <clipPath clipPathUnits="userSpaceOnUse" id="clipPath21">
        <path d="M-3 -3 L117 -3 L117 67 L-3 67 L-3 -3 Z" />
      </clipPath>
      <clipPath clipPathUnits="userSpaceOnUse" id="clipPath22">
        <path d="M0 0 L0 60 L110 60 L110 0 Z" />
      </clipPath>
      <clipPath clipPathUnits="userSpaceOnUse" id="clipPath23">
        <path d="M-3 -3 L107 -3 L107 67 L-3 67 L-3 -3 Z" />
      </clipPath>
      <clipPath clipPathUnits="userSpaceOnUse" id="clipPath24">
        <path d="M0 0 L0 60 L100 60 L100 0 Z" />
      </clipPath>
      <clipPath clipPathUnits="userSpaceOnUse" id="clipPath25">
        <path d="M-77 -15 L154 -15 L154 30 L-77 30 L-77 -15 Z" />
      </clipPath>
      <clipPath clipPathUnits="userSpaceOnUse" id="clipPath26">
        <path d="M-80 -15 L160 -15 L160 30 L-80 30 L-80 -15 Z" />
      </clipPath>
      <clipPath clipPathUnits="userSpaceOnUse" id="clipPath27">
        <path d="M-130 -15 L260 -15 L260 30 L-130 30 L-130 -15 Z" />
      </clipPath>
      <clipPath clipPathUnits="userSpaceOnUse" id="clipPath28">
        <path d="M0 0 L142 0 L142 135 L0 135 L0 0 Z" />
      </clipPath>
      <clipPath clipPathUnits="userSpaceOnUse" id="clipPath29">
        <path d="M0 0 L341 0 L341 115 L0 115 L0 0 Z" />
      </clipPath>
      <clipPath clipPathUnits="userSpaceOnUse" id="clipPath30">
        <path d="M0 0 L281 0 L281 115 L0 115 L0 0 Z" />
      </clipPath>
      <clipPath clipPathUnits="userSpaceOnUse" id="clipPath31">
        <path d="M0 0 L147 0 L147 135 L0 135 L0 0 Z" />
      </clipPath>
      <clipPath clipPathUnits="userSpaceOnUse" id="clipPath32">
        <path d="M0 0 L165 0 L165 115 L0 115 L0 0 Z" />
      </clipPath>
      <clipPath clipPathUnits="userSpaceOnUse" id="clipPath33">
        <path d="M0 0 L166 0 L166 115 L0 115 L0 0 Z" />
      </clipPath>
      <clipPath clipPathUnits="userSpaceOnUse" id="clipPath34">
        <path d="M0 0 L141 0 L141 81 L0 81 L0 0 Z" />
      </clipPath>
      <clipPath clipPathUnits="userSpaceOnUse" id="clipPath35">
        <path d="M-97 -15 L194 -15 L194 30 L-97 30 L-97 -15 Z" />
      </clipPath>
      <clipPath clipPathUnits="userSpaceOnUse" id="clipPath36">
        <path d="M-125 -15 L250 -15 L250 30 L-125 30 L-125 -15 Z" />
      </clipPath>
      <clipPath clipPathUnits="userSpaceOnUse" id="clipPath37">
        <path d="M-263 -15 L526 -15 L526 30 L-263 30 L-263 -15 Z" />
      </clipPath>
      <clipPath clipPathUnits="userSpaceOnUse" id="clipPath38">
        <path d="M-291 -15 L582 -15 L582 30 L-291 30 L-291 -15 Z" />
      </clipPath>
      <clipPath clipPathUnits="userSpaceOnUse" id="clipPath39">
        <path d="M-140 -15 L280 -15 L280 30 L-140 30 L-140 -15 Z" />
      </clipPath>
      <clipPath clipPathUnits="userSpaceOnUse" id="clipPath40">
        <path d="M-61 -15 L122 -15 L122 30 L-61 30 L-61 -15 Z" />
      </clipPath>
      <clipPath clipPathUnits="userSpaceOnUse" id="clipPath41">
        <path d="M-91 -15 L182 -15 L182 30 L-91 30 L-91 -15 Z" />
      </clipPath>
    </defs>
    <g style="fill:white; text-rendering:geometricPrecision; stroke:white;">
      <rect x="0" y="0" width="514" style="stroke:none;" height="658" />
      <rect x="0" y="38" transform="translate(0,-38)" width="513" style="fill:none; stroke:black;" height="657" />
      <text x="7" y="55" transform="translate(0,-38)" style="fill:black; stroke:none; font-weight:bold;" xml:space="preserve">sd</text>
      <text x="28" y="55" transform="translate(0,-38)" style="fill:black; stroke:none;" xml:space="preserve">Szimuláció</text>
      <line transform="translate(0,-38)" x1="0" x2="88" y1="62" style="fill:none; stroke:black;" y2="62" />
      <line transform="translate(0,-38)" x1="94" x2="94" y1="38" style="fill:none; stroke:black;" y2="52" />
      <line transform="translate(0,-38)" x1="94" x2="88" y1="52" style="fill:none; stroke:black;" y2="62" />
    </g>
    <g transform="translate(220,34)" style="font-size:11; fill:white; text-rendering:geometricPrecision; font-family:sans-serif; stroke:white;">
      <rect x="0" y="0" width="129" style="clip-path:url(#clipPath1); stroke:none;" height="35" />
    </g>
    <g transform="translate(220,34)" style="font-size:11; stroke-linecap:butt; text-rendering:geometricPrecision; font-family:sans-serif; stroke-linejoin:round; stroke-miterlimit:0;">
      <rect x="0" y="0" width="129" style="clip-path:url(#clipPath1); fill:none;" height="35" />
      <line x1="64" x2="64" y1="35" style="clip-path:url(#clipPath1); fill:none; stroke-linejoin:bevel; stroke-dasharray:8,3;" y2="610" />
    </g>
    <g transform="translate(420,34)" style="font-size:11; fill:white; text-rendering:geometricPrecision; font-family:sans-serif; stroke:white;">
      <rect x="0" y="0" width="79" style="clip-path:url(#clipPath2); stroke:none;" height="35" />
    </g>
    <g transform="translate(420,34)" style="font-size:11; stroke-linecap:butt; text-rendering:geometricPrecision; font-family:sans-serif; stroke-linejoin:round; stroke-miterlimit:0;">
      <rect x="0" y="0" width="79" style="clip-path:url(#clipPath2); fill:none;" height="35" />
      <line x1="39" x2="39" y1="35" style="clip-path:url(#clipPath2); fill:none; stroke-linejoin:bevel; stroke-dasharray:8,3;" y2="610" />
    </g>
    <g transform="translate(20,34)" style="font-size:11; stroke-linecap:butt; text-rendering:geometricPrecision; font-family:sans-serif; stroke-linejoin:round; stroke-miterlimit:0;">
      <circle style="fill:none; clip-path:url(#clipPath3);" r="5" cx="30" cy="5" />
      <rect x="26" y="49" width="8" style="clip-path:url(#clipPath3); fill:none;" height="560" />
      <line x1="30" x2="30" y1="10" style="clip-path:url(#clipPath3); fill:none;" y2="25" />
      <line x1="30" x2="21" y1="25" style="clip-path:url(#clipPath3); fill:none;" y2="36" />
      <line x1="30" x2="39" y1="25" style="clip-path:url(#clipPath3); fill:none;" y2="36" />
      <line x1="21" x2="39" y1="16" style="clip-path:url(#clipPath3); fill:none;" y2="16" />
    </g>
    <g transform="translate(281,118)" style="font-size:11; fill:white; text-rendering:geometricPrecision; font-family:sans-serif; stroke:white;">
      <rect x="0" y="0" width="6" style="clip-path:url(#clipPath4); stroke:none;" height="503" />
    </g>
    <g transform="translate(281,118)" style="font-size:11; stroke-linecap:butt; text-rendering:geometricPrecision; font-family:sans-serif; stroke-linejoin:round; stroke-miterlimit:0;">
      <rect x="0" y="0" width="6" style="clip-path:url(#clipPath4); fill:none;" height="503" />
    </g>
    <g transform="translate(260,214)" style="font-size:11; stroke-linecap:butt; text-rendering:geometricPrecision; font-family:sans-serif; stroke-linejoin:round; font-weight:bold; stroke-miterlimit:0;">
      <rect x="0" y="0" width="230" style="clip-path:url(#clipPath5); fill:none;" height="150" />
    </g>
    <g transform="translate(260,214)" style="font-size:11; fill:white; text-rendering:geometricPrecision; font-family:sans-serif; stroke:white; font-weight:bold;">
      <path d="M32 0 L32 9 L26 17 L0 17 L0 0 Z" style="clip-path:url(#clipPath5); stroke:none;" />
    </g>
    <g transform="translate(260,214)" style="font-size:11; stroke-linecap:butt; text-rendering:geometricPrecision; font-family:sans-serif; stroke-linejoin:round; font-weight:bold; stroke-miterlimit:0;">
      <path d="M32 0 L32 9 L26 17 L0 17 L0 0 Z" style="fill:none; clip-path:url(#clipPath5);" />
    </g>
    <g transform="translate(260,214)" style="text-rendering:geometricPrecision; font-size:11; font-weight:bold; font-family:sans-serif;">
      <text x="4" y="12" style="clip-path:url(#clipPath6); stroke:none;" xml:space="preserve">loop</text>
    </g>
    <g transform="translate(260,232)" style="font-size:11; fill:white; text-rendering:geometricPrecision; font-family:sans-serif; stroke:white;">
      <rect x="28" y="5" width="203" style="clip-path:url(#clipPath7); stroke:none;" height="15" />
    </g>
    <g style="text-rendering:geometricPrecision; font-size:11; font-family:sans-serif;" transform="translate(288,237)">
      <text x="10" y="12" style="clip-path:url(#clipPath8); stroke:none;" xml:space="preserve">[counter &lt; 100 és circuit.isChanged()]</text>
    </g>
    <g transform="translate(454,287)" style="font-size:11; fill:white; text-rendering:geometricPrecision; font-family:sans-serif; stroke:white;">
      <rect x="0" y="0" width="7" style="clip-path:url(#clipPath10); stroke:none;" height="30" />
    </g>
    <g transform="translate(454,287)" style="font-size:11; stroke-linecap:butt; text-rendering:geometricPrecision; font-family:sans-serif; stroke-linejoin:round; stroke-miterlimit:0;">
      <rect x="0" y="0" width="7" style="clip-path:url(#clipPath10); fill:none;" height="30" />
    </g>
    <g transform="translate(30,384)" style="font-size:11; stroke-linecap:butt; text-rendering:geometricPrecision; font-family:sans-serif; stroke-linejoin:round; font-weight:bold; stroke-miterlimit:0;">
      <rect x="0" y="0" width="470" style="clip-path:url(#clipPath11); fill:none;" height="232" />
    </g>
    <g transform="translate(30,384)" style="font-size:11; fill:white; text-rendering:geometricPrecision; font-family:sans-serif; stroke:white; font-weight:bold;">
      <path d="M22 0 L22 9 L16 17 L0 17 L0 0 Z" style="clip-path:url(#clipPath11); stroke:none;" />
    </g>
    <g transform="translate(30,384)" style="font-size:11; stroke-linecap:butt; text-rendering:geometricPrecision; font-family:sans-serif; stroke-linejoin:round; font-weight:bold; stroke-miterlimit:0;">
      <path d="M22 0 L22 9 L16 17 L0 17 L0 0 Z" style="fill:none; clip-path:url(#clipPath11);" />
    </g>
    <g transform="translate(30,384)" style="text-rendering:geometricPrecision; font-size:11; font-weight:bold; font-family:sans-serif;">
      <text x="5" y="12" style="clip-path:url(#clipPath12); stroke:none;" xml:space="preserve">alt</text>
    </g>
    <g transform="translate(30,492)" style="font-size:11; fill:white; text-rendering:geometricPrecision; font-family:sans-serif; stroke:white;">
      <rect x="28" y="5" width="71" style="clip-path:url(#clipPath13); stroke:none;" height="15" />
    </g>
    <g style="text-rendering:geometricPrecision; font-size:11; font-family:sans-serif;" transform="translate(58,497)">
      <text x="11" y="12" style="clip-path:url(#clipPath14); stroke:none;" xml:space="preserve">[különben]</text>
    </g>
    <g transform="translate(454,520)" style="font-size:11; fill:white; text-rendering:geometricPrecision; font-family:sans-serif; stroke:white;">
      <rect x="0" y="0" width="7" style="clip-path:url(#clipPath16); stroke:none;" height="11" />
    </g>
    <g transform="translate(454,520)" style="font-size:11; stroke-linecap:butt; text-rendering:geometricPrecision; font-family:sans-serif; stroke-linejoin:round; stroke-miterlimit:0;">
      <rect x="0" y="0" width="7" style="clip-path:url(#clipPath16); fill:none;" height="11" />
    </g>
    <g transform="translate(30,402)" style="font-size:11; fill:white; text-rendering:geometricPrecision; font-family:sans-serif; stroke:white;">
      <rect x="28" y="5" width="100" style="clip-path:url(#clipPath17); stroke:none;" height="15" />
    </g>
    <g transform="translate(30,402)" style="font-size:11; stroke-linecap:butt; text-rendering:geometricPrecision; font-family:sans-serif; stroke-linejoin:bevel; stroke-dasharray:5,2; stroke-miterlimit:0;">
      <line x1="0" x2="469" y1="89" style="clip-path:url(#clipPath17); fill:none;" y2="89" />
    </g>
    <g style="text-rendering:geometricPrecision; font-size:11; font-family:sans-serif;" transform="translate(58,407)">
      <text x="10" y="12" style="clip-path:url(#clipPath18); stroke:none;" xml:space="preserve">[counter &gt;= 100]</text>
    </g>
    <g transform="translate(110,134)" style="font-size:11; fill:white; text-rendering:geometricPrecision; font-family:sans-serif; stroke:white;">
      <polygon style="clip-path:url(#clipPath19); stroke:none;" points=" 0 0 104 0 119 15 104 15 104 0 119 15 119 59 0 59" />
    </g>
    <g transform="translate(110,134)" style="font-size:11; stroke-linecap:butt; text-rendering:geometricPrecision; font-family:sans-serif; stroke-linejoin:round; stroke-miterlimit:0;">
      <polygon style="fill:none; clip-path:url(#clipPath19);" points=" 0 0 104 0 119 15 104 15 104 0 119 15 119 59 0 59" />
    </g>
    <g style="text-rendering:geometricPrecision; font-size:11; font-family:&apos;Tahoma&apos;;" transform="translate(110,134)">
      <path d="M3.5469 12.2048 L4.6094 12.1111 Q4.6875 12.7673 4.9688 13.1736 Q5.25 13.5798 5.8359 13.8376 Q6.4219 14.0954 7.1562 14.0954 Q7.7969 14.0954 8.2969 13.9001 Q8.7969 13.7048 9.0391 13.3689 Q9.2812 13.0329 9.2812 12.6423 Q9.2812 12.2361 9.0469 11.9314 Q8.8125 11.6267 8.2812 11.4236 Q7.9219 11.2829 6.7422 11.0017 Q5.5625 10.7204 5.0938 10.4704 Q4.4688 10.1423 4.1719 9.6657 Q3.875 9.1892 3.875 8.5954 Q3.875 7.9548 4.2422 7.3845 Q4.6094 6.8142 5.3203 6.5251 Q6.0312 6.2361 6.8906 6.2361 Q7.8438 6.2361 8.5781 6.5407 Q9.3125 6.8454 9.7031 7.447 Q10.0938 8.0486 10.125 8.7986 L9.0312 8.8767 Q8.9375 8.0642 8.4297 7.6501 Q7.9219 7.2361 6.9375 7.2361 Q5.9062 7.2361 5.4375 7.6111 Q4.9688 7.9861 4.9688 8.5173 Q4.9688 8.9861 5.2969 9.2829 Q5.625 9.5798 7.0078 9.8923 Q8.3906 10.2048 8.9062 10.4392 Q9.6562 10.7986 10.0156 11.322 Q10.375 11.8454 10.375 12.5486 Q10.375 13.2361 9.9844 13.8376 Q9.5938 14.4392 8.8594 14.7751 Q8.125 15.1111 7.2031 15.1111 Q6.0312 15.1111 5.2422 14.7751 Q4.4531 14.4392 4.0078 13.7517 Q3.5625 13.0642 3.5469 12.2048 ZM11.2344 14.9704 L11.2344 14.1111 L15.2031 9.5642 Q14.5156 9.5954 14 9.5954 L11.4688 9.5954 L11.4688 8.7517 L16.5625 8.7517 L16.5625 9.4392 L13.1875 13.3923 L12.5312 14.1111 Q13.25 14.0642 13.8594 14.0642 L16.75 14.0642 L16.75 14.9704 L11.2344 14.9704 ZM16.7969 7.5954 L16.7969 6.3767 L17.8594 6.3767 L17.8594 7.5954 L16.7969 7.5954 ZM16.7969 14.9704 L16.7969 8.7517 L17.8594 8.7517 L17.8594 14.9704 L16.7969 14.9704 ZM19.7969 14.9704 L19.7969 8.7517 L20.7344 8.7517 L20.7344 9.6267 Q21.0312 9.1579 21.5156 8.8845 Q22 8.6111 22.625 8.6111 Q23.3125 8.6111 23.7578 8.8923 Q24.2031 9.1736 24.375 9.6892 Q25.125 8.6111 26.2969 8.6111 Q27.2344 8.6111 27.7266 9.1189 Q28.2188 9.6267 28.2188 10.7048 L28.2188 14.9704 L27.1719 14.9704 L27.1719 11.0486 Q27.1719 10.4236 27.0703 10.1423 Q26.9688 9.8611 26.7031 9.6892 Q26.4375 9.5173 26.0625 9.5173 Q25.4062 9.5173 24.9766 9.9548 Q24.5469 10.3923 24.5469 11.3611 L24.5469 14.9704 L23.4844 14.9704 L23.4844 10.9236 Q23.4844 10.2204 23.2266 9.8689 Q22.9688 9.5173 22.3906 9.5173 Q21.9375 9.5173 21.5625 9.7517 Q21.1875 9.9861 21.0156 10.4392 Q20.8438 10.8923 20.8438 11.7361 L20.8438 14.9704 L19.7969 14.9704 ZM34.875 14.9704 L34.875 14.0486 Q34.1406 15.1111 32.8906 15.1111 Q32.3438 15.1111 31.8672 14.9001 Q31.3906 14.6892 31.1562 14.3689 Q30.9219 14.0486 30.8281 13.5798 Q30.7656 13.2829 30.7656 12.5954 L30.7656 8.7517 L31.8281 8.7517 L31.8281 12.2048 Q31.8281 13.0173 31.8906 13.3142 Q31.9844 13.7204 32.3047 13.9626 Q32.625 14.2048 33.1094 14.2048 Q33.5781 14.2048 33.9922 13.9626 Q34.4062 13.7204 34.5859 13.2986 Q34.7656 12.8767 34.7656 12.0798 L34.7656 8.7517 L35.8125 8.7517 L35.8125 14.9704 L34.875 14.9704 ZM37.7656 14.9704 L37.7656 6.3767 L38.8281 6.3767 L38.8281 14.9704 L37.7656 14.9704 ZM44.8594 14.2048 Q44.2656 14.7048 43.7266 14.9079 Q43.1875 15.1111 42.5625 15.1111 Q41.5312 15.1111 40.9844 14.6111 Q40.4375 14.1111 40.4375 13.3298 Q40.4375 12.8767 40.6406 12.4939 Q40.8438 12.1111 41.1875 11.8845 Q41.5312 11.6579 41.9531 11.5486 Q42.25 11.4548 42.8906 11.3767 Q44.1562 11.2361 44.7656 11.0173 Q44.7656 10.7986 44.7656 10.7517 Q44.7656 10.0954 44.4688 9.8298 Q44.0625 9.4861 43.2656 9.4861 Q42.5312 9.4861 42.1719 9.7439 Q41.8125 10.0017 41.6406 10.6579 L40.6094 10.5173 Q40.75 9.8611 41.0781 9.4548 Q41.4062 9.0486 42.0156 8.8298 Q42.625 8.6111 43.4219 8.6111 Q44.2188 8.6111 44.7188 8.7986 Q45.2188 8.9861 45.4531 9.2673 Q45.6875 9.5486 45.7812 9.9861 Q45.8281 10.2517 45.8281 10.9548 L45.8281 12.3611 Q45.8281 13.8298 45.8984 14.2204 Q45.9688 14.6111 46.1719 14.9704 L45.0625 14.9704 Q44.9062 14.6423 44.8594 14.2048 ZM44.7656 11.8454 Q44.1875 12.0798 43.0469 12.2517 Q42.3906 12.3454 42.125 12.4626 Q41.8594 12.5798 41.7109 12.7986 Q41.5625 13.0173 41.5625 13.2986 Q41.5625 13.7204 41.8828 14.0017 Q42.2031 14.2829 42.8125 14.2829 Q43.4219 14.2829 43.8984 14.0173 Q44.375 13.7517 44.5938 13.2829 Q44.7656 12.9236 44.7656 12.2361 L44.7656 11.8454 ZM42.125 6.9704 L42.9062 5.3298 L44.2969 5.3298 L43 6.9704 L42.125 6.9704 ZM51.8594 12.6892 L52.8906 12.8298 Q52.7188 13.8923 52.0156 14.5017 Q51.3125 15.1111 50.2969 15.1111 Q49.0156 15.1111 48.2422 14.2751 Q47.4688 13.4392 47.4688 11.8767 Q47.4688 10.8767 47.8047 10.1189 Q48.1406 9.3611 48.8203 8.9861 Q49.5 8.6111 50.3125 8.6111 Q51.3125 8.6111 51.9609 9.1189 Q52.6094 9.6267 52.7969 10.5798 L51.7656 10.7361 Q51.625 10.1111 51.25 9.7907 Q50.875 9.4704 50.3438 9.4704 Q49.5469 9.4704 49.0469 10.0407 Q48.5469 10.6111 48.5469 11.8454 Q48.5469 13.1111 49.0312 13.6736 Q49.5156 14.2361 50.2812 14.2361 Q50.9062 14.2361 51.3203 13.8611 Q51.7344 13.4861 51.8594 12.6892 ZM53.7969 7.5954 L53.7969 6.3767 L54.8594 6.3767 L54.8594 7.5954 L53.7969 7.5954 ZM53.7969 14.9704 L53.7969 8.7517 L54.8594 8.7517 L54.8594 14.9704 L53.7969 14.9704 ZM56.4062 11.8611 Q56.4062 10.1267 57.3594 9.2986 Q58.1562 8.6111 59.3125 8.6111 Q60.5938 8.6111 61.4141 9.447 Q62.2344 10.2829 62.2344 11.7673 Q62.2344 12.9704 61.875 13.6579 Q61.5156 14.3454 60.8203 14.7282 Q60.125 15.1111 59.3125 15.1111 Q58.0156 15.1111 57.2109 14.2751 Q56.4062 13.4392 56.4062 11.8611 ZM57.4844 11.8611 Q57.4844 13.0486 58.0078 13.6423 Q58.5312 14.2361 59.3125 14.2361 Q60.1094 14.2361 60.625 13.6423 Q61.1406 13.0486 61.1406 11.8298 Q61.1406 10.6736 60.6172 10.0798 Q60.0938 9.4861 59.3125 9.4861 Q58.5312 9.4861 58.0078 10.072 Q57.4844 10.6579 57.4844 11.8611 ZM58.125 6.9704 L58.9062 5.3298 L60.2969 5.3298 L59 6.9704 L58.125 6.9704 Z" style="clip-path:url(#clipPath20); stroke:none;" />
      <path d="M7.8594 28.2048 Q7.2656 28.7048 6.7266 28.9079 Q6.1875 29.1111 5.5625 29.1111 Q4.5312 29.1111 3.9844 28.6111 Q3.4375 28.1111 3.4375 27.3298 Q3.4375 26.8767 3.6406 26.4939 Q3.8438 26.1111 4.1875 25.8845 Q4.5312 25.6579 4.9531 25.5486 Q5.25 25.4548 5.8906 25.3767 Q7.1562 25.2361 7.7656 25.0173 Q7.7656 24.7986 7.7656 24.7517 Q7.7656 24.0954 7.4688 23.8298 Q7.0625 23.4861 6.2656 23.4861 Q5.5312 23.4861 5.1719 23.7439 Q4.8125 24.0017 4.6406 24.6579 L3.6094 24.5173 Q3.75 23.8611 4.0781 23.4548 Q4.4062 23.0486 5.0156 22.8298 Q5.625 22.6111 6.4219 22.6111 Q7.2188 22.6111 7.7188 22.7986 Q8.2188 22.9861 8.4531 23.2673 Q8.6875 23.5486 8.7812 23.9861 Q8.8281 24.2517 8.8281 24.9548 L8.8281 26.3611 Q8.8281 27.8298 8.8984 28.2204 Q8.9688 28.6111 9.1719 28.9704 L8.0625 28.9704 Q7.9062 28.6423 7.8594 28.2048 ZM7.7656 25.8454 Q7.1875 26.0798 6.0469 26.2517 Q5.3906 26.3454 5.125 26.4626 Q4.8594 26.5798 4.7109 26.7986 Q4.5625 27.0173 4.5625 27.2986 Q4.5625 27.7204 4.8828 28.0017 Q5.2031 28.2829 5.8125 28.2829 Q6.4219 28.2829 6.8984 28.0173 Q7.375 27.7517 7.5938 27.2829 Q7.7656 26.9236 7.7656 26.2361 L7.7656 25.8454 ZM5.125 20.9704 L5.9062 19.3298 L7.2969 19.3298 L6 20.9704 L5.125 20.9704 ZM10.7656 28.9704 L10.7656 20.3767 L11.8281 20.3767 L11.8281 28.9704 L10.7656 28.9704 ZM13.7656 28.9704 L13.7656 20.3767 L14.8281 20.3767 L14.8281 28.9704 L13.7656 28.9704 ZM20.8594 28.2048 Q20.2656 28.7048 19.7266 28.9079 Q19.1875 29.1111 18.5625 29.1111 Q17.5312 29.1111 16.9844 28.6111 Q16.4375 28.1111 16.4375 27.3298 Q16.4375 26.8767 16.6406 26.4939 Q16.8438 26.1111 17.1875 25.8845 Q17.5312 25.6579 17.9531 25.5486 Q18.25 25.4548 18.8906 25.3767 Q20.1562 25.2361 20.7656 25.0173 Q20.7656 24.7986 20.7656 24.7517 Q20.7656 24.0954 20.4688 23.8298 Q20.0625 23.4861 19.2656 23.4861 Q18.5312 23.4861 18.1719 23.7439 Q17.8125 24.0017 17.6406 24.6579 L16.6094 24.5173 Q16.75 23.8611 17.0781 23.4548 Q17.4062 23.0486 18.0156 22.8298 Q18.625 22.6111 19.4219 22.6111 Q20.2188 22.6111 20.7188 22.7986 Q21.2188 22.9861 21.4531 23.2673 Q21.6875 23.5486 21.7812 23.9861 Q21.8281 24.2517 21.8281 24.9548 L21.8281 26.3611 Q21.8281 27.8298 21.8984 28.2204 Q21.9688 28.6111 22.1719 28.9704 L21.0625 28.9704 Q20.9062 28.6423 20.8594 28.2048 ZM20.7656 25.8454 Q20.1875 26.0798 19.0469 26.2517 Q18.3906 26.3454 18.125 26.4626 Q17.8594 26.5798 17.7109 26.7986 Q17.5625 27.0173 17.5625 27.2986 Q17.5625 27.7204 17.8828 28.0017 Q18.2031 28.2829 18.8125 28.2829 Q19.4219 28.2829 19.8984 28.0173 Q20.375 27.7517 20.5938 27.2829 Q20.7656 26.9236 20.7656 26.2361 L20.7656 25.8454 ZM23.7969 31.3611 L23.7969 22.7517 L24.75 22.7517 L24.75 23.5486 Q25.0938 23.0798 25.5234 22.8454 Q25.9531 22.6111 26.5625 22.6111 Q27.3594 22.6111 27.9688 23.0173 Q28.5781 23.4236 28.8828 24.1736 Q29.1875 24.9236 29.1875 25.8142 Q29.1875 26.7673 28.8516 27.5329 Q28.5156 28.2986 27.8594 28.7048 Q27.2031 29.1111 26.4844 29.1111 Q25.9531 29.1111 25.5312 28.8845 Q25.1094 28.6579 24.8438 28.3298 L24.8438 31.3611 L23.7969 31.3611 ZM24.75 25.8923 Q24.75 27.0954 25.2344 27.6657 Q25.7188 28.2361 26.4062 28.2361 Q27.1094 28.2361 27.6094 27.6423 Q28.1094 27.0486 28.1094 25.7986 Q28.1094 24.6111 27.625 24.0251 Q27.1406 23.4392 26.4531 23.4392 Q25.7812 23.4392 25.2656 24.0642 Q24.75 24.6892 24.75 25.8923 ZM33.0938 28.0329 L33.25 28.9548 Q32.7969 29.0486 32.4531 29.0486 Q31.875 29.0486 31.5625 28.8689 Q31.25 28.6892 31.1172 28.3923 Q30.9844 28.0954 30.9844 27.1423 L30.9844 23.5642 L30.2188 23.5642 L30.2188 22.7517 L30.9844 22.7517 L30.9844 21.2048 L32.0312 20.5798 L32.0312 22.7517 L33.0938 22.7517 L33.0938 23.5642 L32.0312 23.5642 L32.0312 27.2048 Q32.0312 27.6579 32.0859 27.7829 Q32.1406 27.9079 32.2656 27.9861 Q32.3906 28.0642 32.625 28.0642 Q32.8125 28.0642 33.0938 28.0329 ZM35.5156 28.9704 L33.1562 22.7517 L34.2656 22.7517 L35.6094 26.4704 Q35.8125 27.0798 36 27.7204 Q36.1406 27.2361 36.3906 26.5486 L37.7812 22.7517 L38.8594 22.7517 L36.5 28.9704 L35.5156 28.9704 ZM42.8594 28.2048 Q42.2656 28.7048 41.7266 28.9079 Q41.1875 29.1111 40.5625 29.1111 Q39.5312 29.1111 38.9844 28.6111 Q38.4375 28.1111 38.4375 27.3298 Q38.4375 26.8767 38.6406 26.4939 Q38.8438 26.1111 39.1875 25.8845 Q39.5312 25.6579 39.9531 25.5486 Q40.25 25.4548 40.8906 25.3767 Q42.1562 25.2361 42.7656 25.0173 Q42.7656 24.7986 42.7656 24.7517 Q42.7656 24.0954 42.4688 23.8298 Q42.0625 23.4861 41.2656 23.4861 Q40.5312 23.4861 40.1719 23.7439 Q39.8125 24.0017 39.6406 24.6579 L38.6094 24.5173 Q38.75 23.8611 39.0781 23.4548 Q39.4062 23.0486 40.0156 22.8298 Q40.625 22.6111 41.4219 22.6111 Q42.2188 22.6111 42.7188 22.7986 Q43.2188 22.9861 43.4531 23.2673 Q43.6875 23.5486 43.7812 23.9861 Q43.8281 24.2517 43.8281 24.9548 L43.8281 26.3611 Q43.8281 27.8298 43.8984 28.2204 Q43.9688 28.6111 44.1719 28.9704 L43.0625 28.9704 Q42.9062 28.6423 42.8594 28.2048 ZM42.7656 25.8454 Q42.1875 26.0798 41.0469 26.2517 Q40.3906 26.3454 40.125 26.4626 Q39.8594 26.5798 39.7109 26.7986 Q39.5625 27.0173 39.5625 27.2986 Q39.5625 27.7204 39.8828 28.0017 Q40.2031 28.2829 40.8125 28.2829 Q41.4219 28.2829 41.8984 28.0173 Q42.375 27.7517 42.5938 27.2829 Q42.7656 26.9236 42.7656 26.2361 L42.7656 25.8454 ZM40.125 20.9704 L40.9062 19.3298 L42.2969 19.3298 L41 20.9704 L40.125 20.9704 ZM45.7656 28.9704 L45.7656 20.3767 L46.8281 20.3767 L46.8281 28.9704 L45.7656 28.9704 ZM51.0938 28.0329 L51.25 28.9548 Q50.7969 29.0486 50.4531 29.0486 Q49.875 29.0486 49.5625 28.8689 Q49.25 28.6892 49.1172 28.3923 Q48.9844 28.0954 48.9844 27.1423 L48.9844 23.5642 L48.2188 23.5642 L48.2188 22.7517 L48.9844 22.7517 L48.9844 21.2048 L50.0312 20.5798 L50.0312 22.7517 L51.0938 22.7517 L51.0938 23.5642 L50.0312 23.5642 L50.0312 27.2048 Q50.0312 27.6579 50.0859 27.7829 Q50.1406 27.9079 50.2656 27.9861 Q50.3906 28.0642 50.625 28.0642 Q50.8125 28.0642 51.0938 28.0329 ZM51.4062 25.8611 Q51.4062 24.1267 52.3594 23.2986 Q53.1562 22.6111 54.3125 22.6111 Q55.5938 22.6111 56.4141 23.447 Q57.2344 24.2829 57.2344 25.7673 Q57.2344 26.9704 56.875 27.6579 Q56.5156 28.3454 55.8203 28.7282 Q55.125 29.1111 54.3125 29.1111 Q53.0156 29.1111 52.2109 28.2751 Q51.4062 27.4392 51.4062 25.8611 ZM52.4844 25.8611 Q52.4844 27.0486 53.0078 27.6423 Q53.5312 28.2361 54.3125 28.2361 Q55.1094 28.2361 55.625 27.6423 Q56.1406 27.0486 56.1406 25.8298 Q56.1406 24.6736 55.6172 24.0798 Q55.0938 23.4861 54.3125 23.4861 Q53.5312 23.4861 53.0078 24.072 Q52.4844 24.6579 52.4844 25.8611 ZM58.2344 28.9704 L58.2344 28.1111 L62.2031 23.5642 Q61.5156 23.5954 61 23.5954 L58.4688 23.5954 L58.4688 22.7517 L63.5625 22.7517 L63.5625 23.4392 L60.1875 27.3923 L59.5312 28.1111 Q60.25 28.0642 60.8594 28.0642 L63.75 28.0642 L63.75 28.9704 L58.2344 28.9704 ZM67.8594 28.2048 Q67.2656 28.7048 66.7266 28.9079 Q66.1875 29.1111 65.5625 29.1111 Q64.5312 29.1111 63.9844 28.6111 Q63.4375 28.1111 63.4375 27.3298 Q63.4375 26.8767 63.6406 26.4939 Q63.8438 26.1111 64.1875 25.8845 Q64.5312 25.6579 64.9531 25.5486 Q65.25 25.4548 65.8906 25.3767 Q67.1562 25.2361 67.7656 25.0173 Q67.7656 24.7986 67.7656 24.7517 Q67.7656 24.0954 67.4688 23.8298 Q67.0625 23.4861 66.2656 23.4861 Q65.5312 23.4861 65.1719 23.7439 Q64.8125 24.0017 64.6406 24.6579 L63.6094 24.5173 Q63.75 23.8611 64.0781 23.4548 Q64.4062 23.0486 65.0156 22.8298 Q65.625 22.6111 66.4219 22.6111 Q67.2188 22.6111 67.7188 22.7986 Q68.2188 22.9861 68.4531 23.2673 Q68.6875 23.5486 68.7812 23.9861 Q68.8281 24.2517 68.8281 24.9548 L68.8281 26.3611 Q68.8281 27.8298 68.8984 28.2204 Q68.9688 28.6111 69.1719 28.9704 L68.0625 28.9704 Q67.9062 28.6423 67.8594 28.2048 ZM67.7656 25.8454 Q67.1875 26.0798 66.0469 26.2517 Q65.3906 26.3454 65.125 26.4626 Q64.8594 26.5798 64.7109 26.7986 Q64.5625 27.0173 64.5625 27.2986 Q64.5625 27.7204 64.8828 28.0017 Q65.2031 28.2829 65.8125 28.2829 Q66.4219 28.2829 66.8984 28.0173 Q67.375 27.7517 67.5938 27.2829 Q67.7656 26.9236 67.7656 26.2361 L67.7656 25.8454 ZM65.125 20.9704 L65.9062 19.3298 L67.2969 19.3298 L66 20.9704 L65.125 20.9704 ZM70.375 27.1111 L71.4062 26.9548 Q71.5 27.5798 71.8984 27.9079 Q72.2969 28.2361 73.0312 28.2361 Q73.75 28.2361 74.1016 27.947 Q74.4531 27.6579 74.4531 27.2517 Q74.4531 26.8923 74.1406 26.6892 Q73.9219 26.5486 73.0625 26.3298 Q71.9062 26.0329 71.4609 25.822 Q71.0156 25.6111 70.7812 25.2361 Q70.5469 24.8611 70.5469 24.3923 Q70.5469 23.9861 70.7344 23.6267 Q70.9219 23.2673 71.25 23.0329 Q71.5 22.8611 71.9219 22.7361 Q72.3438 22.6111 72.8438 22.6111 Q73.5625 22.6111 74.1172 22.822 Q74.6719 23.0329 74.9375 23.3923 Q75.2031 23.7517 75.2969 24.3454 L74.2656 24.4861 Q74.2031 24.0173 73.8672 23.7439 Q73.5312 23.4704 72.9062 23.4704 Q72.1875 23.4704 71.875 23.7126 Q71.5625 23.9548 71.5625 24.2829 Q71.5625 24.4861 71.6875 24.6423 Q71.8281 24.8142 72.0938 24.9236 Q72.25 24.9861 73.0312 25.1892 Q74.1562 25.5017 74.5938 25.6892 Q75.0312 25.8767 75.2812 26.2361 Q75.5312 26.5954 75.5312 27.1423 Q75.5312 27.6736 75.2266 28.1345 Q74.9219 28.5954 74.3438 28.8532 Q73.7656 29.1111 73.0312 29.1111 Q71.8125 29.1111 71.1797 28.6032 Q70.5469 28.0954 70.375 27.1111 ZM81.8594 28.2048 Q81.2656 28.7048 80.7266 28.9079 Q80.1875 29.1111 79.5625 29.1111 Q78.5312 29.1111 77.9844 28.6111 Q77.4375 28.1111 77.4375 27.3298 Q77.4375 26.8767 77.6406 26.4939 Q77.8438 26.1111 78.1875 25.8845 Q78.5312 25.6579 78.9531 25.5486 Q79.25 25.4548 79.8906 25.3767 Q81.1562 25.2361 81.7656 25.0173 Q81.7656 24.7986 81.7656 24.7517 Q81.7656 24.0954 81.4688 23.8298 Q81.0625 23.4861 80.2656 23.4861 Q79.5312 23.4861 79.1719 23.7439 Q78.8125 24.0017 78.6406 24.6579 L77.6094 24.5173 Q77.75 23.8611 78.0781 23.4548 Q78.4062 23.0486 79.0156 22.8298 Q79.625 22.6111 80.4219 22.6111 Q81.2188 22.6111 81.7188 22.7986 Q82.2188 22.9861 82.4531 23.2673 Q82.6875 23.5486 82.7812 23.9861 Q82.8281 24.2517 82.8281 24.9548 L82.8281 26.3611 Q82.8281 27.8298 82.8984 28.2204 Q82.9688 28.6111 83.1719 28.9704 L82.0625 28.9704 Q81.9062 28.6423 81.8594 28.2048 ZM81.7656 25.8454 Q81.1875 26.0798 80.0469 26.2517 Q79.3906 26.3454 79.125 26.4626 Q78.8594 26.5798 78.7109 26.7986 Q78.5625 27.0173 78.5625 27.2986 Q78.5625 27.7204 78.8828 28.0017 Q79.2031 28.2829 79.8125 28.2829 Q80.4219 28.2829 80.8984 28.0173 Q81.375 27.7517 81.5938 27.2829 Q81.7656 26.9236 81.7656 26.2361 L81.7656 25.8454 ZM85.0781 23.9548 L85.0781 22.7517 L86.2812 22.7517 L86.2812 23.9548 L85.0781 23.9548 ZM85.0781 28.9704 L85.0781 27.7673 L86.2812 27.7673 L86.2812 28.9704 L85.0781 28.9704 Z" style="clip-path:url(#clipPath20); stroke:none;" />
      <path d="M5.4219 42.9704 L3.1406 34.3767 L4.3125 34.3767 L5.625 40.0173 Q5.8281 40.8923 5.9844 41.7673 Q6.3125 40.3923 6.375 40.1736 L8 34.3767 L9.375 34.3767 L10.6094 38.7204 Q11.0625 40.3454 11.2812 41.7673 Q11.4375 40.9548 11.7031 39.8923 L13.0469 34.3767 L14.1875 34.3767 L11.8438 42.9704 L10.7344 42.9704 L8.9375 36.4236 Q8.7031 35.6111 8.6562 35.4236 Q8.5312 36.0017 8.4062 36.4236 L6.5938 42.9704 L5.4219 42.9704 ZM14.5781 38.7829 Q14.5781 36.6423 15.7266 35.4314 Q16.875 34.2204 18.6875 34.2204 Q19.8906 34.2204 20.8438 34.7907 Q21.7969 35.3611 22.2969 36.3767 Q22.7969 37.3923 22.7969 38.6892 Q22.7969 39.9861 22.2656 41.0173 Q21.7344 42.0486 20.7734 42.5798 Q19.8125 43.1111 18.6875 43.1111 Q17.4688 43.1111 16.5156 42.5251 Q15.5625 41.9392 15.0703 40.9314 Q14.5781 39.9236 14.5781 38.7829 ZM15.75 38.7986 Q15.75 40.3611 16.5859 41.2517 Q17.4219 42.1423 18.6875 42.1423 Q19.9688 42.1423 20.7969 41.2439 Q21.625 40.3454 21.625 38.6736 Q21.625 37.6267 21.2734 36.8454 Q20.9219 36.0642 20.2344 35.6345 Q19.5469 35.2048 18.7031 35.2048 Q17.5 35.2048 16.625 36.0329 Q15.75 36.8611 15.75 38.7986 ZM23.9375 42.9704 L23.9375 34.3767 L27.75 34.3767 Q28.9062 34.3767 29.5 34.6111 Q30.0938 34.8454 30.4531 35.4314 Q30.8125 36.0173 30.8125 36.7204 Q30.8125 37.6423 30.2188 38.2673 Q29.625 38.8923 28.3906 39.0642 Q28.8438 39.2829 29.0781 39.4861 Q29.5781 39.9392 30.0156 40.6267 L31.5156 42.9704 L30.0781 42.9704 L28.9531 41.1892 Q28.4531 40.4079 28.1328 40.0017 Q27.8125 39.5954 27.5547 39.4314 Q27.2969 39.2673 27.0312 39.1892 Q26.8438 39.1579 26.4062 39.1579 L25.0781 39.1579 L25.0781 42.9704 L23.9375 42.9704 ZM25.0781 38.1736 L27.5312 38.1736 Q28.2969 38.1736 28.7422 38.0095 Q29.1875 37.8454 29.4141 37.4939 Q29.6406 37.1423 29.6406 36.7204 Q29.6406 36.1111 29.1953 35.7204 Q28.75 35.3298 27.7969 35.3298 L25.0781 35.3298 L25.0781 38.1736 ZM32.875 42.9704 L32.875 34.3767 L34.0156 34.3767 L34.0156 38.6423 L38.2812 34.3767 L39.8281 34.3767 L36.2188 37.8611 L39.9844 42.9704 L38.4844 42.9704 L35.4219 38.6267 L34.0156 39.9861 L34.0156 42.9704 L32.875 42.9704 ZM41.125 42.9704 L41.125 34.3767 L42.25 34.3767 L42.25 42.9704 L41.125 42.9704 ZM43.9219 42.9704 L43.9219 34.3767 L45.0781 34.3767 L49.5938 41.1267 L49.5938 34.3767 L50.6875 34.3767 L50.6875 42.9704 L49.5156 42.9704 L45 36.2204 L45 42.9704 L43.9219 42.9704 ZM56.9531 39.5954 L56.9531 38.5954 L60.5781 38.5798 L60.5781 41.7673 Q59.75 42.4392 58.8594 42.7751 Q57.9688 43.1111 57.0312 43.1111 Q55.7656 43.1111 54.7266 42.572 Q53.6875 42.0329 53.1641 41.0095 Q52.6406 39.9861 52.6406 38.7204 Q52.6406 37.4548 53.1641 36.3689 Q53.6875 35.2829 54.6719 34.7595 Q55.6562 34.2361 56.9375 34.2361 Q57.875 34.2361 58.625 34.5329 Q59.375 34.8298 59.8047 35.3689 Q60.2344 35.9079 60.4531 36.7829 L59.4375 37.0642 Q59.2344 36.4079 58.9453 36.0329 Q58.6562 35.6579 58.125 35.4314 Q57.5938 35.2048 56.9531 35.2048 Q56.1719 35.2048 55.6016 35.4392 Q55.0312 35.6736 54.6797 36.0642 Q54.3281 36.4548 54.1406 36.9236 Q53.8125 37.7204 53.8125 38.6423 Q53.8125 39.7986 54.2109 40.572 Q54.6094 41.3454 55.3594 41.7204 Q56.1094 42.0954 56.9688 42.0954 Q57.7031 42.0954 58.4062 41.8064 Q59.1094 41.5173 59.4688 41.2048 L59.4688 39.5954 L56.9531 39.5954 ZM61.375 40.3923 L61.375 39.3298 L64.625 39.3298 L64.625 40.3923 L61.375 40.3923 ZM65.7812 42.9704 L65.7812 36.7517 L66.7344 36.7517 L66.7344 37.6892 Q67.0938 37.0329 67.3984 36.822 Q67.7031 36.6111 68.0781 36.6111 Q68.6094 36.6111 69.1562 36.9392 L68.7969 37.9236 Q68.4062 37.6892 68.0312 37.6892 Q67.6719 37.6892 67.3984 37.9001 Q67.125 38.1111 67.0156 38.4861 Q66.8281 39.0486 66.8281 39.7048 L66.8281 42.9704 L65.7812 42.9704 ZM74.0469 40.9704 L75.1406 41.0954 Q74.8906 42.0486 74.1875 42.5798 Q73.4844 43.1111 72.4062 43.1111 Q71.0469 43.1111 70.2422 42.2673 Q69.4375 41.4236 69.4375 39.9079 Q69.4375 38.3454 70.25 37.4782 Q71.0625 36.6111 72.3438 36.6111 Q73.5938 36.6111 74.3828 37.4548 Q75.1719 38.2986 75.1719 39.8454 Q75.1719 39.9392 75.1719 40.1267 L70.5312 40.1267 Q70.5938 41.1579 71.1094 41.697 Q71.625 42.2361 72.4062 42.2361 Q72.9844 42.2361 73.3984 41.9314 Q73.8125 41.6267 74.0469 40.9704 ZM70.5938 39.2673 L74.0625 39.2673 Q74 38.4704 73.6719 38.0798 Q73.1562 37.4704 72.3594 37.4704 Q71.625 37.4704 71.1328 37.9548 Q70.6406 38.4392 70.5938 39.2673 Z" style="clip-path:url(#clipPath20); stroke:none;" />
    </g>
    <g transform="translate(340,404)" style="font-size:11; fill:white; text-rendering:geometricPrecision; font-family:sans-serif; stroke:white;">
      <polygon style="clip-path:url(#clipPath21); stroke:none;" points=" 0 0 94 0 109 15 94 15 94 0 109 15 109 59 0 59" />
    </g>
    <g transform="translate(340,404)" style="font-size:11; stroke-linecap:butt; text-rendering:geometricPrecision; font-family:sans-serif; stroke-linejoin:round; stroke-miterlimit:0;">
      <polygon style="fill:none; clip-path:url(#clipPath21);" points=" 0 0 94 0 109 15 94 15 94 0 109 15 109 59 0 59" />
    </g>
    <g style="text-rendering:geometricPrecision; font-size:11; font-family:&apos;Tahoma&apos;;" transform="translate(340,404)">
      <path d="M3.5469 12.2048 L4.6094 12.1111 Q4.6875 12.7673 4.9688 13.1736 Q5.25 13.5798 5.8359 13.8376 Q6.4219 14.0954 7.1562 14.0954 Q7.7969 14.0954 8.2969 13.9001 Q8.7969 13.7048 9.0391 13.3689 Q9.2812 13.0329 9.2812 12.6423 Q9.2812 12.2361 9.0469 11.9314 Q8.8125 11.6267 8.2812 11.4236 Q7.9219 11.2829 6.7422 11.0017 Q5.5625 10.7204 5.0938 10.4704 Q4.4688 10.1423 4.1719 9.6657 Q3.875 9.1892 3.875 8.5954 Q3.875 7.9548 4.2422 7.3845 Q4.6094 6.8142 5.3203 6.5251 Q6.0312 6.2361 6.8906 6.2361 Q7.8438 6.2361 8.5781 6.5407 Q9.3125 6.8454 9.7031 7.447 Q10.0938 8.0486 10.125 8.7986 L9.0312 8.8767 Q8.9375 8.0642 8.4297 7.6501 Q7.9219 7.2361 6.9375 7.2361 Q5.9062 7.2361 5.4375 7.6111 Q4.9688 7.9861 4.9688 8.5173 Q4.9688 8.9861 5.2969 9.2829 Q5.625 9.5798 7.0078 9.8923 Q8.3906 10.2048 8.9062 10.4392 Q9.6562 10.7986 10.0156 11.322 Q10.375 11.8454 10.375 12.5486 Q10.375 13.2361 9.9844 13.8376 Q9.5938 14.4392 8.8594 14.7751 Q8.125 15.1111 7.2031 15.1111 Q6.0312 15.1111 5.2422 14.7751 Q4.4531 14.4392 4.0078 13.7517 Q3.5625 13.0642 3.5469 12.2048 ZM11.2344 14.9704 L11.2344 14.1111 L15.2031 9.5642 Q14.5156 9.5954 14 9.5954 L11.4688 9.5954 L11.4688 8.7517 L16.5625 8.7517 L16.5625 9.4392 L13.1875 13.3923 L12.5312 14.1111 Q13.25 14.0642 13.8594 14.0642 L16.75 14.0642 L16.75 14.9704 L11.2344 14.9704 ZM16.7969 7.5954 L16.7969 6.3767 L17.8594 6.3767 L17.8594 7.5954 L16.7969 7.5954 ZM16.7969 14.9704 L16.7969 8.7517 L17.8594 8.7517 L17.8594 14.9704 L16.7969 14.9704 ZM19.7969 14.9704 L19.7969 8.7517 L20.7344 8.7517 L20.7344 9.6267 Q21.0312 9.1579 21.5156 8.8845 Q22 8.6111 22.625 8.6111 Q23.3125 8.6111 23.7578 8.8923 Q24.2031 9.1736 24.375 9.6892 Q25.125 8.6111 26.2969 8.6111 Q27.2344 8.6111 27.7266 9.1189 Q28.2188 9.6267 28.2188 10.7048 L28.2188 14.9704 L27.1719 14.9704 L27.1719 11.0486 Q27.1719 10.4236 27.0703 10.1423 Q26.9688 9.8611 26.7031 9.6892 Q26.4375 9.5173 26.0625 9.5173 Q25.4062 9.5173 24.9766 9.9548 Q24.5469 10.3923 24.5469 11.3611 L24.5469 14.9704 L23.4844 14.9704 L23.4844 10.9236 Q23.4844 10.2204 23.2266 9.8689 Q22.9688 9.5173 22.3906 9.5173 Q21.9375 9.5173 21.5625 9.7517 Q21.1875 9.9861 21.0156 10.4392 Q20.8438 10.8923 20.8438 11.7361 L20.8438 14.9704 L19.7969 14.9704 ZM34.875 14.9704 L34.875 14.0486 Q34.1406 15.1111 32.8906 15.1111 Q32.3438 15.1111 31.8672 14.9001 Q31.3906 14.6892 31.1562 14.3689 Q30.9219 14.0486 30.8281 13.5798 Q30.7656 13.2829 30.7656 12.5954 L30.7656 8.7517 L31.8281 8.7517 L31.8281 12.2048 Q31.8281 13.0173 31.8906 13.3142 Q31.9844 13.7204 32.3047 13.9626 Q32.625 14.2048 33.1094 14.2048 Q33.5781 14.2048 33.9922 13.9626 Q34.4062 13.7204 34.5859 13.2986 Q34.7656 12.8767 34.7656 12.0798 L34.7656 8.7517 L35.8125 8.7517 L35.8125 14.9704 L34.875 14.9704 ZM37.7656 14.9704 L37.7656 6.3767 L38.8281 6.3767 L38.8281 14.9704 L37.7656 14.9704 ZM44.8594 14.2048 Q44.2656 14.7048 43.7266 14.9079 Q43.1875 15.1111 42.5625 15.1111 Q41.5312 15.1111 40.9844 14.6111 Q40.4375 14.1111 40.4375 13.3298 Q40.4375 12.8767 40.6406 12.4939 Q40.8438 12.1111 41.1875 11.8845 Q41.5312 11.6579 41.9531 11.5486 Q42.25 11.4548 42.8906 11.3767 Q44.1562 11.2361 44.7656 11.0173 Q44.7656 10.7986 44.7656 10.7517 Q44.7656 10.0954 44.4688 9.8298 Q44.0625 9.4861 43.2656 9.4861 Q42.5312 9.4861 42.1719 9.7439 Q41.8125 10.0017 41.6406 10.6579 L40.6094 10.5173 Q40.75 9.8611 41.0781 9.4548 Q41.4062 9.0486 42.0156 8.8298 Q42.625 8.6111 43.4219 8.6111 Q44.2188 8.6111 44.7188 8.7986 Q45.2188 8.9861 45.4531 9.2673 Q45.6875 9.5486 45.7812 9.9861 Q45.8281 10.2517 45.8281 10.9548 L45.8281 12.3611 Q45.8281 13.8298 45.8984 14.2204 Q45.9688 14.6111 46.1719 14.9704 L45.0625 14.9704 Q44.9062 14.6423 44.8594 14.2048 ZM44.7656 11.8454 Q44.1875 12.0798 43.0469 12.2517 Q42.3906 12.3454 42.125 12.4626 Q41.8594 12.5798 41.7109 12.7986 Q41.5625 13.0173 41.5625 13.2986 Q41.5625 13.7204 41.8828 14.0017 Q42.2031 14.2829 42.8125 14.2829 Q43.4219 14.2829 43.8984 14.0173 Q44.375 13.7517 44.5938 13.2829 Q44.7656 12.9236 44.7656 12.2361 L44.7656 11.8454 ZM42.125 6.9704 L42.9062 5.3298 L44.2969 5.3298 L43 6.9704 L42.125 6.9704 ZM51.8594 12.6892 L52.8906 12.8298 Q52.7188 13.8923 52.0156 14.5017 Q51.3125 15.1111 50.2969 15.1111 Q49.0156 15.1111 48.2422 14.2751 Q47.4688 13.4392 47.4688 11.8767 Q47.4688 10.8767 47.8047 10.1189 Q48.1406 9.3611 48.8203 8.9861 Q49.5 8.6111 50.3125 8.6111 Q51.3125 8.6111 51.9609 9.1189 Q52.6094 9.6267 52.7969 10.5798 L51.7656 10.7361 Q51.625 10.1111 51.25 9.7907 Q50.875 9.4704 50.3438 9.4704 Q49.5469 9.4704 49.0469 10.0407 Q48.5469 10.6111 48.5469 11.8454 Q48.5469 13.1111 49.0312 13.6736 Q49.5156 14.2361 50.2812 14.2361 Q50.9062 14.2361 51.3203 13.8611 Q51.7344 13.4861 51.8594 12.6892 ZM53.7969 7.5954 L53.7969 6.3767 L54.8594 6.3767 L54.8594 7.5954 L53.7969 7.5954 ZM53.7969 14.9704 L53.7969 8.7517 L54.8594 8.7517 L54.8594 14.9704 L53.7969 14.9704 ZM56.4062 11.8611 Q56.4062 10.1267 57.3594 9.2986 Q58.1562 8.6111 59.3125 8.6111 Q60.5938 8.6111 61.4141 9.447 Q62.2344 10.2829 62.2344 11.7673 Q62.2344 12.9704 61.875 13.6579 Q61.5156 14.3454 60.8203 14.7282 Q60.125 15.1111 59.3125 15.1111 Q58.0156 15.1111 57.2109 14.2751 Q56.4062 13.4392 56.4062 11.8611 ZM57.4844 11.8611 Q57.4844 13.0486 58.0078 13.6423 Q58.5312 14.2361 59.3125 14.2361 Q60.1094 14.2361 60.625 13.6423 Q61.1406 13.0486 61.1406 11.8298 Q61.1406 10.6736 60.6172 10.0798 Q60.0938 9.4861 59.3125 9.4861 Q58.5312 9.4861 58.0078 10.072 Q57.4844 10.6579 57.4844 11.8611 ZM58.125 6.9704 L58.9062 5.3298 L60.2969 5.3298 L59 6.9704 L58.125 6.9704 Z" style="clip-path:url(#clipPath22); stroke:none;" />
      <path d="M7.8594 28.2048 Q7.2656 28.7048 6.7266 28.9079 Q6.1875 29.1111 5.5625 29.1111 Q4.5312 29.1111 3.9844 28.6111 Q3.4375 28.1111 3.4375 27.3298 Q3.4375 26.8767 3.6406 26.4939 Q3.8438 26.1111 4.1875 25.8845 Q4.5312 25.6579 4.9531 25.5486 Q5.25 25.4548 5.8906 25.3767 Q7.1562 25.2361 7.7656 25.0173 Q7.7656 24.7986 7.7656 24.7517 Q7.7656 24.0954 7.4688 23.8298 Q7.0625 23.4861 6.2656 23.4861 Q5.5312 23.4861 5.1719 23.7439 Q4.8125 24.0017 4.6406 24.6579 L3.6094 24.5173 Q3.75 23.8611 4.0781 23.4548 Q4.4062 23.0486 5.0156 22.8298 Q5.625 22.6111 6.4219 22.6111 Q7.2188 22.6111 7.7188 22.7986 Q8.2188 22.9861 8.4531 23.2673 Q8.6875 23.5486 8.7812 23.9861 Q8.8281 24.2517 8.8281 24.9548 L8.8281 26.3611 Q8.8281 27.8298 8.8984 28.2204 Q8.9688 28.6111 9.1719 28.9704 L8.0625 28.9704 Q7.9062 28.6423 7.8594 28.2048 ZM7.7656 25.8454 Q7.1875 26.0798 6.0469 26.2517 Q5.3906 26.3454 5.125 26.4626 Q4.8594 26.5798 4.7109 26.7986 Q4.5625 27.0173 4.5625 27.2986 Q4.5625 27.7204 4.8828 28.0017 Q5.2031 28.2829 5.8125 28.2829 Q6.4219 28.2829 6.8984 28.0173 Q7.375 27.7517 7.5938 27.2829 Q7.7656 26.9236 7.7656 26.2361 L7.7656 25.8454 ZM5.125 20.9704 L5.9062 19.3298 L7.2969 19.3298 L6 20.9704 L5.125 20.9704 ZM10.7656 28.9704 L10.7656 20.3767 L11.8281 20.3767 L11.8281 28.9704 L10.7656 28.9704 ZM13.7656 28.9704 L13.7656 20.3767 L14.8281 20.3767 L14.8281 28.9704 L13.7656 28.9704 ZM20.8594 28.2048 Q20.2656 28.7048 19.7266 28.9079 Q19.1875 29.1111 18.5625 29.1111 Q17.5312 29.1111 16.9844 28.6111 Q16.4375 28.1111 16.4375 27.3298 Q16.4375 26.8767 16.6406 26.4939 Q16.8438 26.1111 17.1875 25.8845 Q17.5312 25.6579 17.9531 25.5486 Q18.25 25.4548 18.8906 25.3767 Q20.1562 25.2361 20.7656 25.0173 Q20.7656 24.7986 20.7656 24.7517 Q20.7656 24.0954 20.4688 23.8298 Q20.0625 23.4861 19.2656 23.4861 Q18.5312 23.4861 18.1719 23.7439 Q17.8125 24.0017 17.6406 24.6579 L16.6094 24.5173 Q16.75 23.8611 17.0781 23.4548 Q17.4062 23.0486 18.0156 22.8298 Q18.625 22.6111 19.4219 22.6111 Q20.2188 22.6111 20.7188 22.7986 Q21.2188 22.9861 21.4531 23.2673 Q21.6875 23.5486 21.7812 23.9861 Q21.8281 24.2517 21.8281 24.9548 L21.8281 26.3611 Q21.8281 27.8298 21.8984 28.2204 Q21.9688 28.6111 22.1719 28.9704 L21.0625 28.9704 Q20.9062 28.6423 20.8594 28.2048 ZM20.7656 25.8454 Q20.1875 26.0798 19.0469 26.2517 Q18.3906 26.3454 18.125 26.4626 Q17.8594 26.5798 17.7109 26.7986 Q17.5625 27.0173 17.5625 27.2986 Q17.5625 27.7204 17.8828 28.0017 Q18.2031 28.2829 18.8125 28.2829 Q19.4219 28.2829 19.8984 28.0173 Q20.375 27.7517 20.5938 27.2829 Q20.7656 26.9236 20.7656 26.2361 L20.7656 25.8454 ZM23.7969 31.3611 L23.7969 22.7517 L24.75 22.7517 L24.75 23.5486 Q25.0938 23.0798 25.5234 22.8454 Q25.9531 22.6111 26.5625 22.6111 Q27.3594 22.6111 27.9688 23.0173 Q28.5781 23.4236 28.8828 24.1736 Q29.1875 24.9236 29.1875 25.8142 Q29.1875 26.7673 28.8516 27.5329 Q28.5156 28.2986 27.8594 28.7048 Q27.2031 29.1111 26.4844 29.1111 Q25.9531 29.1111 25.5312 28.8845 Q25.1094 28.6579 24.8438 28.3298 L24.8438 31.3611 L23.7969 31.3611 ZM24.75 25.8923 Q24.75 27.0954 25.2344 27.6657 Q25.7188 28.2361 26.4062 28.2361 Q27.1094 28.2361 27.6094 27.6423 Q28.1094 27.0486 28.1094 25.7986 Q28.1094 24.6111 27.625 24.0251 Q27.1406 23.4392 26.4531 23.4392 Q25.7812 23.4392 25.2656 24.0642 Q24.75 24.6892 24.75 25.8923 ZM30.4062 25.8611 Q30.4062 24.1267 31.3594 23.2986 Q32.1562 22.6111 33.3125 22.6111 Q34.5938 22.6111 35.4141 23.447 Q36.2344 24.2829 36.2344 25.7673 Q36.2344 26.9704 35.875 27.6579 Q35.5156 28.3454 34.8203 28.7282 Q34.125 29.1111 33.3125 29.1111 Q32.0156 29.1111 31.2109 28.2751 Q30.4062 27.4392 30.4062 25.8611 ZM31.4844 25.8611 Q31.4844 27.0486 32.0078 27.6423 Q32.5312 28.2361 33.3125 28.2361 Q34.1094 28.2361 34.625 27.6423 Q35.1406 27.0486 35.1406 25.8298 Q35.1406 24.6736 34.6172 24.0798 Q34.0938 23.4861 33.3125 23.4861 Q32.5312 23.4861 32.0078 24.072 Q31.4844 24.6579 31.4844 25.8611 ZM40.0938 28.0329 L40.25 28.9548 Q39.7969 29.0486 39.4531 29.0486 Q38.875 29.0486 38.5625 28.8689 Q38.25 28.6892 38.1172 28.3923 Q37.9844 28.0954 37.9844 27.1423 L37.9844 23.5642 L37.2188 23.5642 L37.2188 22.7517 L37.9844 22.7517 L37.9844 21.2048 L39.0312 20.5798 L39.0312 22.7517 L40.0938 22.7517 L40.0938 23.5642 L39.0312 23.5642 L39.0312 27.2048 Q39.0312 27.6579 39.0859 27.7829 Q39.1406 27.9079 39.2656 27.9861 Q39.3906 28.0642 39.625 28.0642 Q39.8125 28.0642 40.0938 28.0329 ZM42.5156 28.9704 L40.1562 22.7517 L41.2656 22.7517 L42.6094 26.4704 Q42.8125 27.0798 43 27.7204 Q43.1406 27.2361 43.3906 26.5486 L44.7812 22.7517 L45.8594 22.7517 L43.5 28.9704 L42.5156 28.9704 ZM49.8594 28.2048 Q49.2656 28.7048 48.7266 28.9079 Q48.1875 29.1111 47.5625 29.1111 Q46.5312 29.1111 45.9844 28.6111 Q45.4375 28.1111 45.4375 27.3298 Q45.4375 26.8767 45.6406 26.4939 Q45.8438 26.1111 46.1875 25.8845 Q46.5312 25.6579 46.9531 25.5486 Q47.25 25.4548 47.8906 25.3767 Q49.1562 25.2361 49.7656 25.0173 Q49.7656 24.7986 49.7656 24.7517 Q49.7656 24.0954 49.4688 23.8298 Q49.0625 23.4861 48.2656 23.4861 Q47.5312 23.4861 47.1719 23.7439 Q46.8125 24.0017 46.6406 24.6579 L45.6094 24.5173 Q45.75 23.8611 46.0781 23.4548 Q46.4062 23.0486 47.0156 22.8298 Q47.625 22.6111 48.4219 22.6111 Q49.2188 22.6111 49.7188 22.7986 Q50.2188 22.9861 50.4531 23.2673 Q50.6875 23.5486 50.7812 23.9861 Q50.8281 24.2517 50.8281 24.9548 L50.8281 26.3611 Q50.8281 27.8298 50.8984 28.2204 Q50.9688 28.6111 51.1719 28.9704 L50.0625 28.9704 Q49.9062 28.6423 49.8594 28.2048 ZM49.7656 25.8454 Q49.1875 26.0798 48.0469 26.2517 Q47.3906 26.3454 47.125 26.4626 Q46.8594 26.5798 46.7109 26.7986 Q46.5625 27.0173 46.5625 27.2986 Q46.5625 27.7204 46.8828 28.0017 Q47.2031 28.2829 47.8125 28.2829 Q48.4219 28.2829 48.8984 28.0173 Q49.375 27.7517 49.5938 27.2829 Q49.7656 26.9236 49.7656 26.2361 L49.7656 25.8454 ZM47.125 20.9704 L47.9062 19.3298 L49.2969 19.3298 L48 20.9704 L47.125 20.9704 ZM52.7656 28.9704 L52.7656 20.3767 L53.8281 20.3767 L53.8281 28.9704 L52.7656 28.9704 ZM58.0938 28.0329 L58.25 28.9548 Q57.7969 29.0486 57.4531 29.0486 Q56.875 29.0486 56.5625 28.8689 Q56.25 28.6892 56.1172 28.3923 Q55.9844 28.0954 55.9844 27.1423 L55.9844 23.5642 L55.2188 23.5642 L55.2188 22.7517 L55.9844 22.7517 L55.9844 21.2048 L57.0312 20.5798 L57.0312 22.7517 L58.0938 22.7517 L58.0938 23.5642 L57.0312 23.5642 L57.0312 27.2048 Q57.0312 27.6579 57.0859 27.7829 Q57.1406 27.9079 57.2656 27.9861 Q57.3906 28.0642 57.625 28.0642 Q57.8125 28.0642 58.0938 28.0329 ZM58.4062 25.8611 Q58.4062 24.1267 59.3594 23.2986 Q60.1562 22.6111 61.3125 22.6111 Q62.5938 22.6111 63.4141 23.447 Q64.2344 24.2829 64.2344 25.7673 Q64.2344 26.9704 63.875 27.6579 Q63.5156 28.3454 62.8203 28.7282 Q62.125 29.1111 61.3125 29.1111 Q60.0156 29.1111 59.2109 28.2751 Q58.4062 27.4392 58.4062 25.8611 ZM59.4844 25.8611 Q59.4844 27.0486 60.0078 27.6423 Q60.5312 28.2361 61.3125 28.2361 Q62.1094 28.2361 62.625 27.6423 Q63.1406 27.0486 63.1406 25.8298 Q63.1406 24.6736 62.6172 24.0798 Q62.0938 23.4861 61.3125 23.4861 Q60.5312 23.4861 60.0078 24.072 Q59.4844 24.6579 59.4844 25.8611 ZM65.2344 28.9704 L65.2344 28.1111 L69.2031 23.5642 Q68.5156 23.5954 68 23.5954 L65.4688 23.5954 L65.4688 22.7517 L70.5625 22.7517 L70.5625 23.4392 L67.1875 27.3923 L66.5312 28.1111 Q67.25 28.0642 67.8594 28.0642 L70.75 28.0642 L70.75 28.9704 L65.2344 28.9704 ZM74.8594 28.2048 Q74.2656 28.7048 73.7266 28.9079 Q73.1875 29.1111 72.5625 29.1111 Q71.5312 29.1111 70.9844 28.6111 Q70.4375 28.1111 70.4375 27.3298 Q70.4375 26.8767 70.6406 26.4939 Q70.8438 26.1111 71.1875 25.8845 Q71.5312 25.6579 71.9531 25.5486 Q72.25 25.4548 72.8906 25.3767 Q74.1562 25.2361 74.7656 25.0173 Q74.7656 24.7986 74.7656 24.7517 Q74.7656 24.0954 74.4688 23.8298 Q74.0625 23.4861 73.2656 23.4861 Q72.5312 23.4861 72.1719 23.7439 Q71.8125 24.0017 71.6406 24.6579 L70.6094 24.5173 Q70.75 23.8611 71.0781 23.4548 Q71.4062 23.0486 72.0156 22.8298 Q72.625 22.6111 73.4219 22.6111 Q74.2188 22.6111 74.7188 22.7986 Q75.2188 22.9861 75.4531 23.2673 Q75.6875 23.5486 75.7812 23.9861 Q75.8281 24.2517 75.8281 24.9548 L75.8281 26.3611 Q75.8281 27.8298 75.8984 28.2204 Q75.9688 28.6111 76.1719 28.9704 L75.0625 28.9704 Q74.9062 28.6423 74.8594 28.2048 ZM74.7656 25.8454 Q74.1875 26.0798 73.0469 26.2517 Q72.3906 26.3454 72.125 26.4626 Q71.8594 26.5798 71.7109 26.7986 Q71.5625 27.0173 71.5625 27.2986 Q71.5625 27.7204 71.8828 28.0017 Q72.2031 28.2829 72.8125 28.2829 Q73.4219 28.2829 73.8984 28.0173 Q74.375 27.7517 74.5938 27.2829 Q74.7656 26.9236 74.7656 26.2361 L74.7656 25.8454 ZM72.125 20.9704 L72.9062 19.3298 L74.2969 19.3298 L73 20.9704 L72.125 20.9704 ZM77.375 27.1111 L78.4062 26.9548 Q78.5 27.5798 78.8984 27.9079 Q79.2969 28.2361 80.0312 28.2361 Q80.75 28.2361 81.1016 27.947 Q81.4531 27.6579 81.4531 27.2517 Q81.4531 26.8923 81.1406 26.6892 Q80.9219 26.5486 80.0625 26.3298 Q78.9062 26.0329 78.4609 25.822 Q78.0156 25.6111 77.7812 25.2361 Q77.5469 24.8611 77.5469 24.3923 Q77.5469 23.9861 77.7344 23.6267 Q77.9219 23.2673 78.25 23.0329 Q78.5 22.8611 78.9219 22.7361 Q79.3438 22.6111 79.8438 22.6111 Q80.5625 22.6111 81.1172 22.822 Q81.6719 23.0329 81.9375 23.3923 Q82.2031 23.7517 82.2969 24.3454 L81.2656 24.4861 Q81.2031 24.0173 80.8672 23.7439 Q80.5312 23.4704 79.9062 23.4704 Q79.1875 23.4704 78.875 23.7126 Q78.5625 23.9548 78.5625 24.2829 Q78.5625 24.4861 78.6875 24.6423 Q78.8281 24.8142 79.0938 24.9236 Q79.25 24.9861 80.0312 25.1892 Q81.1562 25.5017 81.5938 25.6892 Q82.0312 25.8767 82.2812 26.2361 Q82.5312 26.5954 82.5312 27.1423 Q82.5312 27.6736 82.2266 28.1345 Q81.9219 28.5954 81.3438 28.8532 Q80.7656 29.1111 80.0312 29.1111 Q78.8125 29.1111 78.1797 28.6032 Q77.5469 28.0954 77.375 27.1111 ZM88.8594 28.2048 Q88.2656 28.7048 87.7266 28.9079 Q87.1875 29.1111 86.5625 29.1111 Q85.5312 29.1111 84.9844 28.6111 Q84.4375 28.1111 84.4375 27.3298 Q84.4375 26.8767 84.6406 26.4939 Q84.8438 26.1111 85.1875 25.8845 Q85.5312 25.6579 85.9531 25.5486 Q86.25 25.4548 86.8906 25.3767 Q88.1562 25.2361 88.7656 25.0173 Q88.7656 24.7986 88.7656 24.7517 Q88.7656 24.0954 88.4688 23.8298 Q88.0625 23.4861 87.2656 23.4861 Q86.5312 23.4861 86.1719 23.7439 Q85.8125 24.0017 85.6406 24.6579 L84.6094 24.5173 Q84.75 23.8611 85.0781 23.4548 Q85.4062 23.0486 86.0156 22.8298 Q86.625 22.6111 87.4219 22.6111 Q88.2188 22.6111 88.7188 22.7986 Q89.2188 22.9861 89.4531 23.2673 Q89.6875 23.5486 89.7812 23.9861 Q89.8281 24.2517 89.8281 24.9548 L89.8281 26.3611 Q89.8281 27.8298 89.8984 28.2204 Q89.9688 28.6111 90.1719 28.9704 L89.0625 28.9704 Q88.9062 28.6423 88.8594 28.2048 ZM88.7656 25.8454 Q88.1875 26.0798 87.0469 26.2517 Q86.3906 26.3454 86.125 26.4626 Q85.8594 26.5798 85.7109 26.7986 Q85.5625 27.0173 85.5625 27.2986 Q85.5625 27.7204 85.8828 28.0017 Q86.2031 28.2829 86.8125 28.2829 Q87.4219 28.2829 87.8984 28.0173 Q88.375 27.7517 88.5938 27.2829 Q88.7656 26.9236 88.7656 26.2361 L88.7656 25.8454 Z" style="clip-path:url(#clipPath22); stroke:none;" />
      <path d="M3.9844 42.9704 L3.9844 34.3767 L9.7812 34.3767 L9.7812 35.3923 L5.125 35.3923 L5.125 38.0486 L9.1562 38.0486 L9.1562 39.0642 L5.125 39.0642 L5.125 42.9704 L3.9844 42.9704 ZM9.9844 42.9704 L13.2812 34.3767 L14.5 34.3767 L18.0156 42.9704 L16.7344 42.9704 L15.7188 40.3611 L12.1406 40.3611 L11.1875 42.9704 L9.9844 42.9704 ZM12.4688 39.4392 L15.375 39.4392 L14.4844 37.0642 Q14.0625 35.9861 13.875 35.2829 Q13.7031 36.1111 13.4062 36.9236 L12.4688 39.4392 ZM18.125 42.9704 L18.125 34.3767 L19.25 34.3767 L19.25 42.9704 L18.125 42.9704 ZM20.875 42.9704 L20.875 34.3767 L22.0156 34.3767 L22.0156 41.9548 L26.25 41.9548 L26.25 42.9704 L20.875 42.9704 ZM27.375 40.3923 L27.375 39.3298 L30.625 39.3298 L30.625 40.3923 L27.375 40.3923 ZM31.7812 42.9704 L31.7812 36.7517 L32.7344 36.7517 L32.7344 37.6892 Q33.0938 37.0329 33.3984 36.822 Q33.7031 36.6111 34.0781 36.6111 Q34.6094 36.6111 35.1562 36.9392 L34.7969 37.9236 Q34.4062 37.6892 34.0312 37.6892 Q33.6719 37.6892 33.3984 37.9001 Q33.125 38.1111 33.0156 38.4861 Q32.8281 39.0486 32.8281 39.7048 L32.8281 42.9704 L31.7812 42.9704 ZM40.0469 40.9704 L41.1406 41.0954 Q40.8906 42.0486 40.1875 42.5798 Q39.4844 43.1111 38.4062 43.1111 Q37.0469 43.1111 36.2422 42.2673 Q35.4375 41.4236 35.4375 39.9079 Q35.4375 38.3454 36.25 37.4782 Q37.0625 36.6111 38.3438 36.6111 Q39.5938 36.6111 40.3828 37.4548 Q41.1719 38.2986 41.1719 39.8454 Q41.1719 39.9392 41.1719 40.1267 L36.5312 40.1267 Q36.5938 41.1579 37.1094 41.697 Q37.625 42.2361 38.4062 42.2361 Q38.9844 42.2361 39.3984 41.9314 Q39.8125 41.6267 40.0469 40.9704 ZM36.5938 39.2673 L40.0625 39.2673 Q40 38.4704 39.6719 38.0798 Q39.1562 37.4704 38.3594 37.4704 Q37.625 37.4704 37.1328 37.9548 Q36.6406 38.4392 36.5938 39.2673 Z" style="clip-path:url(#clipPath22); stroke:none;" />
    </g>
    <g transform="translate(120,504)" style="font-size:11; fill:white; text-rendering:geometricPrecision; font-family:sans-serif; stroke:white;">
      <polygon style="clip-path:url(#clipPath23); stroke:none;" points=" 0 0 84 0 99 15 84 15 84 0 99 15 99 59 0 59" />
    </g>
    <g transform="translate(120,504)" style="font-size:11; stroke-linecap:butt; text-rendering:geometricPrecision; font-family:sans-serif; stroke-linejoin:round; stroke-miterlimit:0;">
      <polygon style="fill:none; clip-path:url(#clipPath23);" points=" 0 0 84 0 99 15 84 15 84 0 99 15 99 59 0 59" />
    </g>
    <g style="text-rendering:geometricPrecision; font-size:11; font-family:&apos;Tahoma&apos;;" transform="translate(120,504)">
      <path d="M3.5469 12.2048 L4.6094 12.1111 Q4.6875 12.7673 4.9688 13.1736 Q5.25 13.5798 5.8359 13.8376 Q6.4219 14.0954 7.1562 14.0954 Q7.7969 14.0954 8.2969 13.9001 Q8.7969 13.7048 9.0391 13.3689 Q9.2812 13.0329 9.2812 12.6423 Q9.2812 12.2361 9.0469 11.9314 Q8.8125 11.6267 8.2812 11.4236 Q7.9219 11.2829 6.7422 11.0017 Q5.5625 10.7204 5.0938 10.4704 Q4.4688 10.1423 4.1719 9.6657 Q3.875 9.1892 3.875 8.5954 Q3.875 7.9548 4.2422 7.3845 Q4.6094 6.8142 5.3203 6.5251 Q6.0312 6.2361 6.8906 6.2361 Q7.8438 6.2361 8.5781 6.5407 Q9.3125 6.8454 9.7031 7.447 Q10.0938 8.0486 10.125 8.7986 L9.0312 8.8767 Q8.9375 8.0642 8.4297 7.6501 Q7.9219 7.2361 6.9375 7.2361 Q5.9062 7.2361 5.4375 7.6111 Q4.9688 7.9861 4.9688 8.5173 Q4.9688 8.9861 5.2969 9.2829 Q5.625 9.5798 7.0078 9.8923 Q8.3906 10.2048 8.9062 10.4392 Q9.6562 10.7986 10.0156 11.322 Q10.375 11.8454 10.375 12.5486 Q10.375 13.2361 9.9844 13.8376 Q9.5938 14.4392 8.8594 14.7751 Q8.125 15.1111 7.2031 15.1111 Q6.0312 15.1111 5.2422 14.7751 Q4.4531 14.4392 4.0078 13.7517 Q3.5625 13.0642 3.5469 12.2048 ZM11.2344 14.9704 L11.2344 14.1111 L15.2031 9.5642 Q14.5156 9.5954 14 9.5954 L11.4688 9.5954 L11.4688 8.7517 L16.5625 8.7517 L16.5625 9.4392 L13.1875 13.3923 L12.5312 14.1111 Q13.25 14.0642 13.8594 14.0642 L16.75 14.0642 L16.75 14.9704 L11.2344 14.9704 ZM16.7969 7.5954 L16.7969 6.3767 L17.8594 6.3767 L17.8594 7.5954 L16.7969 7.5954 ZM16.7969 14.9704 L16.7969 8.7517 L17.8594 8.7517 L17.8594 14.9704 L16.7969 14.9704 ZM19.7969 14.9704 L19.7969 8.7517 L20.7344 8.7517 L20.7344 9.6267 Q21.0312 9.1579 21.5156 8.8845 Q22 8.6111 22.625 8.6111 Q23.3125 8.6111 23.7578 8.8923 Q24.2031 9.1736 24.375 9.6892 Q25.125 8.6111 26.2969 8.6111 Q27.2344 8.6111 27.7266 9.1189 Q28.2188 9.6267 28.2188 10.7048 L28.2188 14.9704 L27.1719 14.9704 L27.1719 11.0486 Q27.1719 10.4236 27.0703 10.1423 Q26.9688 9.8611 26.7031 9.6892 Q26.4375 9.5173 26.0625 9.5173 Q25.4062 9.5173 24.9766 9.9548 Q24.5469 10.3923 24.5469 11.3611 L24.5469 14.9704 L23.4844 14.9704 L23.4844 10.9236 Q23.4844 10.2204 23.2266 9.8689 Q22.9688 9.5173 22.3906 9.5173 Q21.9375 9.5173 21.5625 9.7517 Q21.1875 9.9861 21.0156 10.4392 Q20.8438 10.8923 20.8438 11.7361 L20.8438 14.9704 L19.7969 14.9704 ZM34.875 14.9704 L34.875 14.0486 Q34.1406 15.1111 32.8906 15.1111 Q32.3438 15.1111 31.8672 14.9001 Q31.3906 14.6892 31.1562 14.3689 Q30.9219 14.0486 30.8281 13.5798 Q30.7656 13.2829 30.7656 12.5954 L30.7656 8.7517 L31.8281 8.7517 L31.8281 12.2048 Q31.8281 13.0173 31.8906 13.3142 Q31.9844 13.7204 32.3047 13.9626 Q32.625 14.2048 33.1094 14.2048 Q33.5781 14.2048 33.9922 13.9626 Q34.4062 13.7204 34.5859 13.2986 Q34.7656 12.8767 34.7656 12.0798 L34.7656 8.7517 L35.8125 8.7517 L35.8125 14.9704 L34.875 14.9704 ZM37.7656 14.9704 L37.7656 6.3767 L38.8281 6.3767 L38.8281 14.9704 L37.7656 14.9704 ZM44.8594 14.2048 Q44.2656 14.7048 43.7266 14.9079 Q43.1875 15.1111 42.5625 15.1111 Q41.5312 15.1111 40.9844 14.6111 Q40.4375 14.1111 40.4375 13.3298 Q40.4375 12.8767 40.6406 12.4939 Q40.8438 12.1111 41.1875 11.8845 Q41.5312 11.6579 41.9531 11.5486 Q42.25 11.4548 42.8906 11.3767 Q44.1562 11.2361 44.7656 11.0173 Q44.7656 10.7986 44.7656 10.7517 Q44.7656 10.0954 44.4688 9.8298 Q44.0625 9.4861 43.2656 9.4861 Q42.5312 9.4861 42.1719 9.7439 Q41.8125 10.0017 41.6406 10.6579 L40.6094 10.5173 Q40.75 9.8611 41.0781 9.4548 Q41.4062 9.0486 42.0156 8.8298 Q42.625 8.6111 43.4219 8.6111 Q44.2188 8.6111 44.7188 8.7986 Q45.2188 8.9861 45.4531 9.2673 Q45.6875 9.5486 45.7812 9.9861 Q45.8281 10.2517 45.8281 10.9548 L45.8281 12.3611 Q45.8281 13.8298 45.8984 14.2204 Q45.9688 14.6111 46.1719 14.9704 L45.0625 14.9704 Q44.9062 14.6423 44.8594 14.2048 ZM44.7656 11.8454 Q44.1875 12.0798 43.0469 12.2517 Q42.3906 12.3454 42.125 12.4626 Q41.8594 12.5798 41.7109 12.7986 Q41.5625 13.0173 41.5625 13.2986 Q41.5625 13.7204 41.8828 14.0017 Q42.2031 14.2829 42.8125 14.2829 Q43.4219 14.2829 43.8984 14.0173 Q44.375 13.7517 44.5938 13.2829 Q44.7656 12.9236 44.7656 12.2361 L44.7656 11.8454 ZM42.125 6.9704 L42.9062 5.3298 L44.2969 5.3298 L43 6.9704 L42.125 6.9704 ZM51.8594 12.6892 L52.8906 12.8298 Q52.7188 13.8923 52.0156 14.5017 Q51.3125 15.1111 50.2969 15.1111 Q49.0156 15.1111 48.2422 14.2751 Q47.4688 13.4392 47.4688 11.8767 Q47.4688 10.8767 47.8047 10.1189 Q48.1406 9.3611 48.8203 8.9861 Q49.5 8.6111 50.3125 8.6111 Q51.3125 8.6111 51.9609 9.1189 Q52.6094 9.6267 52.7969 10.5798 L51.7656 10.7361 Q51.625 10.1111 51.25 9.7907 Q50.875 9.4704 50.3438 9.4704 Q49.5469 9.4704 49.0469 10.0407 Q48.5469 10.6111 48.5469 11.8454 Q48.5469 13.1111 49.0312 13.6736 Q49.5156 14.2361 50.2812 14.2361 Q50.9062 14.2361 51.3203 13.8611 Q51.7344 13.4861 51.8594 12.6892 ZM53.7969 7.5954 L53.7969 6.3767 L54.8594 6.3767 L54.8594 7.5954 L53.7969 7.5954 ZM53.7969 14.9704 L53.7969 8.7517 L54.8594 8.7517 L54.8594 14.9704 L53.7969 14.9704 ZM56.4062 11.8611 Q56.4062 10.1267 57.3594 9.2986 Q58.1562 8.6111 59.3125 8.6111 Q60.5938 8.6111 61.4141 9.447 Q62.2344 10.2829 62.2344 11.7673 Q62.2344 12.9704 61.875 13.6579 Q61.5156 14.3454 60.8203 14.7282 Q60.125 15.1111 59.3125 15.1111 Q58.0156 15.1111 57.2109 14.2751 Q56.4062 13.4392 56.4062 11.8611 ZM57.4844 11.8611 Q57.4844 13.0486 58.0078 13.6423 Q58.5312 14.2361 59.3125 14.2361 Q60.1094 14.2361 60.625 13.6423 Q61.1406 13.0486 61.1406 11.8298 Q61.1406 10.6736 60.6172 10.0798 Q60.0938 9.4861 59.3125 9.4861 Q58.5312 9.4861 58.0078 10.072 Q57.4844 10.6579 57.4844 11.8611 ZM58.125 6.9704 L58.9062 5.3298 L60.2969 5.3298 L59 6.9704 L58.125 6.9704 Z" style="clip-path:url(#clipPath24); stroke:none;" />
      <path d="M7.8594 28.2048 Q7.2656 28.7048 6.7266 28.9079 Q6.1875 29.1111 5.5625 29.1111 Q4.5312 29.1111 3.9844 28.6111 Q3.4375 28.1111 3.4375 27.3298 Q3.4375 26.8767 3.6406 26.4939 Q3.8438 26.1111 4.1875 25.8845 Q4.5312 25.6579 4.9531 25.5486 Q5.25 25.4548 5.8906 25.3767 Q7.1562 25.2361 7.7656 25.0173 Q7.7656 24.7986 7.7656 24.7517 Q7.7656 24.0954 7.4688 23.8298 Q7.0625 23.4861 6.2656 23.4861 Q5.5312 23.4861 5.1719 23.7439 Q4.8125 24.0017 4.6406 24.6579 L3.6094 24.5173 Q3.75 23.8611 4.0781 23.4548 Q4.4062 23.0486 5.0156 22.8298 Q5.625 22.6111 6.4219 22.6111 Q7.2188 22.6111 7.7188 22.7986 Q8.2188 22.9861 8.4531 23.2673 Q8.6875 23.5486 8.7812 23.9861 Q8.8281 24.2517 8.8281 24.9548 L8.8281 26.3611 Q8.8281 27.8298 8.8984 28.2204 Q8.9688 28.6111 9.1719 28.9704 L8.0625 28.9704 Q7.9062 28.6423 7.8594 28.2048 ZM7.7656 25.8454 Q7.1875 26.0798 6.0469 26.2517 Q5.3906 26.3454 5.125 26.4626 Q4.8594 26.5798 4.7109 26.7986 Q4.5625 27.0173 4.5625 27.2986 Q4.5625 27.7204 4.8828 28.0017 Q5.2031 28.2829 5.8125 28.2829 Q6.4219 28.2829 6.8984 28.0173 Q7.375 27.7517 7.5938 27.2829 Q7.7656 26.9236 7.7656 26.2361 L7.7656 25.8454 ZM5.125 20.9704 L5.9062 19.3298 L7.2969 19.3298 L6 20.9704 L5.125 20.9704 ZM10.7656 28.9704 L10.7656 20.3767 L11.8281 20.3767 L11.8281 28.9704 L10.7656 28.9704 ZM13.7656 28.9704 L13.7656 20.3767 L14.8281 20.3767 L14.8281 28.9704 L13.7656 28.9704 ZM20.8594 28.2048 Q20.2656 28.7048 19.7266 28.9079 Q19.1875 29.1111 18.5625 29.1111 Q17.5312 29.1111 16.9844 28.6111 Q16.4375 28.1111 16.4375 27.3298 Q16.4375 26.8767 16.6406 26.4939 Q16.8438 26.1111 17.1875 25.8845 Q17.5312 25.6579 17.9531 25.5486 Q18.25 25.4548 18.8906 25.3767 Q20.1562 25.2361 20.7656 25.0173 Q20.7656 24.7986 20.7656 24.7517 Q20.7656 24.0954 20.4688 23.8298 Q20.0625 23.4861 19.2656 23.4861 Q18.5312 23.4861 18.1719 23.7439 Q17.8125 24.0017 17.6406 24.6579 L16.6094 24.5173 Q16.75 23.8611 17.0781 23.4548 Q17.4062 23.0486 18.0156 22.8298 Q18.625 22.6111 19.4219 22.6111 Q20.2188 22.6111 20.7188 22.7986 Q21.2188 22.9861 21.4531 23.2673 Q21.6875 23.5486 21.7812 23.9861 Q21.8281 24.2517 21.8281 24.9548 L21.8281 26.3611 Q21.8281 27.8298 21.8984 28.2204 Q21.9688 28.6111 22.1719 28.9704 L21.0625 28.9704 Q20.9062 28.6423 20.8594 28.2048 ZM20.7656 25.8454 Q20.1875 26.0798 19.0469 26.2517 Q18.3906 26.3454 18.125 26.4626 Q17.8594 26.5798 17.7109 26.7986 Q17.5625 27.0173 17.5625 27.2986 Q17.5625 27.7204 17.8828 28.0017 Q18.2031 28.2829 18.8125 28.2829 Q19.4219 28.2829 19.8984 28.0173 Q20.375 27.7517 20.5938 27.2829 Q20.7656 26.9236 20.7656 26.2361 L20.7656 25.8454 ZM23.7969 31.3611 L23.7969 22.7517 L24.75 22.7517 L24.75 23.5486 Q25.0938 23.0798 25.5234 22.8454 Q25.9531 22.6111 26.5625 22.6111 Q27.3594 22.6111 27.9688 23.0173 Q28.5781 23.4236 28.8828 24.1736 Q29.1875 24.9236 29.1875 25.8142 Q29.1875 26.7673 28.8516 27.5329 Q28.5156 28.2986 27.8594 28.7048 Q27.2031 29.1111 26.4844 29.1111 Q25.9531 29.1111 25.5312 28.8845 Q25.1094 28.6579 24.8438 28.3298 L24.8438 31.3611 L23.7969 31.3611 ZM24.75 25.8923 Q24.75 27.0954 25.2344 27.6657 Q25.7188 28.2361 26.4062 28.2361 Q27.1094 28.2361 27.6094 27.6423 Q28.1094 27.0486 28.1094 25.7986 Q28.1094 24.6111 27.625 24.0251 Q27.1406 23.4392 26.4531 23.4392 Q25.7812 23.4392 25.2656 24.0642 Q24.75 24.6892 24.75 25.8923 ZM30.4062 25.8611 Q30.4062 24.1267 31.3594 23.2986 Q32.1562 22.6111 33.3125 22.6111 Q34.5938 22.6111 35.4141 23.447 Q36.2344 24.2829 36.2344 25.7673 Q36.2344 26.9704 35.875 27.6579 Q35.5156 28.3454 34.8203 28.7282 Q34.125 29.1111 33.3125 29.1111 Q32.0156 29.1111 31.2109 28.2751 Q30.4062 27.4392 30.4062 25.8611 ZM31.4844 25.8611 Q31.4844 27.0486 32.0078 27.6423 Q32.5312 28.2361 33.3125 28.2361 Q34.1094 28.2361 34.625 27.6423 Q35.1406 27.0486 35.1406 25.8298 Q35.1406 24.6736 34.6172 24.0798 Q34.0938 23.4861 33.3125 23.4861 Q32.5312 23.4861 32.0078 24.072 Q31.4844 24.6579 31.4844 25.8611 ZM40.0938 28.0329 L40.25 28.9548 Q39.7969 29.0486 39.4531 29.0486 Q38.875 29.0486 38.5625 28.8689 Q38.25 28.6892 38.1172 28.3923 Q37.9844 28.0954 37.9844 27.1423 L37.9844 23.5642 L37.2188 23.5642 L37.2188 22.7517 L37.9844 22.7517 L37.9844 21.2048 L39.0312 20.5798 L39.0312 22.7517 L40.0938 22.7517 L40.0938 23.5642 L39.0312 23.5642 L39.0312 27.2048 Q39.0312 27.6579 39.0859 27.7829 Q39.1406 27.9079 39.2656 27.9861 Q39.3906 28.0642 39.625 28.0642 Q39.8125 28.0642 40.0938 28.0329 ZM42.5156 28.9704 L40.1562 22.7517 L41.2656 22.7517 L42.6094 26.4704 Q42.8125 27.0798 43 27.7204 Q43.1406 27.2361 43.3906 26.5486 L44.7812 22.7517 L45.8594 22.7517 L43.5 28.9704 L42.5156 28.9704 ZM49.8594 28.2048 Q49.2656 28.7048 48.7266 28.9079 Q48.1875 29.1111 47.5625 29.1111 Q46.5312 29.1111 45.9844 28.6111 Q45.4375 28.1111 45.4375 27.3298 Q45.4375 26.8767 45.6406 26.4939 Q45.8438 26.1111 46.1875 25.8845 Q46.5312 25.6579 46.9531 25.5486 Q47.25 25.4548 47.8906 25.3767 Q49.1562 25.2361 49.7656 25.0173 Q49.7656 24.7986 49.7656 24.7517 Q49.7656 24.0954 49.4688 23.8298 Q49.0625 23.4861 48.2656 23.4861 Q47.5312 23.4861 47.1719 23.7439 Q46.8125 24.0017 46.6406 24.6579 L45.6094 24.5173 Q45.75 23.8611 46.0781 23.4548 Q46.4062 23.0486 47.0156 22.8298 Q47.625 22.6111 48.4219 22.6111 Q49.2188 22.6111 49.7188 22.7986 Q50.2188 22.9861 50.4531 23.2673 Q50.6875 23.5486 50.7812 23.9861 Q50.8281 24.2517 50.8281 24.9548 L50.8281 26.3611 Q50.8281 27.8298 50.8984 28.2204 Q50.9688 28.6111 51.1719 28.9704 L50.0625 28.9704 Q49.9062 28.6423 49.8594 28.2048 ZM49.7656 25.8454 Q49.1875 26.0798 48.0469 26.2517 Q47.3906 26.3454 47.125 26.4626 Q46.8594 26.5798 46.7109 26.7986 Q46.5625 27.0173 46.5625 27.2986 Q46.5625 27.7204 46.8828 28.0017 Q47.2031 28.2829 47.8125 28.2829 Q48.4219 28.2829 48.8984 28.0173 Q49.375 27.7517 49.5938 27.2829 Q49.7656 26.9236 49.7656 26.2361 L49.7656 25.8454 ZM47.125 20.9704 L47.9062 19.3298 L49.2969 19.3298 L48 20.9704 L47.125 20.9704 ZM52.7656 28.9704 L52.7656 20.3767 L53.8281 20.3767 L53.8281 28.9704 L52.7656 28.9704 ZM58.0938 28.0329 L58.25 28.9548 Q57.7969 29.0486 57.4531 29.0486 Q56.875 29.0486 56.5625 28.8689 Q56.25 28.6892 56.1172 28.3923 Q55.9844 28.0954 55.9844 27.1423 L55.9844 23.5642 L55.2188 23.5642 L55.2188 22.7517 L55.9844 22.7517 L55.9844 21.2048 L57.0312 20.5798 L57.0312 22.7517 L58.0938 22.7517 L58.0938 23.5642 L57.0312 23.5642 L57.0312 27.2048 Q57.0312 27.6579 57.0859 27.7829 Q57.1406 27.9079 57.2656 27.9861 Q57.3906 28.0642 57.625 28.0642 Q57.8125 28.0642 58.0938 28.0329 ZM58.4062 25.8611 Q58.4062 24.1267 59.3594 23.2986 Q60.1562 22.6111 61.3125 22.6111 Q62.5938 22.6111 63.4141 23.447 Q64.2344 24.2829 64.2344 25.7673 Q64.2344 26.9704 63.875 27.6579 Q63.5156 28.3454 62.8203 28.7282 Q62.125 29.1111 61.3125 29.1111 Q60.0156 29.1111 59.2109 28.2751 Q58.4062 27.4392 58.4062 25.8611 ZM59.4844 25.8611 Q59.4844 27.0486 60.0078 27.6423 Q60.5312 28.2361 61.3125 28.2361 Q62.1094 28.2361 62.625 27.6423 Q63.1406 27.0486 63.1406 25.8298 Q63.1406 24.6736 62.6172 24.0798 Q62.0938 23.4861 61.3125 23.4861 Q60.5312 23.4861 60.0078 24.072 Q59.4844 24.6579 59.4844 25.8611 ZM65.2344 28.9704 L65.2344 28.1111 L69.2031 23.5642 Q68.5156 23.5954 68 23.5954 L65.4688 23.5954 L65.4688 22.7517 L70.5625 22.7517 L70.5625 23.4392 L67.1875 27.3923 L66.5312 28.1111 Q67.25 28.0642 67.8594 28.0642 L70.75 28.0642 L70.75 28.9704 L65.2344 28.9704 ZM74.8594 28.2048 Q74.2656 28.7048 73.7266 28.9079 Q73.1875 29.1111 72.5625 29.1111 Q71.5312 29.1111 70.9844 28.6111 Q70.4375 28.1111 70.4375 27.3298 Q70.4375 26.8767 70.6406 26.4939 Q70.8438 26.1111 71.1875 25.8845 Q71.5312 25.6579 71.9531 25.5486 Q72.25 25.4548 72.8906 25.3767 Q74.1562 25.2361 74.7656 25.0173 Q74.7656 24.7986 74.7656 24.7517 Q74.7656 24.0954 74.4688 23.8298 Q74.0625 23.4861 73.2656 23.4861 Q72.5312 23.4861 72.1719 23.7439 Q71.8125 24.0017 71.6406 24.6579 L70.6094 24.5173 Q70.75 23.8611 71.0781 23.4548 Q71.4062 23.0486 72.0156 22.8298 Q72.625 22.6111 73.4219 22.6111 Q74.2188 22.6111 74.7188 22.7986 Q75.2188 22.9861 75.4531 23.2673 Q75.6875 23.5486 75.7812 23.9861 Q75.8281 24.2517 75.8281 24.9548 L75.8281 26.3611 Q75.8281 27.8298 75.8984 28.2204 Q75.9688 28.6111 76.1719 28.9704 L75.0625 28.9704 Q74.9062 28.6423 74.8594 28.2048 ZM74.7656 25.8454 Q74.1875 26.0798 73.0469 26.2517 Q72.3906 26.3454 72.125 26.4626 Q71.8594 26.5798 71.7109 26.7986 Q71.5625 27.0173 71.5625 27.2986 Q71.5625 27.7204 71.8828 28.0017 Q72.2031 28.2829 72.8125 28.2829 Q73.4219 28.2829 73.8984 28.0173 Q74.375 27.7517 74.5938 27.2829 Q74.7656 26.9236 74.7656 26.2361 L74.7656 25.8454 ZM72.125 20.9704 L72.9062 19.3298 L74.2969 19.3298 L73 20.9704 L72.125 20.9704 ZM77.375 27.1111 L78.4062 26.9548 Q78.5 27.5798 78.8984 27.9079 Q79.2969 28.2361 80.0312 28.2361 Q80.75 28.2361 81.1016 27.947 Q81.4531 27.6579 81.4531 27.2517 Q81.4531 26.8923 81.1406 26.6892 Q80.9219 26.5486 80.0625 26.3298 Q78.9062 26.0329 78.4609 25.822 Q78.0156 25.6111 77.7812 25.2361 Q77.5469 24.8611 77.5469 24.3923 Q77.5469 23.9861 77.7344 23.6267 Q77.9219 23.2673 78.25 23.0329 Q78.5 22.8611 78.9219 22.7361 Q79.3438 22.6111 79.8438 22.6111 Q80.5625 22.6111 81.1172 22.822 Q81.6719 23.0329 81.9375 23.3923 Q82.2031 23.7517 82.2969 24.3454 L81.2656 24.4861 Q81.2031 24.0173 80.8672 23.7439 Q80.5312 23.4704 79.9062 23.4704 Q79.1875 23.4704 78.875 23.7126 Q78.5625 23.9548 78.5625 24.2829 Q78.5625 24.4861 78.6875 24.6423 Q78.8281 24.8142 79.0938 24.9236 Q79.25 24.9861 80.0312 25.1892 Q81.1562 25.5017 81.5938 25.6892 Q82.0312 25.8767 82.2812 26.2361 Q82.5312 26.5954 82.5312 27.1423 Q82.5312 27.6736 82.2266 28.1345 Q81.9219 28.5954 81.3438 28.8532 Q80.7656 29.1111 80.0312 29.1111 Q78.8125 29.1111 78.1797 28.6032 Q77.5469 28.0954 77.375 27.1111 ZM88.8594 28.2048 Q88.2656 28.7048 87.7266 28.9079 Q87.1875 29.1111 86.5625 29.1111 Q85.5312 29.1111 84.9844 28.6111 Q84.4375 28.1111 84.4375 27.3298 Q84.4375 26.8767 84.6406 26.4939 Q84.8438 26.1111 85.1875 25.8845 Q85.5312 25.6579 85.9531 25.5486 Q86.25 25.4548 86.8906 25.3767 Q88.1562 25.2361 88.7656 25.0173 Q88.7656 24.7986 88.7656 24.7517 Q88.7656 24.0954 88.4688 23.8298 Q88.0625 23.4861 87.2656 23.4861 Q86.5312 23.4861 86.1719 23.7439 Q85.8125 24.0017 85.6406 24.6579 L84.6094 24.5173 Q84.75 23.8611 85.0781 23.4548 Q85.4062 23.0486 86.0156 22.8298 Q86.625 22.6111 87.4219 22.6111 Q88.2188 22.6111 88.7188 22.7986 Q89.2188 22.9861 89.4531 23.2673 Q89.6875 23.5486 89.7812 23.9861 Q89.8281 24.2517 89.8281 24.9548 L89.8281 26.3611 Q89.8281 27.8298 89.8984 28.2204 Q89.9688 28.6111 90.1719 28.9704 L89.0625 28.9704 Q88.9062 28.6423 88.8594 28.2048 ZM88.7656 25.8454 Q88.1875 26.0798 87.0469 26.2517 Q86.3906 26.3454 86.125 26.4626 Q85.8594 26.5798 85.7109 26.7986 Q85.5625 27.0173 85.5625 27.2986 Q85.5625 27.7204 85.8828 28.0017 Q86.2031 28.2829 86.8125 28.2829 Q87.4219 28.2829 87.8984 28.0173 Q88.375 27.7517 88.5938 27.2829 Q88.7656 26.9236 88.7656 26.2361 L88.7656 25.8454 Z" style="clip-path:url(#clipPath24); stroke:none;" />
      <path d="M4.125 42.9704 L4.125 34.3767 L5.25 34.3767 L5.25 42.9704 L4.125 42.9704 ZM6.9219 42.9704 L6.9219 34.3767 L9.8906 34.3767 Q10.8906 34.3767 11.4219 34.5017 Q12.1562 34.6736 12.6719 35.1111 Q13.3594 35.6892 13.6953 36.5876 Q14.0312 37.4861 14.0312 38.6267 Q14.0312 39.6111 13.8047 40.3611 Q13.5781 41.1111 13.2188 41.6111 Q12.8594 42.1111 12.4297 42.3923 Q12 42.6736 11.4062 42.822 Q10.8125 42.9704 10.0312 42.9704 L6.9219 42.9704 ZM8.0625 41.9548 L9.8906 41.9548 Q10.75 41.9548 11.2344 41.7986 Q11.7188 41.6423 12 41.3454 Q12.4062 40.9548 12.6328 40.2673 Q12.8594 39.5798 12.8594 38.6111 Q12.8594 37.2673 12.4141 36.5407 Q11.9688 35.8142 11.3438 35.5642 Q10.875 35.3923 9.875 35.3923 L8.0625 35.3923 L8.0625 41.9548 ZM15.875 42.9704 L15.875 34.3767 L17.0156 34.3767 L17.0156 41.9548 L21.25 41.9548 L21.25 42.9704 L15.875 42.9704 ZM22.9531 42.9704 L22.9531 34.3767 L29.1562 34.3767 L29.1562 35.3923 L24.0938 35.3923 L24.0938 38.0173 L28.8438 38.0173 L28.8438 39.0329 L24.0938 39.0329 L24.0938 41.9548 L29.3594 41.9548 L29.3594 42.9704 L22.9531 42.9704 ZM30.375 40.3923 L30.375 39.3298 L33.625 39.3298 L33.625 40.3923 L30.375 40.3923 ZM34.7812 42.9704 L34.7812 36.7517 L35.7344 36.7517 L35.7344 37.6892 Q36.0938 37.0329 36.3984 36.822 Q36.7031 36.6111 37.0781 36.6111 Q37.6094 36.6111 38.1562 36.9392 L37.7969 37.9236 Q37.4062 37.6892 37.0312 37.6892 Q36.6719 37.6892 36.3984 37.9001 Q36.125 38.1111 36.0156 38.4861 Q35.8281 39.0486 35.8281 39.7048 L35.8281 42.9704 L34.7812 42.9704 ZM42.8594 42.2048 Q42.2656 42.7048 41.7266 42.9079 Q41.1875 43.1111 40.5625 43.1111 Q39.5312 43.1111 38.9844 42.6111 Q38.4375 42.1111 38.4375 41.3298 Q38.4375 40.8767 38.6406 40.4939 Q38.8438 40.1111 39.1875 39.8845 Q39.5312 39.6579 39.9531 39.5486 Q40.25 39.4548 40.8906 39.3767 Q42.1562 39.2361 42.7656 39.0173 Q42.7656 38.7986 42.7656 38.7517 Q42.7656 38.0954 42.4688 37.8298 Q42.0625 37.4861 41.2656 37.4861 Q40.5312 37.4861 40.1719 37.7439 Q39.8125 38.0017 39.6406 38.6579 L38.6094 38.5173 Q38.75 37.8611 39.0781 37.4548 Q39.4062 37.0486 40.0156 36.8298 Q40.625 36.6111 41.4219 36.6111 Q42.2188 36.6111 42.7188 36.7986 Q43.2188 36.9861 43.4531 37.2673 Q43.6875 37.5486 43.7812 37.9861 Q43.8281 38.2517 43.8281 38.9548 L43.8281 40.3611 Q43.8281 41.8298 43.8984 42.2204 Q43.9688 42.6111 44.1719 42.9704 L43.0625 42.9704 Q42.9062 42.6423 42.8594 42.2048 ZM42.7656 39.8454 Q42.1875 40.0798 41.0469 40.2517 Q40.3906 40.3454 40.125 40.4626 Q39.8594 40.5798 39.7109 40.7986 Q39.5625 41.0173 39.5625 41.2986 Q39.5625 41.7204 39.8828 42.0017 Q40.2031 42.2829 40.8125 42.2829 Q41.4219 42.2829 41.8984 42.0173 Q42.375 41.7517 42.5938 41.2829 Q42.7656 40.9236 42.7656 40.2361 L42.7656 39.8454 Z" style="clip-path:url(#clipPath24); stroke:none;" />
    </g>
    <g style="text-rendering:geometricPrecision; font-size:11; font-family:sans-serif;" transform="translate(11,68)">
      <text x="9" y="12" style="clip-path:url(#clipPath25); stroke:none;" xml:space="preserve">Felhasználó</text>
    </g>
    <g style="text-rendering:geometricPrecision; font-size:11; font-family:sans-serif;" transform="translate(420,34)">
      <text x="4" y="12" style="clip-path:url(#clipPath26); stroke:none;" xml:space="preserve">circuit : Circuit</text>
    </g>
    <g style="text-rendering:geometricPrecision; font-size:11; font-family:sans-serif;" transform="translate(220,34)">
      <text x="9" y="12" style="clip-path:url(#clipPath27); stroke:none;" xml:space="preserve">simulation : Simulation</text>
    </g>
    <g transform="translate(232,268)" style="font-size:11; stroke-linecap:butt; text-rendering:geometricPrecision; font-family:sans-serif; stroke-linejoin:round;">
      <line x1="55" x2="83" y1="56" style="clip-path:url(#clipPath28); fill:none;" y2="56" />
      <line x1="83" x2="83" y1="56" style="clip-path:url(#clipPath28); fill:none;" y2="76" />
      <line x1="83" x2="55" y1="76" style="clip-path:url(#clipPath28); fill:none;" y2="76" />
      <polygon style="clip-path:url(#clipPath28); stroke:none;" points=" 55 76 67 82 67 70" />
      <polygon style="fill:none; clip-path:url(#clipPath28);" points=" 55 76 67 82 67 70" />
    </g>
    <g transform="translate(-1,68)" style="font-size:11; stroke-linecap:butt; text-rendering:geometricPrecision; font-family:sans-serif; stroke-linejoin:round;">
      <line x1="55" x2="282" y1="56" style="clip-path:url(#clipPath29); fill:none;" y2="56" />
      <polygon style="clip-path:url(#clipPath29); stroke:none;" points=" 282 56 270 50 270 62" />
      <polygon style="fill:none; clip-path:url(#clipPath29);" points=" 282 56 270 50 270 62" />
    </g>
    <g transform="translate(232,238)" style="font-size:11; stroke-linecap:butt; text-rendering:geometricPrecision; font-family:sans-serif; stroke-linejoin:round;">
      <line x1="55" x2="222" y1="56" style="clip-path:url(#clipPath30); fill:none;" y2="56" />
      <polygon style="clip-path:url(#clipPath30); stroke:none;" points=" 222 56 210 50 210 62" />
      <polygon style="fill:none; clip-path:url(#clipPath30);" points=" 222 56 210 50 210 62" />
    </g>
    <g transform="translate(-1,418)" style="font-size:11; stroke-linecap:butt; text-rendering:geometricPrecision; font-family:sans-serif; stroke-linejoin:round; stroke-dasharray:8,3; stroke-miterlimit:0;">
      <line x1="282" x2="55" y1="56" style="clip-path:url(#clipPath29); fill:none;" y2="56" />
      <line x1="55" x2="67" y1="56" style="clip-path:url(#clipPath29); fill:none; stroke-dasharray:none; stroke-miterlimit:10;" y2="62" />
      <line x1="55" x2="67" y1="56" style="clip-path:url(#clipPath29); fill:none; stroke-dasharray:none; stroke-miterlimit:10;" y2="50" />
    </g>
    <g transform="translate(-1,538)" style="font-size:11; stroke-linecap:butt; text-rendering:geometricPrecision; font-family:sans-serif; stroke-linejoin:round; stroke-dasharray:8,3; stroke-miterlimit:0;">
      <line x1="282" x2="55" y1="56" style="clip-path:url(#clipPath29); fill:none;" y2="56" />
      <line x1="55" x2="67" y1="56" style="clip-path:url(#clipPath29); fill:none; stroke-dasharray:none; stroke-miterlimit:10;" y2="62" />
      <line x1="55" x2="67" y1="56" style="clip-path:url(#clipPath29); fill:none; stroke-dasharray:none; stroke-miterlimit:10;" y2="50" />
    </g>
    <g transform="translate(232,468)" style="font-size:11; stroke-linecap:butt; text-rendering:geometricPrecision; font-family:sans-serif; stroke-linejoin:round;">
      <line x1="55" x2="222" y1="56" style="clip-path:url(#clipPath30); fill:none;" y2="56" />
      <polygon style="clip-path:url(#clipPath30); stroke:none;" points=" 222 56 210 50 210 62" />
      <polygon style="fill:none; clip-path:url(#clipPath30);" points=" 222 56 210 50 210 62" />
    </g>
    <g transform="translate(232,128)" style="font-size:11; stroke-linecap:butt; text-rendering:geometricPrecision; font-family:sans-serif; stroke-linejoin:round;">
      <line x1="55" x2="88" y1="56" style="clip-path:url(#clipPath31); fill:none;" y2="56" />
      <line x1="88" x2="88" y1="56" style="clip-path:url(#clipPath31); fill:none;" y2="76" />
      <line x1="88" x2="55" y1="76" style="clip-path:url(#clipPath31); fill:none;" y2="76" />
      <polygon style="clip-path:url(#clipPath31); stroke:none;" points=" 55 76 67 82 67 70" />
      <polygon style="fill:none; clip-path:url(#clipPath31);" points=" 55 76 67 82 67 70" />
    </g>
    <g transform="translate(174,78)" style="font-size:11; stroke-linecap:butt; text-rendering:geometricPrecision; font-family:sans-serif; stroke-linejoin:round; stroke-dasharray:4;">
      <line x1="56" x2="106" y1="56" style="clip-path:url(#clipPath32); fill:none;" y2="56" />
    </g>
    <g transform="translate(232,358)" style="font-size:11; stroke-linecap:butt; text-rendering:geometricPrecision; font-family:sans-serif; stroke-linejoin:round; stroke-dasharray:4;">
      <line x1="106" x2="55" y1="56" style="clip-path:url(#clipPath33); fill:none;" y2="56" />
    </g>
    <g transform="translate(182,516)" style="font-size:11; stroke-linecap:butt; text-rendering:geometricPrecision; font-family:sans-serif; stroke-linejoin:round; stroke-dasharray:4;">
      <line x1="38" x2="98" y1="38" style="clip-path:url(#clipPath34); fill:none;" y2="38" />
    </g>
    <g style="text-rendering:geometricPrecision; font-size:11; font-family:sans-serif;" transform="translate(330,185)">
      <text x="10" y="12" style="clip-path:url(#clipPath35); stroke:none;" xml:space="preserve">1.1: counter = 0</text>
    </g>
    <g style="text-rendering:geometricPrecision; font-size:11; font-family:sans-serif;" transform="translate(308,499)">
      <text x="10" y="12" style="clip-path:url(#clipPath36); stroke:none;" xml:space="preserve">1.5: stepGenerators()</text>
    </g>
    <g style="text-rendering:geometricPrecision; font-size:11; font-family:sans-serif;" transform="translate(49,572)">
      <text x="12" y="12" style="clip-path:url(#clipPath37); stroke:none;" xml:space="preserve">1.6: "A szimuláció lefutott az adott kombinációkra"</text>
    </g>
    <g style="text-rendering:geometricPrecision; font-size:11; font-family:sans-serif;" transform="translate(45,449)">
      <text x="12" y="12" style="clip-path:url(#clipPath38); stroke:none;" xml:space="preserve">1.4: "A szimuláció leállt, mert nincs stacionárius állapot"</text>
    </g>
    <g style="text-rendering:geometricPrecision; font-size:11; font-family:sans-serif;" transform="translate(301,266)">
      <text x="11" y="12" style="clip-path:url(#clipPath39); stroke:none;" xml:space="preserve">1.2: doEvaluationCycle()</text>
    </g>
    <g style="text-rendering:geometricPrecision; font-size:11; font-family:sans-serif;" transform="translate(134,99)">
      <text x="9" y="12" style="clip-path:url(#clipPath40); stroke:none;" xml:space="preserve">1: start()</text>
    </g>
    <g style="text-rendering:geometricPrecision; font-size:11; font-family:sans-serif;" transform="translate(315,324)">
      <text x="10" y="12" style="clip-path:url(#clipPath41); stroke:none;" xml:space="preserve">1.3: counter++</text>
    </g>
  </g>
</svg>
