<?xml version="1.0" encoding="UTF-8"?>

<!DOCTYPE svg PUBLIC '-//W3C//DTD SVG 1.0//EN' 'http://www.w3.org/TR/2001/REC-SVG-20010904/DTD/svg10.dtd'>
<svg style="fill-opacity:1; color-rendering:auto; color-interpolation:auto; stroke:black; text-rendering:auto; stroke-linecap:square; stroke-miterlimit:10; stroke-opacity:1; shape-rendering:auto; fill:black; stroke-dasharray:none; font-weight:normal; stroke-width:1; font-family:&apos;Dialog&apos;; font-style:normal; stroke-linejoin:miter; font-size:12; stroke-dashoffset:0; image-rendering:auto;" xmlns="http://www.w3.org/2000/svg" width="554" xmlns:xlink="http://www.w3.org/1999/xlink" height="348">
  <!--Generated by the Batik Graphics2D SVG Generator-->
  <defs id="genericDefs" />
  <g>
    <defs id="defs1">
      <clipPath clipPathUnits="userSpaceOnUse" id="clipPath1">
        <path d="M-3 -3 L67 -3 L67 307 L-3 307 L-3 -3 Z" />
      </clipPath>
      <clipPath clipPathUnits="userSpaceOnUse" id="clipPath2">
        <path d="M-3 -3 L15 -3 L15 214 L-3 214 L-3 -3 Z" />
      </clipPath>
      <clipPath clipPathUnits="userSpaceOnUse" id="clipPath3">
        <path d="M-3 -3 L137 -3 L137 307 L-3 307 L-3 -3 Z" />
      </clipPath>
      <clipPath clipPathUnits="userSpaceOnUse" id="clipPath4">
        <path d="M-3 -3 L15 -3 L15 19 L-3 19 L-3 -3 Z" />
      </clipPath>
      <clipPath clipPathUnits="userSpaceOnUse" id="clipPath5">
        <path d="M-3 -3 L97 -3 L97 307 L-3 307 L-3 -3 Z" />
      </clipPath>
      <clipPath clipPathUnits="userSpaceOnUse" id="clipPath6">
        <path d="M-3 -3 L15 -3 L15 227 L-3 227 L-3 -3 Z" />
      </clipPath>
      <clipPath clipPathUnits="userSpaceOnUse" id="clipPath7">
        <path d="M-3 -3 L327 -3 L327 127 L-3 127 L-3 -3 Z" />
      </clipPath>
      <clipPath clipPathUnits="userSpaceOnUse" id="clipPath8">
        <path d="M0 0 L27 0 L27 18 L0 18 L0 0 Z" />
      </clipPath>
      <clipPath clipPathUnits="userSpaceOnUse" id="clipPath9">
        <path d="M-3 -3 L327 -3 L327 109 L-3 109 L-3 -3 Z" />
      </clipPath>
      <clipPath clipPathUnits="userSpaceOnUse" id="clipPath10">
        <path d="M0 0 L260 0 L260 30 L0 30 L0 0 Z" />
      </clipPath>
      <clipPath clipPathUnits="userSpaceOnUse" id="clipPath11">
        <path d="M0 0 L0 4 L320 4 L320 0 Z" />
      </clipPath>
      <clipPath clipPathUnits="userSpaceOnUse" id="clipPath12">
        <path d="M-3 -3 L137 -3 L137 67 L-3 67 L-3 -3 Z" />
      </clipPath>
      <clipPath clipPathUnits="userSpaceOnUse" id="clipPath13">
        <path d="M0 0 L0 60 L130 60 L130 0 Z" />
      </clipPath>
      <clipPath clipPathUnits="userSpaceOnUse" id="clipPath14">
        <path d="M-90 -15 L180 -15 L180 30 L-90 30 L-90 -15 Z" />
      </clipPath>
      <clipPath clipPathUnits="userSpaceOnUse" id="clipPath15">
        <path d="M-130 -30 L260 -30 L260 60 L-130 60 L-130 -30 Z" />
      </clipPath>
      <clipPath clipPathUnits="userSpaceOnUse" id="clipPath16">
        <path d="M-60 -30 L120 -30 L120 60 L-60 60 L-60 -30 Z" />
      </clipPath>
      <clipPath clipPathUnits="userSpaceOnUse" id="clipPath17">
        <path d="M0 0 L271 0 L271 104 L0 104 L0 0 Z" />
      </clipPath>
      <clipPath clipPathUnits="userSpaceOnUse" id="clipPath18">
        <path d="M0 0 L281 0 L281 104 L0 104 L0 0 Z" />
      </clipPath>
      <clipPath clipPathUnits="userSpaceOnUse" id="clipPath19">
        <path d="M0 0 L129 0 L129 104 L0 104 L0 0 Z" />
      </clipPath>
      <clipPath clipPathUnits="userSpaceOnUse" id="clipPath20">
        <path d="M-255 -15 L510 -15 L510 30 L-255 30 L-255 -15 Z" />
      </clipPath>
      <clipPath clipPathUnits="userSpaceOnUse" id="clipPath21">
        <path d="M-112 -15 L224 -15 L224 30 L-112 30 L-112 -15 Z" />
      </clipPath>
    </defs>
    <g style="fill:white; text-rendering:geometricPrecision; stroke:white;">
      <rect x="0" y="0" width="554" style="stroke:none;" height="348" />
      <rect x="0" y="38" transform="translate(0,-38)" width="553" style="fill:none; stroke:black;" height="347" />
      <text x="7" y="55" transform="translate(0,-38)" style="fill:black; stroke:none; font-weight:bold;" xml:space="preserve">sd</text>
      <text x="28" y="55" transform="translate(0,-38)" style="fill:black; stroke:none;" xml:space="preserve">Flip-flopok bemeneteinek összekötése más komponenssel</text>
      <line transform="translate(0,-38)" x1="0" x2="354" y1="62" style="fill:none; stroke:black;" y2="62" />
      <line transform="translate(0,-38)" x1="360" x2="360" y1="38" style="fill:none; stroke:black;" y2="52" />
      <line transform="translate(0,-38)" x1="360" x2="354" y1="52" style="fill:none; stroke:black;" y2="62" />
    </g>
    <g transform="translate(230,34)" style="font-size:11; fill:white; text-rendering:geometricPrecision; font-family:sans-serif; stroke:white;">
      <rect x="0" y="0" width="59" style="clip-path:url(#clipPath1); stroke:none;" height="35" />
    </g>
    <g transform="translate(230,34)" style="font-size:11; stroke-linecap:butt; text-rendering:geometricPrecision; font-family:sans-serif; stroke-linejoin:round; stroke-miterlimit:0;">
      <rect x="0" y="0" width="59" style="clip-path:url(#clipPath1); fill:none;" height="35" />
      <line x1="29" x2="29" y1="35" style="clip-path:url(#clipPath1); fill:none; stroke-linejoin:bevel; stroke-dasharray:8,3;" y2="300" />
    </g>
    <g transform="translate(256,94)" style="font-size:11; fill:white; text-rendering:geometricPrecision; font-family:sans-serif; stroke:white;">
      <rect x="0" y="0" width="8" style="clip-path:url(#clipPath2); stroke:none;" height="207" />
    </g>
    <g transform="translate(256,94)" style="font-size:11; stroke-linecap:butt; text-rendering:geometricPrecision; font-family:sans-serif; stroke-linejoin:round; stroke-miterlimit:0;">
      <rect x="0" y="0" width="8" style="clip-path:url(#clipPath2); fill:none;" height="207" />
    </g>
    <g transform="translate(370,34)" style="font-size:11; fill:white; text-rendering:geometricPrecision; font-family:sans-serif; stroke:white;">
      <rect x="0" y="0" width="129" style="clip-path:url(#clipPath3); stroke:none;" height="35" />
    </g>
    <g transform="translate(370,34)" style="font-size:11; stroke-linecap:butt; text-rendering:geometricPrecision; font-family:sans-serif; stroke-linejoin:round; stroke-miterlimit:0;">
      <rect x="0" y="0" width="129" style="clip-path:url(#clipPath3); fill:none;" height="35" />
      <line x1="64" x2="64" y1="35" style="clip-path:url(#clipPath3); fill:none; stroke-linejoin:bevel; stroke-dasharray:8,3;" y2="300" />
    </g>
    <g transform="translate(431,264)" style="font-size:11; fill:white; text-rendering:geometricPrecision; font-family:sans-serif; stroke:white;">
      <rect x="0" y="0" width="8" style="clip-path:url(#clipPath4); stroke:none;" height="12" />
    </g>
    <g transform="translate(431,264)" style="font-size:11; stroke-linecap:butt; text-rendering:geometricPrecision; font-family:sans-serif; stroke-linejoin:round; stroke-miterlimit:0;">
      <rect x="0" y="0" width="8" style="clip-path:url(#clipPath4); fill:none;" height="12" />
    </g>
    <g transform="translate(30,34)" style="font-size:11; fill:white; text-rendering:geometricPrecision; font-family:sans-serif; stroke:white;">
      <rect x="0" y="0" width="89" style="clip-path:url(#clipPath5); stroke:none;" height="35" />
    </g>
    <g transform="translate(30,34)" style="font-size:11; stroke-linecap:butt; text-rendering:geometricPrecision; font-family:sans-serif; stroke-linejoin:round; stroke-miterlimit:0;">
      <rect x="0" y="0" width="89" style="clip-path:url(#clipPath5); fill:none;" height="35" />
      <line x1="44" x2="44" y1="35" style="clip-path:url(#clipPath5); fill:none; stroke-linejoin:bevel; stroke-dasharray:8,3;" y2="300" />
    </g>
    <g transform="translate(71,94)" style="font-size:11; fill:white; text-rendering:geometricPrecision; font-family:sans-serif; stroke:white;">
      <rect x="0" y="0" width="8" style="clip-path:url(#clipPath6); stroke:none;" height="220" />
    </g>
    <g transform="translate(71,94)" style="font-size:11; stroke-linecap:butt; text-rendering:geometricPrecision; font-family:sans-serif; stroke-linejoin:round; stroke-miterlimit:0;">
      <rect x="0" y="0" width="8" style="clip-path:url(#clipPath6); fill:none;" height="220" />
    </g>
    <g transform="translate(220,174)" style="font-size:11; stroke-linecap:butt; text-rendering:geometricPrecision; font-family:sans-serif; stroke-linejoin:round; font-weight:bold; stroke-miterlimit:0;">
      <rect x="0" y="0" width="320" style="clip-path:url(#clipPath7); fill:none;" height="120" />
    </g>
    <g transform="translate(220,174)" style="font-size:11; fill:white; text-rendering:geometricPrecision; font-family:sans-serif; stroke:white; font-weight:bold;">
      <path d="M26 0 L26 9 L20 17 L0 17 L0 0 Z" style="clip-path:url(#clipPath7); stroke:none;" />
    </g>
    <g transform="translate(220,174)" style="font-size:11; stroke-linecap:butt; text-rendering:geometricPrecision; font-family:sans-serif; stroke-linejoin:round; font-weight:bold; stroke-miterlimit:0;">
      <path d="M26 0 L26 9 L20 17 L0 17 L0 0 Z" style="fill:none; clip-path:url(#clipPath7);" />
    </g>
    <g transform="translate(220,174)" style="text-rendering:geometricPrecision; font-size:11; font-weight:bold; font-family:sans-serif;">
      <text x="4" y="12" style="clip-path:url(#clipPath8); stroke:none;" xml:space="preserve">opt</text>
    </g>
    <g transform="translate(220,192)" style="font-size:11; fill:white; text-rendering:geometricPrecision; font-family:sans-serif; stroke:white;">
      <rect x="28" y="5" width="260" style="clip-path:url(#clipPath9); stroke:none;" height="30" />
    </g>
    <g style="text-rendering:geometricPrecision; font-size:11; font-family:sans-serif;" transform="translate(248,197)">
      <text x="44" y="12" style="clip-path:url(#clipPath10); stroke:none;" xml:space="preserve">[Ha az inputPin az órajelbemenet és</text>
      <text x="10" y="27" style="clip-path:url(#clipPath10); stroke:none;" xml:space="preserve">a rákötendő komponens egy SequenceGenerator]</text>
    </g>
    <g transform="translate(290,104)" style="font-size:11; fill:white; text-rendering:geometricPrecision; font-family:sans-serif; stroke:white;">
      <polygon style="clip-path:url(#clipPath12); stroke:none;" points=" 0 0 114 0 129 15 114 15 114 0 129 15 129 59 0 59" />
    </g>
    <g transform="translate(290,104)" style="font-size:11; stroke-linecap:butt; text-rendering:geometricPrecision; font-family:sans-serif; stroke-linejoin:round; stroke-miterlimit:0;">
      <polygon style="fill:none; clip-path:url(#clipPath12);" points=" 0 0 114 0 129 15 114 15 114 0 129 15 129 59 0 59" />
    </g>
    <g style="text-rendering:geometricPrecision; font-size:11; font-family:&apos;Tahoma&apos;;" transform="translate(290,104)">
      <path d="M3.4062 11.8611 Q3.4062 10.1267 4.3594 9.2986 Q5.1562 8.6111 6.3125 8.6111 Q7.5938 8.6111 8.4141 9.447 Q9.2344 10.2829 9.2344 11.7673 Q9.2344 12.9704 8.875 13.6579 Q8.5156 14.3454 7.8203 14.7282 Q7.125 15.1111 6.3125 15.1111 Q5.0156 15.1111 4.2109 14.2751 Q3.4062 13.4392 3.4062 11.8611 ZM4.4844 11.8611 Q4.4844 13.0486 5.0078 13.6423 Q5.5312 14.2361 6.3125 14.2361 Q7.1094 14.2361 7.625 13.6423 Q8.1406 13.0486 8.1406 11.8298 Q8.1406 10.6736 7.6172 10.0798 Q7.0938 9.4861 6.3125 9.4861 Q5.5312 9.4861 5.0078 10.072 Q4.4844 10.6579 4.4844 11.8611 ZM4.9688 6.9704 L5.6719 5.3298 L7.0469 5.3298 L5.8125 6.9704 L4.9688 6.9704 ZM7 6.9704 L7.75 5.3298 L9.0938 5.3298 L7.8906 6.9704 L7 6.9704 ZM10.375 13.1111 L11.4062 12.9548 Q11.5 13.5798 11.8984 13.9079 Q12.2969 14.2361 13.0312 14.2361 Q13.75 14.2361 14.1016 13.947 Q14.4531 13.6579 14.4531 13.2517 Q14.4531 12.8923 14.1406 12.6892 Q13.9219 12.5486 13.0625 12.3298 Q11.9062 12.0329 11.4609 11.822 Q11.0156 11.6111 10.7812 11.2361 Q10.5469 10.8611 10.5469 10.3923 Q10.5469 9.9861 10.7344 9.6267 Q10.9219 9.2673 11.25 9.0329 Q11.5 8.8611 11.9219 8.7361 Q12.3438 8.6111 12.8438 8.6111 Q13.5625 8.6111 14.1172 8.822 Q14.6719 9.0329 14.9375 9.3923 Q15.2031 9.7517 15.2969 10.3454 L14.2656 10.4861 Q14.2031 10.0173 13.8672 9.7439 Q13.5312 9.4704 12.9062 9.4704 Q12.1875 9.4704 11.875 9.7126 Q11.5625 9.9548 11.5625 10.2829 Q11.5625 10.4861 11.6875 10.6423 Q11.8281 10.8142 12.0938 10.9236 Q12.25 10.9861 13.0312 11.1892 Q14.1562 11.5017 14.5938 11.6892 Q15.0312 11.8767 15.2812 12.2361 Q15.5312 12.5954 15.5312 13.1423 Q15.5312 13.6736 15.2266 14.1345 Q14.9219 14.5954 14.3438 14.8532 Q13.7656 15.1111 13.0312 15.1111 Q11.8125 15.1111 11.1797 14.6032 Q10.5469 14.0954 10.375 13.1111 ZM17.4062 11.8611 Q17.4062 10.1267 18.3594 9.2986 Q19.1562 8.6111 20.3125 8.6111 Q21.5938 8.6111 22.4141 9.447 Q23.2344 10.2829 23.2344 11.7673 Q23.2344 12.9704 22.875 13.6579 Q22.5156 14.3454 21.8203 14.7282 Q21.125 15.1111 20.3125 15.1111 Q19.0156 15.1111 18.2109 14.2751 Q17.4062 13.4392 17.4062 11.8611 ZM18.4844 11.8611 Q18.4844 13.0486 19.0078 13.6423 Q19.5312 14.2361 20.3125 14.2361 Q21.1094 14.2361 21.625 13.6423 Q22.1406 13.0486 22.1406 11.8298 Q22.1406 10.6736 21.6172 10.0798 Q21.0938 9.4861 20.3125 9.4861 Q19.5312 9.4861 19.0078 10.072 Q18.4844 10.6579 18.4844 11.8611 ZM24.375 13.1111 L25.4062 12.9548 Q25.5 13.5798 25.8984 13.9079 Q26.2969 14.2361 27.0312 14.2361 Q27.75 14.2361 28.1016 13.947 Q28.4531 13.6579 28.4531 13.2517 Q28.4531 12.8923 28.1406 12.6892 Q27.9219 12.5486 27.0625 12.3298 Q25.9062 12.0329 25.4609 11.822 Q25.0156 11.6111 24.7812 11.2361 Q24.5469 10.8611 24.5469 10.3923 Q24.5469 9.9861 24.7344 9.6267 Q24.9219 9.2673 25.25 9.0329 Q25.5 8.8611 25.9219 8.7361 Q26.3438 8.6111 26.8438 8.6111 Q27.5625 8.6111 28.1172 8.822 Q28.6719 9.0329 28.9375 9.3923 Q29.2031 9.7517 29.2969 10.3454 L28.2656 10.4861 Q28.2031 10.0173 27.8672 9.7439 Q27.5312 9.4704 26.9062 9.4704 Q26.1875 9.4704 25.875 9.7126 Q25.5625 9.9548 25.5625 10.2829 Q25.5625 10.4861 25.6875 10.6423 Q25.8281 10.8142 26.0938 10.9236 Q26.25 10.9861 27.0312 11.1892 Q28.1562 11.5017 28.5938 11.6892 Q29.0312 11.8767 29.2812 12.2361 Q29.5312 12.5954 29.5312 13.1423 Q29.5312 13.6736 29.2266 14.1345 Q28.9219 14.5954 28.3438 14.8532 Q27.7656 15.1111 27.0312 15.1111 Q25.8125 15.1111 25.1797 14.6032 Q24.5469 14.0954 24.375 13.1111 ZM31.2344 14.9704 L31.2344 14.1111 L35.2031 9.5642 Q34.5156 9.5954 34 9.5954 L31.4688 9.5954 L31.4688 8.7517 L36.5625 8.7517 L36.5625 9.4392 L33.1875 13.3923 L32.5312 14.1111 Q33.25 14.0642 33.8594 14.0642 L36.75 14.0642 L36.75 14.9704 L31.2344 14.9704 ZM39.0938 14.0329 L39.25 14.9548 Q38.7969 15.0486 38.4531 15.0486 Q37.875 15.0486 37.5625 14.8689 Q37.25 14.6892 37.1172 14.3923 Q36.9844 14.0954 36.9844 13.1423 L36.9844 9.5642 L36.2188 9.5642 L36.2188 8.7517 L36.9844 8.7517 L36.9844 7.2048 L38.0312 6.5798 L38.0312 8.7517 L39.0938 8.7517 L39.0938 9.5642 L38.0312 9.5642 L38.0312 13.2048 Q38.0312 13.6579 38.0859 13.7829 Q38.1406 13.9079 38.2656 13.9861 Q38.3906 14.0642 38.625 14.0642 Q38.8125 14.0642 39.0938 14.0329 ZM43.8594 14.2048 Q43.2656 14.7048 42.7266 14.9079 Q42.1875 15.1111 41.5625 15.1111 Q40.5312 15.1111 39.9844 14.6111 Q39.4375 14.1111 39.4375 13.3298 Q39.4375 12.8767 39.6406 12.4939 Q39.8438 12.1111 40.1875 11.8845 Q40.5312 11.6579 40.9531 11.5486 Q41.25 11.4548 41.8906 11.3767 Q43.1562 11.2361 43.7656 11.0173 Q43.7656 10.7986 43.7656 10.7517 Q43.7656 10.0954 43.4688 9.8298 Q43.0625 9.4861 42.2656 9.4861 Q41.5312 9.4861 41.1719 9.7439 Q40.8125 10.0017 40.6406 10.6579 L39.6094 10.5173 Q39.75 9.8611 40.0781 9.4548 Q40.4062 9.0486 41.0156 8.8298 Q41.625 8.6111 42.4219 8.6111 Q43.2188 8.6111 43.7188 8.7986 Q44.2188 8.9861 44.4531 9.2673 Q44.6875 9.5486 44.7812 9.9861 Q44.8281 10.2517 44.8281 10.9548 L44.8281 12.3611 Q44.8281 13.8298 44.8984 14.2204 Q44.9688 14.6111 45.1719 14.9704 L44.0625 14.9704 Q43.9062 14.6423 43.8594 14.2048 ZM43.7656 11.8454 Q43.1875 12.0798 42.0469 12.2517 Q41.3906 12.3454 41.125 12.4626 Q40.8594 12.5798 40.7109 12.7986 Q40.5625 13.0173 40.5625 13.2986 Q40.5625 13.7204 40.8828 14.0017 Q41.2031 14.2829 41.8125 14.2829 Q42.4219 14.2829 42.8984 14.0173 Q43.375 13.7517 43.5938 13.2829 Q43.7656 12.9236 43.7656 12.2361 L43.7656 11.8454 ZM41.125 6.9704 L41.9062 5.3298 L43.2969 5.3298 L42 6.9704 L41.125 6.9704 ZM46.7656 14.9704 L46.7656 6.3767 L47.8281 6.3767 L47.8281 14.9704 L46.7656 14.9704 ZM49.75 17.3611 L49.625 16.3767 Q49.9688 16.4704 50.2344 16.4704 Q50.5781 16.4704 50.7891 16.3532 Q51 16.2361 51.1406 16.0329 Q51.2344 15.8611 51.4688 15.2361 Q51.4844 15.1579 51.5625 14.9861 L49.1875 8.7517 L50.3281 8.7517 L51.625 12.3454 Q51.875 13.0329 52.0781 13.7986 Q52.2656 13.0642 52.5156 12.3767 L53.8438 8.7517 L54.8906 8.7517 L52.5312 15.0798 Q52.1406 16.0954 51.9375 16.4861 Q51.6562 17.0173 51.2891 17.2595 Q50.9219 17.5017 50.4219 17.5017 Q50.125 17.5017 49.75 17.3611 ZM62.0469 12.9704 L63.1406 13.0954 Q62.8906 14.0486 62.1875 14.5798 Q61.4844 15.1111 60.4062 15.1111 Q59.0469 15.1111 58.2422 14.2673 Q57.4375 13.4236 57.4375 11.9079 Q57.4375 10.3454 58.25 9.4782 Q59.0625 8.6111 60.3438 8.6111 Q61.5938 8.6111 62.3828 9.4548 Q63.1719 10.2986 63.1719 11.8454 Q63.1719 11.9392 63.1719 12.1267 L58.5312 12.1267 Q58.5938 13.1579 59.1094 13.697 Q59.625 14.2361 60.4062 14.2361 Q60.9844 14.2361 61.3984 13.9314 Q61.8125 13.6267 62.0469 12.9704 ZM58.5938 11.2673 L62.0625 11.2673 Q62 10.4704 61.6719 10.0798 Q61.1562 9.4704 60.3594 9.4704 Q59.625 9.4704 59.1328 9.9548 Q58.6406 10.4392 58.5938 11.2673 ZM64.7812 14.9704 L64.7812 8.7517 L65.7344 8.7517 L65.7344 9.6892 Q66.0938 9.0329 66.3984 8.822 Q66.7031 8.6111 67.0781 8.6111 Q67.6094 8.6111 68.1562 8.9392 L67.7969 9.9236 Q67.4062 9.6892 67.0312 9.6892 Q66.6719 9.6892 66.3984 9.9001 Q66.125 10.1111 66.0156 10.4861 Q65.8281 11.0486 65.8281 11.7048 L65.8281 14.9704 L64.7812 14.9704 ZM73.0469 12.9704 L74.1406 13.0954 Q73.8906 14.0486 73.1875 14.5798 Q72.4844 15.1111 71.4062 15.1111 Q70.0469 15.1111 69.2422 14.2673 Q68.4375 13.4236 68.4375 11.9079 Q68.4375 10.3454 69.25 9.4782 Q70.0625 8.6111 71.3438 8.6111 Q72.5938 8.6111 73.3828 9.4548 Q74.1719 10.2986 74.1719 11.8454 Q74.1719 11.9392 74.1719 12.1267 L69.5312 12.1267 Q69.5938 13.1579 70.1094 13.697 Q70.625 14.2361 71.4062 14.2361 Q71.9844 14.2361 72.3984 13.9314 Q72.8125 13.6267 73.0469 12.9704 ZM69.5938 11.2673 L73.0625 11.2673 Q73 10.4704 72.6719 10.0798 Q72.1562 9.4704 71.3594 9.4704 Q70.625 9.4704 70.1328 9.9548 Q69.6406 10.4392 69.5938 11.2673 ZM79.8281 14.9704 L79.8281 14.1892 Q79.2344 15.1111 78.0938 15.1111 Q77.3438 15.1111 76.7188 14.697 Q76.0938 14.2829 75.75 13.5486 Q75.4062 12.8142 75.4062 11.8611 Q75.4062 10.9392 75.7188 10.1736 Q76.0312 9.4079 76.6562 9.0095 Q77.2812 8.6111 78.0469 8.6111 Q78.6094 8.6111 79.0469 8.8454 Q79.4844 9.0798 79.7656 9.4548 L79.7656 6.3767 L80.8125 6.3767 L80.8125 14.9704 L79.8281 14.9704 ZM76.5 11.8611 Q76.5 13.0642 77 13.6501 Q77.5 14.2361 78.1875 14.2361 Q78.875 14.2361 79.3594 13.6736 Q79.8438 13.1111 79.8438 11.9548 Q79.8438 10.6736 79.3516 10.0798 Q78.8594 9.4861 78.1406 9.4861 Q77.4375 9.4861 76.9688 10.0564 Q76.5 10.6267 76.5 11.8611 ZM87.0469 12.9704 L88.1406 13.0954 Q87.8906 14.0486 87.1875 14.5798 Q86.4844 15.1111 85.4062 15.1111 Q84.0469 15.1111 83.2422 14.2673 Q82.4375 13.4236 82.4375 11.9079 Q82.4375 10.3454 83.25 9.4782 Q84.0625 8.6111 85.3438 8.6111 Q86.5938 8.6111 87.3828 9.4548 Q88.1719 10.2986 88.1719 11.8454 Q88.1719 11.9392 88.1719 12.1267 L83.5312 12.1267 Q83.5938 13.1579 84.1094 13.697 Q84.625 14.2361 85.4062 14.2361 Q85.9844 14.2361 86.3984 13.9314 Q86.8125 13.6267 87.0469 12.9704 ZM83.5938 11.2673 L87.0625 11.2673 Q87 10.4704 86.6719 10.0798 Q86.1562 9.4704 85.3594 9.4704 Q84.625 9.4704 84.1328 9.9548 Q83.6406 10.4392 83.5938 11.2673 ZM92.0938 14.0329 L92.25 14.9548 Q91.7969 15.0486 91.4531 15.0486 Q90.875 15.0486 90.5625 14.8689 Q90.25 14.6892 90.1172 14.3923 Q89.9844 14.0954 89.9844 13.1423 L89.9844 9.5642 L89.2188 9.5642 L89.2188 8.7517 L89.9844 8.7517 L89.9844 7.2048 L91.0312 6.5798 L91.0312 8.7517 L92.0938 8.7517 L92.0938 9.5642 L91.0312 9.5642 L91.0312 13.2048 Q91.0312 13.6579 91.0859 13.7829 Q91.1406 13.9079 91.2656 13.9861 Q91.3906 14.0642 91.625 14.0642 Q91.8125 14.0642 92.0938 14.0329 ZM92.7969 7.5954 L92.7969 6.3767 L93.8594 6.3767 L93.8594 7.5954 L92.7969 7.5954 ZM92.7969 14.9704 L92.7969 8.7517 L93.8594 8.7517 L93.8594 14.9704 L92.7969 14.9704 Z" style="clip-path:url(#clipPath13); stroke:none;" />
      <path d="M3.4062 25.8611 Q3.4062 24.1267 4.3594 23.2986 Q5.1562 22.6111 6.3125 22.6111 Q7.5938 22.6111 8.4141 23.447 Q9.2344 24.2829 9.2344 25.7673 Q9.2344 26.9704 8.875 27.6579 Q8.5156 28.3454 7.8203 28.7282 Q7.125 29.1111 6.3125 29.1111 Q5.0156 29.1111 4.2109 28.2751 Q3.4062 27.4392 3.4062 25.8611 ZM4.4844 25.8611 Q4.4844 27.0486 5.0078 27.6423 Q5.5312 28.2361 6.3125 28.2361 Q7.1094 28.2361 7.625 27.6423 Q8.1406 27.0486 8.1406 25.8298 Q8.1406 24.6736 7.6172 24.0798 Q7.0938 23.4861 6.3125 23.4861 Q5.5312 23.4861 5.0078 24.072 Q4.4844 24.6579 4.4844 25.8611 ZM4.8125 20.9704 L4.8125 19.7673 L5.9062 19.7673 L5.9062 20.9704 L4.8125 20.9704 ZM7 20.9704 L7 19.7673 L8.0938 19.7673 L8.0938 20.9704 L7 20.9704 ZM10.375 27.1111 L11.4062 26.9548 Q11.5 27.5798 11.8984 27.9079 Q12.2969 28.2361 13.0312 28.2361 Q13.75 28.2361 14.1016 27.947 Q14.4531 27.6579 14.4531 27.2517 Q14.4531 26.8923 14.1406 26.6892 Q13.9219 26.5486 13.0625 26.3298 Q11.9062 26.0329 11.4609 25.822 Q11.0156 25.6111 10.7812 25.2361 Q10.5469 24.8611 10.5469 24.3923 Q10.5469 23.9861 10.7344 23.6267 Q10.9219 23.2673 11.25 23.0329 Q11.5 22.8611 11.9219 22.7361 Q12.3438 22.6111 12.8438 22.6111 Q13.5625 22.6111 14.1172 22.822 Q14.6719 23.0329 14.9375 23.3923 Q15.2031 23.7517 15.2969 24.3454 L14.2656 24.4861 Q14.2031 24.0173 13.8672 23.7439 Q13.5312 23.4704 12.9062 23.4704 Q12.1875 23.4704 11.875 23.7126 Q11.5625 23.9548 11.5625 24.2829 Q11.5625 24.4861 11.6875 24.6423 Q11.8281 24.8142 12.0938 24.9236 Q12.25 24.9861 13.0312 25.1892 Q14.1562 25.5017 14.5938 25.6892 Q15.0312 25.8767 15.2812 26.2361 Q15.5312 26.5954 15.5312 27.1423 Q15.5312 27.6736 15.2266 28.1345 Q14.9219 28.5954 14.3438 28.8532 Q13.7656 29.1111 13.0312 29.1111 Q11.8125 29.1111 11.1797 28.6032 Q10.5469 28.0954 10.375 27.1111 ZM17.375 27.1111 L18.4062 26.9548 Q18.5 27.5798 18.8984 27.9079 Q19.2969 28.2361 20.0312 28.2361 Q20.75 28.2361 21.1016 27.947 Q21.4531 27.6579 21.4531 27.2517 Q21.4531 26.8923 21.1406 26.6892 Q20.9219 26.5486 20.0625 26.3298 Q18.9062 26.0329 18.4609 25.822 Q18.0156 25.6111 17.7812 25.2361 Q17.5469 24.8611 17.5469 24.3923 Q17.5469 23.9861 17.7344 23.6267 Q17.9219 23.2673 18.25 23.0329 Q18.5 22.8611 18.9219 22.7361 Q19.3438 22.6111 19.8438 22.6111 Q20.5625 22.6111 21.1172 22.822 Q21.6719 23.0329 21.9375 23.3923 Q22.2031 23.7517 22.2969 24.3454 L21.2656 24.4861 Q21.2031 24.0173 20.8672 23.7439 Q20.5312 23.4704 19.9062 23.4704 Q19.1875 23.4704 18.875 23.7126 Q18.5625 23.9548 18.5625 24.2829 Q18.5625 24.4861 18.6875 24.6423 Q18.8281 24.8142 19.0938 24.9236 Q19.25 24.9861 20.0312 25.1892 Q21.1562 25.5017 21.5938 25.6892 Q22.0312 25.8767 22.2812 26.2361 Q22.5312 26.5954 22.5312 27.1423 Q22.5312 27.6736 22.2266 28.1345 Q21.9219 28.5954 21.3438 28.8532 Q20.7656 29.1111 20.0312 29.1111 Q18.8125 29.1111 18.1797 28.6032 Q17.5469 28.0954 17.375 27.1111 ZM24.2344 28.9704 L24.2344 28.1111 L28.2031 23.5642 Q27.5156 23.5954 27 23.5954 L24.4688 23.5954 L24.4688 22.7517 L29.5625 22.7517 L29.5625 23.4392 L26.1875 27.3923 L25.5312 28.1111 Q26.25 28.0642 26.8594 28.0642 L29.75 28.0642 L29.75 28.9704 L24.2344 28.9704 ZM34.0469 26.9704 L35.1406 27.0954 Q34.8906 28.0486 34.1875 28.5798 Q33.4844 29.1111 32.4062 29.1111 Q31.0469 29.1111 30.2422 28.2673 Q29.4375 27.4236 29.4375 25.9079 Q29.4375 24.3454 30.25 23.4782 Q31.0625 22.6111 32.3438 22.6111 Q33.5938 22.6111 34.3828 23.4548 Q35.1719 24.2986 35.1719 25.8454 Q35.1719 25.9392 35.1719 26.1267 L30.5312 26.1267 Q30.5938 27.1579 31.1094 27.697 Q31.625 28.2361 32.4062 28.2361 Q32.9844 28.2361 33.3984 27.9314 Q33.8125 27.6267 34.0469 26.9704 ZM30.5938 25.2673 L34.0625 25.2673 Q34 24.4704 33.6719 24.0798 Q33.1562 23.4704 32.3594 23.4704 Q31.625 23.4704 31.1328 23.9548 Q30.6406 24.4392 30.5938 25.2673 ZM36.7969 28.9704 L36.7969 20.3767 L37.8594 20.3767 L37.8594 25.2829 L40.3438 22.7517 L41.7188 22.7517 L39.3281 25.0486 L41.9531 28.9704 L40.6562 28.9704 L38.5938 25.7829 L37.8594 26.5017 L37.8594 28.9704 L36.7969 28.9704 ZM42.4062 25.8611 Q42.4062 24.1267 43.3594 23.2986 Q44.1562 22.6111 45.3125 22.6111 Q46.5938 22.6111 47.4141 23.447 Q48.2344 24.2829 48.2344 25.7673 Q48.2344 26.9704 47.875 27.6579 Q47.5156 28.3454 46.8203 28.7282 Q46.125 29.1111 45.3125 29.1111 Q44.0156 29.1111 43.2109 28.2751 Q42.4062 27.4392 42.4062 25.8611 ZM43.4844 25.8611 Q43.4844 27.0486 44.0078 27.6423 Q44.5312 28.2361 45.3125 28.2361 Q46.1094 28.2361 46.625 27.6423 Q47.1406 27.0486 47.1406 25.8298 Q47.1406 24.6736 46.6172 24.0798 Q46.0938 23.4861 45.3125 23.4861 Q44.5312 23.4861 44.0078 24.072 Q43.4844 24.6579 43.4844 25.8611 ZM43.8125 20.9704 L43.8125 19.7673 L44.9062 19.7673 L44.9062 20.9704 L43.8125 20.9704 ZM46 20.9704 L46 19.7673 L47.0938 19.7673 L47.0938 20.9704 L46 20.9704 ZM52.0938 28.0329 L52.25 28.9548 Q51.7969 29.0486 51.4531 29.0486 Q50.875 29.0486 50.5625 28.8689 Q50.25 28.6892 50.1172 28.3923 Q49.9844 28.0954 49.9844 27.1423 L49.9844 23.5642 L49.2188 23.5642 L49.2188 22.7517 L49.9844 22.7517 L49.9844 21.2048 L51.0312 20.5798 L51.0312 22.7517 L52.0938 22.7517 L52.0938 23.5642 L51.0312 23.5642 L51.0312 27.2048 Q51.0312 27.6579 51.0859 27.7829 Q51.1406 27.9079 51.2656 27.9861 Q51.3906 28.0642 51.625 28.0642 Q51.8125 28.0642 52.0938 28.0329 ZM55.0938 28.0329 L55.25 28.9548 Q54.7969 29.0486 54.4531 29.0486 Q53.875 29.0486 53.5625 28.8689 Q53.25 28.6892 53.1172 28.3923 Q52.9844 28.0954 52.9844 27.1423 L52.9844 23.5642 L52.2188 23.5642 L52.2188 22.7517 L52.9844 22.7517 L52.9844 21.2048 L54.0312 20.5798 L54.0312 22.7517 L55.0938 22.7517 L55.0938 23.5642 L54.0312 23.5642 L54.0312 27.2048 Q54.0312 27.6579 54.0859 27.7829 Q54.1406 27.9079 54.2656 27.9861 Q54.3906 28.0642 54.625 28.0642 Q54.8125 28.0642 55.0938 28.0329 ZM60.0469 26.9704 L61.1406 27.0954 Q60.8906 28.0486 60.1875 28.5798 Q59.4844 29.1111 58.4062 29.1111 Q57.0469 29.1111 56.2422 28.2673 Q55.4375 27.4236 55.4375 25.9079 Q55.4375 24.3454 56.25 23.4782 Q57.0625 22.6111 58.3438 22.6111 Q59.5938 22.6111 60.3828 23.4548 Q61.1719 24.2986 61.1719 25.8454 Q61.1719 25.9392 61.1719 26.1267 L56.5312 26.1267 Q56.5938 27.1579 57.1094 27.697 Q57.625 28.2361 58.4062 28.2361 Q58.9844 28.2361 59.3984 27.9314 Q59.8125 27.6267 60.0469 26.9704 ZM56.5938 25.2673 L60.0625 25.2673 Q60 24.4704 59.6719 24.0798 Q59.1562 23.4704 58.3594 23.4704 Q57.625 23.4704 57.1328 23.9548 Q56.6406 24.4392 56.5938 25.2673 ZM65.0938 28.0329 L65.25 28.9548 Q64.7969 29.0486 64.4531 29.0486 Q63.875 29.0486 63.5625 28.8689 Q63.25 28.6892 63.1172 28.3923 Q62.9844 28.0954 62.9844 27.1423 L62.9844 23.5642 L62.2188 23.5642 L62.2188 22.7517 L62.9844 22.7517 L62.9844 21.2048 L64.0312 20.5798 L64.0312 22.7517 L65.0938 22.7517 L65.0938 23.5642 L64.0312 23.5642 L64.0312 27.2048 Q64.0312 27.6579 64.0859 27.7829 Q64.1406 27.9079 64.2656 27.9861 Q64.3906 28.0642 64.625 28.0642 Q64.8125 28.0642 65.0938 28.0329 ZM70.0469 26.9704 L71.1406 27.0954 Q70.8906 28.0486 70.1875 28.5798 Q69.4844 29.1111 68.4062 29.1111 Q67.0469 29.1111 66.2422 28.2673 Q65.4375 27.4236 65.4375 25.9079 Q65.4375 24.3454 66.25 23.4782 Q67.0625 22.6111 68.3438 22.6111 Q69.5938 22.6111 70.3828 23.4548 Q71.1719 24.2986 71.1719 25.8454 Q71.1719 25.9392 71.1719 26.1267 L66.5312 26.1267 Q66.5938 27.1579 67.1094 27.697 Q67.625 28.2361 68.4062 28.2361 Q68.9844 28.2361 69.3984 27.9314 Q69.8125 27.6267 70.0469 26.9704 ZM66.5938 25.2673 L70.0625 25.2673 Q70 24.4704 69.6719 24.0798 Q69.1562 23.4704 68.3594 23.4704 Q67.625 23.4704 67.1328 23.9548 Q66.6406 24.4392 66.5938 25.2673 ZM67.125 20.9704 L67.9062 19.3298 L69.2969 19.3298 L68 20.9704 L67.125 20.9704 ZM72.375 27.1111 L73.4062 26.9548 Q73.5 27.5798 73.8984 27.9079 Q74.2969 28.2361 75.0312 28.2361 Q75.75 28.2361 76.1016 27.947 Q76.4531 27.6579 76.4531 27.2517 Q76.4531 26.8923 76.1406 26.6892 Q75.9219 26.5486 75.0625 26.3298 Q73.9062 26.0329 73.4609 25.822 Q73.0156 25.6111 72.7812 25.2361 Q72.5469 24.8611 72.5469 24.3923 Q72.5469 23.9861 72.7344 23.6267 Q72.9219 23.2673 73.25 23.0329 Q73.5 22.8611 73.9219 22.7361 Q74.3438 22.6111 74.8438 22.6111 Q75.5625 22.6111 76.1172 22.822 Q76.6719 23.0329 76.9375 23.3923 Q77.2031 23.7517 77.2969 24.3454 L76.2656 24.4861 Q76.2031 24.0173 75.8672 23.7439 Q75.5312 23.4704 74.9062 23.4704 Q74.1875 23.4704 73.875 23.7126 Q73.5625 23.9548 73.5625 24.2829 Q73.5625 24.4861 73.6875 24.6423 Q73.8281 24.8142 74.0938 24.9236 Q74.25 24.9861 75.0312 25.1892 Q76.1562 25.5017 76.5938 25.6892 Q77.0312 25.8767 77.2812 26.2361 Q77.5312 26.5954 77.5312 27.1423 Q77.5312 27.6736 77.2266 28.1345 Q76.9219 28.5954 76.3438 28.8532 Q75.7656 29.1111 75.0312 29.1111 Q73.8125 29.1111 73.1797 28.6032 Q72.5469 28.0954 72.375 27.1111 ZM79.7969 21.5954 L79.7969 20.3767 L80.8594 20.3767 L80.8594 21.5954 L79.7969 21.5954 ZM79.7969 28.9704 L79.7969 22.7517 L80.8594 22.7517 L80.8594 28.9704 L79.7969 28.9704 Z" style="clip-path:url(#clipPath13); stroke:none;" />
      <path d="M3.7656 42.9704 L3.7656 34.3767 L4.8281 34.3767 L4.8281 42.9704 L3.7656 42.9704 ZM6.4062 39.8611 Q6.4062 38.1267 7.3594 37.2986 Q8.1562 36.6111 9.3125 36.6111 Q10.5938 36.6111 11.4141 37.447 Q12.2344 38.2829 12.2344 39.7673 Q12.2344 40.9704 11.875 41.6579 Q11.5156 42.3454 10.8203 42.7282 Q10.125 43.1111 9.3125 43.1111 Q8.0156 43.1111 7.2109 42.2751 Q6.4062 41.4392 6.4062 39.8611 ZM7.4844 39.8611 Q7.4844 41.0486 8.0078 41.6423 Q8.5312 42.2361 9.3125 42.2361 Q10.1094 42.2361 10.625 41.6423 Q11.1406 41.0486 11.1406 39.8298 Q11.1406 38.6736 10.6172 38.0798 Q10.0938 37.4861 9.3125 37.4861 Q8.5312 37.4861 8.0078 38.072 Q7.4844 38.6579 7.4844 39.8611 ZM13.5938 43.4861 L14.625 43.6423 Q14.6875 44.1111 14.9844 44.3298 Q15.375 44.6267 16.0469 44.6267 Q16.7812 44.6267 17.1797 44.3298 Q17.5781 44.0329 17.7188 43.5173 Q17.8125 43.1892 17.7969 42.1579 Q17.1094 42.9704 16.0781 42.9704 Q14.7969 42.9704 14.0938 42.0407 Q13.3906 41.1111 13.3906 39.8298 Q13.3906 38.9392 13.7109 38.1814 Q14.0312 37.4236 14.6406 37.0173 Q15.25 36.6111 16.0781 36.6111 Q17.1875 36.6111 17.9062 37.5017 L17.9062 36.7517 L18.875 36.7517 L18.875 42.1267 Q18.875 43.5798 18.5781 44.1892 Q18.2812 44.7986 17.6406 45.1501 Q17 45.5017 16.0625 45.5017 Q14.9531 45.5017 14.2656 45.0017 Q13.5781 44.5017 13.5938 43.4861 ZM14.4688 39.7517 Q14.4688 40.9704 14.9531 41.5329 Q15.4375 42.0954 16.1719 42.0954 Q16.9062 42.0954 17.3984 41.5329 Q17.8906 40.9704 17.8906 39.7829 Q17.8906 38.6423 17.3828 38.0642 Q16.875 37.4861 16.1562 37.4861 Q15.4531 37.4861 14.9609 38.0564 Q14.4688 38.6267 14.4688 39.7517 ZM20.7969 35.5954 L20.7969 34.3767 L21.8594 34.3767 L21.8594 35.5954 L20.7969 35.5954 ZM20.7969 42.9704 L20.7969 36.7517 L21.8594 36.7517 L21.8594 42.9704 L20.7969 42.9704 ZM23.7969 42.9704 L23.7969 34.3767 L24.8594 34.3767 L24.8594 39.2829 L27.3438 36.7517 L28.7188 36.7517 L26.3281 39.0486 L28.9531 42.9704 L27.6562 42.9704 L25.5938 39.7829 L24.8594 40.5017 L24.8594 42.9704 L23.7969 42.9704 ZM33.8594 42.2048 Q33.2656 42.7048 32.7266 42.9079 Q32.1875 43.1111 31.5625 43.1111 Q30.5312 43.1111 29.9844 42.6111 Q29.4375 42.1111 29.4375 41.3298 Q29.4375 40.8767 29.6406 40.4939 Q29.8438 40.1111 30.1875 39.8845 Q30.5312 39.6579 30.9531 39.5486 Q31.25 39.4548 31.8906 39.3767 Q33.1562 39.2361 33.7656 39.0173 Q33.7656 38.7986 33.7656 38.7517 Q33.7656 38.0954 33.4688 37.8298 Q33.0625 37.4861 32.2656 37.4861 Q31.5312 37.4861 31.1719 37.7439 Q30.8125 38.0017 30.6406 38.6579 L29.6094 38.5173 Q29.75 37.8611 30.0781 37.4548 Q30.4062 37.0486 31.0156 36.8298 Q31.625 36.6111 32.4219 36.6111 Q33.2188 36.6111 33.7188 36.7986 Q34.2188 36.9861 34.4531 37.2673 Q34.6875 37.5486 34.7812 37.9861 Q34.8281 38.2517 34.8281 38.9548 L34.8281 40.3611 Q34.8281 41.8298 34.8984 42.2204 Q34.9688 42.6111 35.1719 42.9704 L34.0625 42.9704 Q33.9062 42.6423 33.8594 42.2048 ZM33.7656 39.8454 Q33.1875 40.0798 32.0469 40.2517 Q31.3906 40.3454 31.125 40.4626 Q30.8594 40.5798 30.7109 40.7986 Q30.5625 41.0173 30.5625 41.2986 Q30.5625 41.7204 30.8828 42.0017 Q31.2031 42.2829 31.8125 42.2829 Q32.4219 42.2829 32.8984 42.0173 Q33.375 41.7517 33.5938 41.2829 Q33.7656 40.9236 33.7656 40.2361 L33.7656 39.8454 ZM31.125 34.9704 L31.9062 33.3298 L33.2969 33.3298 L32 34.9704 L31.125 34.9704 ZM36.7812 35.6111 L36.7812 34.3767 L37.8438 34.3767 L37.8438 35.6111 L36.7812 35.6111 ZM35.4531 45.3923 L35.6406 44.4861 Q35.9688 44.5642 36.1406 44.5642 Q36.4688 44.5642 36.625 44.3532 Q36.7812 44.1423 36.7812 43.2829 L36.7812 36.7517 L37.8438 36.7517 L37.8438 43.3142 Q37.8438 44.4548 37.5469 44.9079 Q37.1562 45.5017 36.2812 45.5017 Q35.8438 45.5017 35.4531 45.3923 ZM43.8594 42.2048 Q43.2656 42.7048 42.7266 42.9079 Q42.1875 43.1111 41.5625 43.1111 Q40.5312 43.1111 39.9844 42.6111 Q39.4375 42.1111 39.4375 41.3298 Q39.4375 40.8767 39.6406 40.4939 Q39.8438 40.1111 40.1875 39.8845 Q40.5312 39.6579 40.9531 39.5486 Q41.25 39.4548 41.8906 39.3767 Q43.1562 39.2361 43.7656 39.0173 Q43.7656 38.7986 43.7656 38.7517 Q43.7656 38.0954 43.4688 37.8298 Q43.0625 37.4861 42.2656 37.4861 Q41.5312 37.4861 41.1719 37.7439 Q40.8125 38.0017 40.6406 38.6579 L39.6094 38.5173 Q39.75 37.8611 40.0781 37.4548 Q40.4062 37.0486 41.0156 36.8298 Q41.625 36.6111 42.4219 36.6111 Q43.2188 36.6111 43.7188 36.7986 Q44.2188 36.9861 44.4531 37.2673 Q44.6875 37.5486 44.7812 37.9861 Q44.8281 38.2517 44.8281 38.9548 L44.8281 40.3611 Q44.8281 41.8298 44.8984 42.2204 Q44.9688 42.6111 45.1719 42.9704 L44.0625 42.9704 Q43.9062 42.6423 43.8594 42.2048 ZM43.7656 39.8454 Q43.1875 40.0798 42.0469 40.2517 Q41.3906 40.3454 41.125 40.4626 Q40.8594 40.5798 40.7109 40.7986 Q40.5625 41.0173 40.5625 41.2986 Q40.5625 41.7204 40.8828 42.0017 Q41.2031 42.2829 41.8125 42.2829 Q42.4219 42.2829 42.8984 42.0173 Q43.375 41.7517 43.5938 41.2829 Q43.7656 40.9236 43.7656 40.2361 L43.7656 39.8454 ZM41.125 34.9704 L41.9062 33.3298 L43.2969 33.3298 L42 34.9704 L41.125 34.9704 ZM46.7969 42.9704 L46.7969 36.7517 L47.7344 36.7517 L47.7344 37.6267 Q48.4219 36.6111 49.7188 36.6111 Q50.2812 36.6111 50.7578 36.8142 Q51.2344 37.0173 51.4688 37.3454 Q51.7031 37.6736 51.7969 38.1111 Q51.8438 38.4079 51.8438 39.1423 L51.8438 42.9704 L50.7969 42.9704 L50.7969 39.1892 Q50.7969 38.5329 50.6719 38.2204 Q50.5469 37.9079 50.2344 37.7126 Q49.9219 37.5173 49.5 37.5173 Q48.8281 37.5173 48.3359 37.947 Q47.8438 38.3767 47.8438 39.5642 L47.8438 42.9704 L46.7969 42.9704 ZM57.8594 42.2048 Q57.2656 42.7048 56.7266 42.9079 Q56.1875 43.1111 55.5625 43.1111 Q54.5312 43.1111 53.9844 42.6111 Q53.4375 42.1111 53.4375 41.3298 Q53.4375 40.8767 53.6406 40.4939 Q53.8438 40.1111 54.1875 39.8845 Q54.5312 39.6579 54.9531 39.5486 Q55.25 39.4548 55.8906 39.3767 Q57.1562 39.2361 57.7656 39.0173 Q57.7656 38.7986 57.7656 38.7517 Q57.7656 38.0954 57.4688 37.8298 Q57.0625 37.4861 56.2656 37.4861 Q55.5312 37.4861 55.1719 37.7439 Q54.8125 38.0017 54.6406 38.6579 L53.6094 38.5173 Q53.75 37.8611 54.0781 37.4548 Q54.4062 37.0486 55.0156 36.8298 Q55.625 36.6111 56.4219 36.6111 Q57.2188 36.6111 57.7188 36.7986 Q58.2188 36.9861 58.4531 37.2673 Q58.6875 37.5486 58.7812 37.9861 Q58.8281 38.2517 58.8281 38.9548 L58.8281 40.3611 Q58.8281 41.8298 58.8984 42.2204 Q58.9688 42.6111 59.1719 42.9704 L58.0625 42.9704 Q57.9062 42.6423 57.8594 42.2048 ZM57.7656 39.8454 Q57.1875 40.0798 56.0469 40.2517 Q55.3906 40.3454 55.125 40.4626 Q54.8594 40.5798 54.7109 40.7986 Q54.5625 41.0173 54.5625 41.2986 Q54.5625 41.7204 54.8828 42.0017 Q55.2031 42.2829 55.8125 42.2829 Q56.4219 42.2829 56.8984 42.0173 Q57.375 41.7517 57.5938 41.2829 Q57.7656 40.9236 57.7656 40.2361 L57.7656 39.8454 ZM60.7969 42.9704 L60.7969 34.3767 L61.8594 34.3767 L61.8594 39.2829 L64.3438 36.7517 L65.7188 36.7517 L63.3281 39.0486 L65.9531 42.9704 L64.6562 42.9704 L62.5938 39.7829 L61.8594 40.5017 L61.8594 42.9704 L60.7969 42.9704 ZM69.7656 42.9704 L69.7656 34.3767 L70.8281 34.3767 L70.8281 42.9704 L69.7656 42.9704 ZM77.0469 40.9704 L78.1406 41.0954 Q77.8906 42.0486 77.1875 42.5798 Q76.4844 43.1111 75.4062 43.1111 Q74.0469 43.1111 73.2422 42.2673 Q72.4375 41.4236 72.4375 39.9079 Q72.4375 38.3454 73.25 37.4782 Q74.0625 36.6111 75.3438 36.6111 Q76.5938 36.6111 77.3828 37.4548 Q78.1719 38.2986 78.1719 39.8454 Q78.1719 39.9392 78.1719 40.1267 L73.5312 40.1267 Q73.5938 41.1579 74.1094 41.697 Q74.625 42.2361 75.4062 42.2361 Q75.9844 42.2361 76.3984 41.9314 Q76.8125 41.6267 77.0469 40.9704 ZM73.5938 39.2673 L77.0625 39.2673 Q77 38.4704 76.6719 38.0798 Q76.1562 37.4704 75.3594 37.4704 Q74.625 37.4704 74.1328 37.9548 Q73.6406 38.4392 73.5938 39.2673 ZM80.0469 42.9704 L80.0469 37.5642 L79.1094 37.5642 L79.1094 36.7517 L80.0469 36.7517 L80.0469 36.0798 Q80.0469 35.4548 80.1562 35.1579 Q80.3125 34.7361 80.6953 34.4861 Q81.0781 34.2361 81.7656 34.2361 Q82.2188 34.2361 82.75 34.3454 L82.5938 35.2517 Q82.2656 35.2048 81.9688 35.2048 Q81.4844 35.2048 81.2891 35.4079 Q81.0938 35.6111 81.0938 36.1736 L81.0938 36.7517 L82.3125 36.7517 L82.3125 37.5642 L81.0938 37.5642 L81.0938 42.9704 L80.0469 42.9704 ZM86.875 42.9704 L86.875 42.0486 Q86.1406 43.1111 84.8906 43.1111 Q84.3438 43.1111 83.8672 42.9001 Q83.3906 42.6892 83.1562 42.3689 Q82.9219 42.0486 82.8281 41.5798 Q82.7656 41.2829 82.7656 40.5954 L82.7656 36.7517 L83.8281 36.7517 L83.8281 40.2048 Q83.8281 41.0173 83.8906 41.3142 Q83.9844 41.7204 84.3047 41.9626 Q84.625 42.2048 85.1094 42.2048 Q85.5781 42.2048 85.9922 41.9626 Q86.4062 41.7204 86.5859 41.2986 Q86.7656 40.8767 86.7656 40.0798 L86.7656 36.7517 L87.8125 36.7517 L87.8125 42.9704 L86.875 42.9704 ZM92.0938 42.0329 L92.25 42.9548 Q91.7969 43.0486 91.4531 43.0486 Q90.875 43.0486 90.5625 42.8689 Q90.25 42.6892 90.1172 42.3923 Q89.9844 42.0954 89.9844 41.1423 L89.9844 37.5642 L89.2188 37.5642 L89.2188 36.7517 L89.9844 36.7517 L89.9844 35.2048 L91.0312 34.5798 L91.0312 36.7517 L92.0938 36.7517 L92.0938 37.5642 L91.0312 37.5642 L91.0312 41.2048 Q91.0312 41.6579 91.0859 41.7829 Q91.1406 41.9079 91.2656 41.9861 Q91.3906 42.0642 91.625 42.0642 Q91.8125 42.0642 92.0938 42.0329 ZM95.0938 42.0329 L95.25 42.9548 Q94.7969 43.0486 94.4531 43.0486 Q93.875 43.0486 93.5625 42.8689 Q93.25 42.6892 93.1172 42.3923 Q92.9844 42.0954 92.9844 41.1423 L92.9844 37.5642 L92.2188 37.5642 L92.2188 36.7517 L92.9844 36.7517 L92.9844 35.2048 L94.0312 34.5798 L94.0312 36.7517 L95.0938 36.7517 L95.0938 37.5642 L94.0312 37.5642 L94.0312 41.2048 Q94.0312 41.6579 94.0859 41.7829 Q94.1406 41.9079 94.2656 41.9861 Q94.3906 42.0642 94.625 42.0642 Q94.8125 42.0642 95.0938 42.0329 ZM99.8594 42.2048 Q99.2656 42.7048 98.7266 42.9079 Q98.1875 43.1111 97.5625 43.1111 Q96.5312 43.1111 95.9844 42.6111 Q95.4375 42.1111 95.4375 41.3298 Q95.4375 40.8767 95.6406 40.4939 Q95.8438 40.1111 96.1875 39.8845 Q96.5312 39.6579 96.9531 39.5486 Q97.25 39.4548 97.8906 39.3767 Q99.1562 39.2361 99.7656 39.0173 Q99.7656 38.7986 99.7656 38.7517 Q99.7656 38.0954 99.4688 37.8298 Q99.0625 37.4861 98.2656 37.4861 Q97.5312 37.4861 97.1719 37.7439 Q96.8125 38.0017 96.6406 38.6579 L95.6094 38.5173 Q95.75 37.8611 96.0781 37.4548 Q96.4062 37.0486 97.0156 36.8298 Q97.625 36.6111 98.4219 36.6111 Q99.2188 36.6111 99.7188 36.7986 Q100.2188 36.9861 100.4531 37.2673 Q100.6875 37.5486 100.7812 37.9861 Q100.8281 38.2517 100.8281 38.9548 L100.8281 40.3611 Q100.8281 41.8298 100.8984 42.2204 Q100.9688 42.6111 101.1719 42.9704 L100.0625 42.9704 Q99.9062 42.6423 99.8594 42.2048 ZM99.7656 39.8454 Q99.1875 40.0798 98.0469 40.2517 Q97.3906 40.3454 97.125 40.4626 Q96.8594 40.5798 96.7109 40.7986 Q96.5625 41.0173 96.5625 41.2986 Q96.5625 41.7204 96.8828 42.0017 Q97.2031 42.2829 97.8125 42.2829 Q98.4219 42.2829 98.8984 42.0173 Q99.375 41.7517 99.5938 41.2829 Q99.7656 40.9236 99.7656 40.2361 L99.7656 39.8454 ZM105.0938 42.0329 L105.25 42.9548 Q104.7969 43.0486 104.4531 43.0486 Q103.875 43.0486 103.5625 42.8689 Q103.25 42.6892 103.1172 42.3923 Q102.9844 42.0954 102.9844 41.1423 L102.9844 37.5642 L102.2188 37.5642 L102.2188 36.7517 L102.9844 36.7517 L102.9844 35.2048 L104.0312 34.5798 L104.0312 36.7517 L105.0938 36.7517 L105.0938 37.5642 L104.0312 37.5642 L104.0312 41.2048 Q104.0312 41.6579 104.0859 41.7829 Q104.1406 41.9079 104.2656 41.9861 Q104.3906 42.0642 104.625 42.0642 Q104.8125 42.0642 105.0938 42.0329 ZM109.8594 42.2048 Q109.2656 42.7048 108.7266 42.9079 Q108.1875 43.1111 107.5625 43.1111 Q106.5312 43.1111 105.9844 42.6111 Q105.4375 42.1111 105.4375 41.3298 Q105.4375 40.8767 105.6406 40.4939 Q105.8438 40.1111 106.1875 39.8845 Q106.5312 39.6579 106.9531 39.5486 Q107.25 39.4548 107.8906 39.3767 Q109.1562 39.2361 109.7656 39.0173 Q109.7656 38.7986 109.7656 38.7517 Q109.7656 38.0954 109.4688 37.8298 Q109.0625 37.4861 108.2656 37.4861 Q107.5312 37.4861 107.1719 37.7439 Q106.8125 38.0017 106.6406 38.6579 L105.6094 38.5173 Q105.75 37.8611 106.0781 37.4548 Q106.4062 37.0486 107.0156 36.8298 Q107.625 36.6111 108.4219 36.6111 Q109.2188 36.6111 109.7188 36.7986 Q110.2188 36.9861 110.4531 37.2673 Q110.6875 37.5486 110.7812 37.9861 Q110.8281 38.2517 110.8281 38.9548 L110.8281 40.3611 Q110.8281 41.8298 110.8984 42.2204 Q110.9688 42.6111 111.1719 42.9704 L110.0625 42.9704 Q109.9062 42.6423 109.8594 42.2048 ZM109.7656 39.8454 Q109.1875 40.0798 108.0469 40.2517 Q107.3906 40.3454 107.125 40.4626 Q106.8594 40.5798 106.7109 40.7986 Q106.5625 41.0173 106.5625 41.2986 Q106.5625 41.7204 106.8828 42.0017 Q107.2031 42.2829 107.8125 42.2829 Q108.4219 42.2829 108.8984 42.0173 Q109.375 41.7517 109.5938 41.2829 Q109.7656 40.9236 109.7656 40.2361 L109.7656 39.8454 ZM107.125 34.9704 L107.9062 33.3298 L109.2969 33.3298 L108 34.9704 L107.125 34.9704 ZM112.375 41.1111 L113.4062 40.9548 Q113.5 41.5798 113.8984 41.9079 Q114.2969 42.2361 115.0312 42.2361 Q115.75 42.2361 116.1016 41.947 Q116.4531 41.6579 116.4531 41.2517 Q116.4531 40.8923 116.1406 40.6892 Q115.9219 40.5486 115.0625 40.3298 Q113.9062 40.0329 113.4609 39.822 Q113.0156 39.6111 112.7812 39.2361 Q112.5469 38.8611 112.5469 38.3923 Q112.5469 37.9861 112.7344 37.6267 Q112.9219 37.2673 113.25 37.0329 Q113.5 36.8611 113.9219 36.7361 Q114.3438 36.6111 114.8438 36.6111 Q115.5625 36.6111 116.1172 36.822 Q116.6719 37.0329 116.9375 37.3923 Q117.2031 37.7517 117.2969 38.3454 L116.2656 38.4861 Q116.2031 38.0173 115.8672 37.7439 Q115.5312 37.4704 114.9062 37.4704 Q114.1875 37.4704 113.875 37.7126 Q113.5625 37.9548 113.5625 38.2829 Q113.5625 38.4861 113.6875 38.6423 Q113.8281 38.8142 114.0938 38.9236 Q114.25 38.9861 115.0312 39.1892 Q116.1562 39.5017 116.5938 39.6892 Q117.0312 39.8767 117.2812 40.2361 Q117.5312 40.5954 117.5312 41.1423 Q117.5312 41.6736 117.2266 42.1345 Q116.9219 42.5954 116.3438 42.8532 Q115.7656 43.1111 115.0312 43.1111 Q113.8125 43.1111 113.1797 42.6032 Q112.5469 42.0954 112.375 41.1111 ZM123.8594 42.2048 Q123.2656 42.7048 122.7266 42.9079 Q122.1875 43.1111 121.5625 43.1111 Q120.5312 43.1111 119.9844 42.6111 Q119.4375 42.1111 119.4375 41.3298 Q119.4375 40.8767 119.6406 40.4939 Q119.8438 40.1111 120.1875 39.8845 Q120.5312 39.6579 120.9531 39.5486 Q121.25 39.4548 121.8906 39.3767 Q123.1562 39.2361 123.7656 39.0173 Q123.7656 38.7986 123.7656 38.7517 Q123.7656 38.0954 123.4688 37.8298 Q123.0625 37.4861 122.2656 37.4861 Q121.5312 37.4861 121.1719 37.7439 Q120.8125 38.0017 120.6406 38.6579 L119.6094 38.5173 Q119.75 37.8611 120.0781 37.4548 Q120.4062 37.0486 121.0156 36.8298 Q121.625 36.6111 122.4219 36.6111 Q123.2188 36.6111 123.7188 36.7986 Q124.2188 36.9861 124.4531 37.2673 Q124.6875 37.5486 124.7812 37.9861 Q124.8281 38.2517 124.8281 38.9548 L124.8281 40.3611 Q124.8281 41.8298 124.8984 42.2204 Q124.9688 42.6111 125.1719 42.9704 L124.0625 42.9704 Q123.9062 42.6423 123.8594 42.2048 ZM123.7656 39.8454 Q123.1875 40.0798 122.0469 40.2517 Q121.3906 40.3454 121.125 40.4626 Q120.8594 40.5798 120.7109 40.7986 Q120.5625 41.0173 120.5625 41.2986 Q120.5625 41.7204 120.8828 42.0017 Q121.2031 42.2829 121.8125 42.2829 Q122.4219 42.2829 122.8984 42.0173 Q123.375 41.7517 123.5938 41.2829 Q123.7656 40.9236 123.7656 40.2361 L123.7656 39.8454 Z" style="clip-path:url(#clipPath13); stroke:none;" />
    </g>
    <g style="text-rendering:geometricPrecision; font-size:11; font-family:sans-serif;" transform="translate(30,34)">
      <text x="8" y="12" style="clip-path:url(#clipPath14); stroke:none;" xml:space="preserve">parser : Parser</text>
    </g>
    <g style="text-rendering:geometricPrecision; font-size:11; font-family:sans-serif;" transform="translate(370,34)">
      <text x="21" y="12" style="clip-path:url(#clipPath15); stroke:none;" xml:space="preserve">inputComponent :</text>
      <text x="15" y="27" style="clip-path:url(#clipPath15); stroke:none;" xml:space="preserve">SequenceGenerator</text>
    </g>
    <g style="text-rendering:geometricPrecision; font-size:11; font-family:sans-serif;" transform="translate(230,34)">
      <text x="23" y="12" style="clip-path:url(#clipPath16); stroke:none;" xml:space="preserve">ff :</text>
      <text x="10" y="27" style="clip-path:url(#clipPath16); stroke:none;" xml:space="preserve">FlipFlop</text>
    </g>
    <g transform="translate(214,214)" style="font-size:11; stroke-linecap:butt; text-rendering:geometricPrecision; font-family:sans-serif; stroke-linejoin:round;">
      <line x1="50" x2="217" y1="50" style="clip-path:url(#clipPath17); fill:none;" y2="50" />
      <polygon style="clip-path:url(#clipPath17); stroke:none;" points=" 217 50 205 44 205 56" />
      <polygon style="fill:none; clip-path:url(#clipPath17);" points=" 217 50 205 44 205 56" />
    </g>
    <g transform="translate(29,44)" style="font-size:11; stroke-linecap:butt; text-rendering:geometricPrecision; font-family:sans-serif; stroke-linejoin:round;">
      <line x1="50" x2="227" y1="50" style="clip-path:url(#clipPath18); fill:none;" y2="50" />
      <polygon style="clip-path:url(#clipPath18); stroke:none;" points=" 227 50 215 44 215 56" />
      <polygon style="fill:none; clip-path:url(#clipPath18);" points=" 227 50 215 44 215 56" />
    </g>
    <g transform="translate(214,54)" style="font-size:11; stroke-linecap:butt; text-rendering:geometricPrecision; font-family:sans-serif; stroke-linejoin:round; stroke-dasharray:4;">
      <line x1="75" x2="50" y1="50" style="clip-path:url(#clipPath19); fill:none;" y2="50" />
    </g>
    <g style="text-rendering:geometricPrecision; font-size:11; font-family:sans-serif;" transform="translate(10,74)">
      <text x="15" y="12" style="clip-path:url(#clipPath20); stroke:none;" xml:space="preserve">1: setInput(inputPin, inpuComponent, outputPin)</text>
    </g>
    <g style="text-rendering:geometricPrecision; font-size:11; font-family:sans-serif;" transform="translate(290,244)">
      <text x="10" y="12" style="clip-path:url(#clipPath21); stroke:none;" xml:space="preserve">1.1: addFlipFlop(ff)</text>
    </g>
  </g>
</svg>
