<?xml version="1.0" encoding="UTF-8"?>

<!DOCTYPE svg PUBLIC '-//W3C//DTD SVG 1.0//EN' 'http://www.w3.org/TR/2001/REC-SVG-20010904/DTD/svg10.dtd'>
<svg style="fill-opacity:1; color-rendering:auto; color-interpolation:auto; stroke:black; text-rendering:auto; stroke-linecap:square; stroke-miterlimit:10; stroke-opacity:1; shape-rendering:auto; fill:black; stroke-dasharray:none; font-weight:normal; stroke-width:1; font-family:&apos;Dialog&apos;; font-style:normal; stroke-linejoin:miter; font-size:12; stroke-dashoffset:0; image-rendering:auto;" xmlns="http://www.w3.org/2000/svg" width="426" xmlns:xlink="http://www.w3.org/1999/xlink" height="398">
  <!--Generated by the Batik Graphics2D SVG Generator-->
  <defs id="genericDefs" />
  <g>
    <defs id="defs1">
      <clipPath clipPathUnits="userSpaceOnUse" id="clipPath1">
        <path d="M-3 -3 L97 -3 L97 357 L-3 357 L-3 -3 Z" />
      </clipPath>
      <clipPath clipPathUnits="userSpaceOnUse" id="clipPath2">
        <path d="M-3 -3 L87 -3 L87 357 L-3 357 L-3 -3 Z" />
      </clipPath>
      <clipPath clipPathUnits="userSpaceOnUse" id="clipPath3">
        <path d="M-3 -3 L15 -3 L15 257 L-3 257 L-3 -3 Z" />
      </clipPath>
      <clipPath clipPathUnits="userSpaceOnUse" id="clipPath4">
        <path d="M-3 -3 L127 -3 L127 357 L-3 357 L-3 -3 Z" />
      </clipPath>
      <clipPath clipPathUnits="userSpaceOnUse" id="clipPath5">
        <path d="M-3 -3 L197 -3 L197 207 L-3 207 L-3 -3 Z" />
      </clipPath>
      <clipPath clipPathUnits="userSpaceOnUse" id="clipPath6">
        <path d="M0 0 L33 0 L33 18 L0 18 L0 0 Z" />
      </clipPath>
      <clipPath clipPathUnits="userSpaceOnUse" id="clipPath7">
        <path d="M-3 -3 L15 -3 L15 47 L-3 47 L-3 -3 Z" />
      </clipPath>
      <clipPath clipPathUnits="userSpaceOnUse" id="clipPath8">
        <path d="M-3 -3 L197 -3 L197 189 L-3 189 L-3 -3 Z" />
      </clipPath>
      <clipPath clipPathUnits="userSpaceOnUse" id="clipPath9">
        <path d="M0 0 L132 0 L132 15 L0 15 L0 0 Z" />
      </clipPath>
      <clipPath clipPathUnits="userSpaceOnUse" id="clipPath10">
        <path d="M0 0 L0 4 L190 4 L190 0 Z" />
      </clipPath>
      <clipPath clipPathUnits="userSpaceOnUse" id="clipPath11">
        <path d="M-3 -3 L137 -3 L137 77 L-3 77 L-3 -3 Z" />
      </clipPath>
      <clipPath clipPathUnits="userSpaceOnUse" id="clipPath12">
        <path d="M0 0 L27 0 L27 18 L0 18 L0 0 Z" />
      </clipPath>
      <clipPath clipPathUnits="userSpaceOnUse" id="clipPath13">
        <path d="M-3 -3 L137 -3 L137 59 L-3 59 L-3 -3 Z" />
      </clipPath>
      <clipPath clipPathUnits="userSpaceOnUse" id="clipPath14">
        <path d="M0 0 L68 0 L68 15 L0 15 L0 0 Z" />
      </clipPath>
      <clipPath clipPathUnits="userSpaceOnUse" id="clipPath15">
        <path d="M0 0 L0 4 L130 4 L130 0 Z" />
      </clipPath>
      <clipPath clipPathUnits="userSpaceOnUse" id="clipPath16">
        <path d="M-120 -30 L240 -30 L240 60 L-120 60 L-120 -30 Z" />
      </clipPath>
      <clipPath clipPathUnits="userSpaceOnUse" id="clipPath17">
        <path d="M-80 -15 L160 -15 L160 30 L-80 30 L-80 -15 Z" />
      </clipPath>
      <clipPath clipPathUnits="userSpaceOnUse" id="clipPath18">
        <path d="M-90 -15 L180 -15 L180 30 L-90 30 L-90 -15 Z" />
      </clipPath>
      <clipPath clipPathUnits="userSpaceOnUse" id="clipPath19">
        <path d="M0 0 L241 0 L241 104 L0 104 L0 0 Z" />
      </clipPath>
      <clipPath clipPathUnits="userSpaceOnUse" id="clipPath20">
        <path d="M0 0 L246 0 L246 104 L0 104 L0 0 Z" />
      </clipPath>
      <clipPath clipPathUnits="userSpaceOnUse" id="clipPath21">
        <path d="M-55 -15 L110 -15 L110 30 L-55 30 L-55 -15 Z" />
      </clipPath>
      <clipPath clipPathUnits="userSpaceOnUse" id="clipPath22">
        <path d="M-52 -16 L104 -16 L104 32 L-52 32 L-52 -16 Z" />
      </clipPath>
      <clipPath clipPathUnits="userSpaceOnUse" id="clipPath23">
        <path d="M-84 -16 L168 -16 L168 32 L-84 32 L-84 -16 Z" />
      </clipPath>
      <clipPath clipPathUnits="userSpaceOnUse" id="clipPath24">
        <path d="M-101 -15 L202 -15 L202 30 L-101 30 L-101 -15 Z" />
      </clipPath>
      <clipPath clipPathUnits="userSpaceOnUse" id="clipPath25">
        <path d="M-92 -15 L184 -15 L184 30 L-92 30 L-92 -15 Z" />
      </clipPath>
    </defs>
    <g style="fill:white; text-rendering:geometricPrecision; stroke:white;">
      <rect x="0" y="0" width="426" style="stroke:none;" height="398" />
      <rect x="8" y="38" transform="translate(-8,-38)" width="425" style="fill:none; stroke:black;" height="397" />
      <text x="15" y="55" transform="translate(-8,-38)" style="fill:black; stroke:none; font-weight:bold;" xml:space="preserve">sd</text>
      <text x="36" y="55" transform="translate(-8,-38)" style="fill:black; stroke:none;" xml:space="preserve">Áramkör változásának észlelése</text>
      <line transform="translate(-8,-38)" x1="8" x2="212" y1="62" style="fill:none; stroke:black;" y2="62" />
      <line transform="translate(-8,-38)" x1="218" x2="218" y1="38" style="fill:none; stroke:black;" y2="52" />
      <line transform="translate(-8,-38)" x1="218" x2="212" y1="52" style="fill:none; stroke:black;" y2="62" />
    </g>
    <g transform="translate(12,34)" style="font-size:11; fill:white; text-rendering:geometricPrecision; font-family:sans-serif; stroke:white;">
      <rect x="0" y="0" width="89" style="clip-path:url(#clipPath1); stroke:none;" height="35" />
    </g>
    <g transform="translate(12,34)" style="font-size:11; stroke-linecap:butt; text-rendering:geometricPrecision; font-family:sans-serif; stroke-linejoin:round; stroke-miterlimit:0;">
      <rect x="0" y="0" width="89" style="clip-path:url(#clipPath1); fill:none;" height="35" />
      <line x1="44" x2="44" y1="35" style="clip-path:url(#clipPath1); fill:none; stroke-linejoin:bevel; stroke-dasharray:8,3;" y2="350" />
    </g>
    <g transform="translate(162,34)" style="font-size:11; fill:white; text-rendering:geometricPrecision; font-family:sans-serif; stroke:white;">
      <rect x="0" y="0" width="79" style="clip-path:url(#clipPath2); stroke:none;" height="35" />
    </g>
    <g transform="translate(162,34)" style="font-size:11; stroke-linecap:butt; text-rendering:geometricPrecision; font-family:sans-serif; stroke-linejoin:round; stroke-miterlimit:0;">
      <rect x="0" y="0" width="79" style="clip-path:url(#clipPath2); fill:none;" height="35" />
      <line x1="39" x2="39" y1="35" style="clip-path:url(#clipPath2); fill:none; stroke-linejoin:bevel; stroke-dasharray:8,3;" y2="350" />
    </g>
    <g transform="translate(53,114)" style="font-size:11; fill:white; text-rendering:geometricPrecision; font-family:sans-serif; stroke:white;">
      <rect x="0" y="0" width="8" style="clip-path:url(#clipPath3); stroke:none;" height="250" />
    </g>
    <g transform="translate(53,114)" style="font-size:11; stroke-linecap:butt; text-rendering:geometricPrecision; font-family:sans-serif; stroke-linejoin:round; stroke-miterlimit:0;">
      <rect x="0" y="0" width="8" style="clip-path:url(#clipPath3); fill:none;" height="250" />
    </g>
    <g transform="translate(198,114)" style="font-size:11; fill:white; text-rendering:geometricPrecision; font-family:sans-serif; stroke:white;">
      <rect x="0" y="0" width="8" style="clip-path:url(#clipPath3); stroke:none;" height="250" />
    </g>
    <g transform="translate(198,114)" style="font-size:11; stroke-linecap:butt; text-rendering:geometricPrecision; font-family:sans-serif; stroke-linejoin:round; stroke-miterlimit:0;">
      <rect x="0" y="0" width="8" style="clip-path:url(#clipPath3); fill:none;" height="250" />
    </g>
    <g transform="translate(292,34)" style="font-size:11; fill:white; text-rendering:geometricPrecision; font-family:sans-serif; stroke:white;">
      <rect x="4" y="4" width="115" style="clip-path:url(#clipPath4); stroke:none;" height="35" />
    </g>
    <g transform="translate(292,34)" style="font-size:11; stroke-linecap:butt; text-rendering:geometricPrecision; font-family:sans-serif; stroke-linejoin:round; stroke-miterlimit:0;">
      <rect x="4" y="4" width="115" style="clip-path:url(#clipPath4); fill:none;" height="35" />
      <rect x="0" y="0" width="115" style="clip-path:url(#clipPath4); fill:white; stroke:none;" height="35" />
      <rect x="0" y="0" width="115" style="clip-path:url(#clipPath4); fill:none;" height="35" />
      <line x1="57" x2="57" y1="35" style="clip-path:url(#clipPath4); fill:none; stroke-linejoin:bevel; stroke-dasharray:8,3;" y2="350" />
    </g>
    <g transform="translate(182,134)" style="font-size:11; stroke-linecap:butt; text-rendering:geometricPrecision; font-family:sans-serif; stroke-linejoin:round; font-weight:bold; stroke-miterlimit:0;">
      <rect x="0" y="0" width="190" style="clip-path:url(#clipPath5); fill:none;" height="200" />
    </g>
    <g transform="translate(182,134)" style="font-size:11; fill:white; text-rendering:geometricPrecision; font-family:sans-serif; stroke:white; font-weight:bold;">
      <path d="M32 0 L32 9 L26 17 L0 17 L0 0 Z" style="clip-path:url(#clipPath5); stroke:none;" />
    </g>
    <g transform="translate(182,134)" style="font-size:11; stroke-linecap:butt; text-rendering:geometricPrecision; font-family:sans-serif; stroke-linejoin:round; font-weight:bold; stroke-miterlimit:0;">
      <path d="M32 0 L32 9 L26 17 L0 17 L0 0 Z" style="fill:none; clip-path:url(#clipPath5);" />
    </g>
    <g transform="translate(182,134)" style="text-rendering:geometricPrecision; font-size:11; font-weight:bold; font-family:sans-serif;">
      <text x="4" y="12" style="clip-path:url(#clipPath6); stroke:none;" xml:space="preserve">loop</text>
    </g>
    <g transform="translate(348,204)" style="font-size:11; fill:white; text-rendering:geometricPrecision; font-family:sans-serif; stroke:white;">
      <rect x="0" y="0" width="8" style="clip-path:url(#clipPath7); stroke:none;" height="40" />
    </g>
    <g transform="translate(348,204)" style="font-size:11; stroke-linecap:butt; text-rendering:geometricPrecision; font-family:sans-serif; stroke-linejoin:round; stroke-miterlimit:0;">
      <rect x="0" y="0" width="8" style="clip-path:url(#clipPath7); fill:none;" height="40" />
    </g>
    <g transform="translate(182,152)" style="font-size:11; fill:white; text-rendering:geometricPrecision; font-family:sans-serif; stroke:white;">
      <rect x="28" y="5" width="132" style="clip-path:url(#clipPath8); stroke:none;" height="15" />
    </g>
    <g style="text-rendering:geometricPrecision; font-size:11; font-family:sans-serif;" transform="translate(210,157)">
      <text x="12" y="12" style="clip-path:url(#clipPath9); stroke:none;" xml:space="preserve">[minden komponensre]</text>
    </g>
    <g transform="translate(192,254)" style="font-size:11; stroke-linecap:butt; text-rendering:geometricPrecision; font-family:sans-serif; stroke-linejoin:round; font-weight:bold; stroke-miterlimit:0;">
      <rect x="0" y="0" width="130" style="clip-path:url(#clipPath11); fill:none;" height="70" />
    </g>
    <g transform="translate(192,254)" style="font-size:11; fill:white; text-rendering:geometricPrecision; font-family:sans-serif; stroke:white; font-weight:bold;">
      <path d="M26 0 L26 9 L20 17 L0 17 L0 0 Z" style="clip-path:url(#clipPath11); stroke:none;" />
    </g>
    <g transform="translate(192,254)" style="font-size:11; stroke-linecap:butt; text-rendering:geometricPrecision; font-family:sans-serif; stroke-linejoin:round; font-weight:bold; stroke-miterlimit:0;">
      <path d="M26 0 L26 9 L20 17 L0 17 L0 0 Z" style="fill:none; clip-path:url(#clipPath11);" />
    </g>
    <g transform="translate(192,254)" style="text-rendering:geometricPrecision; font-size:11; font-weight:bold; font-family:sans-serif;">
      <text x="4" y="12" style="clip-path:url(#clipPath12); stroke:none;" xml:space="preserve">opt</text>
    </g>
    <g transform="translate(192,272)" style="font-size:11; fill:white; text-rendering:geometricPrecision; font-family:sans-serif; stroke:white;">
      <rect x="28" y="5" width="68" style="clip-path:url(#clipPath13); stroke:none;" height="15" />
    </g>
    <g style="text-rendering:geometricPrecision; font-size:11; font-family:sans-serif;" transform="translate(220,277)">
      <text x="10" y="12" style="clip-path:url(#clipPath14); stroke:none;" xml:space="preserve">[changed]</text>
    </g>
    <g style="text-rendering:geometricPrecision; font-size:11; font-family:sans-serif;" transform="translate(292,34)">
      <text x="26" y="12" style="clip-path:url(#clipPath16); stroke:none;" xml:space="preserve">components :</text>
      <text x="11" y="27" style="clip-path:url(#clipPath16); stroke:none;" xml:space="preserve">AbstractComponent</text>
    </g>
    <g style="text-rendering:geometricPrecision; font-size:11; font-family:sans-serif;" transform="translate(162,34)">
      <text x="4" y="12" style="clip-path:url(#clipPath17); stroke:none;" xml:space="preserve">circuit : Circuit</text>
    </g>
    <g style="text-rendering:geometricPrecision; font-size:11; font-family:sans-serif;" transform="translate(12,34)">
      <text x="11" y="12" style="clip-path:url(#clipPath18); stroke:none;" xml:space="preserve">s : Simulation</text>
    </g>
    <g transform="translate(11,64)" style="font-size:11; stroke-linecap:butt; text-rendering:geometricPrecision; font-family:sans-serif; stroke-linejoin:round;">
      <line x1="50" x2="187" y1="50" style="clip-path:url(#clipPath19); fill:none;" y2="50" />
      <polygon style="clip-path:url(#clipPath19); stroke:none;" points=" 187 50 175 44 175 56" />
      <polygon style="fill:none; clip-path:url(#clipPath19);" points=" 187 50 175 44 175 56" />
    </g>
    <g transform="translate(156,154)" style="font-size:11; stroke-linecap:butt; text-rendering:geometricPrecision; font-family:sans-serif; stroke-linejoin:round;">
      <line x1="50" x2="192" y1="50" style="clip-path:url(#clipPath20); fill:none;" y2="50" />
      <polygon style="clip-path:url(#clipPath20); stroke:none;" points=" 192 50 180 44 180 56" />
      <polygon style="fill:none; clip-path:url(#clipPath20);" points=" 192 50 180 44 180 56" />
    </g>
    <g transform="translate(156,184)" style="font-size:11; stroke-linecap:butt; text-rendering:geometricPrecision; font-family:sans-serif; stroke-linejoin:round; stroke-dasharray:8,3; stroke-miterlimit:0;">
      <line x1="192" x2="50" y1="50" style="clip-path:url(#clipPath20); fill:none;" y2="50" />
      <line x1="50" x2="62" y1="50" style="clip-path:url(#clipPath20); fill:none; stroke-dasharray:none; stroke-miterlimit:10;" y2="56" />
      <line x1="50" x2="62" y1="50" style="clip-path:url(#clipPath20); fill:none; stroke-dasharray:none; stroke-miterlimit:10;" y2="44" />
    </g>
    <g transform="translate(11,254)" style="font-size:11; stroke-linecap:butt; text-rendering:geometricPrecision; font-family:sans-serif; stroke-linejoin:round; stroke-dasharray:8,3; stroke-miterlimit:0;">
      <line x1="187" x2="50" y1="50" style="clip-path:url(#clipPath19); fill:none;" y2="50" />
      <line x1="50" x2="62" y1="50" style="clip-path:url(#clipPath19); fill:none; stroke-dasharray:none; stroke-miterlimit:10;" y2="56" />
      <line x1="50" x2="62" y1="50" style="clip-path:url(#clipPath19); fill:none; stroke-dasharray:none; stroke-miterlimit:10;" y2="44" />
    </g>
    <g transform="translate(11,304)" style="font-size:11; stroke-linecap:butt; text-rendering:geometricPrecision; font-family:sans-serif; stroke-linejoin:round; stroke-dasharray:8,3; stroke-miterlimit:0;">
      <line x1="187" x2="50" y1="50" style="clip-path:url(#clipPath19); fill:none;" y2="50" />
      <line x1="50" x2="62" y1="50" style="clip-path:url(#clipPath19); fill:none; stroke-dasharray:none; stroke-miterlimit:10;" y2="56" />
      <line x1="50" x2="62" y1="50" style="clip-path:url(#clipPath19); fill:none; stroke-dasharray:none; stroke-miterlimit:10;" y2="44" />
    </g>
    <g style="text-rendering:geometricPrecision; font-size:11; font-family:sans-serif;" transform="translate(102,334)">
      <text x="9" y="12" style="clip-path:url(#clipPath21); stroke:none;" xml:space="preserve">3: false</text>
    </g>
    <g style="text-rendering:geometricPrecision; font-size:11; font-family:sans-serif;" transform="translate(102,284)">
      <text x="10" y="12" style="clip-path:url(#clipPath22); stroke:none;" xml:space="preserve">2: true</text>
    </g>
    <g style="text-rendering:geometricPrecision; font-size:11; font-family:sans-serif;" transform="translate(232,214)">
      <text x="10" y="12" style="clip-path:url(#clipPath23); stroke:none;" xml:space="preserve">1.2: changed</text>
    </g>
    <g style="text-rendering:geometricPrecision; font-size:11; font-family:sans-serif;" transform="translate(222,184)">
      <text x="10" y="12" style="clip-path:url(#clipPath24); stroke:none;" xml:space="preserve">1.1: isChanged()</text>
    </g>
    <g style="text-rendering:geometricPrecision; font-size:11; font-family:sans-serif;" transform="translate(72,94)">
      <text x="10" y="12" style="clip-path:url(#clipPath25); stroke:none;" xml:space="preserve">1: isChanged()</text>
    </g>
  </g>
</svg>
