<?xml version="1.0" encoding="UTF-8"?>

<!DOCTYPE svg PUBLIC '-//W3C//DTD SVG 1.0//EN' 'http://www.w3.org/TR/2001/REC-SVG-20010904/DTD/svg10.dtd'>
<svg style="fill-opacity:1; color-rendering:auto; color-interpolation:auto; stroke:black; text-rendering:auto; stroke-linecap:square; stroke-miterlimit:10; stroke-opacity:1; shape-rendering:auto; fill:black; stroke-dasharray:none; font-weight:normal; stroke-width:1; font-family:&apos;Dialog&apos;; font-style:normal; stroke-linejoin:miter; font-size:12; stroke-dashoffset:0; image-rendering:auto;" xmlns="http://www.w3.org/2000/svg" width="644" xmlns:xlink="http://www.w3.org/1999/xlink" height="428">
  <!--Generated by the Batik Graphics2D SVG Generator-->
  <defs id="genericDefs" />
  <g>
    <defs id="defs1">
      <clipPath clipPathUnits="userSpaceOnUse" id="clipPath1">
        <path d="M-3 -3 L77 -3 L77 387 L-3 387 L-3 -3 Z" />
      </clipPath>
      <clipPath clipPathUnits="userSpaceOnUse" id="clipPath2">
        <path d="M-3 -3 L67 -3 L67 387 L-3 387 L-3 -3 Z" />
      </clipPath>
      <clipPath clipPathUnits="userSpaceOnUse" id="clipPath3">
        <path d="M-3 -3 L137 -3 L137 387 L-3 387 L-3 -3 Z" />
      </clipPath>
      <clipPath clipPathUnits="userSpaceOnUse" id="clipPath4">
        <path d="M-3 -3 L157 -3 L157 277 L-3 277 L-3 -3 Z" />
      </clipPath>
      <clipPath clipPathUnits="userSpaceOnUse" id="clipPath5">
        <path d="M-3 -3 L14 -3 L14 47 L-3 47 L-3 -3 Z" />
      </clipPath>
      <clipPath clipPathUnits="userSpaceOnUse" id="clipPath6">
        <path d="M-3 -3 L87 -3 L87 387 L-3 387 L-3 -3 Z" />
      </clipPath>
      <clipPath clipPathUnits="userSpaceOnUse" id="clipPath7">
        <path d="M-3 -3 L15 -3 L15 258 L-3 258 L-3 -3 Z" />
      </clipPath>
      <clipPath clipPathUnits="userSpaceOnUse" id="clipPath8">
        <path d="M-3 -3 L14 -3 L14 152 L-3 152 L-3 -3 Z" />
      </clipPath>
      <clipPath clipPathUnits="userSpaceOnUse" id="clipPath9">
        <path d="M-3 -3 L15 -3 L15 304 L-3 304 L-3 -3 Z" />
      </clipPath>
      <clipPath clipPathUnits="userSpaceOnUse" id="clipPath10">
        <path d="M-3 -3 L417 -3 L417 167 L-3 167 L-3 -3 Z" />
      </clipPath>
      <clipPath clipPathUnits="userSpaceOnUse" id="clipPath11">
        <path d="M0 0 L33 0 L33 18 L0 18 L0 0 Z" />
      </clipPath>
      <clipPath clipPathUnits="userSpaceOnUse" id="clipPath12">
        <path d="M-3 -3 L417 -3 L417 149 L-3 149 L-3 -3 Z" />
      </clipPath>
      <clipPath clipPathUnits="userSpaceOnUse" id="clipPath13">
        <path d="M0 0 L147 0 L147 15 L0 15 L0 0 Z" />
      </clipPath>
      <clipPath clipPathUnits="userSpaceOnUse" id="clipPath14">
        <path d="M0 0 L0 4 L410 4 L410 0 Z" />
      </clipPath>
      <clipPath clipPathUnits="userSpaceOnUse" id="clipPath15">
        <path d="M-80 -30 L160 -30 L160 60 L-80 60 L-80 -30 Z" />
      </clipPath>
      <clipPath clipPathUnits="userSpaceOnUse" id="clipPath16">
        <path d="M-150 -15 L300 -15 L300 30 L-150 30 L-150 -15 Z" />
      </clipPath>
      <clipPath clipPathUnits="userSpaceOnUse" id="clipPath17">
        <path d="M-130 -15 L260 -15 L260 30 L-130 30 L-130 -15 Z" />
      </clipPath>
      <clipPath clipPathUnits="userSpaceOnUse" id="clipPath18">
        <path d="M-60 -30 L120 -30 L120 60 L-60 60 L-60 -30 Z" />
      </clipPath>
      <clipPath clipPathUnits="userSpaceOnUse" id="clipPath19">
        <path d="M-79 -15 L158 -15 L158 30 L-79 30 L-79 -15 Z" />
      </clipPath>
      <clipPath clipPathUnits="userSpaceOnUse" id="clipPath20">
        <path d="M0 0 L203 0 L203 81 L0 81 L0 0 Z" />
      </clipPath>
      <clipPath clipPathUnits="userSpaceOnUse" id="clipPath21">
        <path d="M0 0 L112 0 L112 101 L0 101 L0 0 Z" />
      </clipPath>
      <clipPath clipPathUnits="userSpaceOnUse" id="clipPath22">
        <path d="M0 0 L163 0 L163 81 L0 81 L0 0 Z" />
      </clipPath>
      <clipPath clipPathUnits="userSpaceOnUse" id="clipPath23">
        <path d="M0 0 L227 0 L227 81 L0 81 L0 0 Z" />
      </clipPath>
      <clipPath clipPathUnits="userSpaceOnUse" id="clipPath24">
        <path d="M0 0 L298 0 L298 81 L0 81 L0 0 Z" />
      </clipPath>
      <clipPath clipPathUnits="userSpaceOnUse" id="clipPath25">
        <path d="M0 0 L138 0 L138 81 L0 81 L0 0 Z" />
      </clipPath>
      <clipPath clipPathUnits="userSpaceOnUse" id="clipPath26">
        <path d="M-91 -15 L182 -15 L182 30 L-91 30 L-91 -15 Z" />
      </clipPath>
      <clipPath clipPathUnits="userSpaceOnUse" id="clipPath27">
        <path d="M-160 -15 L320 -15 L320 30 L-160 30 L-160 -15 Z" />
      </clipPath>
      <clipPath clipPathUnits="userSpaceOnUse" id="clipPath28">
        <path d="M-109 -15 L218 -15 L218 30 L-109 30 L-109 -15 Z" />
      </clipPath>
      <clipPath clipPathUnits="userSpaceOnUse" id="clipPath29">
        <path d="M-76 -15 L152 -15 L152 30 L-76 30 L-76 -15 Z" />
      </clipPath>
      <clipPath clipPathUnits="userSpaceOnUse" id="clipPath30">
        <path d="M-165 -30 L330 -30 L330 60 L-165 60 L-165 -30 Z" />
      </clipPath>
      <clipPath clipPathUnits="userSpaceOnUse" id="clipPath31">
        <path d="M-157 -15 L314 -15 L314 30 L-157 30 L-157 -15 Z" />
      </clipPath>
      <clipPath clipPathUnits="userSpaceOnUse" id="clipPath32">
        <path d="M-107 -15 L214 -15 L214 30 L-107 30 L-107 -15 Z" />
      </clipPath>
      <clipPath clipPathUnits="userSpaceOnUse" id="clipPath33">
        <path d="M-92 -15 L184 -15 L184 30 L-92 30 L-92 -15 Z" />
      </clipPath>
      <clipPath clipPathUnits="userSpaceOnUse" id="clipPath34">
        <path d="M-116 -15 L232 -15 L232 30 L-116 30 L-116 -15 Z" />
      </clipPath>
    </defs>
    <g style="fill:white; text-rendering:geometricPrecision; stroke:white;">
      <rect x="0" y="0" width="644" style="stroke:none;" height="428" />
      <rect x="0" y="38" transform="translate(0,-38)" width="643" style="fill:none; stroke:black;" height="427" />
      <text x="7" y="55" transform="translate(0,-38)" style="fill:black; stroke:none; font-weight:bold;" xml:space="preserve">sd</text>
      <text x="28" y="55" transform="translate(0,-38)" style="fill:black; stroke:none;" xml:space="preserve">Jelforrások elmentése</text>
      <line transform="translate(0,-38)" x1="0" x2="151" y1="62" style="fill:none; stroke:black;" y2="62" />
      <line transform="translate(0,-38)" x1="157" x2="157" y1="38" style="fill:none; stroke:black;" y2="52" />
      <line transform="translate(0,-38)" x1="157" x2="151" y1="52" style="fill:none; stroke:black;" y2="62" />
    </g>
    <g transform="translate(20,34)" style="font-size:11; fill:white; text-rendering:geometricPrecision; font-family:sans-serif; stroke:white;">
      <circle style="clip-path:url(#clipPath1); stroke:none;" r="5" cx="35" cy="5" />
      <rect x="31" y="50" width="8" style="clip-path:url(#clipPath1); stroke:none;" height="329" />
    </g>
    <g transform="translate(20,34)" style="font-size:11; stroke-linecap:butt; text-rendering:geometricPrecision; font-family:sans-serif; stroke-linejoin:round; stroke-miterlimit:0;">
      <circle style="fill:none; clip-path:url(#clipPath1);" r="5" cx="35" cy="5" />
      <rect x="31" y="50" width="8" style="clip-path:url(#clipPath1); fill:none;" height="329" />
      <line x1="35" x2="35" y1="10" style="clip-path:url(#clipPath1); fill:none;" y2="25" />
      <line x1="35" x2="26" y1="25" style="clip-path:url(#clipPath1); fill:none;" y2="36" />
      <line x1="35" x2="44" y1="25" style="clip-path:url(#clipPath1); fill:none;" y2="36" />
      <line x1="26" x2="44" y1="16" style="clip-path:url(#clipPath1); fill:none;" y2="16" />
    </g>
    <g transform="translate(180,34)" style="font-size:11; fill:white; text-rendering:geometricPrecision; font-family:sans-serif; stroke:white;">
      <rect x="0" y="0" width="59" style="clip-path:url(#clipPath2); stroke:none;" height="35" />
    </g>
    <g transform="translate(180,34)" style="font-size:11; stroke-linecap:butt; text-rendering:geometricPrecision; font-family:sans-serif; stroke-linejoin:round; stroke-miterlimit:0;">
      <rect x="0" y="0" width="59" style="clip-path:url(#clipPath2); fill:none;" height="35" />
      <line x1="29" x2="29" y1="35" style="clip-path:url(#clipPath2); fill:none; stroke-linejoin:bevel; stroke-dasharray:8,3;" y2="380" />
    </g>
    <g transform="translate(500,34)" style="font-size:11; fill:white; text-rendering:geometricPrecision; font-family:sans-serif; stroke:white;">
      <rect x="4" y="4" width="125" style="clip-path:url(#clipPath3); stroke:none;" height="35" />
    </g>
    <g transform="translate(500,34)" style="font-size:11; stroke-linecap:butt; text-rendering:geometricPrecision; font-family:sans-serif; stroke-linejoin:round; stroke-miterlimit:0;">
      <rect x="4" y="4" width="125" style="clip-path:url(#clipPath3); fill:none;" height="35" />
    </g>
    <g transform="translate(500,34)" style="font-size:11; fill:white; text-rendering:geometricPrecision; font-family:sans-serif; stroke:white;">
      <rect x="0" y="0" width="125" style="clip-path:url(#clipPath3); stroke:none;" height="35" />
    </g>
    <g transform="translate(500,34)" style="font-size:11; stroke-linecap:butt; text-rendering:geometricPrecision; font-family:sans-serif; stroke-linejoin:round; stroke-miterlimit:0;">
      <rect x="0" y="0" width="125" style="clip-path:url(#clipPath3); fill:none;" height="35" />
      <line x1="62" x2="62" y1="35" style="clip-path:url(#clipPath3); fill:none; stroke-linejoin:bevel; stroke-dasharray:8,3;" y2="380" />
    </g>
    <g transform="translate(360,144)" style="font-size:11; fill:white; text-rendering:geometricPrecision; font-family:sans-serif; stroke:white;">
      <rect x="0" y="0" width="149" style="clip-path:url(#clipPath4); stroke:none;" height="35" />
    </g>
    <g transform="translate(360,144)" style="font-size:11; stroke-linecap:butt; text-rendering:geometricPrecision; font-family:sans-serif; stroke-linejoin:round; stroke-miterlimit:0;">
      <rect x="0" y="0" width="149" style="clip-path:url(#clipPath4); fill:none;" height="35" />
      <line x1="74" x2="74" y1="35" style="clip-path:url(#clipPath4); fill:none; stroke-linejoin:bevel; stroke-dasharray:8,3;" y2="270" />
    </g>
    <g transform="translate(561,249)" style="font-size:11; fill:white; text-rendering:geometricPrecision; font-family:sans-serif; stroke:white;">
      <rect x="0" y="0" width="7" style="clip-path:url(#clipPath5); stroke:none;" height="40" />
    </g>
    <g transform="translate(561,249)" style="font-size:11; stroke-linecap:butt; text-rendering:geometricPrecision; font-family:sans-serif; stroke-linejoin:round; stroke-miterlimit:0;">
      <rect x="0" y="0" width="7" style="clip-path:url(#clipPath5); fill:none;" height="40" />
    </g>
    <g transform="translate(80,34)" style="font-size:11; fill:white; text-rendering:geometricPrecision; font-family:sans-serif; stroke:white;">
      <rect x="0" y="0" width="79" style="clip-path:url(#clipPath6); stroke:none;" height="35" />
    </g>
    <g transform="translate(80,34)" style="font-size:11; stroke-linecap:butt; text-rendering:geometricPrecision; font-family:sans-serif; stroke-linejoin:round; stroke-miterlimit:0;">
      <rect x="0" y="0" width="79" style="clip-path:url(#clipPath6); fill:none;" height="35" />
      <line x1="39" x2="39" y1="35" style="clip-path:url(#clipPath6); fill:none; stroke-linejoin:bevel; stroke-dasharray:8,3;" y2="380" />
    </g>
    <g transform="translate(206,116)" style="font-size:11; fill:white; text-rendering:geometricPrecision; font-family:sans-serif; stroke:white;">
      <rect x="0" y="0" width="8" style="clip-path:url(#clipPath7); stroke:none;" height="251" />
    </g>
    <g transform="translate(206,116)" style="font-size:11; stroke-linecap:butt; text-rendering:geometricPrecision; font-family:sans-serif; stroke-linejoin:round; stroke-miterlimit:0;">
      <rect x="0" y="0" width="8" style="clip-path:url(#clipPath7); fill:none;" height="251" />
    </g>
    <g transform="translate(431,189)" style="font-size:11; fill:white; text-rendering:geometricPrecision; font-family:sans-serif; stroke:white;">
      <rect x="0" y="0" width="7" style="clip-path:url(#clipPath8); stroke:none;" height="145" />
    </g>
    <g transform="translate(431,189)" style="font-size:11; stroke-linecap:butt; text-rendering:geometricPrecision; font-family:sans-serif; stroke-linejoin:round; stroke-miterlimit:0;">
      <rect x="0" y="0" width="7" style="clip-path:url(#clipPath8); fill:none;" height="145" />
    </g>
    <g transform="translate(116,91)" style="font-size:11; fill:white; text-rendering:geometricPrecision; font-family:sans-serif; stroke:white;">
      <rect x="0" y="0" width="8" style="clip-path:url(#clipPath9); stroke:none;" height="297" />
    </g>
    <g transform="translate(116,91)" style="font-size:11; stroke-linecap:butt; text-rendering:geometricPrecision; font-family:sans-serif; stroke-linejoin:round; stroke-miterlimit:0;">
      <rect x="0" y="0" width="8" style="clip-path:url(#clipPath9); fill:none;" height="297" />
    </g>
    <g transform="translate(180,184)" style="font-size:11; stroke-linecap:butt; text-rendering:geometricPrecision; font-family:sans-serif; stroke-linejoin:round; font-weight:bold; stroke-miterlimit:0;">
      <rect x="0" y="0" width="410" style="clip-path:url(#clipPath10); fill:none;" height="160" />
    </g>
    <g transform="translate(180,184)" style="font-size:11; fill:white; text-rendering:geometricPrecision; font-family:sans-serif; stroke:white; font-weight:bold;">
      <path d="M32 0 L32 9 L26 17 L0 17 L0 0 Z" style="clip-path:url(#clipPath10); stroke:none;" />
    </g>
    <g transform="translate(180,184)" style="font-size:11; stroke-linecap:butt; text-rendering:geometricPrecision; font-family:sans-serif; stroke-linejoin:round; font-weight:bold; stroke-miterlimit:0;">
      <path d="M32 0 L32 9 L26 17 L0 17 L0 0 Z" style="fill:none; clip-path:url(#clipPath10);" />
    </g>
    <g transform="translate(180,184)" style="text-rendering:geometricPrecision; font-size:11; font-weight:bold; font-family:sans-serif;">
      <text x="4" y="12" style="clip-path:url(#clipPath11); stroke:none;" xml:space="preserve">loop</text>
    </g>
    <g transform="translate(180,201)" style="font-size:11; fill:white; text-rendering:geometricPrecision; font-family:sans-serif; stroke:white;">
      <rect x="28" y="5" width="147" style="clip-path:url(#clipPath12); stroke:none;" height="15" />
    </g>
    <g style="text-rendering:geometricPrecision; font-size:11; font-family:sans-serif;" transform="translate(208,206)">
      <text x="11" y="12" style="clip-path:url(#clipPath13); stroke:none;" xml:space="preserve">[sources minden elemére]</text>
    </g>
    <g style="text-rendering:geometricPrecision; font-size:11; font-family:sans-serif;" transform="translate(80,34)">
      <text x="12" y="12" style="clip-path:url(#clipPath15); stroke:none;" xml:space="preserve">simulation :</text>
      <text x="14" y="27" style="clip-path:url(#clipPath15); stroke:none;" xml:space="preserve">Simulation</text>
    </g>
    <g style="text-rendering:geometricPrecision; font-size:11; font-family:sans-serif;" transform="translate(360,144)">
      <text x="7" y="12" style="clip-path:url(#clipPath16); stroke:none;" xml:space="preserve">sourceWriter : SourceWriter</text>
    </g>
    <g style="text-rendering:geometricPrecision; font-size:11; font-family:sans-serif;" transform="translate(500,34)">
      <text x="22" y="12" style="clip-path:url(#clipPath17); stroke:none;" xml:space="preserve">source : IsSource</text>
    </g>
    <g style="text-rendering:geometricPrecision; font-size:11; font-family:sans-serif;" transform="translate(180,34)">
      <text x="12" y="12" style="clip-path:url(#clipPath18); stroke:none;" xml:space="preserve">circuit :</text>
      <text x="13" y="27" style="clip-path:url(#clipPath18); stroke:none;" xml:space="preserve">Circuit</text>
    </g>
    <g style="text-rendering:geometricPrecision; font-size:11; font-family:sans-serif;" transform="translate(15,69)">
      <text x="10" y="12" style="clip-path:url(#clipPath19); stroke:none;" xml:space="preserve">Felhasználó</text>
    </g>
    <g transform="translate(400,216)" style="font-size:11; stroke-linecap:butt; text-rendering:geometricPrecision; font-family:sans-serif; stroke-linejoin:round;">
      <line x1="38" x2="161" y1="38" style="clip-path:url(#clipPath20); fill:none;" y2="38" />
      <polygon style="clip-path:url(#clipPath20); stroke:none;" points=" 161 38 149 32 149 44" />
      <polygon style="fill:none; clip-path:url(#clipPath20);" points=" 161 38 149 32 149 44" />
    </g>
    <g transform="translate(400,246)" style="font-size:11; stroke-linecap:butt; text-rendering:geometricPrecision; font-family:sans-serif; stroke-linejoin:round; stroke-dasharray:8,3; stroke-miterlimit:0;">
      <line x1="161" x2="38" y1="38" style="clip-path:url(#clipPath20); fill:none;" y2="38" />
      <line x1="38" x2="50" y1="38" style="clip-path:url(#clipPath20); fill:none; stroke-dasharray:none; stroke-miterlimit:10;" y2="44" />
      <line x1="38" x2="50" y1="38" style="clip-path:url(#clipPath20); fill:none; stroke-dasharray:none; stroke-miterlimit:10;" y2="32" />
    </g>
    <g transform="translate(400,266)" style="font-size:11; stroke-linecap:butt; text-rendering:geometricPrecision; font-family:sans-serif; stroke-linejoin:round;">
      <line x1="38" x2="70" y1="38" style="clip-path:url(#clipPath21); fill:none;" y2="38" />
      <line x1="70" x2="70" y1="38" style="clip-path:url(#clipPath21); fill:none;" y2="58" />
      <line x1="70" x2="38" y1="58" style="clip-path:url(#clipPath21); fill:none;" y2="58" />
      <polygon style="clip-path:url(#clipPath21); stroke:none;" points=" 38 58 50 64 50 52" />
      <polygon style="fill:none; clip-path:url(#clipPath21);" points=" 38 58 50 64 50 52" />
    </g>
    <g transform="translate(85,106)" style="font-size:11; stroke-linecap:butt; text-rendering:geometricPrecision; font-family:sans-serif; stroke-linejoin:round;">
      <line x1="38" x2="121" y1="38" style="clip-path:url(#clipPath22); fill:none;" y2="38" />
      <polygon style="clip-path:url(#clipPath22); stroke:none;" points=" 121 38 109 32 109 44" />
      <polygon style="fill:none; clip-path:url(#clipPath22);" points=" 121 38 109 32 109 44" />
    </g>
    <g transform="translate(175,126)" style="font-size:11; stroke-linecap:butt; stroke-dashoffset:1; text-rendering:geometricPrecision; font-family:sans-serif; stroke-linejoin:round; stroke-dasharray:5;">
      <line x1="38" x2="185" y1="38" style="clip-path:url(#clipPath23); fill:none;" y2="38" />
      <line x1="185" x2="173" y1="38" style="stroke-dashoffset:0; clip-path:url(#clipPath23); fill:none; stroke-dasharray:none;" y2="32" />
      <line x1="185" x2="173" y1="38" style="stroke-dashoffset:0; clip-path:url(#clipPath23); fill:none; stroke-dasharray:none;" y2="44" />
    </g>
    <g transform="translate(175,206)" style="font-size:11; stroke-linecap:butt; text-rendering:geometricPrecision; font-family:sans-serif; stroke-linejoin:round;">
      <line x1="38" x2="255" y1="38" style="clip-path:url(#clipPath24); fill:none;" y2="38" />
      <polygon style="clip-path:url(#clipPath24); stroke:none;" points=" 255 38 243 32 243 44" />
      <polygon style="fill:none; clip-path:url(#clipPath24);" points=" 255 38 243 32 243 44" />
    </g>
    <g transform="translate(85,326)" style="font-size:11; stroke-linecap:butt; text-rendering:geometricPrecision; font-family:sans-serif; stroke-linejoin:round; stroke-dasharray:8,3; stroke-miterlimit:0;">
      <line x1="121" x2="38" y1="38" style="clip-path:url(#clipPath22); fill:none;" y2="38" />
      <line x1="38" x2="50" y1="38" style="clip-path:url(#clipPath22); fill:none; stroke-dasharray:none; stroke-miterlimit:10;" y2="44" />
      <line x1="38" x2="50" y1="38" style="clip-path:url(#clipPath22); fill:none; stroke-dasharray:none; stroke-miterlimit:10;" y2="32" />
    </g>
    <g transform="translate(21,76)" style="font-size:11; stroke-linecap:butt; text-rendering:geometricPrecision; font-family:sans-serif; stroke-linejoin:round;">
      <line x1="38" x2="95" y1="38" style="clip-path:url(#clipPath25); fill:none;" y2="38" />
      <polygon style="clip-path:url(#clipPath25); stroke:none;" points=" 95 38 83 32 83 44" />
      <polygon style="fill:none; clip-path:url(#clipPath25);" points=" 95 38 83 32 83 44" />
    </g>
    <g transform="translate(21,346)" style="font-size:11; stroke-linecap:butt; text-rendering:geometricPrecision; font-family:sans-serif; stroke-linejoin:round; stroke-dasharray:8,3; stroke-miterlimit:0;">
      <line x1="95" x2="38" y1="38" style="clip-path:url(#clipPath25); fill:none;" y2="38" />
      <line x1="38" x2="50" y1="38" style="clip-path:url(#clipPath25); fill:none; stroke-dasharray:none; stroke-miterlimit:10;" y2="44" />
      <line x1="38" x2="50" y1="38" style="clip-path:url(#clipPath25); fill:none; stroke-dasharray:none; stroke-miterlimit:10;" y2="32" />
    </g>
    <g style="text-rendering:geometricPrecision; font-size:11; font-family:sans-serif;" transform="translate(40,363)">
      <text x="9" y="12" style="clip-path:url(#clipPath26); stroke:none;" xml:space="preserve">2: visszajelzés</text>
    </g>
    <g style="text-rendering:geometricPrecision; font-size:11; font-family:sans-serif;" transform="translate(10,93)">
      <text x="10" y="12" style="clip-path:url(#clipPath27); stroke:none;" xml:space="preserve">1: saveSourcesFromCircuit()</text>
    </g>
    <g style="text-rendering:geometricPrecision; font-size:11; font-family:sans-serif;" transform="translate(109,343)">
      <text x="9" y="12" style="clip-path:url(#clipPath28); stroke:none;" xml:space="preserve">1.1.3: visszajelzés</text>
    </g>
    <g style="text-rendering:geometricPrecision; font-size:11; font-family:sans-serif;" transform="translate(280,223)">
      <text x="10" y="12" style="clip-path:url(#clipPath29); stroke:none;" xml:space="preserve">1.1.2: add()</text>
    </g>
    <g style="text-rendering:geometricPrecision; font-size:11; font-family:sans-serif;" transform="translate(210,124)">
      <text x="54" y="12" style="clip-path:url(#clipPath30); stroke:none;" xml:space="preserve">&lt;&lt;create&gt;&gt;</text>
      <text x="11" y="27" style="clip-path:url(#clipPath30); stroke:none;" xml:space="preserve">1.1.1: SourceWriter(fileName)</text>
    </g>
    <g style="text-rendering:geometricPrecision; font-size:11; font-family:sans-serif;" transform="translate(89,123)">
      <text x="10" y="12" style="clip-path:url(#clipPath31); stroke:none;" xml:space="preserve">1.1: saveSources(fileName)</text>
    </g>
    <g style="text-rendering:geometricPrecision; font-size:11; font-family:sans-serif;" transform="translate(470,304)">
      <text x="10" y="12" style="clip-path:url(#clipPath32); stroke:none;" xml:space="preserve">1.1.2.3: fájlba írás</text>
    </g>
    <g style="text-rendering:geometricPrecision; font-size:11; font-family:sans-serif;" transform="translate(445,263)">
      <text x="10" y="12" style="clip-path:url(#clipPath33); stroke:none;" xml:space="preserve">1.1.2.2: values</text>
    </g>
    <g style="text-rendering:geometricPrecision; font-size:11; font-family:sans-serif;" transform="translate(424,233)">
      <text x="10" y="12" style="clip-path:url(#clipPath34); stroke:none;" xml:space="preserve">1.1.2.1: getValues()</text>
    </g>
  </g>
</svg>
