<?xml version="1.0" encoding="UTF-8"?>

<!DOCTYPE svg PUBLIC '-//W3C//DTD SVG 1.0//EN' 'http://www.w3.org/TR/2001/REC-SVG-20010904/DTD/svg10.dtd'>
<svg style="fill-opacity:1; color-rendering:auto; color-interpolation:auto; stroke:black; text-rendering:auto; stroke-linecap:square; stroke-miterlimit:10; stroke-opacity:1; shape-rendering:auto; fill:black; stroke-dasharray:none; font-weight:normal; stroke-width:1; font-family:&apos;Dialog&apos;; font-style:normal; stroke-linejoin:miter; font-size:12; stroke-dashoffset:0; image-rendering:auto;" xmlns="http://www.w3.org/2000/svg" width="324" xmlns:xlink="http://www.w3.org/1999/xlink" height="288">
  <!--Generated by the Batik Graphics2D SVG Generator-->
  <defs id="genericDefs" />
  <g>
    <defs id="defs1">
      <clipPath clipPathUnits="userSpaceOnUse" id="clipPath1">
        <path d="M-3 -3 L67 -3 L67 247 L-3 247 L-3 -3 Z" />
      </clipPath>
      <clipPath clipPathUnits="userSpaceOnUse" id="clipPath2">
        <path d="M-3 -3 L77 -3 L77 247 L-3 247 L-3 -3 Z" />
      </clipPath>
      <clipPath clipPathUnits="userSpaceOnUse" id="clipPath3">
        <path d="M-3 -3 L15 -3 L15 57 L-3 57 L-3 -3 Z" />
      </clipPath>
      <clipPath clipPathUnits="userSpaceOnUse" id="clipPath4">
        <path d="M-3 -3 L187 -3 L187 97 L-3 97 L-3 -3 Z" />
      </clipPath>
      <clipPath clipPathUnits="userSpaceOnUse" id="clipPath5">
        <path d="M0 0 L0 90 L180 90 L180 0 Z" />
      </clipPath>
      <clipPath clipPathUnits="userSpaceOnUse" id="clipPath6">
        <path d="M-70 -30 L140 -30 L140 60 L-70 60 L-70 -30 Z" />
      </clipPath>
      <clipPath clipPathUnits="userSpaceOnUse" id="clipPath7">
        <path d="M-78 -15 L156 -15 L156 30 L-78 30 L-78 -15 Z" />
      </clipPath>
      <clipPath clipPathUnits="userSpaceOnUse" id="clipPath8">
        <path d="M0 0 L321 0 L321 104 L0 104 L0 0 Z" />
      </clipPath>
      <clipPath clipPathUnits="userSpaceOnUse" id="clipPath9">
        <path d="M0 0 L104 0 L104 133 L0 133 L0 0 Z" />
      </clipPath>
      <clipPath clipPathUnits="userSpaceOnUse" id="clipPath10">
        <path d="M-120 -15 L240 -15 L240 30 L-120 30 L-120 -15 Z" />
      </clipPath>
    </defs>
    <g style="fill:white; text-rendering:geometricPrecision; stroke:white;">
      <rect x="0" y="0" width="324" style="stroke:none;" height="288" />
      <rect x="0" y="38" transform="translate(0,-38)" width="323" style="fill:none; stroke:black;" height="287" />
      <text x="7" y="55" transform="translate(0,-38)" style="fill:black; stroke:none; font-weight:bold;" xml:space="preserve">sd</text>
      <text x="28" y="55" transform="translate(0,-38)" style="fill:black; stroke:none;" xml:space="preserve">Jelforrások módosítása</text>
      <line transform="translate(0,-38)" x1="0" x2="158" y1="62" style="fill:none; stroke:black;" y2="62" />
      <line transform="translate(0,-38)" x1="164" x2="164" y1="38" style="fill:none; stroke:black;" y2="52" />
      <line transform="translate(0,-38)" x1="164" x2="158" y1="52" style="fill:none; stroke:black;" y2="62" />
    </g>
    <g transform="translate(20,34)" style="font-size:11; stroke-linecap:butt; text-rendering:geometricPrecision; font-family:sans-serif; stroke-linejoin:round; stroke-miterlimit:0;">
      <circle style="fill:none; clip-path:url(#clipPath1);" r="5" cx="30" cy="5" />
      <rect x="26" y="50" width="8" style="clip-path:url(#clipPath1); fill:none;" height="189" />
      <line x1="30" x2="30" y1="10" style="clip-path:url(#clipPath1); fill:none;" y2="25" />
      <line x1="30" x2="21" y1="25" style="clip-path:url(#clipPath1); fill:none;" y2="36" />
      <line x1="30" x2="39" y1="25" style="clip-path:url(#clipPath1); fill:none;" y2="36" />
      <line x1="21" x2="39" y1="16" style="clip-path:url(#clipPath1); fill:none;" y2="16" />
    </g>
    <g transform="translate(240,34)" style="font-size:11; stroke-linecap:butt; text-rendering:geometricPrecision; font-family:sans-serif; stroke-linejoin:round; stroke-miterlimit:0;">
      <rect x="0" y="0" width="69" style="clip-path:url(#clipPath2); fill:none;" height="35" />
      <line x1="34" x2="34" y1="35" style="clip-path:url(#clipPath2); fill:none; stroke-linejoin:bevel; stroke-dasharray:8,3;" y2="240" />
    </g>
    <g transform="translate(271,124)" style="font-size:11; fill:white; text-rendering:geometricPrecision; font-family:sans-serif; stroke:white;">
      <rect x="0" y="0" width="8" style="clip-path:url(#clipPath3); stroke:none;" height="50" />
    </g>
    <g transform="translate(271,124)" style="font-size:11; stroke-linecap:butt; text-rendering:geometricPrecision; font-family:sans-serif; stroke-linejoin:round; stroke-miterlimit:0;">
      <rect x="0" y="0" width="8" style="clip-path:url(#clipPath3); fill:none;" height="50" />
    </g>
    <g transform="translate(70,154)" style="font-size:11; fill:white; text-rendering:geometricPrecision; font-family:sans-serif; stroke:white;">
      <polygon style="clip-path:url(#clipPath4); stroke:none;" points=" 0 0 164 0 179 15 164 15 164 0 179 15 179 89 0 89" />
    </g>
    <g transform="translate(70,154)" style="font-size:11; stroke-linecap:butt; text-rendering:geometricPrecision; font-family:sans-serif; stroke-linejoin:round; stroke-miterlimit:0;">
      <polygon style="fill:none; clip-path:url(#clipPath4);" points=" 0 0 164 0 179 15 164 15 164 0 179 15 179 89 0 89" />
    </g>
    <g style="text-rendering:geometricPrecision; font-size:11; font-family:&apos;Tahoma&apos;;" transform="translate(70,154)">
      <path d="M3.875 14.9704 L3.875 6.3767 L7.1094 6.3767 Q8.0938 6.3767 8.6875 6.6423 Q9.2812 6.9079 9.6172 7.447 Q9.9531 7.9861 9.9531 8.5798 Q9.9531 9.1267 9.6562 9.6111 Q9.3594 10.0954 8.75 10.3923 Q9.5312 10.6267 9.9453 11.1814 Q10.3594 11.7361 10.3594 12.4861 Q10.3594 13.0798 10.1094 13.6032 Q9.8594 14.1267 9.4844 14.4079 Q9.1094 14.6892 8.5391 14.8298 Q7.9688 14.9704 7.1562 14.9704 L3.875 14.9704 ZM5.0156 9.9861 L6.875 9.9861 Q7.625 9.9861 7.9531 9.8923 Q8.3906 9.7673 8.6094 9.4626 Q8.8281 9.1579 8.8281 8.7048 Q8.8281 8.2829 8.625 7.9548 Q8.4219 7.6267 8.0391 7.5095 Q7.6562 7.3923 6.7344 7.3923 L5.0156 7.3923 L5.0156 9.9861 ZM5.0156 13.9548 L7.1562 13.9548 Q7.7031 13.9548 7.9219 13.9079 Q8.3281 13.8454 8.5859 13.6814 Q8.8438 13.5173 9.0156 13.2048 Q9.1875 12.8923 9.1875 12.4861 Q9.1875 12.0017 8.9453 11.6423 Q8.7031 11.2829 8.2656 11.1423 Q7.8281 11.0017 7 11.0017 L5.0156 11.0017 L5.0156 13.9548 ZM16.0469 12.9704 L17.1406 13.0954 Q16.8906 14.0486 16.1875 14.5798 Q15.4844 15.1111 14.4062 15.1111 Q13.0469 15.1111 12.2422 14.2673 Q11.4375 13.4236 11.4375 11.9079 Q11.4375 10.3454 12.25 9.4782 Q13.0625 8.6111 14.3438 8.6111 Q15.5938 8.6111 16.3828 9.4548 Q17.1719 10.2986 17.1719 11.8454 Q17.1719 11.9392 17.1719 12.1267 L12.5312 12.1267 Q12.5938 13.1579 13.1094 13.697 Q13.625 14.2361 14.4062 14.2361 Q14.9844 14.2361 15.3984 13.9314 Q15.8125 13.6267 16.0469 12.9704 ZM12.5938 11.2673 L16.0625 11.2673 Q16 10.4704 15.6719 10.0798 Q15.1562 9.4704 14.3594 9.4704 Q13.625 9.4704 13.1328 9.9548 Q12.6406 10.4392 12.5938 11.2673 ZM22.8594 14.2048 Q22.2656 14.7048 21.7266 14.9079 Q21.1875 15.1111 20.5625 15.1111 Q19.5312 15.1111 18.9844 14.6111 Q18.4375 14.1111 18.4375 13.3298 Q18.4375 12.8767 18.6406 12.4939 Q18.8438 12.1111 19.1875 11.8845 Q19.5312 11.6579 19.9531 11.5486 Q20.25 11.4548 20.8906 11.3767 Q22.1562 11.2361 22.7656 11.0173 Q22.7656 10.7986 22.7656 10.7517 Q22.7656 10.0954 22.4688 9.8298 Q22.0625 9.4861 21.2656 9.4861 Q20.5312 9.4861 20.1719 9.7439 Q19.8125 10.0017 19.6406 10.6579 L18.6094 10.5173 Q18.75 9.8611 19.0781 9.4548 Q19.4062 9.0486 20.0156 8.8298 Q20.625 8.6111 21.4219 8.6111 Q22.2188 8.6111 22.7188 8.7986 Q23.2188 8.9861 23.4531 9.2673 Q23.6875 9.5486 23.7812 9.9861 Q23.8281 10.2517 23.8281 10.9548 L23.8281 12.3611 Q23.8281 13.8298 23.8984 14.2204 Q23.9688 14.6111 24.1719 14.9704 L23.0625 14.9704 Q22.9062 14.6423 22.8594 14.2048 ZM22.7656 11.8454 Q22.1875 12.0798 21.0469 12.2517 Q20.3906 12.3454 20.125 12.4626 Q19.8594 12.5798 19.7109 12.7986 Q19.5625 13.0173 19.5625 13.2986 Q19.5625 13.7204 19.8828 14.0017 Q20.2031 14.2829 20.8125 14.2829 Q21.4219 14.2829 21.8984 14.0173 Q22.375 13.7517 22.5938 13.2829 Q22.7656 12.9236 22.7656 12.2361 L22.7656 11.8454 ZM20.125 6.9704 L20.9062 5.3298 L22.2969 5.3298 L21 6.9704 L20.125 6.9704 ZM25.7656 14.9704 L25.7656 6.3767 L26.8281 6.3767 L26.8281 14.9704 L25.7656 14.9704 ZM28.7656 14.9704 L28.7656 6.3767 L29.8281 6.3767 L29.8281 14.9704 L28.7656 14.9704 ZM32.1562 14.9704 L32.1562 8.7517 L33.2188 8.7517 L33.2188 14.9704 L32.1562 14.9704 ZM32.125 6.9704 L32.9062 5.3298 L34.2969 5.3298 L33 6.9704 L32.125 6.9704 ZM37.0938 14.0329 L37.25 14.9548 Q36.7969 15.0486 36.4531 15.0486 Q35.875 15.0486 35.5625 14.8689 Q35.25 14.6892 35.1172 14.3923 Q34.9844 14.0954 34.9844 13.1423 L34.9844 9.5642 L34.2188 9.5642 L34.2188 8.7517 L34.9844 8.7517 L34.9844 7.2048 L36.0312 6.5798 L36.0312 8.7517 L37.0938 8.7517 L37.0938 9.5642 L36.0312 9.5642 L36.0312 13.2048 Q36.0312 13.6579 36.0859 13.7829 Q36.1406 13.9079 36.2656 13.9861 Q36.3906 14.0642 36.625 14.0642 Q36.8125 14.0642 37.0938 14.0329 ZM37.7812 7.6111 L37.7812 6.3767 L38.8438 6.3767 L38.8438 7.6111 L37.7812 7.6111 ZM36.4531 17.3923 L36.6406 16.4861 Q36.9688 16.5642 37.1406 16.5642 Q37.4688 16.5642 37.625 16.3532 Q37.7812 16.1423 37.7812 15.2829 L37.7812 8.7517 L38.8438 8.7517 L38.8438 15.3142 Q38.8438 16.4548 38.5469 16.9079 Q38.1562 17.5017 37.2812 17.5017 Q36.8438 17.5017 36.4531 17.3923 ZM44.875 14.9704 L44.875 14.0486 Q44.1406 15.1111 42.8906 15.1111 Q42.3438 15.1111 41.8672 14.9001 Q41.3906 14.6892 41.1562 14.3689 Q40.9219 14.0486 40.8281 13.5798 Q40.7656 13.2829 40.7656 12.5954 L40.7656 8.7517 L41.8281 8.7517 L41.8281 12.2048 Q41.8281 13.0173 41.8906 13.3142 Q41.9844 13.7204 42.3047 13.9626 Q42.625 14.2048 43.1094 14.2048 Q43.5781 14.2048 43.9922 13.9626 Q44.4062 13.7204 44.5859 13.2986 Q44.7656 12.8767 44.7656 12.0798 L44.7656 8.7517 L45.8125 8.7517 L45.8125 14.9704 L44.875 14.9704 ZM47.7969 14.9704 L47.7969 6.3767 L48.8594 6.3767 L48.8594 11.2829 L51.3438 8.7517 L52.7188 8.7517 L50.3281 11.0486 L52.9531 14.9704 L51.6562 14.9704 L49.5938 11.7829 L48.8594 12.5017 L48.8594 14.9704 L47.7969 14.9704 ZM60.8594 14.2048 Q60.2656 14.7048 59.7266 14.9079 Q59.1875 15.1111 58.5625 15.1111 Q57.5312 15.1111 56.9844 14.6111 Q56.4375 14.1111 56.4375 13.3298 Q56.4375 12.8767 56.6406 12.4939 Q56.8438 12.1111 57.1875 11.8845 Q57.5312 11.6579 57.9531 11.5486 Q58.25 11.4548 58.8906 11.3767 Q60.1562 11.2361 60.7656 11.0173 Q60.7656 10.7986 60.7656 10.7517 Q60.7656 10.0954 60.4688 9.8298 Q60.0625 9.4861 59.2656 9.4861 Q58.5312 9.4861 58.1719 9.7439 Q57.8125 10.0017 57.6406 10.6579 L56.6094 10.5173 Q56.75 9.8611 57.0781 9.4548 Q57.4062 9.0486 58.0156 8.8298 Q58.625 8.6111 59.4219 8.6111 Q60.2188 8.6111 60.7188 8.7986 Q61.2188 8.9861 61.4531 9.2673 Q61.6875 9.5486 61.7812 9.9861 Q61.8281 10.2517 61.8281 10.9548 L61.8281 12.3611 Q61.8281 13.8298 61.8984 14.2204 Q61.9688 14.6111 62.1719 14.9704 L61.0625 14.9704 Q60.9062 14.6423 60.8594 14.2048 ZM60.7656 11.8454 Q60.1875 12.0798 59.0469 12.2517 Q58.3906 12.3454 58.125 12.4626 Q57.8594 12.5798 57.7109 12.7986 Q57.5625 13.0173 57.5625 13.2986 Q57.5625 13.7204 57.8828 14.0017 Q58.2031 14.2829 58.8125 14.2829 Q59.4219 14.2829 59.8984 14.0173 Q60.375 13.7517 60.5938 13.2829 Q60.7656 12.9236 60.7656 12.2361 L60.7656 11.8454 ZM63.2344 14.9704 L63.2344 14.1111 L67.2031 9.5642 Q66.5156 9.5954 66 9.5954 L63.4688 9.5954 L63.4688 8.7517 L68.5625 8.7517 L68.5625 9.4392 L65.1875 13.3923 L64.5312 14.1111 Q65.25 14.0642 65.8594 14.0642 L68.75 14.0642 L68.75 14.9704 L63.2344 14.9704 ZM76.0469 12.9704 L77.1406 13.0954 Q76.8906 14.0486 76.1875 14.5798 Q75.4844 15.1111 74.4062 15.1111 Q73.0469 15.1111 72.2422 14.2673 Q71.4375 13.4236 71.4375 11.9079 Q71.4375 10.3454 72.25 9.4782 Q73.0625 8.6111 74.3438 8.6111 Q75.5938 8.6111 76.3828 9.4548 Q77.1719 10.2986 77.1719 11.8454 Q77.1719 11.9392 77.1719 12.1267 L72.5312 12.1267 Q72.5938 13.1579 73.1094 13.697 Q73.625 14.2361 74.4062 14.2361 Q74.9844 14.2361 75.3984 13.9314 Q75.8125 13.6267 76.0469 12.9704 ZM72.5938 11.2673 L76.0625 11.2673 Q76 10.4704 75.6719 10.0798 Q75.1562 9.4704 74.3594 9.4704 Q73.625 9.4704 73.1328 9.9548 Q72.6406 10.4392 72.5938 11.2673 ZM73.125 6.9704 L73.9062 5.3298 L75.2969 5.3298 L74 6.9704 L73.125 6.9704 ZM78.7812 14.9704 L78.7812 8.7517 L79.7344 8.7517 L79.7344 9.6892 Q80.0938 9.0329 80.3984 8.822 Q80.7031 8.6111 81.0781 8.6111 Q81.6094 8.6111 82.1562 8.9392 L81.7969 9.9236 Q81.4062 9.6892 81.0312 9.6892 Q80.6719 9.6892 80.3984 9.9001 Q80.125 10.1111 80.0156 10.4861 Q79.8281 11.0486 79.8281 11.7048 L79.8281 14.9704 L78.7812 14.9704 ZM85.0938 14.0329 L85.25 14.9548 Q84.7969 15.0486 84.4531 15.0486 Q83.875 15.0486 83.5625 14.8689 Q83.25 14.6892 83.1172 14.3923 Q82.9844 14.0954 82.9844 13.1423 L82.9844 9.5642 L82.2188 9.5642 L82.2188 8.7517 L82.9844 8.7517 L82.9844 7.2048 L84.0312 6.5798 L84.0312 8.7517 L85.0938 8.7517 L85.0938 9.5642 L84.0312 9.5642 L84.0312 13.2048 Q84.0312 13.6579 84.0859 13.7829 Q84.1406 13.9079 84.2656 13.9861 Q84.3906 14.0642 84.625 14.0642 Q84.8125 14.0642 85.0938 14.0329 ZM90.0469 12.9704 L91.1406 13.0954 Q90.8906 14.0486 90.1875 14.5798 Q89.4844 15.1111 88.4062 15.1111 Q87.0469 15.1111 86.2422 14.2673 Q85.4375 13.4236 85.4375 11.9079 Q85.4375 10.3454 86.25 9.4782 Q87.0625 8.6111 88.3438 8.6111 Q89.5938 8.6111 90.3828 9.4548 Q91.1719 10.2986 91.1719 11.8454 Q91.1719 11.9392 91.1719 12.1267 L86.5312 12.1267 Q86.5938 13.1579 87.1094 13.697 Q87.625 14.2361 88.4062 14.2361 Q88.9844 14.2361 89.3984 13.9314 Q89.8125 13.6267 90.0469 12.9704 ZM86.5938 11.2673 L90.0625 11.2673 Q90 10.4704 89.6719 10.0798 Q89.1562 9.4704 88.3594 9.4704 Q87.625 9.4704 87.1328 9.9548 Q86.6406 10.4392 86.5938 11.2673 ZM87.125 6.9704 L87.9062 5.3298 L89.2969 5.3298 L88 6.9704 L87.125 6.9704 ZM92.7969 14.9704 L92.7969 6.3767 L93.8594 6.3767 L93.8594 11.2829 L96.3438 8.7517 L97.7188 8.7517 L95.3281 11.0486 L97.9531 14.9704 L96.6562 14.9704 L94.5938 11.7829 L93.8594 12.5017 L93.8594 14.9704 L92.7969 14.9704 ZM103.0469 12.9704 L104.1406 13.0954 Q103.8906 14.0486 103.1875 14.5798 Q102.4844 15.1111 101.4062 15.1111 Q100.0469 15.1111 99.2422 14.2673 Q98.4375 13.4236 98.4375 11.9079 Q98.4375 10.3454 99.25 9.4782 Q100.0625 8.6111 101.3438 8.6111 Q102.5938 8.6111 103.3828 9.4548 Q104.1719 10.2986 104.1719 11.8454 Q104.1719 11.9392 104.1719 12.1267 L99.5312 12.1267 Q99.5938 13.1579 100.1094 13.697 Q100.625 14.2361 101.4062 14.2361 Q101.9844 14.2361 102.3984 13.9314 Q102.8125 13.6267 103.0469 12.9704 ZM99.5938 11.2673 L103.0625 11.2673 Q103 10.4704 102.6719 10.0798 Q102.1562 9.4704 101.3594 9.4704 Q100.625 9.4704 100.1328 9.9548 Q99.6406 10.4392 99.5938 11.2673 ZM108.0938 14.0329 L108.25 14.9548 Q107.7969 15.0486 107.4531 15.0486 Q106.875 15.0486 106.5625 14.8689 Q106.25 14.6892 106.1172 14.3923 Q105.9844 14.0954 105.9844 13.1423 L105.9844 9.5642 L105.2188 9.5642 L105.2188 8.7517 L105.9844 8.7517 L105.9844 7.2048 L107.0312 6.5798 L107.0312 8.7517 L108.0938 8.7517 L108.0938 9.5642 L107.0312 9.5642 L107.0312 13.2048 Q107.0312 13.6579 107.0859 13.7829 Q107.1406 13.9079 107.2656 13.9861 Q107.3906 14.0642 107.625 14.0642 Q107.8125 14.0642 108.0938 14.0329 ZM109.0938 14.9704 L109.0938 13.7673 L110.2969 13.7673 L110.2969 14.9704 L109.0938 14.9704 Z" style="clip-path:url(#clipPath5); stroke:none;" />
      <path d="M3.875 28.9704 L3.875 20.3767 L5.0156 20.3767 L5.0156 24.6423 L9.2812 20.3767 L10.8281 20.3767 L7.2188 23.8611 L10.9844 28.9704 L9.4844 28.9704 L6.4219 24.6267 L5.0156 25.9861 L5.0156 28.9704 L3.875 28.9704 ZM15.8594 28.2048 Q15.2656 28.7048 14.7266 28.9079 Q14.1875 29.1111 13.5625 29.1111 Q12.5312 29.1111 11.9844 28.6111 Q11.4375 28.1111 11.4375 27.3298 Q11.4375 26.8767 11.6406 26.4939 Q11.8438 26.1111 12.1875 25.8845 Q12.5312 25.6579 12.9531 25.5486 Q13.25 25.4548 13.8906 25.3767 Q15.1562 25.2361 15.7656 25.0173 Q15.7656 24.7986 15.7656 24.7517 Q15.7656 24.0954 15.4688 23.8298 Q15.0625 23.4861 14.2656 23.4861 Q13.5312 23.4861 13.1719 23.7439 Q12.8125 24.0017 12.6406 24.6579 L11.6094 24.5173 Q11.75 23.8611 12.0781 23.4548 Q12.4062 23.0486 13.0156 22.8298 Q13.625 22.6111 14.4219 22.6111 Q15.2188 22.6111 15.7188 22.7986 Q16.2188 22.9861 16.4531 23.2673 Q16.6875 23.5486 16.7812 23.9861 Q16.8281 24.2517 16.8281 24.9548 L16.8281 26.3611 Q16.8281 27.8298 16.8984 28.2204 Q16.9688 28.6111 17.1719 28.9704 L16.0625 28.9704 Q15.9062 28.6423 15.8594 28.2048 ZM15.7656 25.8454 Q15.1875 26.0798 14.0469 26.2517 Q13.3906 26.3454 13.125 26.4626 Q12.8594 26.5798 12.7109 26.7986 Q12.5625 27.0173 12.5625 27.2986 Q12.5625 27.7204 12.8828 28.0017 Q13.2031 28.2829 13.8125 28.2829 Q14.4219 28.2829 14.8984 28.0173 Q15.375 27.7517 15.5938 27.2829 Q15.7656 26.9236 15.7656 26.2361 L15.7656 25.8454 ZM18.7969 31.3611 L18.7969 22.7517 L19.75 22.7517 L19.75 23.5486 Q20.0938 23.0798 20.5234 22.8454 Q20.9531 22.6111 21.5625 22.6111 Q22.3594 22.6111 22.9688 23.0173 Q23.5781 23.4236 23.8828 24.1736 Q24.1875 24.9236 24.1875 25.8142 Q24.1875 26.7673 23.8516 27.5329 Q23.5156 28.2986 22.8594 28.7048 Q22.2031 29.1111 21.4844 29.1111 Q20.9531 29.1111 20.5312 28.8845 Q20.1094 28.6579 19.8438 28.3298 L19.8438 31.3611 L18.7969 31.3611 ZM19.75 25.8923 Q19.75 27.0954 20.2344 27.6657 Q20.7188 28.2361 21.4062 28.2361 Q22.1094 28.2361 22.6094 27.6423 Q23.1094 27.0486 23.1094 25.7986 Q23.1094 24.6111 22.625 24.0251 Q22.1406 23.4392 21.4531 23.4392 Q20.7812 23.4392 20.2656 24.0642 Q19.75 24.6892 19.75 25.8923 ZM29.8594 26.6892 L30.8906 26.8298 Q30.7188 27.8923 30.0156 28.5017 Q29.3125 29.1111 28.2969 29.1111 Q27.0156 29.1111 26.2422 28.2751 Q25.4688 27.4392 25.4688 25.8767 Q25.4688 24.8767 25.8047 24.1189 Q26.1406 23.3611 26.8203 22.9861 Q27.5 22.6111 28.3125 22.6111 Q29.3125 22.6111 29.9609 23.1189 Q30.6094 23.6267 30.7969 24.5798 L29.7656 24.7361 Q29.625 24.1111 29.25 23.7907 Q28.875 23.4704 28.3438 23.4704 Q27.5469 23.4704 27.0469 24.0407 Q26.5469 24.6111 26.5469 25.8454 Q26.5469 27.1111 27.0312 27.6736 Q27.5156 28.2361 28.2812 28.2361 Q28.9062 28.2361 29.3203 27.8611 Q29.7344 27.4861 29.8594 26.6892 ZM31.375 27.1111 L32.4062 26.9548 Q32.5 27.5798 32.8984 27.9079 Q33.2969 28.2361 34.0312 28.2361 Q34.75 28.2361 35.1016 27.947 Q35.4531 27.6579 35.4531 27.2517 Q35.4531 26.8923 35.1406 26.6892 Q34.9219 26.5486 34.0625 26.3298 Q32.9062 26.0329 32.4609 25.822 Q32.0156 25.6111 31.7812 25.2361 Q31.5469 24.8611 31.5469 24.3923 Q31.5469 23.9861 31.7344 23.6267 Q31.9219 23.2673 32.25 23.0329 Q32.5 22.8611 32.9219 22.7361 Q33.3438 22.6111 33.8438 22.6111 Q34.5625 22.6111 35.1172 22.822 Q35.6719 23.0329 35.9375 23.3923 Q36.2031 23.7517 36.2969 24.3454 L35.2656 24.4861 Q35.2031 24.0173 34.8672 23.7439 Q34.5312 23.4704 33.9062 23.4704 Q33.1875 23.4704 32.875 23.7126 Q32.5625 23.9548 32.5625 24.2829 Q32.5625 24.4861 32.6875 24.6423 Q32.8281 24.8142 33.0938 24.9236 Q33.25 24.9861 34.0312 25.1892 Q35.1562 25.5017 35.5938 25.6892 Q36.0312 25.8767 36.2812 26.2361 Q36.5312 26.5954 36.5312 27.1423 Q36.5312 27.6736 36.2266 28.1345 Q35.9219 28.5954 35.3438 28.8532 Q34.7656 29.1111 34.0312 29.1111 Q32.8125 29.1111 32.1797 28.6032 Q31.5469 28.0954 31.375 27.1111 ZM38.4062 25.8611 Q38.4062 24.1267 39.3594 23.2986 Q40.1562 22.6111 41.3125 22.6111 Q42.5938 22.6111 43.4141 23.447 Q44.2344 24.2829 44.2344 25.7673 Q44.2344 26.9704 43.875 27.6579 Q43.5156 28.3454 42.8203 28.7282 Q42.125 29.1111 41.3125 29.1111 Q40.0156 29.1111 39.2109 28.2751 Q38.4062 27.4392 38.4062 25.8611 ZM39.4844 25.8611 Q39.4844 27.0486 40.0078 27.6423 Q40.5312 28.2361 41.3125 28.2361 Q42.1094 28.2361 42.625 27.6423 Q43.1406 27.0486 43.1406 25.8298 Q43.1406 24.6736 42.6172 24.0798 Q42.0938 23.4861 41.3125 23.4861 Q40.5312 23.4861 40.0078 24.072 Q39.4844 24.6579 39.4844 25.8611 ZM45.7656 28.9704 L45.7656 20.3767 L46.8281 20.3767 L46.8281 28.9704 L45.7656 28.9704 ZM48.4062 25.8611 Q48.4062 24.1267 49.3594 23.2986 Q50.1562 22.6111 51.3125 22.6111 Q52.5938 22.6111 53.4141 23.447 Q54.2344 24.2829 54.2344 25.7673 Q54.2344 26.9704 53.875 27.6579 Q53.5156 28.3454 52.8203 28.7282 Q52.125 29.1111 51.3125 29.1111 Q50.0156 29.1111 49.2109 28.2751 Q48.4062 27.4392 48.4062 25.8611 ZM49.4844 25.8611 Q49.4844 27.0486 50.0078 27.6423 Q50.5312 28.2361 51.3125 28.2361 Q52.1094 28.2361 52.625 27.6423 Q53.1406 27.0486 53.1406 25.8298 Q53.1406 24.6736 52.6172 24.0798 Q52.0938 23.4861 51.3125 23.4861 Q50.5312 23.4861 50.0078 24.072 Q49.4844 24.6579 49.4844 25.8611 ZM50.125 20.9704 L50.9062 19.3298 L52.2969 19.3298 L51 20.9704 L50.125 20.9704 ZM55.7969 28.9704 L55.7969 22.7517 L56.7344 22.7517 L56.7344 23.6267 Q57.4219 22.6111 58.7188 22.6111 Q59.2812 22.6111 59.7578 22.8142 Q60.2344 23.0173 60.4688 23.3454 Q60.7031 23.6736 60.7969 24.1111 Q60.8438 24.4079 60.8438 25.1423 L60.8438 28.9704 L59.7969 28.9704 L59.7969 25.1892 Q59.7969 24.5329 59.6719 24.2204 Q59.5469 23.9079 59.2344 23.7126 Q58.9219 23.5173 58.5 23.5173 Q57.8281 23.5173 57.3359 23.947 Q56.8438 24.3767 56.8438 25.5642 L56.8438 28.9704 L55.7969 28.9704 ZM66.8594 28.2048 Q66.2656 28.7048 65.7266 28.9079 Q65.1875 29.1111 64.5625 29.1111 Q63.5312 29.1111 62.9844 28.6111 Q62.4375 28.1111 62.4375 27.3298 Q62.4375 26.8767 62.6406 26.4939 Q62.8438 26.1111 63.1875 25.8845 Q63.5312 25.6579 63.9531 25.5486 Q64.25 25.4548 64.8906 25.3767 Q66.1562 25.2361 66.7656 25.0173 Q66.7656 24.7986 66.7656 24.7517 Q66.7656 24.0954 66.4688 23.8298 Q66.0625 23.4861 65.2656 23.4861 Q64.5312 23.4861 64.1719 23.7439 Q63.8125 24.0017 63.6406 24.6579 L62.6094 24.5173 Q62.75 23.8611 63.0781 23.4548 Q63.4062 23.0486 64.0156 22.8298 Q64.625 22.6111 65.4219 22.6111 Q66.2188 22.6111 66.7188 22.7986 Q67.2188 22.9861 67.4531 23.2673 Q67.6875 23.5486 67.7812 23.9861 Q67.8281 24.2517 67.8281 24.9548 L67.8281 26.3611 Q67.8281 27.8298 67.8984 28.2204 Q67.9688 28.6111 68.1719 28.9704 L67.0625 28.9704 Q66.9062 28.6423 66.8594 28.2048 ZM66.7656 25.8454 Q66.1875 26.0798 65.0469 26.2517 Q64.3906 26.3454 64.125 26.4626 Q63.8594 26.5798 63.7109 26.7986 Q63.5625 27.0173 63.5625 27.2986 Q63.5625 27.7204 63.8828 28.0017 Q64.2031 28.2829 64.8125 28.2829 Q65.4219 28.2829 65.8984 28.0173 Q66.375 27.7517 66.5938 27.2829 Q66.7656 26.9236 66.7656 26.2361 L66.7656 25.8454 ZM64.125 20.9704 L64.9062 19.3298 L66.2969 19.3298 L65 20.9704 L64.125 20.9704 ZM69.7656 28.9704 L69.7656 20.3767 L70.8281 20.3767 L70.8281 28.9704 L69.7656 28.9704 ZM73.0625 28.9704 L73.0625 27.7673 L74.2656 27.7673 L74.2656 28.9704 Q74.2656 29.6267 74.0312 30.0407 Q73.7969 30.4548 73.2969 30.6736 L73 30.2204 Q73.3281 30.0798 73.4844 29.7907 Q73.6406 29.5017 73.6719 28.9704 L73.0625 28.9704 ZM82.8594 26.6892 L83.8906 26.8298 Q83.7188 27.8923 83.0156 28.5017 Q82.3125 29.1111 81.2969 29.1111 Q80.0156 29.1111 79.2422 28.2751 Q78.4688 27.4392 78.4688 25.8767 Q78.4688 24.8767 78.8047 24.1189 Q79.1406 23.3611 79.8203 22.9861 Q80.5 22.6111 81.3125 22.6111 Q82.3125 22.6111 82.9609 23.1189 Q83.6094 23.6267 83.7969 24.5798 L82.7656 24.7361 Q82.625 24.1111 82.25 23.7907 Q81.875 23.4704 81.3438 23.4704 Q80.5469 23.4704 80.0469 24.0407 Q79.5469 24.6111 79.5469 25.8454 Q79.5469 27.1111 80.0312 27.6736 Q80.5156 28.2361 81.2812 28.2361 Q81.9062 28.2361 82.3203 27.8611 Q82.7344 27.4861 82.8594 26.6892 ZM84.375 27.1111 L85.4062 26.9548 Q85.5 27.5798 85.8984 27.9079 Q86.2969 28.2361 87.0312 28.2361 Q87.75 28.2361 88.1016 27.947 Q88.4531 27.6579 88.4531 27.2517 Q88.4531 26.8923 88.1406 26.6892 Q87.9219 26.5486 87.0625 26.3298 Q85.9062 26.0329 85.4609 25.822 Q85.0156 25.6111 84.7812 25.2361 Q84.5469 24.8611 84.5469 24.3923 Q84.5469 23.9861 84.7344 23.6267 Q84.9219 23.2673 85.25 23.0329 Q85.5 22.8611 85.9219 22.7361 Q86.3438 22.6111 86.8438 22.6111 Q87.5625 22.6111 88.1172 22.822 Q88.6719 23.0329 88.9375 23.3923 Q89.2031 23.7517 89.2969 24.3454 L88.2656 24.4861 Q88.2031 24.0173 87.8672 23.7439 Q87.5312 23.4704 86.9062 23.4704 Q86.1875 23.4704 85.875 23.7126 Q85.5625 23.9548 85.5625 24.2829 Q85.5625 24.4861 85.6875 24.6423 Q85.8281 24.8142 86.0938 24.9236 Q86.25 24.9861 87.0312 25.1892 Q88.1562 25.5017 88.5938 25.6892 Q89.0312 25.8767 89.2812 26.2361 Q89.5312 26.5954 89.5312 27.1423 Q89.5312 27.6736 89.2266 28.1345 Q88.9219 28.5954 88.3438 28.8532 Q87.7656 29.1111 87.0312 29.1111 Q85.8125 29.1111 85.1797 28.6032 Q84.5469 28.0954 84.375 27.1111 ZM95.8594 28.2048 Q95.2656 28.7048 94.7266 28.9079 Q94.1875 29.1111 93.5625 29.1111 Q92.5312 29.1111 91.9844 28.6111 Q91.4375 28.1111 91.4375 27.3298 Q91.4375 26.8767 91.6406 26.4939 Q91.8438 26.1111 92.1875 25.8845 Q92.5312 25.6579 92.9531 25.5486 Q93.25 25.4548 93.8906 25.3767 Q95.1562 25.2361 95.7656 25.0173 Q95.7656 24.7986 95.7656 24.7517 Q95.7656 24.0954 95.4688 23.8298 Q95.0625 23.4861 94.2656 23.4861 Q93.5312 23.4861 93.1719 23.7439 Q92.8125 24.0017 92.6406 24.6579 L91.6094 24.5173 Q91.75 23.8611 92.0781 23.4548 Q92.4062 23.0486 93.0156 22.8298 Q93.625 22.6111 94.4219 22.6111 Q95.2188 22.6111 95.7188 22.7986 Q96.2188 22.9861 96.4531 23.2673 Q96.6875 23.5486 96.7812 23.9861 Q96.8281 24.2517 96.8281 24.9548 L96.8281 26.3611 Q96.8281 27.8298 96.8984 28.2204 Q96.9688 28.6111 97.1719 28.9704 L96.0625 28.9704 Q95.9062 28.6423 95.8594 28.2048 ZM95.7656 25.8454 Q95.1875 26.0798 94.0469 26.2517 Q93.3906 26.3454 93.125 26.4626 Q92.8594 26.5798 92.7109 26.7986 Q92.5625 27.0173 92.5625 27.2986 Q92.5625 27.7204 92.8828 28.0017 Q93.2031 28.2829 93.8125 28.2829 Q94.4219 28.2829 94.8984 28.0173 Q95.375 27.7517 95.5938 27.2829 Q95.7656 26.9236 95.7656 26.2361 L95.7656 25.8454 ZM98.7969 28.9704 L98.7969 20.3767 L99.8594 20.3767 L99.8594 25.2829 L102.3438 22.7517 L103.7188 22.7517 L101.3281 25.0486 L103.9531 28.9704 L102.6562 28.9704 L100.5938 25.7829 L99.8594 26.5017 L99.8594 28.9704 L98.7969 28.9704 ZM111.4688 28.9704 L110.4219 28.9704 L110.4219 22.2517 Q110.0312 22.6111 109.4141 22.9782 Q108.7969 23.3454 108.3125 23.5173 L108.3125 22.5017 Q109.1875 22.0798 109.8516 21.4939 Q110.5156 20.9079 110.7969 20.3454 L111.4688 20.3454 L111.4688 28.9704 ZM122.0469 26.9704 L123.1406 27.0954 Q122.8906 28.0486 122.1875 28.5798 Q121.4844 29.1111 120.4062 29.1111 Q119.0469 29.1111 118.2422 28.2673 Q117.4375 27.4236 117.4375 25.9079 Q117.4375 24.3454 118.25 23.4782 Q119.0625 22.6111 120.3438 22.6111 Q121.5938 22.6111 122.3828 23.4548 Q123.1719 24.2986 123.1719 25.8454 Q123.1719 25.9392 123.1719 26.1267 L118.5312 26.1267 Q118.5938 27.1579 119.1094 27.697 Q119.625 28.2361 120.4062 28.2361 Q120.9844 28.2361 121.3984 27.9314 Q121.8125 27.6267 122.0469 26.9704 ZM118.5938 25.2673 L122.0625 25.2673 Q122 24.4704 121.6719 24.0798 Q121.1562 23.4704 120.3594 23.4704 Q119.625 23.4704 119.1328 23.9548 Q118.6406 24.4392 118.5938 25.2673 ZM124.7656 28.9704 L124.7656 20.3767 L125.8281 20.3767 L125.8281 28.9704 L124.7656 28.9704 ZM132.0469 26.9704 L133.1406 27.0954 Q132.8906 28.0486 132.1875 28.5798 Q131.4844 29.1111 130.4062 29.1111 Q129.0469 29.1111 128.2422 28.2673 Q127.4375 27.4236 127.4375 25.9079 Q127.4375 24.3454 128.25 23.4782 Q129.0625 22.6111 130.3438 22.6111 Q131.5938 22.6111 132.3828 23.4548 Q133.1719 24.2986 133.1719 25.8454 Q133.1719 25.9392 133.1719 26.1267 L128.5312 26.1267 Q128.5938 27.1579 129.1094 27.697 Q129.625 28.2361 130.4062 28.2361 Q130.9844 28.2361 131.3984 27.9314 Q131.8125 27.6267 132.0469 26.9704 ZM128.5938 25.2673 L132.0625 25.2673 Q132 24.4704 131.6719 24.0798 Q131.1562 23.4704 130.3594 23.4704 Q129.625 23.4704 129.1328 23.9548 Q128.6406 24.4392 128.5938 25.2673 ZM134.7969 28.9704 L134.7969 22.7517 L135.7344 22.7517 L135.7344 23.6267 Q136.0312 23.1579 136.5156 22.8845 Q137 22.6111 137.625 22.6111 Q138.3125 22.6111 138.7578 22.8923 Q139.2031 23.1736 139.375 23.6892 Q140.125 22.6111 141.2969 22.6111 Q142.2344 22.6111 142.7266 23.1189 Q143.2188 23.6267 143.2188 24.7048 L143.2188 28.9704 L142.1719 28.9704 L142.1719 25.0486 Q142.1719 24.4236 142.0703 24.1423 Q141.9688 23.8611 141.7031 23.6892 Q141.4375 23.5173 141.0625 23.5173 Q140.4062 23.5173 139.9766 23.9548 Q139.5469 24.3923 139.5469 25.3611 L139.5469 28.9704 L138.4844 28.9704 L138.4844 24.9236 Q138.4844 24.2204 138.2266 23.8689 Q137.9688 23.5173 137.3906 23.5173 Q136.9375 23.5173 136.5625 23.7517 Q136.1875 23.9861 136.0156 24.4392 Q135.8438 24.8923 135.8438 25.7361 L135.8438 28.9704 L134.7969 28.9704 ZM149.875 28.9704 L149.875 28.0486 Q149.1406 29.1111 147.8906 29.1111 Q147.3438 29.1111 146.8672 28.9001 Q146.3906 28.6892 146.1562 28.3689 Q145.9219 28.0486 145.8281 27.5798 Q145.7656 27.2829 145.7656 26.5954 L145.7656 22.7517 L146.8281 22.7517 L146.8281 26.2048 Q146.8281 27.0173 146.8906 27.3142 Q146.9844 27.7204 147.3047 27.9626 Q147.625 28.2048 148.1094 28.2048 Q148.5781 28.2048 148.9922 27.9626 Q149.4062 27.7204 149.5859 27.2986 Q149.7656 26.8767 149.7656 26.0798 L149.7656 22.7517 L150.8125 22.7517 L150.8125 28.9704 L149.875 28.9704 ZM146.9688 20.9704 L147.6719 19.3298 L149.0469 19.3298 L147.8125 20.9704 L146.9688 20.9704 ZM149 20.9704 L149.75 19.3298 L151.0938 19.3298 L149.8906 20.9704 L149 20.9704 Z" style="clip-path:url(#clipPath5); stroke:none;" />
      <path d="M6.0938 42.0329 L6.25 42.9548 Q5.7969 43.0486 5.4531 43.0486 Q4.875 43.0486 4.5625 42.8689 Q4.25 42.6892 4.1172 42.3923 Q3.9844 42.0954 3.9844 41.1423 L3.9844 37.5642 L3.2188 37.5642 L3.2188 36.7517 L3.9844 36.7517 L3.9844 35.2048 L5.0312 34.5798 L5.0312 36.7517 L6.0938 36.7517 L6.0938 37.5642 L5.0312 37.5642 L5.0312 41.2048 Q5.0312 41.6579 5.0859 41.7829 Q5.1406 41.9079 5.2656 41.9861 Q5.3906 42.0642 5.625 42.0642 Q5.8125 42.0642 6.0938 42.0329 ZM6.4062 39.8611 Q6.4062 38.1267 7.3594 37.2986 Q8.1562 36.6111 9.3125 36.6111 Q10.5938 36.6111 11.4141 37.447 Q12.2344 38.2829 12.2344 39.7673 Q12.2344 40.9704 11.875 41.6579 Q11.5156 42.3454 10.8203 42.7282 Q10.125 43.1111 9.3125 43.1111 Q8.0156 43.1111 7.2109 42.2751 Q6.4062 41.4392 6.4062 39.8611 ZM7.4844 39.8611 Q7.4844 41.0486 8.0078 41.6423 Q8.5312 42.2361 9.3125 42.2361 Q10.1094 42.2361 10.625 41.6423 Q11.1406 41.0486 11.1406 39.8298 Q11.1406 38.6736 10.6172 38.0798 Q10.0938 37.4861 9.3125 37.4861 Q8.5312 37.4861 8.0078 38.072 Q7.4844 38.6579 7.4844 39.8611 ZM7.8125 34.9704 L7.8125 33.7673 L8.9062 33.7673 L8.9062 34.9704 L7.8125 34.9704 ZM10 34.9704 L10 33.7673 L11.0938 33.7673 L11.0938 34.9704 L10 34.9704 ZM13.7969 42.9704 L13.7969 36.7517 L14.7344 36.7517 L14.7344 37.6267 Q15.0312 37.1579 15.5156 36.8845 Q16 36.6111 16.625 36.6111 Q17.3125 36.6111 17.7578 36.8923 Q18.2031 37.1736 18.375 37.6892 Q19.125 36.6111 20.2969 36.6111 Q21.2344 36.6111 21.7266 37.1189 Q22.2188 37.6267 22.2188 38.7048 L22.2188 42.9704 L21.1719 42.9704 L21.1719 39.0486 Q21.1719 38.4236 21.0703 38.1423 Q20.9688 37.8611 20.7031 37.6892 Q20.4375 37.5173 20.0625 37.5173 Q19.4062 37.5173 18.9766 37.9548 Q18.5469 38.3923 18.5469 39.3611 L18.5469 42.9704 L17.4844 42.9704 L17.4844 38.9236 Q17.4844 38.2204 17.2266 37.8689 Q16.9688 37.5173 16.3906 37.5173 Q15.9375 37.5173 15.5625 37.7517 Q15.1875 37.9861 15.0156 38.4392 Q14.8438 38.8923 14.8438 39.7361 L14.8438 42.9704 L13.7969 42.9704 ZM25.7656 42.9704 L24.7812 42.9704 L24.7812 34.3767 L25.8438 34.3767 L25.8438 37.4392 Q26.5156 36.6111 27.5469 36.6111 Q28.125 36.6111 28.6328 36.8376 Q29.1406 37.0642 29.4766 37.4861 Q29.8125 37.9079 30 38.5017 Q30.1875 39.0954 30.1875 39.7673 Q30.1875 41.3611 29.3906 42.2361 Q28.5938 43.1111 27.5 43.1111 Q26.3906 43.1111 25.7656 42.1892 L25.7656 42.9704 ZM25.75 39.8142 Q25.75 40.9236 26.0625 41.4236 Q26.5625 42.2361 27.4062 42.2361 Q28.0938 42.2361 28.6016 41.6423 Q29.1094 41.0486 29.1094 39.8454 Q29.1094 38.6267 28.625 38.0486 Q28.1406 37.4704 27.4531 37.4704 Q26.7656 37.4704 26.2578 38.072 Q25.75 38.6736 25.75 39.8142 ZM34.7969 42.9704 L34.7969 36.7517 L35.7344 36.7517 L35.7344 37.6267 Q36.0312 37.1579 36.5156 36.8845 Q37 36.6111 37.625 36.6111 Q38.3125 36.6111 38.7578 36.8923 Q39.2031 37.1736 39.375 37.6892 Q40.125 36.6111 41.2969 36.6111 Q42.2344 36.6111 42.7266 37.1189 Q43.2188 37.6267 43.2188 38.7048 L43.2188 42.9704 L42.1719 42.9704 L42.1719 39.0486 Q42.1719 38.4236 42.0703 38.1423 Q41.9688 37.8611 41.7031 37.6892 Q41.4375 37.5173 41.0625 37.5173 Q40.4062 37.5173 39.9766 37.9548 Q39.5469 38.3923 39.5469 39.3611 L39.5469 42.9704 L38.4844 42.9704 L38.4844 38.9236 Q38.4844 38.2204 38.2266 37.8689 Q37.9688 37.5173 37.3906 37.5173 Q36.9375 37.5173 36.5625 37.7517 Q36.1875 37.9861 36.0156 38.4392 Q35.8438 38.8923 35.8438 39.7361 L35.8438 42.9704 L34.7969 42.9704 ZM50.0469 40.9704 L51.1406 41.0954 Q50.8906 42.0486 50.1875 42.5798 Q49.4844 43.1111 48.4062 43.1111 Q47.0469 43.1111 46.2422 42.2673 Q45.4375 41.4236 45.4375 39.9079 Q45.4375 38.3454 46.25 37.4782 Q47.0625 36.6111 48.3438 36.6111 Q49.5938 36.6111 50.3828 37.4548 Q51.1719 38.2986 51.1719 39.8454 Q51.1719 39.9392 51.1719 40.1267 L46.5312 40.1267 Q46.5938 41.1579 47.1094 41.697 Q47.625 42.2361 48.4062 42.2361 Q48.9844 42.2361 49.3984 41.9314 Q49.8125 41.6267 50.0469 40.9704 ZM46.5938 39.2673 L50.0625 39.2673 Q50 38.4704 49.6719 38.0798 Q49.1562 37.4704 48.3594 37.4704 Q47.625 37.4704 47.1328 37.9548 Q46.6406 38.4392 46.5938 39.2673 ZM52.5938 43.4861 L53.625 43.6423 Q53.6875 44.1111 53.9844 44.3298 Q54.375 44.6267 55.0469 44.6267 Q55.7812 44.6267 56.1797 44.3298 Q56.5781 44.0329 56.7188 43.5173 Q56.8125 43.1892 56.7969 42.1579 Q56.1094 42.9704 55.0781 42.9704 Q53.7969 42.9704 53.0938 42.0407 Q52.3906 41.1111 52.3906 39.8298 Q52.3906 38.9392 52.7109 38.1814 Q53.0312 37.4236 53.6406 37.0173 Q54.25 36.6111 55.0781 36.6111 Q56.1875 36.6111 56.9062 37.5017 L56.9062 36.7517 L57.875 36.7517 L57.875 42.1267 Q57.875 43.5798 57.5781 44.1892 Q57.2812 44.7986 56.6406 45.1501 Q56 45.5017 55.0625 45.5017 Q53.9531 45.5017 53.2656 45.0017 Q52.5781 44.5017 52.5938 43.4861 ZM53.4688 39.7517 Q53.4688 40.9704 53.9531 41.5329 Q54.4375 42.0954 55.1719 42.0954 Q55.9062 42.0954 56.3984 41.5329 Q56.8906 40.9704 56.8906 39.7829 Q56.8906 38.6423 56.3828 38.0642 Q55.875 37.4861 55.1562 37.4861 Q54.4531 37.4861 53.9609 38.0564 Q53.4688 38.6267 53.4688 39.7517 ZM64.0469 40.9704 L65.1406 41.0954 Q64.8906 42.0486 64.1875 42.5798 Q63.4844 43.1111 62.4062 43.1111 Q61.0469 43.1111 60.2422 42.2673 Q59.4375 41.4236 59.4375 39.9079 Q59.4375 38.3454 60.25 37.4782 Q61.0625 36.6111 62.3438 36.6111 Q63.5938 36.6111 64.3828 37.4548 Q65.1719 38.2986 65.1719 39.8454 Q65.1719 39.9392 65.1719 40.1267 L60.5312 40.1267 Q60.5938 41.1579 61.1094 41.697 Q61.625 42.2361 62.4062 42.2361 Q62.9844 42.2361 63.3984 41.9314 Q63.8125 41.6267 64.0469 40.9704 ZM60.5938 39.2673 L64.0625 39.2673 Q64 38.4704 63.6719 38.0798 Q63.1562 37.4704 62.3594 37.4704 Q61.625 37.4704 61.1328 37.9548 Q60.6406 38.4392 60.5938 39.2673 ZM66.7969 42.9704 L66.7969 36.7517 L67.7344 36.7517 L67.7344 37.6267 Q68.4219 36.6111 69.7188 36.6111 Q70.2812 36.6111 70.7578 36.8142 Q71.2344 37.0173 71.4688 37.3454 Q71.7031 37.6736 71.7969 38.1111 Q71.8438 38.4079 71.8438 39.1423 L71.8438 42.9704 L70.7969 42.9704 L70.7969 39.1892 Q70.7969 38.5329 70.6719 38.2204 Q70.5469 37.9079 70.2344 37.7126 Q69.9219 37.5173 69.5 37.5173 Q68.8281 37.5173 68.3359 37.947 Q67.8438 38.3767 67.8438 39.5642 L67.8438 42.9704 L66.7969 42.9704 ZM73.5938 43.4861 L74.625 43.6423 Q74.6875 44.1111 74.9844 44.3298 Q75.375 44.6267 76.0469 44.6267 Q76.7812 44.6267 77.1797 44.3298 Q77.5781 44.0329 77.7188 43.5173 Q77.8125 43.1892 77.7969 42.1579 Q77.1094 42.9704 76.0781 42.9704 Q74.7969 42.9704 74.0938 42.0407 Q73.3906 41.1111 73.3906 39.8298 Q73.3906 38.9392 73.7109 38.1814 Q74.0312 37.4236 74.6406 37.0173 Q75.25 36.6111 76.0781 36.6111 Q77.1875 36.6111 77.9062 37.5017 L77.9062 36.7517 L78.875 36.7517 L78.875 42.1267 Q78.875 43.5798 78.5781 44.1892 Q78.2812 44.7986 77.6406 45.1501 Q77 45.5017 76.0625 45.5017 Q74.9531 45.5017 74.2656 45.0017 Q73.5781 44.5017 73.5938 43.4861 ZM74.4688 39.7517 Q74.4688 40.9704 74.9531 41.5329 Q75.4375 42.0954 76.1719 42.0954 Q76.9062 42.0954 77.3984 41.5329 Q77.8906 40.9704 77.8906 39.7829 Q77.8906 38.6423 77.3828 38.0642 Q76.875 37.4861 76.1562 37.4861 Q75.4531 37.4861 74.9609 38.0564 Q74.4688 38.6267 74.4688 39.7517 ZM85.0469 40.9704 L86.1406 41.0954 Q85.8906 42.0486 85.1875 42.5798 Q84.4844 43.1111 83.4062 43.1111 Q82.0469 43.1111 81.2422 42.2673 Q80.4375 41.4236 80.4375 39.9079 Q80.4375 38.3454 81.25 37.4782 Q82.0625 36.6111 83.3438 36.6111 Q84.5938 36.6111 85.3828 37.4548 Q86.1719 38.2986 86.1719 39.8454 Q86.1719 39.9392 86.1719 40.1267 L81.5312 40.1267 Q81.5938 41.1579 82.1094 41.697 Q82.625 42.2361 83.4062 42.2361 Q83.9844 42.2361 84.3984 41.9314 Q84.8125 41.6267 85.0469 40.9704 ZM81.5938 39.2673 L85.0625 39.2673 Q85 38.4704 84.6719 38.0798 Q84.1562 37.4704 83.3594 37.4704 Q82.625 37.4704 82.1328 37.9548 Q81.6406 38.4392 81.5938 39.2673 ZM91.8281 42.9704 L91.8281 42.1892 Q91.2344 43.1111 90.0938 43.1111 Q89.3438 43.1111 88.7188 42.697 Q88.0938 42.2829 87.75 41.5486 Q87.4062 40.8142 87.4062 39.8611 Q87.4062 38.9392 87.7188 38.1736 Q88.0312 37.4079 88.6562 37.0095 Q89.2812 36.6111 90.0469 36.6111 Q90.6094 36.6111 91.0469 36.8454 Q91.4844 37.0798 91.7656 37.4548 L91.7656 34.3767 L92.8125 34.3767 L92.8125 42.9704 L91.8281 42.9704 ZM88.5 39.8611 Q88.5 41.0642 89 41.6501 Q89.5 42.2361 90.1875 42.2361 Q90.875 42.2361 91.3594 41.6736 Q91.8438 41.1111 91.8438 39.9548 Q91.8438 38.6736 91.3516 38.0798 Q90.8594 37.4861 90.1406 37.4861 Q89.4375 37.4861 88.9688 38.0564 Q88.5 38.6267 88.5 39.8611 ZM99.0469 40.9704 L100.1406 41.0954 Q99.8906 42.0486 99.1875 42.5798 Q98.4844 43.1111 97.4062 43.1111 Q96.0469 43.1111 95.2422 42.2673 Q94.4375 41.4236 94.4375 39.9079 Q94.4375 38.3454 95.25 37.4782 Q96.0625 36.6111 97.3438 36.6111 Q98.5938 36.6111 99.3828 37.4548 Q100.1719 38.2986 100.1719 39.8454 Q100.1719 39.9392 100.1719 40.1267 L95.5312 40.1267 Q95.5938 41.1579 96.1094 41.697 Q96.625 42.2361 97.4062 42.2361 Q97.9844 42.2361 98.3984 41.9314 Q98.8125 41.6267 99.0469 40.9704 ZM95.5938 39.2673 L99.0625 39.2673 Q99 38.4704 98.6719 38.0798 Q98.1562 37.4704 97.3594 37.4704 Q96.625 37.4704 96.1328 37.9548 Q95.6406 38.4392 95.5938 39.2673 ZM104.0938 42.0329 L104.25 42.9548 Q103.7969 43.0486 103.4531 43.0486 Q102.875 43.0486 102.5625 42.8689 Q102.25 42.6892 102.1172 42.3923 Q101.9844 42.0954 101.9844 41.1423 L101.9844 37.5642 L101.2188 37.5642 L101.2188 36.7517 L101.9844 36.7517 L101.9844 35.2048 L103.0312 34.5798 L103.0312 36.7517 L104.0938 36.7517 L104.0938 37.5642 L103.0312 37.5642 L103.0312 41.2048 Q103.0312 41.6579 103.0859 41.7829 Q103.1406 41.9079 103.2656 41.9861 Q103.3906 42.0642 103.625 42.0642 Q103.8125 42.0642 104.0938 42.0329 ZM107.0938 42.0329 L107.25 42.9548 Q106.7969 43.0486 106.4531 43.0486 Q105.875 43.0486 105.5625 42.8689 Q105.25 42.6892 105.1172 42.3923 Q104.9844 42.0954 104.9844 41.1423 L104.9844 37.5642 L104.2188 37.5642 L104.2188 36.7517 L104.9844 36.7517 L104.9844 35.2048 L106.0312 34.5798 L106.0312 36.7517 L107.0938 36.7517 L107.0938 37.5642 L106.0312 37.5642 L106.0312 41.2048 Q106.0312 41.6579 106.0859 41.7829 Q106.1406 41.9079 106.2656 41.9861 Q106.3906 42.0642 106.625 42.0642 Q106.8125 42.0642 107.0938 42.0329 Z" style="clip-path:url(#clipPath5); stroke:none;" />
      <path d="M7.8594 56.2048 Q7.2656 56.7048 6.7266 56.9079 Q6.1875 57.1111 5.5625 57.1111 Q4.5312 57.1111 3.9844 56.6111 Q3.4375 56.1111 3.4375 55.3298 Q3.4375 54.8767 3.6406 54.4939 Q3.8438 54.1111 4.1875 53.8845 Q4.5312 53.6579 4.9531 53.5486 Q5.25 53.4548 5.8906 53.3767 Q7.1562 53.2361 7.7656 53.0173 Q7.7656 52.7986 7.7656 52.7517 Q7.7656 52.0954 7.4688 51.8298 Q7.0625 51.4861 6.2656 51.4861 Q5.5312 51.4861 5.1719 51.7439 Q4.8125 52.0017 4.6406 52.6579 L3.6094 52.5173 Q3.75 51.8611 4.0781 51.4548 Q4.4062 51.0486 5.0156 50.8298 Q5.625 50.6111 6.4219 50.6111 Q7.2188 50.6111 7.7188 50.7986 Q8.2188 50.9861 8.4531 51.2673 Q8.6875 51.5486 8.7812 51.9861 Q8.8281 52.2517 8.8281 52.9548 L8.8281 54.3611 Q8.8281 55.8298 8.8984 56.2204 Q8.9688 56.6111 9.1719 56.9704 L8.0625 56.9704 Q7.9062 56.6423 7.8594 56.2048 ZM7.7656 53.8454 Q7.1875 54.0798 6.0469 54.2517 Q5.3906 54.3454 5.125 54.4626 Q4.8594 54.5798 4.7109 54.7986 Q4.5625 55.0173 4.5625 55.2986 Q4.5625 55.7204 4.8828 56.0017 Q5.2031 56.2829 5.8125 56.2829 Q6.4219 56.2829 6.8984 56.0173 Q7.375 55.7517 7.5938 55.2829 Q7.7656 54.9236 7.7656 54.2361 L7.7656 53.8454 ZM10.7812 56.9704 L10.7812 50.7517 L11.7344 50.7517 L11.7344 51.6892 Q12.0938 51.0329 12.3984 50.822 Q12.7031 50.6111 13.0781 50.6111 Q13.6094 50.6111 14.1562 50.9392 L13.7969 51.9236 Q13.4062 51.6892 13.0312 51.6892 Q12.6719 51.6892 12.3984 51.9001 Q12.125 52.1111 12.0156 52.4861 Q11.8281 53.0486 11.8281 53.7048 L11.8281 56.9704 L10.7812 56.9704 ZM14.5938 57.4861 L15.625 57.6423 Q15.6875 58.1111 15.9844 58.3298 Q16.375 58.6267 17.0469 58.6267 Q17.7812 58.6267 18.1797 58.3298 Q18.5781 58.0329 18.7188 57.5173 Q18.8125 57.1892 18.7969 56.1579 Q18.1094 56.9704 17.0781 56.9704 Q15.7969 56.9704 15.0938 56.0407 Q14.3906 55.1111 14.3906 53.8298 Q14.3906 52.9392 14.7109 52.1814 Q15.0312 51.4236 15.6406 51.0173 Q16.25 50.6111 17.0781 50.6111 Q18.1875 50.6111 18.9062 51.5017 L18.9062 50.7517 L19.875 50.7517 L19.875 56.1267 Q19.875 57.5798 19.5781 58.1892 Q19.2812 58.7986 18.6406 59.1501 Q18 59.5017 17.0625 59.5017 Q15.9531 59.5017 15.2656 59.0017 Q14.5781 58.5017 14.5938 57.4861 ZM15.4688 53.7517 Q15.4688 54.9704 15.9531 55.5329 Q16.4375 56.0954 17.1719 56.0954 Q17.9062 56.0954 18.3984 55.5329 Q18.8906 54.9704 18.8906 53.7829 Q18.8906 52.6423 18.3828 52.0642 Q17.875 51.4861 17.1562 51.4861 Q16.4531 51.4861 15.9609 52.0564 Q15.4688 52.6267 15.4688 53.7517 ZM25.875 56.9704 L25.875 56.0486 Q25.1406 57.1111 23.8906 57.1111 Q23.3438 57.1111 22.8672 56.9001 Q22.3906 56.6892 22.1562 56.3689 Q21.9219 56.0486 21.8281 55.5798 Q21.7656 55.2829 21.7656 54.5954 L21.7656 50.7517 L22.8281 50.7517 L22.8281 54.2048 Q22.8281 55.0173 22.8906 55.3142 Q22.9844 55.7204 23.3047 55.9626 Q23.625 56.2048 24.1094 56.2048 Q24.5781 56.2048 24.9922 55.9626 Q25.4062 55.7204 25.5859 55.2986 Q25.7656 54.8767 25.7656 54.0798 L25.7656 50.7517 L26.8125 50.7517 L26.8125 56.9704 L25.875 56.9704 ZM28.7969 56.9704 L28.7969 50.7517 L29.7344 50.7517 L29.7344 51.6267 Q30.0312 51.1579 30.5156 50.8845 Q31 50.6111 31.625 50.6111 Q32.3125 50.6111 32.7578 50.8923 Q33.2031 51.1736 33.375 51.6892 Q34.125 50.6111 35.2969 50.6111 Q36.2344 50.6111 36.7266 51.1189 Q37.2188 51.6267 37.2188 52.7048 L37.2188 56.9704 L36.1719 56.9704 L36.1719 53.0486 Q36.1719 52.4236 36.0703 52.1423 Q35.9688 51.8611 35.7031 51.6892 Q35.4375 51.5173 35.0625 51.5173 Q34.4062 51.5173 33.9766 51.9548 Q33.5469 52.3923 33.5469 53.3611 L33.5469 56.9704 L32.4844 56.9704 L32.4844 52.9236 Q32.4844 52.2204 32.2266 51.8689 Q31.9688 51.5173 31.3906 51.5173 Q30.9375 51.5173 30.5625 51.7517 Q30.1875 51.9861 30.0156 52.4392 Q29.8438 52.8923 29.8438 53.7361 L29.8438 56.9704 L28.7969 56.9704 ZM44.0469 54.9704 L45.1406 55.0954 Q44.8906 56.0486 44.1875 56.5798 Q43.4844 57.1111 42.4062 57.1111 Q41.0469 57.1111 40.2422 56.2673 Q39.4375 55.4236 39.4375 53.9079 Q39.4375 52.3454 40.25 51.4782 Q41.0625 50.6111 42.3438 50.6111 Q43.5938 50.6111 44.3828 51.4548 Q45.1719 52.2986 45.1719 53.8454 Q45.1719 53.9392 45.1719 54.1267 L40.5312 54.1267 Q40.5938 55.1579 41.1094 55.697 Q41.625 56.2361 42.4062 56.2361 Q42.9844 56.2361 43.3984 55.9314 Q43.8125 55.6267 44.0469 54.9704 ZM40.5938 53.2673 L44.0625 53.2673 Q44 52.4704 43.6719 52.0798 Q43.1562 51.4704 42.3594 51.4704 Q41.625 51.4704 41.1328 51.9548 Q40.6406 52.4392 40.5938 53.2673 ZM46.7969 56.9704 L46.7969 50.7517 L47.7344 50.7517 L47.7344 51.6267 Q48.4219 50.6111 49.7188 50.6111 Q50.2812 50.6111 50.7578 50.8142 Q51.2344 51.0173 51.4688 51.3454 Q51.7031 51.6736 51.7969 52.1111 Q51.8438 52.4079 51.8438 53.1423 L51.8438 56.9704 L50.7969 56.9704 L50.7969 53.1892 Q50.7969 52.5329 50.6719 52.2204 Q50.5469 51.9079 50.2344 51.7126 Q49.9219 51.5173 49.5 51.5173 Q48.8281 51.5173 48.3359 51.947 Q47.8438 52.3767 47.8438 53.5642 L47.8438 56.9704 L46.7969 56.9704 ZM56.0938 56.0329 L56.25 56.9548 Q55.7969 57.0486 55.4531 57.0486 Q54.875 57.0486 54.5625 56.8689 Q54.25 56.6892 54.1172 56.3923 Q53.9844 56.0954 53.9844 55.1423 L53.9844 51.5642 L53.2188 51.5642 L53.2188 50.7517 L53.9844 50.7517 L53.9844 49.2048 L55.0312 48.5798 L55.0312 50.7517 L56.0938 50.7517 L56.0938 51.5642 L55.0312 51.5642 L55.0312 55.2048 Q55.0312 55.6579 55.0859 55.7829 Q55.1406 55.9079 55.2656 55.9861 Q55.3906 56.0642 55.625 56.0642 Q55.8125 56.0642 56.0938 56.0329 ZM60.875 56.9704 L60.875 56.0486 Q60.1406 57.1111 58.8906 57.1111 Q58.3438 57.1111 57.8672 56.9001 Q57.3906 56.6892 57.1562 56.3689 Q56.9219 56.0486 56.8281 55.5798 Q56.7656 55.2829 56.7656 54.5954 L56.7656 50.7517 L57.8281 50.7517 L57.8281 54.2048 Q57.8281 55.0173 57.8906 55.3142 Q57.9844 55.7204 58.3047 55.9626 Q58.625 56.2048 59.1094 56.2048 Q59.5781 56.2048 59.9922 55.9626 Q60.4062 55.7204 60.5859 55.2986 Q60.7656 54.8767 60.7656 54.0798 L60.7656 50.7517 L61.8125 50.7517 L61.8125 56.9704 L60.875 56.9704 ZM63.7969 56.9704 L63.7969 50.7517 L64.7344 50.7517 L64.7344 51.6267 Q65.0312 51.1579 65.5156 50.8845 Q66 50.6111 66.625 50.6111 Q67.3125 50.6111 67.7578 50.8923 Q68.2031 51.1736 68.375 51.6892 Q69.125 50.6111 70.2969 50.6111 Q71.2344 50.6111 71.7266 51.1189 Q72.2188 51.6267 72.2188 52.7048 L72.2188 56.9704 L71.1719 56.9704 L71.1719 53.0486 Q71.1719 52.4236 71.0703 52.1423 Q70.9688 51.8611 70.7031 51.6892 Q70.4375 51.5173 70.0625 51.5173 Q69.4062 51.5173 68.9766 51.9548 Q68.5469 52.3923 68.5469 53.3611 L68.5469 56.9704 L67.4844 56.9704 L67.4844 52.9236 Q67.4844 52.2204 67.2266 51.8689 Q66.9688 51.5173 66.3906 51.5173 Q65.9375 51.5173 65.5625 51.7517 Q65.1875 51.9861 65.0156 52.4392 Q64.8438 52.8923 64.8438 53.7361 L64.8438 56.9704 L63.7969 56.9704 ZM74.7969 56.9704 L74.7969 48.3767 L75.8594 48.3767 L75.8594 53.2829 L78.3438 50.7517 L79.7188 50.7517 L77.3281 53.0486 L79.9531 56.9704 L78.6562 56.9704 L76.5938 53.7829 L75.8594 54.5017 L75.8594 56.9704 L74.7969 56.9704 ZM85.0469 54.9704 L86.1406 55.0954 Q85.8906 56.0486 85.1875 56.5798 Q84.4844 57.1111 83.4062 57.1111 Q82.0469 57.1111 81.2422 56.2673 Q80.4375 55.4236 80.4375 53.9079 Q80.4375 52.3454 81.25 51.4782 Q82.0625 50.6111 83.3438 50.6111 Q84.5938 50.6111 85.3828 51.4548 Q86.1719 52.2986 86.1719 53.8454 Q86.1719 53.9392 86.1719 54.1267 L81.5312 54.1267 Q81.5938 55.1579 82.1094 55.697 Q82.625 56.2361 83.4062 56.2361 Q83.9844 56.2361 84.3984 55.9314 Q84.8125 55.6267 85.0469 54.9704 ZM81.5938 53.2673 L85.0625 53.2673 Q85 52.4704 84.6719 52.0798 Q84.1562 51.4704 83.3594 51.4704 Q82.625 51.4704 82.1328 51.9548 Q81.6406 52.4392 81.5938 53.2673 ZM82.125 48.9704 L82.9062 47.3298 L84.2969 47.3298 L83 48.9704 L82.125 48.9704 ZM87.7969 56.9704 L87.7969 50.7517 L88.7344 50.7517 L88.7344 51.6267 Q89.4219 50.6111 90.7188 50.6111 Q91.2812 50.6111 91.7578 50.8142 Q92.2344 51.0173 92.4688 51.3454 Q92.7031 51.6736 92.7969 52.1111 Q92.8438 52.4079 92.8438 53.1423 L92.8438 56.9704 L91.7969 56.9704 L91.7969 53.1892 Q91.7969 52.5329 91.6719 52.2204 Q91.5469 51.9079 91.2344 51.7126 Q90.9219 51.5173 90.5 51.5173 Q89.8281 51.5173 89.3359 51.947 Q88.8438 52.3767 88.8438 53.5642 L88.8438 56.9704 L87.7969 56.9704 ZM97.0938 56.0329 L97.25 56.9548 Q96.7969 57.0486 96.4531 57.0486 Q95.875 57.0486 95.5625 56.8689 Q95.25 56.6892 95.1172 56.3923 Q94.9844 56.0954 94.9844 55.1423 L94.9844 51.5642 L94.2188 51.5642 L94.2188 50.7517 L94.9844 50.7517 L94.9844 49.2048 L96.0312 48.5798 L96.0312 50.7517 L97.0938 50.7517 L97.0938 51.5642 L96.0312 51.5642 L96.0312 55.2048 Q96.0312 55.6579 96.0859 55.7829 Q96.1406 55.9079 96.2656 55.9861 Q96.3906 56.0642 96.625 56.0642 Q96.8125 56.0642 97.0938 56.0329 ZM98.0938 56.9704 L98.0938 55.7673 L99.2969 55.7673 L99.2969 56.9704 L98.0938 56.9704 ZM105.8125 59.5017 Q104.9375 58.3923 104.3359 56.9157 Q103.7344 55.4392 103.7344 53.8611 Q103.7344 52.4704 104.1719 51.1892 Q104.7031 49.7048 105.8125 48.2361 L106.5625 48.2361 Q105.8594 49.4548 105.625 49.9704 Q105.2656 50.7829 105.0625 51.6579 Q104.8125 52.7517 104.8125 53.8611 Q104.8125 56.6892 106.5625 59.5017 L105.8125 59.5017 ZM112.0469 54.9704 L113.1406 55.0954 Q112.8906 56.0486 112.1875 56.5798 Q111.4844 57.1111 110.4062 57.1111 Q109.0469 57.1111 108.2422 56.2673 Q107.4375 55.4236 107.4375 53.9079 Q107.4375 52.3454 108.25 51.4782 Q109.0625 50.6111 110.3438 50.6111 Q111.5938 50.6111 112.3828 51.4548 Q113.1719 52.2986 113.1719 53.8454 Q113.1719 53.9392 113.1719 54.1267 L108.5312 54.1267 Q108.5938 55.1579 109.1094 55.697 Q109.625 56.2361 110.4062 56.2361 Q110.9844 56.2361 111.3984 55.9314 Q111.8125 55.6267 112.0469 54.9704 ZM108.5938 53.2673 L112.0625 53.2673 Q112 52.4704 111.6719 52.0798 Q111.1562 51.4704 110.3594 51.4704 Q109.625 51.4704 109.1328 51.9548 Q108.6406 52.4392 108.5938 53.2673 ZM114.7969 56.9704 L114.7969 48.3767 L115.8438 48.3767 L115.8438 51.4548 Q116.5781 50.6111 117.7031 50.6111 Q118.4062 50.6111 118.9141 50.8845 Q119.4219 51.1579 119.6406 51.6345 Q119.8594 52.1111 119.8594 53.0329 L119.8594 56.9704 L118.8125 56.9704 L118.8125 53.0329 Q118.8125 52.2361 118.4688 51.8767 Q118.125 51.5173 117.5 51.5173 Q117.0312 51.5173 116.6172 51.7595 Q116.2031 52.0017 116.0234 52.4157 Q115.8438 52.8298 115.8438 53.5642 L115.8438 56.9704 L114.7969 56.9704 ZM126.0469 54.9704 L127.1406 55.0954 Q126.8906 56.0486 126.1875 56.5798 Q125.4844 57.1111 124.4062 57.1111 Q123.0469 57.1111 122.2422 56.2673 Q121.4375 55.4236 121.4375 53.9079 Q121.4375 52.3454 122.25 51.4782 Q123.0625 50.6111 124.3438 50.6111 Q125.5938 50.6111 126.3828 51.4548 Q127.1719 52.2986 127.1719 53.8454 Q127.1719 53.9392 127.1719 54.1267 L122.5312 54.1267 Q122.5938 55.1579 123.1094 55.697 Q123.625 56.2361 124.4062 56.2361 Q124.9844 56.2361 125.3984 55.9314 Q125.8125 55.6267 126.0469 54.9704 ZM122.5938 53.2673 L126.0625 53.2673 Q126 52.4704 125.6719 52.0798 Q125.1562 51.4704 124.3594 51.4704 Q123.625 51.4704 123.1328 51.9548 Q122.6406 52.4392 122.5938 53.2673 ZM128.7656 56.9704 L128.7656 48.3767 L129.8281 48.3767 L129.8281 56.9704 L128.7656 56.9704 ZM131.75 59.3611 L131.625 58.3767 Q131.9688 58.4704 132.2344 58.4704 Q132.5781 58.4704 132.7891 58.3532 Q133 58.2361 133.1406 58.0329 Q133.2344 57.8611 133.4688 57.2361 Q133.4844 57.1579 133.5625 56.9861 L131.1875 50.7517 L132.3281 50.7517 L133.625 54.3454 Q133.875 55.0329 134.0781 55.7986 Q134.2656 55.0642 134.5156 54.3767 L135.8438 50.7517 L136.8906 50.7517 L134.5312 57.0798 Q134.1406 58.0954 133.9375 58.4861 Q133.6562 59.0173 133.2891 59.2595 Q132.9219 59.5017 132.4219 59.5017 Q132.125 59.5017 131.75 59.3611 ZM141.0469 54.9704 L142.1406 55.0954 Q141.8906 56.0486 141.1875 56.5798 Q140.4844 57.1111 139.4062 57.1111 Q138.0469 57.1111 137.2422 56.2673 Q136.4375 55.4236 136.4375 53.9079 Q136.4375 52.3454 137.25 51.4782 Q138.0625 50.6111 139.3438 50.6111 Q140.5938 50.6111 141.3828 51.4548 Q142.1719 52.2986 142.1719 53.8454 Q142.1719 53.9392 142.1719 54.1267 L137.5312 54.1267 Q137.5938 55.1579 138.1094 55.697 Q138.625 56.2361 139.4062 56.2361 Q139.9844 56.2361 140.3984 55.9314 Q140.8125 55.6267 141.0469 54.9704 ZM137.5938 53.2673 L141.0625 53.2673 Q141 52.4704 140.6719 52.0798 Q140.1562 51.4704 139.3594 51.4704 Q138.625 51.4704 138.1328 51.9548 Q137.6406 52.4392 137.5938 53.2673 ZM146.0938 56.0329 L146.25 56.9548 Q145.7969 57.0486 145.4531 57.0486 Q144.875 57.0486 144.5625 56.8689 Q144.25 56.6892 144.1172 56.3923 Q143.9844 56.0954 143.9844 55.1423 L143.9844 51.5642 L143.2188 51.5642 L143.2188 50.7517 L143.9844 50.7517 L143.9844 49.2048 L145.0312 48.5798 L145.0312 50.7517 L146.0938 50.7517 L146.0938 51.5642 L145.0312 51.5642 L145.0312 55.2048 Q145.0312 55.6579 145.0859 55.7829 Q145.1406 55.9079 145.2656 55.9861 Q145.3906 56.0642 145.625 56.0642 Q145.8125 56.0642 146.0938 56.0329 ZM149.0938 56.0329 L149.25 56.9548 Q148.7969 57.0486 148.4531 57.0486 Q147.875 57.0486 147.5625 56.8689 Q147.25 56.6892 147.1172 56.3923 Q146.9844 56.0954 146.9844 55.1423 L146.9844 51.5642 L146.2188 51.5642 L146.2188 50.7517 L146.9844 50.7517 L146.9844 49.2048 L148.0312 48.5798 L148.0312 50.7517 L149.0938 50.7517 L149.0938 51.5642 L148.0312 51.5642 L148.0312 55.2048 Q148.0312 55.6579 148.0859 55.7829 Q148.1406 55.9079 148.2656 55.9861 Q148.3906 56.0642 148.625 56.0642 Q148.8125 56.0642 149.0938 56.0329 Z" style="clip-path:url(#clipPath5); stroke:none;" />
      <path d="M3.7969 70.9704 L3.7969 62.3767 L4.8438 62.3767 L4.8438 65.4548 Q5.5781 64.6111 6.7031 64.6111 Q7.4062 64.6111 7.9141 64.8845 Q8.4219 65.1579 8.6406 65.6345 Q8.8594 66.1111 8.8594 67.0329 L8.8594 70.9704 L7.8125 70.9704 L7.8125 67.0329 Q7.8125 66.2361 7.4688 65.8767 Q7.125 65.5173 6.5 65.5173 Q6.0312 65.5173 5.6172 65.7595 Q5.2031 66.0017 5.0234 66.4157 Q4.8438 66.8298 4.8438 67.5642 L4.8438 70.9704 L3.7969 70.9704 ZM14.8594 70.2048 Q14.2656 70.7048 13.7266 70.9079 Q13.1875 71.1111 12.5625 71.1111 Q11.5312 71.1111 10.9844 70.6111 Q10.4375 70.1111 10.4375 69.3298 Q10.4375 68.8767 10.6406 68.4939 Q10.8438 68.1111 11.1875 67.8845 Q11.5312 67.6579 11.9531 67.5486 Q12.25 67.4548 12.8906 67.3767 Q14.1562 67.2361 14.7656 67.0173 Q14.7656 66.7986 14.7656 66.7517 Q14.7656 66.0954 14.4688 65.8298 Q14.0625 65.4861 13.2656 65.4861 Q12.5312 65.4861 12.1719 65.7439 Q11.8125 66.0017 11.6406 66.6579 L10.6094 66.5173 Q10.75 65.8611 11.0781 65.4548 Q11.4062 65.0486 12.0156 64.8298 Q12.625 64.6111 13.4219 64.6111 Q14.2188 64.6111 14.7188 64.7986 Q15.2188 64.9861 15.4531 65.2673 Q15.6875 65.5486 15.7812 65.9861 Q15.8281 66.2517 15.8281 66.9548 L15.8281 68.3611 Q15.8281 69.8298 15.8984 70.2204 Q15.9688 70.6111 16.1719 70.9704 L15.0625 70.9704 Q14.9062 70.6423 14.8594 70.2048 ZM14.7656 67.8454 Q14.1875 68.0798 13.0469 68.2517 Q12.3906 68.3454 12.125 68.4626 Q11.8594 68.5798 11.7109 68.7986 Q11.5625 69.0173 11.5625 69.2986 Q11.5625 69.7204 11.8828 70.0017 Q12.2031 70.2829 12.8125 70.2829 Q13.4219 70.2829 13.8984 70.0173 Q14.375 69.7517 14.5938 69.2829 Q14.7656 68.9236 14.7656 68.2361 L14.7656 67.8454 ZM17.375 69.1111 L18.4062 68.9548 Q18.5 69.5798 18.8984 69.9079 Q19.2969 70.2361 20.0312 70.2361 Q20.75 70.2361 21.1016 69.947 Q21.4531 69.6579 21.4531 69.2517 Q21.4531 68.8923 21.1406 68.6892 Q20.9219 68.5486 20.0625 68.3298 Q18.9062 68.0329 18.4609 67.822 Q18.0156 67.6111 17.7812 67.2361 Q17.5469 66.8611 17.5469 66.3923 Q17.5469 65.9861 17.7344 65.6267 Q17.9219 65.2673 18.25 65.0329 Q18.5 64.8611 18.9219 64.7361 Q19.3438 64.6111 19.8438 64.6111 Q20.5625 64.6111 21.1172 64.822 Q21.6719 65.0329 21.9375 65.3923 Q22.2031 65.7517 22.2969 66.3454 L21.2656 66.4861 Q21.2031 66.0173 20.8672 65.7439 Q20.5312 65.4704 19.9062 65.4704 Q19.1875 65.4704 18.875 65.7126 Q18.5625 65.9548 18.5625 66.2829 Q18.5625 66.4861 18.6875 66.6423 Q18.8281 66.8142 19.0938 66.9236 Q19.25 66.9861 20.0312 67.1892 Q21.1562 67.5017 21.5938 67.6892 Q22.0312 67.8767 22.2812 68.2361 Q22.5312 68.5954 22.5312 69.1423 Q22.5312 69.6736 22.2266 70.1345 Q21.9219 70.5954 21.3438 70.8532 Q20.7656 71.1111 20.0312 71.1111 Q18.8125 71.1111 18.1797 70.6032 Q17.5469 70.0954 17.375 69.1111 ZM24.2344 70.9704 L24.2344 70.1111 L28.2031 65.5642 Q27.5156 65.5954 27 65.5954 L24.4688 65.5954 L24.4688 64.7517 L29.5625 64.7517 L29.5625 65.4392 L26.1875 69.3923 L25.5312 70.1111 Q26.25 70.0642 26.8594 70.0642 L29.75 70.0642 L29.75 70.9704 L24.2344 70.9704 ZM29.7969 70.9704 L29.7969 64.7517 L30.7344 64.7517 L30.7344 65.6267 Q31.4219 64.6111 32.7188 64.6111 Q33.2812 64.6111 33.7578 64.8142 Q34.2344 65.0173 34.4688 65.3454 Q34.7031 65.6736 34.7969 66.1111 Q34.8438 66.4079 34.8438 67.1423 L34.8438 70.9704 L33.7969 70.9704 L33.7969 67.1892 Q33.7969 66.5329 33.6719 66.2204 Q33.5469 65.9079 33.2344 65.7126 Q32.9219 65.5173 32.5 65.5173 Q31.8281 65.5173 31.3359 65.947 Q30.8438 66.3767 30.8438 67.5642 L30.8438 70.9704 L29.7969 70.9704 ZM40.8594 70.2048 Q40.2656 70.7048 39.7266 70.9079 Q39.1875 71.1111 38.5625 71.1111 Q37.5312 71.1111 36.9844 70.6111 Q36.4375 70.1111 36.4375 69.3298 Q36.4375 68.8767 36.6406 68.4939 Q36.8438 68.1111 37.1875 67.8845 Q37.5312 67.6579 37.9531 67.5486 Q38.25 67.4548 38.8906 67.3767 Q40.1562 67.2361 40.7656 67.0173 Q40.7656 66.7986 40.7656 66.7517 Q40.7656 66.0954 40.4688 65.8298 Q40.0625 65.4861 39.2656 65.4861 Q38.5312 65.4861 38.1719 65.7439 Q37.8125 66.0017 37.6406 66.6579 L36.6094 66.5173 Q36.75 65.8611 37.0781 65.4548 Q37.4062 65.0486 38.0156 64.8298 Q38.625 64.6111 39.4219 64.6111 Q40.2188 64.6111 40.7188 64.7986 Q41.2188 64.9861 41.4531 65.2673 Q41.6875 65.5486 41.7812 65.9861 Q41.8281 66.2517 41.8281 66.9548 L41.8281 68.3611 Q41.8281 69.8298 41.8984 70.2204 Q41.9688 70.6111 42.1719 70.9704 L41.0625 70.9704 Q40.9062 70.6423 40.8594 70.2048 ZM40.7656 67.8454 Q40.1875 68.0798 39.0469 68.2517 Q38.3906 68.3454 38.125 68.4626 Q37.8594 68.5798 37.7109 68.7986 Q37.5625 69.0173 37.5625 69.2986 Q37.5625 69.7204 37.8828 70.0017 Q38.2031 70.2829 38.8125 70.2829 Q39.4219 70.2829 39.8984 70.0173 Q40.375 69.7517 40.5938 69.2829 Q40.7656 68.9236 40.7656 68.2361 L40.7656 67.8454 ZM38.125 62.9704 L38.9062 61.3298 L40.2969 61.3298 L39 62.9704 L38.125 62.9704 ZM43.7656 70.9704 L43.7656 62.3767 L44.8281 62.3767 L44.8281 70.9704 L43.7656 70.9704 ZM46.7969 70.9704 L46.7969 62.3767 L47.8438 62.3767 L47.8438 65.4548 Q48.5781 64.6111 49.7031 64.6111 Q50.4062 64.6111 50.9141 64.8845 Q51.4219 65.1579 51.6406 65.6345 Q51.8594 66.1111 51.8594 67.0329 L51.8594 70.9704 L50.8125 70.9704 L50.8125 67.0329 Q50.8125 66.2361 50.4688 65.8767 Q50.125 65.5173 49.5 65.5173 Q49.0312 65.5173 48.6172 65.7595 Q48.2031 66.0017 48.0234 66.4157 Q47.8438 66.8298 47.8438 67.5642 L47.8438 70.9704 L46.7969 70.9704 ZM57.8594 70.2048 Q57.2656 70.7048 56.7266 70.9079 Q56.1875 71.1111 55.5625 71.1111 Q54.5312 71.1111 53.9844 70.6111 Q53.4375 70.1111 53.4375 69.3298 Q53.4375 68.8767 53.6406 68.4939 Q53.8438 68.1111 54.1875 67.8845 Q54.5312 67.6579 54.9531 67.5486 Q55.25 67.4548 55.8906 67.3767 Q57.1562 67.2361 57.7656 67.0173 Q57.7656 66.7986 57.7656 66.7517 Q57.7656 66.0954 57.4688 65.8298 Q57.0625 65.4861 56.2656 65.4861 Q55.5312 65.4861 55.1719 65.7439 Q54.8125 66.0017 54.6406 66.6579 L53.6094 66.5173 Q53.75 65.8611 54.0781 65.4548 Q54.4062 65.0486 55.0156 64.8298 Q55.625 64.6111 56.4219 64.6111 Q57.2188 64.6111 57.7188 64.7986 Q58.2188 64.9861 58.4531 65.2673 Q58.6875 65.5486 58.7812 65.9861 Q58.8281 66.2517 58.8281 66.9548 L58.8281 68.3611 Q58.8281 69.8298 58.8984 70.2204 Q58.9688 70.6111 59.1719 70.9704 L58.0625 70.9704 Q57.9062 70.6423 57.8594 70.2048 ZM57.7656 67.8454 Q57.1875 68.0798 56.0469 68.2517 Q55.3906 68.3454 55.125 68.4626 Q54.8594 68.5798 54.7109 68.7986 Q54.5625 69.0173 54.5625 69.2986 Q54.5625 69.7204 54.8828 70.0017 Q55.2031 70.2829 55.8125 70.2829 Q56.4219 70.2829 56.8984 70.0173 Q57.375 69.7517 57.5938 69.2829 Q57.7656 68.9236 57.7656 68.2361 L57.7656 67.8454 ZM63.0938 70.0329 L63.25 70.9548 Q62.7969 71.0486 62.4531 71.0486 Q61.875 71.0486 61.5625 70.8689 Q61.25 70.6892 61.1172 70.3923 Q60.9844 70.0954 60.9844 69.1423 L60.9844 65.5642 L60.2188 65.5642 L60.2188 64.7517 L60.9844 64.7517 L60.9844 63.2048 L62.0312 62.5798 L62.0312 64.7517 L63.0938 64.7517 L63.0938 65.5642 L62.0312 65.5642 L62.0312 69.2048 Q62.0312 69.6579 62.0859 69.7829 Q62.1406 69.9079 62.2656 69.9861 Q62.3906 70.0642 62.625 70.0642 Q62.8125 70.0642 63.0938 70.0329 ZM63.4062 67.8611 Q63.4062 66.1267 64.3594 65.2986 Q65.1562 64.6111 66.3125 64.6111 Q67.5938 64.6111 68.4141 65.447 Q69.2344 66.2829 69.2344 67.7673 Q69.2344 68.9704 68.875 69.6579 Q68.5156 70.3454 67.8203 70.7282 Q67.125 71.1111 66.3125 71.1111 Q65.0156 71.1111 64.2109 70.2751 Q63.4062 69.4392 63.4062 67.8611 ZM64.4844 67.8611 Q64.4844 69.0486 65.0078 69.6423 Q65.5312 70.2361 66.3125 70.2361 Q67.1094 70.2361 67.625 69.6423 Q68.1406 69.0486 68.1406 67.8298 Q68.1406 66.6736 67.6172 66.0798 Q67.0938 65.4861 66.3125 65.4861 Q65.5312 65.4861 65.0078 66.072 Q64.4844 66.6579 64.4844 67.8611 ZM65.125 62.9704 L65.9062 61.3298 L67.2969 61.3298 L66 62.9704 L65.125 62.9704 ZM71.0625 70.9704 L71.0625 69.7673 L72.2656 69.7673 L72.2656 70.9704 Q72.2656 71.6267 72.0312 72.0407 Q71.7969 72.4548 71.2969 72.6736 L71 72.2204 Q71.3281 72.0798 71.4844 71.7907 Q71.6406 71.5017 71.6719 70.9704 L71.0625 70.9704 ZM80.8594 70.2048 Q80.2656 70.7048 79.7266 70.9079 Q79.1875 71.1111 78.5625 71.1111 Q77.5312 71.1111 76.9844 70.6111 Q76.4375 70.1111 76.4375 69.3298 Q76.4375 68.8767 76.6406 68.4939 Q76.8438 68.1111 77.1875 67.8845 Q77.5312 67.6579 77.9531 67.5486 Q78.25 67.4548 78.8906 67.3767 Q80.1562 67.2361 80.7656 67.0173 Q80.7656 66.7986 80.7656 66.7517 Q80.7656 66.0954 80.4688 65.8298 Q80.0625 65.4861 79.2656 65.4861 Q78.5312 65.4861 78.1719 65.7439 Q77.8125 66.0017 77.6406 66.6579 L76.6094 66.5173 Q76.75 65.8611 77.0781 65.4548 Q77.4062 65.0486 78.0156 64.8298 Q78.625 64.6111 79.4219 64.6111 Q80.2188 64.6111 80.7188 64.7986 Q81.2188 64.9861 81.4531 65.2673 Q81.6875 65.5486 81.7812 65.9861 Q81.8281 66.2517 81.8281 66.9548 L81.8281 68.3611 Q81.8281 69.8298 81.8984 70.2204 Q81.9688 70.6111 82.1719 70.9704 L81.0625 70.9704 Q80.9062 70.6423 80.8594 70.2048 ZM80.7656 67.8454 Q80.1875 68.0798 79.0469 68.2517 Q78.3906 68.3454 78.125 68.4626 Q77.8594 68.5798 77.7109 68.7986 Q77.5625 69.0173 77.5625 69.2986 Q77.5625 69.7204 77.8828 70.0017 Q78.2031 70.2829 78.8125 70.2829 Q79.4219 70.2829 79.8984 70.0173 Q80.375 69.7517 80.5938 69.2829 Q80.7656 68.9236 80.7656 68.2361 L80.7656 67.8454 ZM89.0938 70.0329 L89.25 70.9548 Q88.7969 71.0486 88.4531 71.0486 Q87.875 71.0486 87.5625 70.8689 Q87.25 70.6892 87.1172 70.3923 Q86.9844 70.0954 86.9844 69.1423 L86.9844 65.5642 L86.2188 65.5642 L86.2188 64.7517 L86.9844 64.7517 L86.9844 63.2048 L88.0312 62.5798 L88.0312 64.7517 L89.0938 64.7517 L89.0938 65.5642 L88.0312 65.5642 L88.0312 69.2048 Q88.0312 69.6579 88.0859 69.7829 Q88.1406 69.9079 88.2656 69.9861 Q88.3906 70.0642 88.625 70.0642 Q88.8125 70.0642 89.0938 70.0329 ZM89.4062 67.8611 Q89.4062 66.1267 90.3594 65.2986 Q91.1562 64.6111 92.3125 64.6111 Q93.5938 64.6111 94.4141 65.447 Q95.2344 66.2829 95.2344 67.7673 Q95.2344 68.9704 94.875 69.6579 Q94.5156 70.3454 93.8203 70.7282 Q93.125 71.1111 92.3125 71.1111 Q91.0156 71.1111 90.2109 70.2751 Q89.4062 69.4392 89.4062 67.8611 ZM90.4844 67.8611 Q90.4844 69.0486 91.0078 69.6423 Q91.5312 70.2361 92.3125 70.2361 Q93.1094 70.2361 93.625 69.6423 Q94.1406 69.0486 94.1406 67.8298 Q94.1406 66.6736 93.6172 66.0798 Q93.0938 65.4861 92.3125 65.4861 Q91.5312 65.4861 91.0078 66.072 Q90.4844 66.6579 90.4844 67.8611 ZM96.5938 71.4861 L97.625 71.6423 Q97.6875 72.1111 97.9844 72.3298 Q98.375 72.6267 99.0469 72.6267 Q99.7812 72.6267 100.1797 72.3298 Q100.5781 72.0329 100.7188 71.5173 Q100.8125 71.1892 100.7969 70.1579 Q100.1094 70.9704 99.0781 70.9704 Q97.7969 70.9704 97.0938 70.0407 Q96.3906 69.1111 96.3906 67.8298 Q96.3906 66.9392 96.7109 66.1814 Q97.0312 65.4236 97.6406 65.0173 Q98.25 64.6111 99.0781 64.6111 Q100.1875 64.6111 100.9062 65.5017 L100.9062 64.7517 L101.875 64.7517 L101.875 70.1267 Q101.875 71.5798 101.5781 72.1892 Q101.2812 72.7986 100.6406 73.1501 Q100 73.5017 99.0625 73.5017 Q97.9531 73.5017 97.2656 73.0017 Q96.5781 72.5017 96.5938 71.4861 ZM97.4688 67.7517 Q97.4688 68.9704 97.9531 69.5329 Q98.4375 70.0954 99.1719 70.0954 Q99.9062 70.0954 100.3984 69.5329 Q100.8906 68.9704 100.8906 67.7829 Q100.8906 66.6423 100.3828 66.0642 Q99.875 65.4861 99.1562 65.4861 Q98.4531 65.4861 97.9609 66.0564 Q97.4688 66.6267 97.4688 67.7517 ZM103.5938 71.4861 L104.625 71.6423 Q104.6875 72.1111 104.9844 72.3298 Q105.375 72.6267 106.0469 72.6267 Q106.7812 72.6267 107.1797 72.3298 Q107.5781 72.0329 107.7188 71.5173 Q107.8125 71.1892 107.7969 70.1579 Q107.1094 70.9704 106.0781 70.9704 Q104.7969 70.9704 104.0938 70.0407 Q103.3906 69.1111 103.3906 67.8298 Q103.3906 66.9392 103.7109 66.1814 Q104.0312 65.4236 104.6406 65.0173 Q105.25 64.6111 106.0781 64.6111 Q107.1875 64.6111 107.9062 65.5017 L107.9062 64.7517 L108.875 64.7517 L108.875 70.1267 Q108.875 71.5798 108.5781 72.1892 Q108.2812 72.7986 107.6406 73.1501 Q107 73.5017 106.0625 73.5017 Q104.9531 73.5017 104.2656 73.0017 Q103.5781 72.5017 103.5938 71.4861 ZM104.4688 67.7517 Q104.4688 68.9704 104.9531 69.5329 Q105.4375 70.0954 106.1719 70.0954 Q106.9062 70.0954 107.3984 69.5329 Q107.8906 68.9704 107.8906 67.7829 Q107.8906 66.6423 107.3828 66.0642 Q106.875 65.4861 106.1562 65.4861 Q105.4531 65.4861 104.9609 66.0564 Q104.4688 66.6267 104.4688 67.7517 ZM110.7656 70.9704 L110.7656 62.3767 L111.8281 62.3767 L111.8281 70.9704 L110.7656 70.9704 ZM118.0469 68.9704 L119.1406 69.0954 Q118.8906 70.0486 118.1875 70.5798 Q117.4844 71.1111 116.4062 71.1111 Q115.0469 71.1111 114.2422 70.2673 Q113.4375 69.4236 113.4375 67.9079 Q113.4375 66.3454 114.25 65.4782 Q115.0625 64.6111 116.3438 64.6111 Q117.5938 64.6111 118.3828 65.4548 Q119.1719 66.2986 119.1719 67.8454 Q119.1719 67.9392 119.1719 68.1267 L114.5312 68.1267 Q114.5938 69.1579 115.1094 69.697 Q115.625 70.2361 116.4062 70.2361 Q116.9844 70.2361 117.3984 69.9314 Q117.8125 69.6267 118.0469 68.9704 ZM114.5938 67.2673 L118.0625 67.2673 Q118 66.4704 117.6719 66.0798 Q117.1562 65.4704 116.3594 65.4704 Q115.625 65.4704 115.1328 65.9548 Q114.6406 66.4392 114.5938 67.2673 ZM122.8125 73.5017 Q121.9375 72.3923 121.3359 70.9157 Q120.7344 69.4392 120.7344 67.8611 Q120.7344 66.4704 121.1719 65.1892 Q121.7031 63.7048 122.8125 62.2361 L123.5625 62.2361 Q122.8594 63.4548 122.625 63.9704 Q122.2656 64.7829 122.0625 65.6579 Q121.8125 66.7517 121.8125 67.8611 Q121.8125 70.6892 123.5625 73.5017 L122.8125 73.5017 ZM125.4844 73.5017 L124.7344 73.5017 Q126.4844 70.6892 126.4844 67.8611 Q126.4844 66.7673 126.2344 65.6736 Q126.0312 64.7986 125.6719 63.9861 Q125.4375 63.4704 124.7344 62.2361 L125.4844 62.2361 Q126.5781 63.7048 127.1094 65.1892 Q127.5625 66.4704 127.5625 67.8611 Q127.5625 69.4392 126.9531 70.9157 Q126.3438 72.3923 125.4844 73.5017 ZM129.4844 73.5017 L128.7344 73.5017 Q130.4844 70.6892 130.4844 67.8611 Q130.4844 66.7673 130.2344 65.6736 Q130.0312 64.7986 129.6719 63.9861 Q129.4375 63.4704 128.7344 62.2361 L129.4844 62.2361 Q130.5781 63.7048 131.1094 65.1892 Q131.5625 66.4704 131.5625 67.8611 Q131.5625 69.4392 130.9531 70.9157 Q130.3438 72.3923 129.4844 73.5017 Z" style="clip-path:url(#clipPath5); stroke:none;" />
    </g>
    <g style="text-rendering:geometricPrecision; font-size:11; font-family:sans-serif;" transform="translate(240,34)">
      <text x="15" y="12" style="clip-path:url(#clipPath6); stroke:none;" xml:space="preserve">source :</text>
      <text x="13" y="27" style="clip-path:url(#clipPath6); stroke:none;" xml:space="preserve">IsSource</text>
    </g>
    <g style="text-rendering:geometricPrecision; font-size:11; font-family:sans-serif;" transform="translate(11,69)">
      <text x="9" y="12" style="clip-path:url(#clipPath7); stroke:none;" xml:space="preserve">Felhasználó</text>
    </g>
    <g transform="translate(4,74)" style="font-size:11; stroke-linecap:butt; text-rendering:geometricPrecision; font-family:sans-serif; stroke-linejoin:round;">
      <line x1="50" x2="267" y1="50" style="clip-path:url(#clipPath8); fill:none;" y2="50" />
      <polygon style="clip-path:url(#clipPath8); stroke:none;" points=" 267 50 255 44 255 56" />
      <polygon style="fill:none; clip-path:url(#clipPath8);" points=" 267 50 255 44 255 56" />
    </g>
    <g transform="translate(50,74)" style="font-size:11; stroke-linecap:butt; text-rendering:geometricPrecision; font-family:sans-serif; stroke-linejoin:round; stroke-dasharray:4;">
      <line x1="50" x2="50" y1="50" style="clip-path:url(#clipPath9); fill:none;" y2="79" />
    </g>
    <g style="text-rendering:geometricPrecision; font-size:11; font-family:sans-serif;" transform="translate(100,104)">
      <text x="9" y="12" style="clip-path:url(#clipPath10); stroke:none;" xml:space="preserve">1: setValues(values)</text>
    </g>
  </g>
</svg>
