<?xml version="1.0" encoding="UTF-8"?>

<!DOCTYPE svg PUBLIC '-//W3C//DTD SVG 1.0//EN' 'http://www.w3.org/TR/2001/REC-SVG-20010904/DTD/svg10.dtd'>
<svg style="fill-opacity:1; color-rendering:auto; color-interpolation:auto; stroke:black; text-rendering:auto; stroke-linecap:square; stroke-miterlimit:10; stroke-opacity:1; shape-rendering:auto; fill:black; stroke-dasharray:none; font-weight:normal; stroke-width:1; font-family:&apos;Dialog&apos;; font-style:normal; stroke-linejoin:miter; font-size:12; stroke-dashoffset:0; image-rendering:auto;" xmlns="http://www.w3.org/2000/svg" width="406" xmlns:xlink="http://www.w3.org/1999/xlink" height="268">
  <!--Generated by the Batik Graphics2D SVG Generator-->
  <defs id="genericDefs" />
  <g>
    <defs id="defs1">
      <clipPath clipPathUnits="userSpaceOnUse" id="clipPath1">
        <path d="M-3 -3 L87 -3 L87 227 L-3 227 L-3 -3 Z" />
      </clipPath>
      <clipPath clipPathUnits="userSpaceOnUse" id="clipPath2">
        <path d="M-3 -3 L127 -3 L127 227 L-3 227 L-3 -3 Z" />
      </clipPath>
      <clipPath clipPathUnits="userSpaceOnUse" id="clipPath3">
        <path d="M-3 -3 L14 -3 L14 141 L-3 141 L-3 -3 Z" />
      </clipPath>
      <clipPath clipPathUnits="userSpaceOnUse" id="clipPath4">
        <path d="M-3 -3 L14 -3 L14 144 L-3 144 L-3 -3 Z" />
      </clipPath>
      <clipPath clipPathUnits="userSpaceOnUse" id="clipPath5">
        <path d="M-3 -3 L227 -3 L227 97 L-3 97 L-3 -3 Z" />
      </clipPath>
      <clipPath clipPathUnits="userSpaceOnUse" id="clipPath6">
        <path d="M0 0 L33 0 L33 18 L0 18 L0 0 Z" />
      </clipPath>
      <clipPath clipPathUnits="userSpaceOnUse" id="clipPath7">
        <path d="M-3 -3 L15 -3 L15 19 L-3 19 L-3 -3 Z" />
      </clipPath>
      <clipPath clipPathUnits="userSpaceOnUse" id="clipPath8">
        <path d="M-3 -3 L227 -3 L227 79 L-3 79 L-3 -3 Z" />
      </clipPath>
      <clipPath clipPathUnits="userSpaceOnUse" id="clipPath9">
        <path d="M0 0 L182 0 L182 15 L0 15 L0 0 Z" />
      </clipPath>
      <clipPath clipPathUnits="userSpaceOnUse" id="clipPath10">
        <path d="M0 0 L0 4 L220 4 L220 0 Z" />
      </clipPath>
      <clipPath clipPathUnits="userSpaceOnUse" id="clipPath11">
        <path d="M-120 -15 L240 -15 L240 30 L-120 30 L-120 -15 Z" />
      </clipPath>
      <clipPath clipPathUnits="userSpaceOnUse" id="clipPath12">
        <path d="M-120 -30 L240 -30 L240 60 L-120 60 L-120 -30 Z" />
      </clipPath>
      <clipPath clipPathUnits="userSpaceOnUse" id="clipPath13">
        <path d="M-80 -15 L160 -15 L160 30 L-80 30 L-80 -15 Z" />
      </clipPath>
      <clipPath clipPathUnits="userSpaceOnUse" id="clipPath14">
        <path d="M0 0 L206 0 L206 94 L0 94 L0 0 Z" />
      </clipPath>
      <clipPath clipPathUnits="userSpaceOnUse" id="clipPath15">
        <path d="M0 0 L209 0 L209 94 L0 94 L0 0 Z" />
      </clipPath>
      <clipPath clipPathUnits="userSpaceOnUse" id="clipPath16">
        <path d="M-115 -13 L230 -13 L230 26 L-115 26 L-115 -13 Z" />
      </clipPath>
      <clipPath clipPathUnits="userSpaceOnUse" id="clipPath17">
        <path d="M-70 -13 L140 -13 L140 26 L-70 26 L-70 -13 Z" />
      </clipPath>
    </defs>
    <g style="fill:white; text-rendering:geometricPrecision; stroke:white;">
      <rect x="0" y="0" width="406" style="stroke:none;" height="268" />
      <rect x="8" y="38" transform="translate(-8,-38)" width="405" style="fill:none; stroke:black;" height="267" />
      <text x="15" y="55" transform="translate(-8,-38)" style="fill:black; stroke:none; font-weight:bold;" xml:space="preserve">sd</text>
      <text x="36" y="55" transform="translate(-8,-38)" style="fill:black; stroke:none;" xml:space="preserve">Jelgenerátorok léptetése</text>
      <line transform="translate(-8,-38)" x1="8" x2="172" y1="62" style="fill:none; stroke:black;" y2="62" />
      <line transform="translate(-8,-38)" x1="178" x2="178" y1="38" style="fill:none; stroke:black;" y2="52" />
      <line transform="translate(-8,-38)" x1="178" x2="172" y1="52" style="fill:none; stroke:black;" y2="62" />
    </g>
    <g transform="translate(152,34)" style="font-size:11; stroke-linecap:butt; text-rendering:geometricPrecision; font-family:sans-serif; stroke-linejoin:round; stroke-miterlimit:0;">
      <rect x="0" y="0" width="79" style="clip-path:url(#clipPath1); fill:none;" height="35" />
      <line x1="39" x2="39" y1="35" style="clip-path:url(#clipPath1); fill:none; stroke-linejoin:bevel; stroke-dasharray:8,3;" y2="220" />
    </g>
    <g transform="translate(252,34)" style="font-size:11; stroke-linecap:butt; text-rendering:geometricPrecision; font-family:sans-serif; stroke-linejoin:round; stroke-miterlimit:0;">
      <rect x="0" y="0" width="115" style="clip-path:url(#clipPath2); fill:none;" height="35" />
      <line x1="115" x2="119" y1="4" style="clip-path:url(#clipPath2); fill:none;" y2="4" />
      <line x1="119" x2="119" y1="4" style="clip-path:url(#clipPath2); fill:none;" y2="39" />
      <line x1="119" x2="4" y1="39" style="clip-path:url(#clipPath2); fill:none;" y2="39" />
      <line x1="119" x2="4" y1="39" style="clip-path:url(#clipPath2); fill:none;" y2="39" />
      <line x1="4" x2="4" y1="39" style="clip-path:url(#clipPath2); fill:none;" y2="35" />
      <line x1="57" x2="57" y1="35" style="clip-path:url(#clipPath2); fill:none; stroke-linejoin:bevel; stroke-dasharray:8,3;" y2="220" />
    </g>
    <g transform="translate(189,81)" style="font-size:11; fill:white; text-rendering:geometricPrecision; font-family:sans-serif; stroke:white;">
      <rect x="0" y="0" width="7" style="clip-path:url(#clipPath3); stroke:none;" height="134" />
    </g>
    <g transform="translate(189,81)" style="font-size:11; stroke-linecap:butt; text-rendering:geometricPrecision; font-family:sans-serif; stroke-linejoin:round; stroke-miterlimit:0;">
      <rect x="0" y="0" width="7" style="clip-path:url(#clipPath3); fill:none;" height="134" />
    </g>
    <g transform="translate(12,34)" style="font-size:11; fill:white; text-rendering:geometricPrecision; font-family:sans-serif; stroke:white;">
      <rect x="0" y="0" width="119" style="clip-path:url(#clipPath2); stroke:none;" height="35" />
    </g>
    <g transform="translate(12,34)" style="font-size:11; stroke-linecap:butt; text-rendering:geometricPrecision; font-family:sans-serif; stroke-linejoin:round; stroke-miterlimit:0;">
      <rect x="0" y="0" width="119" style="clip-path:url(#clipPath2); fill:none;" height="35" />
      <line x1="59" x2="59" y1="35" style="clip-path:url(#clipPath2); fill:none; stroke-linejoin:bevel; stroke-dasharray:8,3;" y2="220" />
    </g>
    <g transform="translate(68,94)" style="font-size:11; fill:white; text-rendering:geometricPrecision; font-family:sans-serif; stroke:white;">
      <rect x="0" y="0" width="7" style="clip-path:url(#clipPath4); stroke:none;" height="137" />
    </g>
    <g transform="translate(68,94)" style="font-size:11; stroke-linecap:butt; text-rendering:geometricPrecision; font-family:sans-serif; stroke-linejoin:round; stroke-miterlimit:0;">
      <rect x="0" y="0" width="7" style="clip-path:url(#clipPath4); fill:none;" height="137" />
    </g>
    <g transform="translate(172,114)" style="font-size:11; stroke-linecap:butt; text-rendering:geometricPrecision; font-family:sans-serif; stroke-linejoin:round; font-weight:bold; stroke-miterlimit:0;">
      <rect x="0" y="0" width="220" style="clip-path:url(#clipPath5); fill:none;" height="90" />
    </g>
    <g transform="translate(172,114)" style="font-size:11; fill:white; text-rendering:geometricPrecision; font-family:sans-serif; stroke:white; font-weight:bold;">
      <path d="M32 0 L32 9 L26 17 L0 17 L0 0 Z" style="clip-path:url(#clipPath5); stroke:none;" />
    </g>
    <g transform="translate(172,114)" style="font-size:11; stroke-linecap:butt; text-rendering:geometricPrecision; font-family:sans-serif; stroke-linejoin:round; font-weight:bold; stroke-miterlimit:0;">
      <path d="M32 0 L32 9 L26 17 L0 17 L0 0 Z" style="fill:none; clip-path:url(#clipPath5);" />
    </g>
    <g transform="translate(172,114)" style="text-rendering:geometricPrecision; font-size:11; font-weight:bold; font-family:sans-serif;">
      <text x="4" y="12" style="clip-path:url(#clipPath6); stroke:none;" xml:space="preserve">loop</text>
    </g>
    <g transform="translate(308,180)" style="font-size:11; fill:white; text-rendering:geometricPrecision; font-family:sans-serif; stroke:white;">
      <rect x="0" y="0" width="8" style="clip-path:url(#clipPath7); stroke:none;" height="12" />
    </g>
    <g transform="translate(308,180)" style="font-size:11; stroke-linecap:butt; text-rendering:geometricPrecision; font-family:sans-serif; stroke-linejoin:round; stroke-miterlimit:0;">
      <rect x="0" y="0" width="8" style="clip-path:url(#clipPath7); fill:none;" height="12" />
    </g>
    <g transform="translate(172,132)" style="font-size:11; fill:white; text-rendering:geometricPrecision; font-family:sans-serif; stroke:white;">
      <rect x="28" y="5" width="182" style="clip-path:url(#clipPath8); stroke:none;" height="15" />
    </g>
    <g style="text-rendering:geometricPrecision; font-size:11; font-family:sans-serif;" transform="translate(200,137)">
      <text x="12" y="12" style="clip-path:url(#clipPath9); stroke:none;" xml:space="preserve">[sequenceGens minden elemére]</text>
    </g>
    <g style="text-rendering:geometricPrecision; font-size:11; font-family:sans-serif;" transform="translate(12,34)">
      <text x="4" y="12" style="clip-path:url(#clipPath11); stroke:none;" xml:space="preserve">simulation : Simulation</text>
    </g>
    <g style="text-rendering:geometricPrecision; font-size:11; font-family:sans-serif;" transform="translate(252,34)">
      <text x="19" y="12" style="clip-path:url(#clipPath12); stroke:none;" xml:space="preserve">sequenceGens :</text>
      <text x="10" y="27" style="clip-path:url(#clipPath12); stroke:none;" xml:space="preserve">SequenceGenerator</text>
    </g>
    <g style="text-rendering:geometricPrecision; font-size:11; font-family:sans-serif;" transform="translate(152,34)">
      <text x="4" y="12" style="clip-path:url(#clipPath13); stroke:none;" xml:space="preserve">circuit : Circuit</text>
    </g>
    <g transform="translate(151,138)" style="font-size:11; stroke-linecap:butt; text-rendering:geometricPrecision; font-family:sans-serif; stroke-linejoin:round;">
      <line x1="45" x2="157" y1="46" style="clip-path:url(#clipPath14); fill:none;" y2="46" />
      <polygon style="clip-path:url(#clipPath14); stroke:none;" points=" 157 46 145 40 145 52" />
      <polygon style="fill:none; clip-path:url(#clipPath14);" points=" 157 46 145 40 145 52" />
    </g>
    <g transform="translate(29,48)" style="font-size:11; stroke-linecap:butt; text-rendering:geometricPrecision; font-family:sans-serif; stroke-linejoin:round;">
      <line x1="45" x2="160" y1="46" style="clip-path:url(#clipPath15); fill:none;" y2="46" />
      <polygon style="clip-path:url(#clipPath15); stroke:none;" points=" 160 46 148 40 148 52" />
      <polygon style="fill:none; clip-path:url(#clipPath15);" points=" 160 46 148 40 148 52" />
    </g>
    <g style="text-rendering:geometricPrecision; font-size:11; font-family:sans-serif;" transform="translate(72,74)">
      <text x="9" y="11" style="clip-path:url(#clipPath16); stroke:none;" xml:space="preserve">1: stepGenerators()</text>
    </g>
    <g style="text-rendering:geometricPrecision; font-size:11; font-family:sans-serif;" transform="translate(212,164)">
      <text x="10" y="11" style="clip-path:url(#clipPath17); stroke:none;" xml:space="preserve">1.1: step()</text>
    </g>
  </g>
</svg>
