<?xml version="1.0" encoding="UTF-8"?>

<!DOCTYPE svg PUBLIC '-//W3C//DTD SVG 1.0//EN' 'http://www.w3.org/TR/2001/REC-SVG-20010904/DTD/svg10.dtd'>
<svg style="fill-opacity:1; color-rendering:auto; color-interpolation:auto; stroke:black; text-rendering:auto; stroke-linecap:square; stroke-miterlimit:10; stroke-opacity:1; shape-rendering:auto; fill:black; stroke-dasharray:none; font-weight:normal; stroke-width:1; font-family:&apos;Dialog&apos;; font-style:normal; stroke-linejoin:miter; font-size:12; stroke-dashoffset:0; image-rendering:auto;" xmlns="http://www.w3.org/2000/svg" width="316" xmlns:xlink="http://www.w3.org/1999/xlink" height="408">
  <!--Generated by the Batik Graphics2D SVG Generator-->
  <defs id="genericDefs" />
  <g>
    <defs id="defs1">
      <clipPath clipPathUnits="userSpaceOnUse" id="clipPath1">
        <path d="M-3 -3 L87 -3 L87 367 L-3 367 L-3 -3 Z" />
      </clipPath>
      <clipPath clipPathUnits="userSpaceOnUse" id="clipPath2">
        <path d="M-3 -3 L117 -3 L117 367 L-3 367 L-3 -3 Z" />
      </clipPath>
      <clipPath clipPathUnits="userSpaceOnUse" id="clipPath3">
        <path d="M-3 -3 L15 -3 L15 267 L-3 267 L-3 -3 Z" />
      </clipPath>
      <clipPath clipPathUnits="userSpaceOnUse" id="clipPath4">
        <path d="M-3 -3 L15 -3 L15 247 L-3 247 L-3 -3 Z" />
      </clipPath>
      <clipPath clipPathUnits="userSpaceOnUse" id="clipPath5">
        <path d="M-3 -3 L187 -3 L187 107 L-3 107 L-3 -3 Z" />
      </clipPath>
      <clipPath clipPathUnits="userSpaceOnUse" id="clipPath6">
        <path d="M0 0 L27 0 L27 18 L0 18 L0 0 Z" />
      </clipPath>
      <clipPath clipPathUnits="userSpaceOnUse" id="clipPath7">
        <path d="M-3 -3 L187 -3 L187 89 L-3 89 L-3 -3 Z" />
      </clipPath>
      <clipPath clipPathUnits="userSpaceOnUse" id="clipPath8">
        <path d="M0 0 L146 0 L146 15 L0 15 L0 0 Z" />
      </clipPath>
      <clipPath clipPathUnits="userSpaceOnUse" id="clipPath9">
        <path d="M0 0 L0 4 L180 4 L180 0 Z" />
      </clipPath>
      <clipPath clipPathUnits="userSpaceOnUse" id="clipPath10">
        <path d="M-3 -3 L187 -3 L187 87 L-3 87 L-3 -3 Z" />
      </clipPath>
      <clipPath clipPathUnits="userSpaceOnUse" id="clipPath11">
        <path d="M0 0 L0 80 L180 80 L180 0 Z" />
      </clipPath>
      <clipPath clipPathUnits="userSpaceOnUse" id="clipPath12">
        <path d="M-110 -30 L220 -30 L220 60 L-110 60 L-110 -30 Z" />
      </clipPath>
      <clipPath clipPathUnits="userSpaceOnUse" id="clipPath13">
        <path d="M-80 -15 L160 -15 L160 30 L-80 30 L-80 -15 Z" />
      </clipPath>
      <clipPath clipPathUnits="userSpaceOnUse" id="clipPath14">
        <path d="M0 0 L221 0 L221 104 L0 104 L0 0 Z" />
      </clipPath>
      <clipPath clipPathUnits="userSpaceOnUse" id="clipPath15">
        <path d="M0 0 L104 0 L104 104 L0 104 L0 0 Z" />
      </clipPath>
      <clipPath clipPathUnits="userSpaceOnUse" id="clipPath16">
        <path d="M-64 -16 L128 -16 L128 32 L-64 32 L-64 -16 Z" />
      </clipPath>
      <clipPath clipPathUnits="userSpaceOnUse" id="clipPath17">
        <path d="M-65 -16 L130 -16 L130 32 L-65 32 L-65 -16 Z" />
      </clipPath>
      <clipPath clipPathUnits="userSpaceOnUse" id="clipPath18">
        <path d="M-81 -15 L162 -15 L162 30 L-81 30 L-81 -15 Z" />
      </clipPath>
    </defs>
    <g style="fill:white; text-rendering:geometricPrecision; stroke:white;">
      <rect x="0" y="0" width="316" style="stroke:none;" height="408" />
      <rect x="8" y="38" transform="translate(-8,-38)" width="315" style="fill:none; stroke:black;" height="407" />
      <text x="15" y="55" transform="translate(-8,-38)" style="fill:black; stroke:none; font-weight:bold;" xml:space="preserve">sd</text>
      <text x="36" y="55" transform="translate(-8,-38)" style="fill:black; stroke:none;" xml:space="preserve">Komponens kiértékelése</text>
      <line transform="translate(-8,-38)" x1="8" x2="174" y1="62" style="fill:none; stroke:black;" y2="62" />
      <line transform="translate(-8,-38)" x1="180" x2="180" y1="38" style="fill:none; stroke:black;" y2="52" />
      <line transform="translate(-8,-38)" x1="180" x2="174" y1="52" style="fill:none; stroke:black;" y2="62" />
    </g>
    <g transform="translate(12,34)" style="font-size:11; fill:white; text-rendering:geometricPrecision; font-family:sans-serif; stroke:white;">
      <rect x="0" y="0" width="79" style="clip-path:url(#clipPath1); stroke:none;" height="35" />
    </g>
    <g transform="translate(12,34)" style="font-size:11; stroke-linecap:butt; text-rendering:geometricPrecision; font-family:sans-serif; stroke-linejoin:round; stroke-miterlimit:0;">
      <rect x="0" y="0" width="79" style="clip-path:url(#clipPath1); fill:none;" height="35" />
      <line x1="39" x2="39" y1="35" style="clip-path:url(#clipPath1); fill:none; stroke-linejoin:bevel; stroke-dasharray:8,3;" y2="360" />
    </g>
    <g transform="translate(122,34)" style="font-size:11; fill:white; text-rendering:geometricPrecision; font-family:sans-serif; stroke:white;">
      <rect x="0" y="0" width="109" style="clip-path:url(#clipPath2); stroke:none;" height="35" />
    </g>
    <g transform="translate(122,34)" style="font-size:11; stroke-linecap:butt; text-rendering:geometricPrecision; font-family:sans-serif; stroke-linejoin:round; stroke-miterlimit:0;">
      <rect x="0" y="0" width="109" style="clip-path:url(#clipPath2); fill:none;" height="35" />
      <line x1="54" x2="54" y1="35" style="clip-path:url(#clipPath2); fill:none; stroke-linejoin:bevel; stroke-dasharray:8,3;" y2="360" />
    </g>
    <g transform="translate(48,114)" style="font-size:11; fill:white; text-rendering:geometricPrecision; font-family:sans-serif; stroke:white;">
      <rect x="0" y="0" width="8" style="clip-path:url(#clipPath3); stroke:none;" height="260" />
    </g>
    <g transform="translate(48,114)" style="font-size:11; stroke-linecap:butt; text-rendering:geometricPrecision; font-family:sans-serif; stroke-linejoin:round; stroke-miterlimit:0;">
      <rect x="0" y="0" width="8" style="clip-path:url(#clipPath3); fill:none;" height="260" />
    </g>
    <g transform="translate(173,114)" style="font-size:11; fill:white; text-rendering:geometricPrecision; font-family:sans-serif; stroke:white;">
      <rect x="0" y="0" width="8" style="clip-path:url(#clipPath4); stroke:none;" height="240" />
    </g>
    <g transform="translate(173,114)" style="font-size:11; stroke-linecap:butt; text-rendering:geometricPrecision; font-family:sans-serif; stroke-linejoin:round; stroke-miterlimit:0;">
      <rect x="0" y="0" width="8" style="clip-path:url(#clipPath4); fill:none;" height="240" />
    </g>
    <g transform="translate(112,134)" style="font-size:11; stroke-linecap:butt; text-rendering:geometricPrecision; font-family:sans-serif; stroke-linejoin:round; font-weight:bold; stroke-miterlimit:0;">
      <rect x="0" y="0" width="180" style="clip-path:url(#clipPath5); fill:none;" height="100" />
    </g>
    <g transform="translate(112,134)" style="font-size:11; fill:white; text-rendering:geometricPrecision; font-family:sans-serif; stroke:white; font-weight:bold;">
      <path d="M26 0 L26 9 L20 17 L0 17 L0 0 Z" style="clip-path:url(#clipPath5); stroke:none;" />
    </g>
    <g transform="translate(112,134)" style="font-size:11; stroke-linecap:butt; text-rendering:geometricPrecision; font-family:sans-serif; stroke-linejoin:round; font-weight:bold; stroke-miterlimit:0;">
      <path d="M26 0 L26 9 L20 17 L0 17 L0 0 Z" style="fill:none; clip-path:url(#clipPath5);" />
    </g>
    <g transform="translate(112,134)" style="text-rendering:geometricPrecision; font-size:11; font-weight:bold; font-family:sans-serif;">
      <text x="4" y="12" style="clip-path:url(#clipPath6); stroke:none;" xml:space="preserve">opt</text>
    </g>
    <g transform="translate(112,152)" style="font-size:11; fill:white; text-rendering:geometricPrecision; font-family:sans-serif; stroke:white;">
      <rect x="28" y="5" width="146" style="clip-path:url(#clipPath7); stroke:none;" height="15" />
    </g>
    <g style="text-rendering:geometricPrecision; font-size:11; font-family:sans-serif;" transform="translate(140,157)">
      <text x="9" y="12" style="clip-path:url(#clipPath8); stroke:none;" xml:space="preserve">[alreadyEvaluated == true]</text>
    </g>
    <g transform="translate(122,254)" style="font-size:11; fill:white; text-rendering:geometricPrecision; font-family:sans-serif; stroke:white;">
      <polygon style="clip-path:url(#clipPath10); stroke:none;" points=" 0 0 164 0 179 15 164 15 164 0 179 15 179 79 0 79" />
    </g>
    <g transform="translate(122,254)" style="font-size:11; stroke-linecap:butt; text-rendering:geometricPrecision; font-family:sans-serif; stroke-linejoin:round; stroke-miterlimit:0;">
      <polygon style="fill:none; clip-path:url(#clipPath10);" points=" 0 0 164 0 179 15 164 15 164 0 179 15 179 79 0 79" />
    </g>
    <g style="text-rendering:geometricPrecision; font-size:11; font-family:&apos;Tahoma&apos;;" transform="translate(122,254)">
      <path d="M3.875 14.9704 L3.875 6.3767 L5.0156 6.3767 L5.0156 10.6423 L9.2812 6.3767 L10.8281 6.3767 L7.2188 9.8611 L10.9844 14.9704 L9.4844 14.9704 L6.4219 10.6267 L5.0156 11.9861 L5.0156 14.9704 L3.875 14.9704 ZM11.7969 7.5954 L11.7969 6.3767 L12.8594 6.3767 L12.8594 7.5954 L11.7969 7.5954 ZM11.7969 14.9704 L11.7969 8.7517 L12.8594 8.7517 L12.8594 14.9704 L11.7969 14.9704 ZM19.0469 12.9704 L20.1406 13.0954 Q19.8906 14.0486 19.1875 14.5798 Q18.4844 15.1111 17.4062 15.1111 Q16.0469 15.1111 15.2422 14.2673 Q14.4375 13.4236 14.4375 11.9079 Q14.4375 10.3454 15.25 9.4782 Q16.0625 8.6111 17.3438 8.6111 Q18.5938 8.6111 19.3828 9.4548 Q20.1719 10.2986 20.1719 11.8454 Q20.1719 11.9392 20.1719 12.1267 L15.5312 12.1267 Q15.5938 13.1579 16.1094 13.697 Q16.625 14.2361 17.4062 14.2361 Q17.9844 14.2361 18.3984 13.9314 Q18.8125 13.6267 19.0469 12.9704 ZM15.5938 11.2673 L19.0625 11.2673 Q19 10.4704 18.6719 10.0798 Q18.1562 9.4704 17.3594 9.4704 Q16.625 9.4704 16.1328 9.9548 Q15.6406 10.4392 15.5938 11.2673 ZM16.125 6.9704 L16.9062 5.3298 L18.2969 5.3298 L17 6.9704 L16.125 6.9704 ZM21.7812 14.9704 L21.7812 8.7517 L22.7344 8.7517 L22.7344 9.6892 Q23.0938 9.0329 23.3984 8.822 Q23.7031 8.6111 24.0781 8.6111 Q24.6094 8.6111 25.1562 8.9392 L24.7969 9.9236 Q24.4062 9.6892 24.0312 9.6892 Q23.6719 9.6892 23.3984 9.9001 Q23.125 10.1111 23.0156 10.4861 Q22.8281 11.0486 22.8281 11.7048 L22.8281 14.9704 L21.7812 14.9704 ZM28.0938 14.0329 L28.25 14.9548 Q27.7969 15.0486 27.4531 15.0486 Q26.875 15.0486 26.5625 14.8689 Q26.25 14.6892 26.1172 14.3923 Q25.9844 14.0954 25.9844 13.1423 L25.9844 9.5642 L25.2188 9.5642 L25.2188 8.7517 L25.9844 8.7517 L25.9844 7.2048 L27.0312 6.5798 L27.0312 8.7517 L28.0938 8.7517 L28.0938 9.5642 L27.0312 9.5642 L27.0312 13.2048 Q27.0312 13.6579 27.0859 13.7829 Q27.1406 13.9079 27.2656 13.9861 Q27.3906 14.0642 27.625 14.0642 Q27.8125 14.0642 28.0938 14.0329 ZM33.0469 12.9704 L34.1406 13.0954 Q33.8906 14.0486 33.1875 14.5798 Q32.4844 15.1111 31.4062 15.1111 Q30.0469 15.1111 29.2422 14.2673 Q28.4375 13.4236 28.4375 11.9079 Q28.4375 10.3454 29.25 9.4782 Q30.0625 8.6111 31.3438 8.6111 Q32.5938 8.6111 33.3828 9.4548 Q34.1719 10.2986 34.1719 11.8454 Q34.1719 11.9392 34.1719 12.1267 L29.5312 12.1267 Q29.5938 13.1579 30.1094 13.697 Q30.625 14.2361 31.4062 14.2361 Q31.9844 14.2361 32.3984 13.9314 Q32.8125 13.6267 33.0469 12.9704 ZM29.5938 11.2673 L33.0625 11.2673 Q33 10.4704 32.6719 10.0798 Q32.1562 9.4704 31.3594 9.4704 Q30.625 9.4704 30.1328 9.9548 Q29.6406 10.4392 29.5938 11.2673 ZM30.125 6.9704 L30.9062 5.3298 L32.2969 5.3298 L31 6.9704 L30.125 6.9704 ZM35.7969 14.9704 L35.7969 6.3767 L36.8594 6.3767 L36.8594 11.2829 L39.3438 8.7517 L40.7188 8.7517 L38.3281 11.0486 L40.9531 14.9704 L39.6562 14.9704 L37.5938 11.7829 L36.8594 12.5017 L36.8594 14.9704 L35.7969 14.9704 ZM46.0469 12.9704 L47.1406 13.0954 Q46.8906 14.0486 46.1875 14.5798 Q45.4844 15.1111 44.4062 15.1111 Q43.0469 15.1111 42.2422 14.2673 Q41.4375 13.4236 41.4375 11.9079 Q41.4375 10.3454 42.25 9.4782 Q43.0625 8.6111 44.3438 8.6111 Q45.5938 8.6111 46.3828 9.4548 Q47.1719 10.2986 47.1719 11.8454 Q47.1719 11.9392 47.1719 12.1267 L42.5312 12.1267 Q42.5938 13.1579 43.1094 13.697 Q43.625 14.2361 44.4062 14.2361 Q44.9844 14.2361 45.3984 13.9314 Q45.8125 13.6267 46.0469 12.9704 ZM42.5938 11.2673 L46.0625 11.2673 Q46 10.4704 45.6719 10.0798 Q45.1562 9.4704 44.3594 9.4704 Q43.625 9.4704 43.1328 9.9548 Q42.6406 10.4392 42.5938 11.2673 ZM48.7656 14.9704 L48.7656 6.3767 L49.8281 6.3767 L49.8281 14.9704 L48.7656 14.9704 ZM56.0469 12.9704 L57.1406 13.0954 Q56.8906 14.0486 56.1875 14.5798 Q55.4844 15.1111 54.4062 15.1111 Q53.0469 15.1111 52.2422 14.2673 Q51.4375 13.4236 51.4375 11.9079 Q51.4375 10.3454 52.25 9.4782 Q53.0625 8.6111 54.3438 8.6111 Q55.5938 8.6111 56.3828 9.4548 Q57.1719 10.2986 57.1719 11.8454 Q57.1719 11.9392 57.1719 12.1267 L52.5312 12.1267 Q52.5938 13.1579 53.1094 13.697 Q53.625 14.2361 54.4062 14.2361 Q54.9844 14.2361 55.3984 13.9314 Q55.8125 13.6267 56.0469 12.9704 ZM52.5938 11.2673 L56.0625 11.2673 Q56 10.4704 55.6719 10.0798 Q55.1562 9.4704 54.3594 9.4704 Q53.625 9.4704 53.1328 9.9548 Q52.6406 10.4392 52.5938 11.2673 ZM53.125 6.9704 L53.9062 5.3298 L55.2969 5.3298 L54 6.9704 L53.125 6.9704 ZM58.375 13.1111 L59.4062 12.9548 Q59.5 13.5798 59.8984 13.9079 Q60.2969 14.2361 61.0312 14.2361 Q61.75 14.2361 62.1016 13.947 Q62.4531 13.6579 62.4531 13.2517 Q62.4531 12.8923 62.1406 12.6892 Q61.9219 12.5486 61.0625 12.3298 Q59.9062 12.0329 59.4609 11.822 Q59.0156 11.6111 58.7812 11.2361 Q58.5469 10.8611 58.5469 10.3923 Q58.5469 9.9861 58.7344 9.6267 Q58.9219 9.2673 59.25 9.0329 Q59.5 8.8611 59.9219 8.7361 Q60.3438 8.6111 60.8438 8.6111 Q61.5625 8.6111 62.1172 8.822 Q62.6719 9.0329 62.9375 9.3923 Q63.2031 9.7517 63.2969 10.3454 L62.2656 10.4861 Q62.2031 10.0173 61.8672 9.7439 Q61.5312 9.4704 60.9062 9.4704 Q60.1875 9.4704 59.875 9.7126 Q59.5625 9.9548 59.5625 10.2829 Q59.5625 10.4861 59.6875 10.6423 Q59.8281 10.8142 60.0938 10.9236 Q60.25 10.9861 61.0312 11.1892 Q62.1562 11.5017 62.5938 11.6892 Q63.0312 11.8767 63.2812 12.2361 Q63.5312 12.5954 63.5312 13.1423 Q63.5312 13.6736 63.2266 14.1345 Q62.9219 14.5954 62.3438 14.8532 Q61.7656 15.1111 61.0312 15.1111 Q59.8125 15.1111 59.1797 14.6032 Q58.5469 14.0954 58.375 13.1111 ZM65.7969 7.5954 L65.7969 6.3767 L66.8594 6.3767 L66.8594 7.5954 L65.7969 7.5954 ZM65.7969 14.9704 L65.7969 8.7517 L66.8594 8.7517 L66.8594 14.9704 L65.7969 14.9704 ZM71.7656 14.9704 L71.7656 6.3767 L72.8281 6.3767 L72.8281 14.9704 L71.7656 14.9704 ZM74.4062 11.8611 Q74.4062 10.1267 75.3594 9.2986 Q76.1562 8.6111 77.3125 8.6111 Q78.5938 8.6111 79.4141 9.447 Q80.2344 10.2829 80.2344 11.7673 Q80.2344 12.9704 79.875 13.6579 Q79.5156 14.3454 78.8203 14.7282 Q78.125 15.1111 77.3125 15.1111 Q76.0156 15.1111 75.2109 14.2751 Q74.4062 13.4392 74.4062 11.8611 ZM75.4844 11.8611 Q75.4844 13.0486 76.0078 13.6423 Q76.5312 14.2361 77.3125 14.2361 Q78.1094 14.2361 78.625 13.6423 Q79.1406 13.0486 79.1406 11.8298 Q79.1406 10.6736 78.6172 10.0798 Q78.0938 9.4861 77.3125 9.4861 Q76.5312 9.4861 76.0078 10.072 Q75.4844 10.6579 75.4844 11.8611 ZM81.5938 15.4861 L82.625 15.6423 Q82.6875 16.1111 82.9844 16.3298 Q83.375 16.6267 84.0469 16.6267 Q84.7812 16.6267 85.1797 16.3298 Q85.5781 16.0329 85.7188 15.5173 Q85.8125 15.1892 85.7969 14.1579 Q85.1094 14.9704 84.0781 14.9704 Q82.7969 14.9704 82.0938 14.0407 Q81.3906 13.1111 81.3906 11.8298 Q81.3906 10.9392 81.7109 10.1814 Q82.0312 9.4236 82.6406 9.0173 Q83.25 8.6111 84.0781 8.6111 Q85.1875 8.6111 85.9062 9.5017 L85.9062 8.7517 L86.875 8.7517 L86.875 14.1267 Q86.875 15.5798 86.5781 16.1892 Q86.2812 16.7986 85.6406 17.1501 Q85 17.5017 84.0625 17.5017 Q82.9531 17.5017 82.2656 17.0017 Q81.5781 16.5017 81.5938 15.4861 ZM82.4688 11.7517 Q82.4688 12.9704 82.9531 13.5329 Q83.4375 14.0954 84.1719 14.0954 Q84.9062 14.0954 85.3984 13.5329 Q85.8906 12.9704 85.8906 11.7829 Q85.8906 10.6423 85.3828 10.0642 Q84.875 9.4861 84.1562 9.4861 Q83.4531 9.4861 82.9609 10.0564 Q82.4688 10.6267 82.4688 11.7517 ZM88.7969 7.5954 L88.7969 6.3767 L89.8594 6.3767 L89.8594 7.5954 L88.7969 7.5954 ZM88.7969 14.9704 L88.7969 8.7517 L89.8594 8.7517 L89.8594 14.9704 L88.7969 14.9704 ZM91.7969 14.9704 L91.7969 6.3767 L92.8594 6.3767 L92.8594 11.2829 L95.3438 8.7517 L96.7188 8.7517 L94.3281 11.0486 L96.9531 14.9704 L95.6562 14.9704 L93.5938 11.7829 L92.8594 12.5017 L92.8594 14.9704 L91.7969 14.9704 ZM101.8594 14.2048 Q101.2656 14.7048 100.7266 14.9079 Q100.1875 15.1111 99.5625 15.1111 Q98.5312 15.1111 97.9844 14.6111 Q97.4375 14.1111 97.4375 13.3298 Q97.4375 12.8767 97.6406 12.4939 Q97.8438 12.1111 98.1875 11.8845 Q98.5312 11.6579 98.9531 11.5486 Q99.25 11.4548 99.8906 11.3767 Q101.1562 11.2361 101.7656 11.0173 Q101.7656 10.7986 101.7656 10.7517 Q101.7656 10.0954 101.4688 9.8298 Q101.0625 9.4861 100.2656 9.4861 Q99.5312 9.4861 99.1719 9.7439 Q98.8125 10.0017 98.6406 10.6579 L97.6094 10.5173 Q97.75 9.8611 98.0781 9.4548 Q98.4062 9.0486 99.0156 8.8298 Q99.625 8.6111 100.4219 8.6111 Q101.2188 8.6111 101.7188 8.7986 Q102.2188 8.9861 102.4531 9.2673 Q102.6875 9.5486 102.7812 9.9861 Q102.8281 10.2517 102.8281 10.9548 L102.8281 12.3611 Q102.8281 13.8298 102.8984 14.2204 Q102.9688 14.6111 103.1719 14.9704 L102.0625 14.9704 Q101.9062 14.6423 101.8594 14.2048 ZM101.7656 11.8454 Q101.1875 12.0798 100.0469 12.2517 Q99.3906 12.3454 99.125 12.4626 Q98.8594 12.5798 98.7109 12.7986 Q98.5625 13.0173 98.5625 13.2986 Q98.5625 13.7204 98.8828 14.0017 Q99.2031 14.2829 99.8125 14.2829 Q100.4219 14.2829 100.8984 14.0173 Q101.375 13.7517 101.5938 13.2829 Q101.7656 12.9236 101.7656 12.2361 L101.7656 11.8454 ZM105.0938 14.9704 L105.0938 13.7673 L106.2969 13.7673 L106.2969 14.9704 L105.0938 14.9704 Z" style="clip-path:url(#clipPath11); stroke:none;" />
      <path d="M7.8594 26.6892 L8.8906 26.8298 Q8.7188 27.8923 8.0156 28.5017 Q7.3125 29.1111 6.2969 29.1111 Q5.0156 29.1111 4.2422 28.2751 Q3.4688 27.4392 3.4688 25.8767 Q3.4688 24.8767 3.8047 24.1189 Q4.1406 23.3611 4.8203 22.9861 Q5.5 22.6111 6.3125 22.6111 Q7.3125 22.6111 7.9609 23.1189 Q8.6094 23.6267 8.7969 24.5798 L7.7656 24.7361 Q7.625 24.1111 7.25 23.7907 Q6.875 23.4704 6.3438 23.4704 Q5.5469 23.4704 5.0469 24.0407 Q4.5469 24.6111 4.5469 25.8454 Q4.5469 27.1111 5.0312 27.6736 Q5.5156 28.2361 6.2812 28.2361 Q6.9062 28.2361 7.3203 27.8611 Q7.7344 27.4861 7.8594 26.6892 ZM13.875 28.9704 L13.875 28.0486 Q13.1406 29.1111 11.8906 29.1111 Q11.3438 29.1111 10.8672 28.9001 Q10.3906 28.6892 10.1562 28.3689 Q9.9219 28.0486 9.8281 27.5798 Q9.7656 27.2829 9.7656 26.5954 L9.7656 22.7517 L10.8281 22.7517 L10.8281 26.2048 Q10.8281 27.0173 10.8906 27.3142 Q10.9844 27.7204 11.3047 27.9626 Q11.625 28.2048 12.1094 28.2048 Q12.5781 28.2048 12.9922 27.9626 Q13.4062 27.7204 13.5859 27.2986 Q13.7656 26.8767 13.7656 26.0798 L13.7656 22.7517 L14.8125 22.7517 L14.8125 28.9704 L13.875 28.9704 ZM16.7812 28.9704 L16.7812 22.7517 L17.7344 22.7517 L17.7344 23.6892 Q18.0938 23.0329 18.3984 22.822 Q18.7031 22.6111 19.0781 22.6111 Q19.6094 22.6111 20.1562 22.9392 L19.7969 23.9236 Q19.4062 23.6892 19.0312 23.6892 Q18.6719 23.6892 18.3984 23.9001 Q18.125 24.1111 18.0156 24.4861 Q17.8281 25.0486 17.8281 25.7048 L17.8281 28.9704 L16.7812 28.9704 ZM20.7812 28.9704 L20.7812 22.7517 L21.7344 22.7517 L21.7344 23.6892 Q22.0938 23.0329 22.3984 22.822 Q22.7031 22.6111 23.0781 22.6111 Q23.6094 22.6111 24.1562 22.9392 L23.7969 23.9236 Q23.4062 23.6892 23.0312 23.6892 Q22.6719 23.6892 22.3984 23.9001 Q22.125 24.1111 22.0156 24.4861 Q21.8281 25.0486 21.8281 25.7048 L21.8281 28.9704 L20.7812 28.9704 ZM29.0469 26.9704 L30.1406 27.0954 Q29.8906 28.0486 29.1875 28.5798 Q28.4844 29.1111 27.4062 29.1111 Q26.0469 29.1111 25.2422 28.2673 Q24.4375 27.4236 24.4375 25.9079 Q24.4375 24.3454 25.25 23.4782 Q26.0625 22.6111 27.3438 22.6111 Q28.5938 22.6111 29.3828 23.4548 Q30.1719 24.2986 30.1719 25.8454 Q30.1719 25.9392 30.1719 26.1267 L25.5312 26.1267 Q25.5938 27.1579 26.1094 27.697 Q26.625 28.2361 27.4062 28.2361 Q27.9844 28.2361 28.3984 27.9314 Q28.8125 27.6267 29.0469 26.9704 ZM25.5938 25.2673 L29.0625 25.2673 Q29 24.4704 28.6719 24.0798 Q28.1562 23.4704 27.3594 23.4704 Q26.625 23.4704 26.1328 23.9548 Q25.6406 24.4392 25.5938 25.2673 ZM31.7969 28.9704 L31.7969 22.7517 L32.7344 22.7517 L32.7344 23.6267 Q33.4219 22.6111 34.7188 22.6111 Q35.2812 22.6111 35.7578 22.8142 Q36.2344 23.0173 36.4688 23.3454 Q36.7031 23.6736 36.7969 24.1111 Q36.8438 24.4079 36.8438 25.1423 L36.8438 28.9704 L35.7969 28.9704 L35.7969 25.1892 Q35.7969 24.5329 35.6719 24.2204 Q35.5469 23.9079 35.2344 23.7126 Q34.9219 23.5173 34.5 23.5173 Q33.8281 23.5173 33.3359 23.947 Q32.8438 24.3767 32.8438 25.5642 L32.8438 28.9704 L31.7969 28.9704 ZM41.0938 28.0329 L41.25 28.9548 Q40.7969 29.0486 40.4531 29.0486 Q39.875 29.0486 39.5625 28.8689 Q39.25 28.6892 39.1172 28.3923 Q38.9844 28.0954 38.9844 27.1423 L38.9844 23.5642 L38.2188 23.5642 L38.2188 22.7517 L38.9844 22.7517 L38.9844 21.2048 L40.0312 20.5798 L40.0312 22.7517 L41.0938 22.7517 L41.0938 23.5642 L40.0312 23.5642 L40.0312 27.2048 Q40.0312 27.6579 40.0859 27.7829 Q40.1406 27.9079 40.2656 27.9861 Q40.3906 28.0642 40.625 28.0642 Q40.8125 28.0642 41.0938 28.0329 ZM44.375 28.9704 L41.0469 20.3767 L42.2812 20.3767 L44.5156 26.6267 Q44.7812 27.3767 44.9688 28.0329 Q45.1719 27.3298 45.4375 26.6267 L47.75 20.3767 L48.9062 20.3767 L45.5469 28.9704 L44.375 28.9704 ZM52.8594 28.2048 Q52.2656 28.7048 51.7266 28.9079 Q51.1875 29.1111 50.5625 29.1111 Q49.5312 29.1111 48.9844 28.6111 Q48.4375 28.1111 48.4375 27.3298 Q48.4375 26.8767 48.6406 26.4939 Q48.8438 26.1111 49.1875 25.8845 Q49.5312 25.6579 49.9531 25.5486 Q50.25 25.4548 50.8906 25.3767 Q52.1562 25.2361 52.7656 25.0173 Q52.7656 24.7986 52.7656 24.7517 Q52.7656 24.0954 52.4688 23.8298 Q52.0625 23.4861 51.2656 23.4861 Q50.5312 23.4861 50.1719 23.7439 Q49.8125 24.0017 49.6406 24.6579 L48.6094 24.5173 Q48.75 23.8611 49.0781 23.4548 Q49.4062 23.0486 50.0156 22.8298 Q50.625 22.6111 51.4219 22.6111 Q52.2188 22.6111 52.7188 22.7986 Q53.2188 22.9861 53.4531 23.2673 Q53.6875 23.5486 53.7812 23.9861 Q53.8281 24.2517 53.8281 24.9548 L53.8281 26.3611 Q53.8281 27.8298 53.8984 28.2204 Q53.9688 28.6111 54.1719 28.9704 L53.0625 28.9704 Q52.9062 28.6423 52.8594 28.2048 ZM52.7656 25.8454 Q52.1875 26.0798 51.0469 26.2517 Q50.3906 26.3454 50.125 26.4626 Q49.8594 26.5798 49.7109 26.7986 Q49.5625 27.0173 49.5625 27.2986 Q49.5625 27.7204 49.8828 28.0017 Q50.2031 28.2829 50.8125 28.2829 Q51.4219 28.2829 51.8984 28.0173 Q52.375 27.7517 52.5938 27.2829 Q52.7656 26.9236 52.7656 26.2361 L52.7656 25.8454 ZM55.7656 28.9704 L55.7656 20.3767 L56.8281 20.3767 L56.8281 28.9704 L55.7656 28.9704 ZM62.875 28.9704 L62.875 28.0486 Q62.1406 29.1111 60.8906 29.1111 Q60.3438 29.1111 59.8672 28.9001 Q59.3906 28.6892 59.1562 28.3689 Q58.9219 28.0486 58.8281 27.5798 Q58.7656 27.2829 58.7656 26.5954 L58.7656 22.7517 L59.8281 22.7517 L59.8281 26.2048 Q59.8281 27.0173 59.8906 27.3142 Q59.9844 27.7204 60.3047 27.9626 Q60.625 28.2048 61.1094 28.2048 Q61.5781 28.2048 61.9922 27.9626 Q62.4062 27.7204 62.5859 27.2986 Q62.7656 26.8767 62.7656 26.0798 L62.7656 22.7517 L63.8125 22.7517 L63.8125 28.9704 L62.875 28.9704 ZM70.0469 26.9704 L71.1406 27.0954 Q70.8906 28.0486 70.1875 28.5798 Q69.4844 29.1111 68.4062 29.1111 Q67.0469 29.1111 66.2422 28.2673 Q65.4375 27.4236 65.4375 25.9079 Q65.4375 24.3454 66.25 23.4782 Q67.0625 22.6111 68.3438 22.6111 Q69.5938 22.6111 70.3828 23.4548 Q71.1719 24.2986 71.1719 25.8454 Q71.1719 25.9392 71.1719 26.1267 L66.5312 26.1267 Q66.5938 27.1579 67.1094 27.697 Q67.625 28.2361 68.4062 28.2361 Q68.9844 28.2361 69.3984 27.9314 Q69.8125 27.6267 70.0469 26.9704 ZM66.5938 25.2673 L70.0625 25.2673 Q70 24.4704 69.6719 24.0798 Q69.1562 23.4704 68.3594 23.4704 Q67.625 23.4704 67.1328 23.9548 Q66.6406 24.4392 66.5938 25.2673 ZM72.375 27.1111 L73.4062 26.9548 Q73.5 27.5798 73.8984 27.9079 Q74.2969 28.2361 75.0312 28.2361 Q75.75 28.2361 76.1016 27.947 Q76.4531 27.6579 76.4531 27.2517 Q76.4531 26.8923 76.1406 26.6892 Q75.9219 26.5486 75.0625 26.3298 Q73.9062 26.0329 73.4609 25.822 Q73.0156 25.6111 72.7812 25.2361 Q72.5469 24.8611 72.5469 24.3923 Q72.5469 23.9861 72.7344 23.6267 Q72.9219 23.2673 73.25 23.0329 Q73.5 22.8611 73.9219 22.7361 Q74.3438 22.6111 74.8438 22.6111 Q75.5625 22.6111 76.1172 22.822 Q76.6719 23.0329 76.9375 23.3923 Q77.2031 23.7517 77.2969 24.3454 L76.2656 24.4861 Q76.2031 24.0173 75.8672 23.7439 Q75.5312 23.4704 74.9062 23.4704 Q74.1875 23.4704 73.875 23.7126 Q73.5625 23.9548 73.5625 24.2829 Q73.5625 24.4861 73.6875 24.6423 Q73.8281 24.8142 74.0938 24.9236 Q74.25 24.9861 75.0312 25.1892 Q76.1562 25.5017 76.5938 25.6892 Q77.0312 25.8767 77.2812 26.2361 Q77.5312 26.5954 77.5312 27.1423 Q77.5312 27.6736 77.2266 28.1345 Q76.9219 28.5954 76.3438 28.8532 Q75.7656 29.1111 75.0312 29.1111 Q73.8125 29.1111 73.1797 28.6032 Q72.5469 28.0954 72.375 27.1111 ZM79.375 26.3923 L79.375 25.3298 L82.625 25.3298 L82.625 26.3923 L79.375 26.3923 ZM84.7656 28.9704 L83.7812 28.9704 L83.7812 20.3767 L84.8438 20.3767 L84.8438 23.4392 Q85.5156 22.6111 86.5469 22.6111 Q87.125 22.6111 87.6328 22.8376 Q88.1406 23.0642 88.4766 23.4861 Q88.8125 23.9079 89 24.5017 Q89.1875 25.0954 89.1875 25.7673 Q89.1875 27.3611 88.3906 28.2361 Q87.5938 29.1111 86.5 29.1111 Q85.3906 29.1111 84.7656 28.1892 L84.7656 28.9704 ZM84.75 25.8142 Q84.75 26.9236 85.0625 27.4236 Q85.5625 28.2361 86.4062 28.2361 Q87.0938 28.2361 87.6016 27.6423 Q88.1094 27.0486 88.1094 25.8454 Q88.1094 24.6267 87.625 24.0486 Q87.1406 23.4704 86.4531 23.4704 Q85.7656 23.4704 85.2578 24.072 Q84.75 24.6736 84.75 25.8142 ZM94.8594 28.2048 Q94.2656 28.7048 93.7266 28.9079 Q93.1875 29.1111 92.5625 29.1111 Q91.5312 29.1111 90.9844 28.6111 Q90.4375 28.1111 90.4375 27.3298 Q90.4375 26.8767 90.6406 26.4939 Q90.8438 26.1111 91.1875 25.8845 Q91.5312 25.6579 91.9531 25.5486 Q92.25 25.4548 92.8906 25.3767 Q94.1562 25.2361 94.7656 25.0173 Q94.7656 24.7986 94.7656 24.7517 Q94.7656 24.0954 94.4688 23.8298 Q94.0625 23.4861 93.2656 23.4861 Q92.5312 23.4861 92.1719 23.7439 Q91.8125 24.0017 91.6406 24.6579 L90.6094 24.5173 Q90.75 23.8611 91.0781 23.4548 Q91.4062 23.0486 92.0156 22.8298 Q92.625 22.6111 93.4219 22.6111 Q94.2188 22.6111 94.7188 22.7986 Q95.2188 22.9861 95.4531 23.2673 Q95.6875 23.5486 95.7812 23.9861 Q95.8281 24.2517 95.8281 24.9548 L95.8281 26.3611 Q95.8281 27.8298 95.8984 28.2204 Q95.9688 28.6111 96.1719 28.9704 L95.0625 28.9704 Q94.9062 28.6423 94.8594 28.2048 ZM94.7656 25.8454 Q94.1875 26.0798 93.0469 26.2517 Q92.3906 26.3454 92.125 26.4626 Q91.8594 26.5798 91.7109 26.7986 Q91.5625 27.0173 91.5625 27.2986 Q91.5625 27.7204 91.8828 28.0017 Q92.2031 28.2829 92.8125 28.2829 Q93.4219 28.2829 93.8984 28.0173 Q94.375 27.7517 94.5938 27.2829 Q94.7656 26.9236 94.7656 26.2361 L94.7656 25.8454 ZM105.0469 26.9704 L106.1406 27.0954 Q105.8906 28.0486 105.1875 28.5798 Q104.4844 29.1111 103.4062 29.1111 Q102.0469 29.1111 101.2422 28.2673 Q100.4375 27.4236 100.4375 25.9079 Q100.4375 24.3454 101.25 23.4782 Q102.0625 22.6111 103.3438 22.6111 Q104.5938 22.6111 105.3828 23.4548 Q106.1719 24.2986 106.1719 25.8454 Q106.1719 25.9392 106.1719 26.1267 L101.5312 26.1267 Q101.5938 27.1579 102.1094 27.697 Q102.625 28.2361 103.4062 28.2361 Q103.9844 28.2361 104.3984 27.9314 Q104.8125 27.6267 105.0469 26.9704 ZM101.5938 25.2673 L105.0625 25.2673 Q105 24.4704 104.6719 24.0798 Q104.1562 23.4704 103.3594 23.4704 Q102.625 23.4704 102.1328 23.9548 Q101.6406 24.4392 101.5938 25.2673 ZM107.7656 28.9704 L107.7656 20.3767 L108.8281 20.3767 L108.8281 28.9704 L107.7656 28.9704 ZM113.0938 28.0329 L113.25 28.9548 Q112.7969 29.0486 112.4531 29.0486 Q111.875 29.0486 111.5625 28.8689 Q111.25 28.6892 111.1172 28.3923 Q110.9844 28.0954 110.9844 27.1423 L110.9844 23.5642 L110.2188 23.5642 L110.2188 22.7517 L110.9844 22.7517 L110.9844 21.2048 L112.0312 20.5798 L112.0312 22.7517 L113.0938 22.7517 L113.0938 23.5642 L112.0312 23.5642 L112.0312 27.2048 Q112.0312 27.6579 112.0859 27.7829 Q112.1406 27.9079 112.2656 27.9861 Q112.3906 28.0642 112.625 28.0642 Q112.8125 28.0642 113.0938 28.0329 ZM117.8594 28.2048 Q117.2656 28.7048 116.7266 28.9079 Q116.1875 29.1111 115.5625 29.1111 Q114.5312 29.1111 113.9844 28.6111 Q113.4375 28.1111 113.4375 27.3298 Q113.4375 26.8767 113.6406 26.4939 Q113.8438 26.1111 114.1875 25.8845 Q114.5312 25.6579 114.9531 25.5486 Q115.25 25.4548 115.8906 25.3767 Q117.1562 25.2361 117.7656 25.0173 Q117.7656 24.7986 117.7656 24.7517 Q117.7656 24.0954 117.4688 23.8298 Q117.0625 23.4861 116.2656 23.4861 Q115.5312 23.4861 115.1719 23.7439 Q114.8125 24.0017 114.6406 24.6579 L113.6094 24.5173 Q113.75 23.8611 114.0781 23.4548 Q114.4062 23.0486 115.0156 22.8298 Q115.625 22.6111 116.4219 22.6111 Q117.2188 22.6111 117.7188 22.7986 Q118.2188 22.9861 118.4531 23.2673 Q118.6875 23.5486 118.7812 23.9861 Q118.8281 24.2517 118.8281 24.9548 L118.8281 26.3611 Q118.8281 27.8298 118.8984 28.2204 Q118.9688 28.6111 119.1719 28.9704 L118.0625 28.9704 Q117.9062 28.6423 117.8594 28.2048 ZM117.7656 25.8454 Q117.1875 26.0798 116.0469 26.2517 Q115.3906 26.3454 115.125 26.4626 Q114.8594 26.5798 114.7109 26.7986 Q114.5625 27.0173 114.5625 27.2986 Q114.5625 27.7204 114.8828 28.0017 Q115.2031 28.2829 115.8125 28.2829 Q116.4219 28.2829 116.8984 28.0173 Q117.375 27.7517 117.5938 27.2829 Q117.7656 26.9236 117.7656 26.2361 L117.7656 25.8454 ZM115.125 20.9704 L115.9062 19.3298 L117.2969 19.3298 L116 20.9704 L115.125 20.9704 ZM120.7812 28.9704 L120.7812 22.7517 L121.7344 22.7517 L121.7344 23.6892 Q122.0938 23.0329 122.3984 22.822 Q122.7031 22.6111 123.0781 22.6111 Q123.6094 22.6111 124.1562 22.9392 L123.7969 23.9236 Q123.4062 23.6892 123.0312 23.6892 Q122.6719 23.6892 122.3984 23.9001 Q122.125 24.1111 122.0156 24.4861 Q121.8281 25.0486 121.8281 25.7048 L121.8281 28.9704 L120.7812 28.9704 ZM124.4062 25.8611 Q124.4062 24.1267 125.3594 23.2986 Q126.1562 22.6111 127.3125 22.6111 Q128.5938 22.6111 129.4141 23.447 Q130.2344 24.2829 130.2344 25.7673 Q130.2344 26.9704 129.875 27.6579 Q129.5156 28.3454 128.8203 28.7282 Q128.125 29.1111 127.3125 29.1111 Q126.0156 29.1111 125.2109 28.2751 Q124.4062 27.4392 124.4062 25.8611 ZM125.4844 25.8611 Q125.4844 27.0486 126.0078 27.6423 Q126.5312 28.2361 127.3125 28.2361 Q128.1094 28.2361 128.625 27.6423 Q129.1406 27.0486 129.1406 25.8298 Q129.1406 24.6736 128.6172 24.0798 Q128.0938 23.4861 127.3125 23.4861 Q126.5312 23.4861 126.0078 24.072 Q125.4844 24.6579 125.4844 25.8611 ZM131.7656 28.9704 L131.7656 20.3767 L132.8281 20.3767 L132.8281 28.9704 L131.7656 28.9704 ZM134.7812 21.6111 L134.7812 20.3767 L135.8438 20.3767 L135.8438 21.6111 L134.7812 21.6111 ZM133.4531 31.3923 L133.6406 30.4861 Q133.9688 30.5642 134.1406 30.5642 Q134.4688 30.5642 134.625 30.3532 Q134.7812 30.1423 134.7812 29.2829 L134.7812 22.7517 L135.8438 22.7517 L135.8438 29.3142 Q135.8438 30.4548 135.5469 30.9079 Q135.1562 31.5017 134.2812 31.5017 Q133.8438 31.5017 133.4531 31.3923 ZM141.875 28.9704 L141.875 28.0486 Q141.1406 29.1111 139.8906 29.1111 Q139.3438 29.1111 138.8672 28.9001 Q138.3906 28.6892 138.1562 28.3689 Q137.9219 28.0486 137.8281 27.5798 Q137.7656 27.2829 137.7656 26.5954 L137.7656 22.7517 L138.8281 22.7517 L138.8281 26.2048 Q138.8281 27.0173 138.8906 27.3142 Q138.9844 27.7204 139.3047 27.9626 Q139.625 28.2048 140.1094 28.2048 Q140.5781 28.2048 140.9922 27.9626 Q141.4062 27.7204 141.5859 27.2986 Q141.7656 26.8767 141.7656 26.0798 L141.7656 22.7517 L142.8125 22.7517 L142.8125 28.9704 L141.875 28.9704 ZM144.7969 28.9704 L144.7969 20.3767 L145.8594 20.3767 L145.8594 25.2829 L148.3438 22.7517 L149.7188 22.7517 L147.3281 25.0486 L149.9531 28.9704 L148.6562 28.9704 L146.5938 25.7829 L145.8594 26.5017 L145.8594 28.9704 L144.7969 28.9704 ZM157.8594 28.2048 Q157.2656 28.7048 156.7266 28.9079 Q156.1875 29.1111 155.5625 29.1111 Q154.5312 29.1111 153.9844 28.6111 Q153.4375 28.1111 153.4375 27.3298 Q153.4375 26.8767 153.6406 26.4939 Q153.8438 26.1111 154.1875 25.8845 Q154.5312 25.6579 154.9531 25.5486 Q155.25 25.4548 155.8906 25.3767 Q157.1562 25.2361 157.7656 25.0173 Q157.7656 24.7986 157.7656 24.7517 Q157.7656 24.0954 157.4688 23.8298 Q157.0625 23.4861 156.2656 23.4861 Q155.5312 23.4861 155.1719 23.7439 Q154.8125 24.0017 154.6406 24.6579 L153.6094 24.5173 Q153.75 23.8611 154.0781 23.4548 Q154.4062 23.0486 155.0156 22.8298 Q155.625 22.6111 156.4219 22.6111 Q157.2188 22.6111 157.7188 22.7986 Q158.2188 22.9861 158.4531 23.2673 Q158.6875 23.5486 158.7812 23.9861 Q158.8281 24.2517 158.8281 24.9548 L158.8281 26.3611 Q158.8281 27.8298 158.8984 28.2204 Q158.9688 28.6111 159.1719 28.9704 L158.0625 28.9704 Q157.9062 28.6423 157.8594 28.2048 ZM157.7656 25.8454 Q157.1875 26.0798 156.0469 26.2517 Q155.3906 26.3454 155.125 26.4626 Q154.8594 26.5798 154.7109 26.7986 Q154.5625 27.0173 154.5625 27.2986 Q154.5625 27.7204 154.8828 28.0017 Q155.2031 28.2829 155.8125 28.2829 Q156.4219 28.2829 156.8984 28.0173 Q157.375 27.7517 157.5938 27.2829 Q157.7656 26.9236 157.7656 26.2361 L157.7656 25.8454 Z" style="clip-path:url(#clipPath11); stroke:none;" />
      <path d="M3.7969 42.9704 L3.7969 34.3767 L4.8594 34.3767 L4.8594 39.2829 L7.3438 36.7517 L8.7188 36.7517 L6.3281 39.0486 L8.9531 42.9704 L7.6562 42.9704 L5.5938 39.7829 L4.8594 40.5017 L4.8594 42.9704 L3.7969 42.9704 ZM9.7969 35.5954 L9.7969 34.3767 L10.8594 34.3767 L10.8594 35.5954 L9.7969 35.5954 ZM9.7969 42.9704 L9.7969 36.7517 L10.8594 36.7517 L10.8594 42.9704 L9.7969 42.9704 ZM12.375 41.1111 L13.4062 40.9548 Q13.5 41.5798 13.8984 41.9079 Q14.2969 42.2361 15.0312 42.2361 Q15.75 42.2361 16.1016 41.947 Q16.4531 41.6579 16.4531 41.2517 Q16.4531 40.8923 16.1406 40.6892 Q15.9219 40.5486 15.0625 40.3298 Q13.9062 40.0329 13.4609 39.822 Q13.0156 39.6111 12.7812 39.2361 Q12.5469 38.8611 12.5469 38.3923 Q12.5469 37.9861 12.7344 37.6267 Q12.9219 37.2673 13.25 37.0329 Q13.5 36.8611 13.9219 36.7361 Q14.3438 36.6111 14.8438 36.6111 Q15.5625 36.6111 16.1172 36.822 Q16.6719 37.0329 16.9375 37.3923 Q17.2031 37.7517 17.2969 38.3454 L16.2656 38.4861 Q16.2031 38.0173 15.8672 37.7439 Q15.5312 37.4704 14.9062 37.4704 Q14.1875 37.4704 13.875 37.7126 Q13.5625 37.9548 13.5625 38.2829 Q13.5625 38.4861 13.6875 38.6423 Q13.8281 38.8142 14.0938 38.9236 Q14.25 38.9861 15.0312 39.1892 Q16.1562 39.5017 16.5938 39.6892 Q17.0312 39.8767 17.2812 40.2361 Q17.5312 40.5954 17.5312 41.1423 Q17.5312 41.6736 17.2266 42.1345 Q16.9219 42.5954 16.3438 42.8532 Q15.7656 43.1111 15.0312 43.1111 Q13.8125 43.1111 13.1797 42.6032 Q12.5469 42.0954 12.375 41.1111 ZM19.2344 42.9704 L19.2344 42.1111 L23.2031 37.5642 Q22.5156 37.5954 22 37.5954 L19.4688 37.5954 L19.4688 36.7517 L24.5625 36.7517 L24.5625 37.4392 L21.1875 41.3923 L20.5312 42.1111 Q21.25 42.0642 21.8594 42.0642 L24.75 42.0642 L24.75 42.9704 L19.2344 42.9704 ZM28.8594 42.2048 Q28.2656 42.7048 27.7266 42.9079 Q27.1875 43.1111 26.5625 43.1111 Q25.5312 43.1111 24.9844 42.6111 Q24.4375 42.1111 24.4375 41.3298 Q24.4375 40.8767 24.6406 40.4939 Q24.8438 40.1111 25.1875 39.8845 Q25.5312 39.6579 25.9531 39.5486 Q26.25 39.4548 26.8906 39.3767 Q28.1562 39.2361 28.7656 39.0173 Q28.7656 38.7986 28.7656 38.7517 Q28.7656 38.0954 28.4688 37.8298 Q28.0625 37.4861 27.2656 37.4861 Q26.5312 37.4861 26.1719 37.7439 Q25.8125 38.0017 25.6406 38.6579 L24.6094 38.5173 Q24.75 37.8611 25.0781 37.4548 Q25.4062 37.0486 26.0156 36.8298 Q26.625 36.6111 27.4219 36.6111 Q28.2188 36.6111 28.7188 36.7986 Q29.2188 36.9861 29.4531 37.2673 Q29.6875 37.5486 29.7812 37.9861 Q29.8281 38.2517 29.8281 38.9548 L29.8281 40.3611 Q29.8281 41.8298 29.8984 42.2204 Q29.9688 42.6111 30.1719 42.9704 L29.0625 42.9704 Q28.9062 42.6423 28.8594 42.2048 ZM28.7656 39.8454 Q28.1875 40.0798 27.0469 40.2517 Q26.3906 40.3454 26.125 40.4626 Q25.8594 40.5798 25.7109 40.7986 Q25.5625 41.0173 25.5625 41.2986 Q25.5625 41.7204 25.8828 42.0017 Q26.2031 42.2829 26.8125 42.2829 Q27.4219 42.2829 27.8984 42.0173 Q28.375 41.7517 28.5938 41.2829 Q28.7656 40.9236 28.7656 40.2361 L28.7656 39.8454 ZM26.125 34.9704 L26.9062 33.3298 L28.2969 33.3298 L27 34.9704 L26.125 34.9704 ZM31.7969 42.9704 L31.7969 36.7517 L32.7344 36.7517 L32.7344 37.6267 Q33.0312 37.1579 33.5156 36.8845 Q34 36.6111 34.625 36.6111 Q35.3125 36.6111 35.7578 36.8923 Q36.2031 37.1736 36.375 37.6892 Q37.125 36.6111 38.2969 36.6111 Q39.2344 36.6111 39.7266 37.1189 Q40.2188 37.6267 40.2188 38.7048 L40.2188 42.9704 L39.1719 42.9704 L39.1719 39.0486 Q39.1719 38.4236 39.0703 38.1423 Q38.9688 37.8611 38.7031 37.6892 Q38.4375 37.5173 38.0625 37.5173 Q37.4062 37.5173 36.9766 37.9548 Q36.5469 38.3923 36.5469 39.3611 L36.5469 42.9704 L35.4844 42.9704 L35.4844 38.9236 Q35.4844 38.2204 35.2266 37.8689 Q34.9688 37.5173 34.3906 37.5173 Q33.9375 37.5173 33.5625 37.7517 Q33.1875 37.9861 33.0156 38.4392 Q32.8438 38.8923 32.8438 39.7361 L32.8438 42.9704 L31.7969 42.9704 ZM42.4062 39.8611 Q42.4062 38.1267 43.3594 37.2986 Q44.1562 36.6111 45.3125 36.6111 Q46.5938 36.6111 47.4141 37.447 Q48.2344 38.2829 48.2344 39.7673 Q48.2344 40.9704 47.875 41.6579 Q47.5156 42.3454 46.8203 42.7282 Q46.125 43.1111 45.3125 43.1111 Q44.0156 43.1111 43.2109 42.2751 Q42.4062 41.4392 42.4062 39.8611 ZM43.4844 39.8611 Q43.4844 41.0486 44.0078 41.6423 Q44.5312 42.2361 45.3125 42.2361 Q46.1094 42.2361 46.625 41.6423 Q47.1406 41.0486 47.1406 39.8298 Q47.1406 38.6736 46.6172 38.0798 Q46.0938 37.4861 45.3125 37.4861 Q44.5312 37.4861 44.0078 38.072 Q43.4844 38.6579 43.4844 39.8611 ZM49.7656 42.9704 L49.7656 34.3767 L50.8281 34.3767 L50.8281 42.9704 L49.7656 42.9704 ZM55.0938 42.0329 L55.25 42.9548 Q54.7969 43.0486 54.4531 43.0486 Q53.875 43.0486 53.5625 42.8689 Q53.25 42.6892 53.1172 42.3923 Q52.9844 42.0954 52.9844 41.1423 L52.9844 37.5642 L52.2188 37.5642 L52.2188 36.7517 L52.9844 36.7517 L52.9844 35.2048 L54.0312 34.5798 L54.0312 36.7517 L55.0938 36.7517 L55.0938 37.5642 L54.0312 37.5642 L54.0312 41.2048 Q54.0312 41.6579 54.0859 41.7829 Q54.1406 41.9079 54.2656 41.9861 Q54.3906 42.0642 54.625 42.0642 Q54.8125 42.0642 55.0938 42.0329 ZM58.7969 42.9704 L58.7969 34.3767 L59.8594 34.3767 L59.8594 39.2829 L62.3438 36.7517 L63.7188 36.7517 L61.3281 39.0486 L63.9531 42.9704 L62.6562 42.9704 L60.5938 39.7829 L59.8594 40.5017 L59.8594 42.9704 L58.7969 42.9704 ZM64.7969 35.5954 L64.7969 34.3767 L65.8594 34.3767 L65.8594 35.5954 L64.7969 35.5954 ZM64.7969 42.9704 L64.7969 36.7517 L65.8594 36.7517 L65.8594 42.9704 L64.7969 42.9704 ZM67.7969 42.9704 L67.7969 36.7517 L68.7344 36.7517 L68.7344 37.6267 Q69.0312 37.1579 69.5156 36.8845 Q70 36.6111 70.625 36.6111 Q71.3125 36.6111 71.7578 36.8923 Q72.2031 37.1736 72.375 37.6892 Q73.125 36.6111 74.2969 36.6111 Q75.2344 36.6111 75.7266 37.1189 Q76.2188 37.6267 76.2188 38.7048 L76.2188 42.9704 L75.1719 42.9704 L75.1719 39.0486 Q75.1719 38.4236 75.0703 38.1423 Q74.9688 37.8611 74.7031 37.6892 Q74.4375 37.5173 74.0625 37.5173 Q73.4062 37.5173 72.9766 37.9548 Q72.5469 38.3923 72.5469 39.3611 L72.5469 42.9704 L71.4844 42.9704 L71.4844 38.9236 Q71.4844 38.2204 71.2266 37.8689 Q70.9688 37.5173 70.3906 37.5173 Q69.9375 37.5173 69.5625 37.7517 Q69.1875 37.9861 69.0156 38.4392 Q68.8438 38.8923 68.8438 39.7361 L68.8438 42.9704 L67.7969 42.9704 ZM83.0469 40.9704 L84.1406 41.0954 Q83.8906 42.0486 83.1875 42.5798 Q82.4844 43.1111 81.4062 43.1111 Q80.0469 43.1111 79.2422 42.2673 Q78.4375 41.4236 78.4375 39.9079 Q78.4375 38.3454 79.25 37.4782 Q80.0625 36.6111 81.3438 36.6111 Q82.5938 36.6111 83.3828 37.4548 Q84.1719 38.2986 84.1719 39.8454 Q84.1719 39.9392 84.1719 40.1267 L79.5312 40.1267 Q79.5938 41.1579 80.1094 41.697 Q80.625 42.2361 81.4062 42.2361 Q81.9844 42.2361 82.3984 41.9314 Q82.8125 41.6267 83.0469 40.9704 ZM79.5938 39.2673 L83.0625 39.2673 Q83 38.4704 82.6719 38.0798 Q82.1562 37.4704 81.3594 37.4704 Q80.625 37.4704 80.1328 37.9548 Q79.6406 38.4392 79.5938 39.2673 ZM85.7969 42.9704 L85.7969 36.7517 L86.7344 36.7517 L86.7344 37.6267 Q87.4219 36.6111 88.7188 36.6111 Q89.2812 36.6111 89.7578 36.8142 Q90.2344 37.0173 90.4688 37.3454 Q90.7031 37.6736 90.7969 38.1111 Q90.8438 38.4079 90.8438 39.1423 L90.8438 42.9704 L89.7969 42.9704 L89.7969 39.1892 Q89.7969 38.5329 89.6719 38.2204 Q89.5469 37.9079 89.2344 37.7126 Q88.9219 37.5173 88.5 37.5173 Q87.8281 37.5173 87.3359 37.947 Q86.8438 38.3767 86.8438 39.5642 L86.8438 42.9704 L85.7969 42.9704 ZM97.0469 40.9704 L98.1406 41.0954 Q97.8906 42.0486 97.1875 42.5798 Q96.4844 43.1111 95.4062 43.1111 Q94.0469 43.1111 93.2422 42.2673 Q92.4375 41.4236 92.4375 39.9079 Q92.4375 38.3454 93.25 37.4782 Q94.0625 36.6111 95.3438 36.6111 Q96.5938 36.6111 97.3828 37.4548 Q98.1719 38.2986 98.1719 39.8454 Q98.1719 39.9392 98.1719 40.1267 L93.5312 40.1267 Q93.5938 41.1579 94.1094 41.697 Q94.625 42.2361 95.4062 42.2361 Q95.9844 42.2361 96.3984 41.9314 Q96.8125 41.6267 97.0469 40.9704 ZM93.5938 39.2673 L97.0625 39.2673 Q97 38.4704 96.6719 38.0798 Q96.1562 37.4704 95.3594 37.4704 Q94.625 37.4704 94.1328 37.9548 Q93.6406 38.4392 93.5938 39.2673 ZM102.0938 42.0329 L102.25 42.9548 Q101.7969 43.0486 101.4531 43.0486 Q100.875 43.0486 100.5625 42.8689 Q100.25 42.6892 100.1172 42.3923 Q99.9844 42.0954 99.9844 41.1423 L99.9844 37.5642 L99.2188 37.5642 L99.2188 36.7517 L99.9844 36.7517 L99.9844 35.2048 L101.0312 34.5798 L101.0312 36.7517 L102.0938 36.7517 L102.0938 37.5642 L101.0312 37.5642 L101.0312 41.2048 Q101.0312 41.6579 101.0859 41.7829 Q101.1406 41.9079 101.2656 41.9861 Q101.3906 42.0642 101.625 42.0642 Q101.8125 42.0642 102.0938 42.0329 ZM107.0469 40.9704 L108.1406 41.0954 Q107.8906 42.0486 107.1875 42.5798 Q106.4844 43.1111 105.4062 43.1111 Q104.0469 43.1111 103.2422 42.2673 Q102.4375 41.4236 102.4375 39.9079 Q102.4375 38.3454 103.25 37.4782 Q104.0625 36.6111 105.3438 36.6111 Q106.5938 36.6111 107.3828 37.4548 Q108.1719 38.2986 108.1719 39.8454 Q108.1719 39.9392 108.1719 40.1267 L103.5312 40.1267 Q103.5938 41.1579 104.1094 41.697 Q104.625 42.2361 105.4062 42.2361 Q105.9844 42.2361 106.3984 41.9314 Q106.8125 41.6267 107.0469 40.9704 ZM103.5938 39.2673 L107.0625 39.2673 Q107 38.4704 106.6719 38.0798 Q106.1562 37.4704 105.3594 37.4704 Q104.625 37.4704 104.1328 37.9548 Q103.6406 38.4392 103.5938 39.2673 ZM109.7969 42.9704 L109.7969 34.3767 L110.8594 34.3767 L110.8594 39.2829 L113.3438 36.7517 L114.7188 36.7517 L112.3281 39.0486 L114.9531 42.9704 L113.6562 42.9704 L111.5938 39.7829 L110.8594 40.5017 L110.8594 42.9704 L109.7969 42.9704 ZM120.0469 40.9704 L121.1406 41.0954 Q120.8906 42.0486 120.1875 42.5798 Q119.4844 43.1111 118.4062 43.1111 Q117.0469 43.1111 116.2422 42.2673 Q115.4375 41.4236 115.4375 39.9079 Q115.4375 38.3454 116.25 37.4782 Q117.0625 36.6111 118.3438 36.6111 Q119.5938 36.6111 120.3828 37.4548 Q121.1719 38.2986 121.1719 39.8454 Q121.1719 39.9392 121.1719 40.1267 L116.5312 40.1267 Q116.5938 41.1579 117.1094 41.697 Q117.625 42.2361 118.4062 42.2361 Q118.9844 42.2361 119.3984 41.9314 Q119.8125 41.6267 120.0469 40.9704 ZM116.5938 39.2673 L120.0625 39.2673 Q120 38.4704 119.6719 38.0798 Q119.1562 37.4704 118.3594 37.4704 Q117.625 37.4704 117.1328 37.9548 Q116.6406 38.4392 116.5938 39.2673 ZM125.0938 42.0329 L125.25 42.9548 Q124.7969 43.0486 124.4531 43.0486 Q123.875 43.0486 123.5625 42.8689 Q123.25 42.6892 123.1172 42.3923 Q122.9844 42.0954 122.9844 41.1423 L122.9844 37.5642 L122.2188 37.5642 L122.2188 36.7517 L122.9844 36.7517 L122.9844 35.2048 L124.0312 34.5798 L124.0312 36.7517 L125.0938 36.7517 L125.0938 37.5642 L124.0312 37.5642 L124.0312 41.2048 Q124.0312 41.6579 124.0859 41.7829 Q124.1406 41.9079 124.2656 41.9861 Q124.3906 42.0642 124.625 42.0642 Q124.8125 42.0642 125.0938 42.0329 Z" style="clip-path:url(#clipPath11); stroke:none;" />
      <path d="M5.8125 59.5017 Q4.9375 58.3923 4.3359 56.9157 Q3.7344 55.4392 3.7344 53.8611 Q3.7344 52.4704 4.1719 51.1892 Q4.7031 49.7048 5.8125 48.2361 L6.5625 48.2361 Q5.8594 49.4548 5.625 49.9704 Q5.2656 50.7829 5.0625 51.6579 Q4.8125 52.7517 4.8125 53.8611 Q4.8125 56.6892 6.5625 59.5017 L5.8125 59.5017 ZM11.8594 54.6892 L12.8906 54.8298 Q12.7188 55.8923 12.0156 56.5017 Q11.3125 57.1111 10.2969 57.1111 Q9.0156 57.1111 8.2422 56.2751 Q7.4688 55.4392 7.4688 53.8767 Q7.4688 52.8767 7.8047 52.1189 Q8.1406 51.3611 8.8203 50.9861 Q9.5 50.6111 10.3125 50.6111 Q11.3125 50.6111 11.9609 51.1189 Q12.6094 51.6267 12.7969 52.5798 L11.7656 52.7361 Q11.625 52.1111 11.25 51.7907 Q10.875 51.4704 10.3438 51.4704 Q9.5469 51.4704 9.0469 52.0407 Q8.5469 52.6111 8.5469 53.8454 Q8.5469 55.1111 9.0312 55.6736 Q9.5156 56.2361 10.2812 56.2361 Q10.9062 56.2361 11.3203 55.8611 Q11.7344 55.4861 11.8594 54.6892 ZM13.7969 56.9704 L13.7969 48.3767 L14.8438 48.3767 L14.8438 51.4548 Q15.5781 50.6111 16.7031 50.6111 Q17.4062 50.6111 17.9141 50.8845 Q18.4219 51.1579 18.6406 51.6345 Q18.8594 52.1111 18.8594 53.0329 L18.8594 56.9704 L17.8125 56.9704 L17.8125 53.0329 Q17.8125 52.2361 17.4688 51.8767 Q17.125 51.5173 16.5 51.5173 Q16.0312 51.5173 15.6172 51.7595 Q15.2031 52.0017 15.0234 52.4157 Q14.8438 52.8298 14.8438 53.5642 L14.8438 56.9704 L13.7969 56.9704 ZM24.8594 56.2048 Q24.2656 56.7048 23.7266 56.9079 Q23.1875 57.1111 22.5625 57.1111 Q21.5312 57.1111 20.9844 56.6111 Q20.4375 56.1111 20.4375 55.3298 Q20.4375 54.8767 20.6406 54.4939 Q20.8438 54.1111 21.1875 53.8845 Q21.5312 53.6579 21.9531 53.5486 Q22.25 53.4548 22.8906 53.3767 Q24.1562 53.2361 24.7656 53.0173 Q24.7656 52.7986 24.7656 52.7517 Q24.7656 52.0954 24.4688 51.8298 Q24.0625 51.4861 23.2656 51.4861 Q22.5312 51.4861 22.1719 51.7439 Q21.8125 52.0017 21.6406 52.6579 L20.6094 52.5173 Q20.75 51.8611 21.0781 51.4548 Q21.4062 51.0486 22.0156 50.8298 Q22.625 50.6111 23.4219 50.6111 Q24.2188 50.6111 24.7188 50.7986 Q25.2188 50.9861 25.4531 51.2673 Q25.6875 51.5486 25.7812 51.9861 Q25.8281 52.2517 25.8281 52.9548 L25.8281 54.3611 Q25.8281 55.8298 25.8984 56.2204 Q25.9688 56.6111 26.1719 56.9704 L25.0625 56.9704 Q24.9062 56.6423 24.8594 56.2048 ZM24.7656 53.8454 Q24.1875 54.0798 23.0469 54.2517 Q22.3906 54.3454 22.125 54.4626 Q21.8594 54.5798 21.7109 54.7986 Q21.5625 55.0173 21.5625 55.2986 Q21.5625 55.7204 21.8828 56.0017 Q22.2031 56.2829 22.8125 56.2829 Q23.4219 56.2829 23.8984 56.0173 Q24.375 55.7517 24.5938 55.2829 Q24.7656 54.9236 24.7656 54.2361 L24.7656 53.8454 ZM27.7969 56.9704 L27.7969 50.7517 L28.7344 50.7517 L28.7344 51.6267 Q29.4219 50.6111 30.7188 50.6111 Q31.2812 50.6111 31.7578 50.8142 Q32.2344 51.0173 32.4688 51.3454 Q32.7031 51.6736 32.7969 52.1111 Q32.8438 52.4079 32.8438 53.1423 L32.8438 56.9704 L31.7969 56.9704 L31.7969 53.1892 Q31.7969 52.5329 31.6719 52.2204 Q31.5469 51.9079 31.2344 51.7126 Q30.9219 51.5173 30.5 51.5173 Q29.8281 51.5173 29.3359 51.947 Q28.8438 52.3767 28.8438 53.5642 L28.8438 56.9704 L27.7969 56.9704 ZM34.5938 57.4861 L35.625 57.6423 Q35.6875 58.1111 35.9844 58.3298 Q36.375 58.6267 37.0469 58.6267 Q37.7812 58.6267 38.1797 58.3298 Q38.5781 58.0329 38.7188 57.5173 Q38.8125 57.1892 38.7969 56.1579 Q38.1094 56.9704 37.0781 56.9704 Q35.7969 56.9704 35.0938 56.0407 Q34.3906 55.1111 34.3906 53.8298 Q34.3906 52.9392 34.7109 52.1814 Q35.0312 51.4236 35.6406 51.0173 Q36.25 50.6111 37.0781 50.6111 Q38.1875 50.6111 38.9062 51.5017 L38.9062 50.7517 L39.875 50.7517 L39.875 56.1267 Q39.875 57.5798 39.5781 58.1892 Q39.2812 58.7986 38.6406 59.1501 Q38 59.5017 37.0625 59.5017 Q35.9531 59.5017 35.2656 59.0017 Q34.5781 58.5017 34.5938 57.4861 ZM35.4688 53.7517 Q35.4688 54.9704 35.9531 55.5329 Q36.4375 56.0954 37.1719 56.0954 Q37.9062 56.0954 38.3984 55.5329 Q38.8906 54.9704 38.8906 53.7829 Q38.8906 52.6423 38.3828 52.0642 Q37.875 51.4861 37.1562 51.4861 Q36.4531 51.4861 35.9609 52.0564 Q35.4688 52.6267 35.4688 53.7517 ZM46.0469 54.9704 L47.1406 55.0954 Q46.8906 56.0486 46.1875 56.5798 Q45.4844 57.1111 44.4062 57.1111 Q43.0469 57.1111 42.2422 56.2673 Q41.4375 55.4236 41.4375 53.9079 Q41.4375 52.3454 42.25 51.4782 Q43.0625 50.6111 44.3438 50.6111 Q45.5938 50.6111 46.3828 51.4548 Q47.1719 52.2986 47.1719 53.8454 Q47.1719 53.9392 47.1719 54.1267 L42.5312 54.1267 Q42.5938 55.1579 43.1094 55.697 Q43.625 56.2361 44.4062 56.2361 Q44.9844 56.2361 45.3984 55.9314 Q45.8125 55.6267 46.0469 54.9704 ZM42.5938 53.2673 L46.0625 53.2673 Q46 52.4704 45.6719 52.0798 Q45.1562 51.4704 44.3594 51.4704 Q43.625 51.4704 43.1328 51.9548 Q42.6406 52.4392 42.5938 53.2673 ZM52.8281 56.9704 L52.8281 56.1892 Q52.2344 57.1111 51.0938 57.1111 Q50.3438 57.1111 49.7188 56.697 Q49.0938 56.2829 48.75 55.5486 Q48.4062 54.8142 48.4062 53.8611 Q48.4062 52.9392 48.7188 52.1736 Q49.0312 51.4079 49.6562 51.0095 Q50.2812 50.6111 51.0469 50.6111 Q51.6094 50.6111 52.0469 50.8454 Q52.4844 51.0798 52.7656 51.4548 L52.7656 48.3767 L53.8125 48.3767 L53.8125 56.9704 L52.8281 56.9704 ZM49.5 53.8611 Q49.5 55.0642 50 55.6501 Q50.5 56.2361 51.1875 56.2361 Q51.875 56.2361 52.3594 55.6736 Q52.8438 55.1111 52.8438 53.9548 Q52.8438 52.6736 52.3516 52.0798 Q51.8594 51.4861 51.1406 51.4861 Q50.4375 51.4861 49.9688 52.0564 Q49.5 52.6267 49.5 53.8611 ZM59.0469 56.9704 L59.0469 51.5642 L58.1094 51.5642 L58.1094 50.7517 L59.0469 50.7517 L59.0469 50.0798 Q59.0469 49.4548 59.1562 49.1579 Q59.3125 48.7361 59.6953 48.4861 Q60.0781 48.2361 60.7656 48.2361 Q61.2188 48.2361 61.75 48.3454 L61.5938 49.2517 Q61.2656 49.2048 60.9688 49.2048 Q60.4844 49.2048 60.2891 49.4079 Q60.0938 49.6111 60.0938 50.1736 L60.0938 50.7517 L61.3125 50.7517 L61.3125 51.5642 L60.0938 51.5642 L60.0938 56.9704 L59.0469 56.9704 ZM61.7656 56.9704 L61.7656 48.3767 L62.8281 48.3767 L62.8281 56.9704 L61.7656 56.9704 ZM68.8594 56.2048 Q68.2656 56.7048 67.7266 56.9079 Q67.1875 57.1111 66.5625 57.1111 Q65.5312 57.1111 64.9844 56.6111 Q64.4375 56.1111 64.4375 55.3298 Q64.4375 54.8767 64.6406 54.4939 Q64.8438 54.1111 65.1875 53.8845 Q65.5312 53.6579 65.9531 53.5486 Q66.25 53.4548 66.8906 53.3767 Q68.1562 53.2361 68.7656 53.0173 Q68.7656 52.7986 68.7656 52.7517 Q68.7656 52.0954 68.4688 51.8298 Q68.0625 51.4861 67.2656 51.4861 Q66.5312 51.4861 66.1719 51.7439 Q65.8125 52.0017 65.6406 52.6579 L64.6094 52.5173 Q64.75 51.8611 65.0781 51.4548 Q65.4062 51.0486 66.0156 50.8298 Q66.625 50.6111 67.4219 50.6111 Q68.2188 50.6111 68.7188 50.7986 Q69.2188 50.9861 69.4531 51.2673 Q69.6875 51.5486 69.7812 51.9861 Q69.8281 52.2517 69.8281 52.9548 L69.8281 54.3611 Q69.8281 55.8298 69.8984 56.2204 Q69.9688 56.6111 70.1719 56.9704 L69.0625 56.9704 Q68.9062 56.6423 68.8594 56.2048 ZM68.7656 53.8454 Q68.1875 54.0798 67.0469 54.2517 Q66.3906 54.3454 66.125 54.4626 Q65.8594 54.5798 65.7109 54.7986 Q65.5625 55.0173 65.5625 55.2986 Q65.5625 55.7204 65.8828 56.0017 Q66.2031 56.2829 66.8125 56.2829 Q67.4219 56.2829 67.8984 56.0173 Q68.375 55.7517 68.5938 55.2829 Q68.7656 54.9236 68.7656 54.2361 L68.7656 53.8454 ZM71.5938 57.4861 L72.625 57.6423 Q72.6875 58.1111 72.9844 58.3298 Q73.375 58.6267 74.0469 58.6267 Q74.7812 58.6267 75.1797 58.3298 Q75.5781 58.0329 75.7188 57.5173 Q75.8125 57.1892 75.7969 56.1579 Q75.1094 56.9704 74.0781 56.9704 Q72.7969 56.9704 72.0938 56.0407 Q71.3906 55.1111 71.3906 53.8298 Q71.3906 52.9392 71.7109 52.1814 Q72.0312 51.4236 72.6406 51.0173 Q73.25 50.6111 74.0781 50.6111 Q75.1875 50.6111 75.9062 51.5017 L75.9062 50.7517 L76.875 50.7517 L76.875 56.1267 Q76.875 57.5798 76.5781 58.1892 Q76.2812 58.7986 75.6406 59.1501 Q75 59.5017 74.0625 59.5017 Q72.9531 59.5017 72.2656 59.0017 Q71.5781 58.5017 71.5938 57.4861 ZM72.4688 53.7517 Q72.4688 54.9704 72.9531 55.5329 Q73.4375 56.0954 74.1719 56.0954 Q74.9062 56.0954 75.3984 55.5329 Q75.8906 54.9704 75.8906 53.7829 Q75.8906 52.6423 75.3828 52.0642 Q74.875 51.4861 74.1562 51.4861 Q73.4531 51.4861 72.9609 52.0564 Q72.4688 52.6267 72.4688 53.7517 ZM82.7656 56.9704 L81.7812 56.9704 L81.7812 48.3767 L82.8438 48.3767 L82.8438 51.4392 Q83.5156 50.6111 84.5469 50.6111 Q85.125 50.6111 85.6328 50.8376 Q86.1406 51.0642 86.4766 51.4861 Q86.8125 51.9079 87 52.5017 Q87.1875 53.0954 87.1875 53.7673 Q87.1875 55.3611 86.3906 56.2361 Q85.5938 57.1111 84.5 57.1111 Q83.3906 57.1111 82.7656 56.1892 L82.7656 56.9704 ZM82.75 53.8142 Q82.75 54.9236 83.0625 55.4236 Q83.5625 56.2361 84.4062 56.2361 Q85.0938 56.2361 85.6016 55.6423 Q86.1094 55.0486 86.1094 53.8454 Q86.1094 52.6267 85.625 52.0486 Q85.1406 51.4704 84.4531 51.4704 Q83.7656 51.4704 83.2578 52.072 Q82.75 52.6736 82.75 53.8142 ZM88.7969 49.5954 L88.7969 48.3767 L89.8594 48.3767 L89.8594 49.5954 L88.7969 49.5954 ZM88.7969 56.9704 L88.7969 50.7517 L89.8594 50.7517 L89.8594 56.9704 L88.7969 56.9704 ZM91.7656 56.9704 L91.7656 48.3767 L92.8281 48.3767 L92.8281 56.9704 L91.7656 56.9704 ZM94.7656 56.9704 L94.7656 48.3767 L95.8281 48.3767 L95.8281 56.9704 L94.7656 56.9704 ZM102.0469 54.9704 L103.1406 55.0954 Q102.8906 56.0486 102.1875 56.5798 Q101.4844 57.1111 100.4062 57.1111 Q99.0469 57.1111 98.2422 56.2673 Q97.4375 55.4236 97.4375 53.9079 Q97.4375 52.3454 98.25 51.4782 Q99.0625 50.6111 100.3438 50.6111 Q101.5938 50.6111 102.3828 51.4548 Q103.1719 52.2986 103.1719 53.8454 Q103.1719 53.9392 103.1719 54.1267 L98.5312 54.1267 Q98.5938 55.1579 99.1094 55.697 Q99.625 56.2361 100.4062 56.2361 Q100.9844 56.2361 101.3984 55.9314 Q101.8125 55.6267 102.0469 54.9704 ZM98.5938 53.2673 L102.0625 53.2673 Q102 52.4704 101.6719 52.0798 Q101.1562 51.4704 100.3594 51.4704 Q99.625 51.4704 99.1328 51.9548 Q98.6406 52.4392 98.5938 53.2673 ZM104.7969 56.9704 L104.7969 50.7517 L105.7344 50.7517 L105.7344 51.6267 Q106.4219 50.6111 107.7188 50.6111 Q108.2812 50.6111 108.7578 50.8142 Q109.2344 51.0173 109.4688 51.3454 Q109.7031 51.6736 109.7969 52.1111 Q109.8438 52.4079 109.8438 53.1423 L109.8438 56.9704 L108.7969 56.9704 L108.7969 53.1892 Q108.7969 52.5329 108.6719 52.2204 Q108.5469 51.9079 108.2344 51.7126 Q107.9219 51.5173 107.5 51.5173 Q106.8281 51.5173 106.3359 51.947 Q105.8438 52.3767 105.8438 53.5642 L105.8438 56.9704 L104.7969 56.9704 ZM114.0938 56.0329 L114.25 56.9548 Q113.7969 57.0486 113.4531 57.0486 Q112.875 57.0486 112.5625 56.8689 Q112.25 56.6892 112.1172 56.3923 Q111.9844 56.0954 111.9844 55.1423 L111.9844 51.5642 L111.2188 51.5642 L111.2188 50.7517 L111.9844 50.7517 L111.9844 49.2048 L113.0312 48.5798 L113.0312 50.7517 L114.0938 50.7517 L114.0938 51.5642 L113.0312 51.5642 L113.0312 55.2048 Q113.0312 55.6579 113.0859 55.7829 Q113.1406 55.9079 113.2656 55.9861 Q113.3906 56.0642 113.625 56.0642 Q113.8125 56.0642 114.0938 56.0329 ZM119.0469 54.9704 L120.1406 55.0954 Q119.8906 56.0486 119.1875 56.5798 Q118.4844 57.1111 117.4062 57.1111 Q116.0469 57.1111 115.2422 56.2673 Q114.4375 55.4236 114.4375 53.9079 Q114.4375 52.3454 115.25 51.4782 Q116.0625 50.6111 117.3438 50.6111 Q118.5938 50.6111 119.3828 51.4548 Q120.1719 52.2986 120.1719 53.8454 Q120.1719 53.9392 120.1719 54.1267 L115.5312 54.1267 Q115.5938 55.1579 116.1094 55.697 Q116.625 56.2361 117.4062 56.2361 Q117.9844 56.2361 118.3984 55.9314 Q118.8125 55.6267 119.0469 54.9704 ZM115.5938 53.2673 L119.0625 53.2673 Q119 52.4704 118.6719 52.0798 Q118.1562 51.4704 117.3594 51.4704 Q116.625 51.4704 116.1328 51.9548 Q115.6406 52.4392 115.5938 53.2673 ZM116.125 48.9704 L116.9062 47.3298 L118.2969 47.3298 L117 48.9704 L116.125 48.9704 ZM121.375 55.1111 L122.4062 54.9548 Q122.5 55.5798 122.8984 55.9079 Q123.2969 56.2361 124.0312 56.2361 Q124.75 56.2361 125.1016 55.947 Q125.4531 55.6579 125.4531 55.2517 Q125.4531 54.8923 125.1406 54.6892 Q124.9219 54.5486 124.0625 54.3298 Q122.9062 54.0329 122.4609 53.822 Q122.0156 53.6111 121.7812 53.2361 Q121.5469 52.8611 121.5469 52.3923 Q121.5469 51.9861 121.7344 51.6267 Q121.9219 51.2673 122.25 51.0329 Q122.5 50.8611 122.9219 50.7361 Q123.3438 50.6111 123.8438 50.6111 Q124.5625 50.6111 125.1172 50.822 Q125.6719 51.0329 125.9375 51.3923 Q126.2031 51.7517 126.2969 52.3454 L125.2656 52.4861 Q125.2031 52.0173 124.8672 51.7439 Q124.5312 51.4704 123.9062 51.4704 Q123.1875 51.4704 122.875 51.7126 Q122.5625 51.9548 122.5625 52.2829 Q122.5625 52.4861 122.6875 52.6423 Q122.8281 52.8142 123.0938 52.9236 Q123.25 52.9861 124.0312 53.1892 Q125.1562 53.5017 125.5938 53.6892 Q126.0312 53.8767 126.2812 54.2361 Q126.5312 54.5954 126.5312 55.1423 Q126.5312 55.6736 126.2266 56.1345 Q125.9219 56.5954 125.3438 56.8532 Q124.7656 57.1111 124.0312 57.1111 Q122.8125 57.1111 122.1797 56.6032 Q121.5469 56.0954 121.375 55.1111 ZM133.0469 54.9704 L134.1406 55.0954 Q133.8906 56.0486 133.1875 56.5798 Q132.4844 57.1111 131.4062 57.1111 Q130.0469 57.1111 129.2422 56.2673 Q128.4375 55.4236 128.4375 53.9079 Q128.4375 52.3454 129.25 51.4782 Q130.0625 50.6111 131.3438 50.6111 Q132.5938 50.6111 133.3828 51.4548 Q134.1719 52.2986 134.1719 53.8454 Q134.1719 53.9392 134.1719 54.1267 L129.5312 54.1267 Q129.5938 55.1579 130.1094 55.697 Q130.625 56.2361 131.4062 56.2361 Q131.9844 56.2361 132.3984 55.9314 Q132.8125 55.6267 133.0469 54.9704 ZM129.5938 53.2673 L133.0625 53.2673 Q133 52.4704 132.6719 52.0798 Q132.1562 51.4704 131.3594 51.4704 Q130.625 51.4704 130.1328 51.9548 Q129.6406 52.4392 129.5938 53.2673 ZM136.0625 56.9704 L136.0625 55.7673 L137.2656 55.7673 L137.2656 56.9704 Q137.2656 57.6267 137.0312 58.0407 Q136.7969 58.4548 136.2969 58.6736 L136 58.2204 Q136.3281 58.0798 136.4844 57.7907 Q136.6406 57.5017 136.6719 56.9704 L136.0625 56.9704 ZM141.7969 56.9704 L141.7969 48.3767 L142.8438 48.3767 L142.8438 51.4548 Q143.5781 50.6111 144.7031 50.6111 Q145.4062 50.6111 145.9141 50.8845 Q146.4219 51.1579 146.6406 51.6345 Q146.8594 52.1111 146.8594 53.0329 L146.8594 56.9704 L145.8125 56.9704 L145.8125 53.0329 Q145.8125 52.2361 145.4688 51.8767 Q145.125 51.5173 144.5 51.5173 Q144.0312 51.5173 143.6172 51.7595 Q143.2031 52.0017 143.0234 52.4157 Q142.8438 52.8298 142.8438 53.5642 L142.8438 56.9704 L141.7969 56.9704 ZM152.8594 56.2048 Q152.2656 56.7048 151.7266 56.9079 Q151.1875 57.1111 150.5625 57.1111 Q149.5312 57.1111 148.9844 56.6111 Q148.4375 56.1111 148.4375 55.3298 Q148.4375 54.8767 148.6406 54.4939 Q148.8438 54.1111 149.1875 53.8845 Q149.5312 53.6579 149.9531 53.5486 Q150.25 53.4548 150.8906 53.3767 Q152.1562 53.2361 152.7656 53.0173 Q152.7656 52.7986 152.7656 52.7517 Q152.7656 52.0954 152.4688 51.8298 Q152.0625 51.4861 151.2656 51.4861 Q150.5312 51.4861 150.1719 51.7439 Q149.8125 52.0017 149.6406 52.6579 L148.6094 52.5173 Q148.75 51.8611 149.0781 51.4548 Q149.4062 51.0486 150.0156 50.8298 Q150.625 50.6111 151.4219 50.6111 Q152.2188 50.6111 152.7188 50.7986 Q153.2188 50.9861 153.4531 51.2673 Q153.6875 51.5486 153.7812 51.9861 Q153.8281 52.2517 153.8281 52.9548 L153.8281 54.3611 Q153.8281 55.8298 153.8984 56.2204 Q153.9688 56.6111 154.1719 56.9704 L153.0625 56.9704 Q152.9062 56.6423 152.8594 56.2048 ZM152.7656 53.8454 Q152.1875 54.0798 151.0469 54.2517 Q150.3906 54.3454 150.125 54.4626 Q149.8594 54.5798 149.7109 54.7986 Q149.5625 55.0173 149.5625 55.2986 Q149.5625 55.7204 149.8828 56.0017 Q150.2031 56.2829 150.8125 56.2829 Q151.4219 56.2829 151.8984 56.0173 Q152.375 55.7517 152.5938 55.2829 Q152.7656 54.9236 152.7656 54.2361 L152.7656 53.8454 Z" style="clip-path:url(#clipPath11); stroke:none;" />
      <path d="M3.375 69.1111 L4.4062 68.9548 Q4.5 69.5798 4.8984 69.9079 Q5.2969 70.2361 6.0312 70.2361 Q6.75 70.2361 7.1016 69.947 Q7.4531 69.6579 7.4531 69.2517 Q7.4531 68.8923 7.1406 68.6892 Q6.9219 68.5486 6.0625 68.3298 Q4.9062 68.0329 4.4609 67.822 Q4.0156 67.6111 3.7812 67.2361 Q3.5469 66.8611 3.5469 66.3923 Q3.5469 65.9861 3.7344 65.6267 Q3.9219 65.2673 4.25 65.0329 Q4.5 64.8611 4.9219 64.7361 Q5.3438 64.6111 5.8438 64.6111 Q6.5625 64.6111 7.1172 64.822 Q7.6719 65.0329 7.9375 65.3923 Q8.2031 65.7517 8.2969 66.3454 L7.2656 66.4861 Q7.2031 66.0173 6.8672 65.7439 Q6.5312 65.4704 5.9062 65.4704 Q5.1875 65.4704 4.875 65.7126 Q4.5625 65.9548 4.5625 66.2829 Q4.5625 66.4861 4.6875 66.6423 Q4.8281 66.8142 5.0938 66.9236 Q5.25 66.9861 6.0312 67.1892 Q7.1562 67.5017 7.5938 67.6892 Q8.0312 67.8767 8.2812 68.2361 Q8.5312 68.5954 8.5312 69.1423 Q8.5312 69.6736 8.2266 70.1345 Q7.9219 70.5954 7.3438 70.8532 Q6.7656 71.1111 6.0312 71.1111 Q4.8125 71.1111 4.1797 70.6032 Q3.5469 70.0954 3.375 69.1111 ZM10.2344 70.9704 L10.2344 70.1111 L14.2031 65.5642 Q13.5156 65.5954 13 65.5954 L10.4688 65.5954 L10.4688 64.7517 L15.5625 64.7517 L15.5625 65.4392 L12.1875 69.3923 L11.5312 70.1111 Q12.25 70.0642 12.8594 70.0642 L15.75 70.0642 L15.75 70.9704 L10.2344 70.9704 ZM19.875 70.9704 L19.875 70.0486 Q19.1406 71.1111 17.8906 71.1111 Q17.3438 71.1111 16.8672 70.9001 Q16.3906 70.6892 16.1562 70.3689 Q15.9219 70.0486 15.8281 69.5798 Q15.7656 69.2829 15.7656 68.5954 L15.7656 64.7517 L16.8281 64.7517 L16.8281 68.2048 Q16.8281 69.0173 16.8906 69.3142 Q16.9844 69.7204 17.3047 69.9626 Q17.625 70.2048 18.1094 70.2048 Q18.5781 70.2048 18.9922 69.9626 Q19.4062 69.7204 19.5859 69.2986 Q19.7656 68.8767 19.7656 68.0798 L19.7656 64.7517 L20.8125 64.7517 L20.8125 70.9704 L19.875 70.9704 ZM16.3594 62.9704 L16.3594 61.7673 L17.4531 61.7673 L17.4531 62.9704 L16.3594 62.9704 ZM18.5469 62.9704 L18.5469 61.7673 L19.6406 61.7673 L19.6406 62.9704 L18.5469 62.9704 ZM22.7969 70.9704 L22.7969 62.3767 L23.8594 62.3767 L23.8594 67.2829 L26.3438 64.7517 L27.7188 64.7517 L25.3281 67.0486 L27.9531 70.9704 L26.6562 70.9704 L24.5938 67.7829 L23.8594 68.5017 L23.8594 70.9704 L22.7969 70.9704 ZM28.375 69.1111 L29.4062 68.9548 Q29.5 69.5798 29.8984 69.9079 Q30.2969 70.2361 31.0312 70.2361 Q31.75 70.2361 32.1016 69.947 Q32.4531 69.6579 32.4531 69.2517 Q32.4531 68.8923 32.1406 68.6892 Q31.9219 68.5486 31.0625 68.3298 Q29.9062 68.0329 29.4609 67.822 Q29.0156 67.6111 28.7812 67.2361 Q28.5469 66.8611 28.5469 66.3923 Q28.5469 65.9861 28.7344 65.6267 Q28.9219 65.2673 29.25 65.0329 Q29.5 64.8611 29.9219 64.7361 Q30.3438 64.6111 30.8438 64.6111 Q31.5625 64.6111 32.1172 64.822 Q32.6719 65.0329 32.9375 65.3923 Q33.2031 65.7517 33.2969 66.3454 L32.2656 66.4861 Q32.2031 66.0173 31.8672 65.7439 Q31.5312 65.4704 30.9062 65.4704 Q30.1875 65.4704 29.875 65.7126 Q29.5625 65.9548 29.5625 66.2829 Q29.5625 66.4861 29.6875 66.6423 Q29.8281 66.8142 30.0938 66.9236 Q30.25 66.9861 31.0312 67.1892 Q32.1562 67.5017 32.5938 67.6892 Q33.0312 67.8767 33.2812 68.2361 Q33.5312 68.5954 33.5312 69.1423 Q33.5312 69.6736 33.2266 70.1345 Q32.9219 70.5954 32.3438 70.8532 Q31.7656 71.1111 31.0312 71.1111 Q29.8125 71.1111 29.1797 70.6032 Q28.5469 70.0954 28.375 69.1111 ZM40.0469 68.9704 L41.1406 69.0954 Q40.8906 70.0486 40.1875 70.5798 Q39.4844 71.1111 38.4062 71.1111 Q37.0469 71.1111 36.2422 70.2673 Q35.4375 69.4236 35.4375 67.9079 Q35.4375 66.3454 36.25 65.4782 Q37.0625 64.6111 38.3438 64.6111 Q39.5938 64.6111 40.3828 65.4548 Q41.1719 66.2986 41.1719 67.8454 Q41.1719 67.9392 41.1719 68.1267 L36.5312 68.1267 Q36.5938 69.1579 37.1094 69.697 Q37.625 70.2361 38.4062 70.2361 Q38.9844 70.2361 39.3984 69.9314 Q39.8125 69.6267 40.0469 68.9704 ZM36.5938 67.2673 L40.0625 67.2673 Q40 66.4704 39.6719 66.0798 Q39.1562 65.4704 38.3594 65.4704 Q37.625 65.4704 37.1328 65.9548 Q36.6406 66.4392 36.5938 67.2673 ZM37.125 62.9704 L37.9062 61.3298 L39.2969 61.3298 L38 62.9704 L37.125 62.9704 ZM42.5938 71.4861 L43.625 71.6423 Q43.6875 72.1111 43.9844 72.3298 Q44.375 72.6267 45.0469 72.6267 Q45.7812 72.6267 46.1797 72.3298 Q46.5781 72.0329 46.7188 71.5173 Q46.8125 71.1892 46.7969 70.1579 Q46.1094 70.9704 45.0781 70.9704 Q43.7969 70.9704 43.0938 70.0407 Q42.3906 69.1111 42.3906 67.8298 Q42.3906 66.9392 42.7109 66.1814 Q43.0312 65.4236 43.6406 65.0173 Q44.25 64.6111 45.0781 64.6111 Q46.1875 64.6111 46.9062 65.5017 L46.9062 64.7517 L47.875 64.7517 L47.875 70.1267 Q47.875 71.5798 47.5781 72.1892 Q47.2812 72.7986 46.6406 73.1501 Q46 73.5017 45.0625 73.5017 Q43.9531 73.5017 43.2656 73.0017 Q42.5781 72.5017 42.5938 71.4861 ZM43.4688 67.7517 Q43.4688 68.9704 43.9531 69.5329 Q44.4375 70.0954 45.1719 70.0954 Q45.9062 70.0954 46.3984 69.5329 Q46.8906 68.9704 46.8906 67.7829 Q46.8906 66.6423 46.3828 66.0642 Q45.875 65.4861 45.1562 65.4861 Q44.4531 65.4861 43.9609 66.0564 Q43.4688 66.6267 43.4688 67.7517 ZM54.0469 68.9704 L55.1406 69.0954 Q54.8906 70.0486 54.1875 70.5798 Q53.4844 71.1111 52.4062 71.1111 Q51.0469 71.1111 50.2422 70.2673 Q49.4375 69.4236 49.4375 67.9079 Q49.4375 66.3454 50.25 65.4782 Q51.0625 64.6111 52.3438 64.6111 Q53.5938 64.6111 54.3828 65.4548 Q55.1719 66.2986 55.1719 67.8454 Q55.1719 67.9392 55.1719 68.1267 L50.5312 68.1267 Q50.5938 69.1579 51.1094 69.697 Q51.625 70.2361 52.4062 70.2361 Q52.9844 70.2361 53.3984 69.9314 Q53.8125 69.6267 54.0469 68.9704 ZM50.5938 67.2673 L54.0625 67.2673 Q54 66.4704 53.6719 66.0798 Q53.1562 65.4704 52.3594 65.4704 Q51.625 65.4704 51.1328 65.9548 Q50.6406 66.4392 50.5938 67.2673 ZM56.375 69.1111 L57.4062 68.9548 Q57.5 69.5798 57.8984 69.9079 Q58.2969 70.2361 59.0312 70.2361 Q59.75 70.2361 60.1016 69.947 Q60.4531 69.6579 60.4531 69.2517 Q60.4531 68.8923 60.1406 68.6892 Q59.9219 68.5486 59.0625 68.3298 Q57.9062 68.0329 57.4609 67.822 Q57.0156 67.6111 56.7812 67.2361 Q56.5469 66.8611 56.5469 66.3923 Q56.5469 65.9861 56.7344 65.6267 Q56.9219 65.2673 57.25 65.0329 Q57.5 64.8611 57.9219 64.7361 Q58.3438 64.6111 58.8438 64.6111 Q59.5625 64.6111 60.1172 64.822 Q60.6719 65.0329 60.9375 65.3923 Q61.2031 65.7517 61.2969 66.3454 L60.2656 66.4861 Q60.2031 66.0173 59.8672 65.7439 Q59.5312 65.4704 58.9062 65.4704 Q58.1875 65.4704 57.875 65.7126 Q57.5625 65.9548 57.5625 66.2829 Q57.5625 66.4861 57.6875 66.6423 Q57.8281 66.8142 58.0938 66.9236 Q58.25 66.9861 59.0312 67.1892 Q60.1562 67.5017 60.5938 67.6892 Q61.0312 67.8767 61.2812 68.2361 Q61.5312 68.5954 61.5312 69.1423 Q61.5312 69.6736 61.2266 70.1345 Q60.9219 70.5954 60.3438 70.8532 Q59.7656 71.1111 59.0312 71.1111 Q57.8125 71.1111 57.1797 70.6032 Q56.5469 70.0954 56.375 69.1111 ZM64.4844 73.5017 L63.7344 73.5017 Q65.4844 70.6892 65.4844 67.8611 Q65.4844 66.7673 65.2344 65.6736 Q65.0312 64.7986 64.6719 63.9861 Q64.4375 63.4704 63.7344 62.2361 L64.4844 62.2361 Q65.5781 63.7048 66.1094 65.1892 Q66.5625 66.4704 66.5625 67.8611 Q66.5625 69.4392 65.9531 70.9157 Q65.3438 72.3923 64.4844 73.5017 Z" style="clip-path:url(#clipPath11); stroke:none;" />
    </g>
    <g style="text-rendering:geometricPrecision; font-size:11; font-family:sans-serif;" transform="translate(122,34)">
      <text x="24" y="12" style="clip-path:url(#clipPath12); stroke:none;" xml:space="preserve">component :</text>
      <text x="6" y="27" style="clip-path:url(#clipPath12); stroke:none;" xml:space="preserve">AbstractComponent</text>
    </g>
    <g style="text-rendering:geometricPrecision; font-size:11; font-family:sans-serif;" transform="translate(12,34)">
      <text x="4" y="12" style="clip-path:url(#clipPath13); stroke:none;" xml:space="preserve">circuit : Circuit</text>
    </g>
    <g transform="translate(6,64)" style="font-size:11; stroke-linecap:butt; text-rendering:geometricPrecision; font-family:sans-serif; stroke-linejoin:round;">
      <line x1="50" x2="167" y1="50" style="clip-path:url(#clipPath14); fill:none;" y2="50" />
      <polygon style="clip-path:url(#clipPath14); stroke:none;" points=" 167 50 155 44 155 56" />
      <polygon style="fill:none; clip-path:url(#clipPath14);" points=" 167 50 155 44 155 56" />
    </g>
    <g transform="translate(6,294)" style="font-size:11; stroke-linecap:butt; text-rendering:geometricPrecision; font-family:sans-serif; stroke-linejoin:round; stroke-dasharray:8,3; stroke-miterlimit:0;">
      <line x1="167" x2="50" y1="50" style="clip-path:url(#clipPath14); fill:none;" y2="50" />
      <line x1="50" x2="62" y1="50" style="clip-path:url(#clipPath14); fill:none; stroke-dasharray:none; stroke-miterlimit:10;" y2="56" />
      <line x1="50" x2="62" y1="50" style="clip-path:url(#clipPath14); fill:none; stroke-dasharray:none; stroke-miterlimit:10;" y2="44" />
    </g>
    <g transform="translate(6,154)" style="font-size:11; stroke-linecap:butt; text-rendering:geometricPrecision; font-family:sans-serif; stroke-linejoin:round; stroke-dasharray:8,3; stroke-miterlimit:0;">
      <line x1="167" x2="50" y1="50" style="clip-path:url(#clipPath14); fill:none;" y2="50" />
      <line x1="50" x2="62" y1="50" style="clip-path:url(#clipPath14); fill:none; stroke-dasharray:none; stroke-miterlimit:10;" y2="56" />
      <line x1="50" x2="62" y1="50" style="clip-path:url(#clipPath14); fill:none; stroke-dasharray:none; stroke-miterlimit:10;" y2="44" />
    </g>
    <g style="text-rendering:geometricPrecision; font-size:11; font-family:sans-serif;" transform="translate(82,184)">
      <text x="10" y="12" style="clip-path:url(#clipPath16); stroke:none;" xml:space="preserve">2: values</text>
    </g>
    <g style="text-rendering:geometricPrecision; font-size:11; font-family:sans-serif;" transform="translate(62,324)">
      <text x="10" y="12" style="clip-path:url(#clipPath17); stroke:none;" xml:space="preserve">3: values</text>
    </g>
    <g style="text-rendering:geometricPrecision; font-size:11; font-family:sans-serif;" transform="translate(72,94)">
      <text x="10" y="12" style="clip-path:url(#clipPath18); stroke:none;" xml:space="preserve">1: evaluate()</text>
    </g>
  </g>
</svg>
