<?xml version="1.0" encoding="UTF-8"?>

<!DOCTYPE svg PUBLIC '-//W3C//DTD SVG 1.0//EN' 'http://www.w3.org/TR/2001/REC-SVG-20010904/DTD/svg10.dtd'>
<svg style="fill-opacity:1; color-rendering:auto; color-interpolation:auto; stroke:black; text-rendering:auto; stroke-linecap:square; stroke-miterlimit:10; stroke-opacity:1; shape-rendering:auto; fill:black; stroke-dasharray:none; font-weight:normal; stroke-width:1; font-family:&apos;Dialog&apos;; font-style:normal; stroke-linejoin:miter; font-size:12; stroke-dashoffset:0; image-rendering:auto;" xmlns="http://www.w3.org/2000/svg" width="376" xmlns:xlink="http://www.w3.org/1999/xlink" height="298">
  <!--Generated by the Batik Graphics2D SVG Generator-->
  <defs id="genericDefs" />
  <g>
    <defs id="defs1">
      <clipPath clipPathUnits="userSpaceOnUse" id="clipPath1">
        <path d="M-3 -3 L87 -3 L87 207 L-3 207 L-3 -3 Z" />
      </clipPath>
      <clipPath clipPathUnits="userSpaceOnUse" id="clipPath2">
        <path d="M-3 -3 L77 -3 L77 207 L-3 207 L-3 -3 Z" />
      </clipPath>
      <clipPath clipPathUnits="userSpaceOnUse" id="clipPath3">
        <path d="M-3 -3 L22 -3 L22 27 L-3 27 L-3 -3 Z" />
      </clipPath>
      <clipPath clipPathUnits="userSpaceOnUse" id="clipPath4">
        <path d="M-3 -3 L13 -3 L13 116 L-3 116 L-3 -3 Z" />
      </clipPath>
      <clipPath clipPathUnits="userSpaceOnUse" id="clipPath5">
        <path d="M-3 -3 L15 -3 L15 19 L-3 19 L-3 -3 Z" />
      </clipPath>
      <clipPath clipPathUnits="userSpaceOnUse" id="clipPath6">
        <path d="M-3 -3 L237 -3 L237 97 L-3 97 L-3 -3 Z" />
      </clipPath>
      <clipPath clipPathUnits="userSpaceOnUse" id="clipPath7">
        <path d="M0 0 L33 0 L33 18 L0 18 L0 0 Z" />
      </clipPath>
      <clipPath clipPathUnits="userSpaceOnUse" id="clipPath8">
        <path d="M-3 -3 L237 -3 L237 79 L-3 79 L-3 -3 Z" />
      </clipPath>
      <clipPath clipPathUnits="userSpaceOnUse" id="clipPath9">
        <path d="M0 0 L149 0 L149 15 L0 15 L0 0 Z" />
      </clipPath>
      <clipPath clipPathUnits="userSpaceOnUse" id="clipPath10">
        <path d="M0 0 L0 4 L230 4 L230 0 Z" />
      </clipPath>
      <clipPath clipPathUnits="userSpaceOnUse" id="clipPath11">
        <path d="M-3 -3 L247 -3 L247 77 L-3 77 L-3 -3 Z" />
      </clipPath>
      <clipPath clipPathUnits="userSpaceOnUse" id="clipPath12">
        <path d="M0 0 L0 70 L240 70 L240 0 Z" />
      </clipPath>
      <clipPath clipPathUnits="userSpaceOnUse" id="clipPath13">
        <path d="M-70 -30 L140 -30 L140 60 L-70 60 L-70 -30 Z" />
      </clipPath>
      <clipPath clipPathUnits="userSpaceOnUse" id="clipPath14">
        <path d="M-80 -15 L160 -15 L160 30 L-80 30 L-80 -15 Z" />
      </clipPath>
      <clipPath clipPathUnits="userSpaceOnUse" id="clipPath15">
        <path d="M0 0 L263 0 L263 95 L0 95 L0 0 Z" />
      </clipPath>
      <clipPath clipPathUnits="userSpaceOnUse" id="clipPath16">
        <path d="M0 0 L219 0 L219 95 L0 95 L0 0 Z" />
      </clipPath>
      <clipPath clipPathUnits="userSpaceOnUse" id="clipPath17">
        <path d="M0 0 L115 0 L115 165 L0 165 L0 0 Z" />
      </clipPath>
      <clipPath clipPathUnits="userSpaceOnUse" id="clipPath18">
        <path d="M-120 -15 L240 -15 L240 30 L-120 30 L-120 -15 Z" />
      </clipPath>
      <clipPath clipPathUnits="userSpaceOnUse" id="clipPath19">
        <path d="M-84 -15 L168 -15 L168 30 L-84 30 L-84 -15 Z" />
      </clipPath>
    </defs>
    <g style="fill:white; text-rendering:geometricPrecision; stroke:white;">
      <rect x="0" y="0" width="376" style="stroke:none;" height="298" />
      <rect x="8" y="38" transform="translate(-8,-38)" width="375" style="fill:none; stroke:black;" height="297" />
      <text x="15" y="55" transform="translate(-8,-38)" style="fill:black; stroke:none; font-weight:bold;" xml:space="preserve">sd</text>
      <text x="36" y="55" transform="translate(-8,-38)" style="fill:black; stroke:none;" xml:space="preserve">FlipFlopok állapotának véglegesítése</text>
      <line transform="translate(-8,-38)" x1="8" x2="240" y1="62" style="fill:none; stroke:black;" y2="62" />
      <line transform="translate(-8,-38)" x1="246" x2="246" y1="38" style="fill:none; stroke:black;" y2="52" />
      <line transform="translate(-8,-38)" x1="246" x2="240" y1="52" style="fill:none; stroke:black;" y2="62" />
    </g>
    <g transform="translate(112,34)" style="font-size:11; stroke-linecap:butt; text-rendering:geometricPrecision; font-family:sans-serif; stroke-linejoin:round; stroke-miterlimit:0;">
      <rect x="0" y="0" width="79" style="clip-path:url(#clipPath1); fill:none;" height="35" />
      <line x1="39" x2="39" y1="35" style="clip-path:url(#clipPath1); fill:none; stroke-linejoin:bevel; stroke-dasharray:8,3;" y2="200" />
    </g>
    <g transform="translate(292,34)" style="font-size:11; stroke-linecap:butt; text-rendering:geometricPrecision; font-family:sans-serif; stroke-linejoin:round; stroke-miterlimit:0;">
      <rect x="0" y="0" width="65" style="clip-path:url(#clipPath2); fill:none;" height="35" />
      <line x1="65" x2="69" y1="4" style="clip-path:url(#clipPath2); fill:none;" y2="4" />
      <line x1="69" x2="69" y1="4" style="clip-path:url(#clipPath2); fill:none;" y2="39" />
      <line x1="69" x2="4" y1="39" style="clip-path:url(#clipPath2); fill:none;" y2="39" />
      <line x1="69" x2="4" y1="39" style="clip-path:url(#clipPath2); fill:none;" y2="39" />
      <line x1="4" x2="4" y1="39" style="clip-path:url(#clipPath2); fill:none;" y2="35" />
      <line x1="32" x2="32" y1="35" style="clip-path:url(#clipPath2); fill:none; stroke-linejoin:bevel; stroke-dasharray:8,3;" y2="200" />
    </g>
    <g style="text-rendering:geometricPrecision; font-size:11; font-family:sans-serif;" transform="translate(12,84)">
      <circle style="clip-path:url(#clipPath3); stroke:none;" r="7" cx="7" cy="9" />
    </g>
    <g transform="translate(149,96)" style="font-size:11; fill:white; text-rendering:geometricPrecision; font-family:sans-serif; stroke:white;">
      <rect x="0" y="0" width="6" style="clip-path:url(#clipPath4); stroke:none;" height="109" />
    </g>
    <g transform="translate(149,96)" style="font-size:11; stroke-linecap:butt; text-rendering:geometricPrecision; font-family:sans-serif; stroke-linejoin:round; stroke-miterlimit:0;">
      <rect x="0" y="0" width="6" style="clip-path:url(#clipPath4); fill:none;" height="109" />
    </g>
    <g transform="translate(323,167)" style="font-size:11; fill:white; text-rendering:geometricPrecision; font-family:sans-serif; stroke:white;">
      <rect x="0" y="0" width="8" style="clip-path:url(#clipPath5); stroke:none;" height="12" />
    </g>
    <g transform="translate(323,167)" style="font-size:11; stroke-linecap:butt; text-rendering:geometricPrecision; font-family:sans-serif; stroke-linejoin:round; stroke-miterlimit:0;">
      <rect x="0" y="0" width="8" style="clip-path:url(#clipPath5); fill:none;" height="12" />
    </g>
    <g transform="translate(132,104)" style="font-size:11; stroke-linecap:butt; text-rendering:geometricPrecision; font-family:sans-serif; stroke-linejoin:round; font-weight:bold; stroke-miterlimit:0;">
      <rect x="0" y="0" width="230" style="clip-path:url(#clipPath6); fill:none;" height="90" />
    </g>
    <g transform="translate(132,104)" style="font-size:11; fill:white; text-rendering:geometricPrecision; font-family:sans-serif; stroke:white; font-weight:bold;">
      <path d="M32 0 L32 9 L26 17 L0 17 L0 0 Z" style="clip-path:url(#clipPath6); stroke:none;" />
    </g>
    <g transform="translate(132,104)" style="font-size:11; stroke-linecap:butt; text-rendering:geometricPrecision; font-family:sans-serif; stroke-linejoin:round; font-weight:bold; stroke-miterlimit:0;">
      <path d="M32 0 L32 9 L26 17 L0 17 L0 0 Z" style="fill:none; clip-path:url(#clipPath6);" />
    </g>
    <g transform="translate(132,104)" style="text-rendering:geometricPrecision; font-size:11; font-weight:bold; font-family:sans-serif;">
      <text x="4" y="12" style="clip-path:url(#clipPath7); stroke:none;" xml:space="preserve">loop</text>
    </g>
    <g transform="translate(132,122)" style="font-size:11; fill:white; text-rendering:geometricPrecision; font-family:sans-serif; stroke:white;">
      <rect x="28" y="5" width="149" style="clip-path:url(#clipPath8); stroke:none;" height="15" />
    </g>
    <g style="text-rendering:geometricPrecision; font-size:11; font-family:sans-serif;" transform="translate(160,127)">
      <text x="12" y="12" style="clip-path:url(#clipPath9); stroke:none;" xml:space="preserve">[flipFlops minden elemére]</text>
    </g>
    <g transform="translate(22,214)" style="font-size:11; fill:white; text-rendering:geometricPrecision; font-family:sans-serif; stroke:white;">
      <polygon style="clip-path:url(#clipPath11); stroke:none;" points=" 0 0 224 0 239 15 224 15 224 0 239 15 239 69 0 69" />
    </g>
    <g transform="translate(22,214)" style="font-size:11; stroke-linecap:butt; text-rendering:geometricPrecision; font-family:sans-serif; stroke-linejoin:round; stroke-miterlimit:0;">
      <polygon style="fill:none; clip-path:url(#clipPath11);" points=" 0 0 224 0 239 15 224 15 224 0 239 15 239 69 0 69" />
    </g>
    <g style="text-rendering:geometricPrecision; font-size:11; font-family:&apos;Tahoma&apos;;" transform="translate(22,214)">
      <path d="M2.9844 14.9704 L6.2812 6.3767 L7.5 6.3767 L11.0156 14.9704 L9.7344 14.9704 L8.7188 12.3611 L5.1406 12.3611 L4.1875 14.9704 L2.9844 14.9704 ZM5.4688 11.4392 L8.375 11.4392 L7.4844 9.0642 Q7.0625 7.9861 6.875 7.2829 Q6.7031 8.1111 6.4062 8.9236 L5.4688 11.4392 ZM13.7812 7.6111 L13.7812 6.3767 L14.8438 6.3767 L14.8438 7.6111 L13.7812 7.6111 ZM12.4531 17.3923 L12.6406 16.4861 Q12.9688 16.5642 13.1406 16.5642 Q13.4688 16.5642 13.625 16.3532 Q13.7812 16.1423 13.7812 15.2829 L13.7812 8.7517 L14.8438 8.7517 L14.8438 15.3142 Q14.8438 16.4548 14.5469 16.9079 Q14.1562 17.5017 13.2812 17.5017 Q12.8438 17.5017 12.4531 17.3923 ZM21.0469 12.9704 L22.1406 13.0954 Q21.8906 14.0486 21.1875 14.5798 Q20.4844 15.1111 19.4062 15.1111 Q18.0469 15.1111 17.2422 14.2673 Q16.4375 13.4236 16.4375 11.9079 Q16.4375 10.3454 17.25 9.4782 Q18.0625 8.6111 19.3438 8.6111 Q20.5938 8.6111 21.3828 9.4548 Q22.1719 10.2986 22.1719 11.8454 Q22.1719 11.9392 22.1719 12.1267 L17.5312 12.1267 Q17.5938 13.1579 18.1094 13.697 Q18.625 14.2361 19.4062 14.2361 Q19.9844 14.2361 20.3984 13.9314 Q20.8125 13.6267 21.0469 12.9704 ZM17.5938 11.2673 L21.0625 11.2673 Q21 10.4704 20.6719 10.0798 Q20.1562 9.4704 19.3594 9.4704 Q18.625 9.4704 18.1328 9.9548 Q17.6406 10.4392 17.5938 11.2673 ZM23.7656 14.9704 L23.7656 6.3767 L24.8281 6.3767 L24.8281 14.9704 L23.7656 14.9704 ZM31.0469 12.9704 L32.1406 13.0954 Q31.8906 14.0486 31.1875 14.5798 Q30.4844 15.1111 29.4062 15.1111 Q28.0469 15.1111 27.2422 14.2673 Q26.4375 13.4236 26.4375 11.9079 Q26.4375 10.3454 27.25 9.4782 Q28.0625 8.6111 29.3438 8.6111 Q30.5938 8.6111 31.3828 9.4548 Q32.1719 10.2986 32.1719 11.8454 Q32.1719 11.9392 32.1719 12.1267 L27.5312 12.1267 Q27.5938 13.1579 28.1094 13.697 Q28.625 14.2361 29.4062 14.2361 Q29.9844 14.2361 30.3984 13.9314 Q30.8125 13.6267 31.0469 12.9704 ZM27.5938 11.2673 L31.0625 11.2673 Q31 10.4704 30.6719 10.0798 Q30.1562 9.4704 29.3594 9.4704 Q28.625 9.4704 28.1328 9.9548 Q27.6406 10.4392 27.5938 11.2673 ZM33.7969 14.9704 L33.7969 8.7517 L34.7344 8.7517 L34.7344 9.6267 Q35.4219 8.6111 36.7188 8.6111 Q37.2812 8.6111 37.7578 8.8142 Q38.2344 9.0173 38.4688 9.3454 Q38.7031 9.6736 38.7969 10.1111 Q38.8438 10.4079 38.8438 11.1423 L38.8438 14.9704 L37.7969 14.9704 L37.7969 11.1892 Q37.7969 10.5329 37.6719 10.2204 Q37.5469 9.9079 37.2344 9.7126 Q36.9219 9.5173 36.5 9.5173 Q35.8281 9.5173 35.3359 9.947 Q34.8438 10.3767 34.8438 11.5642 L34.8438 14.9704 L33.7969 14.9704 ZM40.7656 14.9704 L40.7656 6.3767 L41.8281 6.3767 L41.8281 14.9704 L40.7656 14.9704 ZM48.0469 12.9704 L49.1406 13.0954 Q48.8906 14.0486 48.1875 14.5798 Q47.4844 15.1111 46.4062 15.1111 Q45.0469 15.1111 44.2422 14.2673 Q43.4375 13.4236 43.4375 11.9079 Q43.4375 10.3454 44.25 9.4782 Q45.0625 8.6111 46.3438 8.6111 Q47.5938 8.6111 48.3828 9.4548 Q49.1719 10.2986 49.1719 11.8454 Q49.1719 11.9392 49.1719 12.1267 L44.5312 12.1267 Q44.5938 13.1579 45.1094 13.697 Q45.625 14.2361 46.4062 14.2361 Q46.9844 14.2361 47.3984 13.9314 Q47.8125 13.6267 48.0469 12.9704 ZM44.5938 11.2673 L48.0625 11.2673 Q48 10.4704 47.6719 10.0798 Q47.1562 9.4704 46.3594 9.4704 Q45.625 9.4704 45.1328 9.9548 Q44.6406 10.4392 44.5938 11.2673 ZM50.5938 15.4861 L51.625 15.6423 Q51.6875 16.1111 51.9844 16.3298 Q52.375 16.6267 53.0469 16.6267 Q53.7812 16.6267 54.1797 16.3298 Q54.5781 16.0329 54.7188 15.5173 Q54.8125 15.1892 54.7969 14.1579 Q54.1094 14.9704 53.0781 14.9704 Q51.7969 14.9704 51.0938 14.0407 Q50.3906 13.1111 50.3906 11.8298 Q50.3906 10.9392 50.7109 10.1814 Q51.0312 9.4236 51.6406 9.0173 Q52.25 8.6111 53.0781 8.6111 Q54.1875 8.6111 54.9062 9.5017 L54.9062 8.7517 L55.875 8.7517 L55.875 14.1267 Q55.875 15.5798 55.5781 16.1892 Q55.2812 16.7986 54.6406 17.1501 Q54 17.5017 53.0625 17.5017 Q51.9531 17.5017 51.2656 17.0017 Q50.5781 16.5017 50.5938 15.4861 ZM51.4688 11.7517 Q51.4688 12.9704 51.9531 13.5329 Q52.4375 14.0954 53.1719 14.0954 Q53.9062 14.0954 54.3984 13.5329 Q54.8906 12.9704 54.8906 11.7829 Q54.8906 10.6423 54.3828 10.0642 Q53.875 9.4861 53.1562 9.4861 Q52.4531 9.4861 51.9609 10.0564 Q51.4688 10.6267 51.4688 11.7517 ZM57.7969 7.5954 L57.7969 6.3767 L58.8594 6.3767 L58.8594 7.5954 L57.7969 7.5954 ZM57.7969 14.9704 L57.7969 8.7517 L58.8594 8.7517 L58.8594 14.9704 L57.7969 14.9704 ZM63.7969 14.9704 L63.7969 6.3767 L64.8594 6.3767 L64.8594 11.2829 L67.3438 8.7517 L68.7188 8.7517 L66.3281 11.0486 L68.9531 14.9704 L67.6562 14.9704 L65.5938 11.7829 L64.8594 12.5017 L64.8594 14.9704 L63.7969 14.9704 ZM69.7969 7.5954 L69.7969 6.3767 L70.8594 6.3767 L70.8594 7.5954 L69.7969 7.5954 ZM69.7969 14.9704 L69.7969 8.7517 L70.8594 8.7517 L70.8594 14.9704 L69.7969 14.9704 ZM72.7969 14.9704 L72.7969 8.7517 L73.7344 8.7517 L73.7344 9.6267 Q74.0312 9.1579 74.5156 8.8845 Q75 8.6111 75.625 8.6111 Q76.3125 8.6111 76.7578 8.8923 Q77.2031 9.1736 77.375 9.6892 Q78.125 8.6111 79.2969 8.6111 Q80.2344 8.6111 80.7266 9.1189 Q81.2188 9.6267 81.2188 10.7048 L81.2188 14.9704 L80.1719 14.9704 L80.1719 11.0486 Q80.1719 10.4236 80.0703 10.1423 Q79.9688 9.8611 79.7031 9.6892 Q79.4375 9.5173 79.0625 9.5173 Q78.4062 9.5173 77.9766 9.9548 Q77.5469 10.3923 77.5469 11.3611 L77.5469 14.9704 L76.4844 14.9704 L76.4844 10.9236 Q76.4844 10.2204 76.2266 9.8689 Q75.9688 9.5173 75.3906 9.5173 Q74.9375 9.5173 74.5625 9.7517 Q74.1875 9.9861 74.0156 10.4392 Q73.8438 10.8923 73.8438 11.7361 L73.8438 14.9704 L72.7969 14.9704 ZM88.0469 12.9704 L89.1406 13.0954 Q88.8906 14.0486 88.1875 14.5798 Q87.4844 15.1111 86.4062 15.1111 Q85.0469 15.1111 84.2422 14.2673 Q83.4375 13.4236 83.4375 11.9079 Q83.4375 10.3454 84.25 9.4782 Q85.0625 8.6111 86.3438 8.6111 Q87.5938 8.6111 88.3828 9.4548 Q89.1719 10.2986 89.1719 11.8454 Q89.1719 11.9392 89.1719 12.1267 L84.5312 12.1267 Q84.5938 13.1579 85.1094 13.697 Q85.625 14.2361 86.4062 14.2361 Q86.9844 14.2361 87.3984 13.9314 Q87.8125 13.6267 88.0469 12.9704 ZM84.5938 11.2673 L88.0625 11.2673 Q88 10.4704 87.6719 10.0798 Q87.1562 9.4704 86.3594 9.4704 Q85.625 9.4704 85.1328 9.9548 Q84.6406 10.4392 84.5938 11.2673 ZM90.7969 14.9704 L90.7969 8.7517 L91.7344 8.7517 L91.7344 9.6267 Q92.4219 8.6111 93.7188 8.6111 Q94.2812 8.6111 94.7578 8.8142 Q95.2344 9.0173 95.4688 9.3454 Q95.7031 9.6736 95.7969 10.1111 Q95.8438 10.4079 95.8438 11.1423 L95.8438 14.9704 L94.7969 14.9704 L94.7969 11.1892 Q94.7969 10.5329 94.6719 10.2204 Q94.5469 9.9079 94.2344 9.7126 Q93.9219 9.5173 93.5 9.5173 Q92.8281 9.5173 92.3359 9.947 Q91.8438 10.3767 91.8438 11.5642 L91.8438 14.9704 L90.7969 14.9704 ZM102.0469 12.9704 L103.1406 13.0954 Q102.8906 14.0486 102.1875 14.5798 Q101.4844 15.1111 100.4062 15.1111 Q99.0469 15.1111 98.2422 14.2673 Q97.4375 13.4236 97.4375 11.9079 Q97.4375 10.3454 98.25 9.4782 Q99.0625 8.6111 100.3438 8.6111 Q101.5938 8.6111 102.3828 9.4548 Q103.1719 10.2986 103.1719 11.8454 Q103.1719 11.9392 103.1719 12.1267 L98.5312 12.1267 Q98.5938 13.1579 99.1094 13.697 Q99.625 14.2361 100.4062 14.2361 Q100.9844 14.2361 101.3984 13.9314 Q101.8125 13.6267 102.0469 12.9704 ZM98.5938 11.2673 L102.0625 11.2673 Q102 10.4704 101.6719 10.0798 Q101.1562 9.4704 100.3594 9.4704 Q99.625 9.4704 99.1328 9.9548 Q98.6406 10.4392 98.5938 11.2673 ZM107.0938 14.0329 L107.25 14.9548 Q106.7969 15.0486 106.4531 15.0486 Q105.875 15.0486 105.5625 14.8689 Q105.25 14.6892 105.1172 14.3923 Q104.9844 14.0954 104.9844 13.1423 L104.9844 9.5642 L104.2188 9.5642 L104.2188 8.7517 L104.9844 8.7517 L104.9844 7.2048 L106.0312 6.5798 L106.0312 8.7517 L107.0938 8.7517 L107.0938 9.5642 L106.0312 9.5642 L106.0312 13.2048 Q106.0312 13.6579 106.0859 13.7829 Q106.1406 13.9079 106.2656 13.9861 Q106.3906 14.0642 106.625 14.0642 Q106.8125 14.0642 107.0938 14.0329 ZM112.0469 12.9704 L113.1406 13.0954 Q112.8906 14.0486 112.1875 14.5798 Q111.4844 15.1111 110.4062 15.1111 Q109.0469 15.1111 108.2422 14.2673 Q107.4375 13.4236 107.4375 11.9079 Q107.4375 10.3454 108.25 9.4782 Q109.0625 8.6111 110.3438 8.6111 Q111.5938 8.6111 112.3828 9.4548 Q113.1719 10.2986 113.1719 11.8454 Q113.1719 11.9392 113.1719 12.1267 L108.5312 12.1267 Q108.5938 13.1579 109.1094 13.697 Q109.625 14.2361 110.4062 14.2361 Q110.9844 14.2361 111.3984 13.9314 Q111.8125 13.6267 112.0469 12.9704 ZM108.5938 11.2673 L112.0625 11.2673 Q112 10.4704 111.6719 10.0798 Q111.1562 9.4704 110.3594 9.4704 Q109.625 9.4704 109.1328 9.9548 Q108.6406 10.4392 108.5938 11.2673 ZM117.0938 14.0329 L117.25 14.9548 Q116.7969 15.0486 116.4531 15.0486 Q115.875 15.0486 115.5625 14.8689 Q115.25 14.6892 115.1172 14.3923 Q114.9844 14.0954 114.9844 13.1423 L114.9844 9.5642 L114.2188 9.5642 L114.2188 8.7517 L114.9844 8.7517 L114.9844 7.2048 L116.0312 6.5798 L116.0312 8.7517 L117.0938 8.7517 L117.0938 9.5642 L116.0312 9.5642 L116.0312 13.2048 Q116.0312 13.6579 116.0859 13.7829 Q116.1406 13.9079 116.2656 13.9861 Q116.3906 14.0642 116.625 14.0642 Q116.8125 14.0642 117.0938 14.0329 ZM125.0469 12.9704 L126.1406 13.0954 Q125.8906 14.0486 125.1875 14.5798 Q124.4844 15.1111 123.4062 15.1111 Q122.0469 15.1111 121.2422 14.2673 Q120.4375 13.4236 120.4375 11.9079 Q120.4375 10.3454 121.25 9.4782 Q122.0625 8.6111 123.3438 8.6111 Q124.5938 8.6111 125.3828 9.4548 Q126.1719 10.2986 126.1719 11.8454 Q126.1719 11.9392 126.1719 12.1267 L121.5312 12.1267 Q121.5938 13.1579 122.1094 13.697 Q122.625 14.2361 123.4062 14.2361 Q123.9844 14.2361 124.3984 13.9314 Q124.8125 13.6267 125.0469 12.9704 ZM121.5938 11.2673 L125.0625 11.2673 Q125 10.4704 124.6719 10.0798 Q124.1562 9.4704 123.3594 9.4704 Q122.625 9.4704 122.1328 9.9548 Q121.6406 10.4392 121.5938 11.2673 ZM127.7656 14.9704 L127.7656 6.3767 L128.8281 6.3767 L128.8281 14.9704 L127.7656 14.9704 ZM130.7969 14.9704 L130.7969 8.7517 L131.7344 8.7517 L131.7344 9.6267 Q132.0312 9.1579 132.5156 8.8845 Q133 8.6111 133.625 8.6111 Q134.3125 8.6111 134.7578 8.8923 Q135.2031 9.1736 135.375 9.6892 Q136.125 8.6111 137.2969 8.6111 Q138.2344 8.6111 138.7266 9.1189 Q139.2188 9.6267 139.2188 10.7048 L139.2188 14.9704 L138.1719 14.9704 L138.1719 11.0486 Q138.1719 10.4236 138.0703 10.1423 Q137.9688 9.8611 137.7031 9.6892 Q137.4375 9.5173 137.0625 9.5173 Q136.4062 9.5173 135.9766 9.9548 Q135.5469 10.3923 135.5469 11.3611 L135.5469 14.9704 L134.4844 14.9704 L134.4844 10.9236 Q134.4844 10.2204 134.2266 9.8689 Q133.9688 9.5173 133.3906 9.5173 Q132.9375 9.5173 132.5625 9.7517 Q132.1875 9.9861 132.0156 10.4392 Q131.8438 10.8923 131.8438 11.7361 L131.8438 14.9704 L130.7969 14.9704 ZM146.0469 12.9704 L147.1406 13.0954 Q146.8906 14.0486 146.1875 14.5798 Q145.4844 15.1111 144.4062 15.1111 Q143.0469 15.1111 142.2422 14.2673 Q141.4375 13.4236 141.4375 11.9079 Q141.4375 10.3454 142.25 9.4782 Q143.0625 8.6111 144.3438 8.6111 Q145.5938 8.6111 146.3828 9.4548 Q147.1719 10.2986 147.1719 11.8454 Q147.1719 11.9392 147.1719 12.1267 L142.5312 12.1267 Q142.5938 13.1579 143.1094 13.697 Q143.625 14.2361 144.4062 14.2361 Q144.9844 14.2361 145.3984 13.9314 Q145.8125 13.6267 146.0469 12.9704 ZM142.5938 11.2673 L146.0625 11.2673 Q146 10.4704 145.6719 10.0798 Q145.1562 9.4704 144.3594 9.4704 Q143.625 9.4704 143.1328 9.9548 Q142.6406 10.4392 142.5938 11.2673 ZM148.7969 14.9704 L148.7969 8.7517 L149.7344 8.7517 L149.7344 9.6267 Q150.4219 8.6111 151.7188 8.6111 Q152.2812 8.6111 152.7578 8.8142 Q153.2344 9.0173 153.4688 9.3454 Q153.7031 9.6736 153.7969 10.1111 Q153.8438 10.4079 153.8438 11.1423 L153.8438 14.9704 L152.7969 14.9704 L152.7969 11.1892 Q152.7969 10.5329 152.6719 10.2204 Q152.5469 9.9079 152.2344 9.7126 Q151.9219 9.5173 151.5 9.5173 Q150.8281 9.5173 150.3359 9.947 Q149.8438 10.3767 149.8438 11.5642 L149.8438 14.9704 L148.7969 14.9704 ZM158.0938 14.0329 L158.25 14.9548 Q157.7969 15.0486 157.4531 15.0486 Q156.875 15.0486 156.5625 14.8689 Q156.25 14.6892 156.1172 14.3923 Q155.9844 14.0954 155.9844 13.1423 L155.9844 9.5642 L155.2188 9.5642 L155.2188 8.7517 L155.9844 8.7517 L155.9844 7.2048 L157.0312 6.5798 L157.0312 8.7517 L158.0938 8.7517 L158.0938 9.5642 L157.0312 9.5642 L157.0312 13.2048 Q157.0312 13.6579 157.0859 13.7829 Q157.1406 13.9079 157.2656 13.9861 Q157.3906 14.0642 157.625 14.0642 Q157.8125 14.0642 158.0938 14.0329 ZM158.7812 7.6111 L158.7812 6.3767 L159.8438 6.3767 L159.8438 7.6111 L158.7812 7.6111 ZM157.4531 17.3923 L157.6406 16.4861 Q157.9688 16.5642 158.1406 16.5642 Q158.4688 16.5642 158.625 16.3532 Q158.7812 16.1423 158.7812 15.2829 L158.7812 8.7517 L159.8438 8.7517 L159.8438 15.3142 Q159.8438 16.4548 159.5469 16.9079 Q159.1562 17.5017 158.2812 17.5017 Q157.8438 17.5017 157.4531 17.3923 ZM165.875 14.9704 L165.875 14.0486 Q165.1406 15.1111 163.8906 15.1111 Q163.3438 15.1111 162.8672 14.9001 Q162.3906 14.6892 162.1562 14.3689 Q161.9219 14.0486 161.8281 13.5798 Q161.7656 13.2829 161.7656 12.5954 L161.7656 8.7517 L162.8281 8.7517 L162.8281 12.2048 Q162.8281 13.0173 162.8906 13.3142 Q162.9844 13.7204 163.3047 13.9626 Q163.625 14.2048 164.1094 14.2048 Q164.5781 14.2048 164.9922 13.9626 Q165.4062 13.7204 165.5859 13.2986 Q165.7656 12.8767 165.7656 12.0798 L165.7656 8.7517 L166.8125 8.7517 L166.8125 14.9704 L165.875 14.9704 ZM162.3594 6.9704 L162.3594 5.7673 L163.4531 5.7673 L163.4531 6.9704 L162.3594 6.9704 ZM164.5469 6.9704 L164.5469 5.7673 L165.6406 5.7673 L165.6406 6.9704 L164.5469 6.9704 ZM168.7969 14.9704 L168.7969 6.3767 L169.8594 6.3767 L169.8594 11.2829 L172.3438 8.7517 L173.7188 8.7517 L171.3281 11.0486 L173.9531 14.9704 L172.6562 14.9704 L170.5938 11.7829 L169.8594 12.5017 L169.8594 14.9704 L168.7969 14.9704 ZM178.7656 14.9704 L177.7812 14.9704 L177.7812 6.3767 L178.8438 6.3767 L178.8438 9.4392 Q179.5156 8.6111 180.5469 8.6111 Q181.125 8.6111 181.6328 8.8376 Q182.1406 9.0642 182.4766 9.4861 Q182.8125 9.9079 183 10.5017 Q183.1875 11.0954 183.1875 11.7673 Q183.1875 13.3611 182.3906 14.2361 Q181.5938 15.1111 180.5 15.1111 Q179.3906 15.1111 178.7656 14.1892 L178.7656 14.9704 ZM178.75 11.8142 Q178.75 12.9236 179.0625 13.4236 Q179.5625 14.2361 180.4062 14.2361 Q181.0938 14.2361 181.6016 13.6423 Q182.1094 13.0486 182.1094 11.8454 Q182.1094 10.6267 181.625 10.0486 Q181.1406 9.4704 180.4531 9.4704 Q179.7656 9.4704 179.2578 10.072 Q178.75 10.6736 178.75 11.8142 ZM189.0469 12.9704 L190.1406 13.0954 Q189.8906 14.0486 189.1875 14.5798 Q188.4844 15.1111 187.4062 15.1111 Q186.0469 15.1111 185.2422 14.2673 Q184.4375 13.4236 184.4375 11.9079 Q184.4375 10.3454 185.25 9.4782 Q186.0625 8.6111 187.3438 8.6111 Q188.5938 8.6111 189.3828 9.4548 Q190.1719 10.2986 190.1719 11.8454 Q190.1719 11.9392 190.1719 12.1267 L185.5312 12.1267 Q185.5938 13.1579 186.1094 13.697 Q186.625 14.2361 187.4062 14.2361 Q187.9844 14.2361 188.3984 13.9314 Q188.8125 13.6267 189.0469 12.9704 ZM185.5938 11.2673 L189.0625 11.2673 Q189 10.4704 188.6719 10.0798 Q188.1562 9.4704 187.3594 9.4704 Q186.625 9.4704 186.1328 9.9548 Q185.6406 10.4392 185.5938 11.2673 ZM191.7656 14.9704 L191.7656 6.3767 L192.8281 6.3767 L192.8281 14.9704 L191.7656 14.9704 ZM194.375 13.1111 L195.4062 12.9548 Q195.5 13.5798 195.8984 13.9079 Q196.2969 14.2361 197.0312 14.2361 Q197.75 14.2361 198.1016 13.947 Q198.4531 13.6579 198.4531 13.2517 Q198.4531 12.8923 198.1406 12.6892 Q197.9219 12.5486 197.0625 12.3298 Q195.9062 12.0329 195.4609 11.822 Q195.0156 11.6111 194.7812 11.2361 Q194.5469 10.8611 194.5469 10.3923 Q194.5469 9.9861 194.7344 9.6267 Q194.9219 9.2673 195.25 9.0329 Q195.5 8.8611 195.9219 8.7361 Q196.3438 8.6111 196.8438 8.6111 Q197.5625 8.6111 198.1172 8.822 Q198.6719 9.0329 198.9375 9.3923 Q199.2031 9.7517 199.2969 10.3454 L198.2656 10.4861 Q198.2031 10.0173 197.8672 9.7439 Q197.5312 9.4704 196.9062 9.4704 Q196.1875 9.4704 195.875 9.7126 Q195.5625 9.9548 195.5625 10.2829 Q195.5625 10.4861 195.6875 10.6423 Q195.8281 10.8142 196.0938 10.9236 Q196.25 10.9861 197.0312 11.1892 Q198.1562 11.5017 198.5938 11.6892 Q199.0312 11.8767 199.2812 12.2361 Q199.5312 12.5954 199.5312 13.1423 Q199.5312 13.6736 199.2266 14.1345 Q198.9219 14.5954 198.3438 14.8532 Q197.7656 15.1111 197.0312 15.1111 Q195.8125 15.1111 195.1797 14.6032 Q194.5469 14.0954 194.375 13.1111 ZM201.4062 11.8611 Q201.4062 10.1267 202.3594 9.2986 Q203.1562 8.6111 204.3125 8.6111 Q205.5938 8.6111 206.4141 9.447 Q207.2344 10.2829 207.2344 11.7673 Q207.2344 12.9704 206.875 13.6579 Q206.5156 14.3454 205.8203 14.7282 Q205.125 15.1111 204.3125 15.1111 Q203.0156 15.1111 202.2109 14.2751 Q201.4062 13.4392 201.4062 11.8611 ZM202.4844 11.8611 Q202.4844 13.0486 203.0078 13.6423 Q203.5312 14.2361 204.3125 14.2361 Q205.1094 14.2361 205.625 13.6423 Q206.1406 13.0486 206.1406 11.8298 Q206.1406 10.6736 205.6172 10.0798 Q205.0938 9.4861 204.3125 9.4861 Q203.5312 9.4861 203.0078 10.072 Q202.4844 10.6579 202.4844 11.8611 ZM202.9688 6.9704 L203.6719 5.3298 L205.0469 5.3298 L203.8125 6.9704 L202.9688 6.9704 ZM205 6.9704 L205.75 5.3298 L207.0938 5.3298 L205.8906 6.9704 L205 6.9704 Z" style="clip-path:url(#clipPath12); stroke:none;" />
      <path d="M7.8594 28.2048 Q7.2656 28.7048 6.7266 28.9079 Q6.1875 29.1111 5.5625 29.1111 Q4.5312 29.1111 3.9844 28.6111 Q3.4375 28.1111 3.4375 27.3298 Q3.4375 26.8767 3.6406 26.4939 Q3.8438 26.1111 4.1875 25.8845 Q4.5312 25.6579 4.9531 25.5486 Q5.25 25.4548 5.8906 25.3767 Q7.1562 25.2361 7.7656 25.0173 Q7.7656 24.7986 7.7656 24.7517 Q7.7656 24.0954 7.4688 23.8298 Q7.0625 23.4861 6.2656 23.4861 Q5.5312 23.4861 5.1719 23.7439 Q4.8125 24.0017 4.6406 24.6579 L3.6094 24.5173 Q3.75 23.8611 4.0781 23.4548 Q4.4062 23.0486 5.0156 22.8298 Q5.625 22.6111 6.4219 22.6111 Q7.2188 22.6111 7.7188 22.7986 Q8.2188 22.9861 8.4531 23.2673 Q8.6875 23.5486 8.7812 23.9861 Q8.8281 24.2517 8.8281 24.9548 L8.8281 26.3611 Q8.8281 27.8298 8.8984 28.2204 Q8.9688 28.6111 9.1719 28.9704 L8.0625 28.9704 Q7.9062 28.6423 7.8594 28.2048 ZM7.7656 25.8454 Q7.1875 26.0798 6.0469 26.2517 Q5.3906 26.3454 5.125 26.4626 Q4.8594 26.5798 4.7109 26.7986 Q4.5625 27.0173 4.5625 27.2986 Q4.5625 27.7204 4.8828 28.0017 Q5.2031 28.2829 5.8125 28.2829 Q6.4219 28.2829 6.8984 28.0173 Q7.375 27.7517 7.5938 27.2829 Q7.7656 26.9236 7.7656 26.2361 L7.7656 25.8454 ZM5.125 20.9704 L5.9062 19.3298 L7.2969 19.3298 L6 20.9704 L5.125 20.9704 ZM10.7656 28.9704 L10.7656 20.3767 L11.8281 20.3767 L11.8281 28.9704 L10.7656 28.9704 ZM13.7656 28.9704 L13.7656 20.3767 L14.8281 20.3767 L14.8281 28.9704 L13.7656 28.9704 ZM20.8594 28.2048 Q20.2656 28.7048 19.7266 28.9079 Q19.1875 29.1111 18.5625 29.1111 Q17.5312 29.1111 16.9844 28.6111 Q16.4375 28.1111 16.4375 27.3298 Q16.4375 26.8767 16.6406 26.4939 Q16.8438 26.1111 17.1875 25.8845 Q17.5312 25.6579 17.9531 25.5486 Q18.25 25.4548 18.8906 25.3767 Q20.1562 25.2361 20.7656 25.0173 Q20.7656 24.7986 20.7656 24.7517 Q20.7656 24.0954 20.4688 23.8298 Q20.0625 23.4861 19.2656 23.4861 Q18.5312 23.4861 18.1719 23.7439 Q17.8125 24.0017 17.6406 24.6579 L16.6094 24.5173 Q16.75 23.8611 17.0781 23.4548 Q17.4062 23.0486 18.0156 22.8298 Q18.625 22.6111 19.4219 22.6111 Q20.2188 22.6111 20.7188 22.7986 Q21.2188 22.9861 21.4531 23.2673 Q21.6875 23.5486 21.7812 23.9861 Q21.8281 24.2517 21.8281 24.9548 L21.8281 26.3611 Q21.8281 27.8298 21.8984 28.2204 Q21.9688 28.6111 22.1719 28.9704 L21.0625 28.9704 Q20.9062 28.6423 20.8594 28.2048 ZM20.7656 25.8454 Q20.1875 26.0798 19.0469 26.2517 Q18.3906 26.3454 18.125 26.4626 Q17.8594 26.5798 17.7109 26.7986 Q17.5625 27.0173 17.5625 27.2986 Q17.5625 27.7204 17.8828 28.0017 Q18.2031 28.2829 18.8125 28.2829 Q19.4219 28.2829 19.8984 28.0173 Q20.375 27.7517 20.5938 27.2829 Q20.7656 26.9236 20.7656 26.2361 L20.7656 25.8454 ZM23.7969 31.3611 L23.7969 22.7517 L24.75 22.7517 L24.75 23.5486 Q25.0938 23.0798 25.5234 22.8454 Q25.9531 22.6111 26.5625 22.6111 Q27.3594 22.6111 27.9688 23.0173 Q28.5781 23.4236 28.8828 24.1736 Q29.1875 24.9236 29.1875 25.8142 Q29.1875 26.7673 28.8516 27.5329 Q28.5156 28.2986 27.8594 28.7048 Q27.2031 29.1111 26.4844 29.1111 Q25.9531 29.1111 25.5312 28.8845 Q25.1094 28.6579 24.8438 28.3298 L24.8438 31.3611 L23.7969 31.3611 ZM24.75 25.8923 Q24.75 27.0954 25.2344 27.6657 Q25.7188 28.2361 26.4062 28.2361 Q27.1094 28.2361 27.6094 27.6423 Q28.1094 27.0486 28.1094 25.7986 Q28.1094 24.6111 27.625 24.0251 Q27.1406 23.4392 26.4531 23.4392 Q25.7812 23.4392 25.2656 24.0642 Q24.75 24.6892 24.75 25.8923 ZM30.4062 25.8611 Q30.4062 24.1267 31.3594 23.2986 Q32.1562 22.6111 33.3125 22.6111 Q34.5938 22.6111 35.4141 23.447 Q36.2344 24.2829 36.2344 25.7673 Q36.2344 26.9704 35.875 27.6579 Q35.5156 28.3454 34.8203 28.7282 Q34.125 29.1111 33.3125 29.1111 Q32.0156 29.1111 31.2109 28.2751 Q30.4062 27.4392 30.4062 25.8611 ZM31.4844 25.8611 Q31.4844 27.0486 32.0078 27.6423 Q32.5312 28.2361 33.3125 28.2361 Q34.1094 28.2361 34.625 27.6423 Q35.1406 27.0486 35.1406 25.8298 Q35.1406 24.6736 34.6172 24.0798 Q34.0938 23.4861 33.3125 23.4861 Q32.5312 23.4861 32.0078 24.072 Q31.4844 24.6579 31.4844 25.8611 ZM40.0938 28.0329 L40.25 28.9548 Q39.7969 29.0486 39.4531 29.0486 Q38.875 29.0486 38.5625 28.8689 Q38.25 28.6892 38.1172 28.3923 Q37.9844 28.0954 37.9844 27.1423 L37.9844 23.5642 L37.2188 23.5642 L37.2188 22.7517 L37.9844 22.7517 L37.9844 21.2048 L39.0312 20.5798 L39.0312 22.7517 L40.0938 22.7517 L40.0938 23.5642 L39.0312 23.5642 L39.0312 27.2048 Q39.0312 27.6579 39.0859 27.7829 Q39.1406 27.9079 39.2656 27.9861 Q39.3906 28.0642 39.625 28.0642 Q39.8125 28.0642 40.0938 28.0329 ZM40.7969 28.9704 L40.7969 22.7517 L41.7344 22.7517 L41.7344 23.6267 Q42.4219 22.6111 43.7188 22.6111 Q44.2812 22.6111 44.7578 22.8142 Q45.2344 23.0173 45.4688 23.3454 Q45.7031 23.6736 45.7969 24.1111 Q45.8438 24.4079 45.8438 25.1423 L45.8438 28.9704 L44.7969 28.9704 L44.7969 25.1892 Q44.7969 24.5329 44.6719 24.2204 Q44.5469 23.9079 44.2344 23.7126 Q43.9219 23.5173 43.5 23.5173 Q42.8281 23.5173 42.3359 23.947 Q41.8438 24.3767 41.8438 25.5642 L41.8438 28.9704 L40.7969 28.9704 ZM51.8594 28.2048 Q51.2656 28.7048 50.7266 28.9079 Q50.1875 29.1111 49.5625 29.1111 Q48.5312 29.1111 47.9844 28.6111 Q47.4375 28.1111 47.4375 27.3298 Q47.4375 26.8767 47.6406 26.4939 Q47.8438 26.1111 48.1875 25.8845 Q48.5312 25.6579 48.9531 25.5486 Q49.25 25.4548 49.8906 25.3767 Q51.1562 25.2361 51.7656 25.0173 Q51.7656 24.7986 51.7656 24.7517 Q51.7656 24.0954 51.4688 23.8298 Q51.0625 23.4861 50.2656 23.4861 Q49.5312 23.4861 49.1719 23.7439 Q48.8125 24.0017 48.6406 24.6579 L47.6094 24.5173 Q47.75 23.8611 48.0781 23.4548 Q48.4062 23.0486 49.0156 22.8298 Q49.625 22.6111 50.4219 22.6111 Q51.2188 22.6111 51.7188 22.7986 Q52.2188 22.9861 52.4531 23.2673 Q52.6875 23.5486 52.7812 23.9861 Q52.8281 24.2517 52.8281 24.9548 L52.8281 26.3611 Q52.8281 27.8298 52.8984 28.2204 Q52.9688 28.6111 53.1719 28.9704 L52.0625 28.9704 Q51.9062 28.6423 51.8594 28.2048 ZM51.7656 25.8454 Q51.1875 26.0798 50.0469 26.2517 Q49.3906 26.3454 49.125 26.4626 Q48.8594 26.5798 48.7109 26.7986 Q48.5625 27.0173 48.5625 27.2986 Q48.5625 27.7204 48.8828 28.0017 Q49.2031 28.2829 49.8125 28.2829 Q50.4219 28.2829 50.8984 28.0173 Q51.375 27.7517 51.5938 27.2829 Q51.7656 26.9236 51.7656 26.2361 L51.7656 25.8454 ZM54.7969 28.9704 L54.7969 20.3767 L55.8594 20.3767 L55.8594 25.2829 L58.3438 22.7517 L59.7188 22.7517 L57.3281 25.0486 L59.9531 28.9704 L58.6562 28.9704 L56.5938 25.7829 L55.8594 26.5017 L55.8594 28.9704 L54.7969 28.9704 ZM68.0469 26.9704 L69.1406 27.0954 Q68.8906 28.0486 68.1875 28.5798 Q67.4844 29.1111 66.4062 29.1111 Q65.0469 29.1111 64.2422 28.2673 Q63.4375 27.4236 63.4375 25.9079 Q63.4375 24.3454 64.25 23.4782 Q65.0625 22.6111 66.3438 22.6111 Q67.5938 22.6111 68.3828 23.4548 Q69.1719 24.2986 69.1719 25.8454 Q69.1719 25.9392 69.1719 26.1267 L64.5312 26.1267 Q64.5938 27.1579 65.1094 27.697 Q65.625 28.2361 66.4062 28.2361 Q66.9844 28.2361 67.3984 27.9314 Q67.8125 27.6267 68.0469 26.9704 ZM64.5938 25.2673 L68.0625 25.2673 Q68 24.4704 67.6719 24.0798 Q67.1562 23.4704 66.3594 23.4704 Q65.625 23.4704 65.1328 23.9548 Q64.6406 24.4392 64.5938 25.2673 ZM65.125 20.9704 L65.9062 19.3298 L67.2969 19.3298 L66 20.9704 L65.125 20.9704 ZM70.375 27.1111 L71.4062 26.9548 Q71.5 27.5798 71.8984 27.9079 Q72.2969 28.2361 73.0312 28.2361 Q73.75 28.2361 74.1016 27.947 Q74.4531 27.6579 74.4531 27.2517 Q74.4531 26.8923 74.1406 26.6892 Q73.9219 26.5486 73.0625 26.3298 Q71.9062 26.0329 71.4609 25.822 Q71.0156 25.6111 70.7812 25.2361 Q70.5469 24.8611 70.5469 24.3923 Q70.5469 23.9861 70.7344 23.6267 Q70.9219 23.2673 71.25 23.0329 Q71.5 22.8611 71.9219 22.7361 Q72.3438 22.6111 72.8438 22.6111 Q73.5625 22.6111 74.1172 22.822 Q74.6719 23.0329 74.9375 23.3923 Q75.2031 23.7517 75.2969 24.3454 L74.2656 24.4861 Q74.2031 24.0173 73.8672 23.7439 Q73.5312 23.4704 72.9062 23.4704 Q72.1875 23.4704 71.875 23.7126 Q71.5625 23.9548 71.5625 24.2829 Q71.5625 24.4861 71.6875 24.6423 Q71.8281 24.8142 72.0938 24.9236 Q72.25 24.9861 73.0312 25.1892 Q74.1562 25.5017 74.5938 25.6892 Q75.0312 25.8767 75.2812 26.2361 Q75.5312 26.5954 75.5312 27.1423 Q75.5312 27.6736 75.2266 28.1345 Q74.9219 28.5954 74.3438 28.8532 Q73.7656 29.1111 73.0312 29.1111 Q71.8125 29.1111 71.1797 28.6032 Q70.5469 28.0954 70.375 27.1111 ZM84.8594 28.2048 Q84.2656 28.7048 83.7266 28.9079 Q83.1875 29.1111 82.5625 29.1111 Q81.5312 29.1111 80.9844 28.6111 Q80.4375 28.1111 80.4375 27.3298 Q80.4375 26.8767 80.6406 26.4939 Q80.8438 26.1111 81.1875 25.8845 Q81.5312 25.6579 81.9531 25.5486 Q82.25 25.4548 82.8906 25.3767 Q84.1562 25.2361 84.7656 25.0173 Q84.7656 24.7986 84.7656 24.7517 Q84.7656 24.0954 84.4688 23.8298 Q84.0625 23.4861 83.2656 23.4861 Q82.5312 23.4861 82.1719 23.7439 Q81.8125 24.0017 81.6406 24.6579 L80.6094 24.5173 Q80.75 23.8611 81.0781 23.4548 Q81.4062 23.0486 82.0156 22.8298 Q82.625 22.6111 83.4219 22.6111 Q84.2188 22.6111 84.7188 22.7986 Q85.2188 22.9861 85.4531 23.2673 Q85.6875 23.5486 85.7812 23.9861 Q85.8281 24.2517 85.8281 24.9548 L85.8281 26.3611 Q85.8281 27.8298 85.8984 28.2204 Q85.9688 28.6111 86.1719 28.9704 L85.0625 28.9704 Q84.9062 28.6423 84.8594 28.2048 ZM84.7656 25.8454 Q84.1875 26.0798 83.0469 26.2517 Q82.3906 26.3454 82.125 26.4626 Q81.8594 26.5798 81.7109 26.7986 Q81.5625 27.0173 81.5625 27.2986 Q81.5625 27.7204 81.8828 28.0017 Q82.2031 28.2829 82.8125 28.2829 Q83.4219 28.2829 83.8984 28.0173 Q84.375 27.7517 84.5938 27.2829 Q84.7656 26.9236 84.7656 26.2361 L84.7656 25.8454 ZM87.2344 28.9704 L87.2344 28.1111 L91.2031 23.5642 Q90.5156 23.5954 90 23.5954 L87.4688 23.5954 L87.4688 22.7517 L92.5625 22.7517 L92.5625 23.4392 L89.1875 27.3923 L88.5312 28.1111 Q89.25 28.0642 89.8594 28.0642 L92.75 28.0642 L92.75 28.9704 L87.2344 28.9704 ZM95.4062 25.8611 Q95.4062 24.1267 96.3594 23.2986 Q97.1562 22.6111 98.3125 22.6111 Q99.5938 22.6111 100.4141 23.447 Q101.2344 24.2829 101.2344 25.7673 Q101.2344 26.9704 100.875 27.6579 Q100.5156 28.3454 99.8203 28.7282 Q99.125 29.1111 98.3125 29.1111 Q97.0156 29.1111 96.2109 28.2751 Q95.4062 27.4392 95.4062 25.8611 ZM96.4844 25.8611 Q96.4844 27.0486 97.0078 27.6423 Q97.5312 28.2361 98.3125 28.2361 Q99.1094 28.2361 99.625 27.6423 Q100.1406 27.0486 100.1406 25.8298 Q100.1406 24.6736 99.6172 24.0798 Q99.0938 23.4861 98.3125 23.4861 Q97.5312 23.4861 97.0078 24.072 Q96.4844 24.6579 96.4844 25.8611 ZM97.125 20.9704 L97.9062 19.3298 L99.2969 19.3298 L98 20.9704 L97.125 20.9704 ZM102.7812 28.9704 L102.7812 22.7517 L103.7344 22.7517 L103.7344 23.6892 Q104.0938 23.0329 104.3984 22.822 Q104.7031 22.6111 105.0781 22.6111 Q105.6094 22.6111 106.1562 22.9392 L105.7969 23.9236 Q105.4062 23.6892 105.0312 23.6892 Q104.6719 23.6892 104.3984 23.9001 Q104.125 24.1111 104.0156 24.4861 Q103.8281 25.0486 103.8281 25.7048 L103.8281 28.9704 L102.7812 28.9704 ZM110.8594 28.2048 Q110.2656 28.7048 109.7266 28.9079 Q109.1875 29.1111 108.5625 29.1111 Q107.5312 29.1111 106.9844 28.6111 Q106.4375 28.1111 106.4375 27.3298 Q106.4375 26.8767 106.6406 26.4939 Q106.8438 26.1111 107.1875 25.8845 Q107.5312 25.6579 107.9531 25.5486 Q108.25 25.4548 108.8906 25.3767 Q110.1562 25.2361 110.7656 25.0173 Q110.7656 24.7986 110.7656 24.7517 Q110.7656 24.0954 110.4688 23.8298 Q110.0625 23.4861 109.2656 23.4861 Q108.5312 23.4861 108.1719 23.7439 Q107.8125 24.0017 107.6406 24.6579 L106.6094 24.5173 Q106.75 23.8611 107.0781 23.4548 Q107.4062 23.0486 108.0156 22.8298 Q108.625 22.6111 109.4219 22.6111 Q110.2188 22.6111 110.7188 22.7986 Q111.2188 22.9861 111.4531 23.2673 Q111.6875 23.5486 111.7812 23.9861 Q111.8281 24.2517 111.8281 24.9548 L111.8281 26.3611 Q111.8281 27.8298 111.8984 28.2204 Q111.9688 28.6111 112.1719 28.9704 L111.0625 28.9704 Q110.9062 28.6423 110.8594 28.2048 ZM110.7656 25.8454 Q110.1875 26.0798 109.0469 26.2517 Q108.3906 26.3454 108.125 26.4626 Q107.8594 26.5798 107.7109 26.7986 Q107.5625 27.0173 107.5625 27.2986 Q107.5625 27.7204 107.8828 28.0017 Q108.2031 28.2829 108.8125 28.2829 Q109.4219 28.2829 109.8984 28.0173 Q110.375 27.7517 110.5938 27.2829 Q110.7656 26.9236 110.7656 26.2361 L110.7656 25.8454 ZM113.7812 21.6111 L113.7812 20.3767 L114.8438 20.3767 L114.8438 21.6111 L113.7812 21.6111 ZM112.4531 31.3923 L112.6406 30.4861 Q112.9688 30.5642 113.1406 30.5642 Q113.4688 30.5642 113.625 30.3532 Q113.7812 30.1423 113.7812 29.2829 L113.7812 22.7517 L114.8438 22.7517 L114.8438 29.3142 Q114.8438 30.4548 114.5469 30.9079 Q114.1562 31.5017 113.2812 31.5017 Q112.8438 31.5017 112.4531 31.3923 ZM121.0469 26.9704 L122.1406 27.0954 Q121.8906 28.0486 121.1875 28.5798 Q120.4844 29.1111 119.4062 29.1111 Q118.0469 29.1111 117.2422 28.2673 Q116.4375 27.4236 116.4375 25.9079 Q116.4375 24.3454 117.25 23.4782 Q118.0625 22.6111 119.3438 22.6111 Q120.5938 22.6111 121.3828 23.4548 Q122.1719 24.2986 122.1719 25.8454 Q122.1719 25.9392 122.1719 26.1267 L117.5312 26.1267 Q117.5938 27.1579 118.1094 27.697 Q118.625 28.2361 119.4062 28.2361 Q119.9844 28.2361 120.3984 27.9314 Q120.8125 27.6267 121.0469 26.9704 ZM117.5938 25.2673 L121.0625 25.2673 Q121 24.4704 120.6719 24.0798 Q120.1562 23.4704 119.3594 23.4704 Q118.625 23.4704 118.1328 23.9548 Q117.6406 24.4392 117.5938 25.2673 ZM123.7656 28.9704 L123.7656 20.3767 L124.8281 20.3767 L124.8281 28.9704 L123.7656 28.9704 ZM130.7656 28.9704 L129.7812 28.9704 L129.7812 20.3767 L130.8438 20.3767 L130.8438 23.4392 Q131.5156 22.6111 132.5469 22.6111 Q133.125 22.6111 133.6328 22.8376 Q134.1406 23.0642 134.4766 23.4861 Q134.8125 23.9079 135 24.5017 Q135.1875 25.0954 135.1875 25.7673 Q135.1875 27.3611 134.3906 28.2361 Q133.5938 29.1111 132.5 29.1111 Q131.3906 29.1111 130.7656 28.1892 L130.7656 28.9704 ZM130.75 25.8142 Q130.75 26.9236 131.0625 27.4236 Q131.5625 28.2361 132.4062 28.2361 Q133.0938 28.2361 133.6016 27.6423 Q134.1094 27.0486 134.1094 25.8454 Q134.1094 24.6267 133.625 24.0486 Q133.1406 23.4704 132.4531 23.4704 Q131.7656 23.4704 131.2578 24.072 Q130.75 24.6736 130.75 25.8142 ZM141.0469 26.9704 L142.1406 27.0954 Q141.8906 28.0486 141.1875 28.5798 Q140.4844 29.1111 139.4062 29.1111 Q138.0469 29.1111 137.2422 28.2673 Q136.4375 27.4236 136.4375 25.9079 Q136.4375 24.3454 137.25 23.4782 Q138.0625 22.6111 139.3438 22.6111 Q140.5938 22.6111 141.3828 23.4548 Q142.1719 24.2986 142.1719 25.8454 Q142.1719 25.9392 142.1719 26.1267 L137.5312 26.1267 Q137.5938 27.1579 138.1094 27.697 Q138.625 28.2361 139.4062 28.2361 Q139.9844 28.2361 140.3984 27.9314 Q140.8125 27.6267 141.0469 26.9704 ZM137.5938 25.2673 L141.0625 25.2673 Q141 24.4704 140.6719 24.0798 Q140.1562 23.4704 139.3594 23.4704 Q138.625 23.4704 138.1328 23.9548 Q137.6406 24.4392 137.5938 25.2673 ZM143.7969 28.9704 L143.7969 22.7517 L144.7344 22.7517 L144.7344 23.6267 Q145.0312 23.1579 145.5156 22.8845 Q146 22.6111 146.625 22.6111 Q147.3125 22.6111 147.7578 22.8923 Q148.2031 23.1736 148.375 23.6892 Q149.125 22.6111 150.2969 22.6111 Q151.2344 22.6111 151.7266 23.1189 Q152.2188 23.6267 152.2188 24.7048 L152.2188 28.9704 L151.1719 28.9704 L151.1719 25.0486 Q151.1719 24.4236 151.0703 24.1423 Q150.9688 23.8611 150.7031 23.6892 Q150.4375 23.5173 150.0625 23.5173 Q149.4062 23.5173 148.9766 23.9548 Q148.5469 24.3923 148.5469 25.3611 L148.5469 28.9704 L147.4844 28.9704 L147.4844 24.9236 Q147.4844 24.2204 147.2266 23.8689 Q146.9688 23.5173 146.3906 23.5173 Q145.9375 23.5173 145.5625 23.7517 Q145.1875 23.9861 145.0156 24.4392 Q144.8438 24.8923 144.8438 25.7361 L144.8438 28.9704 L143.7969 28.9704 ZM159.0469 26.9704 L160.1406 27.0954 Q159.8906 28.0486 159.1875 28.5798 Q158.4844 29.1111 157.4062 29.1111 Q156.0469 29.1111 155.2422 28.2673 Q154.4375 27.4236 154.4375 25.9079 Q154.4375 24.3454 155.25 23.4782 Q156.0625 22.6111 157.3438 22.6111 Q158.5938 22.6111 159.3828 23.4548 Q160.1719 24.2986 160.1719 25.8454 Q160.1719 25.9392 160.1719 26.1267 L155.5312 26.1267 Q155.5938 27.1579 156.1094 27.697 Q156.625 28.2361 157.4062 28.2361 Q157.9844 28.2361 158.3984 27.9314 Q158.8125 27.6267 159.0469 26.9704 ZM155.5938 25.2673 L159.0625 25.2673 Q159 24.4704 158.6719 24.0798 Q158.1562 23.4704 157.3594 23.4704 Q156.625 23.4704 156.1328 23.9548 Q155.6406 24.4392 155.5938 25.2673 ZM161.7969 28.9704 L161.7969 22.7517 L162.7344 22.7517 L162.7344 23.6267 Q163.4219 22.6111 164.7188 22.6111 Q165.2812 22.6111 165.7578 22.8142 Q166.2344 23.0173 166.4688 23.3454 Q166.7031 23.6736 166.7969 24.1111 Q166.8438 24.4079 166.8438 25.1423 L166.8438 28.9704 L165.7969 28.9704 L165.7969 25.1892 Q165.7969 24.5329 165.6719 24.2204 Q165.5469 23.9079 165.2344 23.7126 Q164.9219 23.5173 164.5 23.5173 Q163.8281 23.5173 163.3359 23.947 Q162.8438 24.3767 162.8438 25.5642 L162.8438 28.9704 L161.7969 28.9704 ZM173.0469 26.9704 L174.1406 27.0954 Q173.8906 28.0486 173.1875 28.5798 Q172.4844 29.1111 171.4062 29.1111 Q170.0469 29.1111 169.2422 28.2673 Q168.4375 27.4236 168.4375 25.9079 Q168.4375 24.3454 169.25 23.4782 Q170.0625 22.6111 171.3438 22.6111 Q172.5938 22.6111 173.3828 23.4548 Q174.1719 24.2986 174.1719 25.8454 Q174.1719 25.9392 174.1719 26.1267 L169.5312 26.1267 Q169.5938 27.1579 170.1094 27.697 Q170.625 28.2361 171.4062 28.2361 Q171.9844 28.2361 172.3984 27.9314 Q172.8125 27.6267 173.0469 26.9704 ZM169.5938 25.2673 L173.0625 25.2673 Q173 24.4704 172.6719 24.0798 Q172.1562 23.4704 171.3594 23.4704 Q170.625 23.4704 170.1328 23.9548 Q169.6406 24.4392 169.5938 25.2673 ZM178.0938 28.0329 L178.25 28.9548 Q177.7969 29.0486 177.4531 29.0486 Q176.875 29.0486 176.5625 28.8689 Q176.25 28.6892 176.1172 28.3923 Q175.9844 28.0954 175.9844 27.1423 L175.9844 23.5642 L175.2188 23.5642 L175.2188 22.7517 L175.9844 22.7517 L175.9844 21.2048 L177.0312 20.5798 L177.0312 22.7517 L178.0938 22.7517 L178.0938 23.5642 L177.0312 23.5642 L177.0312 27.2048 Q177.0312 27.6579 177.0859 27.7829 Q177.1406 27.9079 177.2656 27.9861 Q177.3906 28.0642 177.625 28.0642 Q177.8125 28.0642 178.0938 28.0329 ZM183.0469 26.9704 L184.1406 27.0954 Q183.8906 28.0486 183.1875 28.5798 Q182.4844 29.1111 181.4062 29.1111 Q180.0469 29.1111 179.2422 28.2673 Q178.4375 27.4236 178.4375 25.9079 Q178.4375 24.3454 179.25 23.4782 Q180.0625 22.6111 181.3438 22.6111 Q182.5938 22.6111 183.3828 23.4548 Q184.1719 24.2986 184.1719 25.8454 Q184.1719 25.9392 184.1719 26.1267 L179.5312 26.1267 Q179.5938 27.1579 180.1094 27.697 Q180.625 28.2361 181.4062 28.2361 Q181.9844 28.2361 182.3984 27.9314 Q182.8125 27.6267 183.0469 26.9704 ZM179.5938 25.2673 L183.0625 25.2673 Q183 24.4704 182.6719 24.0798 Q182.1562 23.4704 181.3594 23.4704 Q180.625 23.4704 180.1328 23.9548 Q179.6406 24.4392 179.5938 25.2673 ZM180.125 20.9704 L180.9062 19.3298 L182.2969 19.3298 L181 20.9704 L180.125 20.9704 ZM185.7969 28.9704 L185.7969 22.7517 L186.7344 22.7517 L186.7344 23.6267 Q187.4219 22.6111 188.7188 22.6111 Q189.2812 22.6111 189.7578 22.8142 Q190.2344 23.0173 190.4688 23.3454 Q190.7031 23.6736 190.7969 24.1111 Q190.8438 24.4079 190.8438 25.1423 L190.8438 28.9704 L189.7969 28.9704 L189.7969 25.1892 Q189.7969 24.5329 189.6719 24.2204 Q189.5469 23.9079 189.2344 23.7126 Q188.9219 23.5173 188.5 23.5173 Q187.8281 23.5173 187.3359 23.947 Q186.8438 24.3767 186.8438 25.5642 L186.8438 28.9704 L185.7969 28.9704 ZM195.7656 28.9704 L195.7656 20.3767 L196.8281 20.3767 L196.8281 28.9704 L195.7656 28.9704 ZM203.0469 26.9704 L204.1406 27.0954 Q203.8906 28.0486 203.1875 28.5798 Q202.4844 29.1111 201.4062 29.1111 Q200.0469 29.1111 199.2422 28.2673 Q198.4375 27.4236 198.4375 25.9079 Q198.4375 24.3454 199.25 23.4782 Q200.0625 22.6111 201.3438 22.6111 Q202.5938 22.6111 203.3828 23.4548 Q204.1719 24.2986 204.1719 25.8454 Q204.1719 25.9392 204.1719 26.1267 L199.5312 26.1267 Q199.5938 27.1579 200.1094 27.697 Q200.625 28.2361 201.4062 28.2361 Q201.9844 28.2361 202.3984 27.9314 Q202.8125 27.6267 203.0469 26.9704 ZM199.5938 25.2673 L203.0625 25.2673 Q203 24.4704 202.6719 24.0798 Q202.1562 23.4704 201.3594 23.4704 Q200.625 23.4704 200.1328 23.9548 Q199.6406 24.4392 199.5938 25.2673 ZM200.125 20.9704 L200.9062 19.3298 L202.2969 19.3298 L201 20.9704 L200.125 20.9704 ZM207.5156 28.9704 L205.1562 22.7517 L206.2656 22.7517 L207.6094 26.4704 Q207.8125 27.0798 208 27.7204 Q208.1406 27.2361 208.3906 26.5486 L209.7812 22.7517 L210.8594 22.7517 L208.5 28.9704 L207.5156 28.9704 ZM210.4062 25.8611 Q210.4062 24.1267 211.3594 23.2986 Q212.1562 22.6111 213.3125 22.6111 Q214.5938 22.6111 215.4141 23.447 Q216.2344 24.2829 216.2344 25.7673 Q216.2344 26.9704 215.875 27.6579 Q215.5156 28.3454 214.8203 28.7282 Q214.125 29.1111 213.3125 29.1111 Q212.0156 29.1111 211.2109 28.2751 Q210.4062 27.4392 210.4062 25.8611 ZM211.4844 25.8611 Q211.4844 27.0486 212.0078 27.6423 Q212.5312 28.2361 213.3125 28.2361 Q214.1094 28.2361 214.625 27.6423 Q215.1406 27.0486 215.1406 25.8298 Q215.1406 24.6736 214.6172 24.0798 Q214.0938 23.4861 213.3125 23.4861 Q212.5312 23.4861 212.0078 24.072 Q211.4844 24.6579 211.4844 25.8611 ZM211.9688 20.9704 L212.6719 19.3298 L214.0469 19.3298 L212.8125 20.9704 L211.9688 20.9704 ZM214 20.9704 L214.75 19.3298 L216.0938 19.3298 L214.8906 20.9704 L214 20.9704 Z" style="clip-path:url(#clipPath12); stroke:none;" />
      <path d="M8.0469 40.9704 L9.1406 41.0954 Q8.8906 42.0486 8.1875 42.5798 Q7.4844 43.1111 6.4062 43.1111 Q5.0469 43.1111 4.2422 42.2673 Q3.4375 41.4236 3.4375 39.9079 Q3.4375 38.3454 4.25 37.4782 Q5.0625 36.6111 6.3438 36.6111 Q7.5938 36.6111 8.3828 37.4548 Q9.1719 38.2986 9.1719 39.8454 Q9.1719 39.9392 9.1719 40.1267 L4.5312 40.1267 Q4.5938 41.1579 5.1094 41.697 Q5.625 42.2361 6.4062 42.2361 Q6.9844 42.2361 7.3984 41.9314 Q7.8125 41.6267 8.0469 40.9704 ZM4.5938 39.2673 L8.0625 39.2673 Q8 38.4704 7.6719 38.0798 Q7.1562 37.4704 6.3594 37.4704 Q5.625 37.4704 5.1328 37.9548 Q4.6406 38.4392 4.5938 39.2673 ZM5.125 34.9704 L5.9062 33.3298 L7.2969 33.3298 L6 34.9704 L5.125 34.9704 ZM10.7812 42.9704 L10.7812 36.7517 L11.7344 36.7517 L11.7344 37.6892 Q12.0938 37.0329 12.3984 36.822 Q12.7031 36.6111 13.0781 36.6111 Q13.6094 36.6111 14.1562 36.9392 L13.7969 37.9236 Q13.4062 37.6892 13.0312 37.6892 Q12.6719 37.6892 12.3984 37.9001 Q12.125 38.1111 12.0156 38.4861 Q11.8281 39.0486 11.8281 39.7048 L11.8281 42.9704 L10.7812 42.9704 ZM17.0938 42.0329 L17.25 42.9548 Q16.7969 43.0486 16.4531 43.0486 Q15.875 43.0486 15.5625 42.8689 Q15.25 42.6892 15.1172 42.3923 Q14.9844 42.0954 14.9844 41.1423 L14.9844 37.5642 L14.2188 37.5642 L14.2188 36.7517 L14.9844 36.7517 L14.9844 35.2048 L16.0312 34.5798 L16.0312 36.7517 L17.0938 36.7517 L17.0938 37.5642 L16.0312 37.5642 L16.0312 41.2048 Q16.0312 41.6579 16.0859 41.7829 Q16.1406 41.9079 16.2656 41.9861 Q16.3906 42.0642 16.625 42.0642 Q16.8125 42.0642 17.0938 42.0329 ZM22.0469 40.9704 L23.1406 41.0954 Q22.8906 42.0486 22.1875 42.5798 Q21.4844 43.1111 20.4062 43.1111 Q19.0469 43.1111 18.2422 42.2673 Q17.4375 41.4236 17.4375 39.9079 Q17.4375 38.3454 18.25 37.4782 Q19.0625 36.6111 20.3438 36.6111 Q21.5938 36.6111 22.3828 37.4548 Q23.1719 38.2986 23.1719 39.8454 Q23.1719 39.9392 23.1719 40.1267 L18.5312 40.1267 Q18.5938 41.1579 19.1094 41.697 Q19.625 42.2361 20.4062 42.2361 Q20.9844 42.2361 21.3984 41.9314 Q21.8125 41.6267 22.0469 40.9704 ZM18.5938 39.2673 L22.0625 39.2673 Q22 38.4704 21.6719 38.0798 Q21.1562 37.4704 20.3594 37.4704 Q19.625 37.4704 19.1328 37.9548 Q18.6406 38.4392 18.5938 39.2673 ZM19.125 34.9704 L19.9062 33.3298 L21.2969 33.3298 L20 34.9704 L19.125 34.9704 ZM24.7969 42.9704 L24.7969 34.3767 L25.8594 34.3767 L25.8594 39.2829 L28.3438 36.7517 L29.7188 36.7517 L27.3281 39.0486 L29.9531 42.9704 L28.6562 42.9704 L26.5938 39.7829 L25.8594 40.5017 L25.8594 42.9704 L24.7969 42.9704 ZM35.0469 40.9704 L36.1406 41.0954 Q35.8906 42.0486 35.1875 42.5798 Q34.4844 43.1111 33.4062 43.1111 Q32.0469 43.1111 31.2422 42.2673 Q30.4375 41.4236 30.4375 39.9079 Q30.4375 38.3454 31.25 37.4782 Q32.0625 36.6111 33.3438 36.6111 Q34.5938 36.6111 35.3828 37.4548 Q36.1719 38.2986 36.1719 39.8454 Q36.1719 39.9392 36.1719 40.1267 L31.5312 40.1267 Q31.5938 41.1579 32.1094 41.697 Q32.625 42.2361 33.4062 42.2361 Q33.9844 42.2361 34.3984 41.9314 Q34.8125 41.6267 35.0469 40.9704 ZM31.5938 39.2673 L35.0625 39.2673 Q35 38.4704 34.6719 38.0798 Q34.1562 37.4704 33.3594 37.4704 Q32.625 37.4704 32.1328 37.9548 Q31.6406 38.4392 31.5938 39.2673 ZM40.0938 42.0329 L40.25 42.9548 Q39.7969 43.0486 39.4531 43.0486 Q38.875 43.0486 38.5625 42.8689 Q38.25 42.6892 38.1172 42.3923 Q37.9844 42.0954 37.9844 41.1423 L37.9844 37.5642 L37.2188 37.5642 L37.2188 36.7517 L37.9844 36.7517 L37.9844 35.2048 L39.0312 34.5798 L39.0312 36.7517 L40.0938 36.7517 L40.0938 37.5642 L39.0312 37.5642 L39.0312 41.2048 Q39.0312 41.6579 39.0859 41.7829 Q39.1406 41.9079 39.2656 41.9861 Q39.3906 42.0642 39.625 42.0642 Q39.8125 42.0642 40.0938 42.0329 ZM41.0625 42.9704 L41.0625 41.7673 L42.2656 41.7673 L42.2656 42.9704 Q42.2656 43.6267 42.0312 44.0407 Q41.7969 44.4548 41.2969 44.6736 L41 44.2204 Q41.3281 44.0798 41.4844 43.7907 Q41.6406 43.5017 41.6719 42.9704 L41.0625 42.9704 ZM50.8594 42.2048 Q50.2656 42.7048 49.7266 42.9079 Q49.1875 43.1111 48.5625 43.1111 Q47.5312 43.1111 46.9844 42.6111 Q46.4375 42.1111 46.4375 41.3298 Q46.4375 40.8767 46.6406 40.4939 Q46.8438 40.1111 47.1875 39.8845 Q47.5312 39.6579 47.9531 39.5486 Q48.25 39.4548 48.8906 39.3767 Q50.1562 39.2361 50.7656 39.0173 Q50.7656 38.7986 50.7656 38.7517 Q50.7656 38.0954 50.4688 37.8298 Q50.0625 37.4861 49.2656 37.4861 Q48.5312 37.4861 48.1719 37.7439 Q47.8125 38.0017 47.6406 38.6579 L46.6094 38.5173 Q46.75 37.8611 47.0781 37.4548 Q47.4062 37.0486 48.0156 36.8298 Q48.625 36.6111 49.4219 36.6111 Q50.2188 36.6111 50.7188 36.7986 Q51.2188 36.9861 51.4531 37.2673 Q51.6875 37.5486 51.7812 37.9861 Q51.8281 38.2517 51.8281 38.9548 L51.8281 40.3611 Q51.8281 41.8298 51.8984 42.2204 Q51.9688 42.6111 52.1719 42.9704 L51.0625 42.9704 Q50.9062 42.6423 50.8594 42.2048 ZM50.7656 39.8454 Q50.1875 40.0798 49.0469 40.2517 Q48.3906 40.3454 48.125 40.4626 Q47.8594 40.5798 47.7109 40.7986 Q47.5625 41.0173 47.5625 41.2986 Q47.5625 41.7204 47.8828 42.0017 Q48.2031 42.2829 48.8125 42.2829 Q49.4219 42.2829 49.8984 42.0173 Q50.375 41.7517 50.5938 41.2829 Q50.7656 40.9236 50.7656 40.2361 L50.7656 39.8454 ZM56.7969 42.9704 L56.7969 34.3767 L57.8438 34.3767 L57.8438 37.4548 Q58.5781 36.6111 59.7031 36.6111 Q60.4062 36.6111 60.9141 36.8845 Q61.4219 37.1579 61.6406 37.6345 Q61.8594 38.1111 61.8594 39.0329 L61.8594 42.9704 L60.8125 42.9704 L60.8125 39.0329 Q60.8125 38.2361 60.4688 37.8767 Q60.125 37.5173 59.5 37.5173 Q59.0312 37.5173 58.6172 37.7595 Q58.2031 38.0017 58.0234 38.4157 Q57.8438 38.8298 57.8438 39.5642 L57.8438 42.9704 L56.7969 42.9704 ZM68.0469 40.9704 L69.1406 41.0954 Q68.8906 42.0486 68.1875 42.5798 Q67.4844 43.1111 66.4062 43.1111 Q65.0469 43.1111 64.2422 42.2673 Q63.4375 41.4236 63.4375 39.9079 Q63.4375 38.3454 64.25 37.4782 Q65.0625 36.6111 66.3438 36.6111 Q67.5938 36.6111 68.3828 37.4548 Q69.1719 38.2986 69.1719 39.8454 Q69.1719 39.9392 69.1719 40.1267 L64.5312 40.1267 Q64.5938 41.1579 65.1094 41.697 Q65.625 42.2361 66.4062 42.2361 Q66.9844 42.2361 67.3984 41.9314 Q67.8125 41.6267 68.0469 40.9704 ZM64.5938 39.2673 L68.0625 39.2673 Q68 38.4704 67.6719 38.0798 Q67.1562 37.4704 66.3594 37.4704 Q65.625 37.4704 65.1328 37.9548 Q64.6406 38.4392 64.5938 39.2673 ZM70.7656 42.9704 L70.7656 34.3767 L71.8281 34.3767 L71.8281 42.9704 L70.7656 42.9704 ZM73.75 45.3611 L73.625 44.3767 Q73.9688 44.4704 74.2344 44.4704 Q74.5781 44.4704 74.7891 44.3532 Q75 44.2361 75.1406 44.0329 Q75.2344 43.8611 75.4688 43.2361 Q75.4844 43.1579 75.5625 42.9861 L73.1875 36.7517 L74.3281 36.7517 L75.625 40.3454 Q75.875 41.0329 76.0781 41.7986 Q76.2656 41.0642 76.5156 40.3767 L77.8438 36.7517 L78.8906 36.7517 L76.5312 43.0798 Q76.1406 44.0954 75.9375 44.4861 Q75.6562 45.0173 75.2891 45.2595 Q74.9219 45.5017 74.4219 45.5017 Q74.125 45.5017 73.75 45.3611 ZM83.0469 40.9704 L84.1406 41.0954 Q83.8906 42.0486 83.1875 42.5798 Q82.4844 43.1111 81.4062 43.1111 Q80.0469 43.1111 79.2422 42.2673 Q78.4375 41.4236 78.4375 39.9079 Q78.4375 38.3454 79.25 37.4782 Q80.0625 36.6111 81.3438 36.6111 Q82.5938 36.6111 83.3828 37.4548 Q84.1719 38.2986 84.1719 39.8454 Q84.1719 39.9392 84.1719 40.1267 L79.5312 40.1267 Q79.5938 41.1579 80.1094 41.697 Q80.625 42.2361 81.4062 42.2361 Q81.9844 42.2361 82.3984 41.9314 Q82.8125 41.6267 83.0469 40.9704 ZM79.5938 39.2673 L83.0625 39.2673 Q83 38.4704 82.6719 38.0798 Q82.1562 37.4704 81.3594 37.4704 Q80.625 37.4704 80.1328 37.9548 Q79.6406 38.4392 79.5938 39.2673 ZM85.375 41.1111 L86.4062 40.9548 Q86.5 41.5798 86.8984 41.9079 Q87.2969 42.2361 88.0312 42.2361 Q88.75 42.2361 89.1016 41.947 Q89.4531 41.6579 89.4531 41.2517 Q89.4531 40.8923 89.1406 40.6892 Q88.9219 40.5486 88.0625 40.3298 Q86.9062 40.0329 86.4609 39.822 Q86.0156 39.6111 85.7812 39.2361 Q85.5469 38.8611 85.5469 38.3923 Q85.5469 37.9861 85.7344 37.6267 Q85.9219 37.2673 86.25 37.0329 Q86.5 36.8611 86.9219 36.7361 Q87.3438 36.6111 87.8438 36.6111 Q88.5625 36.6111 89.1172 36.822 Q89.6719 37.0329 89.9375 37.3923 Q90.2031 37.7517 90.2969 38.3454 L89.2656 38.4861 Q89.2031 38.0173 88.8672 37.7439 Q88.5312 37.4704 87.9062 37.4704 Q87.1875 37.4704 86.875 37.7126 Q86.5625 37.9548 86.5625 38.2829 Q86.5625 38.4861 86.6875 38.6423 Q86.8281 38.8142 87.0938 38.9236 Q87.25 38.9861 88.0312 39.1892 Q89.1562 39.5017 89.5938 39.6892 Q90.0312 39.8767 90.2812 40.2361 Q90.5312 40.5954 90.5312 41.1423 Q90.5312 41.6736 90.2266 42.1345 Q89.9219 42.5954 89.3438 42.8532 Q88.7656 43.1111 88.0312 43.1111 Q86.8125 43.1111 86.1797 42.6032 Q85.5469 42.0954 85.375 41.1111 ZM100.0469 40.9704 L101.1406 41.0954 Q100.8906 42.0486 100.1875 42.5798 Q99.4844 43.1111 98.4062 43.1111 Q97.0469 43.1111 96.2422 42.2673 Q95.4375 41.4236 95.4375 39.9079 Q95.4375 38.3454 96.25 37.4782 Q97.0625 36.6111 98.3438 36.6111 Q99.5938 36.6111 100.3828 37.4548 Q101.1719 38.2986 101.1719 39.8454 Q101.1719 39.9392 101.1719 40.1267 L96.5312 40.1267 Q96.5938 41.1579 97.1094 41.697 Q97.625 42.2361 98.4062 42.2361 Q98.9844 42.2361 99.3984 41.9314 Q99.8125 41.6267 100.0469 40.9704 ZM96.5938 39.2673 L100.0625 39.2673 Q100 38.4704 99.6719 38.0798 Q99.1562 37.4704 98.3594 37.4704 Q97.625 37.4704 97.1328 37.9548 Q96.6406 38.4392 96.5938 39.2673 ZM97.125 34.9704 L97.9062 33.3298 L99.2969 33.3298 L98 34.9704 L97.125 34.9704 ZM102.7656 42.9704 L102.7656 34.3767 L103.8281 34.3767 L103.8281 42.9704 L102.7656 42.9704 ZM109.8281 42.9704 L109.8281 42.1892 Q109.2344 43.1111 108.0938 43.1111 Q107.3438 43.1111 106.7188 42.697 Q106.0938 42.2829 105.75 41.5486 Q105.4062 40.8142 105.4062 39.8611 Q105.4062 38.9392 105.7188 38.1736 Q106.0312 37.4079 106.6562 37.0095 Q107.2812 36.6111 108.0469 36.6111 Q108.6094 36.6111 109.0469 36.8454 Q109.4844 37.0798 109.7656 37.4548 L109.7656 34.3767 L110.8125 34.3767 L110.8125 42.9704 L109.8281 42.9704 ZM106.5 39.8611 Q106.5 41.0642 107 41.6501 Q107.5 42.2361 108.1875 42.2361 Q108.875 42.2361 109.3594 41.6736 Q109.8438 41.1111 109.8438 39.9548 Q109.8438 38.6736 109.3516 38.0798 Q108.8594 37.4861 108.1406 37.4861 Q107.4375 37.4861 106.9688 38.0564 Q106.5 38.6267 106.5 39.8611 ZM117.0469 40.9704 L118.1406 41.0954 Q117.8906 42.0486 117.1875 42.5798 Q116.4844 43.1111 115.4062 43.1111 Q114.0469 43.1111 113.2422 42.2673 Q112.4375 41.4236 112.4375 39.9079 Q112.4375 38.3454 113.25 37.4782 Q114.0625 36.6111 115.3438 36.6111 Q116.5938 36.6111 117.3828 37.4548 Q118.1719 38.2986 118.1719 39.8454 Q118.1719 39.9392 118.1719 40.1267 L113.5312 40.1267 Q113.5938 41.1579 114.1094 41.697 Q114.625 42.2361 115.4062 42.2361 Q115.9844 42.2361 116.3984 41.9314 Q116.8125 41.6267 117.0469 40.9704 ZM113.5938 39.2673 L117.0625 39.2673 Q117 38.4704 116.6719 38.0798 Q116.1562 37.4704 115.3594 37.4704 Q114.625 37.4704 114.1328 37.9548 Q113.6406 38.4392 113.5938 39.2673 ZM122.0938 42.0329 L122.25 42.9548 Q121.7969 43.0486 121.4531 43.0486 Q120.875 43.0486 120.5625 42.8689 Q120.25 42.6892 120.1172 42.3923 Q119.9844 42.0954 119.9844 41.1423 L119.9844 37.5642 L119.2188 37.5642 L119.2188 36.7517 L119.9844 36.7517 L119.9844 35.2048 L121.0312 34.5798 L121.0312 36.7517 L122.0938 36.7517 L122.0938 37.5642 L121.0312 37.5642 L121.0312 41.2048 Q121.0312 41.6579 121.0859 41.7829 Q121.1406 41.9079 121.2656 41.9861 Q121.3906 42.0642 121.625 42.0642 Q121.8125 42.0642 122.0938 42.0329 ZM127.0469 40.9704 L128.1406 41.0954 Q127.8906 42.0486 127.1875 42.5798 Q126.4844 43.1111 125.4062 43.1111 Q124.0469 43.1111 123.2422 42.2673 Q122.4375 41.4236 122.4375 39.9079 Q122.4375 38.3454 123.25 37.4782 Q124.0625 36.6111 125.3438 36.6111 Q126.5938 36.6111 127.3828 37.4548 Q128.1719 38.2986 128.1719 39.8454 Q128.1719 39.9392 128.1719 40.1267 L123.5312 40.1267 Q123.5938 41.1579 124.1094 41.697 Q124.625 42.2361 125.4062 42.2361 Q125.9844 42.2361 126.3984 41.9314 Q126.8125 41.6267 127.0469 40.9704 ZM123.5938 39.2673 L127.0625 39.2673 Q127 38.4704 126.6719 38.0798 Q126.1562 37.4704 125.3594 37.4704 Q124.625 37.4704 124.1328 37.9548 Q123.6406 38.4392 123.5938 39.2673 ZM129.7969 42.9704 L129.7969 34.3767 L130.8594 34.3767 L130.8594 39.2829 L133.3438 36.7517 L134.7188 36.7517 L132.3281 39.0486 L134.9531 42.9704 L133.6562 42.9704 L131.5938 39.7829 L130.8594 40.5017 L130.8594 42.9704 L129.7969 42.9704 ZM138.0938 42.0329 L138.25 42.9548 Q137.7969 43.0486 137.4531 43.0486 Q136.875 43.0486 136.5625 42.8689 Q136.25 42.6892 136.1172 42.3923 Q135.9844 42.0954 135.9844 41.1423 L135.9844 37.5642 L135.2188 37.5642 L135.2188 36.7517 L135.9844 36.7517 L135.9844 35.2048 L137.0312 34.5798 L137.0312 36.7517 L138.0938 36.7517 L138.0938 37.5642 L137.0312 37.5642 L137.0312 41.2048 Q137.0312 41.6579 137.0859 41.7829 Q137.1406 41.9079 137.2656 41.9861 Q137.3906 42.0642 137.625 42.0642 Q137.8125 42.0642 138.0938 42.0329 ZM142.8594 42.2048 Q142.2656 42.7048 141.7266 42.9079 Q141.1875 43.1111 140.5625 43.1111 Q139.5312 43.1111 138.9844 42.6111 Q138.4375 42.1111 138.4375 41.3298 Q138.4375 40.8767 138.6406 40.4939 Q138.8438 40.1111 139.1875 39.8845 Q139.5312 39.6579 139.9531 39.5486 Q140.25 39.4548 140.8906 39.3767 Q142.1562 39.2361 142.7656 39.0173 Q142.7656 38.7986 142.7656 38.7517 Q142.7656 38.0954 142.4688 37.8298 Q142.0625 37.4861 141.2656 37.4861 Q140.5312 37.4861 140.1719 37.7439 Q139.8125 38.0017 139.6406 38.6579 L138.6094 38.5173 Q138.75 37.8611 139.0781 37.4548 Q139.4062 37.0486 140.0156 36.8298 Q140.625 36.6111 141.4219 36.6111 Q142.2188 36.6111 142.7188 36.7986 Q143.2188 36.9861 143.4531 37.2673 Q143.6875 37.5486 143.7812 37.9861 Q143.8281 38.2517 143.8281 38.9548 L143.8281 40.3611 Q143.8281 41.8298 143.8984 42.2204 Q143.9688 42.6111 144.1719 42.9704 L143.0625 42.9704 Q142.9062 42.6423 142.8594 42.2048 ZM142.7656 39.8454 Q142.1875 40.0798 141.0469 40.2517 Q140.3906 40.3454 140.125 40.4626 Q139.8594 40.5798 139.7109 40.7986 Q139.5625 41.0173 139.5625 41.2986 Q139.5625 41.7204 139.8828 42.0017 Q140.2031 42.2829 140.8125 42.2829 Q141.4219 42.2829 141.8984 42.0173 Q142.375 41.7517 142.5938 41.2829 Q142.7656 40.9236 142.7656 40.2361 L142.7656 39.8454 ZM140.125 34.9704 L140.9062 33.3298 L142.2969 33.3298 L141 34.9704 L140.125 34.9704 ZM145.7656 42.9704 L145.7656 34.3767 L146.8281 34.3767 L146.8281 42.9704 L145.7656 42.9704 ZM152.8594 42.2048 Q152.2656 42.7048 151.7266 42.9079 Q151.1875 43.1111 150.5625 43.1111 Q149.5312 43.1111 148.9844 42.6111 Q148.4375 42.1111 148.4375 41.3298 Q148.4375 40.8767 148.6406 40.4939 Q148.8438 40.1111 149.1875 39.8845 Q149.5312 39.6579 149.9531 39.5486 Q150.25 39.4548 150.8906 39.3767 Q152.1562 39.2361 152.7656 39.0173 Q152.7656 38.7986 152.7656 38.7517 Q152.7656 38.0954 152.4688 37.8298 Q152.0625 37.4861 151.2656 37.4861 Q150.5312 37.4861 150.1719 37.7439 Q149.8125 38.0017 149.6406 38.6579 L148.6094 38.5173 Q148.75 37.8611 149.0781 37.4548 Q149.4062 37.0486 150.0156 36.8298 Q150.625 36.6111 151.4219 36.6111 Q152.2188 36.6111 152.7188 36.7986 Q153.2188 36.9861 153.4531 37.2673 Q153.6875 37.5486 153.7812 37.9861 Q153.8281 38.2517 153.8281 38.9548 L153.8281 40.3611 Q153.8281 41.8298 153.8984 42.2204 Q153.9688 42.6111 154.1719 42.9704 L153.0625 42.9704 Q152.9062 42.6423 152.8594 42.2048 ZM152.7656 39.8454 Q152.1875 40.0798 151.0469 40.2517 Q150.3906 40.3454 150.125 40.4626 Q149.8594 40.5798 149.7109 40.7986 Q149.5625 41.0173 149.5625 41.2986 Q149.5625 41.7204 149.8828 42.0017 Q150.2031 42.2829 150.8125 42.2829 Q151.4219 42.2829 151.8984 42.0173 Q152.375 41.7517 152.5938 41.2829 Q152.7656 40.9236 152.7656 40.2361 L152.7656 39.8454 ZM150.125 34.9704 L150.9062 33.3298 L152.2969 33.3298 L151 34.9704 L150.125 34.9704 ZM155.375 41.1111 L156.4062 40.9548 Q156.5 41.5798 156.8984 41.9079 Q157.2969 42.2361 158.0312 42.2361 Q158.75 42.2361 159.1016 41.947 Q159.4531 41.6579 159.4531 41.2517 Q159.4531 40.8923 159.1406 40.6892 Q158.9219 40.5486 158.0625 40.3298 Q156.9062 40.0329 156.4609 39.822 Q156.0156 39.6111 155.7812 39.2361 Q155.5469 38.8611 155.5469 38.3923 Q155.5469 37.9861 155.7344 37.6267 Q155.9219 37.2673 156.25 37.0329 Q156.5 36.8611 156.9219 36.7361 Q157.3438 36.6111 157.8438 36.6111 Q158.5625 36.6111 159.1172 36.822 Q159.6719 37.0329 159.9375 37.3923 Q160.2031 37.7517 160.2969 38.3454 L159.2656 38.4861 Q159.2031 38.0173 158.8672 37.7439 Q158.5312 37.4704 157.9062 37.4704 Q157.1875 37.4704 156.875 37.7126 Q156.5625 37.9548 156.5625 38.2829 Q156.5625 38.4861 156.6875 38.6423 Q156.8281 38.8142 157.0938 38.9236 Q157.25 38.9861 158.0312 39.1892 Q159.1562 39.5017 159.5938 39.6892 Q160.0312 39.8767 160.2812 40.2361 Q160.5312 40.5954 160.5312 41.1423 Q160.5312 41.6736 160.2266 42.1345 Q159.9219 42.5954 159.3438 42.8532 Q158.7656 43.1111 158.0312 43.1111 Q156.8125 43.1111 156.1797 42.6032 Q155.5469 42.0954 155.375 41.1111 ZM170.0469 40.9704 L171.1406 41.0954 Q170.8906 42.0486 170.1875 42.5798 Q169.4844 43.1111 168.4062 43.1111 Q167.0469 43.1111 166.2422 42.2673 Q165.4375 41.4236 165.4375 39.9079 Q165.4375 38.3454 166.25 37.4782 Q167.0625 36.6111 168.3438 36.6111 Q169.5938 36.6111 170.3828 37.4548 Q171.1719 38.2986 171.1719 39.8454 Q171.1719 39.9392 171.1719 40.1267 L166.5312 40.1267 Q166.5938 41.1579 167.1094 41.697 Q167.625 42.2361 168.4062 42.2361 Q168.9844 42.2361 169.3984 41.9314 Q169.8125 41.6267 170.0469 40.9704 ZM166.5938 39.2673 L170.0625 39.2673 Q170 38.4704 169.6719 38.0798 Q169.1562 37.4704 168.3594 37.4704 Q167.625 37.4704 167.1328 37.9548 Q166.6406 38.4392 166.5938 39.2673 ZM167.125 34.9704 L167.9062 33.3298 L169.2969 33.3298 L168 34.9704 L167.125 34.9704 ZM172.7812 42.9704 L172.7812 36.7517 L173.7344 36.7517 L173.7344 37.6892 Q174.0938 37.0329 174.3984 36.822 Q174.7031 36.6111 175.0781 36.6111 Q175.6094 36.6111 176.1562 36.9392 L175.7969 37.9236 Q175.4062 37.6892 175.0312 37.6892 Q174.6719 37.6892 174.3984 37.9001 Q174.125 38.1111 174.0156 38.4861 Q173.8281 39.0486 173.8281 39.7048 L173.8281 42.9704 L172.7812 42.9704 ZM180.8281 42.9704 L180.8281 42.1892 Q180.2344 43.1111 179.0938 43.1111 Q178.3438 43.1111 177.7188 42.697 Q177.0938 42.2829 176.75 41.5486 Q176.4062 40.8142 176.4062 39.8611 Q176.4062 38.9392 176.7188 38.1736 Q177.0312 37.4079 177.6562 37.0095 Q178.2812 36.6111 179.0469 36.6111 Q179.6094 36.6111 180.0469 36.8454 Q180.4844 37.0798 180.7656 37.4548 L180.7656 34.3767 L181.8125 34.3767 L181.8125 42.9704 L180.8281 42.9704 ZM177.5 39.8611 Q177.5 41.0642 178 41.6501 Q178.5 42.2361 179.1875 42.2361 Q179.875 42.2361 180.3594 41.6736 Q180.8438 41.1111 180.8438 39.9548 Q180.8438 38.6736 180.3516 38.0798 Q179.8594 37.4861 179.1406 37.4861 Q178.4375 37.4861 177.9688 38.0564 Q177.5 38.6267 177.5 39.8611 ZM188.0469 40.9704 L189.1406 41.0954 Q188.8906 42.0486 188.1875 42.5798 Q187.4844 43.1111 186.4062 43.1111 Q185.0469 43.1111 184.2422 42.2673 Q183.4375 41.4236 183.4375 39.9079 Q183.4375 38.3454 184.25 37.4782 Q185.0625 36.6111 186.3438 36.6111 Q187.5938 36.6111 188.3828 37.4548 Q189.1719 38.2986 189.1719 39.8454 Q189.1719 39.9392 189.1719 40.1267 L184.5312 40.1267 Q184.5938 41.1579 185.1094 41.697 Q185.625 42.2361 186.4062 42.2361 Q186.9844 42.2361 187.3984 41.9314 Q187.8125 41.6267 188.0469 40.9704 ZM184.5938 39.2673 L188.0625 39.2673 Q188 38.4704 187.6719 38.0798 Q187.1562 37.4704 186.3594 37.4704 Q185.625 37.4704 185.1328 37.9548 Q184.6406 38.4392 184.5938 39.2673 ZM190.7969 42.9704 L190.7969 34.3767 L191.8594 34.3767 L191.8594 39.2829 L194.3438 36.7517 L195.7188 36.7517 L193.3281 39.0486 L195.9531 42.9704 L194.6562 42.9704 L192.5938 39.7829 L191.8594 40.5017 L191.8594 42.9704 L190.7969 42.9704 ZM201.0469 40.9704 L202.1406 41.0954 Q201.8906 42.0486 201.1875 42.5798 Q200.4844 43.1111 199.4062 43.1111 Q198.0469 43.1111 197.2422 42.2673 Q196.4375 41.4236 196.4375 39.9079 Q196.4375 38.3454 197.25 37.4782 Q198.0625 36.6111 199.3438 36.6111 Q200.5938 36.6111 201.3828 37.4548 Q202.1719 38.2986 202.1719 39.8454 Q202.1719 39.9392 202.1719 40.1267 L197.5312 40.1267 Q197.5938 41.1579 198.1094 41.697 Q198.625 42.2361 199.4062 42.2361 Q199.9844 42.2361 200.3984 41.9314 Q200.8125 41.6267 201.0469 40.9704 ZM197.5938 39.2673 L201.0625 39.2673 Q201 38.4704 200.6719 38.0798 Q200.1562 37.4704 199.3594 37.4704 Q198.625 37.4704 198.1328 37.9548 Q197.6406 38.4392 197.5938 39.2673 ZM198.125 34.9704 L198.9062 33.3298 L200.2969 33.3298 L199 34.9704 L198.125 34.9704 ZM204.7656 42.9704 L203.7812 42.9704 L203.7812 34.3767 L204.8438 34.3767 L204.8438 37.4392 Q205.5156 36.6111 206.5469 36.6111 Q207.125 36.6111 207.6328 36.8376 Q208.1406 37.0642 208.4766 37.4861 Q208.8125 37.9079 209 38.5017 Q209.1875 39.0954 209.1875 39.7673 Q209.1875 41.3611 208.3906 42.2361 Q207.5938 43.1111 206.5 43.1111 Q205.3906 43.1111 204.7656 42.1892 L204.7656 42.9704 ZM204.75 39.8142 Q204.75 40.9236 205.0625 41.4236 Q205.5625 42.2361 206.4062 42.2361 Q207.0938 42.2361 207.6016 41.6423 Q208.1094 41.0486 208.1094 39.8454 Q208.1094 38.6267 207.625 38.0486 Q207.1406 37.4704 206.4531 37.4704 Q205.7656 37.4704 205.2578 38.072 Q204.75 38.6736 204.75 39.8142 ZM215.0469 40.9704 L216.1406 41.0954 Q215.8906 42.0486 215.1875 42.5798 Q214.4844 43.1111 213.4062 43.1111 Q212.0469 43.1111 211.2422 42.2673 Q210.4375 41.4236 210.4375 39.9079 Q210.4375 38.3454 211.25 37.4782 Q212.0625 36.6111 213.3438 36.6111 Q214.5938 36.6111 215.3828 37.4548 Q216.1719 38.2986 216.1719 39.8454 Q216.1719 39.9392 216.1719 40.1267 L211.5312 40.1267 Q211.5938 41.1579 212.1094 41.697 Q212.625 42.2361 213.4062 42.2361 Q213.9844 42.2361 214.3984 41.9314 Q214.8125 41.6267 215.0469 40.9704 ZM211.5938 39.2673 L215.0625 39.2673 Q215 38.4704 214.6719 38.0798 Q214.1562 37.4704 213.3594 37.4704 Q212.625 37.4704 212.1328 37.9548 Q211.6406 38.4392 211.5938 39.2673 ZM217.7969 42.9704 L217.7969 36.7517 L218.7344 36.7517 L218.7344 37.6267 Q219.4219 36.6111 220.7188 36.6111 Q221.2812 36.6111 221.7578 36.8142 Q222.2344 37.0173 222.4688 37.3454 Q222.7031 37.6736 222.7969 38.1111 Q222.8438 38.4079 222.8438 39.1423 L222.8438 42.9704 L221.7969 42.9704 L221.7969 39.1892 Q221.7969 38.5329 221.6719 38.2204 Q221.5469 37.9079 221.2344 37.7126 Q220.9219 37.5173 220.5 37.5173 Q219.8281 37.5173 219.3359 37.947 Q218.8438 38.3767 218.8438 39.5642 L218.8438 42.9704 L217.7969 42.9704 Z" style="clip-path:url(#clipPath12); stroke:none;" />
    </g>
    <g style="text-rendering:geometricPrecision; font-size:11; font-family:sans-serif;" transform="translate(292,34)">
      <text x="10" y="12" style="clip-path:url(#clipPath13); stroke:none;" xml:space="preserve">flipFlops :</text>
      <text x="15" y="27" style="clip-path:url(#clipPath13); stroke:none;" xml:space="preserve">FlipFlop</text>
    </g>
    <g style="text-rendering:geometricPrecision; font-size:11; font-family:sans-serif;" transform="translate(112,34)">
      <text x="4" y="12" style="clip-path:url(#clipPath14); stroke:none;" xml:space="preserve">circuit : Circuit</text>
    </g>
    <g transform="translate(109,129)" style="font-size:11; stroke-linecap:butt; text-rendering:geometricPrecision; font-family:sans-serif; stroke-linejoin:round;">
      <line x1="45" x2="214" y1="45" style="clip-path:url(#clipPath15); fill:none;" y2="45" />
      <polygon style="clip-path:url(#clipPath15); stroke:none;" points=" 214 45 202 39 202 51" />
      <polygon style="fill:none; clip-path:url(#clipPath15);" points=" 214 45 202 39 202 51" />
    </g>
    <g transform="translate(-20,49)" style="font-size:11; stroke-linecap:butt; text-rendering:geometricPrecision; font-family:sans-serif; stroke-linejoin:round;">
      <line x1="45" x2="169" y1="45" style="clip-path:url(#clipPath16); fill:none;" y2="45" />
      <polygon style="clip-path:url(#clipPath16); stroke:none;" points=" 169 45 157 39 157 51" />
      <polygon style="fill:none; clip-path:url(#clipPath16);" points=" 169 45 157 39 157 51" />
    </g>
    <g transform="translate(217,129)" style="font-size:11; stroke-linecap:butt; text-rendering:geometricPrecision; font-family:sans-serif; stroke-linejoin:round; stroke-dasharray:4;">
      <line x1="65" x2="65" y1="45" style="clip-path:url(#clipPath17); fill:none;" y2="115" />
      <line x1="65" x2="45" y1="115" style="clip-path:url(#clipPath17); fill:none;" y2="115" />
    </g>
    <g style="text-rendering:geometricPrecision; font-size:11; font-family:sans-serif;" transform="translate(20,72)">
      <text x="12" y="12" style="clip-path:url(#clipPath18); stroke:none;" xml:space="preserve">1: commitFlipFlops()</text>
    </g>
    <g style="text-rendering:geometricPrecision; font-size:11; font-family:sans-serif;" transform="translate(188,151)">
      <text x="11" y="12" style="clip-path:url(#clipPath19); stroke:none;" xml:space="preserve">1.1: commit()</text>
    </g>
  </g>
</svg>
