<?xml version="1.0" encoding="UTF-8"?>

<!DOCTYPE svg PUBLIC '-//W3C//DTD SVG 1.0//EN' 'http://www.w3.org/TR/2001/REC-SVG-20010904/DTD/svg10.dtd'>
<svg style="fill-opacity:1; color-rendering:auto; color-interpolation:auto; stroke:black; text-rendering:auto; stroke-linecap:square; stroke-miterlimit:10; stroke-opacity:1; shape-rendering:auto; fill:black; stroke-dasharray:none; font-weight:normal; stroke-width:1; font-family:&apos;Dialog&apos;; font-style:normal; stroke-linejoin:miter; font-size:12; stroke-dashoffset:0; image-rendering:auto;" xmlns="http://www.w3.org/2000/svg" width="436" xmlns:xlink="http://www.w3.org/1999/xlink" height="288">
  <!--Generated by the Batik Graphics2D SVG Generator-->
  <defs id="genericDefs" />
  <g>
    <defs id="defs1">
      <clipPath clipPathUnits="userSpaceOnUse" id="clipPath1">
        <path d="M-3 -3 L87 -3 L87 237 L-3 237 L-3 -3 Z" />
      </clipPath>
      <clipPath clipPathUnits="userSpaceOnUse" id="clipPath2">
        <path d="M-3 -3 L137 -3 L137 237 L-3 237 L-3 -3 Z" />
      </clipPath>
      <clipPath clipPathUnits="userSpaceOnUse" id="clipPath3">
        <path d="M-3 -3 L22 -3 L22 27 L-3 27 L-3 -3 Z" />
      </clipPath>
      <clipPath clipPathUnits="userSpaceOnUse" id="clipPath4">
        <path d="M-3 -3 L15 -3 L15 147 L-3 147 L-3 -3 Z" />
      </clipPath>
      <clipPath clipPathUnits="userSpaceOnUse" id="clipPath5">
        <path d="M-3 -3 L287 -3 L287 107 L-3 107 L-3 -3 Z" />
      </clipPath>
      <clipPath clipPathUnits="userSpaceOnUse" id="clipPath6">
        <path d="M0 0 L33 0 L33 18 L0 18 L0 0 Z" />
      </clipPath>
      <clipPath clipPathUnits="userSpaceOnUse" id="clipPath7">
        <path d="M-3 -3 L287 -3 L287 89 L-3 89 L-3 -3 Z" />
      </clipPath>
      <clipPath clipPathUnits="userSpaceOnUse" id="clipPath8">
        <path d="M0 0 L128 0 L128 15 L0 15 L0 0 Z" />
      </clipPath>
      <clipPath clipPathUnits="userSpaceOnUse" id="clipPath9">
        <path d="M0 0 L0 4 L280 4 L280 0 Z" />
      </clipPath>
      <clipPath clipPathUnits="userSpaceOnUse" id="clipPath10">
        <path d="M-3 -3 L15 -3 L15 19 L-3 19 L-3 -3 Z" />
      </clipPath>
      <clipPath clipPathUnits="userSpaceOnUse" id="clipPath11">
        <path d="M-3 -3 L137 -3 L137 47 L-3 47 L-3 -3 Z" />
      </clipPath>
      <clipPath clipPathUnits="userSpaceOnUse" id="clipPath12">
        <path d="M0 0 L0 40 L130 40 L130 0 Z" />
      </clipPath>
      <clipPath clipPathUnits="userSpaceOnUse" id="clipPath13">
        <path d="M-130 -30 L260 -30 L260 60 L-130 60 L-130 -30 Z" />
      </clipPath>
      <clipPath clipPathUnits="userSpaceOnUse" id="clipPath14">
        <path d="M-80 -15 L160 -15 L160 30 L-80 30 L-80 -15 Z" />
      </clipPath>
      <clipPath clipPathUnits="userSpaceOnUse" id="clipPath15">
        <path d="M0 0 L291 0 L291 104 L0 104 L0 0 Z" />
      </clipPath>
      <clipPath clipPathUnits="userSpaceOnUse" id="clipPath16">
        <path d="M0 0 L236 0 L236 104 L0 104 L0 0 Z" />
      </clipPath>
      <clipPath clipPathUnits="userSpaceOnUse" id="clipPath17">
        <path d="M0 0 L104 0 L104 143 L0 143 L0 0 Z" />
      </clipPath>
      <clipPath clipPathUnits="userSpaceOnUse" id="clipPath18">
        <path d="M-132 -16 L264 -16 L264 32 L-132 32 L-132 -16 Z" />
      </clipPath>
      <clipPath clipPathUnits="userSpaceOnUse" id="clipPath19">
        <path d="M-90 -15 L180 -15 L180 30 L-90 30 L-90 -15 Z" />
      </clipPath>
    </defs>
    <g style="fill:white; text-rendering:geometricPrecision; stroke:white;">
      <rect x="0" y="0" width="436" style="stroke:none;" height="288" />
      <rect x="8" y="38" transform="translate(-8,-38)" width="435" style="fill:none; stroke:black;" height="287" />
      <text x="15" y="55" transform="translate(-8,-38)" style="fill:black; stroke:none; font-weight:bold;" xml:space="preserve">sd</text>
      <text x="36" y="55" transform="translate(-8,-38)" style="fill:black; stroke:none;" xml:space="preserve">Áramkör kiértékelési ciklus</text>
      <line transform="translate(-8,-38)" x1="8" x2="183" y1="62" style="fill:none; stroke:black;" y2="62" />
      <line transform="translate(-8,-38)" x1="189" x2="189" y1="38" style="fill:none; stroke:black;" y2="52" />
      <line transform="translate(-8,-38)" x1="189" x2="183" y1="52" style="fill:none; stroke:black;" y2="62" />
    </g>
    <g transform="translate(122,34)" style="font-size:11; fill:white; text-rendering:geometricPrecision; font-family:sans-serif; stroke:white;">
      <rect x="0" y="0" width="79" style="clip-path:url(#clipPath1); stroke:none;" height="35" />
    </g>
    <g transform="translate(122,34)" style="font-size:11; stroke-linecap:butt; text-rendering:geometricPrecision; font-family:sans-serif; stroke-linejoin:round; stroke-miterlimit:0;">
      <rect x="0" y="0" width="79" style="clip-path:url(#clipPath1); fill:none;" height="35" />
      <line x1="39" x2="39" y1="35" style="clip-path:url(#clipPath1); fill:none; stroke-linejoin:bevel; stroke-dasharray:8,3;" y2="230" />
    </g>
    <g transform="translate(292,34)" style="font-size:11; fill:white; text-rendering:geometricPrecision; font-family:sans-serif; stroke:white;">
      <rect x="4" y="4" width="125" style="clip-path:url(#clipPath2); stroke:none;" height="35" />
    </g>
    <g transform="translate(292,34)" style="font-size:11; stroke-linecap:butt; text-rendering:geometricPrecision; font-family:sans-serif; stroke-linejoin:round; stroke-miterlimit:0;">
      <rect x="4" y="4" width="125" style="clip-path:url(#clipPath2); fill:none;" height="35" />
      <rect x="0" y="0" width="125" style="clip-path:url(#clipPath2); fill:white; stroke:none;" height="35" />
      <rect x="0" y="0" width="125" style="clip-path:url(#clipPath2); fill:none;" height="35" />
      <line x1="62" x2="62" y1="35" style="clip-path:url(#clipPath2); fill:none; stroke-linejoin:bevel; stroke-dasharray:8,3;" y2="230" />
    </g>
    <g style="text-rendering:geometricPrecision; font-size:11; font-family:sans-serif;" transform="translate(12,94)">
      <circle style="clip-path:url(#clipPath3); stroke:none;" r="7" cx="7" cy="9" />
    </g>
    <g transform="translate(158,104)" style="font-size:11; fill:white; text-rendering:geometricPrecision; font-family:sans-serif; stroke:white;">
      <rect x="0" y="0" width="8" style="clip-path:url(#clipPath4); stroke:none;" height="140" />
    </g>
    <g transform="translate(158,104)" style="font-size:11; stroke-linecap:butt; text-rendering:geometricPrecision; font-family:sans-serif; stroke-linejoin:round; stroke-miterlimit:0;">
      <rect x="0" y="0" width="8" style="clip-path:url(#clipPath4); fill:none;" height="140" />
    </g>
    <g transform="translate(142,124)" style="font-size:11; stroke-linecap:butt; text-rendering:geometricPrecision; font-family:sans-serif; stroke-linejoin:round; font-weight:bold; stroke-miterlimit:0;">
      <rect x="0" y="0" width="280" style="clip-path:url(#clipPath5); fill:none;" height="100" />
    </g>
    <g transform="translate(142,124)" style="font-size:11; fill:white; text-rendering:geometricPrecision; font-family:sans-serif; stroke:white; font-weight:bold;">
      <path d="M32 0 L32 9 L26 17 L0 17 L0 0 Z" style="clip-path:url(#clipPath5); stroke:none;" />
    </g>
    <g transform="translate(142,124)" style="font-size:11; stroke-linecap:butt; text-rendering:geometricPrecision; font-family:sans-serif; stroke-linejoin:round; font-weight:bold; stroke-miterlimit:0;">
      <path d="M32 0 L32 9 L26 17 L0 17 L0 0 Z" style="fill:none; clip-path:url(#clipPath5);" />
    </g>
    <g transform="translate(142,124)" style="text-rendering:geometricPrecision; font-size:11; font-weight:bold; font-family:sans-serif;">
      <text x="4" y="12" style="clip-path:url(#clipPath6); stroke:none;" xml:space="preserve">loop</text>
    </g>
    <g transform="translate(142,142)" style="font-size:11; fill:white; text-rendering:geometricPrecision; font-family:sans-serif; stroke:white;">
      <rect x="28" y="5" width="128" style="clip-path:url(#clipPath7); stroke:none;" height="15" />
    </g>
    <g style="text-rendering:geometricPrecision; font-size:11; font-family:sans-serif;" transform="translate(170,147)">
      <text x="10" y="12" style="clip-path:url(#clipPath8); stroke:none;" xml:space="preserve">[minden komponensre]</text>
    </g>
    <g transform="translate(353,194)" style="font-size:11; fill:white; text-rendering:geometricPrecision; font-family:sans-serif; stroke:white;">
      <rect x="0" y="0" width="8" style="clip-path:url(#clipPath10); stroke:none;" height="12" />
    </g>
    <g transform="translate(353,194)" style="font-size:11; stroke-linecap:butt; text-rendering:geometricPrecision; font-family:sans-serif; stroke-linejoin:round; stroke-miterlimit:0;">
      <rect x="0" y="0" width="8" style="clip-path:url(#clipPath10); fill:none;" height="12" />
    </g>
    <g transform="translate(192,234)" style="font-size:11; fill:white; text-rendering:geometricPrecision; font-family:sans-serif; stroke:white;">
      <polygon style="clip-path:url(#clipPath11); stroke:none;" points=" 0 0 114 0 129 15 114 15 114 0 129 15 129 39 0 39" />
    </g>
    <g transform="translate(192,234)" style="font-size:11; stroke-linecap:butt; text-rendering:geometricPrecision; font-family:sans-serif; stroke-linejoin:round; stroke-miterlimit:0;">
      <polygon style="fill:none; clip-path:url(#clipPath11);" points=" 0 0 114 0 129 15 114 15 114 0 129 15 129 39 0 39" />
    </g>
    <g style="text-rendering:geometricPrecision; font-size:11; font-family:&apos;Tahoma&apos;;" transform="translate(192,234)">
      <path d="M3.875 14.9704 L3.875 6.3767 L5.0156 6.3767 L5.0156 10.6423 L9.2812 6.3767 L10.8281 6.3767 L7.2188 9.8611 L10.9844 14.9704 L9.4844 14.9704 L6.4219 10.6267 L5.0156 11.9861 L5.0156 14.9704 L3.875 14.9704 ZM11.7969 7.5954 L11.7969 6.3767 L12.8594 6.3767 L12.8594 7.5954 L11.7969 7.5954 ZM11.7969 14.9704 L11.7969 8.7517 L12.8594 8.7517 L12.8594 14.9704 L11.7969 14.9704 ZM15.0469 14.9704 L15.0469 9.5642 L14.1094 9.5642 L14.1094 8.7517 L15.0469 8.7517 L15.0469 8.0798 Q15.0469 7.4548 15.1562 7.1579 Q15.3125 6.7361 15.6953 6.4861 Q16.0781 6.2361 16.7656 6.2361 Q17.2188 6.2361 17.75 6.3454 L17.5938 7.2517 Q17.2656 7.2048 16.9688 7.2048 Q16.4844 7.2048 16.2891 7.4079 Q16.0938 7.6111 16.0938 8.1736 L16.0938 8.7517 L17.3125 8.7517 L17.3125 9.5642 L16.0938 9.5642 L16.0938 14.9704 L15.0469 14.9704 ZM22.0469 12.9704 L23.1406 13.0954 Q22.8906 14.0486 22.1875 14.5798 Q21.4844 15.1111 20.4062 15.1111 Q19.0469 15.1111 18.2422 14.2673 Q17.4375 13.4236 17.4375 11.9079 Q17.4375 10.3454 18.25 9.4782 Q19.0625 8.6111 20.3438 8.6111 Q21.5938 8.6111 22.3828 9.4548 Q23.1719 10.2986 23.1719 11.8454 Q23.1719 11.9392 23.1719 12.1267 L18.5312 12.1267 Q18.5938 13.1579 19.1094 13.697 Q19.625 14.2361 20.4062 14.2361 Q20.9844 14.2361 21.3984 13.9314 Q21.8125 13.6267 22.0469 12.9704 ZM18.5938 11.2673 L22.0625 11.2673 Q22 10.4704 21.6719 10.0798 Q21.1562 9.4704 20.3594 9.4704 Q19.625 9.4704 19.1328 9.9548 Q18.6406 10.4392 18.5938 11.2673 ZM24.7812 7.6111 L24.7812 6.3767 L25.8438 6.3767 L25.8438 7.6111 L24.7812 7.6111 ZM23.4531 17.3923 L23.6406 16.4861 Q23.9688 16.5642 24.1406 16.5642 Q24.4688 16.5642 24.625 16.3532 Q24.7812 16.1423 24.7812 15.2829 L24.7812 8.7517 L25.8438 8.7517 L25.8438 15.3142 Q25.8438 16.4548 25.5469 16.9079 Q25.1562 17.5017 24.2812 17.5017 Q23.8438 17.5017 23.4531 17.3923 ZM30.0938 14.0329 L30.25 14.9548 Q29.7969 15.0486 29.4531 15.0486 Q28.875 15.0486 28.5625 14.8689 Q28.25 14.6892 28.1172 14.3923 Q27.9844 14.0954 27.9844 13.1423 L27.9844 9.5642 L27.2188 9.5642 L27.2188 8.7517 L27.9844 8.7517 L27.9844 7.2048 L29.0312 6.5798 L29.0312 8.7517 L30.0938 8.7517 L30.0938 9.5642 L29.0312 9.5642 L29.0312 13.2048 Q29.0312 13.6579 29.0859 13.7829 Q29.1406 13.9079 29.2656 13.9861 Q29.3906 14.0642 29.625 14.0642 Q29.8125 14.0642 30.0938 14.0329 ZM32.5156 14.9704 L30.1562 8.7517 L31.2656 8.7517 L32.6094 12.4704 Q32.8125 13.0798 33 13.7204 Q33.1406 13.2361 33.3906 12.5486 L34.7812 8.7517 L35.8594 8.7517 L33.5 14.9704 L32.5156 14.9704 ZM40.0469 12.9704 L41.1406 13.0954 Q40.8906 14.0486 40.1875 14.5798 Q39.4844 15.1111 38.4062 15.1111 Q37.0469 15.1111 36.2422 14.2673 Q35.4375 13.4236 35.4375 11.9079 Q35.4375 10.3454 36.25 9.4782 Q37.0625 8.6111 38.3438 8.6111 Q39.5938 8.6111 40.3828 9.4548 Q41.1719 10.2986 41.1719 11.8454 Q41.1719 11.9392 41.1719 12.1267 L36.5312 12.1267 Q36.5938 13.1579 37.1094 13.697 Q37.625 14.2361 38.4062 14.2361 Q38.9844 14.2361 39.3984 13.9314 Q39.8125 13.6267 40.0469 12.9704 ZM36.5938 11.2673 L40.0625 11.2673 Q40 10.4704 39.6719 10.0798 Q39.1562 9.4704 38.3594 9.4704 Q37.625 9.4704 37.1328 9.9548 Q36.6406 10.4392 36.5938 11.2673 ZM49.8594 14.2048 Q49.2656 14.7048 48.7266 14.9079 Q48.1875 15.1111 47.5625 15.1111 Q46.5312 15.1111 45.9844 14.6111 Q45.4375 14.1111 45.4375 13.3298 Q45.4375 12.8767 45.6406 12.4939 Q45.8438 12.1111 46.1875 11.8845 Q46.5312 11.6579 46.9531 11.5486 Q47.25 11.4548 47.8906 11.3767 Q49.1562 11.2361 49.7656 11.0173 Q49.7656 10.7986 49.7656 10.7517 Q49.7656 10.0954 49.4688 9.8298 Q49.0625 9.4861 48.2656 9.4861 Q47.5312 9.4861 47.1719 9.7439 Q46.8125 10.0017 46.6406 10.6579 L45.6094 10.5173 Q45.75 9.8611 46.0781 9.4548 Q46.4062 9.0486 47.0156 8.8298 Q47.625 8.6111 48.4219 8.6111 Q49.2188 8.6111 49.7188 8.7986 Q50.2188 8.9861 50.4531 9.2673 Q50.6875 9.5486 50.7812 9.9861 Q50.8281 10.2517 50.8281 10.9548 L50.8281 12.3611 Q50.8281 13.8298 50.8984 14.2204 Q50.9688 14.6111 51.1719 14.9704 L50.0625 14.9704 Q49.9062 14.6423 49.8594 14.2048 ZM49.7656 11.8454 Q49.1875 12.0798 48.0469 12.2517 Q47.3906 12.3454 47.125 12.4626 Q46.8594 12.5798 46.7109 12.7986 Q46.5625 13.0173 46.5625 13.2986 Q46.5625 13.7204 46.8828 14.0017 Q47.2031 14.2829 47.8125 14.2829 Q48.4219 14.2829 48.8984 14.0173 Q49.375 13.7517 49.5938 13.2829 Q49.7656 12.9236 49.7656 12.2361 L49.7656 11.8454 ZM58.875 14.9704 L58.875 12.9079 L55.1562 12.9079 L55.1562 11.9392 L59.0781 6.3767 L59.9375 6.3767 L59.9375 11.9392 L61.0938 11.9392 L61.0938 12.9079 L59.9375 12.9079 L59.9375 14.9704 L58.875 14.9704 ZM58.875 11.9392 L58.875 8.0798 L56.1875 11.9392 L58.875 11.9392 ZM63.0938 14.9704 L63.0938 13.7673 L64.2969 13.7673 L64.2969 14.9704 L63.0938 14.9704 ZM70.9688 8.4861 L69.9219 8.5642 Q69.7812 7.9392 69.5312 7.6579 Q69.0938 7.2048 68.4688 7.2048 Q67.9688 7.2048 67.5781 7.4861 Q67.0938 7.8611 66.8047 8.5564 Q66.5156 9.2517 66.5 10.5329 Q66.875 9.9548 67.4297 9.6736 Q67.9844 9.3923 68.5938 9.3923 Q69.6406 9.3923 70.3828 10.1736 Q71.125 10.9548 71.125 12.1736 Q71.125 12.9861 70.7734 13.6814 Q70.4219 14.3767 69.8125 14.7439 Q69.2031 15.1111 68.4375 15.1111 Q67.1094 15.1111 66.2812 14.1423 Q65.4531 13.1736 65.4531 10.9548 Q65.4531 8.4548 66.375 7.3298 Q67.1719 6.3454 68.5312 6.3454 Q69.5469 6.3454 70.1953 6.9157 Q70.8438 7.4861 70.9688 8.4861 ZM66.6719 12.1892 Q66.6719 12.7361 66.8984 13.2282 Q67.125 13.7204 67.5391 13.9861 Q67.9531 14.2517 68.4219 14.2517 Q69.0781 14.2517 69.5625 13.7126 Q70.0469 13.1736 70.0469 12.2517 Q70.0469 11.3611 69.5703 10.8454 Q69.0938 10.3298 68.375 10.3298 Q67.6562 10.3298 67.1641 10.8454 Q66.6719 11.3611 66.6719 12.1892 ZM79.8594 14.2048 Q79.2656 14.7048 78.7266 14.9079 Q78.1875 15.1111 77.5625 15.1111 Q76.5312 15.1111 75.9844 14.6111 Q75.4375 14.1111 75.4375 13.3298 Q75.4375 12.8767 75.6406 12.4939 Q75.8438 12.1111 76.1875 11.8845 Q76.5312 11.6579 76.9531 11.5486 Q77.25 11.4548 77.8906 11.3767 Q79.1562 11.2361 79.7656 11.0173 Q79.7656 10.7986 79.7656 10.7517 Q79.7656 10.0954 79.4688 9.8298 Q79.0625 9.4861 78.2656 9.4861 Q77.5312 9.4861 77.1719 9.7439 Q76.8125 10.0017 76.6406 10.6579 L75.6094 10.5173 Q75.75 9.8611 76.0781 9.4548 Q76.4062 9.0486 77.0156 8.8298 Q77.625 8.6111 78.4219 8.6111 Q79.2188 8.6111 79.7188 8.7986 Q80.2188 8.9861 80.4531 9.2673 Q80.6875 9.5486 80.7812 9.9861 Q80.8281 10.2517 80.8281 10.9548 L80.8281 12.3611 Q80.8281 13.8298 80.8984 14.2204 Q80.9688 14.6111 81.1719 14.9704 L80.0625 14.9704 Q79.9062 14.6423 79.8594 14.2048 ZM79.7656 11.8454 Q79.1875 12.0798 78.0469 12.2517 Q77.3906 12.3454 77.125 12.4626 Q76.8594 12.5798 76.7109 12.7986 Q76.5625 13.0173 76.5625 13.2986 Q76.5625 13.7204 76.8828 14.0017 Q77.2031 14.2829 77.8125 14.2829 Q78.4219 14.2829 78.8984 14.0173 Q79.375 13.7517 79.5938 13.2829 Q79.7656 12.9236 79.7656 12.2361 L79.7656 11.8454 ZM77.125 6.9704 L77.9062 5.3298 L79.2969 5.3298 L78 6.9704 L77.125 6.9704 ZM83.7656 14.9704 L82.7812 14.9704 L82.7812 6.3767 L83.8438 6.3767 L83.8438 9.4392 Q84.5156 8.6111 85.5469 8.6111 Q86.125 8.6111 86.6328 8.8376 Q87.1406 9.0642 87.4766 9.4861 Q87.8125 9.9079 88 10.5017 Q88.1875 11.0954 88.1875 11.7673 Q88.1875 13.3611 87.3906 14.2361 Q86.5938 15.1111 85.5 15.1111 Q84.3906 15.1111 83.7656 14.1892 L83.7656 14.9704 ZM83.75 11.8142 Q83.75 12.9236 84.0625 13.4236 Q84.5625 14.2361 85.4062 14.2361 Q86.0938 14.2361 86.6016 13.6423 Q87.1094 13.0486 87.1094 11.8454 Q87.1094 10.6267 86.625 10.0486 Q86.1406 9.4704 85.4531 9.4704 Q84.7656 9.4704 84.2578 10.072 Q83.75 10.6736 83.75 11.8142 ZM89.7812 14.9704 L89.7812 8.7517 L90.7344 8.7517 L90.7344 9.6892 Q91.0938 9.0329 91.3984 8.822 Q91.7031 8.6111 92.0781 8.6111 Q92.6094 8.6111 93.1562 8.9392 L92.7969 9.9236 Q92.4062 9.6892 92.0312 9.6892 Q91.6719 9.6892 91.3984 9.9001 Q91.125 10.1111 91.0156 10.4861 Q90.8281 11.0486 90.8281 11.7048 L90.8281 14.9704 L89.7812 14.9704 ZM97.8594 14.2048 Q97.2656 14.7048 96.7266 14.9079 Q96.1875 15.1111 95.5625 15.1111 Q94.5312 15.1111 93.9844 14.6111 Q93.4375 14.1111 93.4375 13.3298 Q93.4375 12.8767 93.6406 12.4939 Q93.8438 12.1111 94.1875 11.8845 Q94.5312 11.6579 94.9531 11.5486 Q95.25 11.4548 95.8906 11.3767 Q97.1562 11.2361 97.7656 11.0173 Q97.7656 10.7986 97.7656 10.7517 Q97.7656 10.0954 97.4688 9.8298 Q97.0625 9.4861 96.2656 9.4861 Q95.5312 9.4861 95.1719 9.7439 Q94.8125 10.0017 94.6406 10.6579 L93.6094 10.5173 Q93.75 9.8611 94.0781 9.4548 Q94.4062 9.0486 95.0156 8.8298 Q95.625 8.6111 96.4219 8.6111 Q97.2188 8.6111 97.7188 8.7986 Q98.2188 8.9861 98.4531 9.2673 Q98.6875 9.5486 98.7812 9.9861 Q98.8281 10.2517 98.8281 10.9548 L98.8281 12.3611 Q98.8281 13.8298 98.8984 14.2204 Q98.9688 14.6111 99.1719 14.9704 L98.0625 14.9704 Q97.9062 14.6423 97.8594 14.2048 ZM97.7656 11.8454 Q97.1875 12.0798 96.0469 12.2517 Q95.3906 12.3454 95.125 12.4626 Q94.8594 12.5798 94.7109 12.7986 Q94.5625 13.0173 94.5625 13.2986 Q94.5625 13.7204 94.8828 14.0017 Q95.2031 14.2829 95.8125 14.2829 Q96.4219 14.2829 96.8984 14.0173 Q97.375 13.7517 97.5938 13.2829 Q97.7656 12.9236 97.7656 12.2361 L97.7656 11.8454 ZM95.125 6.9704 L95.9062 5.3298 L97.2969 5.3298 L96 6.9704 L95.125 6.9704 ZM100.7969 14.9704 L100.7969 8.7517 L101.7344 8.7517 L101.7344 9.6267 Q102.4219 8.6111 103.7188 8.6111 Q104.2812 8.6111 104.7578 8.8142 Q105.2344 9.0173 105.4688 9.3454 Q105.7031 9.6736 105.7969 10.1111 Q105.8438 10.4079 105.8438 11.1423 L105.8438 14.9704 L104.7969 14.9704 L104.7969 11.1892 Q104.7969 10.5329 104.6719 10.2204 Q104.5469 9.9079 104.2344 9.7126 Q103.9219 9.5173 103.5 9.5173 Q102.8281 9.5173 102.3359 9.947 Q101.8438 10.3767 101.8438 11.5642 L101.8438 14.9704 L100.7969 14.9704 Z" style="clip-path:url(#clipPath12); stroke:none;" />
    </g>
    <g style="text-rendering:geometricPrecision; font-size:11; font-family:sans-serif;" transform="translate(292,34)">
      <text x="31" y="12" style="clip-path:url(#clipPath13); stroke:none;" xml:space="preserve">components :</text>
      <text x="16" y="27" style="clip-path:url(#clipPath13); stroke:none;" xml:space="preserve">AbstractComponent</text>
    </g>
    <g style="text-rendering:geometricPrecision; font-size:11; font-family:sans-serif;" transform="translate(122,34)">
      <text x="4" y="12" style="clip-path:url(#clipPath14); stroke:none;" xml:space="preserve">circuit : Circuit</text>
    </g>
    <g transform="translate(116,144)" style="font-size:11; stroke-linecap:butt; text-rendering:geometricPrecision; font-family:sans-serif; stroke-linejoin:round;">
      <line x1="50" x2="237" y1="50" style="clip-path:url(#clipPath15); fill:none;" y2="50" />
      <polygon style="clip-path:url(#clipPath15); stroke:none;" points=" 237 50 225 44 225 56" />
      <polygon style="fill:none; clip-path:url(#clipPath15);" points=" 237 50 225 44 225 56" />
    </g>
    <g transform="translate(-24,54)" style="font-size:11; stroke-linecap:butt; text-rendering:geometricPrecision; font-family:sans-serif; stroke-linejoin:round;">
      <line x1="50" x2="182" y1="50" style="clip-path:url(#clipPath16); fill:none;" y2="50" />
      <polygon style="clip-path:url(#clipPath16); stroke:none;" points=" 182 50 170 44 170 56" />
      <polygon style="fill:none; clip-path:url(#clipPath16);" points=" 182 50 170 44 170 56" />
    </g>
    <g transform="translate(212,144)" style="font-size:11; stroke-linecap:butt; text-rendering:geometricPrecision; font-family:sans-serif; stroke-linejoin:round; stroke-dasharray:4;">
      <line x1="50" x2="50" y1="50" style="clip-path:url(#clipPath17); fill:none;" y2="89" />
    </g>
    <g style="text-rendering:geometricPrecision; font-size:11; font-family:sans-serif;" transform="translate(22,84)">
      <text x="11" y="12" style="clip-path:url(#clipPath18); stroke:none;" xml:space="preserve">1: doEvaluationCycle()</text>
    </g>
    <g style="text-rendering:geometricPrecision; font-size:11; font-family:sans-serif;" transform="translate(202,174)">
      <text x="10" y="12" style="clip-path:url(#clipPath19); stroke:none;" xml:space="preserve">1.1: evaluate()</text>
    </g>
  </g>
</svg>
