<?xml version="1.0" encoding="UTF-8"?>

<!DOCTYPE svg PUBLIC '-//W3C//DTD SVG 1.0//EN' 'http://www.w3.org/TR/2001/REC-SVG-20010904/DTD/svg10.dtd'>
<svg style="fill-opacity:1; color-rendering:auto; color-interpolation:auto; stroke:black; text-rendering:auto; stroke-linecap:square; stroke-miterlimit:10; stroke-opacity:1; shape-rendering:auto; fill:black; stroke-dasharray:none; font-weight:normal; stroke-width:1; font-family:&apos;Dialog&apos;; font-style:normal; stroke-linejoin:miter; font-size:12; stroke-dashoffset:0; image-rendering:auto;" xmlns="http://www.w3.org/2000/svg" width="416" xmlns:xlink="http://www.w3.org/1999/xlink" height="408">
  <!--Generated by the Batik Graphics2D SVG Generator-->
  <defs id="genericDefs" />
  <g>
    <defs id="defs1">
      <clipPath clipPathUnits="userSpaceOnUse" id="clipPath1">
        <path d="M-3 -3 L87 -3 L87 367 L-3 367 L-3 -3 Z" />
      </clipPath>
      <clipPath clipPathUnits="userSpaceOnUse" id="clipPath2">
        <path d="M-3 -3 L117 -3 L117 367 L-3 367 L-3 -3 Z" />
      </clipPath>
      <clipPath clipPathUnits="userSpaceOnUse" id="clipPath3">
        <path d="M-3 -3 L15 -3 L15 267 L-3 267 L-3 -3 Z" />
      </clipPath>
      <clipPath clipPathUnits="userSpaceOnUse" id="clipPath4">
        <path d="M-3 -3 L15 -3 L15 247 L-3 247 L-3 -3 Z" />
      </clipPath>
      <clipPath clipPathUnits="userSpaceOnUse" id="clipPath5">
        <path d="M-3 -3 L187 -3 L187 107 L-3 107 L-3 -3 Z" />
      </clipPath>
      <clipPath clipPathUnits="userSpaceOnUse" id="clipPath6">
        <path d="M0 0 L27 0 L27 18 L0 18 L0 0 Z" />
      </clipPath>
      <clipPath clipPathUnits="userSpaceOnUse" id="clipPath7">
        <path d="M-3 -3 L187 -3 L187 89 L-3 89 L-3 -3 Z" />
      </clipPath>
      <clipPath clipPathUnits="userSpaceOnUse" id="clipPath8">
        <path d="M0 0 L146 0 L146 15 L0 15 L0 0 Z" />
      </clipPath>
      <clipPath clipPathUnits="userSpaceOnUse" id="clipPath9">
        <path d="M0 0 L0 4 L180 4 L180 0 Z" />
      </clipPath>
      <clipPath clipPathUnits="userSpaceOnUse" id="clipPath10">
        <path d="M-3 -3 L197 -3 L197 87 L-3 87 L-3 -3 Z" />
      </clipPath>
      <clipPath clipPathUnits="userSpaceOnUse" id="clipPath11">
        <path d="M0 0 L0 80 L190 80 L190 0 Z" />
      </clipPath>
      <clipPath clipPathUnits="userSpaceOnUse" id="clipPath12">
        <path d="M-110 -30 L220 -30 L220 60 L-110 60 L-110 -30 Z" />
      </clipPath>
      <clipPath clipPathUnits="userSpaceOnUse" id="clipPath13">
        <path d="M-80 -15 L160 -15 L160 30 L-80 30 L-80 -15 Z" />
      </clipPath>
      <clipPath clipPathUnits="userSpaceOnUse" id="clipPath14">
        <path d="M0 0 L221 0 L221 104 L0 104 L0 0 Z" />
      </clipPath>
      <clipPath clipPathUnits="userSpaceOnUse" id="clipPath15">
        <path d="M0 0 L134 0 L134 104 L0 104 L0 0 Z" />
      </clipPath>
      <clipPath clipPathUnits="userSpaceOnUse" id="clipPath16">
        <path d="M-64 -16 L128 -16 L128 32 L-64 32 L-64 -16 Z" />
      </clipPath>
      <clipPath clipPathUnits="userSpaceOnUse" id="clipPath17">
        <path d="M-65 -16 L130 -16 L130 32 L-65 32 L-65 -16 Z" />
      </clipPath>
      <clipPath clipPathUnits="userSpaceOnUse" id="clipPath18">
        <path d="M-81 -15 L162 -15 L162 30 L-81 30 L-81 -15 Z" />
      </clipPath>
    </defs>
    <g style="fill:white; text-rendering:geometricPrecision; stroke:white;">
      <rect x="0" y="0" width="416" style="stroke:none;" height="408" />
      <rect x="8" y="38" transform="translate(-8,-38)" width="415" style="fill:none; stroke:black;" height="407" />
      <text x="15" y="55" transform="translate(-8,-38)" style="fill:black; stroke:none; font-weight:bold;" xml:space="preserve">sd</text>
      <text x="36" y="55" transform="translate(-8,-38)" style="fill:black; stroke:none;" xml:space="preserve">Komponens kiértékelése</text>
      <line transform="translate(-8,-38)" x1="8" x2="174" y1="62" style="fill:none; stroke:black;" y2="62" />
      <line transform="translate(-8,-38)" x1="180" x2="180" y1="38" style="fill:none; stroke:black;" y2="52" />
      <line transform="translate(-8,-38)" x1="180" x2="174" y1="52" style="fill:none; stroke:black;" y2="62" />
    </g>
    <g transform="translate(12,34)" style="font-size:11; fill:white; text-rendering:geometricPrecision; font-family:sans-serif; stroke:white;">
      <rect x="0" y="0" width="79" style="clip-path:url(#clipPath1); stroke:none;" height="35" />
    </g>
    <g transform="translate(12,34)" style="font-size:11; stroke-linecap:butt; text-rendering:geometricPrecision; font-family:sans-serif; stroke-linejoin:round; stroke-miterlimit:0;">
      <rect x="0" y="0" width="79" style="clip-path:url(#clipPath1); fill:none;" height="35" />
      <line x1="39" x2="39" y1="35" style="clip-path:url(#clipPath1); fill:none; stroke-linejoin:bevel; stroke-dasharray:8,3;" y2="360" />
    </g>
    <g transform="translate(122,34)" style="font-size:11; fill:white; text-rendering:geometricPrecision; font-family:sans-serif; stroke:white;">
      <rect x="0" y="0" width="109" style="clip-path:url(#clipPath2); stroke:none;" height="35" />
    </g>
    <g transform="translate(122,34)" style="font-size:11; stroke-linecap:butt; text-rendering:geometricPrecision; font-family:sans-serif; stroke-linejoin:round; stroke-miterlimit:0;">
      <rect x="0" y="0" width="109" style="clip-path:url(#clipPath2); fill:none;" height="35" />
      <line x1="54" x2="54" y1="35" style="clip-path:url(#clipPath2); fill:none; stroke-linejoin:bevel; stroke-dasharray:8,3;" y2="360" />
    </g>
    <g transform="translate(48,114)" style="font-size:11; fill:white; text-rendering:geometricPrecision; font-family:sans-serif; stroke:white;">
      <rect x="0" y="0" width="8" style="clip-path:url(#clipPath3); stroke:none;" height="260" />
    </g>
    <g transform="translate(48,114)" style="font-size:11; stroke-linecap:butt; text-rendering:geometricPrecision; font-family:sans-serif; stroke-linejoin:round; stroke-miterlimit:0;">
      <rect x="0" y="0" width="8" style="clip-path:url(#clipPath3); fill:none;" height="260" />
    </g>
    <g transform="translate(173,114)" style="font-size:11; fill:white; text-rendering:geometricPrecision; font-family:sans-serif; stroke:white;">
      <rect x="0" y="0" width="8" style="clip-path:url(#clipPath4); stroke:none;" height="240" />
    </g>
    <g transform="translate(173,114)" style="font-size:11; stroke-linecap:butt; text-rendering:geometricPrecision; font-family:sans-serif; stroke-linejoin:round; stroke-miterlimit:0;">
      <rect x="0" y="0" width="8" style="clip-path:url(#clipPath4); fill:none;" height="240" />
    </g>
    <g transform="translate(112,134)" style="font-size:11; stroke-linecap:butt; text-rendering:geometricPrecision; font-family:sans-serif; stroke-linejoin:round; font-weight:bold; stroke-miterlimit:0;">
      <rect x="0" y="0" width="180" style="clip-path:url(#clipPath5); fill:none;" height="100" />
    </g>
    <g transform="translate(112,134)" style="font-size:11; fill:white; text-rendering:geometricPrecision; font-family:sans-serif; stroke:white; font-weight:bold;">
      <path d="M26 0 L26 9 L20 17 L0 17 L0 0 Z" style="clip-path:url(#clipPath5); stroke:none;" />
    </g>
    <g transform="translate(112,134)" style="font-size:11; stroke-linecap:butt; text-rendering:geometricPrecision; font-family:sans-serif; stroke-linejoin:round; font-weight:bold; stroke-miterlimit:0;">
      <path d="M26 0 L26 9 L20 17 L0 17 L0 0 Z" style="fill:none; clip-path:url(#clipPath5);" />
    </g>
    <g transform="translate(112,134)" style="text-rendering:geometricPrecision; font-size:11; font-weight:bold; font-family:sans-serif;">
      <text x="4" y="12" style="clip-path:url(#clipPath6); stroke:none;" xml:space="preserve">opt</text>
    </g>
    <g transform="translate(112,152)" style="font-size:11; fill:white; text-rendering:geometricPrecision; font-family:sans-serif; stroke:white;">
      <rect x="28" y="5" width="146" style="clip-path:url(#clipPath7); stroke:none;" height="15" />
    </g>
    <g style="text-rendering:geometricPrecision; font-size:11; font-family:sans-serif;" transform="translate(140,157)">
      <text x="9" y="12" style="clip-path:url(#clipPath8); stroke:none;" xml:space="preserve">[alreadyEvaluated == true]</text>
    </g>
    <g transform="translate(212,254)" style="font-size:11; fill:white; text-rendering:geometricPrecision; font-family:sans-serif; stroke:white;">
      <polygon style="clip-path:url(#clipPath10); stroke:none;" points=" 0 0 174 0 189 15 174 15 174 0 189 15 189 79 0 79" />
    </g>
    <g transform="translate(212,254)" style="font-size:11; stroke-linecap:butt; text-rendering:geometricPrecision; font-family:sans-serif; stroke-linejoin:round; stroke-miterlimit:0;">
      <polygon style="fill:none; clip-path:url(#clipPath10);" points=" 0 0 174 0 189 15 174 15 174 0 189 15 189 79 0 79" />
    </g>
    <g style="text-rendering:geometricPrecision; font-size:11; font-family:&apos;Tahoma&apos;;" transform="translate(212,254)">
      <path d="M3.875 14.9704 L3.875 6.3767 L5.0156 6.3767 L5.0156 10.6423 L9.2812 6.3767 L10.8281 6.3767 L7.2188 9.8611 L10.9844 14.9704 L9.4844 14.9704 L6.4219 10.6267 L5.0156 11.9861 L5.0156 14.9704 L3.875 14.9704 ZM11.7969 7.5954 L11.7969 6.3767 L12.8594 6.3767 L12.8594 7.5954 L11.7969 7.5954 ZM11.7969 14.9704 L11.7969 8.7517 L12.8594 8.7517 L12.8594 14.9704 L11.7969 14.9704 ZM19.0469 12.9704 L20.1406 13.0954 Q19.8906 14.0486 19.1875 14.5798 Q18.4844 15.1111 17.4062 15.1111 Q16.0469 15.1111 15.2422 14.2673 Q14.4375 13.4236 14.4375 11.9079 Q14.4375 10.3454 15.25 9.4782 Q16.0625 8.6111 17.3438 8.6111 Q18.5938 8.6111 19.3828 9.4548 Q20.1719 10.2986 20.1719 11.8454 Q20.1719 11.9392 20.1719 12.1267 L15.5312 12.1267 Q15.5938 13.1579 16.1094 13.697 Q16.625 14.2361 17.4062 14.2361 Q17.9844 14.2361 18.3984 13.9314 Q18.8125 13.6267 19.0469 12.9704 ZM15.5938 11.2673 L19.0625 11.2673 Q19 10.4704 18.6719 10.0798 Q18.1562 9.4704 17.3594 9.4704 Q16.625 9.4704 16.1328 9.9548 Q15.6406 10.4392 15.5938 11.2673 ZM16.125 6.9704 L16.9062 5.3298 L18.2969 5.3298 L17 6.9704 L16.125 6.9704 ZM21.7812 14.9704 L21.7812 8.7517 L22.7344 8.7517 L22.7344 9.6892 Q23.0938 9.0329 23.3984 8.822 Q23.7031 8.6111 24.0781 8.6111 Q24.6094 8.6111 25.1562 8.9392 L24.7969 9.9236 Q24.4062 9.6892 24.0312 9.6892 Q23.6719 9.6892 23.3984 9.9001 Q23.125 10.1111 23.0156 10.4861 Q22.8281 11.0486 22.8281 11.7048 L22.8281 14.9704 L21.7812 14.9704 ZM28.0938 14.0329 L28.25 14.9548 Q27.7969 15.0486 27.4531 15.0486 Q26.875 15.0486 26.5625 14.8689 Q26.25 14.6892 26.1172 14.3923 Q25.9844 14.0954 25.9844 13.1423 L25.9844 9.5642 L25.2188 9.5642 L25.2188 8.7517 L25.9844 8.7517 L25.9844 7.2048 L27.0312 6.5798 L27.0312 8.7517 L28.0938 8.7517 L28.0938 9.5642 L27.0312 9.5642 L27.0312 13.2048 Q27.0312 13.6579 27.0859 13.7829 Q27.1406 13.9079 27.2656 13.9861 Q27.3906 14.0642 27.625 14.0642 Q27.8125 14.0642 28.0938 14.0329 ZM33.0469 12.9704 L34.1406 13.0954 Q33.8906 14.0486 33.1875 14.5798 Q32.4844 15.1111 31.4062 15.1111 Q30.0469 15.1111 29.2422 14.2673 Q28.4375 13.4236 28.4375 11.9079 Q28.4375 10.3454 29.25 9.4782 Q30.0625 8.6111 31.3438 8.6111 Q32.5938 8.6111 33.3828 9.4548 Q34.1719 10.2986 34.1719 11.8454 Q34.1719 11.9392 34.1719 12.1267 L29.5312 12.1267 Q29.5938 13.1579 30.1094 13.697 Q30.625 14.2361 31.4062 14.2361 Q31.9844 14.2361 32.3984 13.9314 Q32.8125 13.6267 33.0469 12.9704 ZM29.5938 11.2673 L33.0625 11.2673 Q33 10.4704 32.6719 10.0798 Q32.1562 9.4704 31.3594 9.4704 Q30.625 9.4704 30.1328 9.9548 Q29.6406 10.4392 29.5938 11.2673 ZM30.125 6.9704 L30.9062 5.3298 L32.2969 5.3298 L31 6.9704 L30.125 6.9704 ZM35.7969 14.9704 L35.7969 6.3767 L36.8594 6.3767 L36.8594 11.2829 L39.3438 8.7517 L40.7188 8.7517 L38.3281 11.0486 L40.9531 14.9704 L39.6562 14.9704 L37.5938 11.7829 L36.8594 12.5017 L36.8594 14.9704 L35.7969 14.9704 ZM46.0469 12.9704 L47.1406 13.0954 Q46.8906 14.0486 46.1875 14.5798 Q45.4844 15.1111 44.4062 15.1111 Q43.0469 15.1111 42.2422 14.2673 Q41.4375 13.4236 41.4375 11.9079 Q41.4375 10.3454 42.25 9.4782 Q43.0625 8.6111 44.3438 8.6111 Q45.5938 8.6111 46.3828 9.4548 Q47.1719 10.2986 47.1719 11.8454 Q47.1719 11.9392 47.1719 12.1267 L42.5312 12.1267 Q42.5938 13.1579 43.1094 13.697 Q43.625 14.2361 44.4062 14.2361 Q44.9844 14.2361 45.3984 13.9314 Q45.8125 13.6267 46.0469 12.9704 ZM42.5938 11.2673 L46.0625 11.2673 Q46 10.4704 45.6719 10.0798 Q45.1562 9.4704 44.3594 9.4704 Q43.625 9.4704 43.1328 9.9548 Q42.6406 10.4392 42.5938 11.2673 ZM48.7656 14.9704 L48.7656 6.3767 L49.8281 6.3767 L49.8281 14.9704 L48.7656 14.9704 ZM56.0469 12.9704 L57.1406 13.0954 Q56.8906 14.0486 56.1875 14.5798 Q55.4844 15.1111 54.4062 15.1111 Q53.0469 15.1111 52.2422 14.2673 Q51.4375 13.4236 51.4375 11.9079 Q51.4375 10.3454 52.25 9.4782 Q53.0625 8.6111 54.3438 8.6111 Q55.5938 8.6111 56.3828 9.4548 Q57.1719 10.2986 57.1719 11.8454 Q57.1719 11.9392 57.1719 12.1267 L52.5312 12.1267 Q52.5938 13.1579 53.1094 13.697 Q53.625 14.2361 54.4062 14.2361 Q54.9844 14.2361 55.3984 13.9314 Q55.8125 13.6267 56.0469 12.9704 ZM52.5938 11.2673 L56.0625 11.2673 Q56 10.4704 55.6719 10.0798 Q55.1562 9.4704 54.3594 9.4704 Q53.625 9.4704 53.1328 9.9548 Q52.6406 10.4392 52.5938 11.2673 ZM53.125 6.9704 L53.9062 5.3298 L55.2969 5.3298 L54 6.9704 L53.125 6.9704 ZM58.375 13.1111 L59.4062 12.9548 Q59.5 13.5798 59.8984 13.9079 Q60.2969 14.2361 61.0312 14.2361 Q61.75 14.2361 62.1016 13.947 Q62.4531 13.6579 62.4531 13.2517 Q62.4531 12.8923 62.1406 12.6892 Q61.9219 12.5486 61.0625 12.3298 Q59.9062 12.0329 59.4609 11.822 Q59.0156 11.6111 58.7812 11.2361 Q58.5469 10.8611 58.5469 10.3923 Q58.5469 9.9861 58.7344 9.6267 Q58.9219 9.2673 59.25 9.0329 Q59.5 8.8611 59.9219 8.7361 Q60.3438 8.6111 60.8438 8.6111 Q61.5625 8.6111 62.1172 8.822 Q62.6719 9.0329 62.9375 9.3923 Q63.2031 9.7517 63.2969 10.3454 L62.2656 10.4861 Q62.2031 10.0173 61.8672 9.7439 Q61.5312 9.4704 60.9062 9.4704 Q60.1875 9.4704 59.875 9.7126 Q59.5625 9.9548 59.5625 10.2829 Q59.5625 10.4861 59.6875 10.6423 Q59.8281 10.8142 60.0938 10.9236 Q60.25 10.9861 61.0312 11.1892 Q62.1562 11.5017 62.5938 11.6892 Q63.0312 11.8767 63.2812 12.2361 Q63.5312 12.5954 63.5312 13.1423 Q63.5312 13.6736 63.2266 14.1345 Q62.9219 14.5954 62.3438 14.8532 Q61.7656 15.1111 61.0312 15.1111 Q59.8125 15.1111 59.1797 14.6032 Q58.5469 14.0954 58.375 13.1111 ZM65.7969 7.5954 L65.7969 6.3767 L66.8594 6.3767 L66.8594 7.5954 L65.7969 7.5954 ZM65.7969 14.9704 L65.7969 8.7517 L66.8594 8.7517 L66.8594 14.9704 L65.7969 14.9704 ZM71.7656 14.9704 L71.7656 6.3767 L72.8281 6.3767 L72.8281 14.9704 L71.7656 14.9704 ZM74.4062 11.8611 Q74.4062 10.1267 75.3594 9.2986 Q76.1562 8.6111 77.3125 8.6111 Q78.5938 8.6111 79.4141 9.447 Q80.2344 10.2829 80.2344 11.7673 Q80.2344 12.9704 79.875 13.6579 Q79.5156 14.3454 78.8203 14.7282 Q78.125 15.1111 77.3125 15.1111 Q76.0156 15.1111 75.2109 14.2751 Q74.4062 13.4392 74.4062 11.8611 ZM75.4844 11.8611 Q75.4844 13.0486 76.0078 13.6423 Q76.5312 14.2361 77.3125 14.2361 Q78.1094 14.2361 78.625 13.6423 Q79.1406 13.0486 79.1406 11.8298 Q79.1406 10.6736 78.6172 10.0798 Q78.0938 9.4861 77.3125 9.4861 Q76.5312 9.4861 76.0078 10.072 Q75.4844 10.6579 75.4844 11.8611 ZM81.5938 15.4861 L82.625 15.6423 Q82.6875 16.1111 82.9844 16.3298 Q83.375 16.6267 84.0469 16.6267 Q84.7812 16.6267 85.1797 16.3298 Q85.5781 16.0329 85.7188 15.5173 Q85.8125 15.1892 85.7969 14.1579 Q85.1094 14.9704 84.0781 14.9704 Q82.7969 14.9704 82.0938 14.0407 Q81.3906 13.1111 81.3906 11.8298 Q81.3906 10.9392 81.7109 10.1814 Q82.0312 9.4236 82.6406 9.0173 Q83.25 8.6111 84.0781 8.6111 Q85.1875 8.6111 85.9062 9.5017 L85.9062 8.7517 L86.875 8.7517 L86.875 14.1267 Q86.875 15.5798 86.5781 16.1892 Q86.2812 16.7986 85.6406 17.1501 Q85 17.5017 84.0625 17.5017 Q82.9531 17.5017 82.2656 17.0017 Q81.5781 16.5017 81.5938 15.4861 ZM82.4688 11.7517 Q82.4688 12.9704 82.9531 13.5329 Q83.4375 14.0954 84.1719 14.0954 Q84.9062 14.0954 85.3984 13.5329 Q85.8906 12.9704 85.8906 11.7829 Q85.8906 10.6423 85.3828 10.0642 Q84.875 9.4861 84.1562 9.4861 Q83.4531 9.4861 82.9609 10.0564 Q82.4688 10.6267 82.4688 11.7517 ZM88.7969 7.5954 L88.7969 6.3767 L89.8594 6.3767 L89.8594 7.5954 L88.7969 7.5954 ZM88.7969 14.9704 L88.7969 8.7517 L89.8594 8.7517 L89.8594 14.9704 L88.7969 14.9704 ZM91.7969 14.9704 L91.7969 6.3767 L92.8594 6.3767 L92.8594 11.2829 L95.3438 8.7517 L96.7188 8.7517 L94.3281 11.0486 L96.9531 14.9704 L95.6562 14.9704 L93.5938 11.7829 L92.8594 12.5017 L92.8594 14.9704 L91.7969 14.9704 ZM101.8594 14.2048 Q101.2656 14.7048 100.7266 14.9079 Q100.1875 15.1111 99.5625 15.1111 Q98.5312 15.1111 97.9844 14.6111 Q97.4375 14.1111 97.4375 13.3298 Q97.4375 12.8767 97.6406 12.4939 Q97.8438 12.1111 98.1875 11.8845 Q98.5312 11.6579 98.9531 11.5486 Q99.25 11.4548 99.8906 11.3767 Q101.1562 11.2361 101.7656 11.0173 Q101.7656 10.7986 101.7656 10.7517 Q101.7656 10.0954 101.4688 9.8298 Q101.0625 9.4861 100.2656 9.4861 Q99.5312 9.4861 99.1719 9.7439 Q98.8125 10.0017 98.6406 10.6579 L97.6094 10.5173 Q97.75 9.8611 98.0781 9.4548 Q98.4062 9.0486 99.0156 8.8298 Q99.625 8.6111 100.4219 8.6111 Q101.2188 8.6111 101.7188 8.7986 Q102.2188 8.9861 102.4531 9.2673 Q102.6875 9.5486 102.7812 9.9861 Q102.8281 10.2517 102.8281 10.9548 L102.8281 12.3611 Q102.8281 13.8298 102.8984 14.2204 Q102.9688 14.6111 103.1719 14.9704 L102.0625 14.9704 Q101.9062 14.6423 101.8594 14.2048 ZM101.7656 11.8454 Q101.1875 12.0798 100.0469 12.2517 Q99.3906 12.3454 99.125 12.4626 Q98.8594 12.5798 98.7109 12.7986 Q98.5625 13.0173 98.5625 13.2986 Q98.5625 13.7204 98.8828 14.0017 Q99.2031 14.2829 99.8125 14.2829 Q100.4219 14.2829 100.8984 14.0173 Q101.375 13.7517 101.5938 13.2829 Q101.7656 12.9236 101.7656 12.2361 L101.7656 11.8454 ZM105.0938 14.9704 L105.0938 13.7673 L106.2969 13.7673 L106.2969 14.9704 L105.0938 14.9704 Z" style="clip-path:url(#clipPath11); stroke:none;" />
      <text x="3" y="29" style="font-size:11.5385; clip-path:url(#clipPath11); text-rendering:optimizeLegibility; font-family:sans-serif; stroke:none;" xml:space="preserve">Ha valamelyik kimenet változott </text>
      <path d="M7.8594 43.2048 Q7.2656 43.7048 6.7266 43.9079 Q6.1875 44.1111 5.5625 44.1111 Q4.5312 44.1111 3.9844 43.6111 Q3.4375 43.1111 3.4375 42.3298 Q3.4375 41.8767 3.6406 41.4939 Q3.8438 41.1111 4.1875 40.8845 Q4.5312 40.6579 4.9531 40.5486 Q5.25 40.4548 5.8906 40.3767 Q7.1562 40.2361 7.7656 40.0173 Q7.7656 39.7986 7.7656 39.7517 Q7.7656 39.0954 7.4688 38.8298 Q7.0625 38.4861 6.2656 38.4861 Q5.5312 38.4861 5.1719 38.7439 Q4.8125 39.0017 4.6406 39.6579 L3.6094 39.5173 Q3.75 38.8611 4.0781 38.4548 Q4.4062 38.0486 5.0156 37.8298 Q5.625 37.6111 6.4219 37.6111 Q7.2188 37.6111 7.7188 37.7986 Q8.2188 37.9861 8.4531 38.2673 Q8.6875 38.5486 8.7812 38.9861 Q8.8281 39.2517 8.8281 39.9548 L8.8281 41.3611 Q8.8281 42.8298 8.8984 43.2204 Q8.9688 43.6111 9.1719 43.9704 L8.0625 43.9704 Q7.9062 43.6423 7.8594 43.2048 ZM7.7656 40.8454 Q7.1875 41.0798 6.0469 41.2517 Q5.3906 41.3454 5.125 41.4626 Q4.8594 41.5798 4.7109 41.7986 Q4.5625 42.0173 4.5625 42.2986 Q4.5625 42.7204 4.8828 43.0017 Q5.2031 43.2829 5.8125 43.2829 Q6.4219 43.2829 6.8984 43.0173 Q7.375 42.7517 7.5938 42.2829 Q7.7656 41.9236 7.7656 41.2361 L7.7656 40.8454 ZM10.2344 43.9704 L10.2344 43.1111 L14.2031 38.5642 Q13.5156 38.5954 13 38.5954 L10.4688 38.5954 L10.4688 37.7517 L15.5625 37.7517 L15.5625 38.4392 L12.1875 42.3923 L11.5312 43.1111 Q12.25 43.0642 12.8594 43.0642 L15.75 43.0642 L15.75 43.9704 L10.2344 43.9704 ZM23.0469 41.9704 L24.1406 42.0954 Q23.8906 43.0486 23.1875 43.5798 Q22.4844 44.1111 21.4062 44.1111 Q20.0469 44.1111 19.2422 43.2673 Q18.4375 42.4236 18.4375 40.9079 Q18.4375 39.3454 19.25 38.4782 Q20.0625 37.6111 21.3438 37.6111 Q22.5938 37.6111 23.3828 38.4548 Q24.1719 39.2986 24.1719 40.8454 Q24.1719 40.9392 24.1719 41.1267 L19.5312 41.1267 Q19.5938 42.1579 20.1094 42.697 Q20.625 43.2361 21.4062 43.2361 Q21.9844 43.2361 22.3984 42.9314 Q22.8125 42.6267 23.0469 41.9704 ZM19.5938 40.2673 L23.0625 40.2673 Q23 39.4704 22.6719 39.0798 Q22.1562 38.4704 21.3594 38.4704 Q20.625 38.4704 20.1328 38.9548 Q19.6406 39.4392 19.5938 40.2673 ZM25.7656 43.9704 L25.7656 35.3767 L26.8281 35.3767 L26.8281 43.9704 L25.7656 43.9704 ZM28.4062 40.8611 Q28.4062 39.1267 29.3594 38.2986 Q30.1562 37.6111 31.3125 37.6111 Q32.5938 37.6111 33.4141 38.447 Q34.2344 39.2829 34.2344 40.7673 Q34.2344 41.9704 33.875 42.6579 Q33.5156 43.3454 32.8203 43.7282 Q32.125 44.1111 31.3125 44.1111 Q30.0156 44.1111 29.2109 43.2751 Q28.4062 42.4392 28.4062 40.8611 ZM29.4844 40.8611 Q29.4844 42.0486 30.0078 42.6423 Q30.5312 43.2361 31.3125 43.2361 Q32.1094 43.2361 32.625 42.6423 Q33.1406 42.0486 33.1406 40.8298 Q33.1406 39.6736 32.6172 39.0798 Q32.0938 38.4861 31.3125 38.4861 Q30.5312 38.4861 30.0078 39.072 Q29.4844 39.6579 29.4844 40.8611 ZM29.9688 35.9704 L30.6719 34.3298 L32.0469 34.3298 L30.8125 35.9704 L29.9688 35.9704 ZM32 35.9704 L32.75 34.3298 L34.0938 34.3298 L32.8906 35.9704 L32 35.9704 ZM35.2344 43.9704 L35.2344 43.1111 L39.2031 38.5642 Q38.5156 38.5954 38 38.5954 L35.4688 38.5954 L35.4688 37.7517 L40.5625 37.7517 L40.5625 38.4392 L37.1875 42.3923 L36.5312 43.1111 Q37.25 43.0642 37.8594 43.0642 L40.75 43.0642 L40.75 43.9704 L35.2344 43.9704 ZM40.4062 40.8611 Q40.4062 39.1267 41.3594 38.2986 Q42.1562 37.6111 43.3125 37.6111 Q44.5938 37.6111 45.4141 38.447 Q46.2344 39.2829 46.2344 40.7673 Q46.2344 41.9704 45.875 42.6579 Q45.5156 43.3454 44.8203 43.7282 Q44.125 44.1111 43.3125 44.1111 Q42.0156 44.1111 41.2109 43.2751 Q40.4062 42.4392 40.4062 40.8611 ZM41.4844 40.8611 Q41.4844 42.0486 42.0078 42.6423 Q42.5312 43.2361 43.3125 43.2361 Q44.1094 43.2361 44.625 42.6423 Q45.1406 42.0486 45.1406 40.8298 Q45.1406 39.6736 44.6172 39.0798 Q44.0938 38.4861 43.3125 38.4861 Q42.5312 38.4861 42.0078 39.072 Q41.4844 39.6579 41.4844 40.8611 ZM41.9688 35.9704 L42.6719 34.3298 L44.0469 34.3298 L42.8125 35.9704 L41.9688 35.9704 ZM44 35.9704 L44.75 34.3298 L46.0938 34.3298 L44.8906 35.9704 L44 35.9704 ZM50.7969 43.9704 L50.7969 35.3767 L51.8594 35.3767 L51.8594 40.2829 L54.3438 37.7517 L55.7188 37.7517 L53.3281 40.0486 L55.9531 43.9704 L54.6562 43.9704 L52.5938 40.7829 L51.8594 41.5017 L51.8594 43.9704 L50.7969 43.9704 ZM56.7969 36.5954 L56.7969 35.3767 L57.8594 35.3767 L57.8594 36.5954 L56.7969 36.5954 ZM56.7969 43.9704 L56.7969 37.7517 L57.8594 37.7517 L57.8594 43.9704 L56.7969 43.9704 ZM64.0469 41.9704 L65.1406 42.0954 Q64.8906 43.0486 64.1875 43.5798 Q63.4844 44.1111 62.4062 44.1111 Q61.0469 44.1111 60.2422 43.2673 Q59.4375 42.4236 59.4375 40.9079 Q59.4375 39.3454 60.25 38.4782 Q61.0625 37.6111 62.3438 37.6111 Q63.5938 37.6111 64.3828 38.4548 Q65.1719 39.2986 65.1719 40.8454 Q65.1719 40.9392 65.1719 41.1267 L60.5312 41.1267 Q60.5938 42.1579 61.1094 42.697 Q61.625 43.2361 62.4062 43.2361 Q62.9844 43.2361 63.3984 42.9314 Q63.8125 42.6267 64.0469 41.9704 ZM60.5938 40.2673 L64.0625 40.2673 Q64 39.4704 63.6719 39.0798 Q63.1562 38.4704 62.3594 38.4704 Q61.625 38.4704 61.1328 38.9548 Q60.6406 39.4392 60.5938 40.2673 ZM61.125 35.9704 L61.9062 34.3298 L63.2969 34.3298 L62 35.9704 L61.125 35.9704 ZM66.7812 43.9704 L66.7812 37.7517 L67.7344 37.7517 L67.7344 38.6892 Q68.0938 38.0329 68.3984 37.822 Q68.7031 37.6111 69.0781 37.6111 Q69.6094 37.6111 70.1562 37.9392 L69.7969 38.9236 Q69.4062 38.6892 69.0312 38.6892 Q68.6719 38.6892 68.3984 38.9001 Q68.125 39.1111 68.0156 39.4861 Q67.8281 40.0486 67.8281 40.7048 L67.8281 43.9704 L66.7812 43.9704 ZM73.0938 43.0329 L73.25 43.9548 Q72.7969 44.0486 72.4531 44.0486 Q71.875 44.0486 71.5625 43.8689 Q71.25 43.6892 71.1172 43.3923 Q70.9844 43.0954 70.9844 42.1423 L70.9844 38.5642 L70.2188 38.5642 L70.2188 37.7517 L70.9844 37.7517 L70.9844 36.2048 L72.0312 35.5798 L72.0312 37.7517 L73.0938 37.7517 L73.0938 38.5642 L72.0312 38.5642 L72.0312 42.2048 Q72.0312 42.6579 72.0859 42.7829 Q72.1406 42.9079 72.2656 42.9861 Q72.3906 43.0642 72.625 43.0642 Q72.8125 43.0642 73.0938 43.0329 ZM78.0469 41.9704 L79.1406 42.0954 Q78.8906 43.0486 78.1875 43.5798 Q77.4844 44.1111 76.4062 44.1111 Q75.0469 44.1111 74.2422 43.2673 Q73.4375 42.4236 73.4375 40.9079 Q73.4375 39.3454 74.25 38.4782 Q75.0625 37.6111 76.3438 37.6111 Q77.5938 37.6111 78.3828 38.4548 Q79.1719 39.2986 79.1719 40.8454 Q79.1719 40.9392 79.1719 41.1267 L74.5312 41.1267 Q74.5938 42.1579 75.1094 42.697 Q75.625 43.2361 76.4062 43.2361 Q76.9844 43.2361 77.3984 42.9314 Q77.8125 42.6267 78.0469 41.9704 ZM74.5938 40.2673 L78.0625 40.2673 Q78 39.4704 77.6719 39.0798 Q77.1562 38.4704 76.3594 38.4704 Q75.625 38.4704 75.1328 38.9548 Q74.6406 39.4392 74.5938 40.2673 ZM75.125 35.9704 L75.9062 34.3298 L77.2969 34.3298 L76 35.9704 L75.125 35.9704 ZM80.7969 43.9704 L80.7969 35.3767 L81.8594 35.3767 L81.8594 40.2829 L84.3438 37.7517 L85.7188 37.7517 L83.3281 40.0486 L85.9531 43.9704 L84.6562 43.9704 L82.5938 40.7829 L81.8594 41.5017 L81.8594 43.9704 L80.7969 43.9704 ZM91.0469 41.9704 L92.1406 42.0954 Q91.8906 43.0486 91.1875 43.5798 Q90.4844 44.1111 89.4062 44.1111 Q88.0469 44.1111 87.2422 43.2673 Q86.4375 42.4236 86.4375 40.9079 Q86.4375 39.3454 87.25 38.4782 Q88.0625 37.6111 89.3438 37.6111 Q90.5938 37.6111 91.3828 38.4548 Q92.1719 39.2986 92.1719 40.8454 Q92.1719 40.9392 92.1719 41.1267 L87.5312 41.1267 Q87.5938 42.1579 88.1094 42.697 Q88.625 43.2361 89.4062 43.2361 Q89.9844 43.2361 90.3984 42.9314 Q90.8125 42.6267 91.0469 41.9704 ZM87.5938 40.2673 L91.0625 40.2673 Q91 39.4704 90.6719 39.0798 Q90.1562 38.4704 89.3594 38.4704 Q88.625 38.4704 88.1328 38.9548 Q87.6406 39.4392 87.5938 40.2673 ZM93.7656 43.9704 L93.7656 35.3767 L94.8281 35.3767 L94.8281 43.9704 L93.7656 43.9704 ZM101.0469 41.9704 L102.1406 42.0954 Q101.8906 43.0486 101.1875 43.5798 Q100.4844 44.1111 99.4062 44.1111 Q98.0469 44.1111 97.2422 43.2673 Q96.4375 42.4236 96.4375 40.9079 Q96.4375 39.3454 97.25 38.4782 Q98.0625 37.6111 99.3438 37.6111 Q100.5938 37.6111 101.3828 38.4548 Q102.1719 39.2986 102.1719 40.8454 Q102.1719 40.9392 102.1719 41.1267 L97.5312 41.1267 Q97.5938 42.1579 98.1094 42.697 Q98.625 43.2361 99.4062 43.2361 Q99.9844 43.2361 100.3984 42.9314 Q100.8125 42.6267 101.0469 41.9704 ZM97.5938 40.2673 L101.0625 40.2673 Q101 39.4704 100.6719 39.0798 Q100.1562 38.4704 99.3594 38.4704 Q98.625 38.4704 98.1328 38.9548 Q97.6406 39.4392 97.5938 40.2673 ZM98.125 35.9704 L98.9062 34.3298 L100.2969 34.3298 L99 35.9704 L98.125 35.9704 ZM103.375 42.1111 L104.4062 41.9548 Q104.5 42.5798 104.8984 42.9079 Q105.2969 43.2361 106.0312 43.2361 Q106.75 43.2361 107.1016 42.947 Q107.4531 42.6579 107.4531 42.2517 Q107.4531 41.8923 107.1406 41.6892 Q106.9219 41.5486 106.0625 41.3298 Q104.9062 41.0329 104.4609 40.822 Q104.0156 40.6111 103.7812 40.2361 Q103.5469 39.8611 103.5469 39.3923 Q103.5469 38.9861 103.7344 38.6267 Q103.9219 38.2673 104.25 38.0329 Q104.5 37.8611 104.9219 37.7361 Q105.3438 37.6111 105.8438 37.6111 Q106.5625 37.6111 107.1172 37.822 Q107.6719 38.0329 107.9375 38.3923 Q108.2031 38.7517 108.2969 39.3454 L107.2656 39.4861 Q107.2031 39.0173 106.8672 38.7439 Q106.5312 38.4704 105.9062 38.4704 Q105.1875 38.4704 104.875 38.7126 Q104.5625 38.9548 104.5625 39.2829 Q104.5625 39.4861 104.6875 39.6423 Q104.8281 39.8142 105.0938 39.9236 Q105.25 39.9861 106.0312 40.1892 Q107.1562 40.5017 107.5938 40.6892 Q108.0312 40.8767 108.2812 41.2361 Q108.5312 41.5954 108.5312 42.1423 Q108.5312 42.6736 108.2266 43.1345 Q107.9219 43.5954 107.3438 43.8532 Q106.7656 44.1111 106.0312 44.1111 Q104.8125 44.1111 104.1797 43.6032 Q103.5469 43.0954 103.375 42.1111 ZM110.7969 36.5954 L110.7969 35.3767 L111.8594 35.3767 L111.8594 36.5954 L110.7969 36.5954 ZM110.7969 43.9704 L110.7969 37.7517 L111.8594 37.7517 L111.8594 43.9704 L110.7969 43.9704 ZM120.8594 41.6892 L121.8906 41.8298 Q121.7188 42.8923 121.0156 43.5017 Q120.3125 44.1111 119.2969 44.1111 Q118.0156 44.1111 117.2422 43.2751 Q116.4688 42.4392 116.4688 40.8767 Q116.4688 39.8767 116.8047 39.1189 Q117.1406 38.3611 117.8203 37.9861 Q118.5 37.6111 119.3125 37.6111 Q120.3125 37.6111 120.9609 38.1189 Q121.6094 38.6267 121.7969 39.5798 L120.7656 39.7361 Q120.625 39.1111 120.25 38.7907 Q119.875 38.4704 119.3438 38.4704 Q118.5469 38.4704 118.0469 39.0407 Q117.5469 39.6111 117.5469 40.8454 Q117.5469 42.1111 118.0312 42.6736 Q118.5156 43.2361 119.2812 43.2361 Q119.9062 43.2361 120.3203 42.8611 Q120.7344 42.4861 120.8594 41.6892 ZM122.7969 36.5954 L122.7969 35.3767 L123.8594 35.3767 L123.8594 36.5954 L122.7969 36.5954 ZM122.7969 43.9704 L122.7969 37.7517 L123.8594 37.7517 L123.8594 43.9704 L122.7969 43.9704 ZM125.7969 43.9704 L125.7969 35.3767 L126.8594 35.3767 L126.8594 40.2829 L129.3438 37.7517 L130.7188 37.7517 L128.3281 40.0486 L130.9531 43.9704 L129.6562 43.9704 L127.5938 40.7829 L126.8594 41.5017 L126.8594 43.9704 L125.7969 43.9704 ZM131.7656 43.9704 L131.7656 35.3767 L132.8281 35.3767 L132.8281 43.9704 L131.7656 43.9704 ZM138.875 43.9704 L138.875 43.0486 Q138.1406 44.1111 136.8906 44.1111 Q136.3438 44.1111 135.8672 43.9001 Q135.3906 43.6892 135.1562 43.3689 Q134.9219 43.0486 134.8281 42.5798 Q134.7656 42.2829 134.7656 41.5954 L134.7656 37.7517 L135.8281 37.7517 L135.8281 41.2048 Q135.8281 42.0173 135.8906 42.3142 Q135.9844 42.7204 136.3047 42.9626 Q136.625 43.2048 137.1094 43.2048 Q137.5781 43.2048 137.9922 42.9626 Q138.4062 42.7204 138.5859 42.2986 Q138.7656 41.8767 138.7656 41.0798 L138.7656 37.7517 L139.8125 37.7517 L139.8125 43.9704 L138.875 43.9704 ZM141.375 42.1111 L142.4062 41.9548 Q142.5 42.5798 142.8984 42.9079 Q143.2969 43.2361 144.0312 43.2361 Q144.75 43.2361 145.1016 42.947 Q145.4531 42.6579 145.4531 42.2517 Q145.4531 41.8923 145.1406 41.6892 Q144.9219 41.5486 144.0625 41.3298 Q142.9062 41.0329 142.4609 40.822 Q142.0156 40.6111 141.7812 40.2361 Q141.5469 39.8611 141.5469 39.3923 Q141.5469 38.9861 141.7344 38.6267 Q141.9219 38.2673 142.25 38.0329 Q142.5 37.8611 142.9219 37.7361 Q143.3438 37.6111 143.8438 37.6111 Q144.5625 37.6111 145.1172 37.822 Q145.6719 38.0329 145.9375 38.3923 Q146.2031 38.7517 146.2969 39.3454 L145.2656 39.4861 Q145.2031 39.0173 144.8672 38.7439 Q144.5312 38.4704 143.9062 38.4704 Q143.1875 38.4704 142.875 38.7126 Q142.5625 38.9548 142.5625 39.2829 Q142.5625 39.4861 142.6875 39.6423 Q142.8281 39.8142 143.0938 39.9236 Q143.25 39.9861 144.0312 40.1892 Q145.1562 40.5017 145.5938 40.6892 Q146.0312 40.8767 146.2812 41.2361 Q146.5312 41.5954 146.5312 42.1423 Q146.5312 42.6736 146.2266 43.1345 Q145.9219 43.5954 145.3438 43.8532 Q144.7656 44.1111 144.0312 44.1111 Q142.8125 44.1111 142.1797 43.6032 Q141.5469 43.0954 141.375 42.1111 ZM148.7969 43.9704 L148.7969 37.7517 L149.7344 37.7517 L149.7344 38.6267 Q150.4219 37.6111 151.7188 37.6111 Q152.2812 37.6111 152.7578 37.8142 Q153.2344 38.0173 153.4688 38.3454 Q153.7031 38.6736 153.7969 39.1111 Q153.8438 39.4079 153.8438 40.1423 L153.8438 43.9704 L152.7969 43.9704 L152.7969 40.1892 Q152.7969 39.5329 152.6719 39.2204 Q152.5469 38.9079 152.2344 38.7126 Q151.9219 38.5173 151.5 38.5173 Q150.8281 38.5173 150.3359 38.947 Q149.8438 39.3767 149.8438 40.5642 L149.8438 43.9704 L148.7969 43.9704 ZM159.8594 43.2048 Q159.2656 43.7048 158.7266 43.9079 Q158.1875 44.1111 157.5625 44.1111 Q156.5312 44.1111 155.9844 43.6111 Q155.4375 43.1111 155.4375 42.3298 Q155.4375 41.8767 155.6406 41.4939 Q155.8438 41.1111 156.1875 40.8845 Q156.5312 40.6579 156.9531 40.5486 Q157.25 40.4548 157.8906 40.3767 Q159.1562 40.2361 159.7656 40.0173 Q159.7656 39.7986 159.7656 39.7517 Q159.7656 39.0954 159.4688 38.8298 Q159.0625 38.4861 158.2656 38.4861 Q157.5312 38.4861 157.1719 38.7439 Q156.8125 39.0017 156.6406 39.6579 L155.6094 39.5173 Q155.75 38.8611 156.0781 38.4548 Q156.4062 38.0486 157.0156 37.8298 Q157.625 37.6111 158.4219 37.6111 Q159.2188 37.6111 159.7188 37.7986 Q160.2188 37.9861 160.4531 38.2673 Q160.6875 38.5486 160.7812 38.9861 Q160.8281 39.2517 160.8281 39.9548 L160.8281 41.3611 Q160.8281 42.8298 160.8984 43.2204 Q160.9688 43.6111 161.1719 43.9704 L160.0625 43.9704 Q159.9062 43.6423 159.8594 43.2048 ZM159.7656 40.8454 Q159.1875 41.0798 158.0469 41.2517 Q157.3906 41.3454 157.125 41.4626 Q156.8594 41.5798 156.7109 41.7986 Q156.5625 42.0173 156.5625 42.2986 Q156.5625 42.7204 156.8828 43.0017 Q157.2031 43.2829 157.8125 43.2829 Q158.4219 43.2829 158.8984 43.0173 Q159.375 42.7517 159.5938 42.2829 Q159.7656 41.9236 159.7656 41.2361 L159.7656 40.8454 ZM157.125 35.9704 L157.9062 34.3298 L159.2969 34.3298 L158 35.9704 L157.125 35.9704 ZM162.7656 43.9704 L162.7656 35.3767 L163.8281 35.3767 L163.8281 43.9704 L162.7656 43.9704 Z" style="clip-path:url(#clipPath11); stroke:none;" />
      <path d="M3.7969 57.9704 L3.7969 49.3767 L4.8594 49.3767 L4.8594 54.2829 L7.3438 51.7517 L8.7188 51.7517 L6.3281 54.0486 L8.9531 57.9704 L7.6562 57.9704 L5.5938 54.7829 L4.8594 55.5017 L4.8594 57.9704 L3.7969 57.9704 ZM9.7969 50.5954 L9.7969 49.3767 L10.8594 49.3767 L10.8594 50.5954 L9.7969 50.5954 ZM9.7969 57.9704 L9.7969 51.7517 L10.8594 51.7517 L10.8594 57.9704 L9.7969 57.9704 ZM12.375 56.1111 L13.4062 55.9548 Q13.5 56.5798 13.8984 56.9079 Q14.2969 57.2361 15.0312 57.2361 Q15.75 57.2361 16.1016 56.947 Q16.4531 56.6579 16.4531 56.2517 Q16.4531 55.8923 16.1406 55.6892 Q15.9219 55.5486 15.0625 55.3298 Q13.9062 55.0329 13.4609 54.822 Q13.0156 54.6111 12.7812 54.2361 Q12.5469 53.8611 12.5469 53.3923 Q12.5469 52.9861 12.7344 52.6267 Q12.9219 52.2673 13.25 52.0329 Q13.5 51.8611 13.9219 51.7361 Q14.3438 51.6111 14.8438 51.6111 Q15.5625 51.6111 16.1172 51.822 Q16.6719 52.0329 16.9375 52.3923 Q17.2031 52.7517 17.2969 53.3454 L16.2656 53.4861 Q16.2031 53.0173 15.8672 52.7439 Q15.5312 52.4704 14.9062 52.4704 Q14.1875 52.4704 13.875 52.7126 Q13.5625 52.9548 13.5625 53.2829 Q13.5625 53.4861 13.6875 53.6423 Q13.8281 53.8142 14.0938 53.9236 Q14.25 53.9861 15.0312 54.1892 Q16.1562 54.5017 16.5938 54.6892 Q17.0312 54.8767 17.2812 55.2361 Q17.5312 55.5954 17.5312 56.1423 Q17.5312 56.6736 17.2266 57.1345 Q16.9219 57.5954 16.3438 57.8532 Q15.7656 58.1111 15.0312 58.1111 Q13.8125 58.1111 13.1797 57.6032 Q12.5469 57.0954 12.375 56.1111 ZM19.2344 57.9704 L19.2344 57.1111 L23.2031 52.5642 Q22.5156 52.5954 22 52.5954 L19.4688 52.5954 L19.4688 51.7517 L24.5625 51.7517 L24.5625 52.4392 L21.1875 56.3923 L20.5312 57.1111 Q21.25 57.0642 21.8594 57.0642 L24.75 57.0642 L24.75 57.9704 L19.2344 57.9704 ZM28.8594 57.2048 Q28.2656 57.7048 27.7266 57.9079 Q27.1875 58.1111 26.5625 58.1111 Q25.5312 58.1111 24.9844 57.6111 Q24.4375 57.1111 24.4375 56.3298 Q24.4375 55.8767 24.6406 55.4939 Q24.8438 55.1111 25.1875 54.8845 Q25.5312 54.6579 25.9531 54.5486 Q26.25 54.4548 26.8906 54.3767 Q28.1562 54.2361 28.7656 54.0173 Q28.7656 53.7986 28.7656 53.7517 Q28.7656 53.0954 28.4688 52.8298 Q28.0625 52.4861 27.2656 52.4861 Q26.5312 52.4861 26.1719 52.7439 Q25.8125 53.0017 25.6406 53.6579 L24.6094 53.5173 Q24.75 52.8611 25.0781 52.4548 Q25.4062 52.0486 26.0156 51.8298 Q26.625 51.6111 27.4219 51.6111 Q28.2188 51.6111 28.7188 51.7986 Q29.2188 51.9861 29.4531 52.2673 Q29.6875 52.5486 29.7812 52.9861 Q29.8281 53.2517 29.8281 53.9548 L29.8281 55.3611 Q29.8281 56.8298 29.8984 57.2204 Q29.9688 57.6111 30.1719 57.9704 L29.0625 57.9704 Q28.9062 57.6423 28.8594 57.2048 ZM28.7656 54.8454 Q28.1875 55.0798 27.0469 55.2517 Q26.3906 55.3454 26.125 55.4626 Q25.8594 55.5798 25.7109 55.7986 Q25.5625 56.0173 25.5625 56.2986 Q25.5625 56.7204 25.8828 57.0017 Q26.2031 57.2829 26.8125 57.2829 Q27.4219 57.2829 27.8984 57.0173 Q28.375 56.7517 28.5938 56.2829 Q28.7656 55.9236 28.7656 55.2361 L28.7656 54.8454 ZM26.125 49.9704 L26.9062 48.3298 L28.2969 48.3298 L27 49.9704 L26.125 49.9704 ZM31.7969 57.9704 L31.7969 51.7517 L32.7344 51.7517 L32.7344 52.6267 Q33.0312 52.1579 33.5156 51.8845 Q34 51.6111 34.625 51.6111 Q35.3125 51.6111 35.7578 51.8923 Q36.2031 52.1736 36.375 52.6892 Q37.125 51.6111 38.2969 51.6111 Q39.2344 51.6111 39.7266 52.1189 Q40.2188 52.6267 40.2188 53.7048 L40.2188 57.9704 L39.1719 57.9704 L39.1719 54.0486 Q39.1719 53.4236 39.0703 53.1423 Q38.9688 52.8611 38.7031 52.6892 Q38.4375 52.5173 38.0625 52.5173 Q37.4062 52.5173 36.9766 52.9548 Q36.5469 53.3923 36.5469 54.3611 L36.5469 57.9704 L35.4844 57.9704 L35.4844 53.9236 Q35.4844 53.2204 35.2266 52.8689 Q34.9688 52.5173 34.3906 52.5173 Q33.9375 52.5173 33.5625 52.7517 Q33.1875 52.9861 33.0156 53.4392 Q32.8438 53.8923 32.8438 54.7361 L32.8438 57.9704 L31.7969 57.9704 ZM42.4062 54.8611 Q42.4062 53.1267 43.3594 52.2986 Q44.1562 51.6111 45.3125 51.6111 Q46.5938 51.6111 47.4141 52.447 Q48.2344 53.2829 48.2344 54.7673 Q48.2344 55.9704 47.875 56.6579 Q47.5156 57.3454 46.8203 57.7282 Q46.125 58.1111 45.3125 58.1111 Q44.0156 58.1111 43.2109 57.2751 Q42.4062 56.4392 42.4062 54.8611 ZM43.4844 54.8611 Q43.4844 56.0486 44.0078 56.6423 Q44.5312 57.2361 45.3125 57.2361 Q46.1094 57.2361 46.625 56.6423 Q47.1406 56.0486 47.1406 54.8298 Q47.1406 53.6736 46.6172 53.0798 Q46.0938 52.4861 45.3125 52.4861 Q44.5312 52.4861 44.0078 53.072 Q43.4844 53.6579 43.4844 54.8611 ZM49.7656 57.9704 L49.7656 49.3767 L50.8281 49.3767 L50.8281 57.9704 L49.7656 57.9704 ZM55.0938 57.0329 L55.25 57.9548 Q54.7969 58.0486 54.4531 58.0486 Q53.875 58.0486 53.5625 57.8689 Q53.25 57.6892 53.1172 57.3923 Q52.9844 57.0954 52.9844 56.1423 L52.9844 52.5642 L52.2188 52.5642 L52.2188 51.7517 L52.9844 51.7517 L52.9844 50.2048 L54.0312 49.5798 L54.0312 51.7517 L55.0938 51.7517 L55.0938 52.5642 L54.0312 52.5642 L54.0312 56.2048 Q54.0312 56.6579 54.0859 56.7829 Q54.1406 56.9079 54.2656 56.9861 Q54.3906 57.0642 54.625 57.0642 Q54.8125 57.0642 55.0938 57.0329 ZM55.4062 54.8611 Q55.4062 53.1267 56.3594 52.2986 Q57.1562 51.6111 58.3125 51.6111 Q59.5938 51.6111 60.4141 52.447 Q61.2344 53.2829 61.2344 54.7673 Q61.2344 55.9704 60.875 56.6579 Q60.5156 57.3454 59.8203 57.7282 Q59.125 58.1111 58.3125 58.1111 Q57.0156 58.1111 56.2109 57.2751 Q55.4062 56.4392 55.4062 54.8611 ZM56.4844 54.8611 Q56.4844 56.0486 57.0078 56.6423 Q57.5312 57.2361 58.3125 57.2361 Q59.1094 57.2361 59.625 56.6423 Q60.1406 56.0486 60.1406 54.8298 Q60.1406 53.6736 59.6172 53.0798 Q59.0938 52.4861 58.3125 52.4861 Q57.5312 52.4861 57.0078 53.072 Q56.4844 53.6579 56.4844 54.8611 ZM57.125 49.9704 L57.9062 48.3298 L59.2969 48.3298 L58 49.9704 L57.125 49.9704 ZM62.7656 57.9704 L62.7656 49.3767 L63.8281 49.3767 L63.8281 57.9704 L62.7656 57.9704 ZM66.0625 57.9704 L66.0625 56.7673 L67.2656 56.7673 L67.2656 57.9704 Q67.2656 58.6267 67.0312 59.0407 Q66.7969 59.4548 66.2969 59.6736 L66 59.2204 Q66.3281 59.0798 66.4844 58.7907 Q66.6406 58.5017 66.6719 57.9704 L66.0625 57.9704 ZM75.8594 57.2048 Q75.2656 57.7048 74.7266 57.9079 Q74.1875 58.1111 73.5625 58.1111 Q72.5312 58.1111 71.9844 57.6111 Q71.4375 57.1111 71.4375 56.3298 Q71.4375 55.8767 71.6406 55.4939 Q71.8438 55.1111 72.1875 54.8845 Q72.5312 54.6579 72.9531 54.5486 Q73.25 54.4548 73.8906 54.3767 Q75.1562 54.2361 75.7656 54.0173 Q75.7656 53.7986 75.7656 53.7517 Q75.7656 53.0954 75.4688 52.8298 Q75.0625 52.4861 74.2656 52.4861 Q73.5312 52.4861 73.1719 52.7439 Q72.8125 53.0017 72.6406 53.6579 L71.6094 53.5173 Q71.75 52.8611 72.0781 52.4548 Q72.4062 52.0486 73.0156 51.8298 Q73.625 51.6111 74.4219 51.6111 Q75.2188 51.6111 75.7188 51.7986 Q76.2188 51.9861 76.4531 52.2673 Q76.6875 52.5486 76.7812 52.9861 Q76.8281 53.2517 76.8281 53.9548 L76.8281 55.3611 Q76.8281 56.8298 76.8984 57.2204 Q76.9688 57.6111 77.1719 57.9704 L76.0625 57.9704 Q75.9062 57.6423 75.8594 57.2048 ZM75.7656 54.8454 Q75.1875 55.0798 74.0469 55.2517 Q73.3906 55.3454 73.125 55.4626 Q72.8594 55.5798 72.7109 55.7986 Q72.5625 56.0173 72.5625 56.2986 Q72.5625 56.7204 72.8828 57.0017 Q73.2031 57.2829 73.8125 57.2829 Q74.4219 57.2829 74.8984 57.0173 Q75.375 56.7517 75.5938 56.2829 Q75.7656 55.9236 75.7656 55.2361 L75.7656 54.8454 ZM78.7969 57.9704 L78.7969 49.3767 L79.8594 49.3767 L79.8594 54.2829 L82.3438 51.7517 L83.7188 51.7517 L81.3281 54.0486 L83.9531 57.9704 L82.6562 57.9704 L80.5938 54.7829 L79.8594 55.5017 L79.8594 57.9704 L78.7969 57.9704 ZM84.7969 57.9704 L84.7969 49.3767 L85.8594 49.3767 L85.8594 54.2829 L88.3438 51.7517 L89.7188 51.7517 L87.3281 54.0486 L89.9531 57.9704 L88.6562 57.9704 L86.5938 54.7829 L85.8594 55.5017 L85.8594 57.9704 L84.7969 57.9704 ZM90.4062 54.8611 Q90.4062 53.1267 91.3594 52.2986 Q92.1562 51.6111 93.3125 51.6111 Q94.5938 51.6111 95.4141 52.447 Q96.2344 53.2829 96.2344 54.7673 Q96.2344 55.9704 95.875 56.6579 Q95.5156 57.3454 94.8203 57.7282 Q94.125 58.1111 93.3125 58.1111 Q92.0156 58.1111 91.2109 57.2751 Q90.4062 56.4392 90.4062 54.8611 ZM91.4844 54.8611 Q91.4844 56.0486 92.0078 56.6423 Q92.5312 57.2361 93.3125 57.2361 Q94.1094 57.2361 94.625 56.6423 Q95.1406 56.0486 95.1406 54.8298 Q95.1406 53.6736 94.6172 53.0798 Q94.0938 52.4861 93.3125 52.4861 Q92.5312 52.4861 92.0078 53.072 Q91.4844 53.6579 91.4844 54.8611 ZM97.7812 57.9704 L97.7812 51.7517 L98.7344 51.7517 L98.7344 52.6892 Q99.0938 52.0329 99.3984 51.822 Q99.7031 51.6111 100.0781 51.6111 Q100.6094 51.6111 101.1562 51.9392 L100.7969 52.9236 Q100.4062 52.6892 100.0312 52.6892 Q99.6719 52.6892 99.3984 52.9001 Q99.125 53.1111 99.0156 53.4861 Q98.8281 54.0486 98.8281 54.7048 L98.8281 57.9704 L97.7812 57.9704 ZM108.8594 57.2048 Q108.2656 57.7048 107.7266 57.9079 Q107.1875 58.1111 106.5625 58.1111 Q105.5312 58.1111 104.9844 57.6111 Q104.4375 57.1111 104.4375 56.3298 Q104.4375 55.8767 104.6406 55.4939 Q104.8438 55.1111 105.1875 54.8845 Q105.5312 54.6579 105.9531 54.5486 Q106.25 54.4548 106.8906 54.3767 Q108.1562 54.2361 108.7656 54.0173 Q108.7656 53.7986 108.7656 53.7517 Q108.7656 53.0954 108.4688 52.8298 Q108.0625 52.4861 107.2656 52.4861 Q106.5312 52.4861 106.1719 52.7439 Q105.8125 53.0017 105.6406 53.6579 L104.6094 53.5173 Q104.75 52.8611 105.0781 52.4548 Q105.4062 52.0486 106.0156 51.8298 Q106.625 51.6111 107.4219 51.6111 Q108.2188 51.6111 108.7188 51.7986 Q109.2188 51.9861 109.4531 52.2673 Q109.6875 52.5486 109.7812 52.9861 Q109.8281 53.2517 109.8281 53.9548 L109.8281 55.3611 Q109.8281 56.8298 109.8984 57.2204 Q109.9688 57.6111 110.1719 57.9704 L109.0625 57.9704 Q108.9062 57.6423 108.8594 57.2048 ZM108.7656 54.8454 Q108.1875 55.0798 107.0469 55.2517 Q106.3906 55.3454 106.125 55.4626 Q105.8594 55.5798 105.7109 55.7986 Q105.5625 56.0173 105.5625 56.2986 Q105.5625 56.7204 105.8828 57.0017 Q106.2031 57.2829 106.8125 57.2829 Q107.4219 57.2829 107.8984 57.0173 Q108.375 56.7517 108.5938 56.2829 Q108.7656 55.9236 108.7656 55.2361 L108.7656 54.8454 ZM118.8594 55.6892 L119.8906 55.8298 Q119.7188 56.8923 119.0156 57.5017 Q118.3125 58.1111 117.2969 58.1111 Q116.0156 58.1111 115.2422 57.2751 Q114.4688 56.4392 114.4688 54.8767 Q114.4688 53.8767 114.8047 53.1189 Q115.1406 52.3611 115.8203 51.9861 Q116.5 51.6111 117.3125 51.6111 Q118.3125 51.6111 118.9609 52.1189 Q119.6094 52.6267 119.7969 53.5798 L118.7656 53.7361 Q118.625 53.1111 118.25 52.7907 Q117.875 52.4704 117.3438 52.4704 Q116.5469 52.4704 116.0469 53.0407 Q115.5469 53.6111 115.5469 54.8454 Q115.5469 56.1111 116.0312 56.6736 Q116.5156 57.2361 117.2812 57.2361 Q117.9062 57.2361 118.3203 56.8611 Q118.7344 56.4861 118.8594 55.6892 ZM120.7969 57.9704 L120.7969 49.3767 L121.8438 49.3767 L121.8438 52.4548 Q122.5781 51.6111 123.7031 51.6111 Q124.4062 51.6111 124.9141 51.8845 Q125.4219 52.1579 125.6406 52.6345 Q125.8594 53.1111 125.8594 54.0329 L125.8594 57.9704 L124.8125 57.9704 L124.8125 54.0329 Q124.8125 53.2361 124.4688 52.8767 Q124.125 52.5173 123.5 52.5173 Q123.0312 52.5173 122.6172 52.7595 Q122.2031 53.0017 122.0234 53.4157 Q121.8438 53.8298 121.8438 54.5642 L121.8438 57.9704 L120.7969 57.9704 ZM131.8594 57.2048 Q131.2656 57.7048 130.7266 57.9079 Q130.1875 58.1111 129.5625 58.1111 Q128.5312 58.1111 127.9844 57.6111 Q127.4375 57.1111 127.4375 56.3298 Q127.4375 55.8767 127.6406 55.4939 Q127.8438 55.1111 128.1875 54.8845 Q128.5312 54.6579 128.9531 54.5486 Q129.25 54.4548 129.8906 54.3767 Q131.1562 54.2361 131.7656 54.0173 Q131.7656 53.7986 131.7656 53.7517 Q131.7656 53.0954 131.4688 52.8298 Q131.0625 52.4861 130.2656 52.4861 Q129.5312 52.4861 129.1719 52.7439 Q128.8125 53.0017 128.6406 53.6579 L127.6094 53.5173 Q127.75 52.8611 128.0781 52.4548 Q128.4062 52.0486 129.0156 51.8298 Q129.625 51.6111 130.4219 51.6111 Q131.2188 51.6111 131.7188 51.7986 Q132.2188 51.9861 132.4531 52.2673 Q132.6875 52.5486 132.7812 52.9861 Q132.8281 53.2517 132.8281 53.9548 L132.8281 55.3611 Q132.8281 56.8298 132.8984 57.2204 Q132.9688 57.6111 133.1719 57.9704 L132.0625 57.9704 Q131.9062 57.6423 131.8594 57.2048 ZM131.7656 54.8454 Q131.1875 55.0798 130.0469 55.2517 Q129.3906 55.3454 129.125 55.4626 Q128.8594 55.5798 128.7109 55.7986 Q128.5625 56.0173 128.5625 56.2986 Q128.5625 56.7204 128.8828 57.0017 Q129.2031 57.2829 129.8125 57.2829 Q130.4219 57.2829 130.8984 57.0173 Q131.375 56.7517 131.5938 56.2829 Q131.7656 55.9236 131.7656 55.2361 L131.7656 54.8454 ZM134.7969 57.9704 L134.7969 51.7517 L135.7344 51.7517 L135.7344 52.6267 Q136.4219 51.6111 137.7188 51.6111 Q138.2812 51.6111 138.7578 51.8142 Q139.2344 52.0173 139.4688 52.3454 Q139.7031 52.6736 139.7969 53.1111 Q139.8438 53.4079 139.8438 54.1423 L139.8438 57.9704 L138.7969 57.9704 L138.7969 54.1892 Q138.7969 53.5329 138.6719 53.2204 Q138.5469 52.9079 138.2344 52.7126 Q137.9219 52.5173 137.5 52.5173 Q136.8281 52.5173 136.3359 52.947 Q135.8438 53.3767 135.8438 54.5642 L135.8438 57.9704 L134.7969 57.9704 ZM141.5938 58.4861 L142.625 58.6423 Q142.6875 59.1111 142.9844 59.3298 Q143.375 59.6267 144.0469 59.6267 Q144.7812 59.6267 145.1797 59.3298 Q145.5781 59.0329 145.7188 58.5173 Q145.8125 58.1892 145.7969 57.1579 Q145.1094 57.9704 144.0781 57.9704 Q142.7969 57.9704 142.0938 57.0407 Q141.3906 56.1111 141.3906 54.8298 Q141.3906 53.9392 141.7109 53.1814 Q142.0312 52.4236 142.6406 52.0173 Q143.25 51.6111 144.0781 51.6111 Q145.1875 51.6111 145.9062 52.5017 L145.9062 51.7517 L146.875 51.7517 L146.875 57.1267 Q146.875 58.5798 146.5781 59.1892 Q146.2812 59.7986 145.6406 60.1501 Q145 60.5017 144.0625 60.5017 Q142.9531 60.5017 142.2656 60.0017 Q141.5781 59.5017 141.5938 58.4861 ZM142.4688 54.7517 Q142.4688 55.9704 142.9531 56.5329 Q143.4375 57.0954 144.1719 57.0954 Q144.9062 57.0954 145.3984 56.5329 Q145.8906 55.9704 145.8906 54.7829 Q145.8906 53.6423 145.3828 53.0642 Q144.875 52.4861 144.1562 52.4861 Q143.4531 52.4861 142.9609 53.0564 Q142.4688 53.6267 142.4688 54.7517 ZM153.0469 55.9704 L154.1406 56.0954 Q153.8906 57.0486 153.1875 57.5798 Q152.4844 58.1111 151.4062 58.1111 Q150.0469 58.1111 149.2422 57.2673 Q148.4375 56.4236 148.4375 54.9079 Q148.4375 53.3454 149.25 52.4782 Q150.0625 51.6111 151.3438 51.6111 Q152.5938 51.6111 153.3828 52.4548 Q154.1719 53.2986 154.1719 54.8454 Q154.1719 54.9392 154.1719 55.1267 L149.5312 55.1267 Q149.5938 56.1579 150.1094 56.697 Q150.625 57.2361 151.4062 57.2361 Q151.9844 57.2361 152.3984 56.9314 Q152.8125 56.6267 153.0469 55.9704 ZM149.5938 54.2673 L153.0625 54.2673 Q153 53.4704 152.6719 53.0798 Q152.1562 52.4704 151.3594 52.4704 Q150.625 52.4704 150.1328 52.9548 Q149.6406 53.4392 149.5938 54.2673 ZM159.8281 57.9704 L159.8281 57.1892 Q159.2344 58.1111 158.0938 58.1111 Q157.3438 58.1111 156.7188 57.697 Q156.0938 57.2829 155.75 56.5486 Q155.4062 55.8142 155.4062 54.8611 Q155.4062 53.9392 155.7188 53.1736 Q156.0312 52.4079 156.6562 52.0095 Q157.2812 51.6111 158.0469 51.6111 Q158.6094 51.6111 159.0469 51.8454 Q159.4844 52.0798 159.7656 52.4548 L159.7656 49.3767 L160.8125 49.3767 L160.8125 57.9704 L159.8281 57.9704 ZM156.5 54.8611 Q156.5 56.0642 157 56.6501 Q157.5 57.2361 158.1875 57.2361 Q158.875 57.2361 159.3594 56.6736 Q159.8438 56.1111 159.8438 54.9548 Q159.8438 53.6736 159.3516 53.0798 Q158.8594 52.4861 158.1406 52.4861 Q157.4375 52.4861 156.9688 53.0564 Q156.5 53.6267 156.5 54.8611 Z" style="clip-path:url(#clipPath11); stroke:none;" />
      <path d="M4.0469 71.9704 L4.0469 66.5642 L3.1094 66.5642 L3.1094 65.7517 L4.0469 65.7517 L4.0469 65.0798 Q4.0469 64.4548 4.1562 64.1579 Q4.3125 63.7361 4.6953 63.4861 Q5.0781 63.2361 5.7656 63.2361 Q6.2188 63.2361 6.75 63.3454 L6.5938 64.2517 Q6.2656 64.2048 5.9688 64.2048 Q5.4844 64.2048 5.2891 64.4079 Q5.0938 64.6111 5.0938 65.1736 L5.0938 65.7517 L6.3125 65.7517 L6.3125 66.5642 L5.0938 66.5642 L5.0938 71.9704 L4.0469 71.9704 ZM6.7656 71.9704 L6.7656 63.3767 L7.8281 63.3767 L7.8281 71.9704 L6.7656 71.9704 ZM13.8594 71.2048 Q13.2656 71.7048 12.7266 71.9079 Q12.1875 72.1111 11.5625 72.1111 Q10.5312 72.1111 9.9844 71.6111 Q9.4375 71.1111 9.4375 70.3298 Q9.4375 69.8767 9.6406 69.4939 Q9.8438 69.1111 10.1875 68.8845 Q10.5312 68.6579 10.9531 68.5486 Q11.25 68.4548 11.8906 68.3767 Q13.1562 68.2361 13.7656 68.0173 Q13.7656 67.7986 13.7656 67.7517 Q13.7656 67.0954 13.4688 66.8298 Q13.0625 66.4861 12.2656 66.4861 Q11.5312 66.4861 11.1719 66.7439 Q10.8125 67.0017 10.6406 67.6579 L9.6094 67.5173 Q9.75 66.8611 10.0781 66.4548 Q10.4062 66.0486 11.0156 65.8298 Q11.625 65.6111 12.4219 65.6111 Q13.2188 65.6111 13.7188 65.7986 Q14.2188 65.9861 14.4531 66.2673 Q14.6875 66.5486 14.7812 66.9861 Q14.8281 67.2517 14.8281 67.9548 L14.8281 69.3611 Q14.8281 70.8298 14.8984 71.2204 Q14.9688 71.6111 15.1719 71.9704 L14.0625 71.9704 Q13.9062 71.6423 13.8594 71.2048 ZM13.7656 68.8454 Q13.1875 69.0798 12.0469 69.2517 Q11.3906 69.3454 11.125 69.4626 Q10.8594 69.5798 10.7109 69.7986 Q10.5625 70.0173 10.5625 70.2986 Q10.5625 70.7204 10.8828 71.0017 Q11.2031 71.2829 11.8125 71.2829 Q12.4219 71.2829 12.8984 71.0173 Q13.375 70.7517 13.5938 70.2829 Q13.7656 69.9236 13.7656 69.2361 L13.7656 68.8454 ZM16.5938 72.4861 L17.625 72.6423 Q17.6875 73.1111 17.9844 73.3298 Q18.375 73.6267 19.0469 73.6267 Q19.7812 73.6267 20.1797 73.3298 Q20.5781 73.0329 20.7188 72.5173 Q20.8125 72.1892 20.7969 71.1579 Q20.1094 71.9704 19.0781 71.9704 Q17.7969 71.9704 17.0938 71.0407 Q16.3906 70.1111 16.3906 68.8298 Q16.3906 67.9392 16.7109 67.1814 Q17.0312 66.4236 17.6406 66.0173 Q18.25 65.6111 19.0781 65.6111 Q20.1875 65.6111 20.9062 66.5017 L20.9062 65.7517 L21.875 65.7517 L21.875 71.1267 Q21.875 72.5798 21.5781 73.1892 Q21.2812 73.7986 20.6406 74.1501 Q20 74.5017 19.0625 74.5017 Q17.9531 74.5017 17.2656 74.0017 Q16.5781 73.5017 16.5938 72.4861 ZM17.4688 68.7517 Q17.4688 69.9704 17.9531 70.5329 Q18.4375 71.0954 19.1719 71.0954 Q19.9062 71.0954 20.3984 70.5329 Q20.8906 69.9704 20.8906 68.7829 Q20.8906 67.6423 20.3828 67.0642 Q19.875 66.4861 19.1562 66.4861 Q18.4531 66.4861 17.9609 67.0564 Q17.4688 67.6267 17.4688 68.7517 ZM23.375 69.3923 L23.375 68.3298 L26.625 68.3298 L26.625 69.3923 L23.375 69.3923 ZM32.0469 69.9704 L33.1406 70.0954 Q32.8906 71.0486 32.1875 71.5798 Q31.4844 72.1111 30.4062 72.1111 Q29.0469 72.1111 28.2422 71.2673 Q27.4375 70.4236 27.4375 68.9079 Q27.4375 67.3454 28.25 66.4782 Q29.0625 65.6111 30.3438 65.6111 Q31.5938 65.6111 32.3828 66.4548 Q33.1719 67.2986 33.1719 68.8454 Q33.1719 68.9392 33.1719 69.1267 L28.5312 69.1267 Q28.5938 70.1579 29.1094 70.697 Q29.625 71.2361 30.4062 71.2361 Q30.9844 71.2361 31.3984 70.9314 Q31.8125 70.6267 32.0469 69.9704 ZM28.5938 68.2673 L32.0625 68.2673 Q32 67.4704 31.6719 67.0798 Q31.1562 66.4704 30.3594 66.4704 Q29.625 66.4704 29.1328 66.9548 Q28.6406 67.4392 28.5938 68.2673 ZM37.0938 71.0329 L37.25 71.9548 Q36.7969 72.0486 36.4531 72.0486 Q35.875 72.0486 35.5625 71.8689 Q35.25 71.6892 35.1172 71.3923 Q34.9844 71.0954 34.9844 70.1423 L34.9844 66.5642 L34.2188 66.5642 L34.2188 65.7517 L34.9844 65.7517 L34.9844 64.2048 L36.0312 63.5798 L36.0312 65.7517 L37.0938 65.7517 L37.0938 66.5642 L36.0312 66.5642 L36.0312 70.2048 Q36.0312 70.6579 36.0859 70.7829 Q36.1406 70.9079 36.2656 70.9861 Q36.3906 71.0642 36.625 71.0642 Q36.8125 71.0642 37.0938 71.0329 ZM41.7656 71.9704 L40.7812 71.9704 L40.7812 63.3767 L41.8438 63.3767 L41.8438 66.4392 Q42.5156 65.6111 43.5469 65.6111 Q44.125 65.6111 44.6328 65.8376 Q45.1406 66.0642 45.4766 66.4861 Q45.8125 66.9079 46 67.5017 Q46.1875 68.0954 46.1875 68.7673 Q46.1875 70.3611 45.3906 71.2361 Q44.5938 72.1111 43.5 72.1111 Q42.3906 72.1111 41.7656 71.1892 L41.7656 71.9704 ZM41.75 68.8142 Q41.75 69.9236 42.0625 70.4236 Q42.5625 71.2361 43.4062 71.2361 Q44.0938 71.2361 44.6016 70.6423 Q45.1094 70.0486 45.1094 68.8454 Q45.1094 67.6267 44.625 67.0486 Q44.1406 66.4704 43.4531 66.4704 Q42.7656 66.4704 42.2578 67.072 Q41.75 67.6736 41.75 68.8142 ZM47.7969 64.5954 L47.7969 63.3767 L48.8594 63.3767 L48.8594 64.5954 L47.7969 64.5954 ZM47.7969 71.9704 L47.7969 65.7517 L48.8594 65.7517 L48.8594 71.9704 L47.7969 71.9704 ZM50.7656 71.9704 L50.7656 63.3767 L51.8281 63.3767 L51.8281 71.9704 L50.7656 71.9704 ZM53.7656 71.9704 L53.7656 63.3767 L54.8281 63.3767 L54.8281 71.9704 L53.7656 71.9704 ZM61.0469 69.9704 L62.1406 70.0954 Q61.8906 71.0486 61.1875 71.5798 Q60.4844 72.1111 59.4062 72.1111 Q58.0469 72.1111 57.2422 71.2673 Q56.4375 70.4236 56.4375 68.9079 Q56.4375 67.3454 57.25 66.4782 Q58.0625 65.6111 59.3438 65.6111 Q60.5938 65.6111 61.3828 66.4548 Q62.1719 67.2986 62.1719 68.8454 Q62.1719 68.9392 62.1719 69.1267 L57.5312 69.1267 Q57.5938 70.1579 58.1094 70.697 Q58.625 71.2361 59.4062 71.2361 Q59.9844 71.2361 60.3984 70.9314 Q60.8125 70.6267 61.0469 69.9704 ZM57.5938 68.2673 L61.0625 68.2673 Q61 67.4704 60.6719 67.0798 Q60.1562 66.4704 59.3594 66.4704 Q58.625 66.4704 58.1328 66.9548 Q57.6406 67.4392 57.5938 68.2673 ZM63.7969 71.9704 L63.7969 65.7517 L64.7344 65.7517 L64.7344 66.6267 Q65.4219 65.6111 66.7188 65.6111 Q67.2812 65.6111 67.7578 65.8142 Q68.2344 66.0173 68.4688 66.3454 Q68.7031 66.6736 68.7969 67.1111 Q68.8438 67.4079 68.8438 68.1423 L68.8438 71.9704 L67.7969 71.9704 L67.7969 68.1892 Q67.7969 67.5329 67.6719 67.2204 Q67.5469 66.9079 67.2344 66.7126 Q66.9219 66.5173 66.5 66.5173 Q65.8281 66.5173 65.3359 66.947 Q64.8438 67.3767 64.8438 68.5642 L64.8438 71.9704 L63.7969 71.9704 ZM73.0938 71.0329 L73.25 71.9548 Q72.7969 72.0486 72.4531 72.0486 Q71.875 72.0486 71.5625 71.8689 Q71.25 71.6892 71.1172 71.3923 Q70.9844 71.0954 70.9844 70.1423 L70.9844 66.5642 L70.2188 66.5642 L70.2188 65.7517 L70.9844 65.7517 L70.9844 64.2048 L72.0312 63.5798 L72.0312 65.7517 L73.0938 65.7517 L73.0938 66.5642 L72.0312 66.5642 L72.0312 70.2048 Q72.0312 70.6579 72.0859 70.7829 Q72.1406 70.9079 72.2656 70.9861 Q72.3906 71.0642 72.625 71.0642 Q72.8125 71.0642 73.0938 71.0329 ZM73.7812 64.6111 L73.7812 63.3767 L74.8438 63.3767 L74.8438 64.6111 L73.7812 64.6111 ZM72.4531 74.3923 L72.6406 73.4861 Q72.9688 73.5642 73.1406 73.5642 Q73.4688 73.5642 73.625 73.3532 Q73.7812 73.1423 73.7812 72.2829 L73.7812 65.7517 L74.8438 65.7517 L74.8438 72.3142 Q74.8438 73.4548 74.5469 73.9079 Q74.1562 74.5017 73.2812 74.5017 Q72.8438 74.5017 72.4531 74.3923 ZM80.875 71.9704 L80.875 71.0486 Q80.1406 72.1111 78.8906 72.1111 Q78.3438 72.1111 77.8672 71.9001 Q77.3906 71.6892 77.1562 71.3689 Q76.9219 71.0486 76.8281 70.5798 Q76.7656 70.2829 76.7656 69.5954 L76.7656 65.7517 L77.8281 65.7517 L77.8281 69.2048 Q77.8281 70.0173 77.8906 70.3142 Q77.9844 70.7204 78.3047 70.9626 Q78.625 71.2048 79.1094 71.2048 Q79.5781 71.2048 79.9922 70.9626 Q80.4062 70.7204 80.5859 70.2986 Q80.7656 69.8767 80.7656 69.0798 L80.7656 65.7517 L81.8125 65.7517 L81.8125 71.9704 L80.875 71.9704 ZM77.3594 63.9704 L77.3594 62.7673 L78.4531 62.7673 L78.4531 63.9704 L77.3594 63.9704 ZM79.5469 63.9704 L79.5469 62.7673 L80.6406 62.7673 L80.6406 63.9704 L79.5469 63.9704 ZM83.7969 71.9704 L83.7969 63.3767 L84.8594 63.3767 L84.8594 68.2829 L87.3438 65.7517 L88.7188 65.7517 L86.3281 68.0486 L88.9531 71.9704 L87.6562 71.9704 L85.5938 68.7829 L84.8594 69.5017 L84.8594 71.9704 L83.7969 71.9704 ZM90.0938 71.9704 L90.0938 70.7673 L91.2969 70.7673 L91.2969 71.9704 L90.0938 71.9704 Z" style="clip-path:url(#clipPath11); stroke:none;" />
    </g>
    <g style="text-rendering:geometricPrecision; font-size:11; font-family:sans-serif;" transform="translate(122,34)">
      <text x="24" y="12" style="clip-path:url(#clipPath12); stroke:none;" xml:space="preserve">component :</text>
      <text x="6" y="27" style="clip-path:url(#clipPath12); stroke:none;" xml:space="preserve">AbstractComponent</text>
    </g>
    <g style="text-rendering:geometricPrecision; font-size:11; font-family:sans-serif;" transform="translate(12,34)">
      <text x="4" y="12" style="clip-path:url(#clipPath13); stroke:none;" xml:space="preserve">circuit : Circuit</text>
    </g>
    <g transform="translate(6,64)" style="font-size:11; stroke-linecap:butt; text-rendering:geometricPrecision; font-family:sans-serif; stroke-linejoin:round;">
      <line x1="50" x2="167" y1="50" style="clip-path:url(#clipPath14); fill:none;" y2="50" />
      <polygon style="clip-path:url(#clipPath14); stroke:none;" points=" 167 50 155 44 155 56" />
      <polygon style="fill:none; clip-path:url(#clipPath14);" points=" 167 50 155 44 155 56" />
    </g>
    <g transform="translate(6,294)" style="font-size:11; stroke-linecap:butt; text-rendering:geometricPrecision; font-family:sans-serif; stroke-linejoin:round; stroke-dasharray:8,3; stroke-miterlimit:0;">
      <line x1="167" x2="50" y1="50" style="clip-path:url(#clipPath14); fill:none;" y2="50" />
      <line x1="50" x2="62" y1="50" style="clip-path:url(#clipPath14); fill:none; stroke-dasharray:none; stroke-miterlimit:10;" y2="56" />
      <line x1="50" x2="62" y1="50" style="clip-path:url(#clipPath14); fill:none; stroke-dasharray:none; stroke-miterlimit:10;" y2="44" />
    </g>
    <g transform="translate(6,154)" style="font-size:11; stroke-linecap:butt; text-rendering:geometricPrecision; font-family:sans-serif; stroke-linejoin:round; stroke-dasharray:8,3; stroke-miterlimit:0;">
      <line x1="167" x2="50" y1="50" style="clip-path:url(#clipPath14); fill:none;" y2="50" />
      <line x1="50" x2="62" y1="50" style="clip-path:url(#clipPath14); fill:none; stroke-dasharray:none; stroke-miterlimit:10;" y2="56" />
      <line x1="50" x2="62" y1="50" style="clip-path:url(#clipPath14); fill:none; stroke-dasharray:none; stroke-miterlimit:10;" y2="44" />
    </g>
    <g transform="translate(131,234)" style="font-size:11; stroke-linecap:butt; text-rendering:geometricPrecision; font-family:sans-serif; stroke-linejoin:round; stroke-dasharray:4;">
      <line x1="80" x2="50" y1="50" style="clip-path:url(#clipPath15); fill:none;" y2="50" />
    </g>
    <g style="text-rendering:geometricPrecision; font-size:11; font-family:sans-serif;" transform="translate(82,184)">
      <text x="10" y="12" style="clip-path:url(#clipPath16); stroke:none;" xml:space="preserve">2: values</text>
    </g>
    <g style="text-rendering:geometricPrecision; font-size:11; font-family:sans-serif;" transform="translate(62,324)">
      <text x="10" y="12" style="clip-path:url(#clipPath17); stroke:none;" xml:space="preserve">3: values</text>
    </g>
    <g style="text-rendering:geometricPrecision; font-size:11; font-family:sans-serif;" transform="translate(72,94)">
      <text x="10" y="12" style="clip-path:url(#clipPath18); stroke:none;" xml:space="preserve">1: evaluate()</text>
    </g>
  </g>
</svg>
