<?xml version="1.0" encoding="UTF-8"?>

<!DOCTYPE svg PUBLIC '-//W3C//DTD SVG 1.0//EN' 'http://www.w3.org/TR/2001/REC-SVG-20010904/DTD/svg10.dtd'>
<svg style="fill-opacity:1; color-rendering:auto; color-interpolation:auto; stroke:black; text-rendering:auto; stroke-linecap:square; stroke-miterlimit:10; stroke-opacity:1; shape-rendering:auto; fill:black; stroke-dasharray:none; font-weight:normal; stroke-width:1; font-family:&apos;Dialog&apos;; font-style:normal; stroke-linejoin:miter; font-size:12; stroke-dashoffset:0; image-rendering:auto;" xmlns="http://www.w3.org/2000/svg" width="536" xmlns:xlink="http://www.w3.org/1999/xlink" height="538">
  <!--Generated by the Batik Graphics2D SVG Generator-->
  <defs id="genericDefs" />
  <g>
    <defs id="defs1">
      <clipPath clipPathUnits="userSpaceOnUse" id="clipPath1">
        <path d="M-3 -3 L87 -3 L87 497 L-3 497 L-3 -3 Z" />
      </clipPath>
      <clipPath clipPathUnits="userSpaceOnUse" id="clipPath2">
        <path d="M-3 -3 L87 -3 L87 457 L-3 457 L-3 -3 Z" />
      </clipPath>
      <clipPath clipPathUnits="userSpaceOnUse" id="clipPath3">
        <path d="M-3 -3 L15 -3 L15 414 L-3 414 L-3 -3 Z" />
      </clipPath>
      <clipPath clipPathUnits="userSpaceOnUse" id="clipPath4">
        <path d="M-3 -3 L15 -3 L15 338 L-3 338 L-3 -3 Z" />
      </clipPath>
      <clipPath clipPathUnits="userSpaceOnUse" id="clipPath5">
        <path d="M-3 -3 L147 -3 L147 347 L-3 347 L-3 -3 Z" />
      </clipPath>
      <clipPath clipPathUnits="userSpaceOnUse" id="clipPath6">
        <path d="M-3 -3 L337 -3 L337 107 L-3 107 L-3 -3 Z" />
      </clipPath>
      <clipPath clipPathUnits="userSpaceOnUse" id="clipPath7">
        <path d="M0 0 L33 0 L33 18 L0 18 L0 0 Z" />
      </clipPath>
      <clipPath clipPathUnits="userSpaceOnUse" id="clipPath8">
        <path d="M-3 -3 L127 -3 L127 97 L-3 97 L-3 -3 Z" />
      </clipPath>
      <clipPath clipPathUnits="userSpaceOnUse" id="clipPath9">
        <path d="M0 0 L0 90 L120 90 L120 0 Z" />
      </clipPath>
      <clipPath clipPathUnits="userSpaceOnUse" id="clipPath10">
        <path d="M-3 -3 L337 -3 L337 177 L-3 177 L-3 -3 Z" />
      </clipPath>
      <clipPath clipPathUnits="userSpaceOnUse" id="clipPath11">
        <path d="M-3 -3 L15 -3 L15 19 L-3 19 L-3 -3 Z" />
      </clipPath>
      <clipPath clipPathUnits="userSpaceOnUse" id="clipPath12">
        <path d="M-3 -3 L317 -3 L317 89 L-3 89 L-3 -3 Z" />
      </clipPath>
      <clipPath clipPathUnits="userSpaceOnUse" id="clipPath13">
        <path d="M0 0 L178 0 L178 15 L0 15 L0 0 Z" />
      </clipPath>
      <clipPath clipPathUnits="userSpaceOnUse" id="clipPath14">
        <path d="M0 0 L0 4 L310 4 L310 0 Z" />
      </clipPath>
      <clipPath clipPathUnits="userSpaceOnUse" id="clipPath15">
        <path d="M-3 -3 L337 -3 L337 159 L-3 159 L-3 -3 Z" />
      </clipPath>
      <clipPath clipPathUnits="userSpaceOnUse" id="clipPath16">
        <path d="M0 0 L132 0 L132 15 L0 15 L0 0 Z" />
      </clipPath>
      <clipPath clipPathUnits="userSpaceOnUse" id="clipPath17">
        <path d="M0 0 L0 4 L330 4 L330 0 Z" />
      </clipPath>
      <clipPath clipPathUnits="userSpaceOnUse" id="clipPath18">
        <path d="M-3 -3 L317 -3 L317 107 L-3 107 L-3 -3 Z" />
      </clipPath>
      <clipPath clipPathUnits="userSpaceOnUse" id="clipPath19">
        <path d="M-3 -3 L337 -3 L337 89 L-3 89 L-3 -3 Z" />
      </clipPath>
      <clipPath clipPathUnits="userSpaceOnUse" id="clipPath20">
        <path d="M-3 -3 L247 -3 L247 47 L-3 47 L-3 -3 Z" />
      </clipPath>
      <clipPath clipPathUnits="userSpaceOnUse" id="clipPath21">
        <path d="M0 0 L0 40 L240 40 L240 0 Z" />
      </clipPath>
      <clipPath clipPathUnits="userSpaceOnUse" id="clipPath22">
        <path d="M-3 -3 L127 -3 L127 47 L-3 47 L-3 -3 Z" />
      </clipPath>
      <clipPath clipPathUnits="userSpaceOnUse" id="clipPath23">
        <path d="M0 0 L0 40 L120 40 L120 0 Z" />
      </clipPath>
      <clipPath clipPathUnits="userSpaceOnUse" id="clipPath24">
        <path d="M-140 -30 L280 -30 L280 60 L-140 60 L-140 -30 Z" />
      </clipPath>
      <clipPath clipPathUnits="userSpaceOnUse" id="clipPath25">
        <path d="M-80 -15 L160 -15 L160 30 L-80 30 L-80 -15 Z" />
      </clipPath>
      <clipPath clipPathUnits="userSpaceOnUse" id="clipPath26">
        <path d="M-80 -30 L160 -30 L160 60 L-80 60 L-80 -30 Z" />
      </clipPath>
      <clipPath clipPathUnits="userSpaceOnUse" id="clipPath27">
        <path d="M0 0 L230 0 L230 104 L0 104 L0 0 Z" />
      </clipPath>
      <clipPath clipPathUnits="userSpaceOnUse" id="clipPath28">
        <path d="M0 0 L266 0 L266 104 L0 104 L0 0 Z" />
      </clipPath>
      <clipPath clipPathUnits="userSpaceOnUse" id="clipPath29">
        <path d="M0 0 L240 0 L240 104 L0 104 L0 0 Z" />
      </clipPath>
      <clipPath clipPathUnits="userSpaceOnUse" id="clipPath30">
        <path d="M0 0 L113 0 L113 104 L0 104 L0 0 Z" />
      </clipPath>
      <clipPath clipPathUnits="userSpaceOnUse" id="clipPath31">
        <path d="M0 0 L130 0 L130 124 L0 124 L0 0 Z" />
      </clipPath>
      <clipPath clipPathUnits="userSpaceOnUse" id="clipPath32">
        <path d="M0 0 L306 0 L306 104 L0 104 L0 0 Z" />
      </clipPath>
      <clipPath clipPathUnits="userSpaceOnUse" id="clipPath33">
        <path d="M0 0 L104 0 L104 173 L0 173 L0 0 Z" />
      </clipPath>
      <clipPath clipPathUnits="userSpaceOnUse" id="clipPath34">
        <path d="M-97 -15 L194 -15 L194 30 L-97 30 L-97 -15 Z" />
      </clipPath>
      <clipPath clipPathUnits="userSpaceOnUse" id="clipPath35">
        <path d="M-178 -15 L356 -15 L356 30 L-178 30 L-178 -15 Z" />
      </clipPath>
      <clipPath clipPathUnits="userSpaceOnUse" id="clipPath36">
        <path d="M-98 -15 L196 -15 L196 30 L-98 30 L-98 -15 Z" />
      </clipPath>
      <clipPath clipPathUnits="userSpaceOnUse" id="clipPath37">
        <path d="M-54 -15 L108 -15 L108 30 L-54 30 L-54 -15 Z" />
      </clipPath>
      <clipPath clipPathUnits="userSpaceOnUse" id="clipPath38">
        <path d="M-88 -15 L176 -15 L176 30 L-88 30 L-88 -15 Z" />
      </clipPath>
    </defs>
    <g style="fill:white; text-rendering:geometricPrecision; stroke:white;">
      <rect x="0" y="0" width="536" style="stroke:none;" height="538" />
      <rect x="8" y="38" transform="translate(-8,-38)" width="535" style="fill:none; stroke:black;" height="537" />
      <text x="15" y="55" transform="translate(-8,-38)" style="fill:black; stroke:none; font-weight:bold;" xml:space="preserve">sd</text>
      <text x="36" y="55" transform="translate(-8,-38)" style="fill:black; stroke:none;" xml:space="preserve">Inicializálás</text>
      <line transform="translate(-8,-38)" x1="8" x2="100" y1="62" style="fill:none; stroke:black;" y2="62" />
      <line transform="translate(-8,-38)" x1="106" x2="106" y1="38" style="fill:none; stroke:black;" y2="52" />
      <line transform="translate(-8,-38)" x1="106" x2="100" y1="52" style="fill:none; stroke:black;" y2="62" />
    </g>
    <g transform="translate(12,34)" style="font-size:11; fill:white; text-rendering:geometricPrecision; font-family:sans-serif; stroke:white;">
      <rect x="0" y="0" width="79" style="clip-path:url(#clipPath1); stroke:none;" height="35" />
    </g>
    <g transform="translate(12,34)" style="font-size:11; stroke-linecap:butt; text-rendering:geometricPrecision; font-family:sans-serif; stroke-linejoin:round; stroke-miterlimit:0;">
      <rect x="0" y="0" width="79" style="clip-path:url(#clipPath1); fill:none;" height="35" />
      <line x1="39" x2="39" y1="35" style="clip-path:url(#clipPath1); fill:none; stroke-linejoin:bevel; stroke-dasharray:8,3;" y2="490" />
    </g>
    <g transform="translate(182,74)" style="font-size:11; fill:white; text-rendering:geometricPrecision; font-family:sans-serif; stroke:white;">
      <rect x="0" y="0" width="79" style="clip-path:url(#clipPath2); stroke:none;" height="35" />
    </g>
    <g transform="translate(182,74)" style="font-size:11; stroke-linecap:butt; text-rendering:geometricPrecision; font-family:sans-serif; stroke-linejoin:round; stroke-miterlimit:0;">
      <rect x="0" y="0" width="79" style="clip-path:url(#clipPath2); fill:none;" height="35" />
      <line x1="39" x2="39" y1="35" style="clip-path:url(#clipPath2); fill:none; stroke-linejoin:bevel; stroke-dasharray:8,3;" y2="450" />
    </g>
    <g transform="translate(48,94)" style="font-size:11; fill:white; text-rendering:geometricPrecision; font-family:sans-serif; stroke:white;">
      <rect x="0" y="0" width="8" style="clip-path:url(#clipPath3); stroke:none;" height="407" />
    </g>
    <g transform="translate(48,94)" style="font-size:11; stroke-linecap:butt; text-rendering:geometricPrecision; font-family:sans-serif; stroke-linejoin:round; stroke-miterlimit:0;">
      <rect x="0" y="0" width="8" style="clip-path:url(#clipPath3); fill:none;" height="407" />
    </g>
    <g transform="translate(218,134)" style="font-size:11; fill:white; text-rendering:geometricPrecision; font-family:sans-serif; stroke:white;">
      <rect x="0" y="0" width="8" style="clip-path:url(#clipPath4); stroke:none;" height="331" />
    </g>
    <g transform="translate(218,134)" style="font-size:11; stroke-linecap:butt; text-rendering:geometricPrecision; font-family:sans-serif; stroke-linejoin:round; stroke-miterlimit:0;">
      <rect x="0" y="0" width="8" style="clip-path:url(#clipPath4); fill:none;" height="331" />
    </g>
    <g transform="translate(362,184)" style="font-size:11; fill:white; text-rendering:geometricPrecision; font-family:sans-serif; stroke:white;">
      <rect x="0" y="0" width="139" style="clip-path:url(#clipPath5); stroke:none;" height="35" />
    </g>
    <g transform="translate(362,184)" style="font-size:11; stroke-linecap:butt; text-rendering:geometricPrecision; font-family:sans-serif; stroke-linejoin:round; stroke-miterlimit:0;">
      <rect x="0" y="0" width="139" style="clip-path:url(#clipPath5); fill:none;" height="35" />
      <line x1="69" x2="69" y1="35" style="clip-path:url(#clipPath5); fill:none; stroke-linejoin:bevel; stroke-dasharray:8,3;" y2="340" />
    </g>
    <g transform="translate(192,164)" style="font-size:11; stroke-linecap:butt; text-rendering:geometricPrecision; font-family:sans-serif; stroke-linejoin:round; font-weight:bold; stroke-miterlimit:0;">
      <rect x="0" y="0" width="330" style="clip-path:url(#clipPath6); fill:none;" height="100" />
    </g>
    <g transform="translate(192,164)" style="font-size:11; fill:white; text-rendering:geometricPrecision; font-family:sans-serif; stroke:white; font-weight:bold;">
      <path d="M32 0 L32 9 L26 17 L0 17 L0 0 Z" style="clip-path:url(#clipPath6); stroke:none;" />
    </g>
    <g transform="translate(192,164)" style="font-size:11; stroke-linecap:butt; text-rendering:geometricPrecision; font-family:sans-serif; stroke-linejoin:round; font-weight:bold; stroke-miterlimit:0;">
      <path d="M32 0 L32 9 L26 17 L0 17 L0 0 Z" style="fill:none; clip-path:url(#clipPath6);" />
    </g>
    <g transform="translate(192,164)" style="text-rendering:geometricPrecision; font-size:11; font-weight:bold; font-family:sans-serif;">
      <text x="4" y="12" style="clip-path:url(#clipPath7); stroke:none;" xml:space="preserve">loop</text>
    </g>
    <g transform="translate(62,154)" style="font-size:11; fill:white; text-rendering:geometricPrecision; font-family:sans-serif; stroke:white;">
      <polygon style="clip-path:url(#clipPath8); stroke:none;" points=" 0 0 104 0 119 15 104 15 104 0 119 15 119 89 0 89" />
    </g>
    <g transform="translate(62,154)" style="font-size:11; stroke-linecap:butt; text-rendering:geometricPrecision; font-family:sans-serif; stroke-linejoin:round; stroke-miterlimit:0;">
      <polygon style="fill:none; clip-path:url(#clipPath8);" points=" 0 0 104 0 119 15 104 15 104 0 119 15 119 89 0 89" />
    </g>
    <g style="text-rendering:geometricPrecision; font-size:11; font-family:&apos;Tahoma&apos;;" transform="translate(62,154)">
      <path d="M3.875 14.9704 L3.875 6.3767 L5.0156 6.3767 L5.0156 13.9548 L9.25 13.9548 L9.25 14.9704 L3.875 14.9704 ZM15.0469 12.9704 L16.1406 13.0954 Q15.8906 14.0486 15.1875 14.5798 Q14.4844 15.1111 13.4062 15.1111 Q12.0469 15.1111 11.2422 14.2673 Q10.4375 13.4236 10.4375 11.9079 Q10.4375 10.3454 11.25 9.4782 Q12.0625 8.6111 13.3438 8.6111 Q14.5938 8.6111 15.3828 9.4548 Q16.1719 10.2986 16.1719 11.8454 Q16.1719 11.9392 16.1719 12.1267 L11.5312 12.1267 Q11.5938 13.1579 12.1094 13.697 Q12.625 14.2361 13.4062 14.2361 Q13.9844 14.2361 14.3984 13.9314 Q14.8125 13.6267 15.0469 12.9704 ZM11.5938 11.2673 L15.0625 11.2673 Q15 10.4704 14.6719 10.0798 Q14.1562 9.4704 13.3594 9.4704 Q12.625 9.4704 12.1328 9.9548 Q11.6406 10.4392 11.5938 11.2673 ZM12.125 6.9704 L12.9062 5.3298 L14.2969 5.3298 L13 6.9704 L12.125 6.9704 ZM20.0938 14.0329 L20.25 14.9548 Q19.7969 15.0486 19.4531 15.0486 Q18.875 15.0486 18.5625 14.8689 Q18.25 14.6892 18.1172 14.3923 Q17.9844 14.0954 17.9844 13.1423 L17.9844 9.5642 L17.2188 9.5642 L17.2188 8.7517 L17.9844 8.7517 L17.9844 7.2048 L19.0312 6.5798 L19.0312 8.7517 L20.0938 8.7517 L20.0938 9.5642 L19.0312 9.5642 L19.0312 13.2048 Q19.0312 13.6579 19.0859 13.7829 Q19.1406 13.9079 19.2656 13.9861 Q19.3906 14.0642 19.625 14.0642 Q19.8125 14.0642 20.0938 14.0329 ZM20.7812 14.9704 L20.7812 8.7517 L21.7344 8.7517 L21.7344 9.6892 Q22.0938 9.0329 22.3984 8.822 Q22.7031 8.6111 23.0781 8.6111 Q23.6094 8.6111 24.1562 8.9392 L23.7969 9.9236 Q23.4062 9.6892 23.0312 9.6892 Q22.6719 9.6892 22.3984 9.9001 Q22.125 10.1111 22.0156 10.4861 Q21.8281 11.0486 21.8281 11.7048 L21.8281 14.9704 L20.7812 14.9704 ZM29.0469 12.9704 L30.1406 13.0954 Q29.8906 14.0486 29.1875 14.5798 Q28.4844 15.1111 27.4062 15.1111 Q26.0469 15.1111 25.2422 14.2673 Q24.4375 13.4236 24.4375 11.9079 Q24.4375 10.3454 25.25 9.4782 Q26.0625 8.6111 27.3438 8.6111 Q28.5938 8.6111 29.3828 9.4548 Q30.1719 10.2986 30.1719 11.8454 Q30.1719 11.9392 30.1719 12.1267 L25.5312 12.1267 Q25.5938 13.1579 26.1094 13.697 Q26.625 14.2361 27.4062 14.2361 Q27.9844 14.2361 28.3984 13.9314 Q28.8125 13.6267 29.0469 12.9704 ZM25.5938 11.2673 L29.0625 11.2673 Q29 10.4704 28.6719 10.0798 Q28.1562 9.4704 27.3594 9.4704 Q26.625 9.4704 26.1328 9.9548 Q25.6406 10.4392 25.5938 11.2673 ZM31.7969 14.9704 L31.7969 6.3767 L32.8438 6.3767 L32.8438 9.4548 Q33.5781 8.6111 34.7031 8.6111 Q35.4062 8.6111 35.9141 8.8845 Q36.4219 9.1579 36.6406 9.6345 Q36.8594 10.1111 36.8594 11.0329 L36.8594 14.9704 L35.8125 14.9704 L35.8125 11.0329 Q35.8125 10.2361 35.4688 9.8767 Q35.125 9.5173 34.5 9.5173 Q34.0312 9.5173 33.6172 9.7595 Q33.2031 10.0017 33.0234 10.4157 Q32.8438 10.8298 32.8438 11.5642 L32.8438 14.9704 L31.7969 14.9704 ZM38.4062 11.8611 Q38.4062 10.1267 39.3594 9.2986 Q40.1562 8.6111 41.3125 8.6111 Q42.5938 8.6111 43.4141 9.447 Q44.2344 10.2829 44.2344 11.7673 Q44.2344 12.9704 43.875 13.6579 Q43.5156 14.3454 42.8203 14.7282 Q42.125 15.1111 41.3125 15.1111 Q40.0156 15.1111 39.2109 14.2751 Q38.4062 13.4392 38.4062 11.8611 ZM39.4844 11.8611 Q39.4844 13.0486 40.0078 13.6423 Q40.5312 14.2361 41.3125 14.2361 Q42.1094 14.2361 42.625 13.6423 Q43.1406 13.0486 43.1406 11.8298 Q43.1406 10.6736 42.6172 10.0798 Q42.0938 9.4861 41.3125 9.4861 Q40.5312 9.4861 40.0078 10.072 Q39.4844 10.6579 39.4844 11.8611 ZM45.2344 14.9704 L45.2344 14.1111 L49.2031 9.5642 Q48.5156 9.5954 48 9.5954 L45.4688 9.5954 L45.4688 8.7517 L50.5625 8.7517 L50.5625 9.4392 L47.1875 13.3923 L46.5312 14.1111 Q47.25 14.0642 47.8594 14.0642 L50.75 14.0642 L50.75 14.9704 L45.2344 14.9704 ZM50.2344 14.9704 L50.2344 14.1111 L54.2031 9.5642 Q53.5156 9.5954 53 9.5954 L50.4688 9.5954 L50.4688 8.7517 L55.5625 8.7517 L55.5625 9.4392 L52.1875 13.3923 L51.5312 14.1111 Q52.25 14.0642 52.8594 14.0642 L55.75 14.0642 L55.75 14.9704 L50.2344 14.9704 ZM59.875 14.9704 L59.875 14.0486 Q59.1406 15.1111 57.8906 15.1111 Q57.3438 15.1111 56.8672 14.9001 Q56.3906 14.6892 56.1562 14.3689 Q55.9219 14.0486 55.8281 13.5798 Q55.7656 13.2829 55.7656 12.5954 L55.7656 8.7517 L56.8281 8.7517 L56.8281 12.2048 Q56.8281 13.0173 56.8906 13.3142 Q56.9844 13.7204 57.3047 13.9626 Q57.625 14.2048 58.1094 14.2048 Q58.5781 14.2048 58.9922 13.9626 Q59.4062 13.7204 59.5859 13.2986 Q59.7656 12.8767 59.7656 12.0798 L59.7656 8.7517 L60.8125 8.7517 L60.8125 14.9704 L59.875 14.9704 ZM62.7969 14.9704 L62.7969 6.3767 L63.8594 6.3767 L63.8594 11.2829 L66.3438 8.7517 L67.7188 8.7517 L65.3281 11.0486 L67.9531 14.9704 L66.6562 14.9704 L64.5938 11.7829 L63.8594 12.5017 L63.8594 14.9704 L62.7969 14.9704 ZM75.8594 14.2048 Q75.2656 14.7048 74.7266 14.9079 Q74.1875 15.1111 73.5625 15.1111 Q72.5312 15.1111 71.9844 14.6111 Q71.4375 14.1111 71.4375 13.3298 Q71.4375 12.8767 71.6406 12.4939 Q71.8438 12.1111 72.1875 11.8845 Q72.5312 11.6579 72.9531 11.5486 Q73.25 11.4548 73.8906 11.3767 Q75.1562 11.2361 75.7656 11.0173 Q75.7656 10.7986 75.7656 10.7517 Q75.7656 10.0954 75.4688 9.8298 Q75.0625 9.4861 74.2656 9.4861 Q73.5312 9.4861 73.1719 9.7439 Q72.8125 10.0017 72.6406 10.6579 L71.6094 10.5173 Q71.75 9.8611 72.0781 9.4548 Q72.4062 9.0486 73.0156 8.8298 Q73.625 8.6111 74.4219 8.6111 Q75.2188 8.6111 75.7188 8.7986 Q76.2188 8.9861 76.4531 9.2673 Q76.6875 9.5486 76.7812 9.9861 Q76.8281 10.2517 76.8281 10.9548 L76.8281 12.3611 Q76.8281 13.8298 76.8984 14.2204 Q76.9688 14.6111 77.1719 14.9704 L76.0625 14.9704 Q75.9062 14.6423 75.8594 14.2048 ZM75.7656 11.8454 Q75.1875 12.0798 74.0469 12.2517 Q73.3906 12.3454 73.125 12.4626 Q72.8594 12.5798 72.7109 12.7986 Q72.5625 13.0173 72.5625 13.2986 Q72.5625 13.7204 72.8828 14.0017 Q73.2031 14.2829 73.8125 14.2829 Q74.4219 14.2829 74.8984 14.0173 Q75.375 13.7517 75.5938 13.2829 Q75.7656 12.9236 75.7656 12.2361 L75.7656 11.8454 ZM78.2344 14.9704 L78.2344 14.1111 L82.2031 9.5642 Q81.5156 9.5954 81 9.5954 L78.4688 9.5954 L78.4688 8.7517 L83.5625 8.7517 L83.5625 9.4392 L80.1875 13.3923 L79.5312 14.1111 Q80.25 14.0642 80.8594 14.0642 L83.75 14.0642 L83.75 14.9704 L78.2344 14.9704 Z" style="clip-path:url(#clipPath9); stroke:none;" />
      <path d="M7.8594 28.2048 Q7.2656 28.7048 6.7266 28.9079 Q6.1875 29.1111 5.5625 29.1111 Q4.5312 29.1111 3.9844 28.6111 Q3.4375 28.1111 3.4375 27.3298 Q3.4375 26.8767 3.6406 26.4939 Q3.8438 26.1111 4.1875 25.8845 Q4.5312 25.6579 4.9531 25.5486 Q5.25 25.4548 5.8906 25.3767 Q7.1562 25.2361 7.7656 25.0173 Q7.7656 24.7986 7.7656 24.7517 Q7.7656 24.0954 7.4688 23.8298 Q7.0625 23.4861 6.2656 23.4861 Q5.5312 23.4861 5.1719 23.7439 Q4.8125 24.0017 4.6406 24.6579 L3.6094 24.5173 Q3.75 23.8611 4.0781 23.4548 Q4.4062 23.0486 5.0156 22.8298 Q5.625 22.6111 6.4219 22.6111 Q7.2188 22.6111 7.7188 22.7986 Q8.2188 22.9861 8.4531 23.2673 Q8.6875 23.5486 8.7812 23.9861 Q8.8281 24.2517 8.8281 24.9548 L8.8281 26.3611 Q8.8281 27.8298 8.8984 28.2204 Q8.9688 28.6111 9.1719 28.9704 L8.0625 28.9704 Q7.9062 28.6423 7.8594 28.2048 ZM7.7656 25.8454 Q7.1875 26.0798 6.0469 26.2517 Q5.3906 26.3454 5.125 26.4626 Q4.8594 26.5798 4.7109 26.7986 Q4.5625 27.0173 4.5625 27.2986 Q4.5625 27.7204 4.8828 28.0017 Q5.2031 28.2829 5.8125 28.2829 Q6.4219 28.2829 6.8984 28.0173 Q7.375 27.7517 7.5938 27.2829 Q7.7656 26.9236 7.7656 26.2361 L7.7656 25.8454 ZM5.125 20.9704 L5.9062 19.3298 L7.2969 19.3298 L6 20.9704 L5.125 20.9704 ZM10.7812 28.9704 L10.7812 22.7517 L11.7344 22.7517 L11.7344 23.6892 Q12.0938 23.0329 12.3984 22.822 Q12.7031 22.6111 13.0781 22.6111 Q13.6094 22.6111 14.1562 22.9392 L13.7969 23.9236 Q13.4062 23.6892 13.0312 23.6892 Q12.6719 23.6892 12.3984 23.9001 Q12.125 24.1111 12.0156 24.4861 Q11.8281 25.0486 11.8281 25.7048 L11.8281 28.9704 L10.7812 28.9704 ZM18.8594 28.2048 Q18.2656 28.7048 17.7266 28.9079 Q17.1875 29.1111 16.5625 29.1111 Q15.5312 29.1111 14.9844 28.6111 Q14.4375 28.1111 14.4375 27.3298 Q14.4375 26.8767 14.6406 26.4939 Q14.8438 26.1111 15.1875 25.8845 Q15.5312 25.6579 15.9531 25.5486 Q16.25 25.4548 16.8906 25.3767 Q18.1562 25.2361 18.7656 25.0173 Q18.7656 24.7986 18.7656 24.7517 Q18.7656 24.0954 18.4688 23.8298 Q18.0625 23.4861 17.2656 23.4861 Q16.5312 23.4861 16.1719 23.7439 Q15.8125 24.0017 15.6406 24.6579 L14.6094 24.5173 Q14.75 23.8611 15.0781 23.4548 Q15.4062 23.0486 16.0156 22.8298 Q16.625 22.6111 17.4219 22.6111 Q18.2188 22.6111 18.7188 22.7986 Q19.2188 22.9861 19.4531 23.2673 Q19.6875 23.5486 19.7812 23.9861 Q19.8281 24.2517 19.8281 24.9548 L19.8281 26.3611 Q19.8281 27.8298 19.8984 28.2204 Q19.9688 28.6111 20.1719 28.9704 L19.0625 28.9704 Q18.9062 28.6423 18.8594 28.2048 ZM18.7656 25.8454 Q18.1875 26.0798 17.0469 26.2517 Q16.3906 26.3454 16.125 26.4626 Q15.8594 26.5798 15.7109 26.7986 Q15.5625 27.0173 15.5625 27.2986 Q15.5625 27.7204 15.8828 28.0017 Q16.2031 28.2829 16.8125 28.2829 Q17.4219 28.2829 17.8984 28.0173 Q18.375 27.7517 18.5938 27.2829 Q18.7656 26.9236 18.7656 26.2361 L18.7656 25.8454 ZM21.7969 28.9704 L21.7969 22.7517 L22.7344 22.7517 L22.7344 23.6267 Q23.0312 23.1579 23.5156 22.8845 Q24 22.6111 24.625 22.6111 Q25.3125 22.6111 25.7578 22.8923 Q26.2031 23.1736 26.375 23.6892 Q27.125 22.6111 28.2969 22.6111 Q29.2344 22.6111 29.7266 23.1189 Q30.2188 23.6267 30.2188 24.7048 L30.2188 28.9704 L29.1719 28.9704 L29.1719 25.0486 Q29.1719 24.4236 29.0703 24.1423 Q28.9688 23.8611 28.7031 23.6892 Q28.4375 23.5173 28.0625 23.5173 Q27.4062 23.5173 26.9766 23.9548 Q26.5469 24.3923 26.5469 25.3611 L26.5469 28.9704 L25.4844 28.9704 L25.4844 24.9236 Q25.4844 24.2204 25.2266 23.8689 Q24.9688 23.5173 24.3906 23.5173 Q23.9375 23.5173 23.5625 23.7517 Q23.1875 23.9861 23.0156 24.4392 Q22.8438 24.8923 22.8438 25.7361 L22.8438 28.9704 L21.7969 28.9704 ZM32.7969 28.9704 L32.7969 20.3767 L33.8594 20.3767 L33.8594 25.2829 L36.3438 22.7517 L37.7188 22.7517 L35.3281 25.0486 L37.9531 28.9704 L36.6562 28.9704 L34.5938 25.7829 L33.8594 26.5017 L33.8594 28.9704 L32.7969 28.9704 ZM38.4062 25.8611 Q38.4062 24.1267 39.3594 23.2986 Q40.1562 22.6111 41.3125 22.6111 Q42.5938 22.6111 43.4141 23.447 Q44.2344 24.2829 44.2344 25.7673 Q44.2344 26.9704 43.875 27.6579 Q43.5156 28.3454 42.8203 28.7282 Q42.125 29.1111 41.3125 29.1111 Q40.0156 29.1111 39.2109 28.2751 Q38.4062 27.4392 38.4062 25.8611 ZM39.4844 25.8611 Q39.4844 27.0486 40.0078 27.6423 Q40.5312 28.2361 41.3125 28.2361 Q42.1094 28.2361 42.625 27.6423 Q43.1406 27.0486 43.1406 25.8298 Q43.1406 24.6736 42.6172 24.0798 Q42.0938 23.4861 41.3125 23.4861 Q40.5312 23.4861 40.0078 24.072 Q39.4844 24.6579 39.4844 25.8611 ZM39.8125 20.9704 L39.8125 19.7673 L40.9062 19.7673 L40.9062 20.9704 L39.8125 20.9704 ZM42 20.9704 L42 19.7673 L43.0938 19.7673 L43.0938 20.9704 L42 20.9704 ZM45.7812 28.9704 L45.7812 22.7517 L46.7344 22.7517 L46.7344 23.6892 Q47.0938 23.0329 47.3984 22.822 Q47.7031 22.6111 48.0781 22.6111 Q48.6094 22.6111 49.1562 22.9392 L48.7969 23.9236 Q48.4062 23.6892 48.0312 23.6892 Q47.6719 23.6892 47.3984 23.9001 Q47.125 24.1111 47.0156 24.4861 Q46.8281 25.0486 46.8281 25.7048 L46.8281 28.9704 L45.7812 28.9704 ZM50.7656 28.9704 L49.7812 28.9704 L49.7812 20.3767 L50.8438 20.3767 L50.8438 23.4392 Q51.5156 22.6111 52.5469 22.6111 Q53.125 22.6111 53.6328 22.8376 Q54.1406 23.0642 54.4766 23.4861 Q54.8125 23.9079 55 24.5017 Q55.1875 25.0954 55.1875 25.7673 Q55.1875 27.3611 54.3906 28.2361 Q53.5938 29.1111 52.5 29.1111 Q51.3906 29.1111 50.7656 28.1892 L50.7656 28.9704 ZM50.75 25.8142 Q50.75 26.9236 51.0625 27.4236 Q51.5625 28.2361 52.4062 28.2361 Q53.0938 28.2361 53.6016 27.6423 Q54.1094 27.0486 54.1094 25.8454 Q54.1094 24.6267 53.625 24.0486 Q53.1406 23.4704 52.4531 23.4704 Q51.7656 23.4704 51.2578 24.072 Q50.75 24.6736 50.75 25.8142 ZM61.0469 26.9704 L62.1406 27.0954 Q61.8906 28.0486 61.1875 28.5798 Q60.4844 29.1111 59.4062 29.1111 Q58.0469 29.1111 57.2422 28.2673 Q56.4375 27.4236 56.4375 25.9079 Q56.4375 24.3454 57.25 23.4782 Q58.0625 22.6111 59.3438 22.6111 Q60.5938 22.6111 61.3828 23.4548 Q62.1719 24.2986 62.1719 25.8454 Q62.1719 25.9392 62.1719 26.1267 L57.5312 26.1267 Q57.5938 27.1579 58.1094 27.697 Q58.625 28.2361 59.4062 28.2361 Q59.9844 28.2361 60.3984 27.9314 Q60.8125 27.6267 61.0469 26.9704 ZM57.5938 25.2673 L61.0625 25.2673 Q61 24.4704 60.6719 24.0798 Q60.1562 23.4704 59.3594 23.4704 Q58.625 23.4704 58.1328 23.9548 Q57.6406 24.4392 57.5938 25.2673 ZM63.7969 28.9704 L63.7969 22.7517 L64.7344 22.7517 L64.7344 23.6267 Q65.4219 22.6111 66.7188 22.6111 Q67.2812 22.6111 67.7578 22.8142 Q68.2344 23.0173 68.4688 23.3454 Q68.7031 23.6736 68.7969 24.1111 Q68.8438 24.4079 68.8438 25.1423 L68.8438 28.9704 L67.7969 28.9704 L67.7969 25.1892 Q67.7969 24.5329 67.6719 24.2204 Q67.5469 23.9079 67.2344 23.7126 Q66.9219 23.5173 66.5 23.5173 Q65.8281 23.5173 65.3359 23.947 Q64.8438 24.3767 64.8438 25.5642 L64.8438 28.9704 L63.7969 28.9704 ZM73.7656 28.9704 L73.7656 20.3767 L74.8281 20.3767 L74.8281 28.9704 L73.7656 28.9704 ZM81.0469 26.9704 L82.1406 27.0954 Q81.8906 28.0486 81.1875 28.5798 Q80.4844 29.1111 79.4062 29.1111 Q78.0469 29.1111 77.2422 28.2673 Q76.4375 27.4236 76.4375 25.9079 Q76.4375 24.3454 77.25 23.4782 Q78.0625 22.6111 79.3438 22.6111 Q80.5938 22.6111 81.3828 23.4548 Q82.1719 24.2986 82.1719 25.8454 Q82.1719 25.9392 82.1719 26.1267 L77.5312 26.1267 Q77.5938 27.1579 78.1094 27.697 Q78.625 28.2361 79.4062 28.2361 Q79.9844 28.2361 80.3984 27.9314 Q80.8125 27.6267 81.0469 26.9704 ZM77.5938 25.2673 L81.0625 25.2673 Q81 24.4704 80.6719 24.0798 Q80.1562 23.4704 79.3594 23.4704 Q78.625 23.4704 78.1328 23.9548 Q77.6406 24.4392 77.5938 25.2673 ZM78.125 20.9704 L78.9062 19.3298 L80.2969 19.3298 L79 20.9704 L78.125 20.9704 ZM85.5156 28.9704 L83.1562 22.7517 L84.2656 22.7517 L85.6094 26.4704 Q85.8125 27.0798 86 27.7204 Q86.1406 27.2361 86.3906 26.5486 L87.7812 22.7517 L88.8594 22.7517 L86.5 28.9704 L85.5156 28.9704 ZM88.4062 25.8611 Q88.4062 24.1267 89.3594 23.2986 Q90.1562 22.6111 91.3125 22.6111 Q92.5938 22.6111 93.4141 23.447 Q94.2344 24.2829 94.2344 25.7673 Q94.2344 26.9704 93.875 27.6579 Q93.5156 28.3454 92.8203 28.7282 Q92.125 29.1111 91.3125 29.1111 Q90.0156 29.1111 89.2109 28.2751 Q88.4062 27.4392 88.4062 25.8611 ZM89.4844 25.8611 Q89.4844 27.0486 90.0078 27.6423 Q90.5312 28.2361 91.3125 28.2361 Q92.1094 28.2361 92.625 27.6423 Q93.1406 27.0486 93.1406 25.8298 Q93.1406 24.6736 92.6172 24.0798 Q92.0938 23.4861 91.3125 23.4861 Q90.5312 23.4861 90.0078 24.072 Q89.4844 24.6579 89.4844 25.8611 ZM89.9688 20.9704 L90.6719 19.3298 L92.0469 19.3298 L90.8125 20.9704 L89.9688 20.9704 ZM92 20.9704 L92.75 19.3298 L94.0938 19.3298 L92.8906 20.9704 L92 20.9704 Z" style="clip-path:url(#clipPath9); stroke:none;" />
      <path d="M3.7969 42.9704 L3.7969 34.3767 L4.8594 34.3767 L4.8594 39.2829 L7.3438 36.7517 L8.7188 36.7517 L6.3281 39.0486 L8.9531 42.9704 L7.6562 42.9704 L5.5938 39.7829 L4.8594 40.5017 L4.8594 42.9704 L3.7969 42.9704 ZM9.4062 39.8611 Q9.4062 38.1267 10.3594 37.2986 Q11.1562 36.6111 12.3125 36.6111 Q13.5938 36.6111 14.4141 37.447 Q15.2344 38.2829 15.2344 39.7673 Q15.2344 40.9704 14.875 41.6579 Q14.5156 42.3454 13.8203 42.7282 Q13.125 43.1111 12.3125 43.1111 Q11.0156 43.1111 10.2109 42.2751 Q9.4062 41.4392 9.4062 39.8611 ZM10.4844 39.8611 Q10.4844 41.0486 11.0078 41.6423 Q11.5312 42.2361 12.3125 42.2361 Q13.1094 42.2361 13.625 41.6423 Q14.1406 41.0486 14.1406 39.8298 Q14.1406 38.6736 13.6172 38.0798 Q13.0938 37.4861 12.3125 37.4861 Q11.5312 37.4861 11.0078 38.072 Q10.4844 38.6579 10.4844 39.8611 ZM16.7969 42.9704 L16.7969 36.7517 L17.7344 36.7517 L17.7344 37.6267 Q18.0312 37.1579 18.5156 36.8845 Q19 36.6111 19.625 36.6111 Q20.3125 36.6111 20.7578 36.8923 Q21.2031 37.1736 21.375 37.6892 Q22.125 36.6111 23.2969 36.6111 Q24.2344 36.6111 24.7266 37.1189 Q25.2188 37.6267 25.2188 38.7048 L25.2188 42.9704 L24.1719 42.9704 L24.1719 39.0486 Q24.1719 38.4236 24.0703 38.1423 Q23.9688 37.8611 23.7031 37.6892 Q23.4375 37.5173 23.0625 37.5173 Q22.4062 37.5173 21.9766 37.9548 Q21.5469 38.3923 21.5469 39.3611 L21.5469 42.9704 L20.4844 42.9704 L20.4844 38.9236 Q20.4844 38.2204 20.2266 37.8689 Q19.9688 37.5173 19.3906 37.5173 Q18.9375 37.5173 18.5625 37.7517 Q18.1875 37.9861 18.0156 38.4392 Q17.8438 38.8923 17.8438 39.7361 L17.8438 42.9704 L16.7969 42.9704 ZM27.7969 45.3611 L27.7969 36.7517 L28.75 36.7517 L28.75 37.5486 Q29.0938 37.0798 29.5234 36.8454 Q29.9531 36.6111 30.5625 36.6111 Q31.3594 36.6111 31.9688 37.0173 Q32.5781 37.4236 32.8828 38.1736 Q33.1875 38.9236 33.1875 39.8142 Q33.1875 40.7673 32.8516 41.5329 Q32.5156 42.2986 31.8594 42.7048 Q31.2031 43.1111 30.4844 43.1111 Q29.9531 43.1111 29.5312 42.8845 Q29.1094 42.6579 28.8438 42.3298 L28.8438 45.3611 L27.7969 45.3611 ZM28.75 39.8923 Q28.75 41.0954 29.2344 41.6657 Q29.7188 42.2361 30.4062 42.2361 Q31.1094 42.2361 31.6094 41.6423 Q32.1094 41.0486 32.1094 39.7986 Q32.1094 38.6111 31.625 38.0251 Q31.1406 37.4392 30.4531 37.4392 Q29.7812 37.4392 29.2656 38.0642 Q28.75 38.6892 28.75 39.8923 ZM34.4062 39.8611 Q34.4062 38.1267 35.3594 37.2986 Q36.1562 36.6111 37.3125 36.6111 Q38.5938 36.6111 39.4141 37.447 Q40.2344 38.2829 40.2344 39.7673 Q40.2344 40.9704 39.875 41.6579 Q39.5156 42.3454 38.8203 42.7282 Q38.125 43.1111 37.3125 43.1111 Q36.0156 43.1111 35.2109 42.2751 Q34.4062 41.4392 34.4062 39.8611 ZM35.4844 39.8611 Q35.4844 41.0486 36.0078 41.6423 Q36.5312 42.2361 37.3125 42.2361 Q38.1094 42.2361 38.625 41.6423 Q39.1406 41.0486 39.1406 39.8298 Q39.1406 38.6736 38.6172 38.0798 Q38.0938 37.4861 37.3125 37.4861 Q36.5312 37.4861 36.0078 38.072 Q35.4844 38.6579 35.4844 39.8611 ZM41.7969 42.9704 L41.7969 36.7517 L42.7344 36.7517 L42.7344 37.6267 Q43.4219 36.6111 44.7188 36.6111 Q45.2812 36.6111 45.7578 36.8142 Q46.2344 37.0173 46.4688 37.3454 Q46.7031 37.6736 46.7969 38.1111 Q46.8438 38.4079 46.8438 39.1423 L46.8438 42.9704 L45.7969 42.9704 L45.7969 39.1892 Q45.7969 38.5329 45.6719 38.2204 Q45.5469 37.9079 45.2344 37.7126 Q44.9219 37.5173 44.5 37.5173 Q43.8281 37.5173 43.3359 37.947 Q42.8438 38.3767 42.8438 39.5642 L42.8438 42.9704 L41.7969 42.9704 ZM53.0469 40.9704 L54.1406 41.0954 Q53.8906 42.0486 53.1875 42.5798 Q52.4844 43.1111 51.4062 43.1111 Q50.0469 43.1111 49.2422 42.2673 Q48.4375 41.4236 48.4375 39.9079 Q48.4375 38.3454 49.25 37.4782 Q50.0625 36.6111 51.3438 36.6111 Q52.5938 36.6111 53.3828 37.4548 Q54.1719 38.2986 54.1719 39.8454 Q54.1719 39.9392 54.1719 40.1267 L49.5312 40.1267 Q49.5938 41.1579 50.1094 41.697 Q50.625 42.2361 51.4062 42.2361 Q51.9844 42.2361 52.3984 41.9314 Q52.8125 41.6267 53.0469 40.9704 ZM49.5938 39.2673 L53.0625 39.2673 Q53 38.4704 52.6719 38.0798 Q52.1562 37.4704 51.3594 37.4704 Q50.625 37.4704 50.1328 37.9548 Q49.6406 38.4392 49.5938 39.2673 ZM55.7969 42.9704 L55.7969 36.7517 L56.7344 36.7517 L56.7344 37.6267 Q57.4219 36.6111 58.7188 36.6111 Q59.2812 36.6111 59.7578 36.8142 Q60.2344 37.0173 60.4688 37.3454 Q60.7031 37.6736 60.7969 38.1111 Q60.8438 38.4079 60.8438 39.1423 L60.8438 42.9704 L59.7969 42.9704 L59.7969 39.1892 Q59.7969 38.5329 59.6719 38.2204 Q59.5469 37.9079 59.2344 37.7126 Q58.9219 37.5173 58.5 37.5173 Q57.8281 37.5173 57.3359 37.947 Q56.8438 38.3767 56.8438 39.5642 L56.8438 42.9704 L55.7969 42.9704 ZM62.375 41.1111 L63.4062 40.9548 Q63.5 41.5798 63.8984 41.9079 Q64.2969 42.2361 65.0312 42.2361 Q65.75 42.2361 66.1016 41.947 Q66.4531 41.6579 66.4531 41.2517 Q66.4531 40.8923 66.1406 40.6892 Q65.9219 40.5486 65.0625 40.3298 Q63.9062 40.0329 63.4609 39.822 Q63.0156 39.6111 62.7812 39.2361 Q62.5469 38.8611 62.5469 38.3923 Q62.5469 37.9861 62.7344 37.6267 Q62.9219 37.2673 63.25 37.0329 Q63.5 36.8611 63.9219 36.7361 Q64.3438 36.6111 64.8438 36.6111 Q65.5625 36.6111 66.1172 36.822 Q66.6719 37.0329 66.9375 37.3923 Q67.2031 37.7517 67.2969 38.3454 L66.2656 38.4861 Q66.2031 38.0173 65.8672 37.7439 Q65.5312 37.4704 64.9062 37.4704 Q64.1875 37.4704 63.875 37.7126 Q63.5625 37.9548 63.5625 38.2829 Q63.5625 38.4861 63.6875 38.6423 Q63.8281 38.8142 64.0938 38.9236 Q64.25 38.9861 65.0312 39.1892 Q66.1562 39.5017 66.5938 39.6892 Q67.0312 39.8767 67.2812 40.2361 Q67.5312 40.5954 67.5312 41.1423 Q67.5312 41.6736 67.2266 42.1345 Q66.9219 42.5954 66.3438 42.8532 Q65.7656 43.1111 65.0312 43.1111 Q63.8125 43.1111 63.1797 42.6032 Q62.5469 42.0954 62.375 41.1111 ZM74.0469 40.9704 L75.1406 41.0954 Q74.8906 42.0486 74.1875 42.5798 Q73.4844 43.1111 72.4062 43.1111 Q71.0469 43.1111 70.2422 42.2673 Q69.4375 41.4236 69.4375 39.9079 Q69.4375 38.3454 70.25 37.4782 Q71.0625 36.6111 72.3438 36.6111 Q73.5938 36.6111 74.3828 37.4548 Q75.1719 38.2986 75.1719 39.8454 Q75.1719 39.9392 75.1719 40.1267 L70.5312 40.1267 Q70.5938 41.1579 71.1094 41.697 Q71.625 42.2361 72.4062 42.2361 Q72.9844 42.2361 73.3984 41.9314 Q73.8125 41.6267 74.0469 40.9704 ZM70.5938 39.2673 L74.0625 39.2673 Q74 38.4704 73.6719 38.0798 Q73.1562 37.4704 72.3594 37.4704 Q71.625 37.4704 71.1328 37.9548 Q70.6406 38.4392 70.5938 39.2673 ZM76.7969 42.9704 L76.7969 34.3767 L77.8594 34.3767 L77.8594 39.2829 L80.3438 36.7517 L81.7188 36.7517 L79.3281 39.0486 L81.9531 42.9704 L80.6562 42.9704 L78.5938 39.7829 L77.8594 40.5017 L77.8594 42.9704 L76.7969 42.9704 ZM87.0469 40.9704 L88.1406 41.0954 Q87.8906 42.0486 87.1875 42.5798 Q86.4844 43.1111 85.4062 43.1111 Q84.0469 43.1111 83.2422 42.2673 Q82.4375 41.4236 82.4375 39.9079 Q82.4375 38.3454 83.25 37.4782 Q84.0625 36.6111 85.3438 36.6111 Q86.5938 36.6111 87.3828 37.4548 Q88.1719 38.2986 88.1719 39.8454 Q88.1719 39.9392 88.1719 40.1267 L83.5312 40.1267 Q83.5938 41.1579 84.1094 41.697 Q84.625 42.2361 85.4062 42.2361 Q85.9844 42.2361 86.3984 41.9314 Q86.8125 41.6267 87.0469 40.9704 ZM83.5938 39.2673 L87.0625 39.2673 Q87 38.4704 86.6719 38.0798 Q86.1562 37.4704 85.3594 37.4704 Q84.625 37.4704 84.1328 37.9548 Q83.6406 38.4392 83.5938 39.2673 ZM92.0938 42.0329 L92.25 42.9548 Q91.7969 43.0486 91.4531 43.0486 Q90.875 43.0486 90.5625 42.8689 Q90.25 42.6892 90.1172 42.3923 Q89.9844 42.0954 89.9844 41.1423 L89.9844 37.5642 L89.2188 37.5642 L89.2188 36.7517 L89.9844 36.7517 L89.9844 35.2048 L91.0312 34.5798 L91.0312 36.7517 L92.0938 36.7517 L92.0938 37.5642 L91.0312 37.5642 L91.0312 41.2048 Q91.0312 41.6579 91.0859 41.7829 Q91.1406 41.9079 91.2656 41.9861 Q91.3906 42.0642 91.625 42.0642 Q91.8125 42.0642 92.0938 42.0329 Z" style="clip-path:url(#clipPath9); stroke:none;" />
    </g>
    <g transform="translate(192,284)" style="font-size:11; stroke-linecap:butt; text-rendering:geometricPrecision; font-family:sans-serif; stroke-linejoin:round; font-weight:bold; stroke-miterlimit:0;">
      <rect x="0" y="0" width="330" style="clip-path:url(#clipPath10); fill:none;" height="170" />
    </g>
    <g transform="translate(192,284)" style="font-size:11; fill:white; text-rendering:geometricPrecision; font-family:sans-serif; stroke:white; font-weight:bold;">
      <path d="M32 0 L32 9 L26 17 L0 17 L0 0 Z" style="clip-path:url(#clipPath10); stroke:none;" />
    </g>
    <g transform="translate(192,284)" style="font-size:11; stroke-linecap:butt; text-rendering:geometricPrecision; font-family:sans-serif; stroke-linejoin:round; font-weight:bold; stroke-miterlimit:0;">
      <path d="M32 0 L32 9 L26 17 L0 17 L0 0 Z" style="fill:none; clip-path:url(#clipPath10);" />
    </g>
    <g transform="translate(192,284)" style="text-rendering:geometricPrecision; font-size:11; font-weight:bold; font-family:sans-serif;">
      <text x="4" y="12" style="clip-path:url(#clipPath7); stroke:none;" xml:space="preserve">loop</text>
    </g>
    <g transform="translate(428,404)" style="font-size:11; fill:white; text-rendering:geometricPrecision; font-family:sans-serif; stroke:white;">
      <rect x="0" y="0" width="8" style="clip-path:url(#clipPath11); stroke:none;" height="12" />
    </g>
    <g transform="translate(428,404)" style="font-size:11; stroke-linecap:butt; text-rendering:geometricPrecision; font-family:sans-serif; stroke-linejoin:round; stroke-miterlimit:0;">
      <rect x="0" y="0" width="8" style="clip-path:url(#clipPath11); fill:none;" height="12" />
    </g>
    <g transform="translate(202,352)" style="font-size:11; fill:white; text-rendering:geometricPrecision; font-family:sans-serif; stroke:white;">
      <rect x="28" y="5" width="178" style="clip-path:url(#clipPath12); stroke:none;" height="15" />
    </g>
    <g style="text-rendering:geometricPrecision; font-size:11; font-family:sans-serif;" transform="translate(230,357)">
      <text x="13" y="12" style="clip-path:url(#clipPath13); stroke:none;" xml:space="preserve">[komponens minden bementére]</text>
    </g>
    <g transform="translate(192,302)" style="font-size:11; fill:white; text-rendering:geometricPrecision; font-family:sans-serif; stroke:white;">
      <rect x="28" y="5" width="132" style="clip-path:url(#clipPath15); stroke:none;" height="15" />
    </g>
    <g style="text-rendering:geometricPrecision; font-size:11; font-family:sans-serif;" transform="translate(220,307)">
      <text x="12" y="12" style="clip-path:url(#clipPath16); stroke:none;" xml:space="preserve">[minden komponensre]</text>
    </g>
    <g transform="translate(202,334)" style="font-size:11; stroke-linecap:butt; text-rendering:geometricPrecision; font-family:sans-serif; stroke-linejoin:round; font-weight:bold; stroke-miterlimit:0;">
      <rect x="0" y="0" width="310" style="clip-path:url(#clipPath18); fill:none;" height="100" />
    </g>
    <g transform="translate(202,334)" style="font-size:11; fill:white; text-rendering:geometricPrecision; font-family:sans-serif; stroke:white; font-weight:bold;">
      <path d="M32 0 L32 9 L26 17 L0 17 L0 0 Z" style="clip-path:url(#clipPath18); stroke:none;" />
    </g>
    <g transform="translate(202,334)" style="font-size:11; stroke-linecap:butt; text-rendering:geometricPrecision; font-family:sans-serif; stroke-linejoin:round; font-weight:bold; stroke-miterlimit:0;">
      <path d="M32 0 L32 9 L26 17 L0 17 L0 0 Z" style="fill:none; clip-path:url(#clipPath18);" />
    </g>
    <g transform="translate(202,334)" style="text-rendering:geometricPrecision; font-size:11; font-weight:bold; font-family:sans-serif;">
      <text x="4" y="12" style="clip-path:url(#clipPath7); stroke:none;" xml:space="preserve">loop</text>
    </g>
    <g transform="translate(242,474)" style="font-size:11; fill:white; text-rendering:geometricPrecision; font-family:sans-serif; stroke:white;">
      <polygon style="clip-path:url(#clipPath20); stroke:none;" points=" 0 0 224 0 239 15 224 15 224 0 239 15 239 39 0 39" />
    </g>
    <g transform="translate(242,474)" style="font-size:11; stroke-linecap:butt; text-rendering:geometricPrecision; font-family:sans-serif; stroke-linejoin:round; stroke-miterlimit:0;">
      <polygon style="fill:none; clip-path:url(#clipPath20);" points=" 0 0 224 0 239 15 224 15 224 0 239 15 239 39 0 39" />
    </g>
    <g style="text-rendering:geometricPrecision; font-size:11; font-family:&apos;Tahoma&apos;;" transform="translate(242,474)">
      <path d="M3.7969 17.3611 L3.7969 8.7517 L4.75 8.7517 L4.75 9.5486 Q5.0938 9.0798 5.5234 8.8454 Q5.9531 8.6111 6.5625 8.6111 Q7.3594 8.6111 7.9688 9.0173 Q8.5781 9.4236 8.8828 10.1736 Q9.1875 10.9236 9.1875 11.8142 Q9.1875 12.7673 8.8516 13.5329 Q8.5156 14.2986 7.8594 14.7048 Q7.2031 15.1111 6.4844 15.1111 Q5.9531 15.1111 5.5312 14.8845 Q5.1094 14.6579 4.8438 14.3298 L4.8438 17.3611 L3.7969 17.3611 ZM4.75 11.8923 Q4.75 13.0954 5.2344 13.6657 Q5.7188 14.2361 6.4062 14.2361 Q7.1094 14.2361 7.6094 13.6423 Q8.1094 13.0486 8.1094 11.7986 Q8.1094 10.6111 7.625 10.0251 Q7.1406 9.4392 6.4531 9.4392 Q5.7812 9.4392 5.2656 10.0642 Q4.75 10.6892 4.75 11.8923 ZM14.8594 14.2048 Q14.2656 14.7048 13.7266 14.9079 Q13.1875 15.1111 12.5625 15.1111 Q11.5312 15.1111 10.9844 14.6111 Q10.4375 14.1111 10.4375 13.3298 Q10.4375 12.8767 10.6406 12.4939 Q10.8438 12.1111 11.1875 11.8845 Q11.5312 11.6579 11.9531 11.5486 Q12.25 11.4548 12.8906 11.3767 Q14.1562 11.2361 14.7656 11.0173 Q14.7656 10.7986 14.7656 10.7517 Q14.7656 10.0954 14.4688 9.8298 Q14.0625 9.4861 13.2656 9.4861 Q12.5312 9.4861 12.1719 9.7439 Q11.8125 10.0017 11.6406 10.6579 L10.6094 10.5173 Q10.75 9.8611 11.0781 9.4548 Q11.4062 9.0486 12.0156 8.8298 Q12.625 8.6111 13.4219 8.6111 Q14.2188 8.6111 14.7188 8.7986 Q15.2188 8.9861 15.4531 9.2673 Q15.6875 9.5486 15.7812 9.9861 Q15.8281 10.2517 15.8281 10.9548 L15.8281 12.3611 Q15.8281 13.8298 15.8984 14.2204 Q15.9688 14.6111 16.1719 14.9704 L15.0625 14.9704 Q14.9062 14.6423 14.8594 14.2048 ZM14.7656 11.8454 Q14.1875 12.0798 13.0469 12.2517 Q12.3906 12.3454 12.125 12.4626 Q11.8594 12.5798 11.7109 12.7986 Q11.5625 13.0173 11.5625 13.2986 Q11.5625 13.7204 11.8828 14.0017 Q12.2031 14.2829 12.8125 14.2829 Q13.4219 14.2829 13.8984 14.0173 Q14.375 13.7517 14.5938 13.2829 Q14.7656 12.9236 14.7656 12.2361 L14.7656 11.8454 ZM17.7812 14.9704 L17.7812 8.7517 L18.7344 8.7517 L18.7344 9.6892 Q19.0938 9.0329 19.3984 8.822 Q19.7031 8.6111 20.0781 8.6111 Q20.6094 8.6111 21.1562 8.9392 L20.7969 9.9236 Q20.4062 9.6892 20.0312 9.6892 Q19.6719 9.6892 19.3984 9.9001 Q19.125 10.1111 19.0156 10.4861 Q18.8281 11.0486 18.8281 11.7048 L18.8281 14.9704 L17.7812 14.9704 ZM25.8594 14.2048 Q25.2656 14.7048 24.7266 14.9079 Q24.1875 15.1111 23.5625 15.1111 Q22.5312 15.1111 21.9844 14.6111 Q21.4375 14.1111 21.4375 13.3298 Q21.4375 12.8767 21.6406 12.4939 Q21.8438 12.1111 22.1875 11.8845 Q22.5312 11.6579 22.9531 11.5486 Q23.25 11.4548 23.8906 11.3767 Q25.1562 11.2361 25.7656 11.0173 Q25.7656 10.7986 25.7656 10.7517 Q25.7656 10.0954 25.4688 9.8298 Q25.0625 9.4861 24.2656 9.4861 Q23.5312 9.4861 23.1719 9.7439 Q22.8125 10.0017 22.6406 10.6579 L21.6094 10.5173 Q21.75 9.8611 22.0781 9.4548 Q22.4062 9.0486 23.0156 8.8298 Q23.625 8.6111 24.4219 8.6111 Q25.2188 8.6111 25.7188 8.7986 Q26.2188 8.9861 26.4531 9.2673 Q26.6875 9.5486 26.7812 9.9861 Q26.8281 10.2517 26.8281 10.9548 L26.8281 12.3611 Q26.8281 13.8298 26.8984 14.2204 Q26.9688 14.6111 27.1719 14.9704 L26.0625 14.9704 Q25.9062 14.6423 25.8594 14.2048 ZM25.7656 11.8454 Q25.1875 12.0798 24.0469 12.2517 Q23.3906 12.3454 23.125 12.4626 Q22.8594 12.5798 22.7109 12.7986 Q22.5625 13.0173 22.5625 13.2986 Q22.5625 13.7204 22.8828 14.0017 Q23.2031 14.2829 23.8125 14.2829 Q24.4219 14.2829 24.8984 14.0173 Q25.375 13.7517 25.5938 13.2829 Q25.7656 12.9236 25.7656 12.2361 L25.7656 11.8454 ZM28.7969 14.9704 L28.7969 8.7517 L29.7344 8.7517 L29.7344 9.6267 Q30.0312 9.1579 30.5156 8.8845 Q31 8.6111 31.625 8.6111 Q32.3125 8.6111 32.7578 8.8923 Q33.2031 9.1736 33.375 9.6892 Q34.125 8.6111 35.2969 8.6111 Q36.2344 8.6111 36.7266 9.1189 Q37.2188 9.6267 37.2188 10.7048 L37.2188 14.9704 L36.1719 14.9704 L36.1719 11.0486 Q36.1719 10.4236 36.0703 10.1423 Q35.9688 9.8611 35.7031 9.6892 Q35.4375 9.5173 35.0625 9.5173 Q34.4062 9.5173 33.9766 9.9548 Q33.5469 10.3923 33.5469 11.3611 L33.5469 14.9704 L32.4844 14.9704 L32.4844 10.9236 Q32.4844 10.2204 32.2266 9.8689 Q31.9688 9.5173 31.3906 9.5173 Q30.9375 9.5173 30.5625 9.7517 Q30.1875 9.9861 30.0156 10.4392 Q29.8438 10.8923 29.8438 11.7361 L29.8438 14.9704 L28.7969 14.9704 ZM44.0469 12.9704 L45.1406 13.0954 Q44.8906 14.0486 44.1875 14.5798 Q43.4844 15.1111 42.4062 15.1111 Q41.0469 15.1111 40.2422 14.2673 Q39.4375 13.4236 39.4375 11.9079 Q39.4375 10.3454 40.25 9.4782 Q41.0625 8.6111 42.3438 8.6111 Q43.5938 8.6111 44.3828 9.4548 Q45.1719 10.2986 45.1719 11.8454 Q45.1719 11.9392 45.1719 12.1267 L40.5312 12.1267 Q40.5938 13.1579 41.1094 13.697 Q41.625 14.2361 42.4062 14.2361 Q42.9844 14.2361 43.3984 13.9314 Q43.8125 13.6267 44.0469 12.9704 ZM40.5938 11.2673 L44.0625 11.2673 Q44 10.4704 43.6719 10.0798 Q43.1562 9.4704 42.3594 9.4704 Q41.625 9.4704 41.1328 9.9548 Q40.6406 10.4392 40.5938 11.2673 ZM41.125 6.9704 L41.9062 5.3298 L43.2969 5.3298 L42 6.9704 L41.125 6.9704 ZM49.0938 14.0329 L49.25 14.9548 Q48.7969 15.0486 48.4531 15.0486 Q47.875 15.0486 47.5625 14.8689 Q47.25 14.6892 47.1172 14.3923 Q46.9844 14.0954 46.9844 13.1423 L46.9844 9.5642 L46.2188 9.5642 L46.2188 8.7517 L46.9844 8.7517 L46.9844 7.2048 L48.0312 6.5798 L48.0312 8.7517 L49.0938 8.7517 L49.0938 9.5642 L48.0312 9.5642 L48.0312 13.2048 Q48.0312 13.6579 48.0859 13.7829 Q48.1406 13.9079 48.2656 13.9861 Q48.3906 14.0642 48.625 14.0642 Q48.8125 14.0642 49.0938 14.0329 ZM54.0469 12.9704 L55.1406 13.0954 Q54.8906 14.0486 54.1875 14.5798 Q53.4844 15.1111 52.4062 15.1111 Q51.0469 15.1111 50.2422 14.2673 Q49.4375 13.4236 49.4375 11.9079 Q49.4375 10.3454 50.25 9.4782 Q51.0625 8.6111 52.3438 8.6111 Q53.5938 8.6111 54.3828 9.4548 Q55.1719 10.2986 55.1719 11.8454 Q55.1719 11.9392 55.1719 12.1267 L50.5312 12.1267 Q50.5938 13.1579 51.1094 13.697 Q51.625 14.2361 52.4062 14.2361 Q52.9844 14.2361 53.3984 13.9314 Q53.8125 13.6267 54.0469 12.9704 ZM50.5938 11.2673 L54.0625 11.2673 Q54 10.4704 53.6719 10.0798 Q53.1562 9.4704 52.3594 9.4704 Q51.625 9.4704 51.1328 9.9548 Q50.6406 10.4392 50.5938 11.2673 ZM56.7812 14.9704 L56.7812 8.7517 L57.7344 8.7517 L57.7344 9.6892 Q58.0938 9.0329 58.3984 8.822 Q58.7031 8.6111 59.0781 8.6111 Q59.6094 8.6111 60.1562 8.9392 L59.7969 9.9236 Q59.4062 9.6892 59.0312 9.6892 Q58.6719 9.6892 58.3984 9.9001 Q58.125 10.1111 58.0156 10.4861 Q57.8281 11.0486 57.8281 11.7048 L57.8281 14.9704 L56.7812 14.9704 ZM65.0469 12.9704 L66.1406 13.0954 Q65.8906 14.0486 65.1875 14.5798 Q64.4844 15.1111 63.4062 15.1111 Q62.0469 15.1111 61.2422 14.2673 Q60.4375 13.4236 60.4375 11.9079 Q60.4375 10.3454 61.25 9.4782 Q62.0625 8.6111 63.3438 8.6111 Q64.5938 8.6111 65.3828 9.4548 Q66.1719 10.2986 66.1719 11.8454 Q66.1719 11.9392 66.1719 12.1267 L61.5312 12.1267 Q61.5938 13.1579 62.1094 13.697 Q62.625 14.2361 63.4062 14.2361 Q63.9844 14.2361 64.3984 13.9314 Q64.8125 13.6267 65.0469 12.9704 ZM61.5938 11.2673 L65.0625 11.2673 Q65 10.4704 64.6719 10.0798 Q64.1562 9.4704 63.3594 9.4704 Q62.625 9.4704 62.1328 9.9548 Q61.6406 10.4392 61.5938 11.2673 ZM67.7969 14.9704 L67.7969 6.3767 L68.8594 6.3767 L68.8594 11.2829 L71.3438 8.7517 L72.7188 8.7517 L70.3281 11.0486 L72.9531 14.9704 L71.6562 14.9704 L69.5938 11.7829 L68.8594 12.5017 L68.8594 14.9704 L67.7969 14.9704 ZM74.0781 9.9548 L74.0781 8.7517 L75.2812 8.7517 L75.2812 9.9548 L74.0781 9.9548 ZM74.0781 14.9704 L74.0781 13.7673 L75.2812 13.7673 L75.2812 14.9704 L74.0781 14.9704 ZM79.7969 14.9704 L79.7969 8.7517 L80.7344 8.7517 L80.7344 9.6267 Q81.0312 9.1579 81.5156 8.8845 Q82 8.6111 82.625 8.6111 Q83.3125 8.6111 83.7578 8.8923 Q84.2031 9.1736 84.375 9.6892 Q85.125 8.6111 86.2969 8.6111 Q87.2344 8.6111 87.7266 9.1189 Q88.2188 9.6267 88.2188 10.7048 L88.2188 14.9704 L87.1719 14.9704 L87.1719 11.0486 Q87.1719 10.4236 87.0703 10.1423 Q86.9688 9.8611 86.7031 9.6892 Q86.4375 9.5173 86.0625 9.5173 Q85.4062 9.5173 84.9766 9.9548 Q84.5469 10.3923 84.5469 11.3611 L84.5469 14.9704 L83.4844 14.9704 L83.4844 10.9236 Q83.4844 10.2204 83.2266 9.8689 Q82.9688 9.5173 82.3906 9.5173 Q81.9375 9.5173 81.5625 9.7517 Q81.1875 9.9861 81.0156 10.4392 Q80.8438 10.8923 80.8438 11.7361 L80.8438 14.9704 L79.7969 14.9704 ZM95.0469 12.9704 L96.1406 13.0954 Q95.8906 14.0486 95.1875 14.5798 Q94.4844 15.1111 93.4062 15.1111 Q92.0469 15.1111 91.2422 14.2673 Q90.4375 13.4236 90.4375 11.9079 Q90.4375 10.3454 91.25 9.4782 Q92.0625 8.6111 93.3438 8.6111 Q94.5938 8.6111 95.3828 9.4548 Q96.1719 10.2986 96.1719 11.8454 Q96.1719 11.9392 96.1719 12.1267 L91.5312 12.1267 Q91.5938 13.1579 92.1094 13.697 Q92.625 14.2361 93.4062 14.2361 Q93.9844 14.2361 94.3984 13.9314 Q94.8125 13.6267 95.0469 12.9704 ZM91.5938 11.2673 L95.0625 11.2673 Q95 10.4704 94.6719 10.0798 Q94.1562 9.4704 93.3594 9.4704 Q92.625 9.4704 92.1328 9.9548 Q91.6406 10.4392 91.5938 11.2673 ZM97.7656 14.9704 L97.7656 6.3767 L98.8281 6.3767 L98.8281 14.9704 L97.7656 14.9704 ZM100.75 17.3611 L100.625 16.3767 Q100.9688 16.4704 101.2344 16.4704 Q101.5781 16.4704 101.7891 16.3532 Q102 16.2361 102.1406 16.0329 Q102.2344 15.8611 102.4688 15.2361 Q102.4844 15.1579 102.5625 14.9861 L100.1875 8.7517 L101.3281 8.7517 L102.625 12.3454 Q102.875 13.0329 103.0781 13.7986 Q103.2656 13.0642 103.5156 12.3767 L104.8438 8.7517 L105.8906 8.7517 L103.5312 15.0798 Q103.1406 16.0954 102.9375 16.4861 Q102.6562 17.0173 102.2891 17.2595 Q101.9219 17.5017 101.4219 17.5017 Q101.125 17.5017 100.75 17.3611 ZM105.7969 7.5954 L105.7969 6.3767 L106.8594 6.3767 L106.8594 7.5954 L105.7969 7.5954 ZM105.7969 14.9704 L105.7969 8.7517 L106.8594 8.7517 L106.8594 14.9704 L105.7969 14.9704 ZM108.7969 14.9704 L108.7969 6.3767 L109.8594 6.3767 L109.8594 11.2829 L112.3438 8.7517 L113.7188 8.7517 L111.3281 11.0486 L113.9531 14.9704 L112.6562 14.9704 L110.5938 11.7829 L109.8594 12.5017 L109.8594 14.9704 L108.7969 14.9704 ZM118.7656 14.9704 L117.7812 14.9704 L117.7812 6.3767 L118.8438 6.3767 L118.8438 9.4392 Q119.5156 8.6111 120.5469 8.6111 Q121.125 8.6111 121.6328 8.8376 Q122.1406 9.0642 122.4766 9.4861 Q122.8125 9.9079 123 10.5017 Q123.1875 11.0954 123.1875 11.7673 Q123.1875 13.3611 122.3906 14.2361 Q121.5938 15.1111 120.5 15.1111 Q119.3906 15.1111 118.7656 14.1892 L118.7656 14.9704 ZM118.75 11.8142 Q118.75 12.9236 119.0625 13.4236 Q119.5625 14.2361 120.4062 14.2361 Q121.0938 14.2361 121.6016 13.6423 Q122.1094 13.0486 122.1094 11.8454 Q122.1094 10.6267 121.625 10.0486 Q121.1406 9.4704 120.4531 9.4704 Q119.7656 9.4704 119.2578 10.072 Q118.75 10.6736 118.75 11.8142 ZM129.0469 12.9704 L130.1406 13.0954 Q129.8906 14.0486 129.1875 14.5798 Q128.4844 15.1111 127.4062 15.1111 Q126.0469 15.1111 125.2422 14.2673 Q124.4375 13.4236 124.4375 11.9079 Q124.4375 10.3454 125.25 9.4782 Q126.0625 8.6111 127.3438 8.6111 Q128.5938 8.6111 129.3828 9.4548 Q130.1719 10.2986 130.1719 11.8454 Q130.1719 11.9392 130.1719 12.1267 L125.5312 12.1267 Q125.5938 13.1579 126.1094 13.697 Q126.625 14.2361 127.4062 14.2361 Q127.9844 14.2361 128.3984 13.9314 Q128.8125 13.6267 129.0469 12.9704 ZM125.5938 11.2673 L129.0625 11.2673 Q129 10.4704 128.6719 10.0798 Q128.1562 9.4704 127.3594 9.4704 Q126.625 9.4704 126.1328 9.9548 Q125.6406 10.4392 125.5938 11.2673 ZM131.7969 14.9704 L131.7969 8.7517 L132.7344 8.7517 L132.7344 9.6267 Q133.0312 9.1579 133.5156 8.8845 Q134 8.6111 134.625 8.6111 Q135.3125 8.6111 135.7578 8.8923 Q136.2031 9.1736 136.375 9.6892 Q137.125 8.6111 138.2969 8.6111 Q139.2344 8.6111 139.7266 9.1189 Q140.2188 9.6267 140.2188 10.7048 L140.2188 14.9704 L139.1719 14.9704 L139.1719 11.0486 Q139.1719 10.4236 139.0703 10.1423 Q138.9688 9.8611 138.7031 9.6892 Q138.4375 9.5173 138.0625 9.5173 Q137.4062 9.5173 136.9766 9.9548 Q136.5469 10.3923 136.5469 11.3611 L136.5469 14.9704 L135.4844 14.9704 L135.4844 10.9236 Q135.4844 10.2204 135.2266 9.8689 Q134.9688 9.5173 134.3906 9.5173 Q133.9375 9.5173 133.5625 9.7517 Q133.1875 9.9861 133.0156 10.4392 Q132.8438 10.8923 132.8438 11.7361 L132.8438 14.9704 L131.7969 14.9704 ZM147.0469 12.9704 L148.1406 13.0954 Q147.8906 14.0486 147.1875 14.5798 Q146.4844 15.1111 145.4062 15.1111 Q144.0469 15.1111 143.2422 14.2673 Q142.4375 13.4236 142.4375 11.9079 Q142.4375 10.3454 143.25 9.4782 Q144.0625 8.6111 145.3438 8.6111 Q146.5938 8.6111 147.3828 9.4548 Q148.1719 10.2986 148.1719 11.8454 Q148.1719 11.9392 148.1719 12.1267 L143.5312 12.1267 Q143.5938 13.1579 144.1094 13.697 Q144.625 14.2361 145.4062 14.2361 Q145.9844 14.2361 146.3984 13.9314 Q146.8125 13.6267 147.0469 12.9704 ZM143.5938 11.2673 L147.0625 11.2673 Q147 10.4704 146.6719 10.0798 Q146.1562 9.4704 145.3594 9.4704 Q144.625 9.4704 144.1328 9.9548 Q143.6406 10.4392 143.5938 11.2673 ZM149.7969 14.9704 L149.7969 8.7517 L150.7344 8.7517 L150.7344 9.6267 Q151.4219 8.6111 152.7188 8.6111 Q153.2812 8.6111 153.7578 8.8142 Q154.2344 9.0173 154.4688 9.3454 Q154.7031 9.6736 154.7969 10.1111 Q154.8438 10.4079 154.8438 11.1423 L154.8438 14.9704 L153.7969 14.9704 L153.7969 11.1892 Q153.7969 10.5329 153.6719 10.2204 Q153.5469 9.9079 153.2344 9.7126 Q152.9219 9.5173 152.5 9.5173 Q151.8281 9.5173 151.3359 9.947 Q150.8438 10.3767 150.8438 11.5642 L150.8438 14.9704 L149.7969 14.9704 ZM161.0469 12.9704 L162.1406 13.0954 Q161.8906 14.0486 161.1875 14.5798 Q160.4844 15.1111 159.4062 15.1111 Q158.0469 15.1111 157.2422 14.2673 Q156.4375 13.4236 156.4375 11.9079 Q156.4375 10.3454 157.25 9.4782 Q158.0625 8.6111 159.3438 8.6111 Q160.5938 8.6111 161.3828 9.4548 Q162.1719 10.2986 162.1719 11.8454 Q162.1719 11.9392 162.1719 12.1267 L157.5312 12.1267 Q157.5938 13.1579 158.1094 13.697 Q158.625 14.2361 159.4062 14.2361 Q159.9844 14.2361 160.3984 13.9314 Q160.8125 13.6267 161.0469 12.9704 ZM157.5938 11.2673 L161.0625 11.2673 Q161 10.4704 160.6719 10.0798 Q160.1562 9.4704 159.3594 9.4704 Q158.625 9.4704 158.1328 9.9548 Q157.6406 10.4392 157.5938 11.2673 ZM166.0938 14.0329 L166.25 14.9548 Q165.7969 15.0486 165.4531 15.0486 Q164.875 15.0486 164.5625 14.8689 Q164.25 14.6892 164.1172 14.3923 Q163.9844 14.0954 163.9844 13.1423 L163.9844 9.5642 L163.2188 9.5642 L163.2188 8.7517 L163.9844 8.7517 L163.9844 7.2048 L165.0312 6.5798 L165.0312 8.7517 L166.0938 8.7517 L166.0938 9.5642 L165.0312 9.5642 L165.0312 13.2048 Q165.0312 13.6579 165.0859 13.7829 Q165.1406 13.9079 165.2656 13.9861 Q165.3906 14.0642 165.625 14.0642 Q165.8125 14.0642 166.0938 14.0329 ZM171.0469 12.9704 L172.1406 13.0954 Q171.8906 14.0486 171.1875 14.5798 Q170.4844 15.1111 169.4062 15.1111 Q168.0469 15.1111 167.2422 14.2673 Q166.4375 13.4236 166.4375 11.9079 Q166.4375 10.3454 167.25 9.4782 Q168.0625 8.6111 169.3438 8.6111 Q170.5938 8.6111 171.3828 9.4548 Q172.1719 10.2986 172.1719 11.8454 Q172.1719 11.9392 172.1719 12.1267 L167.5312 12.1267 Q167.5938 13.1579 168.1094 13.697 Q168.625 14.2361 169.4062 14.2361 Q169.9844 14.2361 170.3984 13.9314 Q170.8125 13.6267 171.0469 12.9704 ZM167.5938 11.2673 L171.0625 11.2673 Q171 10.4704 170.6719 10.0798 Q170.1562 9.4704 169.3594 9.4704 Q168.625 9.4704 168.1328 9.9548 Q167.6406 10.4392 167.5938 11.2673 ZM168.125 6.9704 L168.9062 5.3298 L170.2969 5.3298 L169 6.9704 L168.125 6.9704 ZM173.7812 14.9704 L173.7812 8.7517 L174.7344 8.7517 L174.7344 9.6892 Q175.0938 9.0329 175.3984 8.822 Q175.7031 8.6111 176.0781 8.6111 Q176.6094 8.6111 177.1562 8.9392 L176.7969 9.9236 Q176.4062 9.6892 176.0312 9.6892 Q175.6719 9.6892 175.3984 9.9001 Q175.125 10.1111 175.0156 10.4861 Q174.8281 11.0486 174.8281 11.7048 L174.8281 14.9704 L173.7812 14.9704 ZM182.0469 12.9704 L183.1406 13.0954 Q182.8906 14.0486 182.1875 14.5798 Q181.4844 15.1111 180.4062 15.1111 Q179.0469 15.1111 178.2422 14.2673 Q177.4375 13.4236 177.4375 11.9079 Q177.4375 10.3454 178.25 9.4782 Q179.0625 8.6111 180.3438 8.6111 Q181.5938 8.6111 182.3828 9.4548 Q183.1719 10.2986 183.1719 11.8454 Q183.1719 11.9392 183.1719 12.1267 L178.5312 12.1267 Q178.5938 13.1579 179.1094 13.697 Q179.625 14.2361 180.4062 14.2361 Q180.9844 14.2361 181.3984 13.9314 Q181.8125 13.6267 182.0469 12.9704 ZM178.5938 11.2673 L182.0625 11.2673 Q182 10.4704 181.6719 10.0798 Q181.1562 9.4704 180.3594 9.4704 Q179.625 9.4704 179.1328 9.9548 Q178.6406 10.4392 178.5938 11.2673 ZM187.7969 14.9704 L187.7969 8.7517 L188.7344 8.7517 L188.7344 9.6267 Q189.0312 9.1579 189.5156 8.8845 Q190 8.6111 190.625 8.6111 Q191.3125 8.6111 191.7578 8.8923 Q192.2031 9.1736 192.375 9.6892 Q193.125 8.6111 194.2969 8.6111 Q195.2344 8.6111 195.7266 9.1189 Q196.2188 9.6267 196.2188 10.7048 L196.2188 14.9704 L195.1719 14.9704 L195.1719 11.0486 Q195.1719 10.4236 195.0703 10.1423 Q194.9688 9.8611 194.7031 9.6892 Q194.4375 9.5173 194.0625 9.5173 Q193.4062 9.5173 192.9766 9.9548 Q192.5469 10.3923 192.5469 11.3611 L192.5469 14.9704 L191.4844 14.9704 L191.4844 10.9236 Q191.4844 10.2204 191.2266 9.8689 Q190.9688 9.5173 190.3906 9.5173 Q189.9375 9.5173 189.5625 9.7517 Q189.1875 9.9861 189.0156 10.4392 Q188.8438 10.8923 188.8438 11.7361 L188.8438 14.9704 L187.7969 14.9704 ZM203.0469 12.9704 L204.1406 13.0954 Q203.8906 14.0486 203.1875 14.5798 Q202.4844 15.1111 201.4062 15.1111 Q200.0469 15.1111 199.2422 14.2673 Q198.4375 13.4236 198.4375 11.9079 Q198.4375 10.3454 199.25 9.4782 Q200.0625 8.6111 201.3438 8.6111 Q202.5938 8.6111 203.3828 9.4548 Q204.1719 10.2986 204.1719 11.8454 Q204.1719 11.9392 204.1719 12.1267 L199.5312 12.1267 Q199.5938 13.1579 200.1094 13.697 Q200.625 14.2361 201.4062 14.2361 Q201.9844 14.2361 202.3984 13.9314 Q202.8125 13.6267 203.0469 12.9704 ZM199.5938 11.2673 L203.0625 11.2673 Q203 10.4704 202.6719 10.0798 Q202.1562 9.4704 201.3594 9.4704 Q200.625 9.4704 200.1328 9.9548 Q199.6406 10.4392 199.5938 11.2673 ZM205.7656 14.9704 L205.7656 6.3767 L206.8281 6.3767 L206.8281 14.9704 L205.7656 14.9704 ZM208.75 17.3611 L208.625 16.3767 Q208.9688 16.4704 209.2344 16.4704 Q209.5781 16.4704 209.7891 16.3532 Q210 16.2361 210.1406 16.0329 Q210.2344 15.8611 210.4688 15.2361 Q210.4844 15.1579 210.5625 14.9861 L208.1875 8.7517 L209.3281 8.7517 L210.625 12.3454 Q210.875 13.0329 211.0781 13.7986 Q211.2656 13.0642 211.5156 12.3767 L212.8438 8.7517 L213.8906 8.7517 L211.5312 15.0798 Q211.1406 16.0954 210.9375 16.4861 Q210.6562 17.0173 210.2891 17.2595 Q209.9219 17.5017 209.4219 17.5017 Q209.125 17.5017 208.75 17.3611 ZM213.7969 7.5954 L213.7969 6.3767 L214.8594 6.3767 L214.8594 7.5954 L213.7969 7.5954 ZM213.7969 14.9704 L213.7969 8.7517 L214.8594 8.7517 L214.8594 14.9704 L213.7969 14.9704 ZM216.7969 14.9704 L216.7969 6.3767 L217.8594 6.3767 L217.8594 11.2829 L220.3438 8.7517 L221.7188 8.7517 L219.3281 11.0486 L221.9531 14.9704 L220.6562 14.9704 L218.5938 11.7829 L217.8594 12.5017 L217.8594 14.9704 L216.7969 14.9704 Z" style="clip-path:url(#clipPath21); stroke:none;" />
      <path d="M3.7969 28.9704 L3.7969 20.3767 L4.8594 20.3767 L4.8594 25.2829 L7.3438 22.7517 L8.7188 22.7517 L6.3281 25.0486 L8.9531 28.9704 L7.6562 28.9704 L5.5938 25.7829 L4.8594 26.5017 L4.8594 28.9704 L3.7969 28.9704 ZM9.4062 25.8611 Q9.4062 24.1267 10.3594 23.2986 Q11.1562 22.6111 12.3125 22.6111 Q13.5938 22.6111 14.4141 23.447 Q15.2344 24.2829 15.2344 25.7673 Q15.2344 26.9704 14.875 27.6579 Q14.5156 28.3454 13.8203 28.7282 Q13.125 29.1111 12.3125 29.1111 Q11.0156 29.1111 10.2109 28.2751 Q9.4062 27.4392 9.4062 25.8611 ZM10.4844 25.8611 Q10.4844 27.0486 11.0078 27.6423 Q11.5312 28.2361 12.3125 28.2361 Q13.1094 28.2361 13.625 27.6423 Q14.1406 27.0486 14.1406 25.8298 Q14.1406 24.6736 13.6172 24.0798 Q13.0938 23.4861 12.3125 23.4861 Q11.5312 23.4861 11.0078 24.072 Q10.4844 24.6579 10.4844 25.8611 ZM16.7969 28.9704 L16.7969 22.7517 L17.7344 22.7517 L17.7344 23.6267 Q18.0312 23.1579 18.5156 22.8845 Q19 22.6111 19.625 22.6111 Q20.3125 22.6111 20.7578 22.8923 Q21.2031 23.1736 21.375 23.6892 Q22.125 22.6111 23.2969 22.6111 Q24.2344 22.6111 24.7266 23.1189 Q25.2188 23.6267 25.2188 24.7048 L25.2188 28.9704 L24.1719 28.9704 L24.1719 25.0486 Q24.1719 24.4236 24.0703 24.1423 Q23.9688 23.8611 23.7031 23.6892 Q23.4375 23.5173 23.0625 23.5173 Q22.4062 23.5173 21.9766 23.9548 Q21.5469 24.3923 21.5469 25.3611 L21.5469 28.9704 L20.4844 28.9704 L20.4844 24.9236 Q20.4844 24.2204 20.2266 23.8689 Q19.9688 23.5173 19.3906 23.5173 Q18.9375 23.5173 18.5625 23.7517 Q18.1875 23.9861 18.0156 24.4392 Q17.8438 24.8923 17.8438 25.7361 L17.8438 28.9704 L16.7969 28.9704 ZM27.7969 31.3611 L27.7969 22.7517 L28.75 22.7517 L28.75 23.5486 Q29.0938 23.0798 29.5234 22.8454 Q29.9531 22.6111 30.5625 22.6111 Q31.3594 22.6111 31.9688 23.0173 Q32.5781 23.4236 32.8828 24.1736 Q33.1875 24.9236 33.1875 25.8142 Q33.1875 26.7673 32.8516 27.5329 Q32.5156 28.2986 31.8594 28.7048 Q31.2031 29.1111 30.4844 29.1111 Q29.9531 29.1111 29.5312 28.8845 Q29.1094 28.6579 28.8438 28.3298 L28.8438 31.3611 L27.7969 31.3611 ZM28.75 25.8923 Q28.75 27.0954 29.2344 27.6657 Q29.7188 28.2361 30.4062 28.2361 Q31.1094 28.2361 31.6094 27.6423 Q32.1094 27.0486 32.1094 25.7986 Q32.1094 24.6111 31.625 24.0251 Q31.1406 23.4392 30.4531 23.4392 Q29.7812 23.4392 29.2656 24.0642 Q28.75 24.6892 28.75 25.8923 ZM34.4062 25.8611 Q34.4062 24.1267 35.3594 23.2986 Q36.1562 22.6111 37.3125 22.6111 Q38.5938 22.6111 39.4141 23.447 Q40.2344 24.2829 40.2344 25.7673 Q40.2344 26.9704 39.875 27.6579 Q39.5156 28.3454 38.8203 28.7282 Q38.125 29.1111 37.3125 29.1111 Q36.0156 29.1111 35.2109 28.2751 Q34.4062 27.4392 34.4062 25.8611 ZM35.4844 25.8611 Q35.4844 27.0486 36.0078 27.6423 Q36.5312 28.2361 37.3125 28.2361 Q38.1094 28.2361 38.625 27.6423 Q39.1406 27.0486 39.1406 25.8298 Q39.1406 24.6736 38.6172 24.0798 Q38.0938 23.4861 37.3125 23.4861 Q36.5312 23.4861 36.0078 24.072 Q35.4844 24.6579 35.4844 25.8611 ZM41.7969 28.9704 L41.7969 22.7517 L42.7344 22.7517 L42.7344 23.6267 Q43.4219 22.6111 44.7188 22.6111 Q45.2812 22.6111 45.7578 22.8142 Q46.2344 23.0173 46.4688 23.3454 Q46.7031 23.6736 46.7969 24.1111 Q46.8438 24.4079 46.8438 25.1423 L46.8438 28.9704 L45.7969 28.9704 L45.7969 25.1892 Q45.7969 24.5329 45.6719 24.2204 Q45.5469 23.9079 45.2344 23.7126 Q44.9219 23.5173 44.5 23.5173 Q43.8281 23.5173 43.3359 23.947 Q42.8438 24.3767 42.8438 25.5642 L42.8438 28.9704 L41.7969 28.9704 ZM53.0469 26.9704 L54.1406 27.0954 Q53.8906 28.0486 53.1875 28.5798 Q52.4844 29.1111 51.4062 29.1111 Q50.0469 29.1111 49.2422 28.2673 Q48.4375 27.4236 48.4375 25.9079 Q48.4375 24.3454 49.25 23.4782 Q50.0625 22.6111 51.3438 22.6111 Q52.5938 22.6111 53.3828 23.4548 Q54.1719 24.2986 54.1719 25.8454 Q54.1719 25.9392 54.1719 26.1267 L49.5312 26.1267 Q49.5938 27.1579 50.1094 27.697 Q50.625 28.2361 51.4062 28.2361 Q51.9844 28.2361 52.3984 27.9314 Q52.8125 27.6267 53.0469 26.9704 ZM49.5938 25.2673 L53.0625 25.2673 Q53 24.4704 52.6719 24.0798 Q52.1562 23.4704 51.3594 23.4704 Q50.625 23.4704 50.1328 23.9548 Q49.6406 24.4392 49.5938 25.2673 ZM55.7969 28.9704 L55.7969 22.7517 L56.7344 22.7517 L56.7344 23.6267 Q57.4219 22.6111 58.7188 22.6111 Q59.2812 22.6111 59.7578 22.8142 Q60.2344 23.0173 60.4688 23.3454 Q60.7031 23.6736 60.7969 24.1111 Q60.8438 24.4079 60.8438 25.1423 L60.8438 28.9704 L59.7969 28.9704 L59.7969 25.1892 Q59.7969 24.5329 59.6719 24.2204 Q59.5469 23.9079 59.2344 23.7126 Q58.9219 23.5173 58.5 23.5173 Q57.8281 23.5173 57.3359 23.947 Q56.8438 24.3767 56.8438 25.5642 L56.8438 28.9704 L55.7969 28.9704 ZM62.375 27.1111 L63.4062 26.9548 Q63.5 27.5798 63.8984 27.9079 Q64.2969 28.2361 65.0312 28.2361 Q65.75 28.2361 66.1016 27.947 Q66.4531 27.6579 66.4531 27.2517 Q66.4531 26.8923 66.1406 26.6892 Q65.9219 26.5486 65.0625 26.3298 Q63.9062 26.0329 63.4609 25.822 Q63.0156 25.6111 62.7812 25.2361 Q62.5469 24.8611 62.5469 24.3923 Q62.5469 23.9861 62.7344 23.6267 Q62.9219 23.2673 63.25 23.0329 Q63.5 22.8611 63.9219 22.7361 Q64.3438 22.6111 64.8438 22.6111 Q65.5625 22.6111 66.1172 22.822 Q66.6719 23.0329 66.9375 23.3923 Q67.2031 23.7517 67.2969 24.3454 L66.2656 24.4861 Q66.2031 24.0173 65.8672 23.7439 Q65.5312 23.4704 64.9062 23.4704 Q64.1875 23.4704 63.875 23.7126 Q63.5625 23.9548 63.5625 24.2829 Q63.5625 24.4861 63.6875 24.6423 Q63.8281 24.8142 64.0938 24.9236 Q64.25 24.9861 65.0312 25.1892 Q66.1562 25.5017 66.5938 25.6892 Q67.0312 25.8767 67.2812 26.2361 Q67.5312 26.5954 67.5312 27.1423 Q67.5312 27.6736 67.2266 28.1345 Q66.9219 28.5954 66.3438 28.8532 Q65.7656 29.1111 65.0312 29.1111 Q63.8125 29.1111 63.1797 28.6032 Q62.5469 28.0954 62.375 27.1111 ZM70.0625 28.9704 L70.0625 27.7673 L71.2656 27.7673 L71.2656 28.9704 Q71.2656 29.6267 71.0312 30.0407 Q70.7969 30.4548 70.2969 30.6736 L70 30.2204 Q70.3281 30.0798 70.4844 29.7907 Q70.6406 29.5017 70.6719 28.9704 L70.0625 28.9704 ZM75.7969 28.9704 L75.7969 22.7517 L76.7344 22.7517 L76.7344 23.6267 Q77.0312 23.1579 77.5156 22.8845 Q78 22.6111 78.625 22.6111 Q79.3125 22.6111 79.7578 22.8923 Q80.2031 23.1736 80.375 23.6892 Q81.125 22.6111 82.2969 22.6111 Q83.2344 22.6111 83.7266 23.1189 Q84.2188 23.6267 84.2188 24.7048 L84.2188 28.9704 L83.1719 28.9704 L83.1719 25.0486 Q83.1719 24.4236 83.0703 24.1423 Q82.9688 23.8611 82.7031 23.6892 Q82.4375 23.5173 82.0625 23.5173 Q81.4062 23.5173 80.9766 23.9548 Q80.5469 24.3923 80.5469 25.3611 L80.5469 28.9704 L79.4844 28.9704 L79.4844 24.9236 Q79.4844 24.2204 79.2266 23.8689 Q78.9688 23.5173 78.3906 23.5173 Q77.9375 23.5173 77.5625 23.7517 Q77.1875 23.9861 77.0156 24.4392 Q76.8438 24.8923 76.8438 25.7361 L76.8438 28.9704 L75.7969 28.9704 ZM91.0469 26.9704 L92.1406 27.0954 Q91.8906 28.0486 91.1875 28.5798 Q90.4844 29.1111 89.4062 29.1111 Q88.0469 29.1111 87.2422 28.2673 Q86.4375 27.4236 86.4375 25.9079 Q86.4375 24.3454 87.25 23.4782 Q88.0625 22.6111 89.3438 22.6111 Q90.5938 22.6111 91.3828 23.4548 Q92.1719 24.2986 92.1719 25.8454 Q92.1719 25.9392 92.1719 26.1267 L87.5312 26.1267 Q87.5938 27.1579 88.1094 27.697 Q88.625 28.2361 89.4062 28.2361 Q89.9844 28.2361 90.3984 27.9314 Q90.8125 27.6267 91.0469 26.9704 ZM87.5938 25.2673 L91.0625 25.2673 Q91 24.4704 90.6719 24.0798 Q90.1562 23.4704 89.3594 23.4704 Q88.625 23.4704 88.1328 23.9548 Q87.6406 24.4392 87.5938 25.2673 ZM93.7656 28.9704 L93.7656 20.3767 L94.8281 20.3767 L94.8281 28.9704 L93.7656 28.9704 ZM96.75 31.3611 L96.625 30.3767 Q96.9688 30.4704 97.2344 30.4704 Q97.5781 30.4704 97.7891 30.3532 Q98 30.2361 98.1406 30.0329 Q98.2344 29.8611 98.4688 29.2361 Q98.4844 29.1579 98.5625 28.9861 L96.1875 22.7517 L97.3281 22.7517 L98.625 26.3454 Q98.875 27.0329 99.0781 27.7986 Q99.2656 27.0642 99.5156 26.3767 L100.8438 22.7517 L101.8906 22.7517 L99.5312 29.0798 Q99.1406 30.0954 98.9375 30.4861 Q98.6562 31.0173 98.2891 31.2595 Q97.9219 31.5017 97.4219 31.5017 Q97.125 31.5017 96.75 31.3611 ZM101.7969 21.5954 L101.7969 20.3767 L102.8594 20.3767 L102.8594 21.5954 L101.7969 21.5954 ZM101.7969 28.9704 L101.7969 22.7517 L102.8594 22.7517 L102.8594 28.9704 L101.7969 28.9704 ZM104.7969 28.9704 L104.7969 20.3767 L105.8594 20.3767 L105.8594 25.2829 L108.3438 22.7517 L109.7188 22.7517 L107.3281 25.0486 L109.9531 28.9704 L108.6562 28.9704 L106.5938 25.7829 L105.8594 26.5017 L105.8594 28.9704 L104.7969 28.9704 ZM113.7969 28.9704 L113.7969 20.3767 L114.8594 20.3767 L114.8594 25.2829 L117.3438 22.7517 L118.7188 22.7517 L116.3281 25.0486 L118.9531 28.9704 L117.6562 28.9704 L115.5938 25.7829 L114.8594 26.5017 L114.8594 28.9704 L113.7969 28.9704 ZM119.7969 21.5954 L119.7969 20.3767 L120.8594 20.3767 L120.8594 21.5954 L119.7969 21.5954 ZM119.7969 28.9704 L119.7969 22.7517 L120.8594 22.7517 L120.8594 28.9704 L119.7969 28.9704 ZM122.7969 28.9704 L122.7969 22.7517 L123.7344 22.7517 L123.7344 23.6267 Q124.0312 23.1579 124.5156 22.8845 Q125 22.6111 125.625 22.6111 Q126.3125 22.6111 126.7578 22.8923 Q127.2031 23.1736 127.375 23.6892 Q128.125 22.6111 129.2969 22.6111 Q130.2344 22.6111 130.7266 23.1189 Q131.2188 23.6267 131.2188 24.7048 L131.2188 28.9704 L130.1719 28.9704 L130.1719 25.0486 Q130.1719 24.4236 130.0703 24.1423 Q129.9688 23.8611 129.7031 23.6892 Q129.4375 23.5173 129.0625 23.5173 Q128.4062 23.5173 127.9766 23.9548 Q127.5469 24.3923 127.5469 25.3611 L127.5469 28.9704 L126.4844 28.9704 L126.4844 24.9236 Q126.4844 24.2204 126.2266 23.8689 Q125.9688 23.5173 125.3906 23.5173 Q124.9375 23.5173 124.5625 23.7517 Q124.1875 23.9861 124.0156 24.4392 Q123.8438 24.8923 123.8438 25.7361 L123.8438 28.9704 L122.7969 28.9704 ZM138.0469 26.9704 L139.1406 27.0954 Q138.8906 28.0486 138.1875 28.5798 Q137.4844 29.1111 136.4062 29.1111 Q135.0469 29.1111 134.2422 28.2673 Q133.4375 27.4236 133.4375 25.9079 Q133.4375 24.3454 134.25 23.4782 Q135.0625 22.6111 136.3438 22.6111 Q137.5938 22.6111 138.3828 23.4548 Q139.1719 24.2986 139.1719 25.8454 Q139.1719 25.9392 139.1719 26.1267 L134.5312 26.1267 Q134.5938 27.1579 135.1094 27.697 Q135.625 28.2361 136.4062 28.2361 Q136.9844 28.2361 137.3984 27.9314 Q137.8125 27.6267 138.0469 26.9704 ZM134.5938 25.2673 L138.0625 25.2673 Q138 24.4704 137.6719 24.0798 Q137.1562 23.4704 136.3594 23.4704 Q135.625 23.4704 135.1328 23.9548 Q134.6406 24.4392 134.5938 25.2673 ZM140.7969 28.9704 L140.7969 22.7517 L141.7344 22.7517 L141.7344 23.6267 Q142.4219 22.6111 143.7188 22.6111 Q144.2812 22.6111 144.7578 22.8142 Q145.2344 23.0173 145.4688 23.3454 Q145.7031 23.6736 145.7969 24.1111 Q145.8438 24.4079 145.8438 25.1423 L145.8438 28.9704 L144.7969 28.9704 L144.7969 25.1892 Q144.7969 24.5329 144.6719 24.2204 Q144.5469 23.9079 144.2344 23.7126 Q143.9219 23.5173 143.5 23.5173 Q142.8281 23.5173 142.3359 23.947 Q141.8438 24.3767 141.8438 25.5642 L141.8438 28.9704 L140.7969 28.9704 ZM152.0469 26.9704 L153.1406 27.0954 Q152.8906 28.0486 152.1875 28.5798 Q151.4844 29.1111 150.4062 29.1111 Q149.0469 29.1111 148.2422 28.2673 Q147.4375 27.4236 147.4375 25.9079 Q147.4375 24.3454 148.25 23.4782 Q149.0625 22.6111 150.3438 22.6111 Q151.5938 22.6111 152.3828 23.4548 Q153.1719 24.2986 153.1719 25.8454 Q153.1719 25.9392 153.1719 26.1267 L148.5312 26.1267 Q148.5938 27.1579 149.1094 27.697 Q149.625 28.2361 150.4062 28.2361 Q150.9844 28.2361 151.3984 27.9314 Q151.8125 27.6267 152.0469 26.9704 ZM148.5938 25.2673 L152.0625 25.2673 Q152 24.4704 151.6719 24.0798 Q151.1562 23.4704 150.3594 23.4704 Q149.625 23.4704 149.1328 23.9548 Q148.6406 24.4392 148.5938 25.2673 ZM157.0938 28.0329 L157.25 28.9548 Q156.7969 29.0486 156.4531 29.0486 Q155.875 29.0486 155.5625 28.8689 Q155.25 28.6892 155.1172 28.3923 Q154.9844 28.0954 154.9844 27.1423 L154.9844 23.5642 L154.2188 23.5642 L154.2188 22.7517 L154.9844 22.7517 L154.9844 21.2048 L156.0312 20.5798 L156.0312 22.7517 L157.0938 22.7517 L157.0938 23.5642 L156.0312 23.5642 L156.0312 27.2048 Q156.0312 27.6579 156.0859 27.7829 Q156.1406 27.9079 156.2656 27.9861 Q156.3906 28.0642 156.625 28.0642 Q156.8125 28.0642 157.0938 28.0329 ZM162.0469 26.9704 L163.1406 27.0954 Q162.8906 28.0486 162.1875 28.5798 Q161.4844 29.1111 160.4062 29.1111 Q159.0469 29.1111 158.2422 28.2673 Q157.4375 27.4236 157.4375 25.9079 Q157.4375 24.3454 158.25 23.4782 Q159.0625 22.6111 160.3438 22.6111 Q161.5938 22.6111 162.3828 23.4548 Q163.1719 24.2986 163.1719 25.8454 Q163.1719 25.9392 163.1719 26.1267 L158.5312 26.1267 Q158.5938 27.1579 159.1094 27.697 Q159.625 28.2361 160.4062 28.2361 Q160.9844 28.2361 161.3984 27.9314 Q161.8125 27.6267 162.0469 26.9704 ZM158.5938 25.2673 L162.0625 25.2673 Q162 24.4704 161.6719 24.0798 Q161.1562 23.4704 160.3594 23.4704 Q159.625 23.4704 159.1328 23.9548 Q158.6406 24.4392 158.5938 25.2673 ZM159.125 20.9704 L159.9062 19.3298 L161.2969 19.3298 L160 20.9704 L159.125 20.9704 ZM167.0938 28.0329 L167.25 28.9548 Q166.7969 29.0486 166.4531 29.0486 Q165.875 29.0486 165.5625 28.8689 Q165.25 28.6892 165.1172 28.3923 Q164.9844 28.0954 164.9844 27.1423 L164.9844 23.5642 L164.2188 23.5642 L164.2188 22.7517 L164.9844 22.7517 L164.9844 21.2048 L166.0312 20.5798 L166.0312 22.7517 L167.0938 22.7517 L167.0938 23.5642 L166.0312 23.5642 L166.0312 27.2048 Q166.0312 27.6579 166.0859 27.7829 Q166.1406 27.9079 166.2656 27.9861 Q166.3906 28.0642 166.625 28.0642 Q166.8125 28.0642 167.0938 28.0329 ZM170.7969 28.9704 L170.7969 20.3767 L171.8594 20.3767 L171.8594 25.2829 L174.3438 22.7517 L175.7188 22.7517 L173.3281 25.0486 L175.9531 28.9704 L174.6562 28.9704 L172.5938 25.7829 L171.8594 26.5017 L171.8594 28.9704 L170.7969 28.9704 ZM176.4062 25.8611 Q176.4062 24.1267 177.3594 23.2986 Q178.1562 22.6111 179.3125 22.6111 Q180.5938 22.6111 181.4141 23.447 Q182.2344 24.2829 182.2344 25.7673 Q182.2344 26.9704 181.875 27.6579 Q181.5156 28.3454 180.8203 28.7282 Q180.125 29.1111 179.3125 29.1111 Q178.0156 29.1111 177.2109 28.2751 Q176.4062 27.4392 176.4062 25.8611 ZM177.4844 25.8611 Q177.4844 27.0486 178.0078 27.6423 Q178.5312 28.2361 179.3125 28.2361 Q180.1094 28.2361 180.625 27.6423 Q181.1406 27.0486 181.1406 25.8298 Q181.1406 24.6736 180.6172 24.0798 Q180.0938 23.4861 179.3125 23.4861 Q178.5312 23.4861 178.0078 24.072 Q177.4844 24.6579 177.4844 25.8611 ZM177.8125 20.9704 L177.8125 19.7673 L178.9062 19.7673 L178.9062 20.9704 L177.8125 20.9704 ZM180 20.9704 L180 19.7673 L181.0938 19.7673 L181.0938 20.9704 L180 20.9704 ZM186.0938 28.0329 L186.25 28.9548 Q185.7969 29.0486 185.4531 29.0486 Q184.875 29.0486 184.5625 28.8689 Q184.25 28.6892 184.1172 28.3923 Q183.9844 28.0954 183.9844 27.1423 L183.9844 23.5642 L183.2188 23.5642 L183.2188 22.7517 L183.9844 22.7517 L183.9844 21.2048 L185.0312 20.5798 L185.0312 22.7517 L186.0938 22.7517 L186.0938 23.5642 L185.0312 23.5642 L185.0312 27.2048 Q185.0312 27.6579 185.0859 27.7829 Q185.1406 27.9079 185.2656 27.9861 Q185.3906 28.0642 185.625 28.0642 Q185.8125 28.0642 186.0938 28.0329 ZM186.7812 21.6111 L186.7812 20.3767 L187.8438 20.3767 L187.8438 21.6111 L186.7812 21.6111 ZM185.4531 31.3923 L185.6406 30.4861 Q185.9688 30.5642 186.1406 30.5642 Q186.4688 30.5642 186.625 30.3532 Q186.7812 30.1423 186.7812 29.2829 L186.7812 22.7517 L187.8438 22.7517 L187.8438 29.3142 Q187.8438 30.4548 187.5469 30.9079 Q187.1562 31.5017 186.2812 31.5017 Q185.8438 31.5017 185.4531 31.3923 ZM193.875 28.9704 L193.875 28.0486 Q193.1406 29.1111 191.8906 29.1111 Q191.3438 29.1111 190.8672 28.9001 Q190.3906 28.6892 190.1562 28.3689 Q189.9219 28.0486 189.8281 27.5798 Q189.7656 27.2829 189.7656 26.5954 L189.7656 22.7517 L190.8281 22.7517 L190.8281 26.2048 Q190.8281 27.0173 190.8906 27.3142 Q190.9844 27.7204 191.3047 27.9626 Q191.625 28.2048 192.1094 28.2048 Q192.5781 28.2048 192.9922 27.9626 Q193.4062 27.7204 193.5859 27.2986 Q193.7656 26.8767 193.7656 26.0798 L193.7656 22.7517 L194.8125 22.7517 L194.8125 28.9704 L193.875 28.9704 ZM190.3594 20.9704 L190.3594 19.7673 L191.4531 19.7673 L191.4531 20.9704 L190.3594 20.9704 ZM192.5469 20.9704 L192.5469 19.7673 L193.6406 19.7673 L193.6406 20.9704 L192.5469 20.9704 ZM196.7969 28.9704 L196.7969 20.3767 L197.8594 20.3767 L197.8594 25.2829 L200.3438 22.7517 L201.7188 22.7517 L199.3281 25.0486 L201.9531 28.9704 L200.6562 28.9704 L198.5938 25.7829 L197.8594 26.5017 L197.8594 28.9704 L196.7969 28.9704 Z" style="clip-path:url(#clipPath21); stroke:none;" />
    </g>
    <g transform="translate(62,294)" style="font-size:11; fill:white; text-rendering:geometricPrecision; font-family:sans-serif; stroke:white;">
      <polygon style="clip-path:url(#clipPath22); stroke:none;" points=" 0 0 104 0 119 15 104 15 104 0 119 15 119 39 0 39" />
    </g>
    <g transform="translate(62,294)" style="font-size:11; stroke-linecap:butt; text-rendering:geometricPrecision; font-family:sans-serif; stroke-linejoin:round; stroke-miterlimit:0;">
      <polygon style="fill:none; clip-path:url(#clipPath22);" points=" 0 0 104 0 119 15 104 15 104 0 119 15 119 39 0 39" />
    </g>
    <g style="text-rendering:geometricPrecision; font-size:11; font-family:&apos;Tahoma&apos;;" transform="translate(62,294)">
      <path d="M3.875 14.9704 L3.875 6.3767 L5.0156 6.3767 L5.0156 10.6423 L9.2812 6.3767 L10.8281 6.3767 L7.2188 9.8611 L10.9844 14.9704 L9.4844 14.9704 L6.4219 10.6267 L5.0156 11.9861 L5.0156 14.9704 L3.875 14.9704 ZM11.4062 11.8611 Q11.4062 10.1267 12.3594 9.2986 Q13.1562 8.6111 14.3125 8.6111 Q15.5938 8.6111 16.4141 9.447 Q17.2344 10.2829 17.2344 11.7673 Q17.2344 12.9704 16.875 13.6579 Q16.5156 14.3454 15.8203 14.7282 Q15.125 15.1111 14.3125 15.1111 Q13.0156 15.1111 12.2109 14.2751 Q11.4062 13.4392 11.4062 11.8611 ZM12.4844 11.8611 Q12.4844 13.0486 13.0078 13.6423 Q13.5312 14.2361 14.3125 14.2361 Q15.1094 14.2361 15.625 13.6423 Q16.1406 13.0486 16.1406 11.8298 Q16.1406 10.6736 15.6172 10.0798 Q15.0938 9.4861 14.3125 9.4861 Q13.5312 9.4861 13.0078 10.072 Q12.4844 10.6579 12.4844 11.8611 ZM18.7969 14.9704 L18.7969 8.7517 L19.7344 8.7517 L19.7344 9.6267 Q20.0312 9.1579 20.5156 8.8845 Q21 8.6111 21.625 8.6111 Q22.3125 8.6111 22.7578 8.8923 Q23.2031 9.1736 23.375 9.6892 Q24.125 8.6111 25.2969 8.6111 Q26.2344 8.6111 26.7266 9.1189 Q27.2188 9.6267 27.2188 10.7048 L27.2188 14.9704 L26.1719 14.9704 L26.1719 11.0486 Q26.1719 10.4236 26.0703 10.1423 Q25.9688 9.8611 25.7031 9.6892 Q25.4375 9.5173 25.0625 9.5173 Q24.4062 9.5173 23.9766 9.9548 Q23.5469 10.3923 23.5469 11.3611 L23.5469 14.9704 L22.4844 14.9704 L22.4844 10.9236 Q22.4844 10.2204 22.2266 9.8689 Q21.9688 9.5173 21.3906 9.5173 Q20.9375 9.5173 20.5625 9.7517 Q20.1875 9.9861 20.0156 10.4392 Q19.8438 10.8923 19.8438 11.7361 L19.8438 14.9704 L18.7969 14.9704 ZM29.7969 17.3611 L29.7969 8.7517 L30.75 8.7517 L30.75 9.5486 Q31.0938 9.0798 31.5234 8.8454 Q31.9531 8.6111 32.5625 8.6111 Q33.3594 8.6111 33.9688 9.0173 Q34.5781 9.4236 34.8828 10.1736 Q35.1875 10.9236 35.1875 11.8142 Q35.1875 12.7673 34.8516 13.5329 Q34.5156 14.2986 33.8594 14.7048 Q33.2031 15.1111 32.4844 15.1111 Q31.9531 15.1111 31.5312 14.8845 Q31.1094 14.6579 30.8438 14.3298 L30.8438 17.3611 L29.7969 17.3611 ZM30.75 11.8923 Q30.75 13.0954 31.2344 13.6657 Q31.7188 14.2361 32.4062 14.2361 Q33.1094 14.2361 33.6094 13.6423 Q34.1094 13.0486 34.1094 11.7986 Q34.1094 10.6111 33.625 10.0251 Q33.1406 9.4392 32.4531 9.4392 Q31.7812 9.4392 31.2656 10.0642 Q30.75 10.6892 30.75 11.8923 ZM36.4062 11.8611 Q36.4062 10.1267 37.3594 9.2986 Q38.1562 8.6111 39.3125 8.6111 Q40.5938 8.6111 41.4141 9.447 Q42.2344 10.2829 42.2344 11.7673 Q42.2344 12.9704 41.875 13.6579 Q41.5156 14.3454 40.8203 14.7282 Q40.125 15.1111 39.3125 15.1111 Q38.0156 15.1111 37.2109 14.2751 Q36.4062 13.4392 36.4062 11.8611 ZM37.4844 11.8611 Q37.4844 13.0486 38.0078 13.6423 Q38.5312 14.2361 39.3125 14.2361 Q40.1094 14.2361 40.625 13.6423 Q41.1406 13.0486 41.1406 11.8298 Q41.1406 10.6736 40.6172 10.0798 Q40.0938 9.4861 39.3125 9.4861 Q38.5312 9.4861 38.0078 10.072 Q37.4844 10.6579 37.4844 11.8611 ZM43.7969 14.9704 L43.7969 8.7517 L44.7344 8.7517 L44.7344 9.6267 Q45.4219 8.6111 46.7188 8.6111 Q47.2812 8.6111 47.7578 8.8142 Q48.2344 9.0173 48.4688 9.3454 Q48.7031 9.6736 48.7969 10.1111 Q48.8438 10.4079 48.8438 11.1423 L48.8438 14.9704 L47.7969 14.9704 L47.7969 11.1892 Q47.7969 10.5329 47.6719 10.2204 Q47.5469 9.9079 47.2344 9.7126 Q46.9219 9.5173 46.5 9.5173 Q45.8281 9.5173 45.3359 9.947 Q44.8438 10.3767 44.8438 11.5642 L44.8438 14.9704 L43.7969 14.9704 ZM55.0469 12.9704 L56.1406 13.0954 Q55.8906 14.0486 55.1875 14.5798 Q54.4844 15.1111 53.4062 15.1111 Q52.0469 15.1111 51.2422 14.2673 Q50.4375 13.4236 50.4375 11.9079 Q50.4375 10.3454 51.25 9.4782 Q52.0625 8.6111 53.3438 8.6111 Q54.5938 8.6111 55.3828 9.4548 Q56.1719 10.2986 56.1719 11.8454 Q56.1719 11.9392 56.1719 12.1267 L51.5312 12.1267 Q51.5938 13.1579 52.1094 13.697 Q52.625 14.2361 53.4062 14.2361 Q53.9844 14.2361 54.3984 13.9314 Q54.8125 13.6267 55.0469 12.9704 ZM51.5938 11.2673 L55.0625 11.2673 Q55 10.4704 54.6719 10.0798 Q54.1562 9.4704 53.3594 9.4704 Q52.625 9.4704 52.1328 9.9548 Q51.6406 10.4392 51.5938 11.2673 ZM57.7969 14.9704 L57.7969 8.7517 L58.7344 8.7517 L58.7344 9.6267 Q59.4219 8.6111 60.7188 8.6111 Q61.2812 8.6111 61.7578 8.8142 Q62.2344 9.0173 62.4688 9.3454 Q62.7031 9.6736 62.7969 10.1111 Q62.8438 10.4079 62.8438 11.1423 L62.8438 14.9704 L61.7969 14.9704 L61.7969 11.1892 Q61.7969 10.5329 61.6719 10.2204 Q61.5469 9.9079 61.2344 9.7126 Q60.9219 9.5173 60.5 9.5173 Q59.8281 9.5173 59.3359 9.947 Q58.8438 10.3767 58.8438 11.5642 L58.8438 14.9704 L57.7969 14.9704 ZM64.375 13.1111 L65.4062 12.9548 Q65.5 13.5798 65.8984 13.9079 Q66.2969 14.2361 67.0312 14.2361 Q67.75 14.2361 68.1016 13.947 Q68.4531 13.6579 68.4531 13.2517 Q68.4531 12.8923 68.1406 12.6892 Q67.9219 12.5486 67.0625 12.3298 Q65.9062 12.0329 65.4609 11.822 Q65.0156 11.6111 64.7812 11.2361 Q64.5469 10.8611 64.5469 10.3923 Q64.5469 9.9861 64.7344 9.6267 Q64.9219 9.2673 65.25 9.0329 Q65.5 8.8611 65.9219 8.7361 Q66.3438 8.6111 66.8438 8.6111 Q67.5625 8.6111 68.1172 8.822 Q68.6719 9.0329 68.9375 9.3923 Q69.2031 9.7517 69.2969 10.3454 L68.2656 10.4861 Q68.2031 10.0173 67.8672 9.7439 Q67.5312 9.4704 66.9062 9.4704 Q66.1875 9.4704 65.875 9.7126 Q65.5625 9.9548 65.5625 10.2829 Q65.5625 10.4861 65.6875 10.6423 Q65.8281 10.8142 66.0938 10.9236 Q66.25 10.9861 67.0312 11.1892 Q68.1562 11.5017 68.5938 11.6892 Q69.0312 11.8767 69.2812 12.2361 Q69.5312 12.5954 69.5312 13.1423 Q69.5312 13.6736 69.2266 14.1345 Q68.9219 14.5954 68.3438 14.8532 Q67.7656 15.1111 67.0312 15.1111 Q65.8125 15.1111 65.1797 14.6032 Q64.5469 14.0954 64.375 13.1111 ZM76.0469 12.9704 L77.1406 13.0954 Q76.8906 14.0486 76.1875 14.5798 Q75.4844 15.1111 74.4062 15.1111 Q73.0469 15.1111 72.2422 14.2673 Q71.4375 13.4236 71.4375 11.9079 Q71.4375 10.3454 72.25 9.4782 Q73.0625 8.6111 74.3438 8.6111 Q75.5938 8.6111 76.3828 9.4548 Q77.1719 10.2986 77.1719 11.8454 Q77.1719 11.9392 77.1719 12.1267 L72.5312 12.1267 Q72.5938 13.1579 73.1094 13.697 Q73.625 14.2361 74.4062 14.2361 Q74.9844 14.2361 75.3984 13.9314 Q75.8125 13.6267 76.0469 12.9704 ZM72.5938 11.2673 L76.0625 11.2673 Q76 10.4704 75.6719 10.0798 Q75.1562 9.4704 74.3594 9.4704 Q73.625 9.4704 73.1328 9.9548 Q72.6406 10.4392 72.5938 11.2673 ZM78.7969 14.9704 L78.7969 6.3767 L79.8594 6.3767 L79.8594 11.2829 L82.3438 8.7517 L83.7188 8.7517 L81.3281 11.0486 L83.9531 14.9704 L82.6562 14.9704 L80.5938 11.7829 L79.8594 12.5017 L79.8594 14.9704 L78.7969 14.9704 Z" style="clip-path:url(#clipPath23); stroke:none;" />
      <path d="M3.4062 25.8611 Q3.4062 24.1267 4.3594 23.2986 Q5.1562 22.6111 6.3125 22.6111 Q7.5938 22.6111 8.4141 23.447 Q9.2344 24.2829 9.2344 25.7673 Q9.2344 26.9704 8.875 27.6579 Q8.5156 28.3454 7.8203 28.7282 Q7.125 29.1111 6.3125 29.1111 Q5.0156 29.1111 4.2109 28.2751 Q3.4062 27.4392 3.4062 25.8611 ZM4.4844 25.8611 Q4.4844 27.0486 5.0078 27.6423 Q5.5312 28.2361 6.3125 28.2361 Q7.1094 28.2361 7.625 27.6423 Q8.1406 27.0486 8.1406 25.8298 Q8.1406 24.6736 7.6172 24.0798 Q7.0938 23.4861 6.3125 23.4861 Q5.5312 23.4861 5.0078 24.072 Q4.4844 24.6579 4.4844 25.8611 ZM4.8125 20.9704 L4.8125 19.7673 L5.9062 19.7673 L5.9062 20.9704 L4.8125 20.9704 ZM7 20.9704 L7 19.7673 L8.0938 19.7673 L8.0938 20.9704 L7 20.9704 ZM10.375 27.1111 L11.4062 26.9548 Q11.5 27.5798 11.8984 27.9079 Q12.2969 28.2361 13.0312 28.2361 Q13.75 28.2361 14.1016 27.947 Q14.4531 27.6579 14.4531 27.2517 Q14.4531 26.8923 14.1406 26.6892 Q13.9219 26.5486 13.0625 26.3298 Q11.9062 26.0329 11.4609 25.822 Q11.0156 25.6111 10.7812 25.2361 Q10.5469 24.8611 10.5469 24.3923 Q10.5469 23.9861 10.7344 23.6267 Q10.9219 23.2673 11.25 23.0329 Q11.5 22.8611 11.9219 22.7361 Q12.3438 22.6111 12.8438 22.6111 Q13.5625 22.6111 14.1172 22.822 Q14.6719 23.0329 14.9375 23.3923 Q15.2031 23.7517 15.2969 24.3454 L14.2656 24.4861 Q14.2031 24.0173 13.8672 23.7439 Q13.5312 23.4704 12.9062 23.4704 Q12.1875 23.4704 11.875 23.7126 Q11.5625 23.9548 11.5625 24.2829 Q11.5625 24.4861 11.6875 24.6423 Q11.8281 24.8142 12.0938 24.9236 Q12.25 24.9861 13.0312 25.1892 Q14.1562 25.5017 14.5938 25.6892 Q15.0312 25.8767 15.2812 26.2361 Q15.5312 26.5954 15.5312 27.1423 Q15.5312 27.6736 15.2266 28.1345 Q14.9219 28.5954 14.3438 28.8532 Q13.7656 29.1111 13.0312 29.1111 Q11.8125 29.1111 11.1797 28.6032 Q10.5469 28.0954 10.375 27.1111 ZM17.375 27.1111 L18.4062 26.9548 Q18.5 27.5798 18.8984 27.9079 Q19.2969 28.2361 20.0312 28.2361 Q20.75 28.2361 21.1016 27.947 Q21.4531 27.6579 21.4531 27.2517 Q21.4531 26.8923 21.1406 26.6892 Q20.9219 26.5486 20.0625 26.3298 Q18.9062 26.0329 18.4609 25.822 Q18.0156 25.6111 17.7812 25.2361 Q17.5469 24.8611 17.5469 24.3923 Q17.5469 23.9861 17.7344 23.6267 Q17.9219 23.2673 18.25 23.0329 Q18.5 22.8611 18.9219 22.7361 Q19.3438 22.6111 19.8438 22.6111 Q20.5625 22.6111 21.1172 22.822 Q21.6719 23.0329 21.9375 23.3923 Q22.2031 23.7517 22.2969 24.3454 L21.2656 24.4861 Q21.2031 24.0173 20.8672 23.7439 Q20.5312 23.4704 19.9062 23.4704 Q19.1875 23.4704 18.875 23.7126 Q18.5625 23.9548 18.5625 24.2829 Q18.5625 24.4861 18.6875 24.6423 Q18.8281 24.8142 19.0938 24.9236 Q19.25 24.9861 20.0312 25.1892 Q21.1562 25.5017 21.5938 25.6892 Q22.0312 25.8767 22.2812 26.2361 Q22.5312 26.5954 22.5312 27.1423 Q22.5312 27.6736 22.2266 28.1345 Q21.9219 28.5954 21.3438 28.8532 Q20.7656 29.1111 20.0312 29.1111 Q18.8125 29.1111 18.1797 28.6032 Q17.5469 28.0954 17.375 27.1111 ZM24.2344 28.9704 L24.2344 28.1111 L28.2031 23.5642 Q27.5156 23.5954 27 23.5954 L24.4688 23.5954 L24.4688 22.7517 L29.5625 22.7517 L29.5625 23.4392 L26.1875 27.3923 L25.5312 28.1111 Q26.25 28.0642 26.8594 28.0642 L29.75 28.0642 L29.75 28.9704 L24.2344 28.9704 ZM34.0469 26.9704 L35.1406 27.0954 Q34.8906 28.0486 34.1875 28.5798 Q33.4844 29.1111 32.4062 29.1111 Q31.0469 29.1111 30.2422 28.2673 Q29.4375 27.4236 29.4375 25.9079 Q29.4375 24.3454 30.25 23.4782 Q31.0625 22.6111 32.3438 22.6111 Q33.5938 22.6111 34.3828 23.4548 Q35.1719 24.2986 35.1719 25.8454 Q35.1719 25.9392 35.1719 26.1267 L30.5312 26.1267 Q30.5938 27.1579 31.1094 27.697 Q31.625 28.2361 32.4062 28.2361 Q32.9844 28.2361 33.3984 27.9314 Q33.8125 27.6267 34.0469 26.9704 ZM30.5938 25.2673 L34.0625 25.2673 Q34 24.4704 33.6719 24.0798 Q33.1562 23.4704 32.3594 23.4704 Q31.625 23.4704 31.1328 23.9548 Q30.6406 24.4392 30.5938 25.2673 ZM36.7969 28.9704 L36.7969 20.3767 L37.8594 20.3767 L37.8594 25.2829 L40.3438 22.7517 L41.7188 22.7517 L39.3281 25.0486 L41.9531 28.9704 L40.6562 28.9704 L38.5938 25.7829 L37.8594 26.5017 L37.8594 28.9704 L36.7969 28.9704 ZM42.4062 25.8611 Q42.4062 24.1267 43.3594 23.2986 Q44.1562 22.6111 45.3125 22.6111 Q46.5938 22.6111 47.4141 23.447 Q48.2344 24.2829 48.2344 25.7673 Q48.2344 26.9704 47.875 27.6579 Q47.5156 28.3454 46.8203 28.7282 Q46.125 29.1111 45.3125 29.1111 Q44.0156 29.1111 43.2109 28.2751 Q42.4062 27.4392 42.4062 25.8611 ZM43.4844 25.8611 Q43.4844 27.0486 44.0078 27.6423 Q44.5312 28.2361 45.3125 28.2361 Q46.1094 28.2361 46.625 27.6423 Q47.1406 27.0486 47.1406 25.8298 Q47.1406 24.6736 46.6172 24.0798 Q46.0938 23.4861 45.3125 23.4861 Q44.5312 23.4861 44.0078 24.072 Q43.4844 24.6579 43.4844 25.8611 ZM43.8125 20.9704 L43.8125 19.7673 L44.9062 19.7673 L44.9062 20.9704 L43.8125 20.9704 ZM46 20.9704 L46 19.7673 L47.0938 19.7673 L47.0938 20.9704 L46 20.9704 ZM52.0938 28.0329 L52.25 28.9548 Q51.7969 29.0486 51.4531 29.0486 Q50.875 29.0486 50.5625 28.8689 Q50.25 28.6892 50.1172 28.3923 Q49.9844 28.0954 49.9844 27.1423 L49.9844 23.5642 L49.2188 23.5642 L49.2188 22.7517 L49.9844 22.7517 L49.9844 21.2048 L51.0312 20.5798 L51.0312 22.7517 L52.0938 22.7517 L52.0938 23.5642 L51.0312 23.5642 L51.0312 27.2048 Q51.0312 27.6579 51.0859 27.7829 Q51.1406 27.9079 51.2656 27.9861 Q51.3906 28.0642 51.625 28.0642 Q51.8125 28.0642 52.0938 28.0329 ZM57.0469 26.9704 L58.1406 27.0954 Q57.8906 28.0486 57.1875 28.5798 Q56.4844 29.1111 55.4062 29.1111 Q54.0469 29.1111 53.2422 28.2673 Q52.4375 27.4236 52.4375 25.9079 Q52.4375 24.3454 53.25 23.4782 Q54.0625 22.6111 55.3438 22.6111 Q56.5938 22.6111 57.3828 23.4548 Q58.1719 24.2986 58.1719 25.8454 Q58.1719 25.9392 58.1719 26.1267 L53.5312 26.1267 Q53.5938 27.1579 54.1094 27.697 Q54.625 28.2361 55.4062 28.2361 Q55.9844 28.2361 56.3984 27.9314 Q56.8125 27.6267 57.0469 26.9704 ZM53.5938 25.2673 L57.0625 25.2673 Q57 24.4704 56.6719 24.0798 Q56.1562 23.4704 55.3594 23.4704 Q54.625 23.4704 54.1328 23.9548 Q53.6406 24.4392 53.5938 25.2673 ZM54.125 20.9704 L54.9062 19.3298 L56.2969 19.3298 L55 20.9704 L54.125 20.9704 ZM59.375 27.1111 L60.4062 26.9548 Q60.5 27.5798 60.8984 27.9079 Q61.2969 28.2361 62.0312 28.2361 Q62.75 28.2361 63.1016 27.947 Q63.4531 27.6579 63.4531 27.2517 Q63.4531 26.8923 63.1406 26.6892 Q62.9219 26.5486 62.0625 26.3298 Q60.9062 26.0329 60.4609 25.822 Q60.0156 25.6111 59.7812 25.2361 Q59.5469 24.8611 59.5469 24.3923 Q59.5469 23.9861 59.7344 23.6267 Q59.9219 23.2673 60.25 23.0329 Q60.5 22.8611 60.9219 22.7361 Q61.3438 22.6111 61.8438 22.6111 Q62.5625 22.6111 63.1172 22.822 Q63.6719 23.0329 63.9375 23.3923 Q64.2031 23.7517 64.2969 24.3454 L63.2656 24.4861 Q63.2031 24.0173 62.8672 23.7439 Q62.5312 23.4704 61.9062 23.4704 Q61.1875 23.4704 60.875 23.7126 Q60.5625 23.9548 60.5625 24.2829 Q60.5625 24.4861 60.6875 24.6423 Q60.8281 24.8142 61.0938 24.9236 Q61.25 24.9861 62.0312 25.1892 Q63.1562 25.5017 63.5938 25.6892 Q64.0312 25.8767 64.2812 26.2361 Q64.5312 26.5954 64.5312 27.1423 Q64.5312 27.6736 64.2266 28.1345 Q63.9219 28.5954 63.3438 28.8532 Q62.7656 29.1111 62.0312 29.1111 Q60.8125 29.1111 60.1797 28.6032 Q59.5469 28.0954 59.375 27.1111 ZM71.0469 26.9704 L72.1406 27.0954 Q71.8906 28.0486 71.1875 28.5798 Q70.4844 29.1111 69.4062 29.1111 Q68.0469 29.1111 67.2422 28.2673 Q66.4375 27.4236 66.4375 25.9079 Q66.4375 24.3454 67.25 23.4782 Q68.0625 22.6111 69.3438 22.6111 Q70.5938 22.6111 71.3828 23.4548 Q72.1719 24.2986 72.1719 25.8454 Q72.1719 25.9392 72.1719 26.1267 L67.5312 26.1267 Q67.5938 27.1579 68.1094 27.697 Q68.625 28.2361 69.4062 28.2361 Q69.9844 28.2361 70.3984 27.9314 Q70.8125 27.6267 71.0469 26.9704 ZM67.5938 25.2673 L71.0625 25.2673 Q71 24.4704 70.6719 24.0798 Q70.1562 23.4704 69.3594 23.4704 Q68.625 23.4704 68.1328 23.9548 Q67.6406 24.4392 67.5938 25.2673 Z" style="clip-path:url(#clipPath23); stroke:none;" />
    </g>
    <g style="text-rendering:geometricPrecision; font-size:11; font-family:sans-serif;" transform="translate(362,184)">
      <text x="39" y="12" style="clip-path:url(#clipPath24); stroke:none;" xml:space="preserve">component :</text>
      <text x="21" y="27" style="clip-path:url(#clipPath24); stroke:none;" xml:space="preserve">AbstractComponent</text>
    </g>
    <g style="text-rendering:geometricPrecision; font-size:11; font-family:sans-serif;" transform="translate(182,74)">
      <text x="4" y="12" style="clip-path:url(#clipPath25); stroke:none;" xml:space="preserve">circuit : Circuit</text>
    </g>
    <g style="text-rendering:geometricPrecision; font-size:11; font-family:sans-serif;" transform="translate(12,34)">
      <text x="12" y="12" style="clip-path:url(#clipPath26); stroke:none;" xml:space="preserve">simulation :</text>
      <text x="14" y="27" style="clip-path:url(#clipPath26); stroke:none;" xml:space="preserve">Simulation</text>
    </g>
    <g transform="translate(6,44)" style="font-size:11; stroke-linecap:butt; stroke-dashoffset:1; text-rendering:geometricPrecision; font-family:sans-serif; stroke-linejoin:round; stroke-dasharray:5;">
      <line x1="50" x2="176" y1="50" style="clip-path:url(#clipPath27); fill:none;" y2="50" />
      <line x1="176" x2="164" y1="50" style="stroke-dashoffset:0; clip-path:url(#clipPath27); fill:none; stroke-dasharray:none;" y2="44" />
      <line x1="176" x2="164" y1="50" style="stroke-dashoffset:0; clip-path:url(#clipPath27); fill:none; stroke-dasharray:none;" y2="56" />
    </g>
    <g transform="translate(6,84)" style="font-size:11; stroke-linecap:butt; text-rendering:geometricPrecision; font-family:sans-serif; stroke-linejoin:round;">
      <line x1="50" x2="212" y1="50" style="clip-path:url(#clipPath28); fill:none;" y2="50" />
      <polygon style="clip-path:url(#clipPath28); stroke:none;" points=" 212 50 200 44 200 56" />
      <polygon style="fill:none; clip-path:url(#clipPath28);" points=" 212 50 200 44 200 56" />
    </g>
    <g transform="translate(176,154)" style="font-size:11; stroke-linecap:butt; stroke-dashoffset:1; text-rendering:geometricPrecision; font-family:sans-serif; stroke-linejoin:round; stroke-dasharray:5;">
      <line x1="50" x2="186" y1="50" style="clip-path:url(#clipPath29); fill:none;" y2="50" />
      <line x1="186" x2="174" y1="50" style="stroke-dashoffset:0; clip-path:url(#clipPath29); fill:none; stroke-dasharray:none;" y2="44" />
      <line x1="186" x2="174" y1="50" style="stroke-dashoffset:0; clip-path:url(#clipPath29); fill:none; stroke-dasharray:none;" y2="56" />
    </g>
    <g transform="translate(132,144)" style="font-size:11; stroke-linecap:butt; text-rendering:geometricPrecision; font-family:sans-serif; stroke-linejoin:round; stroke-dasharray:4;">
      <line x1="59" x2="50" y1="50" style="clip-path:url(#clipPath30); fill:none;" y2="50" />
    </g>
    <g transform="translate(176,174)" style="font-size:11; stroke-linecap:butt; text-rendering:geometricPrecision; font-family:sans-serif; stroke-linejoin:round;">
      <line x1="50" x2="76" y1="50" style="clip-path:url(#clipPath31); fill:none;" y2="50" />
      <line x1="76" x2="76" y1="50" style="clip-path:url(#clipPath31); fill:none;" y2="70" />
      <line x1="76" x2="50" y1="70" style="clip-path:url(#clipPath31); fill:none;" y2="70" />
      <polygon style="clip-path:url(#clipPath31); stroke:none;" points=" 50 70 62 76 62 64" />
      <polygon style="fill:none; clip-path:url(#clipPath31);" points=" 50 70 62 76 62 64" />
    </g>
    <g transform="translate(176,354)" style="font-size:11; stroke-linecap:butt; text-rendering:geometricPrecision; font-family:sans-serif; stroke-linejoin:round;">
      <line x1="50" x2="252" y1="50" style="clip-path:url(#clipPath32); fill:none;" y2="50" />
      <polygon style="clip-path:url(#clipPath32); stroke:none;" points=" 252 50 240 44 240 56" />
      <polygon style="fill:none; clip-path:url(#clipPath32);" points=" 252 50 240 44 240 56" />
    </g>
    <g transform="translate(272,354)" style="font-size:11; stroke-linecap:butt; text-rendering:geometricPrecision; font-family:sans-serif; stroke-linejoin:round; stroke-dasharray:4;">
      <line x1="50" x2="50" y1="50" style="clip-path:url(#clipPath33); fill:none;" y2="119" />
    </g>
    <g transform="translate(132,264)" style="font-size:11; stroke-linecap:butt; text-rendering:geometricPrecision; font-family:sans-serif; stroke-linejoin:round; stroke-dasharray:4;">
      <line x1="59" x2="50" y1="50" style="clip-path:url(#clipPath30); fill:none;" y2="50" />
    </g>
    <g style="text-rendering:geometricPrecision; font-size:11; font-family:sans-serif;" transform="translate(279,384)">
      <text x="10" y="12" style="clip-path:url(#clipPath34); stroke:none;" xml:space="preserve">2.3: setInput(...)</text>
    </g>
    <g style="text-rendering:geometricPrecision; font-size:11; font-family:sans-serif;" transform="translate(252,224)">
      <text x="12" y="12" style="clip-path:url(#clipPath35); stroke:none;" xml:space="preserve">2.2: addComponent(component)</text>
    </g>
    <g style="text-rendering:geometricPrecision; font-size:11; font-family:sans-serif;" transform="translate(242,184)">
      <text x="11" y="12" style="clip-path:url(#clipPath36); stroke:none;" xml:space="preserve">2.1: &lt;&lt;create&gt;&gt;</text>
    </g>
    <g style="text-rendering:geometricPrecision; font-size:11; font-family:sans-serif;" transform="translate(110,114)">
      <text x="10" y="12" style="clip-path:url(#clipPath37); stroke:none;" xml:space="preserve">2: init()</text>
    </g>
    <g style="text-rendering:geometricPrecision; font-size:11; font-family:sans-serif;" transform="translate(75,74)">
      <text x="10" y="12" style="clip-path:url(#clipPath38); stroke:none;" xml:space="preserve">1: &lt;&lt;create&gt;&gt;</text>
    </g>
  </g>
</svg>
